# 3ds Max Wavefront OBJ Exporter v0.97b - (c)2007 guruware
# File Created: 26.03.2017 17:23:23

mtllib expbox-1.mtl

#
# object expbox_1
#

v  -2.2500 -3.2500 -1.0000
v  2.2500 -3.2500 -1.0000
v  -2.2500 3.2500 -1.0000
v  2.2500 3.2500 -1.0000
v  -2.2500 -3.2500 1.0000
v  2.2500 -3.2500 1.0000
v  -2.2500 3.2500 1.0000
v  2.2500 3.2500 1.0000
v  -2.2500 -3.2500 -1.0000
v  -2.2500 -3.2500 -1.0000
v  2.2500 -3.2500 -1.0000
v  2.2500 -3.2500 -1.0000
v  -2.2500 3.2500 -1.0000
v  -2.2500 3.2500 -1.0000
v  2.2500 3.2500 -1.0000
v  2.2500 3.2500 -1.0000
v  -2.2500 -3.2500 1.0000
v  -2.2500 -3.2500 1.0000
v  2.2500 -3.2500 1.0000
v  2.2500 -3.2500 1.0000
v  -2.2500 3.2500 1.0000
v  -2.2500 3.2500 1.0000
v  2.2500 3.2500 1.0000
v  2.2500 3.2500 1.0000
# 24 vertices

vn 0.0000 0.0000 -1.0000
vn 0.0000 0.0000 -1.0000
vn 0.0000 0.0000 -1.0000
vn 0.0000 0.0000 -1.0000
vn 0.0000 0.0000 -1.0000
vn 0.0000 0.0000 -1.0000
vn 0.0000 -0.0000 1.0000
vn 0.0000 -0.0000 1.0000
vn 0.0000 -0.0000 1.0000
vn 0.0000 -0.0000 1.0000
vn 0.0000 -0.0000 1.0000
vn 0.0000 -0.0000 1.0000
vn 0.0000 -1.0000 -0.0000
vn 0.0000 -1.0000 -0.0000
vn 0.0000 -1.0000 -0.0000
vn 0.0000 -1.0000 -0.0000
vn 0.0000 -1.0000 -0.0000
vn 0.0000 -1.0000 -0.0000
vn 1.0000 0.0000 -0.0000
vn 1.0000 0.0000 -0.0000
vn 1.0000 0.0000 -0.0000
vn 1.0000 0.0000 -0.0000
vn 1.0000 0.0000 -0.0000
vn 1.0000 0.0000 -0.0000
vn 0.0000 1.0000 0.0000
vn 0.0000 1.0000 0.0000
vn 0.0000 1.0000 0.0000
vn 0.0000 1.0000 0.0000
vn 0.0000 1.0000 0.0000
vn 0.0000 1.0000 0.0000
vn -1.0000 0.0000 -0.0000
vn -1.0000 0.0000 -0.0000
vn -1.0000 0.0000 -0.0000
vn -1.0000 0.0000 -0.0000
vn -1.0000 0.0000 -0.0000
vn -1.0000 0.0000 -0.0000
# 36 vertex normals

vt -0.4082 0.9785 0.0000
vt -0.4082 0.5215 0.0000
vt -0.0918 0.5215 0.0000
vt -0.0918 0.9785 0.0000
vt -0.9082 0.5215 0.0000
vt -0.5918 0.5215 0.0000
vt -0.5918 0.9785 0.0000
vt -0.9082 0.9785 0.0000
vt -0.9082 0.3594 0.0000
vt -0.5918 0.3594 0.0000
vt -0.5918 0.5000 0.0000
vt -0.9082 0.5000 0.0000
vt -0.4785 0.3594 0.0000
vt -0.0215 0.3594 0.0000
vt -0.0215 0.5000 0.0000
vt -0.4785 0.5000 0.0000
vt -0.9082 0.1719 0.0000
vt -0.5918 0.1719 0.0000
vt -0.5918 0.3125 0.0000
vt -0.9082 0.3125 0.0000
vt -0.4785 0.1719 0.0000
vt -0.0215 0.1719 0.0000
vt -0.0215 0.3125 0.0000
vt -0.4785 0.3125 0.0000
# 24 texture coords

g expbox_1
usemtl Material__27
f 10/1/1 14/2/2 4/3/3 
f 4/3/4 2/4/5 10/1/6 
f 17/5/7 19/6/8 23/7/9 
f 23/7/10 21/8/11 17/5/12 
f 1/9/13 12/10/14 20/11/15 
f 20/11/16 5/12/17 1/9/18 
f 11/13/19 16/14/20 24/15/21 
f 24/15/22 6/16/23 11/13/24 
f 15/17/25 13/18/26 22/19/27 
f 22/19/28 8/20/29 15/17/30 
f 3/21/31 9/22/32 18/23/33 
f 18/23/34 7/24/35 3/21/36 
# 12 faces

