# 3ds Max Wavefront OBJ Exporter v0.97b - (c)2007 guruware
# File Created: 26.03.2017 17:25:46

mtllib expbox-2.mtl

#
# object expbox_2
#

v  1.5000 3.2500 1.0000
v  1.5000 3.2500 -0.2500
v  1.0000 3.2500 -0.5000
v  1.0000 3.2500 1.0000
v  1.0000 -3.2500 -0.5000
v  1.5000 -3.2500 -0.2500
v  1.5000 -3.2500 1.0000
v  1.2500 3.2500 -0.5000
v  1.0000 -3.2500 1.0000
v  1.2500 -3.2500 -0.5000
v  1.5000 3.2500 1.0000
v  1.0000 3.2500 1.0000
v  1.5000 -3.2500 1.0000
v  1.0000 -3.2500 1.0000
# 14 vertices

vn 0.0000 -1.0000 0.0000
vn 0.0000 -1.0000 0.0000
vn 0.0000 -1.0000 0.0000
vn 0.0000 -1.0000 0.0000
vn 0.0000 -1.0000 0.0000
vn 0.0000 -1.0000 0.0000
vn 0.0000 1.0000 -0.0000
vn 0.0000 1.0000 -0.0000
vn 0.0000 1.0000 -0.0000
vn 0.0000 0.0000 1.0000
vn 0.0000 0.0000 1.0000
vn 0.0000 0.0000 1.0000
vn 0.0000 0.0000 1.0000
vn 0.0000 0.0000 1.0000
vn 0.0000 0.0000 1.0000
vn 0.0000 -1.0000 0.0000
vn 0.0000 -1.0000 0.0000
vn 0.0000 -1.0000 0.0000
vn 0.0000 1.0000 -0.0000
vn 0.0000 1.0000 -0.0000
vn 0.0000 1.0000 -0.0000
vn 0.0000 1.0000 -0.0000
vn 0.0000 1.0000 -0.0000
vn 0.0000 1.0000 -0.0000
# 24 vertex normals

vt 0.1660 0.0449 0.0000
vt 0.8164 0.0801 0.0000
vt 0.2715 0.0449 0.0000
vt 0.1660 0.0625 0.0000
vt 0.7285 0.0801 0.0000
vt 0.7285 0.0449 0.0000
vt 0.2715 0.0801 0.0000
vt 0.1836 0.0801 0.0000
vt 0.8340 0.0625 0.0000
vt 0.8340 0.0449 0.0000
# 10 texture coords

g expbox_2
usemtl Material__27
f 6/2/1 13/5/2 9/6/3 
f 9/6/4 10/9/5 6/2/6 
f 3/1/7 12/3/8 8/4/9 
f 7/5/10 11/7/11 4/3/12 
f 4/3/13 14/6/14 7/5/15 
f 9/6/16 5/10/17 10/9/18 
f 12/3/19 1/7/20 2/8/21 
f 2/8/22 8/4/23 12/3/24 
# 8 faces

#
# object expbox_2_untinted
#

v  -2.2500 3.2500 -1.0000
v  2.2500 3.2500 1.0000
v  2.2500 3.2500 -1.0000
v  2.2500 -3.2500 -1.0000
v  -2.2500 -3.2500 1.0000
v  2.2500 -3.2500 1.0000
v  -2.2500 3.2500 1.0000
v  -2.2500 -3.2500 -1.0000
v  1.5000 3.2500 1.0000
v  1.5000 3.2500 -0.2500
v  1.0000 3.2500 -0.5000
v  1.0000 3.2500 1.0000
v  1.0000 -3.2500 -0.5000
v  1.5000 -3.2500 -0.2500
v  1.5000 -3.2500 1.0000
v  1.2500 3.2500 -0.5000
v  1.0000 -3.2500 1.0000
v  1.2500 -3.2500 -0.5000
v  -2.2500 3.2500 -1.0000
v  -2.2500 3.2500 -1.0000
v  2.2500 3.2500 1.0000
v  2.2500 3.2500 1.0000
v  2.2500 3.2500 -1.0000
v  2.2500 3.2500 -1.0000
v  2.2500 -3.2500 -1.0000
v  2.2500 -3.2500 -1.0000
v  -2.2500 -3.2500 1.0000
v  -2.2500 -3.2500 1.0000
v  2.2500 -3.2500 1.0000
v  2.2500 -3.2500 1.0000
v  -2.2500 3.2500 1.0000
v  -2.2500 3.2500 1.0000
v  -2.2500 -3.2500 -1.0000
v  -2.2500 -3.2500 -1.0000
v  1.5000 3.2500 1.0000
v  1.0000 3.2500 1.0000
v  1.5000 -3.2500 1.0000
v  1.0000 -3.2500 1.0000
# 38 vertices

vn 0.0000 0.0000 1.0000
vn 0.0000 0.0000 1.0000
vn 0.0000 0.0000 1.0000
vn 0.0000 0.0000 1.0000
vn 0.0000 0.0000 1.0000
vn 0.0000 0.0000 1.0000
vn 0.0000 -1.0000 0.0000
vn 0.0000 -1.0000 0.0000
vn 0.0000 -1.0000 0.0000
vn 0.0000 -1.0000 0.0000
vn 0.0000 -1.0000 0.0000
vn 0.0000 -1.0000 0.0000
vn 1.0000 0.0000 -0.0000
vn 1.0000 0.0000 -0.0000
vn 1.0000 0.0000 -0.0000
vn 1.0000 0.0000 -0.0000
vn 1.0000 0.0000 -0.0000
vn 1.0000 0.0000 -0.0000
vn 0.0000 1.0000 -0.0000
vn 0.0000 1.0000 -0.0000
vn 0.0000 1.0000 -0.0000
vn 0.0000 1.0000 -0.0000
vn 0.0000 1.0000 -0.0000
vn 0.0000 1.0000 -0.0000
vn -1.0000 0.0000 -0.0000
vn -1.0000 0.0000 -0.0000
vn -1.0000 0.0000 -0.0000
vn -1.0000 0.0000 -0.0000
vn -1.0000 0.0000 -0.0000
vn -1.0000 0.0000 -0.0000
vn 0.0000 0.0000 1.0000
vn 0.0000 0.0000 1.0000
vn 0.0000 0.0000 1.0000
vn 0.0000 0.0000 1.0000
vn 0.0000 0.0000 1.0000
vn 0.0000 0.0000 1.0000
vn 0.0000 -1.0000 0.0000
vn 0.0000 -1.0000 0.0000
vn 0.0000 -1.0000 0.0000
vn 0.0000 -1.0000 0.0000
vn 0.0000 -1.0000 0.0000
vn 0.0000 -1.0000 0.0000
vn 0.0000 1.0000 -0.0000
vn 0.0000 1.0000 -0.0000
vn 0.0000 1.0000 -0.0000
vn 0.0000 1.0000 -0.0000
vn 0.0000 1.0000 -0.0000
vn 0.0000 1.0000 -0.0000
vn 0.0000 -0.0000 -1.0000
vn 0.0000 -0.0000 -1.0000
vn 0.0000 -0.0000 -1.0000
vn 0.0000 -0.0000 -1.0000
vn 0.0000 -0.0000 -1.0000
vn 0.0000 -0.0000 -1.0000
vn 0.0000 -1.0000 0.0000
vn 0.0000 -1.0000 0.0000
vn 0.0000 -1.0000 0.0000
vn 0.0000 -1.0000 0.0000
vn 0.0000 -1.0000 0.0000
vn 0.0000 -1.0000 0.0000
vn 0.0000 1.0000 -0.0000
vn 0.0000 1.0000 -0.0000
vn 0.0000 1.0000 -0.0000
vn 0.0000 -1.0000 0.0000
vn 0.0000 -1.0000 0.0000
vn 0.0000 -1.0000 0.0000
vn 0.0000 1.0000 -0.0000
vn 0.0000 1.0000 -0.0000
vn 0.0000 1.0000 -0.0000
vn 0.0000 1.0000 -0.0000
vn 0.0000 1.0000 -0.0000
vn 0.0000 1.0000 -0.0000
# 72 vertex normals

vt 0.5918 0.5215 0.0000
vt 0.9082 0.5215 0.0000
vt 0.0918 0.5215 0.0000
vt 0.0918 0.9785 0.0000
vt 0.0918 0.3594 0.0000
vt 0.5215 0.3594 0.0000
vt 0.9785 0.3594 0.0000
vt 0.9785 0.5000 0.0000
vt 0.5215 0.5000 0.0000
vt 0.0918 0.1719 0.0000
vt 0.5215 0.1719 0.0000
vt 0.9785 0.1719 0.0000
vt 0.9785 0.3125 0.0000
vt 0.5215 0.3125 0.0000
vt 0.9082 0.9785 0.0000
vt 0.4082 0.5215 0.0000
vt 0.5918 0.9785 0.0000
vt 0.4082 0.9785 0.0000
vt 0.0918 0.5000 0.0000
vt 0.0918 0.3125 0.0000
vt 0.4082 0.3594 0.0000
vt 0.4082 0.1719 0.0000
vt 0.4082 0.5000 0.0000
vt 0.4082 0.3125 0.0000
vt 0.1445 0.3125 0.0000
vt 0.3555 0.9785 0.0000
vt 0.1445 0.2246 0.0000
vt 0.1797 0.2070 0.0000
vt 0.1797 0.3125 0.0000
vt 0.3203 0.9785 0.0000
vt 0.3203 0.3945 0.0000
vt 0.3555 0.4121 0.0000
vt 0.3555 0.5000 0.0000
vt 0.3555 0.5215 0.0000
vt 0.1621 0.2070 0.0000
vt 0.3203 0.5000 0.0000
vt 0.3203 0.5215 0.0000
vt 0.3379 0.3945 0.0000
# 38 texture coords

g expbox_2_untinted
usemtl Material__27
f 31/47/25 50/40/26 45/14/27 
f 45/14/28 42/13/29 31/47/30 
f 27/41/31 52/46/32 41/29/33 
f 41/29/34 47/15/35 27/41/36 
f 18/16/37 37/17/38 36/18/39 
f 36/18/40 44/19/41 18/16/42 
f 24/37/43 49/35/44 16/30/45 
f 16/30/46 17/20/47 24/37/48 
f 33/21/49 48/22/50 19/23/51 
f 19/23/52 21/24/53 33/21/54 
f 20/26/55 35/28/56 23/36/57 
f 23/36/58 51/44/59 20/26/60 
f 39/31/61 43/33/62 29/43/63 
f 29/43/64 28/42/65 39/31/66 
f 34/32/67 46/34/68 26/39/69 
f 26/39/70 25/38/71 34/32/72 
f 15/11/73 38/12/74 40/25/75 
f 40/25/76 22/27/77 15/11/78 
f 39/31/79 32/48/80 27/41/81 
f 27/41/82 47/15/83 39/31/84 
f 17/20/85 30/45/86 24/37/87 
f 39/31/88 28/42/89 32/48/90 
f 17/20/91 34/32/92 25/38/93 
f 25/38/94 30/45/95 17/20/96 
# 24 faces

