# 3ds Max Wavefront OBJ Exporter v0.97b - (c)2007 guruware
# File Created: 11.03.2017 23:11:34

mtllib marker.mtl

#
# object marker
#

v  -0.1406 0.0000 0.1406
v  -0.0938 0.3750 -0.0938
v  0.1406 0.0000 0.1406
v  0.0938 0.3750 0.0938
v  0.0915 0.0431 0.1352
v  0.0554 0.3319 0.0991
v  -0.0554 0.3319 0.0991
v  0.1352 0.0431 -0.0915
v  0.0991 0.3319 0.0554
v  0.0554 0.3319 -0.0991
v  -0.0991 0.3319 0.0554
v  -0.0991 0.3319 -0.0554
v  -0.1352 0.0431 -0.0915
v  0.0938 0.3750 -0.0938
v  -0.1406 0.0000 -0.1406
v  0.1406 0.0000 -0.1406
v  -0.0938 0.3750 0.0938
v  -0.0915 0.0431 0.1352
v  0.1352 0.0431 0.0915
v  0.0991 0.3319 -0.0554
v  0.0915 0.0431 -0.1352
v  -0.0915 0.0431 -0.1352
v  -0.0554 0.3319 -0.0991
v  -0.1352 0.0431 0.0915
v  -0.1406 0.0000 0.1406
v  -0.1406 0.0000 0.1406
v  -0.0938 0.3750 -0.0938
v  -0.0938 0.3750 -0.0938
v  0.1406 0.0000 0.1406
v  0.1406 0.0000 0.1406
v  0.0938 0.3750 0.0938
v  0.0938 0.3750 0.0938
v  0.0938 0.3750 -0.0938
v  0.0938 0.3750 -0.0938
v  -0.1406 0.0000 -0.1406
v  -0.1406 0.0000 -0.1406
v  0.1406 0.0000 -0.1406
v  0.1406 0.0000 -0.1406
v  -0.0938 0.3750 0.0938
v  -0.0938 0.3750 0.0938
# 40 vertices

vn 0.0000 -1.0000 -0.0000
vn 0.0000 -1.0000 -0.0000
vn 0.0000 -1.0000 -0.0000
vn 0.0000 -1.0000 -0.0000
vn 0.0000 -1.0000 -0.0000
vn 0.0000 -1.0000 -0.0000
vn 0.0000 1.0000 -0.0000
vn 0.0000 1.0000 -0.0000
vn 0.0000 1.0000 -0.0000
vn 0.0000 1.0000 -0.0000
vn 0.0000 1.0000 -0.0000
vn 0.0000 1.0000 -0.0000
vn 0.0000 0.1240 0.9923
vn -0.0000 0.1240 0.9923
vn -0.0000 0.1240 0.9923
vn -0.0000 0.1240 0.9923
vn 0.0000 0.1240 0.9923
vn 0.0000 0.1240 0.9923
vn -0.0000 0.1240 0.9923
vn 0.0000 0.1240 0.9923
vn 0.0000 0.1240 0.9923
vn 0.0000 0.1240 0.9923
vn -0.0000 0.1240 0.9923
vn -0.0000 0.1240 0.9923
vn 0.0000 0.1240 0.9923
vn -0.0000 0.1240 0.9923
vn -0.0000 0.1240 0.9923
vn -0.0000 0.1240 0.9923
vn 0.0000 0.1240 0.9923
vn 0.0000 0.1240 0.9923
vn -0.0000 0.1240 0.9923
vn 0.0000 0.1240 0.9923
vn 0.0000 0.1240 0.9923
vn 0.0000 0.1240 0.9923
vn -0.0000 0.1240 0.9923
vn -0.0000 0.1240 0.9923
vn 0.9923 0.1240 -0.0000
vn 0.9923 0.1240 0.0000
vn 0.9923 0.1240 0.0000
vn 0.9923 0.1240 0.0000
vn 0.9923 0.1240 -0.0000
vn 0.9923 0.1240 -0.0000
vn 0.9923 0.1240 0.0000
vn 0.9923 0.1240 -0.0000
vn 0.9923 0.1240 -0.0000
vn 0.9923 0.1240 -0.0000
vn 0.9923 0.1240 0.0000
vn 0.9923 0.1240 0.0000
vn 0.9923 0.1240 -0.0000
vn 0.9923 0.1240 0.0000
vn 0.9923 0.1240 0.0000
vn 0.9923 0.1240 0.0000
vn 0.9923 0.1240 -0.0000
vn 0.9923 0.1240 -0.0000
vn 0.9923 0.1240 0.0000
vn 0.9923 0.1240 -0.0000
vn 0.9923 0.1240 -0.0000
vn 0.9923 0.1240 -0.0000
vn 0.9923 0.1240 0.0000
vn 0.9923 0.1240 0.0000
vn -0.0000 0.1240 -0.9923
vn 0.0000 0.1240 -0.9923
vn 0.0000 0.1240 -0.9923
vn 0.0000 0.1240 -0.9923
vn -0.0000 0.1240 -0.9923
vn -0.0000 0.1240 -0.9923
vn 0.0000 0.1240 -0.9923
vn -0.0000 0.1240 -0.9923
vn -0.0000 0.1240 -0.9923
vn -0.0000 0.1240 -0.9923
vn 0.0000 0.1240 -0.9923
vn 0.0000 0.1240 -0.9923
vn -0.0000 0.1240 -0.9923
vn 0.0000 0.1240 -0.9923
vn 0.0000 0.1240 -0.9923
vn 0.0000 0.1240 -0.9923
vn -0.0000 0.1240 -0.9923
vn -0.0000 0.1240 -0.9923
vn 0.0000 0.1240 -0.9923
vn -0.0000 0.1240 -0.9923
vn -0.0000 0.1240 -0.9923
vn -0.0000 0.1240 -0.9923
vn 0.0000 0.1240 -0.9923
vn 0.0000 0.1240 -0.9923
vn -0.9923 0.1240 -0.0000
vn -0.9923 0.1240 0.0000
vn -0.9923 0.1240 0.0000
vn -0.9923 0.1240 0.0000
vn -0.9923 0.1240 -0.0000
vn -0.9923 0.1240 -0.0000
vn -0.9923 0.1240 0.0000
vn -0.9923 0.1240 -0.0000
vn -0.9923 0.1240 -0.0000
vn -0.9923 0.1240 -0.0000
vn -0.9923 0.1240 0.0000
vn -0.9923 0.1240 0.0000
vn -0.9923 0.1240 -0.0000
vn -0.9923 0.1240 0.0000
vn -0.9923 0.1240 0.0000
vn -0.9923 0.1240 0.0000
vn -0.9923 0.1240 -0.0000
vn -0.9923 0.1240 -0.0000
vn -0.9923 0.1240 0.0000
vn -0.9923 0.1240 -0.0000
vn -0.9923 0.1240 -0.0000
vn -0.9923 0.1240 -0.0000
vn -0.9923 0.1240 0.0000
vn -0.9923 0.1240 0.0000
# 108 vertex normals

vt 0.7625 0.7625 0.0000
vt 0.7625 0.9875 0.0000
vt 0.9875 0.9875 0.0000
vt 0.9875 0.7625 0.0000
vt 0.8000 0.8000 0.0000
vt 0.9500 0.8000 0.0000
vt 0.9500 0.9500 0.0000
vt 0.8000 0.9500 0.0000
vt 0.9482 0.7668 0.0000
vt 0.8018 0.7668 0.0000
vt 0.9193 0.7957 0.0000
vt 0.8307 0.7957 0.0000
vt 0.9832 0.9482 0.0000
vt 0.9832 0.8018 0.0000
vt 0.9543 0.9193 0.0000
vt 0.9543 0.8307 0.0000
vt 0.8018 0.9832 0.0000
vt 0.9482 0.9832 0.0000
vt 0.8307 0.9543 0.0000
vt 0.9193 0.9543 0.0000
vt 0.7957 0.8307 0.0000
vt 0.7668 0.8018 0.0000
vt 0.7957 0.9193 0.0000
vt 0.7668 0.9482 0.0000
# 24 texture coords

g marker
usemtl Material__25
f 26/1/1 36/2/2 16/3/3 
f 16/3/4 3/4/5 26/1/6 
f 39/5/7 31/6/8 14/7/9 
f 14/7/10 2/8/11 39/5/12 
f 1/1/13 30/4/14 5/9/15 
f 5/9/16 18/10/17 1/1/18 
f 30/4/19 32/6/20 6/11/21 
f 6/11/22 5/9/23 30/4/24 
f 32/6/25 17/5/26 7/12/27 
f 7/12/28 6/11/29 32/6/30 
f 17/5/31 1/1/32 18/10/33 
f 18/10/34 7/12/35 17/5/36 
f 29/4/37 38/3/38 8/13/39 
f 8/13/40 19/14/41 29/4/42 
f 38/3/43 33/7/44 20/15/45 
f 20/15/46 8/13/47 38/3/48 
f 33/7/49 4/6/50 9/16/51 
f 9/16/52 20/15/53 33/7/54 
f 4/6/55 29/4/56 19/14/57 
f 19/14/58 9/16/59 4/6/60 
f 37/3/61 35/2/62 22/17/63 
f 22/17/64 21/18/65 37/3/66 
f 35/2/67 27/8/68 23/19/69 
f 23/19/70 22/17/71 35/2/72 
f 27/8/73 34/7/74 10/20/75 
f 10/20/76 23/19/77 27/8/78 
f 34/7/79 37/3/80 21/18/81 
f 21/18/82 10/20/83 34/7/84 
f 25/1/85 40/5/86 11/21/87 
f 11/21/88 24/22/89 25/1/90 
f 40/5/91 28/8/92 12/23/93 
f 12/23/94 11/21/95 40/5/96 
f 28/8/97 15/2/98 13/24/99 
f 13/24/100 12/23/101 28/8/102 
f 15/2/103 25/1/104 24/22/105 
f 24/22/106 13/24/107 15/2/108 
# 36 faces

#
# object numbers
#

v  -0.0915 0.0431 0.1352
v  0.0915 0.0431 0.1352
v  0.0554 0.3319 0.0991
v  -0.0554 0.3319 0.0991
v  0.1352 0.0431 0.0915
v  0.1352 0.0431 -0.0915
v  0.0991 0.3319 -0.0554
v  0.0991 0.3319 0.0554
v  0.0915 0.0431 -0.1352
v  -0.0915 0.0431 -0.1352
v  -0.0554 0.3319 -0.0991
v  0.0554 0.3319 -0.0991
v  -0.1352 0.0431 0.0915
v  -0.0991 0.3319 0.0554
v  -0.0991 0.3319 -0.0554
v  -0.1352 0.0431 -0.0915
# 16 vertices

vn 0.0000 0.1240 0.9923
vn 0.0000 0.1240 0.9923
vn 0.0000 0.1240 0.9923
vn 0.0000 0.1240 0.9923
vn 0.0000 0.1240 0.9923
vn 0.0000 0.1240 0.9923
vn 0.9923 0.1240 -0.0000
vn 0.9923 0.1240 -0.0000
vn 0.9923 0.1240 -0.0000
vn 0.9923 0.1240 -0.0000
vn 0.9923 0.1240 -0.0000
vn 0.9923 0.1240 -0.0000
vn 0.0000 0.1240 -0.9923
vn 0.0000 0.1240 -0.9923
vn 0.0000 0.1240 -0.9923
vn 0.0000 0.1240 -0.9923
vn 0.0000 0.1240 -0.9923
vn 0.0000 0.1240 -0.9923
vn -0.9923 0.1240 -0.0000
vn -0.9923 0.1240 -0.0000
vn -0.9923 0.1240 -0.0000
vn -0.9923 0.1240 -0.0000
vn -0.9923 0.1240 -0.0000
vn -0.9923 0.1240 -0.0000
# 24 vertex normals

vt 0.0922 0.0500 0.0000
vt 0.6578 0.0500 0.0000
vt 0.5462 0.9500 0.0000
vt 0.2038 0.9500 0.0000
vt 0.0922 0.0500 0.0000
vt 0.6578 0.0500 0.0000
vt 0.5462 0.9500 0.0000
vt 0.2038 0.9500 0.0000
vt 0.0922 0.0500 0.0000
vt 0.6578 0.0500 0.0000
vt 0.5462 0.9500 0.0000
vt 0.2038 0.9500 0.0000
vt 0.0922 0.0500 0.0000
vt 0.6578 0.0500 0.0000
vt 0.5462 0.9500 0.0000
vt 0.2038 0.9500 0.0000
# 16 texture coords

g numbers
usemtl Material__25
f 41/37/109 42/38/110 43/39/111 
f 43/39/112 44/40/113 41/37/114 
f 45/25/115 46/26/116 47/27/117 
f 47/27/118 48/28/119 45/25/120 
f 49/29/121 50/30/122 51/31/123 
f 51/31/124 52/32/125 49/29/126 
f 56/33/127 53/34/128 54/35/129 
f 54/35/130 55/36/131 56/33/132 
# 8 faces

