# 3ds Max Wavefront OBJ Exporter v0.97b - (c)2007 guruware
# File Created: 11.03.2017 15:16:46

mtllib marker.mtl

#
# object marker
#

v  -0.1875 0.0000 0.1875
v  0.1875 0.0000 0.1875
v  -0.1875 0.0000 -0.1875
v  0.1875 0.0000 -0.1875
v  -0.1250 0.5000 0.1250
v  0.1250 0.5000 0.1250
v  -0.1250 0.5000 -0.1250
v  0.1250 0.5000 -0.1250
v  -0.1521 0.0310 0.1836
v  0.1521 0.0310 0.1836
v  0.0974 0.4690 0.1289
v  -0.0974 0.4690 0.1289
v  0.1836 0.0310 0.1521
v  0.1836 0.0310 -0.1521
v  0.1289 0.4690 -0.0974
v  0.1289 0.4690 0.0974
v  0.1521 0.0310 -0.1836
v  -0.1521 0.0310 -0.1836
v  -0.0974 0.4690 -0.1289
v  0.0974 0.4690 -0.1289
v  -0.1836 0.0310 -0.1521
v  -0.1836 0.0310 0.1521
v  -0.1289 0.4690 0.0974
v  -0.1289 0.4690 -0.0974
v  -0.1875 0.0000 0.1875
v  -0.1875 0.0000 0.1875
v  -0.1875 0.0000 0.1875
v  -0.1875 0.0000 0.1875
v  0.1875 0.0000 0.1875
v  0.1875 0.0000 0.1875
v  0.1875 0.0000 0.1875
v  0.1875 0.0000 0.1875
v  -0.1875 0.0000 -0.1875
v  -0.1875 0.0000 -0.1875
v  -0.1875 0.0000 -0.1875
v  -0.1875 0.0000 -0.1875
v  0.1875 0.0000 -0.1875
v  0.1875 0.0000 -0.1875
v  0.1875 0.0000 -0.1875
v  0.1875 0.0000 -0.1875
v  -0.1250 0.5000 0.1250
v  -0.1250 0.5000 0.1250
v  -0.1250 0.5000 0.1250
v  -0.1250 0.5000 0.1250
v  0.1250 0.5000 0.1250
v  0.1250 0.5000 0.1250
v  0.1250 0.5000 0.1250
v  0.1250 0.5000 0.1250
v  -0.1250 0.5000 -0.1250
v  -0.1250 0.5000 -0.1250
v  -0.1250 0.5000 -0.1250
v  -0.1250 0.5000 -0.1250
v  0.1250 0.5000 -0.1250
v  0.1250 0.5000 -0.1250
v  0.1250 0.5000 -0.1250
v  0.1250 0.5000 -0.1250
v  -0.1521 0.0310 0.1836
v  0.1521 0.0310 0.1836
v  0.0974 0.4690 0.1289
v  -0.0974 0.4690 0.1289
v  0.1836 0.0310 0.1521
v  0.1836 0.0310 -0.1521
v  0.1289 0.4690 -0.0974
v  0.1289 0.4690 0.0974
v  0.1521 0.0310 -0.1836
v  -0.1521 0.0310 -0.1836
v  -0.0974 0.4690 -0.1289
v  0.0974 0.4690 -0.1289
v  -0.1836 0.0310 -0.1521
v  -0.1836 0.0310 0.1521
v  -0.1289 0.4690 0.0974
v  -0.1289 0.4690 -0.0974
# 72 vertices

vn 0.0000 -1.0000 -0.0000
vn 0.0000 -1.0000 -0.0000
vn 0.0000 -1.0000 -0.0000
vn 0.0000 -1.0000 -0.0000
vn 0.0000 -1.0000 -0.0000
vn 0.0000 -1.0000 -0.0000
vn 0.0000 1.0000 -0.0000
vn 0.0000 1.0000 -0.0000
vn 0.0000 1.0000 -0.0000
vn 0.0000 1.0000 -0.0000
vn 0.0000 1.0000 -0.0000
vn 0.0000 1.0000 -0.0000
vn 0.0000 0.1240 0.9923
vn 0.0000 0.1240 0.9923
vn 0.0000 0.1240 0.9923
vn 0.0000 0.1240 0.9923
vn 0.0000 0.1240 0.9923
vn 0.0000 0.1240 0.9923
vn 0.0000 0.1240 0.9923
vn 0.0000 0.1240 0.9923
vn 0.0000 0.1240 0.9923
vn -0.0000 0.1240 0.9923
vn -0.0000 0.1240 0.9923
vn -0.0000 0.1240 0.9923
vn 0.0000 0.1240 0.9923
vn 0.0000 0.1240 0.9923
vn 0.0000 0.1240 0.9923
vn 0.0000 0.1240 0.9923
vn 0.0000 0.1240 0.9923
vn 0.0000 0.1240 0.9923
vn 0.0000 0.1240 0.9923
vn 0.0000 0.1240 0.9923
vn 0.0000 0.1240 0.9923
vn -0.0000 0.1240 0.9923
vn -0.0000 0.1240 0.9923
vn -0.0000 0.1240 0.9923
vn 0.9923 0.1240 -0.0000
vn 0.9923 0.1240 -0.0000
vn 0.9923 0.1240 -0.0000
vn 0.9923 0.1240 -0.0000
vn 0.9923 0.1240 -0.0000
vn 0.9923 0.1240 -0.0000
vn 0.9923 0.1240 -0.0000
vn 0.9923 0.1240 -0.0000
vn 0.9923 0.1240 -0.0000
vn 0.9923 0.1240 0.0000
vn 0.9923 0.1240 0.0000
vn 0.9923 0.1240 0.0000
vn 0.9923 0.1240 -0.0000
vn 0.9923 0.1240 -0.0000
vn 0.9923 0.1240 -0.0000
vn 0.9923 0.1240 -0.0000
vn 0.9923 0.1240 -0.0000
vn 0.9923 0.1240 -0.0000
vn 0.9923 0.1240 -0.0000
vn 0.9923 0.1240 -0.0000
vn 0.9923 0.1240 -0.0000
vn 0.9923 0.1240 0.0000
vn 0.9923 0.1240 0.0000
vn 0.9923 0.1240 0.0000
vn 0.0000 0.1240 -0.9923
vn 0.0000 0.1240 -0.9923
vn 0.0000 0.1240 -0.9923
vn 0.0000 0.1240 -0.9923
vn 0.0000 0.1240 -0.9923
vn 0.0000 0.1240 -0.9923
vn -0.0000 0.1240 -0.9923
vn -0.0000 0.1240 -0.9923
vn -0.0000 0.1240 -0.9923
vn 0.0000 0.1240 -0.9923
vn 0.0000 0.1240 -0.9923
vn 0.0000 0.1240 -0.9923
vn 0.0000 0.1240 -0.9923
vn 0.0000 0.1240 -0.9923
vn 0.0000 0.1240 -0.9923
vn 0.0000 0.1240 -0.9923
vn 0.0000 0.1240 -0.9923
vn 0.0000 0.1240 -0.9923
vn -0.0000 0.1240 -0.9923
vn -0.0000 0.1240 -0.9923
vn -0.0000 0.1240 -0.9923
vn 0.0000 0.1240 -0.9923
vn 0.0000 0.1240 -0.9923
vn 0.0000 0.1240 -0.9923
vn -0.9923 0.1240 -0.0000
vn -0.9923 0.1240 -0.0000
vn -0.9923 0.1240 -0.0000
vn -0.9923 0.1240 -0.0000
vn -0.9923 0.1240 -0.0000
vn -0.9923 0.1240 -0.0000
vn -0.9923 0.1240 0.0000
vn -0.9923 0.1240 0.0000
vn -0.9923 0.1240 0.0000
vn -0.9923 0.1240 -0.0000
vn -0.9923 0.1240 -0.0000
vn -0.9923 0.1240 -0.0000
vn -0.9923 0.1240 -0.0000
vn -0.9923 0.1240 -0.0000
vn -0.9923 0.1240 -0.0000
vn -0.9923 0.1240 -0.0000
vn -0.9923 0.1240 -0.0000
vn -0.9923 0.1240 -0.0000
vn -0.9923 0.1240 0.0000
vn -0.9923 0.1240 0.0000
vn -0.9923 0.1240 0.0000
vn -0.9923 0.1240 -0.0000
vn -0.9923 0.1240 -0.0000
vn -0.9923 0.1240 -0.0000
# 108 vertex normals

vt 0.7500 0.7500 0.0000
vt 0.7500 0.9375 0.0000
vt 0.9375 0.9375 0.0000
vt 0.9375 0.7500 0.0000
vt 0.7813 0.7813 0.0000
vt 0.9063 0.7813 0.0000
vt 0.9063 0.9063 0.0000
vt 0.7813 0.9063 0.0000
vt 0.9198 0.7519 0.0000
vt 0.7677 0.7519 0.0000
vt 0.8924 0.7793 0.0000
vt 0.7951 0.7793 0.0000
vt 0.9356 0.9198 0.0000
vt 0.9356 0.7677 0.0000
vt 0.9082 0.8924 0.0000
vt 0.9082 0.7951 0.0000
vt 0.7677 0.9356 0.0000
vt 0.9198 0.9356 0.0000
vt 0.7951 0.9082 0.0000
vt 0.8924 0.9082 0.0000
vt 0.7519 0.7677 0.0000
vt 0.7519 0.9198 0.0000
vt 0.7793 0.7951 0.0000
vt 0.7793 0.8924 0.0000
# 24 texture coords

g marker
usemtl Material__25
f 28/1/1 36/2/2 4/3/3 
f 4/3/4 2/4/5 28/1/6 
f 42/5/7 46/6/8 54/7/9 
f 54/7/10 50/8/11 42/5/12 
f 1/1/13 32/4/14 10/9/15 
f 10/9/16 57/10/17 1/1/18 
f 31/4/19 48/6/20 11/11/21 
f 11/11/22 58/9/23 31/4/24 
f 47/6/25 41/5/26 12/12/27 
f 12/12/28 59/11/29 47/6/30 
f 5/5/31 25/1/32 9/10/33 
f 9/10/34 60/12/35 5/5/36 
f 29/4/37 40/3/38 14/13/39 
f 14/13/40 61/14/41 29/4/42 
f 39/3/43 56/7/44 15/15/45 
f 15/15/46 62/13/47 39/3/48 
f 55/7/49 45/6/50 16/16/51 
f 16/16/52 63/15/53 55/7/54 
f 6/6/55 30/4/56 13/14/57 
f 13/14/58 64/16/59 6/6/60 
f 37/3/61 35/2/62 18/17/63 
f 18/17/64 65/18/65 37/3/66 
f 34/2/67 52/8/68 19/19/69 
f 19/19/70 66/17/71 34/2/72 
f 51/8/73 53/7/74 20/20/75 
f 20/20/76 67/19/77 51/8/78 
f 8/7/79 38/3/80 17/18/81 
f 17/18/82 68/20/83 8/7/84 
f 3/2/85 27/1/86 22/21/87 
f 22/21/88 69/22/89 3/2/90 
f 26/1/91 44/5/92 23/23/93 
f 23/23/94 70/21/95 26/1/96 
f 43/5/97 49/8/98 24/24/99 
f 24/24/100 71/23/101 43/5/102 
f 7/8/103 33/2/104 21/22/105 
f 21/22/106 72/24/107 7/8/108 
# 36 faces

#
# object numbers
#

v  -0.1521 0.0310 0.1836
v  0.1521 0.0310 0.1836
v  0.0974 0.4690 0.1289
v  -0.0974 0.4690 0.1289
v  0.1836 0.0310 0.1521
v  0.1836 0.0310 -0.1521
v  0.1289 0.4690 -0.0974
v  0.1289 0.4690 0.0974
v  0.1521 0.0310 -0.1836
v  -0.1521 0.0310 -0.1836
v  -0.0974 0.4690 -0.1289
v  0.0974 0.4690 -0.1289
v  -0.1836 0.0310 -0.1521
v  -0.1836 0.0310 0.1521
v  -0.1289 0.4690 0.0974
v  -0.1289 0.4690 -0.0974
# 16 vertices

vn 0.0000 0.1240 0.9923
vn 0.0000 0.1240 0.9923
vn 0.0000 0.1240 0.9923
vn 0.0000 0.1240 0.9923
vn 0.0000 0.1240 0.9923
vn 0.0000 0.1240 0.9923
vn 0.9923 0.1240 -0.0000
vn 0.9923 0.1240 -0.0000
vn 0.9923 0.1240 -0.0000
vn 0.9923 0.1240 -0.0000
vn 0.9923 0.1240 -0.0000
vn 0.9923 0.1240 -0.0000
vn 0.0000 0.1240 -0.9923
vn 0.0000 0.1240 -0.9923
vn 0.0000 0.1240 -0.9923
vn 0.0000 0.1240 -0.9923
vn 0.0000 0.1240 -0.9923
vn 0.0000 0.1240 -0.9923
vn -0.9923 0.1240 -0.0000
vn -0.9923 0.1240 -0.0000
vn -0.9923 0.1240 -0.0000
vn -0.9923 0.1240 -0.0000
vn -0.9923 0.1240 -0.0000
vn -0.9923 0.1240 -0.0000
# 24 vertex normals

vt 0.0519 0.0313 0.0000
vt 0.6981 0.0313 0.0000
vt 0.5818 0.9688 0.0000
vt 0.1682 0.9688 0.0000
vt 0.0519 0.0313 0.0000
vt 0.6981 0.0313 0.0000
vt 0.5818 0.9688 0.0000
vt 0.1682 0.9688 0.0000
vt 0.0519 0.0313 0.0000
vt 0.6981 0.0313 0.0000
vt 0.5818 0.9688 0.0000
vt 0.1682 0.9688 0.0000
vt 0.0519 0.0313 0.0000
vt 0.6981 0.0313 0.0000
vt 0.5818 0.9688 0.0000
vt 0.1682 0.9688 0.0000
# 16 texture coords

g numbers
usemtl Material__25
f 73/25/109 74/26/110 75/27/111 
f 75/27/112 76/28/113 73/25/114 
f 77/29/115 78/30/116 79/31/117 
f 79/31/118 80/32/119 77/29/120 
f 81/33/121 82/34/122 83/35/123 
f 83/35/124 84/36/125 81/33/126 
f 85/37/127 86/38/128 87/39/129 
f 87/39/130 88/40/131 85/37/132 
# 8 faces

