# 3ds Max Wavefront OBJ Exporter v0.97b - (c)2007 guruware
# File Created: 09.03.2017 21:32:13

mtllib Arc-4-30_MSH.mtl

#
# object Arc_4_30
#

v  -1.0353 -0.1250 -3.8637
v  -1.0353 0.1250 -3.8637
v  -0.0000 -0.1250 -0.0000
v  -0.0000 0.1250 -0.0000
v  -1.0353 -0.1250 -3.8637
v  -1.0353 0.1250 -3.8637
v  -0.0000 0.1250 -0.0000
v  -0.0000 -0.1250 -0.0000
v  1.0353 -0.1250 -3.8637
v  1.0353 0.1250 -3.8637
v  -0.0000 -0.1250 -0.0000
v  -0.0000 0.1250 -0.0000
v  1.0353 -0.1250 -3.8637
v  1.0353 0.1250 -3.8637
v  -0.0000 0.1250 -0.0000
v  -0.0000 -0.1250 -0.0000
v  0.1305 -0.1250 -0.9914
v  0.1305 0.1250 -0.9914
v  0.2611 -0.1250 -1.9829
v  0.2611 0.1250 -1.9829
v  0.5209 -0.1250 -2.9544
v  0.2615 -0.1250 -2.9886
v  0.5209 0.1250 -2.9544
v  0.2615 0.1250 -2.9886
v  0.6946 -0.1250 -3.9392
v  0.3486 -0.1250 -3.9848
v  0.6946 0.1250 -3.9392
v  0.3486 0.1250 -3.9848
v  0.0000 -0.1250 -1.0000
v  0.0000 0.1250 -1.0000
v  -0.1305 0.1250 -0.9914
v  -0.1305 -0.1250 -0.9914
v  0.0000 -0.1250 -2.0000
v  0.0000 0.1250 -2.0000
v  -0.2611 0.1250 -1.9829
v  -0.2611 -0.1250 -1.9829
v  -0.5176 0.1250 -1.9319
v  0.0000 -0.1250 -3.0000
v  0.0000 0.1250 -3.0000
v  -0.2615 0.1250 -2.9886
v  -0.2615 -0.1250 -2.9886
v  -0.5209 0.1250 -2.9544
v  -0.5209 -0.1250 -2.9544
v  -0.7765 0.1250 -2.8978
v  -0.7765 -0.1250 -2.8978
v  0.0000 -0.1250 -4.0000
v  0.0000 0.1250 -4.0000
v  -0.3486 0.1250 -3.9848
v  -0.3486 -0.1250 -3.9848
v  -0.6946 0.1250 -3.9392
v  -0.6946 -0.1250 -3.9392
v  -0.2588 -0.1250 -0.9659
v  -0.2588 0.1250 -0.9659
v  -0.5176 -0.1250 -1.9319
v  -1.0353 -0.1250 -3.8637
v  -1.0353 0.1250 -3.8637
v  0.2588 0.1250 -0.9659
v  0.2588 -0.1250 -0.9659
v  0.5176 0.1250 -1.9319
v  0.5176 -0.1250 -1.9319
v  0.7765 0.1250 -2.8978
v  0.7765 -0.1250 -2.8978
v  1.0353 0.1250 -3.8637
v  1.0353 -0.1250 -3.8637
v  0.1305 -0.1250 -0.9914
v  0.1305 0.1250 -0.9914
v  0.2611 -0.1250 -1.9829
v  0.2611 0.1250 -1.9829
v  0.5209 -0.1250 -2.9544
v  0.2615 -0.1250 -2.9886
v  0.5209 0.1250 -2.9544
v  0.2615 0.1250 -2.9886
v  0.6946 -0.1250 -3.9392
v  0.3486 -0.1250 -3.9848
v  0.6946 0.1250 -3.9392
v  0.3486 0.1250 -3.9848
v  0.0000 -0.1250 -1.0000
v  0.0000 0.1250 -1.0000
v  -0.1305 0.1250 -0.9914
v  -0.1305 -0.1250 -0.9914
v  0.0000 -0.1250 -2.0000
v  0.0000 0.1250 -2.0000
v  -0.2611 0.1250 -1.9829
v  -0.2611 -0.1250 -1.9829
v  -0.5176 0.1250 -1.9319
v  0.0000 -0.1250 -3.0000
v  0.0000 0.1250 -3.0000
v  -0.2615 0.1250 -2.9886
v  -0.2615 -0.1250 -2.9886
v  -0.5209 0.1250 -2.9544
v  -0.5209 -0.1250 -2.9544
v  -0.7765 0.1250 -2.8978
v  -0.7765 -0.1250 -2.8978
v  0.0000 -0.1250 -4.0000
v  0.0000 0.1250 -4.0000
v  -0.3486 0.1250 -3.9848
v  -0.3486 -0.1250 -3.9848
v  -0.6946 0.1250 -3.9392
v  -0.6946 -0.1250 -3.9392
v  -0.2588 -0.1250 -0.9659
v  -0.2588 0.1250 -0.9659
v  -0.5176 -0.1250 -1.9319
v  -1.0353 -0.1250 -3.8637
v  -1.0353 0.1250 -3.8637
v  0.2588 0.1250 -0.9659
v  0.2588 -0.1250 -0.9659
v  0.5176 0.1250 -1.9319
v  0.5176 -0.1250 -1.9319
v  0.7765 0.1250 -2.8978
v  0.7765 -0.1250 -2.8978
v  1.0353 0.1250 -3.8637
v  1.0353 -0.1250 -3.8637
v  -0.2500 -0.0313 0.7188
v  0.2500 -0.0313 0.7188
v  -0.2500 -0.0313 0.5312
v  0.2500 -0.0313 0.5313
v  -0.2500 0.0312 0.7188
v  0.2500 0.0312 0.7188
v  -0.2500 0.0312 0.5312
v  0.2500 0.0312 0.5313
v  -0.2500 -0.0313 0.7188
v  -0.2500 -0.0313 0.7188
v  0.2500 -0.0313 0.7188
v  0.2500 -0.0313 0.7188
v  -0.2500 -0.0313 0.5312
v  -0.2500 -0.0313 0.5312
v  0.2500 -0.0313 0.5313
v  0.2500 -0.0313 0.5313
v  -0.2500 0.0312 0.7188
v  -0.2500 0.0312 0.7188
v  0.2500 0.0312 0.7188
v  0.2500 0.0312 0.7188
v  -0.2500 0.0312 0.5312
v  -0.2500 0.0312 0.5312
v  0.2500 0.0312 0.5313
v  0.2500 0.0312 0.5313
# 136 vertices

vn -0.9659 0.0000 0.2588
vn -0.9659 0.0000 0.2588
vn -0.9659 0.0000 0.2588
vn -0.9659 0.0000 0.2588
vn -0.9659 0.0000 0.2588
vn -0.9659 0.0000 0.2588
vn 0.9659 0.0000 -0.2588
vn 0.9659 0.0000 -0.2588
vn 0.9659 0.0000 -0.2588
vn 0.9659 0.0000 -0.2588
vn 0.9659 0.0000 -0.2588
vn 0.9659 0.0000 -0.2588
vn -0.9659 0.0000 -0.2588
vn -0.9659 0.0000 -0.2588
vn -0.9659 0.0000 -0.2588
vn -0.9659 0.0000 -0.2588
vn -0.9659 0.0000 -0.2588
vn -0.9659 0.0000 -0.2588
vn 0.9659 0.0000 0.2588
vn 0.9659 0.0000 0.2588
vn 0.9659 0.0000 0.2588
vn 0.9659 0.0000 0.2588
vn 0.9659 0.0000 0.2588
vn 0.9659 0.0000 0.2588
vn -0.1951 0.0000 0.9808
vn -0.1951 0.0000 0.9808
vn -0.1305 0.0000 0.9914
vn -0.1305 0.0000 0.9914
vn -0.1305 0.0000 0.9914
vn -0.1951 0.0000 0.9808
vn -0.1305 0.0000 0.9914
vn -0.1305 0.0000 0.9914
vn -0.0000 0.0000 1.0000
vn -0.0000 0.0000 1.0000
vn -0.0000 0.0000 1.0000
vn -0.1305 0.0000 0.9914
vn -0.1951 0.0000 0.9808
vn -0.1951 0.0000 0.9808
vn -0.1305 0.0000 0.9914
vn -0.1305 0.0000 0.9914
vn -0.1305 0.0000 0.9914
vn -0.1951 0.0000 0.9808
vn -0.1305 0.0000 0.9914
vn -0.1305 0.0000 0.9914
vn -0.0000 0.0000 1.0000
vn -0.0000 0.0000 1.0000
vn -0.0000 0.0000 1.0000
vn -0.1305 0.0000 0.9914
vn -0.2164 0.0000 0.9763
vn -0.2164 0.0000 0.9763
vn -0.1736 0.0000 0.9848
vn -0.1736 0.0000 0.9848
vn -0.1736 0.0000 0.9848
vn -0.2164 0.0000 0.9763
vn -0.1736 0.0000 0.9848
vn -0.1736 0.0000 0.9848
vn -0.0872 0.0000 0.9962
vn -0.0872 0.0000 0.9962
vn -0.0872 0.0000 0.9962
vn -0.1736 0.0000 0.9848
vn -0.0872 0.0000 0.9962
vn -0.0872 0.0000 0.9962
vn 0.0000 0.0000 1.0000
vn 0.0000 0.0000 1.0000
vn 0.0000 0.0000 1.0000
vn -0.0872 0.0000 0.9962
vn -0.2164 0.0000 0.9763
vn -0.2164 0.0000 0.9763
vn -0.1736 0.0000 0.9848
vn -0.1736 0.0000 0.9848
vn -0.1736 0.0000 0.9848
vn -0.2164 0.0000 0.9763
vn -0.1736 0.0000 0.9848
vn -0.1736 0.0000 0.9848
vn -0.0872 0.0000 0.9962
vn -0.0872 0.0000 0.9962
vn -0.0872 0.0000 0.9962
vn -0.1736 0.0000 0.9848
vn -0.0872 0.0000 0.9962
vn -0.0872 0.0000 0.9962
vn 0.0000 0.0000 1.0000
vn 0.0000 0.0000 1.0000
vn 0.0000 0.0000 1.0000
vn -0.0872 0.0000 0.9962
vn -0.0000 0.0000 1.0000
vn -0.0000 0.0000 1.0000
vn 0.1305 0.0000 0.9914
vn 0.1305 0.0000 0.9914
vn 0.1305 0.0000 0.9914
vn -0.0000 0.0000 1.0000
vn 0.1305 0.0000 0.9914
vn 0.1305 0.0000 0.9914
vn 0.1951 0.0000 0.9808
vn 0.1951 0.0000 0.9808
vn 0.1951 0.0000 0.9808
vn 0.1305 0.0000 0.9914
vn -0.0000 0.0000 1.0000
vn -0.0000 0.0000 1.0000
vn 0.1305 0.0000 0.9914
vn 0.1305 0.0000 0.9914
vn 0.1305 0.0000 0.9914
vn -0.0000 0.0000 1.0000
vn 0.1305 0.0000 0.9914
vn 0.1305 0.0000 0.9914
vn 0.1951 0.0000 0.9808
vn 0.1951 0.0000 0.9808
vn 0.1951 0.0000 0.9808
vn 0.1305 0.0000 0.9914
vn 0.0000 0.0000 1.0000
vn 0.0000 0.0000 1.0000
vn 0.0872 0.0000 0.9962
vn 0.0872 0.0000 0.9962
vn 0.0872 0.0000 0.9962
vn 0.0000 0.0000 1.0000
vn 0.0872 0.0000 0.9962
vn 0.0872 0.0000 0.9962
vn 0.1736 0.0000 0.9848
vn 0.1736 0.0000 0.9848
vn 0.1736 0.0000 0.9848
vn 0.0872 0.0000 0.9962
vn 0.1736 0.0000 0.9848
vn 0.1736 0.0000 0.9848
vn 0.2164 0.0000 0.9763
vn 0.2164 0.0000 0.9763
vn 0.2164 0.0000 0.9763
vn 0.1736 0.0000 0.9848
vn 0.0000 0.0000 1.0000
vn 0.0000 0.0000 1.0000
vn 0.0872 0.0000 0.9962
vn 0.0872 0.0000 0.9962
vn 0.0872 0.0000 0.9962
vn 0.0000 0.0000 1.0000
vn 0.0872 0.0000 0.9962
vn 0.0872 0.0000 0.9962
vn 0.1736 0.0000 0.9848
vn 0.1736 0.0000 0.9848
vn 0.1736 0.0000 0.9848
vn 0.0872 0.0000 0.9962
vn 0.1736 0.0000 0.9848
vn 0.1736 0.0000 0.9848
vn 0.2164 0.0000 0.9763
vn 0.2164 0.0000 0.9763
vn 0.2164 0.0000 0.9763
vn 0.1736 0.0000 0.9848
vn 0.1951 0.0000 -0.9808
vn 0.1305 0.0000 -0.9914
vn 0.1305 0.0000 -0.9914
vn 0.1305 0.0000 -0.9914
vn 0.1951 0.0000 -0.9808
vn 0.1951 0.0000 -0.9808
vn 0.1305 0.0000 -0.9914
vn 0.0000 0.0000 -1.0000
vn 0.0000 0.0000 -1.0000
vn 0.0000 0.0000 -1.0000
vn 0.1305 0.0000 -0.9914
vn 0.1305 0.0000 -0.9914
vn 0.1951 0.0000 -0.9808
vn 0.1305 0.0000 -0.9914
vn 0.1305 0.0000 -0.9914
vn 0.1305 0.0000 -0.9914
vn 0.1951 0.0000 -0.9808
vn 0.1951 0.0000 -0.9808
vn 0.1305 0.0000 -0.9914
vn 0.0000 0.0000 -1.0000
vn 0.0000 0.0000 -1.0000
vn 0.0000 0.0000 -1.0000
vn 0.1305 0.0000 -0.9914
vn 0.1305 0.0000 -0.9914
vn 0.2164 0.0000 -0.9763
vn 0.1736 0.0000 -0.9848
vn 0.1736 0.0000 -0.9848
vn 0.1736 0.0000 -0.9848
vn 0.2164 0.0000 -0.9763
vn 0.2164 0.0000 -0.9763
vn 0.1736 0.0000 -0.9848
vn 0.0872 0.0000 -0.9962
vn 0.0872 0.0000 -0.9962
vn 0.0872 0.0000 -0.9962
vn 0.1736 0.0000 -0.9848
vn 0.1736 0.0000 -0.9848
vn 0.0872 0.0000 -0.9962
vn -0.0000 0.0000 -1.0000
vn -0.0000 0.0000 -1.0000
vn -0.0000 0.0000 -1.0000
vn 0.0872 0.0000 -0.9962
vn 0.0872 0.0000 -0.9962
vn 0.2164 0.0000 -0.9763
vn 0.1736 0.0000 -0.9848
vn 0.1736 0.0000 -0.9848
vn 0.1736 0.0000 -0.9848
vn 0.2164 0.0000 -0.9763
vn 0.2164 0.0000 -0.9763
vn 0.1736 0.0000 -0.9848
vn 0.0872 0.0000 -0.9962
vn 0.0872 0.0000 -0.9962
vn 0.0872 0.0000 -0.9962
vn 0.1736 0.0000 -0.9848
vn 0.1736 0.0000 -0.9848
vn 0.0872 0.0000 -0.9962
vn -0.0000 0.0000 -1.0000
vn -0.0000 0.0000 -1.0000
vn -0.0000 0.0000 -1.0000
vn 0.0872 0.0000 -0.9962
vn 0.0872 0.0000 -0.9962
vn 0.0000 0.0000 -1.0000
vn -0.1305 0.0000 -0.9914
vn -0.1305 0.0000 -0.9914
vn -0.1305 0.0000 -0.9914
vn 0.0000 0.0000 -1.0000
vn 0.0000 0.0000 -1.0000
vn -0.1305 0.0000 -0.9914
vn -0.1951 0.0000 -0.9808
vn -0.1951 0.0000 -0.9808
vn -0.1951 0.0000 -0.9808
vn -0.1305 0.0000 -0.9914
vn -0.1305 0.0000 -0.9914
vn 0.0000 0.0000 -1.0000
vn -0.1305 0.0000 -0.9914
vn -0.1305 0.0000 -0.9914
vn -0.1305 0.0000 -0.9914
vn 0.0000 0.0000 -1.0000
vn 0.0000 0.0000 -1.0000
vn -0.1305 0.0000 -0.9914
vn -0.1951 0.0000 -0.9808
vn -0.1951 0.0000 -0.9808
vn -0.1951 0.0000 -0.9808
vn -0.1305 0.0000 -0.9914
vn -0.1305 0.0000 -0.9914
vn -0.0000 0.0000 -1.0000
vn -0.0872 0.0000 -0.9962
vn -0.0872 0.0000 -0.9962
vn -0.0872 0.0000 -0.9962
vn -0.0000 0.0000 -1.0000
vn -0.0000 0.0000 -1.0000
vn -0.0872 0.0000 -0.9962
vn -0.1736 0.0000 -0.9848
vn -0.1736 0.0000 -0.9848
vn -0.1736 0.0000 -0.9848
vn -0.0872 0.0000 -0.9962
vn -0.0872 0.0000 -0.9962
vn -0.1736 0.0000 -0.9848
vn -0.2164 0.0000 -0.9763
vn -0.2164 0.0000 -0.9763
vn -0.2164 0.0000 -0.9763
vn -0.1736 0.0000 -0.9848
vn -0.1736 0.0000 -0.9848
vn -0.0000 0.0000 -1.0000
vn -0.0872 0.0000 -0.9962
vn -0.0872 0.0000 -0.9962
vn -0.0872 0.0000 -0.9962
vn -0.0000 0.0000 -1.0000
vn -0.0000 0.0000 -1.0000
vn -0.0872 0.0000 -0.9962
vn -0.1736 0.0000 -0.9848
vn -0.1736 0.0000 -0.9848
vn -0.1736 0.0000 -0.9848
vn -0.0872 0.0000 -0.9962
vn -0.0872 0.0000 -0.9962
vn -0.1736 0.0000 -0.9848
vn -0.2164 0.0000 -0.9763
vn -0.2164 0.0000 -0.9763
vn -0.2164 0.0000 -0.9763
vn -0.1736 0.0000 -0.9848
vn -0.1736 0.0000 -0.9848
vn 0.0000 -1.0000 -0.0000
vn 0.0000 -1.0000 -0.0000
vn 0.0000 -1.0000 -0.0000
vn 0.0000 -1.0000 -0.0000
vn 0.0000 -1.0000 -0.0000
vn 0.0000 -1.0000 -0.0000
vn 0.0000 1.0000 -0.0000
vn 0.0000 1.0000 -0.0000
vn 0.0000 1.0000 -0.0000
vn 0.0000 1.0000 -0.0000
vn 0.0000 1.0000 -0.0000
vn 0.0000 1.0000 -0.0000
vn -0.0000 0.0000 1.0000
vn -0.0000 0.0000 1.0000
vn -0.0000 0.0000 1.0000
vn -0.0000 0.0000 1.0000
vn -0.0000 0.0000 1.0000
vn -0.0000 0.0000 1.0000
vn 1.0000 0.0000 0.0000
vn 1.0000 0.0000 0.0000
vn 1.0000 0.0000 0.0000
vn 1.0000 0.0000 0.0000
vn 1.0000 0.0000 0.0000
vn 1.0000 0.0000 0.0000
vn 0.0000 0.0000 -1.0000
vn 0.0000 0.0000 -1.0000
vn 0.0000 0.0000 -1.0000
vn 0.0000 0.0000 -1.0000
vn 0.0000 0.0000 -1.0000
vn 0.0000 0.0000 -1.0000
vn -1.0000 0.0000 -0.0000
vn -1.0000 0.0000 -0.0000
vn -1.0000 0.0000 -0.0000
vn -1.0000 0.0000 -0.0000
vn -1.0000 0.0000 -0.0000
vn -1.0000 0.0000 -0.0000
# 300 vertex normals

vt 0.8250 0.4000 0.0000
vt 0.8250 0.8500 0.0000
vt 0.7500 0.4000 0.0000
vt 0.7500 0.8500 0.0000
vt 0.8250 0.4000 0.0000
vt 0.8250 0.8500 0.0000
vt 0.7500 0.8500 0.0000
vt 0.7500 0.4000 0.0000
vt 0.8250 0.4000 0.0000
vt 0.8250 0.8500 0.0000
vt 0.7500 0.4000 0.0000
vt 0.7500 0.8500 0.0000
vt 0.8250 0.4000 0.0000
vt 0.8250 0.8500 0.0000
vt 0.7500 0.8500 0.0000
vt 0.7500 0.4000 0.0000
vt 0.2697 0.8748 0.0000
vt 0.2303 0.8748 0.0000
vt 0.2303 0.9500 0.0000
vt 0.2697 0.9500 0.0000
vt 0.2697 0.8748 0.0000
vt 0.2303 0.8748 0.0000
vt 0.2303 0.9500 0.0000
vt 0.2697 0.9500 0.0000
vt 0.2893 0.7998 0.0000
vt 0.2107 0.7998 0.0000
vt 0.2107 0.8750 0.0000
vt 0.2893 0.8750 0.0000
vt 0.2893 0.7998 0.0000
vt 0.2107 0.7998 0.0000
vt 0.2107 0.8750 0.0000
vt 0.2893 0.8750 0.0000
vt 0.2894 0.7248 0.0000
vt 0.2106 0.7248 0.0000
vt 0.2106 0.8000 0.0000
vt 0.2894 0.8000 0.0000
vt 0.2894 0.7248 0.0000
vt 0.2106 0.7248 0.0000
vt 0.2106 0.8000 0.0000
vt 0.2894 0.8000 0.0000
vt 0.2894 0.7248 0.0000
vt 0.2106 0.7248 0.0000
vt 0.2106 0.8000 0.0000
vt 0.2894 0.8000 0.0000
vt 0.3025 0.6499 0.0000
vt 0.1975 0.6499 0.0000
vt 0.1975 0.7251 0.0000
vt 0.3025 0.7251 0.0000
vt 0.3025 0.6499 0.0000
vt 0.1975 0.6499 0.0000
vt 0.1975 0.7251 0.0000
vt 0.3025 0.7251 0.0000
vt 0.3025 0.6499 0.0000
vt 0.1975 0.6499 0.0000
vt 0.1975 0.7251 0.0000
vt 0.3025 0.7251 0.0000
vt 0.2697 0.8748 0.0000
vt 0.2697 0.9500 0.0000
vt 0.2303 0.9500 0.0000
vt 0.2303 0.8748 0.0000
vt 0.2697 0.8748 0.0000
vt 0.2697 0.9500 0.0000
vt 0.2303 0.9500 0.0000
vt 0.2303 0.8748 0.0000
vt 0.2893 0.7998 0.0000
vt 0.2893 0.8750 0.0000
vt 0.2107 0.8750 0.0000
vt 0.2107 0.7998 0.0000
vt 0.2893 0.7998 0.0000
vt 0.2893 0.8750 0.0000
vt 0.2107 0.8750 0.0000
vt 0.2107 0.7998 0.0000
vt 0.2894 0.7248 0.0000
vt 0.2894 0.8000 0.0000
vt 0.2106 0.8000 0.0000
vt 0.2106 0.7248 0.0000
vt 0.2894 0.7248 0.0000
vt 0.2894 0.8000 0.0000
vt 0.2106 0.8000 0.0000
vt 0.2106 0.7248 0.0000
vt 0.2894 0.7248 0.0000
vt 0.2894 0.8000 0.0000
vt 0.2106 0.8000 0.0000
vt 0.2106 0.7248 0.0000
vt 0.3025 0.6499 0.0000
vt 0.3025 0.7251 0.0000
vt 0.1975 0.7251 0.0000
vt 0.1975 0.6499 0.0000
vt 0.3025 0.6499 0.0000
vt 0.3025 0.7251 0.0000
vt 0.1975 0.7251 0.0000
vt 0.1975 0.6499 0.0000
vt 0.3025 0.6499 0.0000
vt 0.3025 0.7251 0.0000
vt 0.1975 0.7251 0.0000
vt 0.1975 0.6499 0.0000
vt 0.2303 0.8748 0.0000
vt 0.2697 0.8748 0.0000
vt 0.2697 0.9500 0.0000
vt 0.2303 0.9500 0.0000
vt 0.2303 0.8748 0.0000
vt 0.2697 0.8748 0.0000
vt 0.2697 0.9500 0.0000
vt 0.2303 0.9500 0.0000
vt 0.2107 0.7998 0.0000
vt 0.2893 0.7998 0.0000
vt 0.2893 0.8750 0.0000
vt 0.2107 0.8750 0.0000
vt 0.2107 0.7998 0.0000
vt 0.2893 0.7998 0.0000
vt 0.2893 0.8750 0.0000
vt 0.2107 0.8750 0.0000
vt 0.2106 0.7248 0.0000
vt 0.2894 0.7248 0.0000
vt 0.2894 0.8000 0.0000
vt 0.2106 0.8000 0.0000
vt 0.2106 0.7248 0.0000
vt 0.2894 0.7248 0.0000
vt 0.2894 0.8000 0.0000
vt 0.2106 0.8000 0.0000
vt 0.2106 0.7248 0.0000
vt 0.2894 0.7248 0.0000
vt 0.2894 0.8000 0.0000
vt 0.2106 0.8000 0.0000
vt 0.1975 0.6499 0.0000
vt 0.3025 0.6499 0.0000
vt 0.3025 0.7251 0.0000
vt 0.1975 0.7251 0.0000
vt 0.1975 0.6499 0.0000
vt 0.3025 0.6499 0.0000
vt 0.3025 0.7251 0.0000
vt 0.1975 0.7251 0.0000
vt 0.1975 0.6499 0.0000
vt 0.3025 0.6499 0.0000
vt 0.3025 0.7251 0.0000
vt 0.1975 0.7251 0.0000
vt 0.2303 0.8748 0.0000
vt 0.2303 0.9500 0.0000
vt 0.2697 0.9500 0.0000
vt 0.2697 0.8748 0.0000
vt 0.2303 0.8748 0.0000
vt 0.2303 0.9500 0.0000
vt 0.2697 0.9500 0.0000
vt 0.2697 0.8748 0.0000
vt 0.2107 0.7998 0.0000
vt 0.2107 0.8750 0.0000
vt 0.2893 0.8750 0.0000
vt 0.2893 0.7998 0.0000
vt 0.2107 0.7998 0.0000
vt 0.2107 0.8750 0.0000
vt 0.2893 0.8750 0.0000
vt 0.2893 0.7998 0.0000
vt 0.2106 0.7248 0.0000
vt 0.2106 0.8000 0.0000
vt 0.2894 0.8000 0.0000
vt 0.2894 0.7248 0.0000
vt 0.2106 0.7248 0.0000
vt 0.2106 0.8000 0.0000
vt 0.2894 0.8000 0.0000
vt 0.2894 0.7248 0.0000
vt 0.2106 0.7248 0.0000
vt 0.2106 0.8000 0.0000
vt 0.2894 0.8000 0.0000
vt 0.2894 0.7248 0.0000
vt 0.1975 0.6499 0.0000
vt 0.1975 0.7251 0.0000
vt 0.3025 0.7251 0.0000
vt 0.3025 0.6499 0.0000
vt 0.1975 0.6499 0.0000
vt 0.1975 0.7251 0.0000
vt 0.3025 0.7251 0.0000
vt 0.3025 0.6499 0.0000
vt 0.1975 0.6499 0.0000
vt 0.1975 0.7251 0.0000
vt 0.3025 0.7251 0.0000
vt 0.3025 0.6499 0.0000
vt 0.6375 0.0828 0.0000
vt 0.6375 0.1672 0.0000
vt 0.8625 0.1672 0.0000
vt 0.8625 0.0828 0.0000
vt 0.6375 0.0828 0.0000
vt 0.8625 0.0828 0.0000
vt 0.8625 0.1672 0.0000
vt 0.6375 0.1672 0.0000
# 184 texture coords

g Arc_4_30
usemtl Material__2
f 4/4/1 2/2/2 1/1/3 
f 1/1/4 3/3/5 4/4/6 
f 7/7/7 8/8/8 5/5/9 
f 5/5/10 6/6/11 7/7/12 
f 12/12/13 10/10/14 9/9/15 
f 9/9/16 11/11/17 12/12/18 
f 15/15/19 16/16/20 13/13/21 
f 13/13/22 14/14/23 15/15/24 
f 58/17/25 57/20/26 18/19/27 
f 18/19/28 17/18/29 58/17/30 
f 17/21/31 18/24/32 30/23/33 
f 30/23/34 29/22/35 17/21/36 
f 60/25/37 59/28/38 20/27/39 
f 20/27/40 19/26/41 60/25/42 
f 19/29/43 20/32/44 34/31/45 
f 34/31/46 33/30/47 19/29/48 
f 62/33/49 61/36/50 23/35/51 
f 23/35/52 21/34/53 62/33/54 
f 21/37/55 23/40/56 24/39/57 
f 24/39/58 22/38/59 21/37/60 
f 22/41/61 24/44/62 39/43/63 
f 39/43/64 38/42/65 22/41/66 
f 64/45/67 63/48/68 27/47/69 
f 27/47/70 25/46/71 64/45/72 
f 25/49/73 27/52/74 28/51/75 
f 28/51/76 26/50/77 25/49/78 
f 26/53/79 28/56/80 47/55/81 
f 47/55/82 46/54/83 26/53/84 
f 29/57/85 30/58/86 31/59/87 
f 31/59/88 32/60/89 29/57/90 
f 32/61/91 31/62/92 53/63/93 
f 53/63/94 52/64/95 32/61/96 
f 33/65/97 34/66/98 35/67/99 
f 35/67/100 36/68/101 33/65/102 
f 36/69/103 35/70/104 37/71/105 
f 37/71/106 54/72/107 36/69/108 
f 38/73/109 39/74/110 40/75/111 
f 40/75/112 41/76/113 38/73/114 
f 41/77/115 40/78/116 42/79/117 
f 42/79/118 43/80/119 41/77/120 
f 43/81/121 42/82/122 44/83/123 
f 44/83/124 45/84/125 43/81/126 
f 46/85/127 47/86/128 48/87/129 
f 48/87/130 49/88/131 46/85/132 
f 49/89/133 48/90/134 50/91/135 
f 50/91/136 51/92/137 49/89/138 
f 51/93/139 50/94/140 56/95/141 
f 56/95/142 55/96/143 51/93/144 
f 106/97/145 65/98/146 66/99/147 
f 66/99/148 105/100/149 106/97/150 
f 65/101/151 77/102/152 78/103/153 
f 78/103/154 66/104/155 65/101/156 
f 108/105/157 67/106/158 68/107/159 
f 68/107/160 107/108/161 108/105/162 
f 67/109/163 81/110/164 82/111/165 
f 82/111/166 68/112/167 67/109/168 
f 110/113/169 69/114/170 71/115/171 
f 71/115/172 109/116/173 110/113/174 
f 69/117/175 70/118/176 72/119/177 
f 72/119/178 71/120/179 69/117/180 
f 70/121/181 86/122/182 87/123/183 
f 87/123/184 72/124/185 70/121/186 
f 112/125/187 73/126/188 75/127/189 
f 75/127/190 111/128/191 112/125/192 
f 73/129/193 74/130/194 76/131/195 
f 76/131/196 75/132/197 73/129/198 
f 74/133/199 94/134/200 95/135/201 
f 95/135/202 76/136/203 74/133/204 
f 77/137/205 80/140/206 79/139/207 
f 79/139/208 78/138/209 77/137/210 
f 80/141/211 100/144/212 101/143/213 
f 101/143/214 79/142/215 80/141/216 
f 81/145/217 84/148/218 83/147/219 
f 83/147/220 82/146/221 81/145/222 
f 84/149/223 102/152/224 85/151/225 
f 85/151/226 83/150/227 84/149/228 
f 86/153/229 89/156/230 88/155/231 
f 88/155/232 87/154/233 86/153/234 
f 89/157/235 91/160/236 90/159/237 
f 90/159/238 88/158/239 89/157/240 
f 91/161/241 93/164/242 92/163/243 
f 92/163/244 90/162/245 91/161/246 
f 94/165/247 97/168/248 96/167/249 
f 96/167/250 95/166/251 94/165/252 
f 97/169/253 99/172/254 98/171/255 
f 98/171/256 96/170/257 97/169/258 
f 99/173/259 103/176/260 104/175/261 
f 104/175/262 98/174/263 99/173/264 
f 122/177/265 126/178/266 116/179/267 
f 116/179/268 114/180/269 122/177/270 
f 129/181/271 131/182/272 135/183/273 
f 135/183/274 133/184/275 129/181/276 
f 113/177/277 124/180/278 132/182/279 
f 132/182/280 117/181/281 113/177/282 
f 123/180/283 128/179/284 136/183/285 
f 136/183/286 118/182/287 123/180/288 
f 127/179/289 125/178/290 134/184/291 
f 134/184/292 120/183/293 127/179/294 
f 115/178/295 121/177/296 130/181/297 
f 130/181/298 119/184/299 115/178/300 
# 100 faces

