# 3ds Max Wavefront OBJ Exporter v0.97b - (c)2007 guruware
# File Created: 04.03.2017 12:33:49

mtllib Bank-1-135_MSH.mtl

#
# object Bank_1_135
#

v  0.2500 0.0156 -0.0000
v  0.0000 0.0156 0.0000
v  -0.2500 0.0156 0.0000
v  0.2500 -0.0156 -0.0000
v  -0.0000 -0.0156 -0.0000
v  -0.2500 -0.0156 0.0000
v  0.2210 0.0156 0.1958
v  -0.0183 0.0156 0.1232
v  -0.2575 0.0156 0.0506
v  -0.2575 -0.0156 0.0506
v  -0.0183 -0.0156 0.1232
v  0.2210 -0.0156 0.1958
v  0.1363 0.0156 0.3747
v  -0.0715 0.0156 0.2358
v  -0.2794 0.0156 0.0969
v  -0.2794 -0.0156 0.0969
v  -0.0715 -0.0156 0.2358
v  0.1363 -0.0156 0.3747
v  0.0034 0.0156 0.5213
v  -0.1552 0.0156 0.3281
v  -0.3138 0.0156 0.1348
v  -0.3138 -0.0156 0.1348
v  -0.1552 -0.0156 0.3281
v  0.0034 -0.0156 0.5213
v  -0.1663 0.0156 0.6231
v  -0.2620 0.0156 0.3921
v  -0.2620 -0.0156 0.3921
v  -0.1663 -0.0156 0.6231
v  -0.7740 0.0156 0.7842
v  -0.7740 -0.0156 0.7842
v  -0.5240 -0.0156 0.7842
v  -0.5240 0.0156 0.7842
v  -0.2740 -0.0156 0.7842
v  -0.2740 0.0156 0.7842
v  -0.5057 0.0156 0.6610
v  -0.7450 0.0156 0.5884
v  -0.2665 0.0156 0.7336
v  -0.4525 0.0156 0.5484
v  -0.6603 0.0156 0.4095
v  -0.2446 0.0156 0.6873
v  -0.3688 0.0156 0.4561
v  -0.5274 0.0156 0.2629
v  -0.2102 0.0156 0.6494
v  -0.3577 0.0156 0.1611
v  -0.2665 -0.0156 0.7336
v  -0.2446 -0.0156 0.6873
v  -0.2102 -0.0156 0.6494
v  -0.5057 -0.0156 0.6610
v  -0.7450 -0.0156 0.5884
v  -0.4525 -0.0156 0.5484
v  -0.6603 -0.0156 0.4095
v  -0.3688 -0.0156 0.4561
v  -0.5274 -0.0156 0.2629
v  -0.3577 -0.0156 0.1611
v  0.2500 -0.0156 -0.5938
v  -0.2500 -0.0156 -0.5937
v  0.2500 -0.0156 -0.4063
v  -0.2500 -0.0156 -0.4062
v  0.2500 0.0469 -0.5938
v  -0.2500 0.0469 -0.5937
v  0.2500 0.0469 -0.4063
v  -0.2500 0.0469 -0.4062
v  0.2500 0.0156 -0.0000
v  0.2500 0.0156 -0.0000
v  0.0000 0.0156 0.0000
v  -0.2500 0.0156 0.0000
v  -0.2500 0.0156 0.0000
v  0.2500 -0.0156 -0.0000
v  0.2500 -0.0156 -0.0000
v  -0.0000 -0.0156 -0.0000
v  -0.2500 -0.0156 0.0000
v  -0.2500 -0.0156 0.0000
v  0.2210 0.0156 0.1958
v  -0.2575 0.0156 0.0506
v  -0.2575 -0.0156 0.0506
v  0.2210 -0.0156 0.1958
v  0.1363 0.0156 0.3747
v  -0.2794 0.0156 0.0969
v  -0.2794 -0.0156 0.0969
v  0.1363 -0.0156 0.3747
v  0.0034 0.0156 0.5213
v  -0.3138 0.0156 0.1348
v  -0.3138 -0.0156 0.1348
v  0.0034 -0.0156 0.5213
v  -0.1663 0.0156 0.6231
v  -0.1663 0.0156 0.6231
v  -0.1663 -0.0156 0.6231
v  -0.1663 -0.0156 0.6231
v  -0.7740 0.0156 0.7842
v  -0.7740 0.0156 0.7842
v  -0.7740 -0.0156 0.7842
v  -0.7740 -0.0156 0.7842
v  -0.5240 -0.0156 0.7842
v  -0.5240 0.0156 0.7842
v  -0.2740 -0.0156 0.7842
v  -0.2740 -0.0156 0.7842
v  -0.2740 0.0156 0.7842
v  -0.2740 0.0156 0.7842
v  -0.7450 0.0156 0.5884
v  -0.2665 0.0156 0.7336
v  -0.6603 0.0156 0.4095
v  -0.2446 0.0156 0.6873
v  -0.5274 0.0156 0.2629
v  -0.2102 0.0156 0.6494
v  -0.3577 0.0156 0.1611
v  -0.3577 0.0156 0.1611
v  -0.2665 -0.0156 0.7336
v  -0.2446 -0.0156 0.6873
v  -0.2102 -0.0156 0.6494
v  -0.7450 -0.0156 0.5884
v  -0.6603 -0.0156 0.4095
v  -0.5274 -0.0156 0.2629
v  -0.3577 -0.0156 0.1611
v  -0.3577 -0.0156 0.1611
v  0.2500 -0.0156 -0.5938
v  0.2500 -0.0156 -0.5938
v  -0.2500 -0.0156 -0.5937
v  -0.2500 -0.0156 -0.5937
v  0.2500 -0.0156 -0.4063
v  0.2500 -0.0156 -0.4063
v  -0.2500 -0.0156 -0.4062
v  -0.2500 -0.0156 -0.4062
v  0.2500 0.0469 -0.5938
v  0.2500 0.0469 -0.5938
v  -0.2500 0.0469 -0.5937
v  -0.2500 0.0469 -0.5937
v  0.2500 0.0469 -0.4063
v  0.2500 0.0469 -0.4063
v  -0.2500 0.0469 -0.4062
v  -0.2500 0.0469 -0.4062
# 130 vertices

vn -0.0000 0.0000 -1.0000
vn -0.0000 0.0000 -1.0000
vn -0.0000 0.0000 -1.0000
vn -0.0000 0.0000 -1.0000
vn -0.0000 0.0000 -1.0000
vn -0.0000 0.0000 -1.0000
vn -0.0000 0.0000 -1.0000
vn -0.0000 0.0000 -1.0000
vn -0.0000 0.0000 -1.0000
vn -0.0000 0.0000 -1.0000
vn -0.0000 0.0000 -1.0000
vn -0.0000 0.0000 -1.0000
vn -0.0000 1.0000 0.0000
vn -0.0000 1.0000 0.0000
vn -0.0000 1.0000 0.0000
vn -0.0000 1.0000 0.0000
vn 0.0000 1.0000 0.0000
vn -0.0000 1.0000 0.0000
vn 0.0000 1.0000 0.0000
vn -0.0000 1.0000 0.0000
vn 0.0000 1.0000 0.0000
vn 0.0000 1.0000 0.0000
vn 0.0000 1.0000 0.0000
vn 0.0000 1.0000 0.0000
vn 0.0000 1.0000 0.0000
vn 0.0000 1.0000 0.0000
vn -0.0000 1.0000 0.0000
vn -0.0000 1.0000 0.0000
vn -0.0000 1.0000 0.0000
vn 0.0000 1.0000 0.0000
vn -0.0000 1.0000 0.0000
vn 0.0000 1.0000 0.0000
vn -0.0000 1.0000 0.0000
vn -0.0000 1.0000 0.0000
vn 0.0000 1.0000 0.0000
vn -0.0000 1.0000 0.0000
vn -0.0000 1.0000 0.0000
vn 0.0000 1.0000 0.0000
vn 0.0000 1.0000 0.0000
vn 0.0000 1.0000 0.0000
vn 0.0000 1.0000 0.0000
vn -0.0000 1.0000 0.0000
vn 0.0000 1.0000 0.0000
vn -0.0000 1.0000 0.0000
vn 0.0000 1.0000 0.0000
vn 0.0000 1.0000 0.0000
vn -0.0000 1.0000 0.0000
vn 0.0000 1.0000 0.0000
vn -0.0000 1.0000 0.0000
vn -0.0000 1.0000 0.0000
vn 0.0000 1.0000 0.0000
vn 0.0000 1.0000 0.0000
vn -0.0000 1.0000 0.0000
vn -0.0000 1.0000 0.0000
vn 0.0000 1.0000 0.0000
vn -0.0000 1.0000 0.0000
vn -0.0000 1.0000 0.0000
vn -0.0000 1.0000 0.0000
vn 0.0000 1.0000 0.0000
vn 0.0000 1.0000 0.0000
vn -0.9569 0.0000 -0.2903
vn -0.9569 0.0000 -0.2903
vn -0.9892 0.0000 -0.1467
vn -0.9892 0.0000 -0.1467
vn -0.9892 0.0000 -0.1467
vn -0.9569 0.0000 -0.2903
vn -0.8315 0.0000 -0.5556
vn -0.8315 0.0000 -0.5556
vn -0.9569 0.0000 -0.2903
vn -0.9569 0.0000 -0.2903
vn -0.9569 0.0000 -0.2903
vn -0.8315 0.0000 -0.5556
vn -0.6344 0.0000 -0.7730
vn -0.6344 0.0000 -0.7730
vn -0.8315 0.0000 -0.5556
vn -0.8315 0.0000 -0.5556
vn -0.8315 0.0000 -0.5556
vn -0.6344 0.0000 -0.7730
vn -0.5141 0.0000 -0.8577
vn -0.5141 0.0000 -0.8577
vn -0.6344 0.0000 -0.7730
vn -0.6344 0.0000 -0.7730
vn -0.6344 0.0000 -0.7730
vn -0.5141 0.0000 -0.8577
vn 0.0000 -1.0000 -0.0000
vn -0.0000 -1.0000 -0.0000
vn -0.0000 -1.0000 -0.0000
vn -0.0000 -1.0000 -0.0000
vn 0.0000 -1.0000 -0.0000
vn 0.0000 -1.0000 -0.0000
vn 0.0000 -1.0000 -0.0000
vn 0.0000 -1.0000 -0.0000
vn 0.0000 -1.0000 -0.0000
vn 0.0000 -1.0000 -0.0000
vn -0.0000 -1.0000 -0.0000
vn 0.0000 -1.0000 -0.0000
vn -0.0000 -1.0000 -0.0000
vn 0.0000 -1.0000 -0.0000
vn -0.0000 -1.0000 -0.0000
vn -0.0000 -1.0000 -0.0000
vn 0.0000 -1.0000 -0.0000
vn -0.0000 -1.0000 -0.0000
vn 0.0000 -1.0000 -0.0000
vn -0.0000 -1.0000 -0.0000
vn 0.0000 -1.0000 -0.0000
vn 0.0000 -1.0000 -0.0000
vn 0.0000 -1.0000 -0.0000
vn 0.0000 -1.0000 -0.0000
vn -0.0000 -1.0000 -0.0000
vn 0.0000 -1.0000 -0.0000
vn 0.0000 -1.0000 -0.0000
vn 0.0000 -1.0000 -0.0000
vn -0.0000 -1.0000 -0.0000
vn -0.0000 -1.0000 -0.0000
vn -0.0000 -1.0000 -0.0000
vn -0.0000 -1.0000 -0.0000
vn -0.0000 -1.0000 -0.0000
vn -0.0000 -1.0000 -0.0000
vn 0.0000 -1.0000 -0.0000
vn -0.0000 -1.0000 -0.0000
vn -0.0000 -1.0000 -0.0000
vn -0.0000 -1.0000 -0.0000
vn 0.0000 -1.0000 -0.0000
vn 0.0000 -1.0000 -0.0000
vn -0.0000 -1.0000 -0.0000
vn -0.0000 -1.0000 -0.0000
vn 0.0000 -1.0000 -0.0000
vn -0.0000 -1.0000 -0.0000
vn -0.0000 -1.0000 -0.0000
vn -0.0000 -1.0000 -0.0000
vn -0.0000 -1.0000 -0.0000
vn 0.0000 -1.0000 -0.0000
vn 0.9569 -0.0000 0.2903
vn 0.9569 0.0000 0.2903
vn 0.9892 -0.0000 0.1467
vn 0.9892 -0.0000 0.1467
vn 0.9892 -0.0000 0.1467
vn 0.9569 -0.0000 0.2903
vn 0.8315 0.0000 0.5556
vn 0.8315 0.0000 0.5556
vn 0.9569 0.0000 0.2903
vn 0.9569 0.0000 0.2903
vn 0.9569 -0.0000 0.2903
vn 0.8315 0.0000 0.5556
vn 0.6344 0.0000 0.7730
vn 0.6344 0.0000 0.7730
vn 0.8315 0.0000 0.5556
vn 0.8315 0.0000 0.5556
vn 0.8315 0.0000 0.5556
vn 0.6344 0.0000 0.7730
vn 0.5141 0.0000 0.8577
vn 0.5141 0.0000 0.8577
vn 0.6344 0.0000 0.7730
vn 0.6344 0.0000 0.7730
vn 0.6344 0.0000 0.7730
vn 0.5141 0.0000 0.8577
vn -0.0000 0.0000 1.0000
vn -0.0000 0.0000 1.0000
vn 0.0000 0.0000 1.0000
vn 0.0000 0.0000 1.0000
vn 0.0000 0.0000 1.0000
vn -0.0000 0.0000 1.0000
vn -0.0000 0.0000 1.0000
vn -0.0000 0.0000 1.0000
vn -0.0000 0.0000 1.0000
vn -0.0000 0.0000 1.0000
vn -0.0000 0.0000 1.0000
vn -0.0000 0.0000 1.0000
vn -0.0000 1.0000 0.0000
vn 0.0000 1.0000 0.0000
vn 0.0000 1.0000 0.0000
vn 0.0000 1.0000 0.0000
vn -0.0000 1.0000 0.0000
vn -0.0000 1.0000 0.0000
vn -0.0000 1.0000 0.0000
vn -0.0000 1.0000 0.0000
vn -0.0000 1.0000 0.0000
vn -0.0000 1.0000 0.0000
vn -0.0000 1.0000 0.0000
vn -0.0000 1.0000 0.0000
vn -0.0000 1.0000 0.0000
vn -0.0000 1.0000 0.0000
vn 0.0000 1.0000 0.0000
vn 0.0000 1.0000 0.0000
vn -0.0000 1.0000 0.0000
vn -0.0000 1.0000 0.0000
vn 0.0000 1.0000 0.0000
vn -0.0000 1.0000 0.0000
vn -0.0000 1.0000 0.0000
vn -0.0000 1.0000 0.0000
vn -0.0000 1.0000 0.0000
vn 0.0000 1.0000 0.0000
vn 0.0000 1.0000 0.0000
vn -0.0000 1.0000 0.0000
vn -0.0000 1.0000 0.0000
vn -0.0000 1.0000 0.0000
vn -0.0000 1.0000 0.0000
vn 0.0000 1.0000 0.0000
vn -0.0000 1.0000 0.0000
vn 0.0000 1.0000 0.0000
vn -0.0000 1.0000 0.0000
vn -0.0000 1.0000 0.0000
vn 0.0000 1.0000 0.0000
vn -0.0000 1.0000 0.0000
vn -0.0000 1.0000 0.0000
vn 0.0000 1.0000 0.0000
vn -0.0000 1.0000 0.0000
vn -0.0000 1.0000 0.0000
vn 0.0000 1.0000 0.0000
vn -0.0000 1.0000 0.0000
vn -0.0000 1.0000 0.0000
vn -0.0000 1.0000 0.0000
vn 0.0000 1.0000 0.0000
vn 0.0000 1.0000 0.0000
vn -0.0000 1.0000 0.0000
vn -0.0000 1.0000 0.0000
vn 0.9569 0.0000 0.2903
vn 0.9569 0.0000 0.2903
vn 0.9892 0.0000 0.1467
vn 0.9892 0.0000 0.1467
vn 0.9892 0.0000 0.1467
vn 0.9569 0.0000 0.2903
vn 0.8315 0.0000 0.5556
vn 0.8315 -0.0000 0.5556
vn 0.9569 0.0000 0.2903
vn 0.9569 0.0000 0.2903
vn 0.9569 0.0000 0.2903
vn 0.8315 0.0000 0.5556
vn 0.6344 -0.0000 0.7730
vn 0.6344 -0.0000 0.7730
vn 0.8315 -0.0000 0.5556
vn 0.8315 -0.0000 0.5556
vn 0.8315 0.0000 0.5556
vn 0.6344 -0.0000 0.7730
vn 0.5141 -0.0000 0.8577
vn 0.5141 0.0000 0.8577
vn 0.6344 -0.0000 0.7730
vn 0.6344 -0.0000 0.7730
vn 0.6344 -0.0000 0.7730
vn 0.5141 -0.0000 0.8577
vn -0.0000 -1.0000 -0.0000
vn 0.0000 -1.0000 -0.0000
vn 0.0000 -1.0000 -0.0000
vn 0.0000 -1.0000 -0.0000
vn -0.0000 -1.0000 -0.0000
vn -0.0000 -1.0000 -0.0000
vn -0.0000 -1.0000 -0.0000
vn -0.0000 -1.0000 -0.0000
vn -0.0000 -1.0000 -0.0000
vn -0.0000 -1.0000 -0.0000
vn -0.0000 -1.0000 -0.0000
vn -0.0000 -1.0000 -0.0000
vn 0.0000 -1.0000 -0.0000
vn -0.0000 -1.0000 -0.0000
vn 0.0000 -1.0000 -0.0000
vn 0.0000 -1.0000 -0.0000
vn -0.0000 -1.0000 -0.0000
vn 0.0000 -1.0000 -0.0000
vn -0.0000 -1.0000 -0.0000
vn 0.0000 -1.0000 -0.0000
vn -0.0000 -1.0000 -0.0000
vn -0.0000 -1.0000 -0.0000
vn -0.0000 -1.0000 -0.0000
vn -0.0000 -1.0000 -0.0000
vn 0.0000 -1.0000 -0.0000
vn 0.0000 -1.0000 -0.0000
vn -0.0000 -1.0000 -0.0000
vn -0.0000 -1.0000 -0.0000
vn 0.0000 -1.0000 -0.0000
vn 0.0000 -1.0000 -0.0000
vn 0.0000 -1.0000 -0.0000
vn 0.0000 -1.0000 -0.0000
vn 0.0000 -1.0000 -0.0000
vn 0.0000 -1.0000 -0.0000
vn -0.0000 -1.0000 -0.0000
vn 0.0000 -1.0000 -0.0000
vn -0.0000 -1.0000 -0.0000
vn 0.0000 -1.0000 -0.0000
vn 0.0000 -1.0000 -0.0000
vn 0.0000 -1.0000 -0.0000
vn 0.0000 -1.0000 -0.0000
vn -0.0000 -1.0000 -0.0000
vn -0.0000 -1.0000 -0.0000
vn -0.0000 -1.0000 -0.0000
vn 0.0000 -1.0000 -0.0000
vn 0.0000 -1.0000 -0.0000
vn 0.0000 -1.0000 -0.0000
vn -0.0000 -1.0000 -0.0000
vn -0.9569 0.0000 -0.2903
vn -0.9569 0.0000 -0.2903
vn -0.9892 0.0000 -0.1467
vn -0.9892 0.0000 -0.1467
vn -0.9892 0.0000 -0.1467
vn -0.9569 0.0000 -0.2903
vn -0.8315 0.0000 -0.5556
vn -0.8315 0.0000 -0.5556
vn -0.9569 0.0000 -0.2903
vn -0.9569 0.0000 -0.2903
vn -0.9569 0.0000 -0.2903
vn -0.8315 0.0000 -0.5556
vn -0.6344 0.0000 -0.7730
vn -0.6344 0.0000 -0.7730
vn -0.8315 0.0000 -0.5556
vn -0.8315 0.0000 -0.5556
vn -0.8315 0.0000 -0.5556
vn -0.6344 0.0000 -0.7730
vn -0.5141 0.0000 -0.8577
vn -0.5141 0.0000 -0.8577
vn -0.6344 0.0000 -0.7730
vn -0.6344 0.0000 -0.7730
vn -0.6344 0.0000 -0.7730
vn -0.5141 0.0000 -0.8577
vn -0.0000 -1.0000 -0.0000
vn -0.0000 -1.0000 -0.0000
vn -0.0000 -1.0000 -0.0000
vn -0.0000 -1.0000 -0.0000
vn -0.0000 -1.0000 -0.0000
vn -0.0000 -1.0000 -0.0000
vn 0.0000 1.0000 0.0000
vn 0.0000 1.0000 0.0000
vn 0.0000 1.0000 0.0000
vn 0.0000 1.0000 0.0000
vn 0.0000 1.0000 0.0000
vn 0.0000 1.0000 0.0000
vn -0.0000 0.0000 -1.0000
vn -0.0000 0.0000 -1.0000
vn -0.0000 0.0000 -1.0000
vn -0.0000 0.0000 -1.0000
vn -0.0000 0.0000 -1.0000
vn -0.0000 0.0000 -1.0000
vn -1.0000 -0.0000 0.0000
vn -1.0000 -0.0000 0.0000
vn -1.0000 -0.0000 0.0000
vn -1.0000 -0.0000 0.0000
vn -1.0000 0.0000 0.0000
vn -1.0000 -0.0000 0.0000
vn 0.0000 -0.0000 1.0000
vn 0.0000 0.0000 1.0000
vn 0.0000 -0.0000 1.0000
vn 0.0000 -0.0000 1.0000
vn 0.0000 -0.0000 1.0000
vn 0.0000 -0.0000 1.0000
vn 1.0000 0.0000 -0.0000
vn 1.0000 0.0000 -0.0000
vn 1.0000 0.0000 -0.0000
vn 1.0000 0.0000 -0.0000
vn 1.0000 0.0000 -0.0000
vn 1.0000 0.0000 -0.0000
# 348 vertex normals

vt 0.0000 0.0000 0.0000
vt 1.0000 0.0000 0.0000
vt 0.0000 0.1250 0.0000
vt 1.0000 0.1250 0.0000
vt 0.0000 0.2500 0.0000
vt 1.0000 0.2500 0.0000
vt 0.0000 0.3750 0.0000
vt 1.0000 0.3750 0.0000
vt 0.0000 0.5000 0.0000
vt 1.0000 0.5000 0.0000
vt 0.0000 0.0000 0.0000
vt 0.5000 0.0000 0.0000
vt 1.0000 0.0000 0.0000
vt 0.0000 0.1250 0.0000
vt 0.5000 0.1250 0.0000
vt 1.0000 0.1250 0.0000
vt 0.0000 0.2500 0.0000
vt 0.5000 0.2500 0.0000
vt 1.0000 0.2500 0.0000
vt 0.0000 0.3750 0.0000
vt 0.5000 0.3750 0.0000
vt 1.0000 0.3750 0.0000
vt 0.0000 0.5000 0.0000
vt 0.5000 0.5000 0.0000
vt 1.0000 0.5000 0.0000
vt 0.0000 0.0000 0.0000
vt 0.5000 0.0000 0.0000
vt 1.0000 0.0000 0.0000
vt 0.0000 1.0000 0.0000
vt 0.5000 1.0000 0.0000
vt 1.0000 1.0000 0.0000
vt 1.0000 0.0000 0.0000
vt 1.0000 1.0000 0.0000
vt 0.5000 1.0000 0.0000
vt 0.5000 0.0000 0.0000
vt 0.0000 1.0000 0.0000
vt 0.0000 0.0000 0.0000
vt 0.0000 0.0000 0.0000
vt 0.5000 0.0000 0.0000
vt 0.5000 0.1250 0.0000
vt 0.0000 0.1250 0.0000
vt 1.0000 0.0000 0.0000
vt 1.0000 0.1250 0.0000
vt 0.5000 0.2500 0.0000
vt 0.0000 0.2500 0.0000
vt 1.0000 0.2500 0.0000
vt 0.5000 0.3750 0.0000
vt 0.0000 0.3750 0.0000
vt 1.0000 0.3750 0.0000
vt 0.5000 0.5000 0.0000
vt 0.0000 0.5000 0.0000
vt 1.0000 0.5000 0.0000
vt 0.0000 0.0000 0.0000
vt 1.0000 0.0000 0.0000
vt 1.0000 0.1250 0.0000
vt 0.0000 0.1250 0.0000
vt 1.0000 0.2500 0.0000
vt 0.0000 0.2500 0.0000
vt 1.0000 0.3750 0.0000
vt 0.0000 0.3750 0.0000
vt 1.0000 0.5000 0.0000
vt 0.0000 0.5000 0.0000
vt 1.0000 0.0000 0.0000
vt 0.0000 0.0000 0.0000
vt 1.0000 1.0000 0.0000
vt 0.0000 1.0000 0.0000
vt 0.0000 0.0000 0.0000
vt 1.0000 0.0000 0.0000
vt 0.0000 1.0000 0.0000
vt 1.0000 1.0000 0.0000
vt 0.0000 0.0000 0.0000
vt 1.0000 0.0000 0.0000
vt 0.0000 1.0000 0.0000
vt 1.0000 1.0000 0.0000
vt 0.0000 0.0000 0.0000
vt 1.0000 0.0000 0.0000
vt 0.0000 1.0000 0.0000
vt 1.0000 1.0000 0.0000
vt 0.0000 0.0000 0.0000
vt 1.0000 0.0000 0.0000
vt 0.0000 1.0000 0.0000
vt 1.0000 1.0000 0.0000
vt 0.0000 0.0000 0.0000
vt 1.0000 0.0000 0.0000
vt 0.0000 1.0000 0.0000
vt 1.0000 1.0000 0.0000
# 86 texture coords

g Bank_1_135
usemtl wire_135006006
f 70/30/1 2/27/2 64/28/3 
f 64/28/4 69/31/5 70/30/6 
f 6/29/7 3/26/8 2/27/9 
f 2/27/10 70/30/11 6/29/12 
f 8/15/13 7/14/14 1/11/15 
f 1/11/16 65/12/17 8/15/18 
f 74/16/19 8/15/20 65/12/21 
f 65/12/22 67/13/23 74/16/24 
f 14/18/25 13/17/26 7/14/27 
f 7/14/28 8/15/29 14/18/30 
f 78/19/31 14/18/32 8/15/33 
f 8/15/34 74/16/35 78/19/36 
f 20/21/37 19/20/38 13/17/39 
f 13/17/40 14/18/41 20/21/42 
f 82/22/43 20/21/44 14/18/45 
f 14/18/46 78/19/47 82/22/48 
f 26/24/49 25/23/50 19/20/51 
f 19/20/52 20/21/53 26/24/54 
f 106/25/55 26/24/56 20/21/57 
f 20/21/58 82/22/59 106/25/60 
f 75/4/61 9/3/62 66/1/63 
f 66/1/64 72/2/65 75/4/66 
f 79/6/67 15/5/68 9/3/69 
f 9/3/70 75/4/71 79/6/72 
f 83/8/73 21/7/74 15/5/75 
f 15/5/76 79/6/77 83/8/78 
f 114/10/79 44/9/80 21/7/81 
f 21/7/82 83/8/83 114/10/84 
f 11/15/85 10/14/86 71/11/87 
f 71/11/88 5/12/89 11/15/90 
f 76/16/91 11/15/92 5/12/93 
f 5/12/94 68/13/95 76/16/96 
f 17/18/97 16/17/98 10/14/99 
f 10/14/100 11/15/101 17/18/102 
f 80/19/103 17/18/104 11/15/105 
f 11/15/106 76/16/107 80/19/108 
f 23/21/109 22/20/110 16/17/111 
f 16/17/112 17/18/113 23/21/114 
f 84/22/115 23/21/116 17/18/117 
f 17/18/118 80/19/119 84/22/120 
f 27/24/121 54/23/122 22/20/123 
f 22/20/124 23/21/125 27/24/126 
f 88/25/127 27/24/128 23/21/129 
f 23/21/130 84/22/131 88/25/132 
f 73/4/133 12/3/134 4/1/135 
f 4/1/136 63/2/137 73/4/138 
f 77/6/139 18/5/140 12/3/141 
f 12/3/142 73/4/143 77/6/144 
f 81/8/145 24/7/146 18/5/147 
f 18/5/148 77/6/149 81/8/150 
f 86/10/151 28/9/152 24/7/153 
f 24/7/154 81/8/155 86/10/156 
f 93/34/157 32/35/158 29/32/159 
f 29/32/160 92/33/161 93/34/162 
f 96/36/163 34/37/164 32/35/165 
f 32/35/166 93/34/167 96/36/168 
f 35/40/169 36/41/170 89/38/171 
f 89/38/172 94/39/173 35/40/174 
f 100/43/175 35/40/176 94/39/177 
f 94/39/178 98/42/179 100/43/180 
f 38/44/181 39/45/182 36/41/183 
f 36/41/184 35/40/185 38/44/186 
f 102/46/187 38/44/188 35/40/189 
f 35/40/190 100/43/191 102/46/192 
f 41/47/193 42/48/194 39/45/195 
f 39/45/196 38/44/197 41/47/198 
f 43/49/199 41/47/200 38/44/201 
f 38/44/202 102/46/203 43/49/204 
f 26/50/205 106/51/206 42/48/207 
f 42/48/208 41/47/209 26/50/210 
f 25/52/211 26/50/212 41/47/213 
f 41/47/214 43/49/215 25/52/216 
f 107/55/217 37/56/218 97/53/219 
f 97/53/220 95/54/221 107/55/222 
f 108/57/223 40/58/224 37/56/225 
f 37/56/226 107/55/227 108/57/228 
f 47/59/229 104/60/230 40/58/231 
f 40/58/232 108/57/233 47/59/234 
f 87/61/235 85/62/236 104/60/237 
f 104/60/238 47/59/239 87/61/240 
f 48/40/241 45/41/242 33/38/243 
f 33/38/244 31/39/245 48/40/246 
f 110/43/247 48/40/248 31/39/249 
f 31/39/250 91/42/251 110/43/252 
f 50/44/253 46/45/254 45/41/255 
f 45/41/256 48/40/257 50/44/258 
f 51/46/259 50/44/260 48/40/261 
f 48/40/262 110/43/263 51/46/264 
f 52/47/265 109/48/266 46/45/267 
f 46/45/268 50/44/269 52/47/270 
f 53/49/271 52/47/272 50/44/273 
f 50/44/274 51/46/275 53/49/276 
f 27/50/277 88/51/278 109/48/279 
f 109/48/280 52/47/281 27/50/282 
f 54/52/283 27/50/284 52/47/285 
f 52/47/286 53/49/287 54/52/288 
f 99/55/289 49/56/290 30/53/291 
f 30/53/292 90/54/293 99/55/294 
f 101/57/295 111/58/296 49/56/297 
f 49/56/298 99/55/299 101/57/300 
f 103/59/301 112/60/302 111/58/303 
f 111/58/304 101/57/305 103/59/306 
f 105/61/307 113/62/308 112/60/309 
f 112/60/310 103/59/311 105/61/312 
f 116/63/313 120/65/314 58/66/315 
f 58/66/316 56/64/317 116/63/318 
f 123/67/319 125/68/320 129/70/321 
f 129/70/322 127/69/323 123/67/324 
f 55/71/325 118/72/326 126/74/327 
f 126/74/328 59/73/329 55/71/330 
f 117/75/331 122/76/332 130/78/333 
f 130/78/334 60/77/335 117/75/336 
f 121/79/337 119/80/338 128/82/339 
f 128/82/340 62/81/341 121/79/342 
f 57/83/343 115/84/344 124/86/345 
f 124/86/346 61/85/347 57/83/348 
# 116 faces

