# 3ds Max Wavefront OBJ Exporter v0.97b - (c)2007 guruware
# File Created: 07.03.2017 18:29:22

mtllib Bank-3-90_MSH.mtl

#
# object Bank_3_90
#

v  -0.2500 0.0156 -0.0000
v  0.0000 0.0156 -0.0000
v  0.2500 0.0156 -0.0000
v  -0.2500 -0.0156 0.0000
v  0.0000 -0.0156 0.0000
v  0.2500 -0.0156 0.0000
v  -0.2085 0.0156 -0.4214
v  0.0367 0.0156 -0.3726
v  0.2819 0.0156 -0.3238
v  0.2819 -0.0156 -0.3238
v  0.0367 -0.0156 -0.3726
v  -0.2085 -0.0156 -0.4214
v  -0.0856 0.0156 -0.8265
v  0.1454 0.0156 -0.7309
v  0.3763 0.0156 -0.6352
v  0.3763 -0.0156 -0.6352
v  0.1454 -0.0156 -0.7309
v  -0.0856 -0.0156 -0.8265
v  0.1140 0.0156 -1.2000
v  0.3219 0.0156 -1.0611
v  0.5297 0.0156 -0.9222
v  0.5297 -0.0156 -0.9222
v  0.3219 -0.0156 -1.0611
v  0.1140 -0.0156 -1.2000
v  0.3826 0.0156 -1.5273
v  0.5594 0.0156 -1.3505
v  0.7362 0.0156 -1.1737
v  0.7362 -0.0156 -1.1737
v  0.3826 -0.0156 -1.5273
v  1.3688 0.0156 -2.7009
v  1.3688 -0.0156 -2.7009
v  1.1188 -0.0156 -2.7009
v  1.1188 0.0156 -2.7009
v  0.8688 -0.0156 -2.7009
v  0.8688 0.0156 -2.7009
v  1.0821 0.0156 -2.3284
v  1.3273 0.0156 -2.2796
v  0.8369 0.0156 -2.3771
v  0.9734 0.0156 -1.9701
v  1.2044 0.0156 -1.8744
v  0.7424 0.0156 -2.0657
v  0.7969 0.0156 -1.6399
v  1.0048 0.0156 -1.5010
v  0.5890 0.0156 -1.7788
v  0.8369 -0.0156 -2.3771
v  0.7424 -0.0156 -2.0657
v  0.5890 -0.0156 -1.7788
v  1.0821 -0.0156 -2.3284
v  1.3273 -0.0156 -2.2796
v  0.9734 -0.0156 -1.9701
v  1.2044 -0.0156 -1.8744
v  0.7969 -0.0156 -1.6399
v  1.0048 -0.0156 -1.5010
v  0.5594 -0.0156 -1.3505
v  -0.2500 -0.0313 0.7188
v  0.2500 -0.0313 0.7188
v  -0.2500 -0.0313 0.5312
v  0.2500 -0.0313 0.5313
v  -0.2500 0.0312 0.7188
v  0.2500 0.0312 0.7188
v  -0.2500 0.0312 0.5312
v  0.2500 0.0312 0.5313
v  -0.2500 0.0156 -0.0000
v  -0.2500 0.0156 -0.0000
v  0.0000 0.0156 -0.0000
v  0.2500 0.0156 -0.0000
v  0.2500 0.0156 -0.0000
v  -0.2500 -0.0156 0.0000
v  -0.2500 -0.0156 0.0000
v  0.0000 -0.0156 0.0000
v  0.2500 -0.0156 0.0000
v  0.2500 -0.0156 0.0000
v  -0.2085 0.0156 -0.4214
v  0.2819 0.0156 -0.3238
v  0.2819 -0.0156 -0.3238
v  -0.2085 -0.0156 -0.4214
v  -0.0856 0.0156 -0.8265
v  0.3763 0.0156 -0.6352
v  0.3763 -0.0156 -0.6352
v  -0.0856 -0.0156 -0.8265
v  0.1140 0.0156 -1.2000
v  0.5297 0.0156 -0.9222
v  0.5297 -0.0156 -0.9222
v  0.1140 -0.0156 -1.2000
v  0.3826 0.0156 -1.5273
v  0.3826 0.0156 -1.5273
v  0.7362 0.0156 -1.1737
v  0.7362 0.0156 -1.1737
v  0.7362 -0.0156 -1.1737
v  0.7362 -0.0156 -1.1737
v  0.3826 -0.0156 -1.5273
v  0.3826 -0.0156 -1.5273
v  1.3688 0.0156 -2.7009
v  1.3688 0.0156 -2.7009
v  1.3688 -0.0156 -2.7009
v  1.3688 -0.0156 -2.7009
v  1.1188 -0.0156 -2.7009
v  1.1188 0.0156 -2.7009
v  0.8688 -0.0156 -2.7009
v  0.8688 -0.0156 -2.7009
v  0.8688 0.0156 -2.7009
v  0.8688 0.0156 -2.7009
v  1.3273 0.0156 -2.2796
v  0.8369 0.0156 -2.3771
v  1.2044 0.0156 -1.8744
v  0.7424 0.0156 -2.0657
v  1.0048 0.0156 -1.5010
v  0.5890 0.0156 -1.7788
v  0.8369 -0.0156 -2.3771
v  0.7424 -0.0156 -2.0657
v  0.5890 -0.0156 -1.7788
v  1.3273 -0.0156 -2.2796
v  1.2044 -0.0156 -1.8744
v  1.0048 -0.0156 -1.5010
v  -0.2500 -0.0313 0.7188
v  -0.2500 -0.0313 0.7188
v  0.2500 -0.0313 0.7188
v  0.2500 -0.0313 0.7188
v  -0.2500 -0.0313 0.5312
v  -0.2500 -0.0313 0.5312
v  0.2500 -0.0313 0.5313
v  0.2500 -0.0313 0.5313
v  -0.2500 0.0312 0.7188
v  -0.2500 0.0312 0.7188
v  0.2500 0.0312 0.7188
v  0.2500 0.0312 0.7188
v  -0.2500 0.0312 0.5312
v  -0.2500 0.0312 0.5312
v  0.2500 0.0312 0.5313
v  0.2500 0.0312 0.5313
# 130 vertices

vn -0.0000 0.0000 1.0000
vn -0.0000 0.0000 1.0000
vn -0.0000 0.0000 1.0000
vn -0.0000 0.0000 1.0000
vn -0.0000 0.0000 1.0000
vn -0.0000 0.0000 1.0000
vn -0.0000 0.0000 1.0000
vn -0.0000 0.0000 1.0000
vn -0.0000 0.0000 1.0000
vn -0.0000 0.0000 1.0000
vn -0.0000 0.0000 1.0000
vn -0.0000 0.0000 1.0000
vn 0.0000 1.0000 -0.0000
vn 0.0000 1.0000 -0.0000
vn 0.0000 1.0000 -0.0000
vn 0.0000 1.0000 -0.0000
vn 0.0000 1.0000 -0.0000
vn 0.0000 1.0000 -0.0000
vn 0.0000 1.0000 -0.0000
vn 0.0000 1.0000 -0.0000
vn 0.0000 1.0000 -0.0000
vn 0.0000 1.0000 -0.0000
vn 0.0000 1.0000 -0.0000
vn 0.0000 1.0000 -0.0000
vn 0.0000 1.0000 -0.0000
vn 0.0000 1.0000 -0.0000
vn 0.0000 1.0000 -0.0000
vn 0.0000 1.0000 -0.0000
vn 0.0000 1.0000 -0.0000
vn 0.0000 1.0000 -0.0000
vn 0.0000 1.0000 -0.0000
vn 0.0000 1.0000 -0.0000
vn 0.0000 1.0000 -0.0000
vn 0.0000 1.0000 -0.0000
vn 0.0000 1.0000 -0.0000
vn 0.0000 1.0000 -0.0000
vn 0.0000 1.0000 -0.0000
vn 0.0000 1.0000 -0.0000
vn 0.0000 1.0000 -0.0000
vn 0.0000 1.0000 -0.0000
vn 0.0000 1.0000 -0.0000
vn 0.0000 1.0000 -0.0000
vn 0.0000 1.0000 -0.0000
vn 0.0000 1.0000 -0.0000
vn 0.0000 1.0000 -0.0000
vn 0.0000 1.0000 -0.0000
vn 0.0000 1.0000 -0.0000
vn 0.0000 1.0000 -0.0000
vn 0.0000 1.0000 -0.0000
vn 0.0000 1.0000 -0.0000
vn 0.0000 1.0000 -0.0000
vn 0.0000 1.0000 -0.0000
vn 0.0000 1.0000 -0.0000
vn 0.0000 1.0000 -0.0000
vn 0.0000 1.0000 -0.0000
vn 0.0000 1.0000 -0.0000
vn 0.0000 1.0000 -0.0000
vn 0.0000 1.0000 -0.0000
vn 0.0000 1.0000 -0.0000
vn 0.0000 1.0000 -0.0000
vn 0.9808 0.0000 0.1951
vn 0.9808 0.0000 0.1951
vn 0.9952 0.0000 0.0980
vn 0.9952 0.0000 0.0980
vn 0.9952 0.0000 0.0980
vn 0.9808 0.0000 0.1951
vn 0.9239 0.0000 0.3827
vn 0.9239 0.0000 0.3827
vn 0.9808 0.0000 0.1951
vn 0.9808 0.0000 0.1951
vn 0.9808 0.0000 0.1951
vn 0.9239 0.0000 0.3827
vn 0.8315 0.0000 0.5556
vn 0.8315 0.0000 0.5556
vn 0.9239 0.0000 0.3827
vn 0.9239 0.0000 0.3827
vn 0.9239 0.0000 0.3827
vn 0.8315 0.0000 0.5556
vn 0.7730 0.0000 0.6344
vn 0.7730 0.0000 0.6344
vn 0.8315 0.0000 0.5556
vn 0.8315 0.0000 0.5556
vn 0.8315 0.0000 0.5556
vn 0.7730 0.0000 0.6344
vn 0.0000 -1.0000 0.0000
vn 0.0000 -1.0000 0.0000
vn 0.0000 -1.0000 0.0000
vn 0.0000 -1.0000 0.0000
vn 0.0000 -1.0000 0.0000
vn 0.0000 -1.0000 0.0000
vn 0.0000 -1.0000 0.0000
vn 0.0000 -1.0000 0.0000
vn 0.0000 -1.0000 0.0000
vn 0.0000 -1.0000 0.0000
vn 0.0000 -1.0000 0.0000
vn 0.0000 -1.0000 0.0000
vn 0.0000 -1.0000 0.0000
vn 0.0000 -1.0000 0.0000
vn 0.0000 -1.0000 0.0000
vn 0.0000 -1.0000 0.0000
vn 0.0000 -1.0000 0.0000
vn 0.0000 -1.0000 0.0000
vn 0.0000 -1.0000 0.0000
vn 0.0000 -1.0000 0.0000
vn 0.0000 -1.0000 0.0000
vn 0.0000 -1.0000 0.0000
vn 0.0000 -1.0000 0.0000
vn 0.0000 -1.0000 0.0000
vn 0.0000 -1.0000 0.0000
vn 0.0000 -1.0000 0.0000
vn 0.0000 -1.0000 0.0000
vn 0.0000 -1.0000 0.0000
vn 0.0000 -1.0000 0.0000
vn 0.0000 -1.0000 0.0000
vn 0.0000 -1.0000 0.0000
vn 0.0000 -1.0000 0.0000
vn 0.0000 -1.0000 0.0000
vn 0.0000 -1.0000 0.0000
vn 0.0000 -1.0000 0.0000
vn 0.0000 -1.0000 0.0000
vn 0.0000 -1.0000 0.0000
vn 0.0000 -1.0000 0.0000
vn 0.0000 -1.0000 0.0000
vn 0.0000 -1.0000 0.0000
vn 0.0000 -1.0000 0.0000
vn 0.0000 -1.0000 0.0000
vn 0.0000 -1.0000 0.0000
vn 0.0000 -1.0000 0.0000
vn 0.0000 -1.0000 0.0000
vn 0.0000 -1.0000 0.0000
vn 0.0000 -1.0000 0.0000
vn 0.0000 -1.0000 0.0000
vn -0.9808 -0.0000 -0.1951
vn -0.9808 -0.0000 -0.1951
vn -0.9952 -0.0000 -0.0980
vn -0.9952 -0.0000 -0.0980
vn -0.9952 -0.0000 -0.0980
vn -0.9808 -0.0000 -0.1951
vn -0.9239 -0.0000 -0.3827
vn -0.9239 -0.0000 -0.3827
vn -0.9808 -0.0000 -0.1951
vn -0.9808 -0.0000 -0.1951
vn -0.9808 -0.0000 -0.1951
vn -0.9239 -0.0000 -0.3827
vn -0.8315 -0.0000 -0.5556
vn -0.8315 -0.0000 -0.5556
vn -0.9239 -0.0000 -0.3827
vn -0.9239 -0.0000 -0.3827
vn -0.9239 -0.0000 -0.3827
vn -0.8315 -0.0000 -0.5556
vn -0.7730 -0.0000 -0.6344
vn -0.7730 -0.0000 -0.6344
vn -0.8315 -0.0000 -0.5556
vn -0.8315 -0.0000 -0.5556
vn -0.8315 -0.0000 -0.5556
vn -0.7730 -0.0000 -0.6344
vn 0.0000 -0.0000 -1.0000
vn 0.0000 -0.0000 -1.0000
vn 0.0000 -0.0000 -1.0000
vn 0.0000 -0.0000 -1.0000
vn 0.0000 -0.0000 -1.0000
vn 0.0000 -0.0000 -1.0000
vn 0.0000 -0.0000 -1.0000
vn 0.0000 -0.0000 -1.0000
vn 0.0000 -0.0000 -1.0000
vn 0.0000 -0.0000 -1.0000
vn 0.0000 -0.0000 -1.0000
vn 0.0000 -0.0000 -1.0000
vn 0.0000 1.0000 -0.0000
vn 0.0000 1.0000 -0.0000
vn 0.0000 1.0000 -0.0000
vn 0.0000 1.0000 -0.0000
vn 0.0000 1.0000 -0.0000
vn 0.0000 1.0000 -0.0000
vn 0.0000 1.0000 -0.0000
vn 0.0000 1.0000 -0.0000
vn 0.0000 1.0000 -0.0000
vn 0.0000 1.0000 -0.0000
vn 0.0000 1.0000 -0.0000
vn 0.0000 1.0000 -0.0000
vn 0.0000 1.0000 -0.0000
vn 0.0000 1.0000 -0.0000
vn 0.0000 1.0000 -0.0000
vn 0.0000 1.0000 -0.0000
vn 0.0000 1.0000 -0.0000
vn 0.0000 1.0000 -0.0000
vn 0.0000 1.0000 -0.0000
vn 0.0000 1.0000 -0.0000
vn 0.0000 1.0000 -0.0000
vn 0.0000 1.0000 -0.0000
vn 0.0000 1.0000 -0.0000
vn 0.0000 1.0000 -0.0000
vn 0.0000 1.0000 -0.0000
vn 0.0000 1.0000 -0.0000
vn 0.0000 1.0000 -0.0000
vn 0.0000 1.0000 -0.0000
vn 0.0000 1.0000 -0.0000
vn 0.0000 1.0000 -0.0000
vn 0.0000 1.0000 -0.0000
vn 0.0000 1.0000 -0.0000
vn 0.0000 1.0000 -0.0000
vn 0.0000 1.0000 -0.0000
vn 0.0000 1.0000 -0.0000
vn 0.0000 1.0000 -0.0000
vn 0.0000 1.0000 -0.0000
vn 0.0000 1.0000 -0.0000
vn 0.0000 1.0000 -0.0000
vn 0.0000 1.0000 -0.0000
vn 0.0000 1.0000 -0.0000
vn 0.0000 1.0000 -0.0000
vn 0.0000 1.0000 -0.0000
vn 0.0000 1.0000 -0.0000
vn 0.0000 1.0000 -0.0000
vn 0.0000 1.0000 -0.0000
vn 0.0000 1.0000 -0.0000
vn 0.0000 1.0000 -0.0000
vn -0.9808 -0.0000 -0.1951
vn -0.9808 -0.0000 -0.1951
vn -0.9952 -0.0000 -0.0980
vn -0.9952 -0.0000 -0.0980
vn -0.9952 -0.0000 -0.0980
vn -0.9808 -0.0000 -0.1951
vn -0.9239 -0.0000 -0.3827
vn -0.9239 -0.0000 -0.3827
vn -0.9808 -0.0000 -0.1951
vn -0.9808 -0.0000 -0.1951
vn -0.9808 -0.0000 -0.1951
vn -0.9239 -0.0000 -0.3827
vn -0.8315 -0.0000 -0.5556
vn -0.8315 -0.0000 -0.5556
vn -0.9239 -0.0000 -0.3827
vn -0.9239 -0.0000 -0.3827
vn -0.9239 -0.0000 -0.3827
vn -0.8315 -0.0000 -0.5556
vn -0.7730 -0.0000 -0.6344
vn -0.7730 -0.0000 -0.6344
vn -0.8315 -0.0000 -0.5556
vn -0.8315 -0.0000 -0.5556
vn -0.8315 -0.0000 -0.5556
vn -0.7730 -0.0000 -0.6344
vn 0.0000 -1.0000 0.0000
vn 0.0000 -1.0000 0.0000
vn 0.0000 -1.0000 0.0000
vn 0.0000 -1.0000 0.0000
vn 0.0000 -1.0000 0.0000
vn 0.0000 -1.0000 0.0000
vn 0.0000 -1.0000 0.0000
vn 0.0000 -1.0000 0.0000
vn 0.0000 -1.0000 0.0000
vn 0.0000 -1.0000 0.0000
vn 0.0000 -1.0000 0.0000
vn 0.0000 -1.0000 0.0000
vn 0.0000 -1.0000 0.0000
vn 0.0000 -1.0000 0.0000
vn 0.0000 -1.0000 0.0000
vn 0.0000 -1.0000 0.0000
vn 0.0000 -1.0000 0.0000
vn 0.0000 -1.0000 0.0000
vn 0.0000 -1.0000 0.0000
vn 0.0000 -1.0000 0.0000
vn 0.0000 -1.0000 0.0000
vn 0.0000 -1.0000 0.0000
vn 0.0000 -1.0000 0.0000
vn 0.0000 -1.0000 0.0000
vn 0.0000 -1.0000 0.0000
vn 0.0000 -1.0000 0.0000
vn 0.0000 -1.0000 0.0000
vn 0.0000 -1.0000 0.0000
vn 0.0000 -1.0000 0.0000
vn 0.0000 -1.0000 0.0000
vn 0.0000 -1.0000 0.0000
vn 0.0000 -1.0000 0.0000
vn 0.0000 -1.0000 0.0000
vn 0.0000 -1.0000 0.0000
vn 0.0000 -1.0000 0.0000
vn 0.0000 -1.0000 0.0000
vn 0.0000 -1.0000 0.0000
vn 0.0000 -1.0000 0.0000
vn 0.0000 -1.0000 0.0000
vn 0.0000 -1.0000 0.0000
vn 0.0000 -1.0000 0.0000
vn 0.0000 -1.0000 0.0000
vn 0.0000 -1.0000 0.0000
vn 0.0000 -1.0000 0.0000
vn 0.0000 -1.0000 0.0000
vn 0.0000 -1.0000 0.0000
vn 0.0000 -1.0000 0.0000
vn 0.0000 -1.0000 0.0000
vn 0.9808 0.0000 0.1951
vn 0.9808 0.0000 0.1951
vn 0.9952 0.0000 0.0980
vn 0.9952 0.0000 0.0980
vn 0.9952 0.0000 0.0980
vn 0.9808 0.0000 0.1951
vn 0.9239 0.0000 0.3827
vn 0.9239 0.0000 0.3827
vn 0.9808 0.0000 0.1951
vn 0.9808 0.0000 0.1951
vn 0.9808 0.0000 0.1951
vn 0.9239 0.0000 0.3827
vn 0.8315 0.0000 0.5556
vn 0.8315 0.0000 0.5556
vn 0.9239 0.0000 0.3827
vn 0.9239 0.0000 0.3827
vn 0.9239 0.0000 0.3827
vn 0.8315 0.0000 0.5556
vn 0.7730 0.0000 0.6344
vn 0.7730 0.0000 0.6344
vn 0.8315 0.0000 0.5556
vn 0.8315 0.0000 0.5556
vn 0.8315 0.0000 0.5556
vn 0.7730 0.0000 0.6344
vn 0.0000 -1.0000 0.0000
vn 0.0000 -1.0000 0.0000
vn 0.0000 -1.0000 0.0000
vn 0.0000 -1.0000 0.0000
vn 0.0000 -1.0000 0.0000
vn 0.0000 -1.0000 0.0000
vn -0.0000 1.0000 0.0000
vn 0.0000 1.0000 0.0000
vn -0.0000 1.0000 0.0000
vn -0.0000 1.0000 0.0000
vn -0.0000 1.0000 0.0000
vn -0.0000 1.0000 0.0000
vn 0.0000 0.0000 1.0000
vn 0.0000 0.0000 1.0000
vn 0.0000 0.0000 1.0000
vn 0.0000 0.0000 1.0000
vn 0.0000 0.0000 1.0000
vn 0.0000 0.0000 1.0000
vn 1.0000 0.0000 0.0000
vn 1.0000 0.0000 0.0000
vn 1.0000 0.0000 0.0000
vn 1.0000 0.0000 0.0000
vn 1.0000 0.0000 0.0000
vn 1.0000 0.0000 0.0000
vn 0.0000 -0.0000 -1.0000
vn 0.0000 -0.0000 -1.0000
vn 0.0000 -0.0000 -1.0000
vn 0.0000 -0.0000 -1.0000
vn 0.0000 -0.0000 -1.0000
vn 0.0000 -0.0000 -1.0000
vn -1.0000 -0.0000 -0.0000
vn -1.0000 -0.0000 -0.0000
vn -1.0000 -0.0000 -0.0000
vn -1.0000 -0.0000 -0.0000
vn -1.0000 -0.0000 -0.0000
vn -1.0000 -0.0000 -0.0000
# 348 vertex normals

vt 0.5000 0.0000 0.0000
vt 1.0000 0.0000 0.0000
vt 0.5000 0.1250 0.0000
vt 1.0000 0.1250 0.0000
vt 0.5000 0.2500 0.0000
vt 1.0000 0.2500 0.0000
vt 0.5000 0.3750 0.0000
vt 1.0000 0.3750 0.0000
vt 0.5000 0.5000 0.0000
vt 1.0000 0.5000 0.0000
vt 0.5000 0.0000 0.0000
vt 0.7500 0.0000 0.0000
vt 1.0000 0.0000 0.0000
vt 0.5000 0.1250 0.0000
vt 0.7500 0.1250 0.0000
vt 1.0000 0.1250 0.0000
vt 0.5000 0.2500 0.0000
vt 0.7500 0.2500 0.0000
vt 1.0000 0.2500 0.0000
vt 0.5000 0.3750 0.0000
vt 0.7500 0.3750 0.0000
vt 1.0000 0.3750 0.0000
vt 0.5000 0.5000 0.0000
vt 0.7500 0.5000 0.0000
vt 1.0000 0.5000 0.0000
vt 0.5000 0.0000 0.0000
vt 0.7500 0.0000 0.0000
vt 1.0000 0.0000 0.0000
vt 0.5000 1.0000 0.0000
vt 0.7500 1.0000 0.0000
vt 1.0000 1.0000 0.0000
vt 1.0000 0.0000 0.0000
vt 1.0000 1.0000 0.0000
vt 0.7500 1.0000 0.0000
vt 0.7500 0.0000 0.0000
vt 0.5000 1.0000 0.0000
vt 0.5000 0.0000 0.0000
vt 0.5000 0.0000 0.0000
vt 0.7500 0.0000 0.0000
vt 0.7500 0.1250 0.0000
vt 0.5000 0.1250 0.0000
vt 1.0000 0.0000 0.0000
vt 1.0000 0.1250 0.0000
vt 0.7500 0.2500 0.0000
vt 0.5000 0.2500 0.0000
vt 1.0000 0.2500 0.0000
vt 0.7500 0.3750 0.0000
vt 0.5000 0.3750 0.0000
vt 1.0000 0.3750 0.0000
vt 0.7500 0.5000 0.0000
vt 0.5000 0.5000 0.0000
vt 1.0000 0.5000 0.0000
vt 0.5000 0.0000 0.0000
vt 1.0000 0.0000 0.0000
vt 1.0000 0.1250 0.0000
vt 0.5000 0.1250 0.0000
vt 1.0000 0.2500 0.0000
vt 0.5000 0.2500 0.0000
vt 1.0000 0.3750 0.0000
vt 0.5000 0.3750 0.0000
vt 1.0000 0.5000 0.0000
vt 0.5000 0.5000 0.0000
vt 0.0000 0.4063 0.0000
vt 0.0000 0.5938 0.0000
vt 0.5000 0.5937 0.0000
vt 0.5000 0.4063 0.0000
vt 0.0000 0.4063 0.0000
vt 0.5000 0.4063 0.0000
vt 0.5000 0.5937 0.0000
vt 0.0000 0.5938 0.0000
# 70 texture coords

g Bank_3_90
usemtl wire_135006006
f 70/30/1 2/27/2 64/28/3 
f 64/28/4 69/31/5 70/30/6 
f 6/29/7 3/26/8 2/27/9 
f 2/27/10 70/30/11 6/29/12 
f 8/15/13 7/14/14 1/11/15 
f 1/11/16 65/12/17 8/15/18 
f 74/16/19 8/15/20 65/12/21 
f 65/12/22 67/13/23 74/16/24 
f 14/18/25 13/17/26 7/14/27 
f 7/14/28 8/15/29 14/18/30 
f 78/19/31 14/18/32 8/15/33 
f 8/15/34 74/16/35 78/19/36 
f 20/21/37 19/20/38 13/17/39 
f 13/17/40 14/18/41 20/21/42 
f 82/22/43 20/21/44 14/18/45 
f 14/18/46 78/19/47 82/22/48 
f 26/24/49 25/23/50 19/20/51 
f 19/20/52 20/21/53 26/24/54 
f 88/25/55 26/24/56 20/21/57 
f 20/21/58 82/22/59 88/25/60 
f 75/4/61 9/3/62 66/1/63 
f 66/1/64 72/2/65 75/4/66 
f 79/6/67 15/5/68 9/3/69 
f 9/3/70 75/4/71 79/6/72 
f 83/8/73 21/7/74 15/5/75 
f 15/5/76 79/6/77 83/8/78 
f 90/10/79 27/9/80 21/7/81 
f 21/7/82 83/8/83 90/10/84 
f 11/15/85 10/14/86 71/11/87 
f 71/11/88 5/12/89 11/15/90 
f 76/16/91 11/15/92 5/12/93 
f 5/12/94 68/13/95 76/16/96 
f 17/18/97 16/17/98 10/14/99 
f 10/14/100 11/15/101 17/18/102 
f 80/19/103 17/18/104 11/15/105 
f 11/15/106 76/16/107 80/19/108 
f 23/21/109 22/20/110 16/17/111 
f 16/17/112 17/18/113 23/21/114 
f 84/22/115 23/21/116 17/18/117 
f 17/18/118 80/19/119 84/22/120 
f 54/24/121 28/23/122 22/20/123 
f 22/20/124 23/21/125 54/24/126 
f 92/25/127 54/24/128 23/21/129 
f 23/21/130 84/22/131 92/25/132 
f 73/4/133 12/3/134 4/1/135 
f 4/1/136 63/2/137 73/4/138 
f 77/6/139 18/5/140 12/3/141 
f 12/3/142 73/4/143 77/6/144 
f 81/8/145 24/7/146 18/5/147 
f 18/5/148 77/6/149 81/8/150 
f 86/10/151 29/9/152 24/7/153 
f 24/7/154 81/8/155 86/10/156 
f 97/34/157 33/35/158 30/32/159 
f 30/32/160 96/33/161 97/34/162 
f 100/36/163 35/37/164 33/35/165 
f 33/35/166 97/34/167 100/36/168 
f 36/40/169 37/41/170 93/38/171 
f 93/38/172 98/39/173 36/40/174 
f 104/43/175 36/40/176 98/39/177 
f 98/39/178 102/42/179 104/43/180 
f 39/44/181 40/45/182 37/41/183 
f 37/41/184 36/40/185 39/44/186 
f 106/46/187 39/44/188 36/40/189 
f 36/40/190 104/43/191 106/46/192 
f 42/47/193 107/48/194 40/45/195 
f 40/45/196 39/44/197 42/47/198 
f 44/49/199 42/47/200 39/44/201 
f 39/44/202 106/46/203 44/49/204 
f 26/50/205 88/51/206 107/48/207 
f 107/48/208 42/47/209 26/50/210 
f 25/52/211 26/50/212 42/47/213 
f 42/47/214 44/49/215 25/52/216 
f 109/55/217 38/56/218 101/53/219 
f 101/53/220 99/54/221 109/55/222 
f 110/57/223 41/58/224 38/56/225 
f 38/56/226 109/55/227 110/57/228 
f 47/59/229 108/60/230 41/58/231 
f 41/58/232 110/57/233 47/59/234 
f 91/61/235 85/62/236 108/60/237 
f 108/60/238 47/59/239 91/61/240 
f 48/40/241 45/41/242 34/38/243 
f 34/38/244 32/39/245 48/40/246 
f 112/43/247 48/40/248 32/39/249 
f 32/39/250 95/42/251 112/43/252 
f 50/44/253 46/45/254 45/41/255 
f 45/41/256 48/40/257 50/44/258 
f 51/46/259 50/44/260 48/40/261 
f 48/40/262 112/43/263 51/46/264 
f 52/47/265 111/48/266 46/45/267 
f 46/45/268 50/44/269 52/47/270 
f 53/49/271 52/47/272 50/44/273 
f 50/44/274 51/46/275 53/49/276 
f 54/50/277 92/51/278 111/48/279 
f 111/48/280 52/47/281 54/50/282 
f 28/52/283 54/50/284 52/47/285 
f 52/47/286 53/49/287 28/52/288 
f 103/55/289 49/56/290 31/53/291 
f 31/53/292 94/54/293 103/55/294 
f 105/57/295 113/58/296 49/56/297 
f 49/56/298 103/55/299 105/57/300 
f 43/59/301 114/60/302 113/58/303 
f 113/58/304 105/57/305 43/59/306 
f 87/61/307 89/62/308 114/60/309 
f 114/60/310 43/59/311 87/61/312 
f 116/63/313 120/64/314 58/65/315 
f 58/65/316 56/66/317 116/63/318 
f 123/67/319 125/68/320 129/69/321 
f 129/69/322 127/70/323 123/67/324 
f 55/63/325 118/66/326 126/68/327 
f 126/68/328 59/67/329 55/63/330 
f 117/66/331 122/65/332 130/69/333 
f 130/69/334 60/68/335 117/66/336 
f 121/65/337 119/64/338 128/70/339 
f 128/70/340 62/69/341 121/65/342 
f 57/64/343 115/63/344 124/67/345 
f 124/67/346 61/70/347 57/64/348 
# 116 faces

