# 3ds Max Wavefront OBJ Exporter v0.97b - (c)2007 guruware
# File Created: 09.03.2017 20:17:15

mtllib Bank-3-105_MSH.mtl

#
# object Bank_3_105
#

v  -0.2500 0.0156 -0.0000
v  0.0000 0.0156 -0.0000
v  0.2500 0.0156 -0.0000
v  -0.2500 -0.0156 0.0000
v  0.0000 -0.0156 0.0000
v  0.2500 -0.0156 0.0000
v  -0.2007 0.0156 -0.4285
v  0.0428 0.0156 -0.3717
v  0.2862 0.0156 -0.3150
v  0.2862 -0.0156 -0.3150
v  0.0428 -0.0156 -0.3717
v  -0.2007 -0.0156 -0.4285
v  -0.0554 0.0156 -0.8346
v  0.1688 0.0156 -0.7240
v  0.3930 0.0156 -0.6135
v  0.3930 -0.0156 -0.6135
v  0.1688 -0.0156 -0.7240
v  -0.0554 -0.0156 -0.8346
v  0.1783 0.0156 -1.1971
v  0.3716 0.0156 -1.0385
v  0.5648 0.0156 -0.8799
v  0.5648 -0.0156 -0.8799
v  0.3716 -0.0156 -1.0385
v  0.1783 -0.0156 -1.1971
v  0.6405 0.0156 -1.2987
v  0.6405 -0.0156 -1.2987
v  1.5309 0.0156 -2.5975
v  1.5309 -0.0156 -2.5975
v  1.2809 -0.0156 -2.5975
v  1.2809 0.0156 -2.5975
v  1.0309 -0.0156 -2.5975
v  1.0309 0.0156 -2.5975
v  1.2382 0.0156 -2.2257
v  1.4816 0.0156 -2.1690
v  0.9947 0.0156 -2.2825
v  1.1121 0.0156 -1.8734
v  1.3363 0.0156 -1.7629
v  0.8879 0.0156 -1.9840
v  0.9093 0.0156 -1.5590
v  1.1026 0.0156 -1.4004
v  0.7161 0.0156 -1.7176
v  0.7927 0.0156 -1.1004
v  0.4883 0.0156 -1.4971
v  0.9947 -0.0156 -2.2825
v  0.8879 -0.0156 -1.9840
v  0.7161 -0.0156 -1.7176
v  0.4883 -0.0156 -1.4971
v  1.2382 -0.0156 -2.2257
v  1.4816 -0.0156 -2.1690
v  1.1121 -0.0156 -1.8734
v  1.3363 -0.0156 -1.7629
v  0.9093 -0.0156 -1.5590
v  1.1026 -0.0156 -1.4004
v  0.7927 -0.0156 -1.1004
v  -0.2500 -0.0313 0.7188
v  0.2500 -0.0313 0.7188
v  -0.2500 -0.0313 0.5312
v  0.2500 -0.0313 0.5313
v  -0.2500 0.0312 0.7188
v  0.2500 0.0312 0.7188
v  -0.2500 0.0312 0.5312
v  0.2500 0.0312 0.5313
# 62 vertices

vn -0.0000 0.0000 1.0000
vn -0.0000 0.0000 1.0000
vn -0.0000 0.0000 1.0000
vn -0.0000 0.0000 1.0000
vn -0.0000 0.0000 1.0000
vn -0.0000 0.0000 1.0000
vn -0.0000 0.0000 1.0000
vn -0.0000 0.0000 1.0000
vn -0.0000 0.0000 1.0000
vn -0.0000 0.0000 1.0000
vn -0.0000 0.0000 1.0000
vn -0.0000 0.0000 1.0000
vn 0.0000 1.0000 -0.0000
vn 0.0000 1.0000 -0.0000
vn 0.0000 1.0000 -0.0000
vn 0.0000 1.0000 -0.0000
vn 0.0000 1.0000 -0.0000
vn 0.0000 1.0000 -0.0000
vn 0.0000 1.0000 -0.0000
vn 0.0000 1.0000 -0.0000
vn 0.0000 1.0000 -0.0000
vn 0.0000 1.0000 -0.0000
vn 0.0000 1.0000 -0.0000
vn 0.0000 1.0000 -0.0000
vn 0.0000 1.0000 -0.0000
vn 0.0000 1.0000 -0.0000
vn 0.0000 1.0000 -0.0000
vn 0.0000 1.0000 -0.0000
vn 0.0000 1.0000 -0.0000
vn 0.0000 1.0000 -0.0000
vn 0.0000 1.0000 -0.0000
vn 0.0000 1.0000 -0.0000
vn 0.0000 1.0000 -0.0000
vn 0.0000 1.0000 -0.0000
vn 0.0000 1.0000 -0.0000
vn 0.0000 1.0000 -0.0000
vn 0.0000 1.0000 -0.0000
vn 0.0000 1.0000 -0.0000
vn 0.0000 1.0000 -0.0000
vn 0.0000 1.0000 -0.0000
vn 0.0000 1.0000 -0.0000
vn 0.0000 1.0000 -0.0000
vn 0.0000 1.0000 -0.0000
vn 0.0000 1.0000 -0.0000
vn 0.0000 1.0000 -0.0000
vn 0.0000 1.0000 -0.0000
vn 0.0000 1.0000 -0.0000
vn 0.0000 1.0000 -0.0000
vn 0.0000 1.0000 -0.0000
vn 0.0000 1.0000 -0.0000
vn 0.0000 1.0000 -0.0000
vn 0.0000 1.0000 -0.0000
vn 0.0000 1.0000 -0.0000
vn 0.0000 1.0000 -0.0000
vn 0.0000 1.0000 -0.0000
vn 0.0000 1.0000 -0.0000
vn 0.0000 1.0000 -0.0000
vn 0.0000 1.0000 -0.0000
vn 0.0000 1.0000 -0.0000
vn 0.0000 1.0000 -0.0000
vn 0.9739 0.0000 0.2271
vn 0.9739 0.0000 0.2271
vn 0.9934 0.0000 0.1143
vn 0.9934 0.0000 0.1143
vn 0.9934 0.0000 0.1143
vn 0.9739 0.0000 0.2271
vn 0.8969 0.0000 0.4423
vn 0.8969 0.0000 0.4423
vn 0.9739 0.0000 0.2271
vn 0.9739 0.0000 0.2271
vn 0.9739 0.0000 0.2271
vn 0.8969 0.0000 0.4423
vn 0.7730 0.0000 0.6344
vn 0.7730 0.0000 0.6344
vn 0.8969 0.0000 0.4423
vn 0.8969 0.0000 0.4423
vn 0.8969 0.0000 0.4423
vn 0.7730 0.0000 0.6344
vn 0.6954 0.0000 0.7186
vn 0.6954 0.0000 0.7186
vn 0.7730 0.0000 0.6344
vn 0.7730 0.0000 0.6344
vn 0.7730 0.0000 0.6344
vn 0.6954 0.0000 0.7186
vn 0.0000 -1.0000 0.0000
vn 0.0000 -1.0000 0.0000
vn 0.0000 -1.0000 0.0000
vn 0.0000 -1.0000 0.0000
vn 0.0000 -1.0000 0.0000
vn 0.0000 -1.0000 0.0000
vn 0.0000 -1.0000 0.0000
vn 0.0000 -1.0000 0.0000
vn 0.0000 -1.0000 0.0000
vn 0.0000 -1.0000 0.0000
vn 0.0000 -1.0000 0.0000
vn 0.0000 -1.0000 0.0000
vn 0.0000 -1.0000 0.0000
vn 0.0000 -1.0000 0.0000
vn 0.0000 -1.0000 0.0000
vn 0.0000 -1.0000 0.0000
vn 0.0000 -1.0000 0.0000
vn 0.0000 -1.0000 0.0000
vn 0.0000 -1.0000 0.0000
vn 0.0000 -1.0000 0.0000
vn 0.0000 -1.0000 0.0000
vn 0.0000 -1.0000 0.0000
vn 0.0000 -1.0000 0.0000
vn 0.0000 -1.0000 0.0000
vn 0.0000 -1.0000 0.0000
vn 0.0000 -1.0000 0.0000
vn 0.0000 -1.0000 0.0000
vn 0.0000 -1.0000 0.0000
vn 0.0000 -1.0000 0.0000
vn 0.0000 -1.0000 0.0000
vn 0.0000 -1.0000 0.0000
vn 0.0000 -1.0000 0.0000
vn 0.0000 -1.0000 0.0000
vn 0.0000 -1.0000 0.0000
vn 0.0000 -1.0000 0.0000
vn 0.0000 -1.0000 0.0000
vn 0.0000 -1.0000 0.0000
vn 0.0000 -1.0000 0.0000
vn 0.0000 -1.0000 0.0000
vn 0.0000 -1.0000 0.0000
vn 0.0000 -1.0000 0.0000
vn 0.0000 -1.0000 0.0000
vn 0.0000 -1.0000 0.0000
vn 0.0000 -1.0000 0.0000
vn 0.0000 -1.0000 0.0000
vn 0.0000 -1.0000 0.0000
vn 0.0000 -1.0000 0.0000
vn 0.0000 -1.0000 0.0000
vn -0.9739 -0.0000 -0.2271
vn -0.9739 -0.0000 -0.2271
vn -0.9934 -0.0000 -0.1143
vn -0.9934 -0.0000 -0.1143
vn -0.9934 -0.0000 -0.1143
vn -0.9739 -0.0000 -0.2271
vn -0.8969 -0.0000 -0.4423
vn -0.8969 -0.0000 -0.4423
vn -0.9739 -0.0000 -0.2271
vn -0.9739 -0.0000 -0.2271
vn -0.9739 -0.0000 -0.2271
vn -0.8969 -0.0000 -0.4423
vn -0.7730 -0.0000 -0.6344
vn -0.7730 -0.0000 -0.6344
vn -0.8969 -0.0000 -0.4423
vn -0.8969 -0.0000 -0.4423
vn -0.8969 -0.0000 -0.4423
vn -0.7730 -0.0000 -0.6344
vn -0.6954 -0.0000 -0.7186
vn -0.6954 -0.0000 -0.7186
vn -0.7730 -0.0000 -0.6344
vn -0.7730 -0.0000 -0.6344
vn -0.7730 -0.0000 -0.6344
vn -0.6954 -0.0000 -0.7186
vn 0.0000 -0.0000 -1.0000
vn 0.0000 -0.0000 -1.0000
vn 0.0000 -0.0000 -1.0000
vn 0.0000 -0.0000 -1.0000
vn 0.0000 -0.0000 -1.0000
vn 0.0000 -0.0000 -1.0000
vn 0.0000 -0.0000 -1.0000
vn 0.0000 -0.0000 -1.0000
vn 0.0000 -0.0000 -1.0000
vn 0.0000 -0.0000 -1.0000
vn 0.0000 -0.0000 -1.0000
vn 0.0000 -0.0000 -1.0000
vn 0.0000 1.0000 -0.0000
vn 0.0000 1.0000 -0.0000
vn 0.0000 1.0000 -0.0000
vn 0.0000 1.0000 -0.0000
vn 0.0000 1.0000 -0.0000
vn 0.0000 1.0000 -0.0000
vn 0.0000 1.0000 -0.0000
vn 0.0000 1.0000 -0.0000
vn 0.0000 1.0000 -0.0000
vn 0.0000 1.0000 -0.0000
vn 0.0000 1.0000 -0.0000
vn 0.0000 1.0000 -0.0000
vn 0.0000 1.0000 -0.0000
vn 0.0000 1.0000 -0.0000
vn 0.0000 1.0000 -0.0000
vn 0.0000 1.0000 -0.0000
vn 0.0000 1.0000 -0.0000
vn 0.0000 1.0000 -0.0000
vn 0.0000 1.0000 -0.0000
vn 0.0000 1.0000 -0.0000
vn 0.0000 1.0000 -0.0000
vn 0.0000 1.0000 -0.0000
vn 0.0000 1.0000 -0.0000
vn 0.0000 1.0000 -0.0000
vn 0.0000 1.0000 -0.0000
vn 0.0000 1.0000 -0.0000
vn 0.0000 1.0000 -0.0000
vn 0.0000 1.0000 -0.0000
vn 0.0000 1.0000 -0.0000
vn 0.0000 1.0000 -0.0000
vn 0.0000 1.0000 -0.0000
vn 0.0000 1.0000 -0.0000
vn 0.0000 1.0000 -0.0000
vn 0.0000 1.0000 -0.0000
vn 0.0000 1.0000 -0.0000
vn 0.0000 1.0000 -0.0000
vn 0.0000 1.0000 -0.0000
vn 0.0000 1.0000 -0.0000
vn 0.0000 1.0000 -0.0000
vn 0.0000 1.0000 -0.0000
vn 0.0000 1.0000 -0.0000
vn 0.0000 1.0000 -0.0000
vn 0.0000 1.0000 -0.0000
vn 0.0000 1.0000 -0.0000
vn 0.0000 1.0000 -0.0000
vn 0.0000 1.0000 -0.0000
vn 0.0000 1.0000 -0.0000
vn 0.0000 1.0000 -0.0000
vn -0.9739 -0.0000 -0.2271
vn -0.9739 -0.0000 -0.2271
vn -0.9934 -0.0000 -0.1143
vn -0.9934 -0.0000 -0.1143
vn -0.9934 -0.0000 -0.1143
vn -0.9739 -0.0000 -0.2271
vn -0.8969 -0.0000 -0.4423
vn -0.8969 -0.0000 -0.4423
vn -0.9739 -0.0000 -0.2271
vn -0.9739 -0.0000 -0.2271
vn -0.9739 -0.0000 -0.2271
vn -0.8969 -0.0000 -0.4423
vn -0.7730 -0.0000 -0.6344
vn -0.7730 -0.0000 -0.6344
vn -0.8969 -0.0000 -0.4423
vn -0.8969 -0.0000 -0.4423
vn -0.8969 -0.0000 -0.4423
vn -0.7730 -0.0000 -0.6344
vn -0.6954 -0.0000 -0.7186
vn -0.6954 -0.0000 -0.7186
vn -0.7730 -0.0000 -0.6344
vn -0.7730 -0.0000 -0.6344
vn -0.7730 -0.0000 -0.6344
vn -0.6954 -0.0000 -0.7186
vn 0.0000 -1.0000 0.0000
vn 0.0000 -1.0000 0.0000
vn 0.0000 -1.0000 0.0000
vn 0.0000 -1.0000 0.0000
vn 0.0000 -1.0000 0.0000
vn 0.0000 -1.0000 0.0000
vn 0.0000 -1.0000 0.0000
vn 0.0000 -1.0000 0.0000
vn 0.0000 -1.0000 0.0000
vn 0.0000 -1.0000 0.0000
vn 0.0000 -1.0000 0.0000
vn 0.0000 -1.0000 0.0000
vn 0.0000 -1.0000 0.0000
vn 0.0000 -1.0000 0.0000
vn 0.0000 -1.0000 0.0000
vn 0.0000 -1.0000 0.0000
vn 0.0000 -1.0000 0.0000
vn 0.0000 -1.0000 0.0000
vn 0.0000 -1.0000 0.0000
vn 0.0000 -1.0000 0.0000
vn 0.0000 -1.0000 0.0000
vn 0.0000 -1.0000 0.0000
vn 0.0000 -1.0000 0.0000
vn 0.0000 -1.0000 0.0000
vn 0.0000 -1.0000 0.0000
vn 0.0000 -1.0000 0.0000
vn 0.0000 -1.0000 0.0000
vn 0.0000 -1.0000 0.0000
vn 0.0000 -1.0000 0.0000
vn 0.0000 -1.0000 0.0000
vn 0.0000 -1.0000 0.0000
vn 0.0000 -1.0000 0.0000
vn 0.0000 -1.0000 0.0000
vn 0.0000 -1.0000 0.0000
vn 0.0000 -1.0000 0.0000
vn 0.0000 -1.0000 0.0000
vn 0.0000 -1.0000 0.0000
vn 0.0000 -1.0000 0.0000
vn 0.0000 -1.0000 0.0000
vn 0.0000 -1.0000 0.0000
vn 0.0000 -1.0000 0.0000
vn 0.0000 -1.0000 0.0000
vn 0.0000 -1.0000 0.0000
vn 0.0000 -1.0000 0.0000
vn 0.0000 -1.0000 0.0000
vn 0.0000 -1.0000 0.0000
vn 0.0000 -1.0000 0.0000
vn 0.0000 -1.0000 0.0000
vn 0.9739 0.0000 0.2271
vn 0.9739 0.0000 0.2271
vn 0.9934 0.0000 0.1143
vn 0.9934 0.0000 0.1143
vn 0.9934 0.0000 0.1143
vn 0.9739 0.0000 0.2271
vn 0.8969 0.0000 0.4423
vn 0.8969 0.0000 0.4423
vn 0.9739 0.0000 0.2271
vn 0.9739 0.0000 0.2271
vn 0.9739 0.0000 0.2271
vn 0.8969 0.0000 0.4423
vn 0.7730 0.0000 0.6344
vn 0.7730 0.0000 0.6344
vn 0.8969 0.0000 0.4423
vn 0.8969 0.0000 0.4423
vn 0.8969 0.0000 0.4423
vn 0.7730 0.0000 0.6344
vn 0.6954 0.0000 0.7186
vn 0.6954 0.0000 0.7186
vn 0.7730 0.0000 0.6344
vn 0.7730 0.0000 0.6344
vn 0.7730 0.0000 0.6344
vn 0.6954 0.0000 0.7186
vn 0.0000 -1.0000 0.0000
vn 0.0000 -1.0000 0.0000
vn 0.0000 -1.0000 0.0000
vn 0.0000 -1.0000 0.0000
vn 0.0000 -1.0000 0.0000
vn 0.0000 -1.0000 0.0000
vn -0.0000 1.0000 0.0000
vn 0.0000 1.0000 0.0000
vn -0.0000 1.0000 0.0000
vn -0.0000 1.0000 0.0000
vn -0.0000 1.0000 0.0000
vn -0.0000 1.0000 0.0000
vn 0.0000 0.0000 1.0000
vn 0.0000 0.0000 1.0000
vn 0.0000 0.0000 1.0000
vn 0.0000 0.0000 1.0000
vn 0.0000 0.0000 1.0000
vn 0.0000 0.0000 1.0000
vn 1.0000 0.0000 0.0000
vn 1.0000 0.0000 0.0000
vn 1.0000 0.0000 0.0000
vn 1.0000 0.0000 0.0000
vn 1.0000 0.0000 0.0000
vn 1.0000 0.0000 0.0000
vn 0.0000 -0.0000 -1.0000
vn 0.0000 -0.0000 -1.0000
vn 0.0000 -0.0000 -1.0000
vn 0.0000 -0.0000 -1.0000
vn 0.0000 -0.0000 -1.0000
vn 0.0000 -0.0000 -1.0000
vn -1.0000 -0.0000 -0.0000
vn -1.0000 -0.0000 -0.0000
vn -1.0000 -0.0000 -0.0000
vn -1.0000 -0.0000 -0.0000
vn -1.0000 -0.0000 -0.0000
vn -1.0000 -0.0000 -0.0000
# 348 vertex normals

vt 0.6375 0.4000 0.0000
vt 0.8625 0.4000 0.0000
vt 0.6375 0.4563 0.0000
vt 0.8625 0.4563 0.0000
vt 0.6375 0.5125 0.0000
vt 0.8625 0.5125 0.0000
vt 0.6375 0.5688 0.0000
vt 0.8625 0.5688 0.0000
vt 0.6375 0.6250 0.0000
vt 0.8625 0.6250 0.0000
vt 0.6375 0.4000 0.0000
vt 0.7500 0.4000 0.0000
vt 0.8625 0.4000 0.0000
vt 0.6375 0.4563 0.0000
vt 0.7500 0.4563 0.0000
vt 0.8625 0.4563 0.0000
vt 0.6375 0.5125 0.0000
vt 0.7500 0.5125 0.0000
vt 0.8625 0.5125 0.0000
vt 0.6375 0.5688 0.0000
vt 0.7500 0.5688 0.0000
vt 0.8625 0.5688 0.0000
vt 0.6375 0.6250 0.0000
vt 0.7500 0.6250 0.0000
vt 0.8625 0.6250 0.0000
vt 0.6375 0.4000 0.0000
vt 0.7500 0.4000 0.0000
vt 0.8625 0.4000 0.0000
vt 0.6375 0.8500 0.0000
vt 0.7500 0.8500 0.0000
vt 0.8625 0.8500 0.0000
vt 0.8625 0.4000 0.0000
vt 0.8625 0.8500 0.0000
vt 0.7500 0.8500 0.0000
vt 0.7500 0.4000 0.0000
vt 0.6375 0.8500 0.0000
vt 0.6375 0.4000 0.0000
vt 0.6375 0.4000 0.0000
vt 0.7500 0.4000 0.0000
vt 0.7500 0.4563 0.0000
vt 0.6375 0.4563 0.0000
vt 0.8625 0.4000 0.0000
vt 0.8625 0.4563 0.0000
vt 0.7500 0.5125 0.0000
vt 0.6375 0.5125 0.0000
vt 0.8625 0.5125 0.0000
vt 0.7500 0.5688 0.0000
vt 0.6375 0.5688 0.0000
vt 0.8625 0.5688 0.0000
vt 0.7500 0.6250 0.0000
vt 0.6375 0.6250 0.0000
vt 0.8625 0.6250 0.0000
vt 0.6375 0.4000 0.0000
vt 0.8625 0.4000 0.0000
vt 0.8625 0.4563 0.0000
vt 0.6375 0.4563 0.0000
vt 0.8625 0.5125 0.0000
vt 0.6375 0.5125 0.0000
vt 0.8625 0.5688 0.0000
vt 0.6375 0.5688 0.0000
vt 0.8625 0.6250 0.0000
vt 0.6375 0.6250 0.0000
vt 0.6375 0.0828 0.0000
vt 0.6375 0.1672 0.0000
vt 0.8625 0.1672 0.0000
vt 0.8625 0.0828 0.0000
vt 0.6375 0.0828 0.0000
vt 0.8625 0.0828 0.0000
vt 0.8625 0.1672 0.0000
vt 0.6375 0.1672 0.0000
# 70 texture coords

g Bank_3_105
usemtl Material__2
f 5/30/1 2/27/2 1/28/3 
f 1/28/4 4/31/5 5/30/6 
f 6/29/7 3/26/8 2/27/9 
f 2/27/10 5/30/11 6/29/12 
f 8/15/13 7/14/14 1/11/15 
f 1/11/16 2/12/17 8/15/18 
f 9/16/19 8/15/20 2/12/21 
f 2/12/22 3/13/23 9/16/24 
f 14/18/25 13/17/26 7/14/27 
f 7/14/28 8/15/29 14/18/30 
f 15/19/31 14/18/32 8/15/33 
f 8/15/34 9/16/35 15/19/36 
f 20/21/37 19/20/38 13/17/39 
f 13/17/40 14/18/41 20/21/42 
f 21/22/43 20/21/44 14/18/45 
f 14/18/46 15/19/47 21/22/48 
f 25/24/49 43/23/50 19/20/51 
f 19/20/52 20/21/53 25/24/54 
f 42/25/55 25/24/56 20/21/57 
f 20/21/58 21/22/59 42/25/60 
f 10/4/61 9/3/62 3/1/63 
f 3/1/64 6/2/65 10/4/66 
f 16/6/67 15/5/68 9/3/69 
f 9/3/70 10/4/71 16/6/72 
f 22/8/73 21/7/74 15/5/75 
f 15/5/76 16/6/77 22/8/78 
f 54/10/79 42/9/80 21/7/81 
f 21/7/82 22/8/83 54/10/84 
f 11/15/85 10/14/86 6/11/87 
f 6/11/88 5/12/89 11/15/90 
f 12/16/91 11/15/92 5/12/93 
f 5/12/94 4/13/95 12/16/96 
f 17/18/97 16/17/98 10/14/99 
f 10/14/100 11/15/101 17/18/102 
f 18/19/103 17/18/104 11/15/105 
f 11/15/106 12/16/107 18/19/108 
f 23/21/109 22/20/110 16/17/111 
f 16/17/112 17/18/113 23/21/114 
f 24/22/115 23/21/116 17/18/117 
f 17/18/118 18/19/119 24/22/120 
f 26/24/121 54/23/122 22/20/123 
f 22/20/124 23/21/125 26/24/126 
f 47/25/127 26/24/128 23/21/129 
f 23/21/130 24/22/131 47/25/132 
f 7/4/133 12/3/134 4/1/135 
f 4/1/136 1/2/137 7/4/138 
f 13/6/139 18/5/140 12/3/141 
f 12/3/142 7/4/143 13/6/144 
f 19/8/145 24/7/146 18/5/147 
f 18/5/148 13/6/149 19/8/150 
f 43/10/151 47/9/152 24/7/153 
f 24/7/154 19/8/155 43/10/156 
f 29/34/157 30/35/158 27/32/159 
f 27/32/160 28/33/161 29/34/162 
f 31/36/163 32/37/164 30/35/165 
f 30/35/166 29/34/167 31/36/168 
f 33/40/169 34/41/170 27/38/171 
f 27/38/172 30/39/173 33/40/174 
f 35/43/175 33/40/176 30/39/177 
f 30/39/178 32/42/179 35/43/180 
f 36/44/181 37/45/182 34/41/183 
f 34/41/184 33/40/185 36/44/186 
f 38/46/187 36/44/188 33/40/189 
f 33/40/190 35/43/191 38/46/192 
f 39/47/193 40/48/194 37/45/195 
f 37/45/196 36/44/197 39/47/198 
f 41/49/199 39/47/200 36/44/201 
f 36/44/202 38/46/203 41/49/204 
f 25/50/205 42/51/206 40/48/207 
f 40/48/208 39/47/209 25/50/210 
f 43/52/211 25/50/212 39/47/213 
f 39/47/214 41/49/215 43/52/216 
f 44/55/217 35/56/218 32/53/219 
f 32/53/220 31/54/221 44/55/222 
f 45/57/223 38/58/224 35/56/225 
f 35/56/226 44/55/227 45/57/228 
f 46/59/229 41/60/230 38/58/231 
f 38/58/232 45/57/233 46/59/234 
f 47/61/235 43/62/236 41/60/237 
f 41/60/238 46/59/239 47/61/240 
f 48/40/241 44/41/242 31/38/243 
f 31/38/244 29/39/245 48/40/246 
f 49/43/247 48/40/248 29/39/249 
f 29/39/250 28/42/251 49/43/252 
f 50/44/253 45/45/254 44/41/255 
f 44/41/256 48/40/257 50/44/258 
f 51/46/259 50/44/260 48/40/261 
f 48/40/262 49/43/263 51/46/264 
f 52/47/265 46/48/266 45/45/267 
f 45/45/268 50/44/269 52/47/270 
f 53/49/271 52/47/272 50/44/273 
f 50/44/274 51/46/275 53/49/276 
f 26/50/277 47/51/278 46/48/279 
f 46/48/280 52/47/281 26/50/282 
f 54/52/283 26/50/284 52/47/285 
f 52/47/286 53/49/287 54/52/288 
f 34/55/289 49/56/290 28/53/291 
f 28/53/292 27/54/293 34/55/294 
f 37/57/295 51/58/296 49/56/297 
f 49/56/298 34/55/299 37/57/300 
f 40/59/301 53/60/302 51/58/303 
f 51/58/304 37/57/305 40/59/306 
f 42/61/307 54/62/308 53/60/309 
f 53/60/310 40/59/311 42/61/312 
f 55/63/313 57/64/314 58/65/315 
f 58/65/316 56/66/317 55/63/318 
f 59/67/319 60/68/320 62/69/321 
f 62/69/322 61/70/323 59/67/324 
f 55/63/325 56/66/326 60/68/327 
f 60/68/328 59/67/329 55/63/330 
f 56/66/331 58/65/332 62/69/333 
f 62/69/334 60/68/335 56/66/336 
f 58/65/337 57/64/338 61/70/339 
f 61/70/340 62/69/341 58/65/342 
f 57/64/343 55/63/344 59/67/345 
f 59/67/346 61/70/347 57/64/348 
# 116 faces

