# 3ds Max Wavefront OBJ Exporter v0.97b - (c)2007 guruware
# File Created: 04.03.2017 12:33:46

mtllib Bank-4-150_MSH.mtl

#
# object Bank_4_150
#

v  0.2500 0.0156 -0.0000
v  0.0000 0.0156 0.0000
v  -0.2500 0.0156 0.0000
v  0.2500 -0.0156 -0.0000
v  -0.0000 -0.0156 -0.0000
v  -0.2500 -0.0156 0.0000
v  0.1556 0.0156 0.5715
v  -0.0811 0.0156 0.4911
v  -0.3178 0.0156 0.4108
v  -0.3178 -0.0156 0.4108
v  -0.0811 -0.0156 0.4911
v  0.1556 -0.0156 0.5715
v  -0.1174 0.0156 1.0823
v  -0.3157 0.0156 0.9301
v  -0.5141 0.0156 0.7779
v  -0.5141 -0.0156 0.7779
v  -0.3157 -0.0156 0.9301
v  -0.1174 -0.0156 1.0823
v  -0.5401 0.0156 1.4783
v  -0.6790 0.0156 1.2704
v  -0.8179 0.0156 1.0625
v  -0.8179 -0.0156 1.0625
v  -0.6790 -0.0156 1.2704
v  -0.5401 -0.0156 1.4783
v  -1.1324 0.0156 1.4758
v  -1.1324 -0.0156 1.4758
v  -2.5149 0.0156 2.9517
v  -2.5149 -0.0156 2.9517
v  -2.2649 -0.0156 2.9517
v  -2.2649 0.0156 2.9517
v  -2.0149 -0.0156 2.9517
v  -2.0149 0.0156 2.9517
v  -2.1838 0.0156 2.4605
v  -2.4205 0.0156 2.3802
v  -1.9471 0.0156 2.5409
v  -1.9491 0.0156 2.0215
v  -2.1475 0.0156 1.8693
v  -1.7508 0.0156 2.1737
v  -1.5858 0.0156 1.6813
v  -1.7247 0.0156 1.4734
v  -1.4470 0.0156 1.8891
v  -1.1971 0.0156 1.2343
v  -1.0677 0.0156 1.7173
v  -1.9471 -0.0156 2.5409
v  -1.7508 -0.0156 2.1737
v  -1.4470 -0.0156 1.8891
v  -1.0677 -0.0156 1.7173
v  -2.1838 -0.0156 2.4605
v  -2.4205 -0.0156 2.3802
v  -1.9491 -0.0156 2.0215
v  -2.1475 -0.0156 1.8693
v  -1.5858 -0.0156 1.6813
v  -1.7247 -0.0156 1.4734
v  -1.1971 -0.0156 1.2343
v  0.2500 -0.0156 -0.5938
v  -0.2500 -0.0156 -0.5937
v  0.2500 -0.0156 -0.4063
v  -0.2500 -0.0156 -0.4062
v  0.2500 0.0469 -0.5938
v  -0.2500 0.0469 -0.5937
v  0.2500 0.0469 -0.4063
v  -0.2500 0.0469 -0.4062
v  0.2500 0.0156 -0.0000
v  0.2500 0.0156 -0.0000
v  0.0000 0.0156 0.0000
v  -0.2500 0.0156 0.0000
v  -0.2500 0.0156 0.0000
v  0.2500 -0.0156 -0.0000
v  0.2500 -0.0156 -0.0000
v  -0.0000 -0.0156 -0.0000
v  -0.2500 -0.0156 0.0000
v  -0.2500 -0.0156 0.0000
v  0.1556 0.0156 0.5715
v  -0.3178 0.0156 0.4108
v  -0.3178 -0.0156 0.4108
v  0.1556 -0.0156 0.5715
v  -0.1174 0.0156 1.0823
v  -0.5141 0.0156 0.7779
v  -0.5141 -0.0156 0.7779
v  -0.1174 -0.0156 1.0823
v  -0.5401 0.0156 1.4783
v  -0.8179 0.0156 1.0625
v  -0.8179 -0.0156 1.0625
v  -0.5401 -0.0156 1.4783
v  -2.5149 0.0156 2.9517
v  -2.5149 0.0156 2.9517
v  -2.5149 -0.0156 2.9517
v  -2.5149 -0.0156 2.9517
v  -2.2649 -0.0156 2.9517
v  -2.2649 0.0156 2.9517
v  -2.0149 -0.0156 2.9517
v  -2.0149 -0.0156 2.9517
v  -2.0149 0.0156 2.9517
v  -2.0149 0.0156 2.9517
v  -2.4205 0.0156 2.3802
v  -1.9471 0.0156 2.5409
v  -2.1475 0.0156 1.8693
v  -1.7508 0.0156 2.1737
v  -1.7247 0.0156 1.4734
v  -1.4470 0.0156 1.8891
v  -1.1971 0.0156 1.2343
v  -1.1971 0.0156 1.2343
v  -1.0677 0.0156 1.7173
v  -1.0677 0.0156 1.7173
v  -1.9471 -0.0156 2.5409
v  -1.7508 -0.0156 2.1737
v  -1.4470 -0.0156 1.8891
v  -1.0677 -0.0156 1.7173
v  -1.0677 -0.0156 1.7173
v  -2.4205 -0.0156 2.3802
v  -2.1475 -0.0156 1.8693
v  -1.7247 -0.0156 1.4734
v  -1.1971 -0.0156 1.2343
v  -1.1971 -0.0156 1.2343
v  0.2500 -0.0156 -0.5938
v  0.2500 -0.0156 -0.5938
v  -0.2500 -0.0156 -0.5937
v  -0.2500 -0.0156 -0.5937
v  0.2500 -0.0156 -0.4063
v  0.2500 -0.0156 -0.4063
v  -0.2500 -0.0156 -0.4062
v  -0.2500 -0.0156 -0.4062
v  0.2500 0.0469 -0.5938
v  0.2500 0.0469 -0.5938
v  -0.2500 0.0469 -0.5937
v  -0.2500 0.0469 -0.5937
v  0.2500 0.0469 -0.4063
v  0.2500 0.0469 -0.4063
v  -0.2500 0.0469 -0.4062
v  -0.2500 0.0469 -0.4062
# 130 vertices

vn -0.0000 0.0000 -1.0000
vn -0.0000 0.0000 -1.0000
vn -0.0000 0.0000 -1.0000
vn -0.0000 0.0000 -1.0000
vn -0.0000 0.0000 -1.0000
vn -0.0000 0.0000 -1.0000
vn -0.0000 0.0000 -1.0000
vn -0.0000 0.0000 -1.0000
vn -0.0000 0.0000 -1.0000
vn -0.0000 0.0000 -1.0000
vn -0.0000 0.0000 -1.0000
vn -0.0000 0.0000 -1.0000
vn -0.0000 1.0000 0.0000
vn -0.0000 1.0000 0.0000
vn -0.0000 1.0000 0.0000
vn -0.0000 1.0000 0.0000
vn -0.0000 1.0000 0.0000
vn -0.0000 1.0000 0.0000
vn -0.0000 1.0000 0.0000
vn -0.0000 1.0000 0.0000
vn -0.0000 1.0000 0.0000
vn -0.0000 1.0000 0.0000
vn 0.0000 1.0000 0.0000
vn -0.0000 1.0000 0.0000
vn -0.0000 1.0000 0.0000
vn -0.0000 1.0000 0.0000
vn -0.0000 1.0000 0.0000
vn -0.0000 1.0000 0.0000
vn -0.0000 1.0000 0.0000
vn -0.0000 1.0000 0.0000
vn 0.0000 1.0000 0.0000
vn -0.0000 1.0000 0.0000
vn -0.0000 1.0000 0.0000
vn -0.0000 1.0000 0.0000
vn -0.0000 1.0000 0.0000
vn 0.0000 1.0000 0.0000
vn 0.0000 1.0000 0.0000
vn 0.0000 1.0000 0.0000
vn -0.0000 1.0000 0.0000
vn -0.0000 1.0000 0.0000
vn -0.0000 1.0000 0.0000
vn 0.0000 1.0000 0.0000
vn -0.0000 1.0000 0.0000
vn 0.0000 1.0000 0.0000
vn -0.0000 1.0000 0.0000
vn -0.0000 1.0000 0.0000
vn 0.0000 1.0000 0.0000
vn -0.0000 1.0000 0.0000
vn -0.0000 1.0000 0.0000
vn 0.0000 1.0000 0.0000
vn 0.0000 1.0000 0.0000
vn 0.0000 1.0000 0.0000
vn 0.0000 1.0000 0.0000
vn -0.0000 1.0000 0.0000
vn -0.0000 1.0000 0.0000
vn -0.0000 1.0000 0.0000
vn 0.0000 1.0000 0.0000
vn 0.0000 1.0000 0.0000
vn -0.0000 1.0000 0.0000
vn -0.0000 1.0000 0.0000
vn -0.9469 0.0000 -0.3214
vn -0.9469 0.0000 -0.3214
vn -0.9866 0.0000 -0.1629
vn -0.9866 0.0000 -0.1629
vn -0.9866 0.0000 -0.1629
vn -0.9469 0.0000 -0.3214
vn -0.7934 0.0000 -0.6088
vn -0.7934 0.0000 -0.6088
vn -0.9469 0.0000 -0.3214
vn -0.9469 0.0000 -0.3214
vn -0.9469 0.0000 -0.3214
vn -0.7934 0.0000 -0.6088
vn -0.5556 0.0000 -0.8315
vn -0.5556 0.0000 -0.8315
vn -0.7934 0.0000 -0.6088
vn -0.7934 0.0000 -0.6088
vn -0.7934 0.0000 -0.6088
vn -0.5556 0.0000 -0.8315
vn -0.4127 0.0000 -0.9109
vn -0.4127 0.0000 -0.9109
vn -0.5556 0.0000 -0.8315
vn -0.5556 0.0000 -0.8315
vn -0.5556 0.0000 -0.8315
vn -0.4127 0.0000 -0.9109
vn -0.0000 -1.0000 -0.0000
vn 0.0000 -1.0000 -0.0000
vn 0.0000 -1.0000 -0.0000
vn 0.0000 -1.0000 -0.0000
vn 0.0000 -1.0000 -0.0000
vn -0.0000 -1.0000 -0.0000
vn 0.0000 -1.0000 -0.0000
vn -0.0000 -1.0000 -0.0000
vn 0.0000 -1.0000 -0.0000
vn 0.0000 -1.0000 -0.0000
vn -0.0000 -1.0000 -0.0000
vn 0.0000 -1.0000 -0.0000
vn -0.0000 -1.0000 -0.0000
vn 0.0000 -1.0000 -0.0000
vn 0.0000 -1.0000 -0.0000
vn 0.0000 -1.0000 -0.0000
vn -0.0000 -1.0000 -0.0000
vn -0.0000 -1.0000 -0.0000
vn -0.0000 -1.0000 -0.0000
vn -0.0000 -1.0000 -0.0000
vn -0.0000 -1.0000 -0.0000
vn -0.0000 -1.0000 -0.0000
vn 0.0000 -1.0000 -0.0000
vn -0.0000 -1.0000 -0.0000
vn 0.0000 -1.0000 -0.0000
vn 0.0000 -1.0000 -0.0000
vn 0.0000 -1.0000 -0.0000
vn 0.0000 -1.0000 -0.0000
vn -0.0000 -1.0000 -0.0000
vn 0.0000 -1.0000 -0.0000
vn 0.0000 -1.0000 -0.0000
vn 0.0000 -1.0000 -0.0000
vn -0.0000 -1.0000 -0.0000
vn -0.0000 -1.0000 -0.0000
vn -0.0000 -1.0000 -0.0000
vn 0.0000 -1.0000 -0.0000
vn 0.0000 -1.0000 -0.0000
vn 0.0000 -1.0000 -0.0000
vn 0.0000 -1.0000 -0.0000
vn 0.0000 -1.0000 -0.0000
vn 0.0000 -1.0000 -0.0000
vn 0.0000 -1.0000 -0.0000
vn 0.0000 -1.0000 -0.0000
vn 0.0000 -1.0000 -0.0000
vn 0.0000 -1.0000 -0.0000
vn 0.0000 -1.0000 -0.0000
vn 0.0000 -1.0000 -0.0000
vn 0.0000 -1.0000 -0.0000
vn 0.9469 -0.0000 0.3214
vn 0.9469 0.0000 0.3214
vn 0.9866 -0.0000 0.1629
vn 0.9866 -0.0000 0.1629
vn 0.9866 -0.0000 0.1629
vn 0.9469 -0.0000 0.3214
vn 0.7934 0.0000 0.6088
vn 0.7934 0.0000 0.6088
vn 0.9469 0.0000 0.3214
vn 0.9469 0.0000 0.3214
vn 0.9469 -0.0000 0.3214
vn 0.7934 0.0000 0.6088
vn 0.5556 0.0000 0.8315
vn 0.5556 0.0000 0.8315
vn 0.7934 0.0000 0.6088
vn 0.7934 0.0000 0.6088
vn 0.7934 0.0000 0.6088
vn 0.5556 0.0000 0.8315
vn 0.4127 0.0000 0.9109
vn 0.4127 0.0000 0.9109
vn 0.5556 0.0000 0.8315
vn 0.5556 0.0000 0.8315
vn 0.5556 0.0000 0.8315
vn 0.4127 0.0000 0.9109
vn 0.0000 0.0000 1.0000
vn 0.0000 0.0000 1.0000
vn 0.0000 0.0000 1.0000
vn 0.0000 0.0000 1.0000
vn 0.0000 0.0000 1.0000
vn 0.0000 0.0000 1.0000
vn 0.0000 0.0000 1.0000
vn 0.0000 0.0000 1.0000
vn 0.0000 0.0000 1.0000
vn 0.0000 0.0000 1.0000
vn 0.0000 0.0000 1.0000
vn 0.0000 0.0000 1.0000
vn -0.0000 1.0000 0.0000
vn 0.0000 1.0000 0.0000
vn -0.0000 1.0000 0.0000
vn -0.0000 1.0000 0.0000
vn -0.0000 1.0000 0.0000
vn -0.0000 1.0000 0.0000
vn -0.0000 1.0000 0.0000
vn -0.0000 1.0000 0.0000
vn -0.0000 1.0000 0.0000
vn -0.0000 1.0000 0.0000
vn 0.0000 1.0000 0.0000
vn -0.0000 1.0000 0.0000
vn -0.0000 1.0000 0.0000
vn 0.0000 1.0000 0.0000
vn 0.0000 1.0000 0.0000
vn 0.0000 1.0000 0.0000
vn -0.0000 1.0000 0.0000
vn -0.0000 1.0000 0.0000
vn -0.0000 1.0000 0.0000
vn -0.0000 1.0000 0.0000
vn -0.0000 1.0000 0.0000
vn -0.0000 1.0000 0.0000
vn -0.0000 1.0000 0.0000
vn -0.0000 1.0000 0.0000
vn -0.0000 1.0000 0.0000
vn -0.0000 1.0000 0.0000
vn 0.0000 1.0000 0.0000
vn 0.0000 1.0000 0.0000
vn -0.0000 1.0000 0.0000
vn -0.0000 1.0000 0.0000
vn -0.0000 1.0000 0.0000
vn -0.0000 1.0000 0.0000
vn -0.0000 1.0000 0.0000
vn -0.0000 1.0000 0.0000
vn -0.0000 1.0000 0.0000
vn -0.0000 1.0000 0.0000
vn -0.0000 1.0000 0.0000
vn -0.0000 1.0000 0.0000
vn -0.0000 1.0000 0.0000
vn -0.0000 1.0000 0.0000
vn -0.0000 1.0000 0.0000
vn -0.0000 1.0000 0.0000
vn 0.0000 1.0000 0.0000
vn -0.0000 1.0000 0.0000
vn -0.0000 1.0000 0.0000
vn -0.0000 1.0000 0.0000
vn -0.0000 1.0000 0.0000
vn 0.0000 1.0000 0.0000
vn 0.9469 0.0000 0.3214
vn 0.9469 0.0000 0.3214
vn 0.9866 0.0000 0.1629
vn 0.9866 0.0000 0.1629
vn 0.9866 0.0000 0.1629
vn 0.9469 0.0000 0.3214
vn 0.7934 0.0000 0.6088
vn 0.7934 0.0000 0.6088
vn 0.9469 0.0000 0.3214
vn 0.9469 0.0000 0.3214
vn 0.9469 0.0000 0.3214
vn 0.7934 0.0000 0.6088
vn 0.5556 0.0000 0.8315
vn 0.5556 0.0000 0.8315
vn 0.7934 0.0000 0.6088
vn 0.7934 0.0000 0.6088
vn 0.7934 0.0000 0.6088
vn 0.5556 0.0000 0.8315
vn 0.4127 0.0000 0.9109
vn 0.4127 0.0000 0.9109
vn 0.5556 0.0000 0.8315
vn 0.5556 0.0000 0.8315
vn 0.5556 0.0000 0.8315
vn 0.4127 0.0000 0.9109
vn 0.0000 -1.0000 -0.0000
vn 0.0000 -1.0000 -0.0000
vn 0.0000 -1.0000 -0.0000
vn 0.0000 -1.0000 -0.0000
vn 0.0000 -1.0000 -0.0000
vn 0.0000 -1.0000 -0.0000
vn -0.0000 -1.0000 -0.0000
vn 0.0000 -1.0000 -0.0000
vn 0.0000 -1.0000 -0.0000
vn 0.0000 -1.0000 -0.0000
vn -0.0000 -1.0000 -0.0000
vn -0.0000 -1.0000 -0.0000
vn 0.0000 -1.0000 -0.0000
vn 0.0000 -1.0000 -0.0000
vn 0.0000 -1.0000 -0.0000
vn 0.0000 -1.0000 -0.0000
vn 0.0000 -1.0000 -0.0000
vn 0.0000 -1.0000 -0.0000
vn 0.0000 -1.0000 -0.0000
vn 0.0000 -1.0000 -0.0000
vn 0.0000 -1.0000 -0.0000
vn 0.0000 -1.0000 -0.0000
vn -0.0000 -1.0000 -0.0000
vn 0.0000 -1.0000 -0.0000
vn 0.0000 -1.0000 -0.0000
vn 0.0000 -1.0000 -0.0000
vn 0.0000 -1.0000 -0.0000
vn 0.0000 -1.0000 -0.0000
vn 0.0000 -1.0000 -0.0000
vn 0.0000 -1.0000 -0.0000
vn 0.0000 -1.0000 -0.0000
vn 0.0000 -1.0000 -0.0000
vn 0.0000 -1.0000 -0.0000
vn 0.0000 -1.0000 -0.0000
vn 0.0000 -1.0000 -0.0000
vn 0.0000 -1.0000 -0.0000
vn 0.0000 -1.0000 -0.0000
vn 0.0000 -1.0000 -0.0000
vn 0.0000 -1.0000 -0.0000
vn 0.0000 -1.0000 -0.0000
vn 0.0000 -1.0000 -0.0000
vn 0.0000 -1.0000 -0.0000
vn 0.0000 -1.0000 -0.0000
vn 0.0000 -1.0000 -0.0000
vn 0.0000 -1.0000 -0.0000
vn 0.0000 -1.0000 -0.0000
vn 0.0000 -1.0000 -0.0000
vn 0.0000 -1.0000 -0.0000
vn -0.9469 0.0000 -0.3214
vn -0.9469 0.0000 -0.3214
vn -0.9866 0.0000 -0.1629
vn -0.9866 0.0000 -0.1629
vn -0.9866 0.0000 -0.1629
vn -0.9469 0.0000 -0.3214
vn -0.7934 0.0000 -0.6088
vn -0.7934 0.0000 -0.6088
vn -0.9469 0.0000 -0.3214
vn -0.9469 0.0000 -0.3214
vn -0.9469 0.0000 -0.3214
vn -0.7934 0.0000 -0.6088
vn -0.5556 0.0000 -0.8315
vn -0.5556 0.0000 -0.8315
vn -0.7934 0.0000 -0.6088
vn -0.7934 0.0000 -0.6088
vn -0.7934 0.0000 -0.6088
vn -0.5556 0.0000 -0.8315
vn -0.4127 0.0000 -0.9109
vn -0.4127 0.0000 -0.9109
vn -0.5556 0.0000 -0.8315
vn -0.5556 0.0000 -0.8315
vn -0.5556 0.0000 -0.8315
vn -0.4127 0.0000 -0.9109
vn -0.0000 -1.0000 -0.0000
vn -0.0000 -1.0000 -0.0000
vn -0.0000 -1.0000 -0.0000
vn -0.0000 -1.0000 -0.0000
vn -0.0000 -1.0000 -0.0000
vn -0.0000 -1.0000 -0.0000
vn 0.0000 1.0000 0.0000
vn 0.0000 1.0000 0.0000
vn 0.0000 1.0000 0.0000
vn 0.0000 1.0000 0.0000
vn 0.0000 1.0000 0.0000
vn 0.0000 1.0000 0.0000
vn -0.0000 0.0000 -1.0000
vn -0.0000 0.0000 -1.0000
vn -0.0000 0.0000 -1.0000
vn -0.0000 0.0000 -1.0000
vn -0.0000 0.0000 -1.0000
vn -0.0000 0.0000 -1.0000
vn -1.0000 -0.0000 0.0000
vn -1.0000 -0.0000 0.0000
vn -1.0000 -0.0000 0.0000
vn -1.0000 -0.0000 0.0000
vn -1.0000 0.0000 0.0000
vn -1.0000 -0.0000 0.0000
vn 0.0000 -0.0000 1.0000
vn 0.0000 0.0000 1.0000
vn 0.0000 -0.0000 1.0000
vn 0.0000 -0.0000 1.0000
vn 0.0000 -0.0000 1.0000
vn 0.0000 -0.0000 1.0000
vn 1.0000 0.0000 -0.0000
vn 1.0000 0.0000 -0.0000
vn 1.0000 0.0000 -0.0000
vn 1.0000 0.0000 -0.0000
vn 1.0000 0.0000 -0.0000
vn 1.0000 0.0000 -0.0000
# 348 vertex normals

vt 0.0000 0.0000 0.0000
vt 1.0000 0.0000 0.0000
vt 0.0000 0.1250 0.0000
vt 1.0000 0.1250 0.0000
vt 0.0000 0.2500 0.0000
vt 1.0000 0.2500 0.0000
vt 0.0000 0.3750 0.0000
vt 1.0000 0.3750 0.0000
vt 0.0000 0.5000 0.0000
vt 1.0000 0.5000 0.0000
vt 0.0000 0.0000 0.0000
vt 0.5000 0.0000 0.0000
vt 1.0000 0.0000 0.0000
vt 0.0000 0.1250 0.0000
vt 0.5000 0.1250 0.0000
vt 1.0000 0.1250 0.0000
vt 0.0000 0.2500 0.0000
vt 0.5000 0.2500 0.0000
vt 1.0000 0.2500 0.0000
vt 0.0000 0.3750 0.0000
vt 0.5000 0.3750 0.0000
vt 1.0000 0.3750 0.0000
vt 0.0000 0.5000 0.0000
vt 0.5000 0.5000 0.0000
vt 1.0000 0.5000 0.0000
vt 0.0000 0.0000 0.0000
vt 0.5000 0.0000 0.0000
vt 1.0000 0.0000 0.0000
vt 0.0000 1.0000 0.0000
vt 0.5000 1.0000 0.0000
vt 1.0000 1.0000 0.0000
vt 1.0000 0.0000 0.0000
vt 1.0000 1.0000 0.0000
vt 0.5000 1.0000 0.0000
vt 0.5000 0.0000 0.0000
vt 0.0000 1.0000 0.0000
vt 0.0000 0.0000 0.0000
vt 0.0000 0.0000 0.0000
vt 0.5000 0.0000 0.0000
vt 0.5000 0.1250 0.0000
vt 0.0000 0.1250 0.0000
vt 1.0000 0.0000 0.0000
vt 1.0000 0.1250 0.0000
vt 0.5000 0.2500 0.0000
vt 0.0000 0.2500 0.0000
vt 1.0000 0.2500 0.0000
vt 0.5000 0.3750 0.0000
vt 0.0000 0.3750 0.0000
vt 1.0000 0.3750 0.0000
vt 0.5000 0.5000 0.0000
vt 0.0000 0.5000 0.0000
vt 1.0000 0.5000 0.0000
vt 0.0000 0.0000 0.0000
vt 1.0000 0.0000 0.0000
vt 1.0000 0.1250 0.0000
vt 0.0000 0.1250 0.0000
vt 1.0000 0.2500 0.0000
vt 0.0000 0.2500 0.0000
vt 1.0000 0.3750 0.0000
vt 0.0000 0.3750 0.0000
vt 1.0000 0.5000 0.0000
vt 0.0000 0.5000 0.0000
vt 1.0000 0.0000 0.0000
vt 0.0000 0.0000 0.0000
vt 1.0000 1.0000 0.0000
vt 0.0000 1.0000 0.0000
vt 0.0000 0.0000 0.0000
vt 1.0000 0.0000 0.0000
vt 0.0000 1.0000 0.0000
vt 1.0000 1.0000 0.0000
vt 0.0000 0.0000 0.0000
vt 1.0000 0.0000 0.0000
vt 0.0000 1.0000 0.0000
vt 1.0000 1.0000 0.0000
vt 0.0000 0.0000 0.0000
vt 1.0000 0.0000 0.0000
vt 0.0000 1.0000 0.0000
vt 1.0000 1.0000 0.0000
vt 0.0000 0.0000 0.0000
vt 1.0000 0.0000 0.0000
vt 0.0000 1.0000 0.0000
vt 1.0000 1.0000 0.0000
vt 0.0000 0.0000 0.0000
vt 1.0000 0.0000 0.0000
vt 0.0000 1.0000 0.0000
vt 1.0000 1.0000 0.0000
# 86 texture coords

g Bank_4_150
usemtl wire_135006006
f 70/30/1 2/27/2 64/28/3 
f 64/28/4 69/31/5 70/30/6 
f 6/29/7 3/26/8 2/27/9 
f 2/27/10 70/30/11 6/29/12 
f 8/15/13 7/14/14 1/11/15 
f 1/11/16 65/12/17 8/15/18 
f 74/16/19 8/15/20 65/12/21 
f 65/12/22 67/13/23 74/16/24 
f 14/18/25 13/17/26 7/14/27 
f 7/14/28 8/15/29 14/18/30 
f 78/19/31 14/18/32 8/15/33 
f 8/15/34 74/16/35 78/19/36 
f 20/21/37 19/20/38 13/17/39 
f 13/17/40 14/18/41 20/21/42 
f 82/22/43 20/21/44 14/18/45 
f 14/18/46 78/19/47 82/22/48 
f 25/24/49 43/23/50 19/20/51 
f 19/20/52 20/21/53 25/24/54 
f 102/25/55 25/24/56 20/21/57 
f 20/21/58 82/22/59 102/25/60 
f 75/4/61 9/3/62 66/1/63 
f 66/1/64 72/2/65 75/4/66 
f 79/6/67 15/5/68 9/3/69 
f 9/3/70 75/4/71 79/6/72 
f 83/8/73 21/7/74 15/5/75 
f 15/5/76 79/6/77 83/8/78 
f 114/10/79 42/9/80 21/7/81 
f 21/7/82 83/8/83 114/10/84 
f 11/15/85 10/14/86 71/11/87 
f 71/11/88 5/12/89 11/15/90 
f 76/16/91 11/15/92 5/12/93 
f 5/12/94 68/13/95 76/16/96 
f 17/18/97 16/17/98 10/14/99 
f 10/14/100 11/15/101 17/18/102 
f 80/19/103 17/18/104 11/15/105 
f 11/15/106 76/16/107 80/19/108 
f 23/21/109 22/20/110 16/17/111 
f 16/17/112 17/18/113 23/21/114 
f 84/22/115 23/21/116 17/18/117 
f 17/18/118 80/19/119 84/22/120 
f 26/24/121 54/23/122 22/20/123 
f 22/20/124 23/21/125 26/24/126 
f 109/25/127 26/24/128 23/21/129 
f 23/21/130 84/22/131 109/25/132 
f 73/4/133 12/3/134 4/1/135 
f 4/1/136 63/2/137 73/4/138 
f 77/6/139 18/5/140 12/3/141 
f 12/3/142 73/4/143 77/6/144 
f 81/8/145 24/7/146 18/5/147 
f 18/5/148 77/6/149 81/8/150 
f 104/10/151 47/9/152 24/7/153 
f 24/7/154 81/8/155 104/10/156 
f 89/34/157 30/35/158 27/32/159 
f 27/32/160 88/33/161 89/34/162 
f 92/36/163 32/37/164 30/35/165 
f 30/35/166 89/34/167 92/36/168 
f 33/40/169 34/41/170 85/38/171 
f 85/38/172 90/39/173 33/40/174 
f 96/43/175 33/40/176 90/39/177 
f 90/39/178 94/42/179 96/43/180 
f 36/44/181 37/45/182 34/41/183 
f 34/41/184 33/40/185 36/44/186 
f 98/46/187 36/44/188 33/40/189 
f 33/40/190 96/43/191 98/46/192 
f 39/47/193 40/48/194 37/45/195 
f 37/45/196 36/44/197 39/47/198 
f 100/49/199 39/47/200 36/44/201 
f 36/44/202 98/46/203 100/49/204 
f 25/50/205 102/51/206 40/48/207 
f 40/48/208 39/47/209 25/50/210 
f 43/52/211 25/50/212 39/47/213 
f 39/47/214 100/49/215 43/52/216 
f 105/55/217 35/56/218 93/53/219 
f 93/53/220 91/54/221 105/55/222 
f 106/57/223 38/58/224 35/56/225 
f 35/56/226 105/55/227 106/57/228 
f 107/59/229 41/60/230 38/58/231 
f 38/58/232 106/57/233 107/59/234 
f 108/61/235 103/62/236 41/60/237 
f 41/60/238 107/59/239 108/61/240 
f 48/40/241 44/41/242 31/38/243 
f 31/38/244 29/39/245 48/40/246 
f 110/43/247 48/40/248 29/39/249 
f 29/39/250 87/42/251 110/43/252 
f 50/44/253 45/45/254 44/41/255 
f 44/41/256 48/40/257 50/44/258 
f 51/46/259 50/44/260 48/40/261 
f 48/40/262 110/43/263 51/46/264 
f 52/47/265 46/48/266 45/45/267 
f 45/45/268 50/44/269 52/47/270 
f 53/49/271 52/47/272 50/44/273 
f 50/44/274 51/46/275 53/49/276 
f 26/50/277 109/51/278 46/48/279 
f 46/48/280 52/47/281 26/50/282 
f 54/52/283 26/50/284 52/47/285 
f 52/47/286 53/49/287 54/52/288 
f 95/55/289 49/56/290 28/53/291 
f 28/53/292 86/54/293 95/55/294 
f 97/57/295 111/58/296 49/56/297 
f 49/56/298 95/55/299 97/57/300 
f 99/59/301 112/60/302 111/58/303 
f 111/58/304 97/57/305 99/59/306 
f 101/61/307 113/62/308 112/60/309 
f 112/60/310 99/59/311 101/61/312 
f 116/63/313 120/65/314 58/66/315 
f 58/66/316 56/64/317 116/63/318 
f 123/67/319 125/68/320 129/70/321 
f 129/70/322 127/69/323 123/67/324 
f 55/71/325 118/72/326 126/74/327 
f 126/74/328 59/73/329 55/71/330 
f 117/75/331 122/76/332 130/78/333 
f 130/78/334 60/77/335 117/75/336 
f 121/79/337 119/80/338 128/82/339 
f 128/82/340 62/81/341 121/79/342 
f 57/83/343 115/84/344 124/86/345 
f 124/86/346 61/85/347 57/83/348 
# 116 faces

