# 3ds Max Wavefront OBJ Exporter v0.97b - (c)2007 guruware
# File Created: 04.03.2017 12:33:47

mtllib Bank-1-180_MSH.mtl

#
# object Bank_1_180
#

v  0.2500 0.0156 -0.0000
v  0.0000 0.0156 0.0000
v  -0.2500 0.0156 0.0000
v  0.2500 -0.0156 -0.0000
v  -0.0000 -0.0156 -0.0000
v  -0.2500 -0.0156 0.0000
v  0.2067 0.0156 0.2175
v  -0.0242 0.0156 0.1218
v  -0.2552 0.0156 0.0261
v  -0.2552 -0.0156 0.0261
v  -0.0242 -0.0156 0.1218
v  0.2067 -0.0156 0.2175
v  0.0835 0.0156 0.4019
v  -0.0932 0.0156 0.2251
v  -0.2700 0.0156 0.0483
v  -0.2700 -0.0156 0.0483
v  -0.0932 -0.0156 0.2251
v  0.0835 -0.0156 0.4019
v  -0.1008 0.0156 0.5250
v  -0.1965 0.0156 0.2941
v  -0.2922 0.0156 0.0631
v  -0.2922 -0.0156 0.0631
v  -0.1965 -0.0156 0.2941
v  -0.1008 -0.0156 0.5250
v  -0.3183 0.0156 0.3183
v  -0.3183 -0.0156 0.0683
v  -0.3183 -0.0156 0.3183
v  -0.8866 0.0156 0.6366
v  -0.8866 -0.0156 0.6366
v  -0.6366 -0.0156 0.6366
v  -0.6366 0.0156 0.6366
v  -0.3866 -0.0156 0.6366
v  -0.3866 0.0156 0.6366
v  -0.6124 0.0156 0.5148
v  -0.8434 0.0156 0.4191
v  -0.3814 0.0156 0.6105
v  -0.5434 0.0156 0.4115
v  -0.7202 0.0156 0.2348
v  -0.3666 0.0156 0.5883
v  -0.4401 0.0156 0.3425
v  -0.5358 0.0156 0.1116
v  -0.3445 0.0156 0.5735
v  -0.3183 0.0156 0.0683
v  -0.3183 0.0156 0.5683
v  -0.3814 -0.0156 0.6105
v  -0.3666 -0.0156 0.5883
v  -0.3445 -0.0156 0.5735
v  -0.3183 -0.0156 0.5683
v  -0.6124 -0.0156 0.5148
v  -0.8434 -0.0156 0.4191
v  -0.5434 -0.0156 0.4115
v  -0.7202 -0.0156 0.2348
v  -0.4401 -0.0156 0.3425
v  -0.5358 -0.0156 0.1116
v  0.2500 -0.0156 -0.5938
v  -0.2500 -0.0156 -0.5937
v  0.2500 -0.0156 -0.4063
v  -0.2500 -0.0156 -0.4062
v  0.2500 0.0469 -0.5938
v  -0.2500 0.0469 -0.5937
v  0.2500 0.0469 -0.4063
v  -0.2500 0.0469 -0.4062
v  0.2500 0.0156 -0.0000
v  0.2500 0.0156 -0.0000
v  0.0000 0.0156 0.0000
v  -0.2500 0.0156 0.0000
v  -0.2500 0.0156 0.0000
v  0.2500 -0.0156 -0.0000
v  0.2500 -0.0156 -0.0000
v  -0.0000 -0.0156 -0.0000
v  -0.2500 -0.0156 0.0000
v  -0.2500 -0.0156 0.0000
v  0.2067 0.0156 0.2175
v  -0.2552 0.0156 0.0261
v  -0.2552 -0.0156 0.0261
v  0.2067 -0.0156 0.2175
v  0.0835 0.0156 0.4019
v  -0.2700 0.0156 0.0483
v  -0.2700 -0.0156 0.0483
v  0.0835 -0.0156 0.4019
v  -0.1008 0.0156 0.5250
v  -0.2922 0.0156 0.0631
v  -0.2922 -0.0156 0.0631
v  -0.1008 -0.0156 0.5250
v  -0.3183 -0.0156 0.0683
v  -0.3183 -0.0156 0.0683
v  -0.8866 0.0156 0.6366
v  -0.8866 0.0156 0.6366
v  -0.8866 -0.0156 0.6366
v  -0.8866 -0.0156 0.6366
v  -0.6366 -0.0156 0.6366
v  -0.6366 0.0156 0.6366
v  -0.3866 -0.0156 0.6366
v  -0.3866 -0.0156 0.6366
v  -0.3866 0.0156 0.6366
v  -0.3866 0.0156 0.6366
v  -0.8434 0.0156 0.4191
v  -0.3814 0.0156 0.6105
v  -0.7202 0.0156 0.2348
v  -0.3666 0.0156 0.5883
v  -0.5358 0.0156 0.1116
v  -0.3445 0.0156 0.5735
v  -0.3183 0.0156 0.0683
v  -0.3183 0.0156 0.0683
v  -0.3183 0.0156 0.5683
v  -0.3183 0.0156 0.5683
v  -0.3814 -0.0156 0.6105
v  -0.3666 -0.0156 0.5883
v  -0.3445 -0.0156 0.5735
v  -0.3183 -0.0156 0.5683
v  -0.3183 -0.0156 0.5683
v  -0.8434 -0.0156 0.4191
v  -0.7202 -0.0156 0.2348
v  -0.5358 -0.0156 0.1116
v  0.2500 -0.0156 -0.5938
v  0.2500 -0.0156 -0.5938
v  -0.2500 -0.0156 -0.5937
v  -0.2500 -0.0156 -0.5937
v  0.2500 -0.0156 -0.4063
v  0.2500 -0.0156 -0.4063
v  -0.2500 -0.0156 -0.4062
v  -0.2500 -0.0156 -0.4062
v  0.2500 0.0469 -0.5938
v  0.2500 0.0469 -0.5938
v  -0.2500 0.0469 -0.5937
v  -0.2500 0.0469 -0.5937
v  0.2500 0.0469 -0.4063
v  0.2500 0.0469 -0.4063
v  -0.2500 0.0469 -0.4062
v  -0.2500 0.0469 -0.4062
# 130 vertices

vn -0.0000 0.0000 -1.0000
vn -0.0000 0.0000 -1.0000
vn -0.0000 0.0000 -1.0000
vn -0.0000 0.0000 -1.0000
vn -0.0000 0.0000 -1.0000
vn -0.0000 0.0000 -1.0000
vn -0.0000 0.0000 -1.0000
vn -0.0000 0.0000 -1.0000
vn -0.0000 0.0000 -1.0000
vn -0.0000 0.0000 -1.0000
vn -0.0000 0.0000 -1.0000
vn -0.0000 0.0000 -1.0000
vn 0.0000 1.0000 0.0000
vn 0.0000 1.0000 0.0000
vn 0.0000 1.0000 0.0000
vn 0.0000 1.0000 0.0000
vn -0.0000 1.0000 0.0000
vn 0.0000 1.0000 0.0000
vn 0.0000 1.0000 0.0000
vn 0.0000 1.0000 0.0000
vn -0.0000 1.0000 0.0000
vn -0.0000 1.0000 0.0000
vn 0.0000 1.0000 0.0000
vn 0.0000 1.0000 0.0000
vn 0.0000 1.0000 0.0000
vn 0.0000 1.0000 0.0000
vn 0.0000 1.0000 0.0000
vn 0.0000 1.0000 0.0000
vn 0.0000 1.0000 0.0000
vn 0.0000 1.0000 0.0000
vn -0.0000 1.0000 0.0000
vn 0.0000 1.0000 0.0000
vn 0.0000 1.0000 0.0000
vn 0.0000 1.0000 0.0000
vn 0.0000 1.0000 0.0000
vn -0.0000 1.0000 0.0000
vn -0.0000 1.0000 0.0000
vn -0.0000 1.0000 0.0000
vn 0.0000 1.0000 0.0000
vn 0.0000 1.0000 0.0000
vn 0.0000 1.0000 0.0000
vn -0.0000 1.0000 0.0000
vn -0.0000 1.0000 0.0000
vn -0.0000 1.0000 0.0000
vn 0.0000 1.0000 0.0000
vn 0.0000 1.0000 0.0000
vn -0.0000 1.0000 0.0000
vn -0.0000 1.0000 0.0000
vn -0.0000 1.0000 0.0000
vn -0.0000 1.0000 0.0000
vn -0.0000 1.0000 0.0000
vn -0.0000 1.0000 0.0000
vn -0.0000 1.0000 0.0000
vn -0.0000 1.0000 0.0000
vn -0.0000 1.0000 0.0000
vn -0.0000 1.0000 0.0000
vn -0.0000 1.0000 0.0000
vn -0.0000 1.0000 0.0000
vn -0.0000 1.0000 0.0000
vn -0.0000 1.0000 0.0000
vn -0.9239 0.0000 -0.3827
vn -0.9239 0.0000 -0.3827
vn -0.9808 0.0000 -0.1951
vn -0.9808 0.0000 -0.1951
vn -0.9808 0.0000 -0.1951
vn -0.9239 0.0000 -0.3827
vn -0.7071 0.0000 -0.7071
vn -0.7071 0.0000 -0.7071
vn -0.9239 0.0000 -0.3827
vn -0.9239 0.0000 -0.3827
vn -0.9239 0.0000 -0.3827
vn -0.7071 0.0000 -0.7071
vn -0.3827 0.0000 -0.9239
vn -0.3827 0.0000 -0.9239
vn -0.7071 0.0000 -0.7071
vn -0.7071 0.0000 -0.7071
vn -0.7071 0.0000 -0.7071
vn -0.3827 0.0000 -0.9239
vn -0.1951 0.0000 -0.9808
vn -0.1951 0.0000 -0.9808
vn -0.3827 0.0000 -0.9239
vn -0.3827 0.0000 -0.9239
vn -0.3827 0.0000 -0.9239
vn -0.1951 0.0000 -0.9808
vn 0.0000 -1.0000 -0.0000
vn -0.0000 -1.0000 -0.0000
vn -0.0000 -1.0000 -0.0000
vn -0.0000 -1.0000 -0.0000
vn 0.0000 -1.0000 -0.0000
vn 0.0000 -1.0000 -0.0000
vn 0.0000 -1.0000 -0.0000
vn 0.0000 -1.0000 -0.0000
vn 0.0000 -1.0000 -0.0000
vn 0.0000 -1.0000 -0.0000
vn -0.0000 -1.0000 -0.0000
vn 0.0000 -1.0000 -0.0000
vn -0.0000 -1.0000 -0.0000
vn 0.0000 -1.0000 -0.0000
vn -0.0000 -1.0000 -0.0000
vn -0.0000 -1.0000 -0.0000
vn 0.0000 -1.0000 -0.0000
vn -0.0000 -1.0000 -0.0000
vn 0.0000 -1.0000 -0.0000
vn -0.0000 -1.0000 -0.0000
vn 0.0000 -1.0000 -0.0000
vn 0.0000 -1.0000 -0.0000
vn 0.0000 -1.0000 -0.0000
vn 0.0000 -1.0000 -0.0000
vn -0.0000 -1.0000 -0.0000
vn 0.0000 -1.0000 -0.0000
vn 0.0000 -1.0000 -0.0000
vn 0.0000 -1.0000 -0.0000
vn -0.0000 -1.0000 -0.0000
vn -0.0000 -1.0000 -0.0000
vn 0.0000 -1.0000 -0.0000
vn -0.0000 -1.0000 -0.0000
vn -0.0000 -1.0000 -0.0000
vn -0.0000 -1.0000 -0.0000
vn 0.0000 -1.0000 -0.0000
vn 0.0000 -1.0000 -0.0000
vn -0.0000 -1.0000 -0.0000
vn -0.0000 -1.0000 -0.0000
vn 0.0000 -1.0000 -0.0000
vn 0.0000 -1.0000 -0.0000
vn -0.0000 -1.0000 -0.0000
vn -0.0000 -1.0000 -0.0000
vn -0.0000 -1.0000 -0.0000
vn -0.0000 -1.0000 -0.0000
vn -0.0000 -1.0000 -0.0000
vn -0.0000 -1.0000 -0.0000
vn 0.0000 -1.0000 -0.0000
vn -0.0000 -1.0000 -0.0000
vn 0.9239 -0.0000 0.3827
vn 0.9239 -0.0000 0.3827
vn 0.9808 -0.0000 0.1951
vn 0.9808 -0.0000 0.1951
vn 0.9808 -0.0000 0.1951
vn 0.9239 -0.0000 0.3827
vn 0.7071 -0.0000 0.7071
vn 0.7071 -0.0000 0.7071
vn 0.9239 -0.0000 0.3827
vn 0.9239 -0.0000 0.3827
vn 0.9239 -0.0000 0.3827
vn 0.7071 -0.0000 0.7071
vn 0.3827 -0.0000 0.9239
vn 0.3827 0.0000 0.9239
vn 0.7071 -0.0000 0.7071
vn 0.7071 -0.0000 0.7071
vn 0.7071 -0.0000 0.7071
vn 0.3827 -0.0000 0.9239
vn 0.1951 0.0000 0.9808
vn 0.1951 0.0000 0.9808
vn 0.3827 0.0000 0.9239
vn 0.3827 0.0000 0.9239
vn 0.3827 -0.0000 0.9239
vn 0.1951 0.0000 0.9808
vn 0.0000 0.0000 1.0000
vn 0.0000 0.0000 1.0000
vn 0.0000 0.0000 1.0000
vn 0.0000 0.0000 1.0000
vn 0.0000 0.0000 1.0000
vn 0.0000 0.0000 1.0000
vn 0.0000 0.0000 1.0000
vn 0.0000 0.0000 1.0000
vn 0.0000 0.0000 1.0000
vn 0.0000 0.0000 1.0000
vn 0.0000 0.0000 1.0000
vn 0.0000 0.0000 1.0000
vn 0.0000 1.0000 0.0000
vn 0.0000 1.0000 0.0000
vn 0.0000 1.0000 0.0000
vn 0.0000 1.0000 0.0000
vn 0.0000 1.0000 0.0000
vn 0.0000 1.0000 0.0000
vn -0.0000 1.0000 0.0000
vn 0.0000 1.0000 0.0000
vn 0.0000 1.0000 0.0000
vn 0.0000 1.0000 0.0000
vn 0.0000 1.0000 0.0000
vn -0.0000 1.0000 0.0000
vn 0.0000 1.0000 0.0000
vn 0.0000 1.0000 0.0000
vn 0.0000 1.0000 0.0000
vn 0.0000 1.0000 0.0000
vn 0.0000 1.0000 0.0000
vn 0.0000 1.0000 0.0000
vn -0.0000 1.0000 0.0000
vn 0.0000 1.0000 0.0000
vn 0.0000 1.0000 0.0000
vn 0.0000 1.0000 0.0000
vn -0.0000 1.0000 0.0000
vn -0.0000 1.0000 0.0000
vn -0.0000 1.0000 0.0000
vn -0.0000 1.0000 0.0000
vn 0.0000 1.0000 0.0000
vn 0.0000 1.0000 0.0000
vn 0.0000 1.0000 0.0000
vn -0.0000 1.0000 0.0000
vn -0.0000 1.0000 0.0000
vn -0.0000 1.0000 0.0000
vn 0.0000 1.0000 0.0000
vn 0.0000 1.0000 0.0000
vn -0.0000 1.0000 0.0000
vn -0.0000 1.0000 0.0000
vn -0.0000 1.0000 0.0000
vn -0.0000 1.0000 0.0000
vn -0.0000 1.0000 0.0000
vn -0.0000 1.0000 0.0000
vn -0.0000 1.0000 0.0000
vn -0.0000 1.0000 0.0000
vn -0.0000 1.0000 0.0000
vn -0.0000 1.0000 0.0000
vn -0.0000 1.0000 0.0000
vn -0.0000 1.0000 0.0000
vn -0.0000 1.0000 0.0000
vn -0.0000 1.0000 0.0000
vn 0.9239 0.0000 0.3827
vn 0.9239 0.0000 0.3827
vn 0.9808 0.0000 0.1951
vn 0.9808 0.0000 0.1951
vn 0.9808 0.0000 0.1951
vn 0.9239 0.0000 0.3827
vn 0.7071 0.0000 0.7071
vn 0.7071 0.0000 0.7071
vn 0.9239 0.0000 0.3827
vn 0.9239 0.0000 0.3827
vn 0.9239 0.0000 0.3827
vn 0.7071 0.0000 0.7071
vn 0.3827 0.0000 0.9239
vn 0.3827 0.0000 0.9239
vn 0.7071 0.0000 0.7071
vn 0.7071 0.0000 0.7071
vn 0.7071 0.0000 0.7071
vn 0.3827 0.0000 0.9239
vn 0.1951 0.0000 0.9808
vn 0.1951 0.0000 0.9808
vn 0.3827 0.0000 0.9239
vn 0.3827 0.0000 0.9239
vn 0.3827 0.0000 0.9239
vn 0.1951 0.0000 0.9808
vn 0.0000 -1.0000 -0.0000
vn 0.0000 -1.0000 -0.0000
vn 0.0000 -1.0000 -0.0000
vn 0.0000 -1.0000 -0.0000
vn 0.0000 -1.0000 -0.0000
vn 0.0000 -1.0000 -0.0000
vn 0.0000 -1.0000 -0.0000
vn 0.0000 -1.0000 -0.0000
vn 0.0000 -1.0000 -0.0000
vn 0.0000 -1.0000 -0.0000
vn 0.0000 -1.0000 -0.0000
vn 0.0000 -1.0000 -0.0000
vn 0.0000 -1.0000 -0.0000
vn -0.0000 -1.0000 -0.0000
vn 0.0000 -1.0000 -0.0000
vn 0.0000 -1.0000 -0.0000
vn 0.0000 -1.0000 -0.0000
vn 0.0000 -1.0000 -0.0000
vn 0.0000 -1.0000 -0.0000
vn 0.0000 -1.0000 -0.0000
vn 0.0000 -1.0000 -0.0000
vn 0.0000 -1.0000 -0.0000
vn 0.0000 -1.0000 -0.0000
vn 0.0000 -1.0000 -0.0000
vn -0.0000 -1.0000 -0.0000
vn -0.0000 -1.0000 -0.0000
vn -0.0000 -1.0000 -0.0000
vn -0.0000 -1.0000 -0.0000
vn 0.0000 -1.0000 -0.0000
vn -0.0000 -1.0000 -0.0000
vn 0.0000 -1.0000 -0.0000
vn -0.0000 -1.0000 -0.0000
vn 0.0000 -1.0000 -0.0000
vn 0.0000 -1.0000 -0.0000
vn 0.0000 -1.0000 -0.0000
vn 0.0000 -1.0000 -0.0000
vn -0.0000 -1.0000 -0.0000
vn -0.0000 -1.0000 -0.0000
vn -0.0000 -1.0000 -0.0000
vn -0.0000 -1.0000 -0.0000
vn -0.0000 -1.0000 -0.0000
vn -0.0000 -1.0000 -0.0000
vn -0.0000 -1.0000 -0.0000
vn -0.0000 -1.0000 -0.0000
vn -0.0000 -1.0000 -0.0000
vn -0.0000 -1.0000 -0.0000
vn 0.0000 -1.0000 -0.0000
vn -0.0000 -1.0000 -0.0000
vn -0.9239 0.0000 -0.3827
vn -0.9239 0.0000 -0.3827
vn -0.9808 0.0000 -0.1951
vn -0.9808 0.0000 -0.1951
vn -0.9808 0.0000 -0.1951
vn -0.9239 0.0000 -0.3827
vn -0.7071 0.0000 -0.7071
vn -0.7071 0.0000 -0.7071
vn -0.9239 0.0000 -0.3827
vn -0.9239 0.0000 -0.3827
vn -0.9239 0.0000 -0.3827
vn -0.7071 0.0000 -0.7071
vn -0.3827 0.0000 -0.9239
vn -0.3827 0.0000 -0.9239
vn -0.7071 0.0000 -0.7071
vn -0.7071 0.0000 -0.7071
vn -0.7071 0.0000 -0.7071
vn -0.3827 0.0000 -0.9239
vn -0.1951 0.0000 -0.9808
vn -0.1951 0.0000 -0.9808
vn -0.3827 0.0000 -0.9239
vn -0.3827 0.0000 -0.9239
vn -0.3827 0.0000 -0.9239
vn -0.1951 0.0000 -0.9808
vn -0.0000 -1.0000 -0.0000
vn -0.0000 -1.0000 -0.0000
vn -0.0000 -1.0000 -0.0000
vn -0.0000 -1.0000 -0.0000
vn -0.0000 -1.0000 -0.0000
vn -0.0000 -1.0000 -0.0000
vn 0.0000 1.0000 0.0000
vn 0.0000 1.0000 0.0000
vn 0.0000 1.0000 0.0000
vn 0.0000 1.0000 0.0000
vn 0.0000 1.0000 0.0000
vn 0.0000 1.0000 0.0000
vn -0.0000 0.0000 -1.0000
vn -0.0000 0.0000 -1.0000
vn -0.0000 0.0000 -1.0000
vn -0.0000 0.0000 -1.0000
vn -0.0000 0.0000 -1.0000
vn -0.0000 0.0000 -1.0000
vn -1.0000 -0.0000 0.0000
vn -1.0000 -0.0000 0.0000
vn -1.0000 -0.0000 0.0000
vn -1.0000 -0.0000 0.0000
vn -1.0000 0.0000 0.0000
vn -1.0000 -0.0000 0.0000
vn 0.0000 -0.0000 1.0000
vn 0.0000 0.0000 1.0000
vn 0.0000 -0.0000 1.0000
vn 0.0000 -0.0000 1.0000
vn 0.0000 -0.0000 1.0000
vn 0.0000 -0.0000 1.0000
vn 1.0000 0.0000 -0.0000
vn 1.0000 0.0000 -0.0000
vn 1.0000 0.0000 -0.0000
vn 1.0000 0.0000 -0.0000
vn 1.0000 0.0000 -0.0000
vn 1.0000 0.0000 -0.0000
# 348 vertex normals

vt 0.0000 0.0000 0.0000
vt 1.0000 0.0000 0.0000
vt 0.0000 0.1250 0.0000
vt 1.0000 0.1250 0.0000
vt 0.0000 0.2500 0.0000
vt 1.0000 0.2500 0.0000
vt 0.0000 0.3750 0.0000
vt 1.0000 0.3750 0.0000
vt 0.0000 0.5000 0.0000
vt 1.0000 0.5000 0.0000
vt 0.0000 0.0000 0.0000
vt 0.5000 0.0000 0.0000
vt 1.0000 0.0000 0.0000
vt 0.0000 0.1250 0.0000
vt 0.5000 0.1250 0.0000
vt 1.0000 0.1250 0.0000
vt 0.0000 0.2500 0.0000
vt 0.5000 0.2500 0.0000
vt 1.0000 0.2500 0.0000
vt 0.0000 0.3750 0.0000
vt 0.5000 0.3750 0.0000
vt 1.0000 0.3750 0.0000
vt 0.0000 0.5000 0.0000
vt 0.5000 0.5000 0.0000
vt 1.0000 0.5000 0.0000
vt 0.0000 0.0000 0.0000
vt 0.5000 0.0000 0.0000
vt 1.0000 0.0000 0.0000
vt 0.0000 1.0000 0.0000
vt 0.5000 1.0000 0.0000
vt 1.0000 1.0000 0.0000
vt 1.0000 0.0000 0.0000
vt 1.0000 1.0000 0.0000
vt 0.5000 1.0000 0.0000
vt 0.5000 0.0000 0.0000
vt 0.0000 1.0000 0.0000
vt 0.0000 0.0000 0.0000
vt 0.0000 0.0000 0.0000
vt 0.5000 0.0000 0.0000
vt 0.5000 0.1250 0.0000
vt 0.0000 0.1250 0.0000
vt 1.0000 0.0000 0.0000
vt 1.0000 0.1250 0.0000
vt 0.5000 0.2500 0.0000
vt 0.0000 0.2500 0.0000
vt 1.0000 0.2500 0.0000
vt 0.5000 0.3750 0.0000
vt 0.0000 0.3750 0.0000
vt 1.0000 0.3750 0.0000
vt 0.5000 0.5000 0.0000
vt 0.0000 0.5000 0.0000
vt 1.0000 0.5000 0.0000
vt 0.0000 0.0000 0.0000
vt 1.0000 0.0000 0.0000
vt 1.0000 0.1250 0.0000
vt 0.0000 0.1250 0.0000
vt 1.0000 0.2500 0.0000
vt 0.0000 0.2500 0.0000
vt 1.0000 0.3750 0.0000
vt 0.0000 0.3750 0.0000
vt 1.0000 0.5000 0.0000
vt 0.0000 0.5000 0.0000
vt 1.0000 0.0000 0.0000
vt 0.0000 0.0000 0.0000
vt 1.0000 1.0000 0.0000
vt 0.0000 1.0000 0.0000
vt 0.0000 0.0000 0.0000
vt 1.0000 0.0000 0.0000
vt 0.0000 1.0000 0.0000
vt 1.0000 1.0000 0.0000
vt 0.0000 0.0000 0.0000
vt 1.0000 0.0000 0.0000
vt 0.0000 1.0000 0.0000
vt 1.0000 1.0000 0.0000
vt 0.0000 0.0000 0.0000
vt 1.0000 0.0000 0.0000
vt 0.0000 1.0000 0.0000
vt 1.0000 1.0000 0.0000
vt 0.0000 0.0000 0.0000
vt 1.0000 0.0000 0.0000
vt 0.0000 1.0000 0.0000
vt 1.0000 1.0000 0.0000
vt 0.0000 0.0000 0.0000
vt 1.0000 0.0000 0.0000
vt 0.0000 1.0000 0.0000
vt 1.0000 1.0000 0.0000
# 86 texture coords

g Bank_1_180
usemtl wire_135006006
f 70/30/1 2/27/2 64/28/3 
f 64/28/4 69/31/5 70/30/6 
f 6/29/7 3/26/8 2/27/9 
f 2/27/10 70/30/11 6/29/12 
f 8/15/13 7/14/14 1/11/15 
f 1/11/16 65/12/17 8/15/18 
f 74/16/19 8/15/20 65/12/21 
f 65/12/22 67/13/23 74/16/24 
f 14/18/25 13/17/26 7/14/27 
f 7/14/28 8/15/29 14/18/30 
f 78/19/31 14/18/32 8/15/33 
f 8/15/34 74/16/35 78/19/36 
f 20/21/37 19/20/38 13/17/39 
f 13/17/40 14/18/41 20/21/42 
f 82/22/43 20/21/44 14/18/45 
f 14/18/46 78/19/47 82/22/48 
f 25/24/49 44/23/50 19/20/51 
f 19/20/52 20/21/53 25/24/54 
f 104/25/55 25/24/56 20/21/57 
f 20/21/58 82/22/59 104/25/60 
f 75/4/61 9/3/62 66/1/63 
f 66/1/64 72/2/65 75/4/66 
f 79/6/67 15/5/68 9/3/69 
f 9/3/70 75/4/71 79/6/72 
f 83/8/73 21/7/74 15/5/75 
f 15/5/76 79/6/77 83/8/78 
f 86/10/79 43/9/80 21/7/81 
f 21/7/82 83/8/83 86/10/84 
f 11/15/85 10/14/86 71/11/87 
f 71/11/88 5/12/89 11/15/90 
f 76/16/91 11/15/92 5/12/93 
f 5/12/94 68/13/95 76/16/96 
f 17/18/97 16/17/98 10/14/99 
f 10/14/100 11/15/101 17/18/102 
f 80/19/103 17/18/104 11/15/105 
f 11/15/106 76/16/107 80/19/108 
f 23/21/109 22/20/110 16/17/111 
f 16/17/112 17/18/113 23/21/114 
f 84/22/115 23/21/116 17/18/117 
f 17/18/118 80/19/119 84/22/120 
f 27/24/121 26/23/122 22/20/123 
f 22/20/124 23/21/125 27/24/126 
f 111/25/127 27/24/128 23/21/129 
f 23/21/130 84/22/131 111/25/132 
f 73/4/133 12/3/134 4/1/135 
f 4/1/136 63/2/137 73/4/138 
f 77/6/139 18/5/140 12/3/141 
f 12/3/142 73/4/143 77/6/144 
f 81/8/145 24/7/146 18/5/147 
f 18/5/148 77/6/149 81/8/150 
f 106/10/151 48/9/152 24/7/153 
f 24/7/154 81/8/155 106/10/156 
f 91/34/157 31/35/158 28/32/159 
f 28/32/160 90/33/161 91/34/162 
f 94/36/163 33/37/164 31/35/165 
f 31/35/166 91/34/167 94/36/168 
f 34/40/169 35/41/170 87/38/171 
f 87/38/172 92/39/173 34/40/174 
f 98/43/175 34/40/176 92/39/177 
f 92/39/178 96/42/179 98/43/180 
f 37/44/181 38/45/182 35/41/183 
f 35/41/184 34/40/185 37/44/186 
f 100/46/187 37/44/188 34/40/189 
f 34/40/190 98/43/191 100/46/192 
f 40/47/193 41/48/194 38/45/195 
f 38/45/196 37/44/197 40/47/198 
f 102/49/199 40/47/200 37/44/201 
f 37/44/202 100/46/203 102/49/204 
f 25/50/205 104/51/206 41/48/207 
f 41/48/208 40/47/209 25/50/210 
f 44/52/211 25/50/212 40/47/213 
f 40/47/214 102/49/215 44/52/216 
f 107/55/217 36/56/218 95/53/219 
f 95/53/220 93/54/221 107/55/222 
f 108/57/223 39/58/224 36/56/225 
f 36/56/226 107/55/227 108/57/228 
f 109/59/229 42/60/230 39/58/231 
f 39/58/232 108/57/233 109/59/234 
f 110/61/235 105/62/236 42/60/237 
f 42/60/238 109/59/239 110/61/240 
f 49/40/241 45/41/242 32/38/243 
f 32/38/244 30/39/245 49/40/246 
f 112/43/247 49/40/248 30/39/249 
f 30/39/250 89/42/251 112/43/252 
f 51/44/253 46/45/254 45/41/255 
f 45/41/256 49/40/257 51/44/258 
f 52/46/259 51/44/260 49/40/261 
f 49/40/262 112/43/263 52/46/264 
f 53/47/265 47/48/266 46/45/267 
f 46/45/268 51/44/269 53/47/270 
f 54/49/271 53/47/272 51/44/273 
f 51/44/274 52/46/275 54/49/276 
f 27/50/277 111/51/278 47/48/279 
f 47/48/280 53/47/281 27/50/282 
f 26/52/283 27/50/284 53/47/285 
f 53/47/286 54/49/287 26/52/288 
f 97/55/289 50/56/290 29/53/291 
f 29/53/292 88/54/293 97/55/294 
f 99/57/295 113/58/296 50/56/297 
f 50/56/298 97/55/299 99/57/300 
f 101/59/301 114/60/302 113/58/303 
f 113/58/304 99/57/305 101/59/306 
f 103/61/307 85/62/308 114/60/309 
f 114/60/310 101/59/311 103/61/312 
f 116/63/313 120/65/314 58/66/315 
f 58/66/316 56/64/317 116/63/318 
f 123/67/319 125/68/320 129/70/321 
f 129/70/322 127/69/323 123/67/324 
f 55/71/325 118/72/326 126/74/327 
f 126/74/328 59/73/329 55/71/330 
f 117/75/331 122/76/332 130/78/333 
f 130/78/334 60/77/335 117/75/336 
f 121/79/337 119/80/338 128/82/339 
f 128/82/340 62/81/341 121/79/342 
f 57/83/343 115/84/344 124/86/345 
f 124/86/346 61/85/347 57/83/348 
# 116 faces

