# 3ds Max Wavefront OBJ Exporter v0.97b - (c)2007 guruware
# File Created: 09.03.2017 20:26:35

mtllib Bank-2-15_MSH.mtl

#
# object Bank_2_15
#

v  -0.2500 0.0156 -0.0000
v  0.0000 0.0156 -0.0000
v  0.2500 0.0156 -0.0000
v  -0.2500 -0.0156 -0.0000
v  0.0000 -0.0156 -0.0000
v  0.2500 -0.0156 0.0000
v  -0.2458 0.0156 -0.2581
v  0.0041 0.0156 -0.2500
v  0.2540 0.0156 -0.2418
v  0.2540 -0.0156 -0.2418
v  0.0041 -0.0156 -0.2500
v  -0.2458 -0.0156 -0.2581
v  -0.2331 0.0156 -0.5160
v  0.0164 0.0156 -0.4996
v  0.2658 0.0156 -0.4833
v  0.2658 -0.0156 -0.4833
v  0.0164 -0.0156 -0.4996
v  -0.2331 -0.0156 -0.5160
v  -0.2120 0.0156 -0.7733
v  0.0368 0.0156 -0.7488
v  0.2856 0.0156 -0.7243
v  0.2856 -0.0156 -0.7243
v  0.0368 -0.0156 -0.7488
v  -0.2120 -0.0156 -0.7733
v  0.3132 0.0156 -0.9645
v  0.3132 -0.0156 -0.9645
v  0.3807 0.0156 -1.9943
v  0.3807 -0.0156 -1.9943
v  0.1307 -0.0156 -1.9943
v  0.1307 0.0156 -1.9943
v  -0.1193 -0.0156 -1.9943
v  -0.1193 0.0156 -1.9943
v  0.1266 0.0156 -1.7443
v  0.3765 0.0156 -1.7362
v  -0.1232 0.0156 -1.7525
v  0.1144 0.0156 -1.4947
v  0.3638 0.0156 -1.4783
v  -0.1351 0.0156 -1.5110
v  0.0939 0.0156 -1.2455
v  0.3427 0.0156 -1.2210
v  -0.1549 0.0156 -1.2700
v  0.0654 0.0156 -0.9971
v  -0.1825 0.0156 -1.0298
v  -0.1232 -0.0156 -1.7525
v  -0.1351 -0.0156 -1.5110
v  -0.1549 -0.0156 -1.2700
v  -0.1825 -0.0156 -1.0298
v  0.1266 -0.0156 -1.7443
v  0.3765 -0.0156 -1.7362
v  0.1144 -0.0156 -1.4947
v  0.3638 -0.0156 -1.4783
v  0.0939 -0.0156 -1.2455
v  0.3427 -0.0156 -1.2210
v  0.0654 -0.0156 -0.9971
v  -0.2500 -0.0313 0.7188
v  0.2500 -0.0313 0.7188
v  -0.2500 -0.0313 0.5312
v  0.2500 -0.0313 0.5313
v  -0.2500 0.0312 0.7188
v  0.2500 0.0312 0.7188
v  -0.2500 0.0312 0.5312
v  0.2500 0.0312 0.5313
v  -0.2500 0.0156 -0.0000
v  -0.2500 0.0156 -0.0000
v  0.0000 0.0156 -0.0000
v  0.2500 0.0156 -0.0000
v  0.2500 0.0156 -0.0000
v  -0.2500 -0.0156 -0.0000
v  -0.2500 -0.0156 -0.0000
v  0.0000 -0.0156 -0.0000
v  0.2500 -0.0156 0.0000
v  0.2500 -0.0156 0.0000
v  -0.2458 0.0156 -0.2581
v  0.2540 0.0156 -0.2418
v  0.2540 -0.0156 -0.2418
v  -0.2458 -0.0156 -0.2581
v  -0.2331 0.0156 -0.5160
v  0.2658 0.0156 -0.4833
v  0.2658 -0.0156 -0.4833
v  -0.2331 -0.0156 -0.5160
v  -0.2120 0.0156 -0.7733
v  0.2856 0.0156 -0.7243
v  0.2856 -0.0156 -0.7243
v  -0.2120 -0.0156 -0.7733
v  0.3132 0.0156 -0.9645
v  0.3132 0.0156 -0.9645
v  0.3132 -0.0156 -0.9645
v  0.3132 -0.0156 -0.9645
v  0.3807 0.0156 -1.9943
v  0.3807 0.0156 -1.9943
v  0.3807 -0.0156 -1.9943
v  0.3807 -0.0156 -1.9943
v  0.1307 -0.0156 -1.9943
v  0.1307 0.0156 -1.9943
v  -0.1193 -0.0156 -1.9943
v  -0.1193 -0.0156 -1.9943
v  -0.1193 0.0156 -1.9943
v  -0.1193 0.0156 -1.9943
v  0.3765 0.0156 -1.7362
v  -0.1232 0.0156 -1.7525
v  0.3638 0.0156 -1.4783
v  -0.1351 0.0156 -1.5110
v  0.3427 0.0156 -1.2210
v  -0.1549 0.0156 -1.2700
v  -0.1825 0.0156 -1.0298
v  -0.1825 0.0156 -1.0298
v  -0.1232 -0.0156 -1.7525
v  -0.1351 -0.0156 -1.5110
v  -0.1549 -0.0156 -1.2700
v  -0.1825 -0.0156 -1.0298
v  -0.1825 -0.0156 -1.0298
v  0.3765 -0.0156 -1.7362
v  0.3638 -0.0156 -1.4783
v  0.3427 -0.0156 -1.2210
v  -0.2500 -0.0313 0.7188
v  -0.2500 -0.0313 0.7188
v  0.2500 -0.0313 0.7188
v  0.2500 -0.0313 0.7188
v  -0.2500 -0.0313 0.5312
v  -0.2500 -0.0313 0.5312
v  0.2500 -0.0313 0.5313
v  0.2500 -0.0313 0.5313
v  -0.2500 0.0312 0.7188
v  -0.2500 0.0312 0.7188
v  0.2500 0.0312 0.7188
v  0.2500 0.0312 0.7188
v  -0.2500 0.0312 0.5312
v  -0.2500 0.0312 0.5312
v  0.2500 0.0312 0.5313
v  0.2500 0.0312 0.5313
# 130 vertices

vn -0.0000 0.0000 1.0000
vn -0.0000 0.0000 1.0000
vn -0.0000 0.0000 1.0000
vn -0.0000 0.0000 1.0000
vn -0.0000 0.0000 1.0000
vn -0.0000 0.0000 1.0000
vn -0.0000 0.0000 1.0000
vn -0.0000 0.0000 1.0000
vn -0.0000 0.0000 1.0000
vn -0.0000 0.0000 1.0000
vn -0.0000 0.0000 1.0000
vn -0.0000 0.0000 1.0000
vn 0.0000 1.0000 -0.0000
vn 0.0000 1.0000 -0.0000
vn 0.0000 1.0000 -0.0000
vn 0.0000 1.0000 -0.0000
vn 0.0000 1.0000 -0.0000
vn 0.0000 1.0000 -0.0000
vn 0.0000 1.0000 -0.0000
vn 0.0000 1.0000 -0.0000
vn 0.0000 1.0000 -0.0000
vn 0.0000 1.0000 -0.0000
vn 0.0000 1.0000 -0.0000
vn 0.0000 1.0000 -0.0000
vn 0.0000 1.0000 -0.0000
vn 0.0000 1.0000 -0.0000
vn 0.0000 1.0000 -0.0000
vn 0.0000 1.0000 -0.0000
vn 0.0000 1.0000 -0.0000
vn 0.0000 1.0000 -0.0000
vn 0.0000 1.0000 -0.0000
vn 0.0000 1.0000 -0.0000
vn 0.0000 1.0000 -0.0000
vn 0.0000 1.0000 -0.0000
vn 0.0000 1.0000 -0.0000
vn 0.0000 1.0000 -0.0000
vn 0.0000 1.0000 -0.0000
vn 0.0000 1.0000 -0.0000
vn 0.0000 1.0000 -0.0000
vn 0.0000 1.0000 -0.0000
vn 0.0000 1.0000 -0.0000
vn 0.0000 1.0000 -0.0000
vn 0.0000 1.0000 -0.0000
vn 0.0000 1.0000 -0.0000
vn 0.0000 1.0000 -0.0000
vn 0.0000 1.0000 -0.0000
vn 0.0000 1.0000 -0.0000
vn 0.0000 1.0000 -0.0000
vn 0.0000 1.0000 -0.0000
vn 0.0000 1.0000 -0.0000
vn 0.0000 1.0000 -0.0000
vn 0.0000 1.0000 -0.0000
vn 0.0000 1.0000 -0.0000
vn 0.0000 1.0000 -0.0000
vn 0.0000 1.0000 -0.0000
vn 0.0000 1.0000 -0.0000
vn 0.0000 1.0000 -0.0000
vn 0.0000 1.0000 -0.0000
vn 0.0000 1.0000 -0.0000
vn 0.0000 1.0000 -0.0000
vn 0.9995 0.0000 0.0327
vn 0.9995 0.0000 0.0327
vn 0.9999 0.0000 0.0164
vn 0.9999 0.0000 0.0164
vn 0.9999 0.0000 0.0164
vn 0.9995 0.0000 0.0327
vn 0.9979 0.0000 0.0654
vn 0.9979 0.0000 0.0654
vn 0.9995 0.0000 0.0327
vn 0.9995 0.0000 0.0327
vn 0.9995 0.0000 0.0327
vn 0.9979 0.0000 0.0654
vn 0.9952 0.0000 0.0980
vn 0.9952 0.0000 0.0980
vn 0.9979 0.0000 0.0654
vn 0.9979 0.0000 0.0654
vn 0.9979 0.0000 0.0654
vn 0.9952 0.0000 0.0980
vn 0.9934 0.0000 0.1143
vn 0.9934 0.0000 0.1143
vn 0.9952 0.0000 0.0980
vn 0.9952 0.0000 0.0980
vn 0.9952 0.0000 0.0980
vn 0.9934 0.0000 0.1143
vn 0.0000 -1.0000 0.0000
vn 0.0000 -1.0000 0.0000
vn 0.0000 -1.0000 0.0000
vn 0.0000 -1.0000 0.0000
vn 0.0000 -1.0000 0.0000
vn 0.0000 -1.0000 0.0000
vn 0.0000 -1.0000 0.0000
vn 0.0000 -1.0000 0.0000
vn 0.0000 -1.0000 0.0000
vn 0.0000 -1.0000 0.0000
vn 0.0000 -1.0000 0.0000
vn 0.0000 -1.0000 0.0000
vn 0.0000 -1.0000 0.0000
vn 0.0000 -1.0000 0.0000
vn 0.0000 -1.0000 0.0000
vn 0.0000 -1.0000 0.0000
vn 0.0000 -1.0000 0.0000
vn 0.0000 -1.0000 0.0000
vn 0.0000 -1.0000 0.0000
vn 0.0000 -1.0000 0.0000
vn 0.0000 -1.0000 0.0000
vn 0.0000 -1.0000 0.0000
vn 0.0000 -1.0000 0.0000
vn 0.0000 -1.0000 0.0000
vn 0.0000 -1.0000 0.0000
vn 0.0000 -1.0000 0.0000
vn 0.0000 -1.0000 0.0000
vn 0.0000 -1.0000 0.0000
vn 0.0000 -1.0000 0.0000
vn 0.0000 -1.0000 0.0000
vn 0.0000 -1.0000 0.0000
vn 0.0000 -1.0000 0.0000
vn 0.0000 -1.0000 0.0000
vn 0.0000 -1.0000 0.0000
vn 0.0000 -1.0000 0.0000
vn 0.0000 -1.0000 0.0000
vn 0.0000 -1.0000 0.0000
vn 0.0000 -1.0000 0.0000
vn 0.0000 -1.0000 0.0000
vn 0.0000 -1.0000 0.0000
vn 0.0000 -1.0000 0.0000
vn 0.0000 -1.0000 0.0000
vn 0.0000 -1.0000 0.0000
vn 0.0000 -1.0000 0.0000
vn 0.0000 -1.0000 0.0000
vn 0.0000 -1.0000 0.0000
vn 0.0000 -1.0000 0.0000
vn 0.0000 -1.0000 0.0000
vn -0.9995 -0.0000 -0.0327
vn -0.9995 -0.0000 -0.0327
vn -0.9999 -0.0000 -0.0164
vn -0.9999 -0.0000 -0.0164
vn -0.9999 -0.0000 -0.0164
vn -0.9995 -0.0000 -0.0327
vn -0.9979 -0.0000 -0.0654
vn -0.9979 -0.0000 -0.0654
vn -0.9995 -0.0000 -0.0327
vn -0.9995 -0.0000 -0.0327
vn -0.9995 -0.0000 -0.0327
vn -0.9979 -0.0000 -0.0654
vn -0.9952 -0.0000 -0.0980
vn -0.9952 -0.0000 -0.0980
vn -0.9979 -0.0000 -0.0654
vn -0.9979 -0.0000 -0.0654
vn -0.9979 -0.0000 -0.0654
vn -0.9952 -0.0000 -0.0980
vn -0.9934 -0.0000 -0.1143
vn -0.9934 -0.0000 -0.1143
vn -0.9952 -0.0000 -0.0980
vn -0.9952 -0.0000 -0.0980
vn -0.9952 -0.0000 -0.0980
vn -0.9934 -0.0000 -0.1143
vn 0.0000 -0.0000 -1.0000
vn 0.0000 -0.0000 -1.0000
vn 0.0000 -0.0000 -1.0000
vn 0.0000 -0.0000 -1.0000
vn 0.0000 -0.0000 -1.0000
vn 0.0000 -0.0000 -1.0000
vn 0.0000 -0.0000 -1.0000
vn 0.0000 -0.0000 -1.0000
vn 0.0000 -0.0000 -1.0000
vn 0.0000 -0.0000 -1.0000
vn 0.0000 -0.0000 -1.0000
vn 0.0000 -0.0000 -1.0000
vn 0.0000 1.0000 -0.0000
vn 0.0000 1.0000 -0.0000
vn 0.0000 1.0000 -0.0000
vn 0.0000 1.0000 -0.0000
vn 0.0000 1.0000 -0.0000
vn 0.0000 1.0000 -0.0000
vn 0.0000 1.0000 -0.0000
vn 0.0000 1.0000 -0.0000
vn 0.0000 1.0000 -0.0000
vn 0.0000 1.0000 -0.0000
vn 0.0000 1.0000 -0.0000
vn 0.0000 1.0000 -0.0000
vn 0.0000 1.0000 -0.0000
vn 0.0000 1.0000 -0.0000
vn 0.0000 1.0000 -0.0000
vn 0.0000 1.0000 -0.0000
vn 0.0000 1.0000 -0.0000
vn 0.0000 1.0000 -0.0000
vn 0.0000 1.0000 -0.0000
vn 0.0000 1.0000 -0.0000
vn 0.0000 1.0000 -0.0000
vn 0.0000 1.0000 -0.0000
vn 0.0000 1.0000 -0.0000
vn 0.0000 1.0000 -0.0000
vn 0.0000 1.0000 -0.0000
vn 0.0000 1.0000 -0.0000
vn 0.0000 1.0000 -0.0000
vn 0.0000 1.0000 -0.0000
vn 0.0000 1.0000 -0.0000
vn 0.0000 1.0000 -0.0000
vn 0.0000 1.0000 -0.0000
vn 0.0000 1.0000 -0.0000
vn 0.0000 1.0000 -0.0000
vn 0.0000 1.0000 -0.0000
vn 0.0000 1.0000 -0.0000
vn 0.0000 1.0000 -0.0000
vn 0.0000 1.0000 -0.0000
vn 0.0000 1.0000 -0.0000
vn 0.0000 1.0000 -0.0000
vn 0.0000 1.0000 -0.0000
vn 0.0000 1.0000 -0.0000
vn 0.0000 1.0000 -0.0000
vn 0.0000 1.0000 -0.0000
vn 0.0000 1.0000 -0.0000
vn 0.0000 1.0000 -0.0000
vn 0.0000 1.0000 -0.0000
vn 0.0000 1.0000 -0.0000
vn 0.0000 1.0000 -0.0000
vn -0.9995 -0.0000 -0.0327
vn -0.9995 -0.0000 -0.0327
vn -0.9999 -0.0000 -0.0164
vn -0.9999 -0.0000 -0.0164
vn -0.9999 -0.0000 -0.0164
vn -0.9995 -0.0000 -0.0327
vn -0.9979 -0.0000 -0.0654
vn -0.9979 -0.0000 -0.0654
vn -0.9995 -0.0000 -0.0327
vn -0.9995 -0.0000 -0.0327
vn -0.9995 -0.0000 -0.0327
vn -0.9979 -0.0000 -0.0654
vn -0.9952 -0.0000 -0.0980
vn -0.9952 -0.0000 -0.0980
vn -0.9979 -0.0000 -0.0654
vn -0.9979 -0.0000 -0.0654
vn -0.9979 -0.0000 -0.0654
vn -0.9952 -0.0000 -0.0980
vn -0.9934 -0.0000 -0.1143
vn -0.9934 -0.0000 -0.1143
vn -0.9952 -0.0000 -0.0980
vn -0.9952 -0.0000 -0.0980
vn -0.9952 -0.0000 -0.0980
vn -0.9934 -0.0000 -0.1143
vn 0.0000 -1.0000 0.0000
vn 0.0000 -1.0000 0.0000
vn 0.0000 -1.0000 0.0000
vn 0.0000 -1.0000 0.0000
vn 0.0000 -1.0000 0.0000
vn 0.0000 -1.0000 0.0000
vn 0.0000 -1.0000 0.0000
vn 0.0000 -1.0000 0.0000
vn 0.0000 -1.0000 0.0000
vn 0.0000 -1.0000 0.0000
vn 0.0000 -1.0000 0.0000
vn 0.0000 -1.0000 0.0000
vn 0.0000 -1.0000 0.0000
vn 0.0000 -1.0000 0.0000
vn 0.0000 -1.0000 0.0000
vn 0.0000 -1.0000 0.0000
vn 0.0000 -1.0000 0.0000
vn 0.0000 -1.0000 0.0000
vn 0.0000 -1.0000 0.0000
vn 0.0000 -1.0000 0.0000
vn 0.0000 -1.0000 0.0000
vn 0.0000 -1.0000 0.0000
vn 0.0000 -1.0000 0.0000
vn 0.0000 -1.0000 0.0000
vn 0.0000 -1.0000 0.0000
vn 0.0000 -1.0000 0.0000
vn 0.0000 -1.0000 0.0000
vn 0.0000 -1.0000 0.0000
vn 0.0000 -1.0000 0.0000
vn 0.0000 -1.0000 0.0000
vn 0.0000 -1.0000 0.0000
vn 0.0000 -1.0000 0.0000
vn 0.0000 -1.0000 0.0000
vn 0.0000 -1.0000 0.0000
vn 0.0000 -1.0000 0.0000
vn 0.0000 -1.0000 0.0000
vn 0.0000 -1.0000 0.0000
vn 0.0000 -1.0000 0.0000
vn 0.0000 -1.0000 0.0000
vn 0.0000 -1.0000 0.0000
vn 0.0000 -1.0000 0.0000
vn 0.0000 -1.0000 0.0000
vn 0.0000 -1.0000 0.0000
vn 0.0000 -1.0000 0.0000
vn 0.0000 -1.0000 0.0000
vn 0.0000 -1.0000 0.0000
vn 0.0000 -1.0000 0.0000
vn 0.0000 -1.0000 0.0000
vn 0.9995 0.0000 0.0327
vn 0.9995 0.0000 0.0327
vn 0.9999 0.0000 0.0164
vn 0.9999 0.0000 0.0164
vn 0.9999 0.0000 0.0164
vn 0.9995 0.0000 0.0327
vn 0.9979 0.0000 0.0654
vn 0.9979 0.0000 0.0654
vn 0.9995 0.0000 0.0327
vn 0.9995 0.0000 0.0327
vn 0.9995 0.0000 0.0327
vn 0.9979 0.0000 0.0654
vn 0.9952 0.0000 0.0980
vn 0.9952 0.0000 0.0980
vn 0.9979 0.0000 0.0654
vn 0.9979 0.0000 0.0654
vn 0.9979 0.0000 0.0654
vn 0.9952 0.0000 0.0980
vn 0.9934 0.0000 0.1143
vn 0.9934 0.0000 0.1143
vn 0.9952 0.0000 0.0980
vn 0.9952 0.0000 0.0980
vn 0.9952 0.0000 0.0980
vn 0.9934 0.0000 0.1143
vn 0.0000 -1.0000 0.0000
vn 0.0000 -1.0000 0.0000
vn 0.0000 -1.0000 0.0000
vn 0.0000 -1.0000 0.0000
vn 0.0000 -1.0000 0.0000
vn 0.0000 -1.0000 0.0000
vn -0.0000 1.0000 0.0000
vn 0.0000 1.0000 0.0000
vn -0.0000 1.0000 0.0000
vn -0.0000 1.0000 0.0000
vn -0.0000 1.0000 0.0000
vn -0.0000 1.0000 0.0000
vn 0.0000 0.0000 1.0000
vn 0.0000 0.0000 1.0000
vn 0.0000 0.0000 1.0000
vn 0.0000 0.0000 1.0000
vn 0.0000 0.0000 1.0000
vn 0.0000 0.0000 1.0000
vn 1.0000 0.0000 0.0000
vn 1.0000 0.0000 0.0000
vn 1.0000 0.0000 0.0000
vn 1.0000 0.0000 0.0000
vn 1.0000 0.0000 0.0000
vn 1.0000 0.0000 0.0000
vn 0.0000 -0.0000 -1.0000
vn 0.0000 -0.0000 -1.0000
vn 0.0000 -0.0000 -1.0000
vn 0.0000 -0.0000 -1.0000
vn 0.0000 -0.0000 -1.0000
vn 0.0000 -0.0000 -1.0000
vn -1.0000 -0.0000 -0.0000
vn -1.0000 -0.0000 -0.0000
vn -1.0000 -0.0000 -0.0000
vn -1.0000 -0.0000 -0.0000
vn -1.0000 -0.0000 -0.0000
vn -1.0000 -0.0000 -0.0000
# 348 vertex normals

vt 0.6375 0.4000 0.0000
vt 0.8625 0.4000 0.0000
vt 0.6375 0.4563 0.0000
vt 0.8625 0.4563 0.0000
vt 0.6375 0.5125 0.0000
vt 0.8625 0.5125 0.0000
vt 0.6375 0.5688 0.0000
vt 0.8625 0.5688 0.0000
vt 0.6375 0.6250 0.0000
vt 0.8625 0.6250 0.0000
vt 0.6375 0.4000 0.0000
vt 0.7500 0.4000 0.0000
vt 0.8625 0.4000 0.0000
vt 0.6375 0.4563 0.0000
vt 0.7500 0.4563 0.0000
vt 0.8625 0.4563 0.0000
vt 0.6375 0.5125 0.0000
vt 0.7500 0.5125 0.0000
vt 0.8625 0.5125 0.0000
vt 0.6375 0.5688 0.0000
vt 0.7500 0.5688 0.0000
vt 0.8625 0.5688 0.0000
vt 0.6375 0.6250 0.0000
vt 0.7500 0.6250 0.0000
vt 0.8625 0.6250 0.0000
vt 0.6375 0.4000 0.0000
vt 0.7500 0.4000 0.0000
vt 0.8625 0.4000 0.0000
vt 0.6375 0.8500 0.0000
vt 0.7500 0.8500 0.0000
vt 0.8625 0.8500 0.0000
vt 0.8625 0.4000 0.0000
vt 0.8625 0.8500 0.0000
vt 0.7500 0.8500 0.0000
vt 0.7500 0.4000 0.0000
vt 0.6375 0.8500 0.0000
vt 0.6375 0.4000 0.0000
vt 0.6375 0.4000 0.0000
vt 0.7500 0.4000 0.0000
vt 0.7500 0.4563 0.0000
vt 0.6375 0.4563 0.0000
vt 0.8625 0.4000 0.0000
vt 0.8625 0.4563 0.0000
vt 0.7500 0.5125 0.0000
vt 0.6375 0.5125 0.0000
vt 0.8625 0.5125 0.0000
vt 0.7500 0.5688 0.0000
vt 0.6375 0.5688 0.0000
vt 0.8625 0.5688 0.0000
vt 0.7500 0.6250 0.0000
vt 0.6375 0.6250 0.0000
vt 0.8625 0.6250 0.0000
vt 0.6375 0.4000 0.0000
vt 0.8625 0.4000 0.0000
vt 0.8625 0.4563 0.0000
vt 0.6375 0.4563 0.0000
vt 0.8625 0.5125 0.0000
vt 0.6375 0.5125 0.0000
vt 0.8625 0.5688 0.0000
vt 0.6375 0.5688 0.0000
vt 0.8625 0.6250 0.0000
vt 0.6375 0.6250 0.0000
vt 0.6375 0.0828 0.0000
vt 0.6375 0.1672 0.0000
vt 0.8625 0.1672 0.0000
vt 0.8625 0.0828 0.0000
vt 0.6375 0.0828 0.0000
vt 0.8625 0.0828 0.0000
vt 0.8625 0.1672 0.0000
vt 0.6375 0.1672 0.0000
# 70 texture coords

g Bank_2_15
usemtl Material__2
f 70/30/1 2/27/2 64/28/3 
f 64/28/4 69/31/5 70/30/6 
f 6/29/7 3/26/8 2/27/9 
f 2/27/10 70/30/11 6/29/12 
f 8/15/13 7/14/14 1/11/15 
f 1/11/16 65/12/17 8/15/18 
f 74/16/19 8/15/20 65/12/21 
f 65/12/22 67/13/23 74/16/24 
f 14/18/25 13/17/26 7/14/27 
f 7/14/28 8/15/29 14/18/30 
f 78/19/31 14/18/32 8/15/33 
f 8/15/34 74/16/35 78/19/36 
f 20/21/37 19/20/38 13/17/39 
f 13/17/40 14/18/41 20/21/42 
f 82/22/43 20/21/44 14/18/45 
f 14/18/46 78/19/47 82/22/48 
f 42/24/49 43/23/50 19/20/51 
f 19/20/52 20/21/53 42/24/54 
f 86/25/55 42/24/56 20/21/57 
f 20/21/58 82/22/59 86/25/60 
f 75/4/61 9/3/62 66/1/63 
f 66/1/64 72/2/65 75/4/66 
f 79/6/67 15/5/68 9/3/69 
f 9/3/70 75/4/71 79/6/72 
f 83/8/73 21/7/74 15/5/75 
f 15/5/76 79/6/77 83/8/78 
f 88/10/79 25/9/80 21/7/81 
f 21/7/82 83/8/83 88/10/84 
f 11/15/85 10/14/86 71/11/87 
f 71/11/88 5/12/89 11/15/90 
f 76/16/91 11/15/92 5/12/93 
f 5/12/94 68/13/95 76/16/96 
f 17/18/97 16/17/98 10/14/99 
f 10/14/100 11/15/101 17/18/102 
f 80/19/103 17/18/104 11/15/105 
f 11/15/106 76/16/107 80/19/108 
f 23/21/109 22/20/110 16/17/111 
f 16/17/112 17/18/113 23/21/114 
f 84/22/115 23/21/116 17/18/117 
f 17/18/118 80/19/119 84/22/120 
f 54/24/121 26/23/122 22/20/123 
f 22/20/124 23/21/125 54/24/126 
f 111/25/127 54/24/128 23/21/129 
f 23/21/130 84/22/131 111/25/132 
f 73/4/133 12/3/134 4/1/135 
f 4/1/136 63/2/137 73/4/138 
f 77/6/139 18/5/140 12/3/141 
f 12/3/142 73/4/143 77/6/144 
f 81/8/145 24/7/146 18/5/147 
f 18/5/148 77/6/149 81/8/150 
f 106/10/151 47/9/152 24/7/153 
f 24/7/154 81/8/155 106/10/156 
f 93/34/157 30/35/158 27/32/159 
f 27/32/160 92/33/161 93/34/162 
f 96/36/163 32/37/164 30/35/165 
f 30/35/166 93/34/167 96/36/168 
f 33/40/169 34/41/170 89/38/171 
f 89/38/172 94/39/173 33/40/174 
f 100/43/175 33/40/176 94/39/177 
f 94/39/178 98/42/179 100/43/180 
f 36/44/181 37/45/182 34/41/183 
f 34/41/184 33/40/185 36/44/186 
f 102/46/187 36/44/188 33/40/189 
f 33/40/190 100/43/191 102/46/192 
f 39/47/193 103/48/194 37/45/195 
f 37/45/196 36/44/197 39/47/198 
f 104/49/199 39/47/200 36/44/201 
f 36/44/202 102/46/203 104/49/204 
f 42/50/205 86/51/206 103/48/207 
f 103/48/208 39/47/209 42/50/210 
f 43/52/211 42/50/212 39/47/213 
f 39/47/214 104/49/215 43/52/216 
f 107/55/217 35/56/218 97/53/219 
f 97/53/220 95/54/221 107/55/222 
f 108/57/223 38/58/224 35/56/225 
f 35/56/226 107/55/227 108/57/228 
f 109/59/229 41/60/230 38/58/231 
f 38/58/232 108/57/233 109/59/234 
f 110/61/235 105/62/236 41/60/237 
f 41/60/238 109/59/239 110/61/240 
f 48/40/241 44/41/242 31/38/243 
f 31/38/244 29/39/245 48/40/246 
f 112/43/247 48/40/248 29/39/249 
f 29/39/250 91/42/251 112/43/252 
f 50/44/253 45/45/254 44/41/255 
f 44/41/256 48/40/257 50/44/258 
f 51/46/259 50/44/260 48/40/261 
f 48/40/262 112/43/263 51/46/264 
f 52/47/265 46/48/266 45/45/267 
f 45/45/268 50/44/269 52/47/270 
f 53/49/271 52/47/272 50/44/273 
f 50/44/274 51/46/275 53/49/276 
f 54/50/277 111/51/278 46/48/279 
f 46/48/280 52/47/281 54/50/282 
f 26/52/283 54/50/284 52/47/285 
f 52/47/286 53/49/287 26/52/288 
f 99/55/289 49/56/290 28/53/291 
f 28/53/292 90/54/293 99/55/294 
f 101/57/295 113/58/296 49/56/297 
f 49/56/298 99/55/299 101/57/300 
f 40/59/301 114/60/302 113/58/303 
f 113/58/304 101/57/305 40/59/306 
f 85/61/307 87/62/308 114/60/309 
f 114/60/310 40/59/311 85/61/312 
f 116/63/313 120/64/314 58/65/315 
f 58/65/316 56/66/317 116/63/318 
f 123/67/319 125/68/320 129/69/321 
f 129/69/322 127/70/323 123/67/324 
f 55/63/325 118/66/326 126/68/327 
f 126/68/328 59/67/329 55/63/330 
f 117/66/331 122/65/332 130/69/333 
f 130/69/334 60/68/335 117/66/336 
f 121/65/337 119/64/338 128/70/339 
f 128/70/340 62/69/341 121/65/342 
f 57/64/343 115/63/344 124/67/345 
f 124/67/346 61/70/347 57/64/348 
# 116 faces

