# 3ds Max Wavefront OBJ Exporter v0.97b - (c)2007 guruware
# File Created: 04.03.2017 12:33:17

mtllib Bank-5-135_MSH.mtl

#
# object Bank_5_135
#

v  0.2500 0.0156 -0.0000
v  0.0000 0.0156 0.0000
v  -0.2500 0.0156 0.0000
v  0.2500 -0.0156 -0.0000
v  -0.0000 -0.0156 -0.0000
v  -0.2500 -0.0156 0.0000
v  0.1479 0.0156 0.6886
v  -0.0914 0.0156 0.6160
v  -0.3306 0.0156 0.5434
v  -0.3306 -0.0156 0.5434
v  -0.0914 -0.0156 0.6160
v  0.1479 -0.0156 0.6886
v  -0.1498 0.0156 1.3178
v  -0.3576 0.0156 1.1790
v  -0.5655 0.0156 1.0401
v  -0.5655 -0.0156 1.0401
v  -0.3576 -0.0156 1.1790
v  -0.1498 -0.0156 1.3178
v  -0.6172 0.0156 1.8336
v  -0.7758 0.0156 1.6404
v  -0.9344 0.0156 1.4471
v  -0.9344 -0.0156 1.4471
v  -0.7758 -0.0156 1.6404
v  -0.6172 -0.0156 1.8336
v  -1.2143 0.0156 2.1915
v  -1.3100 0.0156 1.9605
v  -1.4057 0.0156 1.7296
v  -1.4057 -0.0156 1.7296
v  -1.3100 -0.0156 1.9605
v  -1.2143 -0.0156 2.1915
v  -2.8700 0.0156 3.9211
v  -2.8700 -0.0156 3.9211
v  -2.6200 -0.0156 3.9211
v  -2.6200 0.0156 3.9211
v  -2.3700 -0.0156 3.9211
v  -2.3700 0.0156 3.9211
v  -2.5286 0.0156 3.3051
v  -2.7678 0.0156 3.2325
v  -2.2894 0.0156 3.3776
v  -2.2623 0.0156 2.7421
v  -2.4702 0.0156 2.6032
v  -2.0545 0.0156 2.8810
v  -1.8441 0.0156 2.2807
v  -2.0027 0.0156 2.0874
v  -1.6855 0.0156 2.4739
v  -2.2894 -0.0156 3.3776
v  -2.0545 -0.0156 2.8810
v  -1.6855 -0.0156 2.4739
v  -2.5286 -0.0156 3.3051
v  -2.7678 -0.0156 3.2325
v  -2.2623 -0.0156 2.7421
v  -2.4702 -0.0156 2.6032
v  -1.8441 -0.0156 2.2807
v  -2.0027 -0.0156 2.0874
v  0.2500 -0.0156 -0.5938
v  -0.2500 -0.0156 -0.5937
v  0.2500 -0.0156 -0.4063
v  -0.2500 -0.0156 -0.4062
v  0.2500 0.0469 -0.5938
v  -0.2500 0.0469 -0.5937
v  0.2500 0.0469 -0.4063
v  -0.2500 0.0469 -0.4062
v  0.2500 0.0156 -0.0000
v  0.2500 0.0156 -0.0000
v  0.0000 0.0156 0.0000
v  -0.2500 0.0156 0.0000
v  -0.2500 0.0156 0.0000
v  0.2500 -0.0156 -0.0000
v  0.2500 -0.0156 -0.0000
v  -0.0000 -0.0156 -0.0000
v  -0.2500 -0.0156 0.0000
v  -0.2500 -0.0156 0.0000
v  0.1479 0.0156 0.6886
v  -0.3306 0.0156 0.5434
v  -0.3306 -0.0156 0.5434
v  0.1479 -0.0156 0.6886
v  -0.1498 0.0156 1.3178
v  -0.5655 0.0156 1.0401
v  -0.5655 -0.0156 1.0401
v  -0.1498 -0.0156 1.3178
v  -0.6172 0.0156 1.8336
v  -0.9344 0.0156 1.4471
v  -0.9344 -0.0156 1.4471
v  -0.6172 -0.0156 1.8336
v  -1.2143 0.0156 2.1915
v  -1.2143 0.0156 2.1915
v  -1.4057 0.0156 1.7296
v  -1.4057 0.0156 1.7296
v  -1.4057 -0.0156 1.7296
v  -1.4057 -0.0156 1.7296
v  -1.2143 -0.0156 2.1915
v  -1.2143 -0.0156 2.1915
v  -2.8700 0.0156 3.9211
v  -2.8700 0.0156 3.9211
v  -2.8700 -0.0156 3.9211
v  -2.8700 -0.0156 3.9211
v  -2.6200 -0.0156 3.9211
v  -2.6200 0.0156 3.9211
v  -2.3700 -0.0156 3.9211
v  -2.3700 -0.0156 3.9211
v  -2.3700 0.0156 3.9211
v  -2.3700 0.0156 3.9211
v  -2.7678 0.0156 3.2325
v  -2.2894 0.0156 3.3776
v  -2.4702 0.0156 2.6032
v  -2.0545 0.0156 2.8810
v  -2.0027 0.0156 2.0874
v  -1.6855 0.0156 2.4739
v  -2.2894 -0.0156 3.3776
v  -2.0545 -0.0156 2.8810
v  -1.6855 -0.0156 2.4739
v  -2.7678 -0.0156 3.2325
v  -2.4702 -0.0156 2.6032
v  -2.0027 -0.0156 2.0874
v  0.2500 -0.0156 -0.5938
v  0.2500 -0.0156 -0.5938
v  -0.2500 -0.0156 -0.5937
v  -0.2500 -0.0156 -0.5937
v  0.2500 -0.0156 -0.4063
v  0.2500 -0.0156 -0.4063
v  -0.2500 -0.0156 -0.4062
v  -0.2500 -0.0156 -0.4062
v  0.2500 0.0469 -0.5938
v  0.2500 0.0469 -0.5938
v  -0.2500 0.0469 -0.5937
v  -0.2500 0.0469 -0.5937
v  0.2500 0.0469 -0.4063
v  0.2500 0.0469 -0.4063
v  -0.2500 0.0469 -0.4062
v  -0.2500 0.0469 -0.4062
# 130 vertices

vn -0.0000 0.0000 -1.0000
vn -0.0000 0.0000 -1.0000
vn -0.0000 0.0000 -1.0000
vn -0.0000 0.0000 -1.0000
vn -0.0000 0.0000 -1.0000
vn -0.0000 0.0000 -1.0000
vn -0.0000 0.0000 -1.0000
vn -0.0000 0.0000 -1.0000
vn -0.0000 0.0000 -1.0000
vn -0.0000 0.0000 -1.0000
vn -0.0000 0.0000 -1.0000
vn -0.0000 0.0000 -1.0000
vn -0.0000 1.0000 0.0000
vn -0.0000 1.0000 0.0000
vn -0.0000 1.0000 0.0000
vn -0.0000 1.0000 0.0000
vn 0.0000 1.0000 0.0000
vn -0.0000 1.0000 0.0000
vn 0.0000 1.0000 0.0000
vn -0.0000 1.0000 0.0000
vn 0.0000 1.0000 0.0000
vn 0.0000 1.0000 0.0000
vn 0.0000 1.0000 0.0000
vn 0.0000 1.0000 0.0000
vn 0.0000 1.0000 0.0000
vn 0.0000 1.0000 0.0000
vn -0.0000 1.0000 0.0000
vn -0.0000 1.0000 0.0000
vn -0.0000 1.0000 0.0000
vn 0.0000 1.0000 0.0000
vn -0.0000 1.0000 0.0000
vn 0.0000 1.0000 0.0000
vn -0.0000 1.0000 0.0000
vn -0.0000 1.0000 0.0000
vn 0.0000 1.0000 0.0000
vn -0.0000 1.0000 0.0000
vn 0.0000 1.0000 0.0000
vn 0.0000 1.0000 0.0000
vn 0.0000 1.0000 0.0000
vn 0.0000 1.0000 0.0000
vn 0.0000 1.0000 0.0000
vn 0.0000 1.0000 0.0000
vn -0.0000 1.0000 0.0000
vn 0.0000 1.0000 0.0000
vn 0.0000 1.0000 0.0000
vn 0.0000 1.0000 0.0000
vn -0.0000 1.0000 0.0000
vn -0.0000 1.0000 0.0000
vn -0.0000 1.0000 0.0000
vn -0.0000 1.0000 0.0000
vn 0.0000 1.0000 0.0000
vn 0.0000 1.0000 0.0000
vn 0.0000 1.0000 0.0000
vn -0.0000 1.0000 0.0000
vn -0.0000 1.0000 0.0000
vn -0.0000 1.0000 0.0000
vn 0.0000 1.0000 0.0000
vn 0.0000 1.0000 0.0000
vn -0.0000 1.0000 0.0000
vn -0.0000 1.0000 0.0000
vn -0.9569 0.0000 -0.2903
vn -0.9569 0.0000 -0.2903
vn -0.9892 0.0000 -0.1467
vn -0.9892 0.0000 -0.1467
vn -0.9892 0.0000 -0.1467
vn -0.9569 0.0000 -0.2903
vn -0.8315 0.0000 -0.5556
vn -0.8315 0.0000 -0.5556
vn -0.9569 0.0000 -0.2903
vn -0.9569 0.0000 -0.2903
vn -0.9569 0.0000 -0.2903
vn -0.8315 0.0000 -0.5556
vn -0.6344 0.0000 -0.7730
vn -0.6344 0.0000 -0.7730
vn -0.8315 0.0000 -0.5556
vn -0.8315 0.0000 -0.5556
vn -0.8315 0.0000 -0.5556
vn -0.6344 0.0000 -0.7730
vn -0.5141 0.0000 -0.8577
vn -0.5141 0.0000 -0.8577
vn -0.6344 0.0000 -0.7730
vn -0.6344 0.0000 -0.7730
vn -0.6344 0.0000 -0.7730
vn -0.5141 0.0000 -0.8577
vn 0.0000 -1.0000 -0.0000
vn 0.0000 -1.0000 -0.0000
vn 0.0000 -1.0000 -0.0000
vn 0.0000 -1.0000 -0.0000
vn 0.0000 -1.0000 -0.0000
vn 0.0000 -1.0000 -0.0000
vn 0.0000 -1.0000 -0.0000
vn 0.0000 -1.0000 -0.0000
vn 0.0000 -1.0000 -0.0000
vn 0.0000 -1.0000 -0.0000
vn -0.0000 -1.0000 -0.0000
vn 0.0000 -1.0000 -0.0000
vn 0.0000 -1.0000 -0.0000
vn 0.0000 -1.0000 -0.0000
vn 0.0000 -1.0000 -0.0000
vn 0.0000 -1.0000 -0.0000
vn 0.0000 -1.0000 -0.0000
vn 0.0000 -1.0000 -0.0000
vn 0.0000 -1.0000 -0.0000
vn 0.0000 -1.0000 -0.0000
vn 0.0000 -1.0000 -0.0000
vn 0.0000 -1.0000 -0.0000
vn 0.0000 -1.0000 -0.0000
vn 0.0000 -1.0000 -0.0000
vn 0.0000 -1.0000 -0.0000
vn 0.0000 -1.0000 -0.0000
vn 0.0000 -1.0000 -0.0000
vn 0.0000 -1.0000 -0.0000
vn 0.0000 -1.0000 -0.0000
vn 0.0000 -1.0000 -0.0000
vn 0.0000 -1.0000 -0.0000
vn 0.0000 -1.0000 -0.0000
vn 0.0000 -1.0000 -0.0000
vn 0.0000 -1.0000 -0.0000
vn 0.0000 -1.0000 -0.0000
vn 0.0000 -1.0000 -0.0000
vn -0.0000 -1.0000 -0.0000
vn 0.0000 -1.0000 -0.0000
vn 0.0000 -1.0000 -0.0000
vn 0.0000 -1.0000 -0.0000
vn 0.0000 -1.0000 -0.0000
vn -0.0000 -1.0000 -0.0000
vn -0.0000 -1.0000 -0.0000
vn -0.0000 -1.0000 -0.0000
vn 0.0000 -1.0000 -0.0000
vn 0.0000 -1.0000 -0.0000
vn 0.0000 -1.0000 -0.0000
vn -0.0000 -1.0000 -0.0000
vn 0.9569 -0.0000 0.2903
vn 0.9569 0.0000 0.2903
vn 0.9892 -0.0000 0.1467
vn 0.9892 -0.0000 0.1467
vn 0.9892 -0.0000 0.1467
vn 0.9569 -0.0000 0.2903
vn 0.8315 0.0000 0.5556
vn 0.8315 0.0000 0.5556
vn 0.9569 0.0000 0.2903
vn 0.9569 0.0000 0.2903
vn 0.9569 -0.0000 0.2903
vn 0.8315 0.0000 0.5556
vn 0.6344 0.0000 0.7730
vn 0.6344 0.0000 0.7730
vn 0.8315 0.0000 0.5556
vn 0.8315 0.0000 0.5556
vn 0.8315 0.0000 0.5556
vn 0.6344 0.0000 0.7730
vn 0.5141 0.0000 0.8577
vn 0.5141 0.0000 0.8577
vn 0.6344 0.0000 0.7730
vn 0.6344 0.0000 0.7730
vn 0.6344 0.0000 0.7730
vn 0.5141 0.0000 0.8577
vn 0.0000 0.0000 1.0000
vn 0.0000 -0.0000 1.0000
vn 0.0000 0.0000 1.0000
vn 0.0000 0.0000 1.0000
vn 0.0000 0.0000 1.0000
vn 0.0000 0.0000 1.0000
vn 0.0000 -0.0000 1.0000
vn 0.0000 -0.0000 1.0000
vn 0.0000 -0.0000 1.0000
vn 0.0000 -0.0000 1.0000
vn 0.0000 0.0000 1.0000
vn 0.0000 -0.0000 1.0000
vn 0.0000 1.0000 0.0000
vn 0.0000 1.0000 0.0000
vn 0.0000 1.0000 0.0000
vn 0.0000 1.0000 0.0000
vn 0.0000 1.0000 0.0000
vn 0.0000 1.0000 0.0000
vn 0.0000 1.0000 0.0000
vn 0.0000 1.0000 0.0000
vn 0.0000 1.0000 0.0000
vn 0.0000 1.0000 0.0000
vn 0.0000 1.0000 0.0000
vn 0.0000 1.0000 0.0000
vn 0.0000 1.0000 0.0000
vn 0.0000 1.0000 0.0000
vn 0.0000 1.0000 0.0000
vn 0.0000 1.0000 0.0000
vn 0.0000 1.0000 0.0000
vn 0.0000 1.0000 0.0000
vn -0.0000 1.0000 0.0000
vn 0.0000 1.0000 0.0000
vn 0.0000 1.0000 0.0000
vn 0.0000 1.0000 0.0000
vn 0.0000 1.0000 0.0000
vn -0.0000 1.0000 0.0000
vn 0.0000 1.0000 0.0000
vn 0.0000 1.0000 0.0000
vn 0.0000 1.0000 0.0000
vn 0.0000 1.0000 0.0000
vn 0.0000 1.0000 0.0000
vn 0.0000 1.0000 0.0000
vn -0.0000 1.0000 0.0000
vn 0.0000 1.0000 0.0000
vn 0.0000 1.0000 0.0000
vn 0.0000 1.0000 0.0000
vn -0.0000 1.0000 0.0000
vn -0.0000 1.0000 0.0000
vn -0.0000 1.0000 0.0000
vn -0.0000 1.0000 0.0000
vn 0.0000 1.0000 0.0000
vn 0.0000 1.0000 0.0000
vn 0.0000 1.0000 0.0000
vn -0.0000 1.0000 0.0000
vn -0.0000 1.0000 0.0000
vn -0.0000 1.0000 0.0000
vn 0.0000 1.0000 0.0000
vn 0.0000 1.0000 0.0000
vn -0.0000 1.0000 0.0000
vn -0.0000 1.0000 0.0000
vn 0.9569 -0.0000 0.2903
vn 0.9569 0.0000 0.2903
vn 0.9892 -0.0000 0.1467
vn 0.9892 -0.0000 0.1467
vn 0.9892 -0.0000 0.1467
vn 0.9569 -0.0000 0.2903
vn 0.8315 0.0000 0.5556
vn 0.8315 0.0000 0.5556
vn 0.9569 0.0000 0.2903
vn 0.9569 0.0000 0.2903
vn 0.9569 -0.0000 0.2903
vn 0.8315 0.0000 0.5556
vn 0.6344 0.0000 0.7730
vn 0.6344 0.0000 0.7730
vn 0.8315 0.0000 0.5556
vn 0.8315 0.0000 0.5556
vn 0.8315 0.0000 0.5556
vn 0.6344 0.0000 0.7730
vn 0.5141 0.0000 0.8577
vn 0.5141 0.0000 0.8577
vn 0.6344 0.0000 0.7730
vn 0.6344 0.0000 0.7730
vn 0.6344 0.0000 0.7730
vn 0.5141 0.0000 0.8577
vn 0.0000 -1.0000 -0.0000
vn 0.0000 -1.0000 -0.0000
vn 0.0000 -1.0000 -0.0000
vn 0.0000 -1.0000 -0.0000
vn 0.0000 -1.0000 -0.0000
vn 0.0000 -1.0000 -0.0000
vn 0.0000 -1.0000 -0.0000
vn 0.0000 -1.0000 -0.0000
vn 0.0000 -1.0000 -0.0000
vn 0.0000 -1.0000 -0.0000
vn 0.0000 -1.0000 -0.0000
vn 0.0000 -1.0000 -0.0000
vn 0.0000 -1.0000 -0.0000
vn 0.0000 -1.0000 -0.0000
vn 0.0000 -1.0000 -0.0000
vn 0.0000 -1.0000 -0.0000
vn 0.0000 -1.0000 -0.0000
vn 0.0000 -1.0000 -0.0000
vn 0.0000 -1.0000 -0.0000
vn 0.0000 -1.0000 -0.0000
vn 0.0000 -1.0000 -0.0000
vn 0.0000 -1.0000 -0.0000
vn 0.0000 -1.0000 -0.0000
vn 0.0000 -1.0000 -0.0000
vn 0.0000 -1.0000 -0.0000
vn -0.0000 -1.0000 -0.0000
vn 0.0000 -1.0000 -0.0000
vn 0.0000 -1.0000 -0.0000
vn 0.0000 -1.0000 -0.0000
vn 0.0000 -1.0000 -0.0000
vn 0.0000 -1.0000 -0.0000
vn 0.0000 -1.0000 -0.0000
vn 0.0000 -1.0000 -0.0000
vn 0.0000 -1.0000 -0.0000
vn 0.0000 -1.0000 -0.0000
vn 0.0000 -1.0000 -0.0000
vn -0.0000 -1.0000 -0.0000
vn -0.0000 -1.0000 -0.0000
vn -0.0000 -1.0000 -0.0000
vn -0.0000 -1.0000 -0.0000
vn 0.0000 -1.0000 -0.0000
vn -0.0000 -1.0000 -0.0000
vn 0.0000 -1.0000 -0.0000
vn -0.0000 -1.0000 -0.0000
vn 0.0000 -1.0000 -0.0000
vn 0.0000 -1.0000 -0.0000
vn 0.0000 -1.0000 -0.0000
vn 0.0000 -1.0000 -0.0000
vn -0.9569 0.0000 -0.2903
vn -0.9569 0.0000 -0.2903
vn -0.9892 0.0000 -0.1467
vn -0.9892 0.0000 -0.1467
vn -0.9892 0.0000 -0.1467
vn -0.9569 0.0000 -0.2903
vn -0.8315 0.0000 -0.5556
vn -0.8315 0.0000 -0.5556
vn -0.9569 0.0000 -0.2903
vn -0.9569 0.0000 -0.2903
vn -0.9569 0.0000 -0.2903
vn -0.8315 0.0000 -0.5556
vn -0.6344 0.0000 -0.7730
vn -0.6344 0.0000 -0.7730
vn -0.8315 0.0000 -0.5556
vn -0.8315 0.0000 -0.5556
vn -0.8315 0.0000 -0.5556
vn -0.6344 0.0000 -0.7730
vn -0.5141 0.0000 -0.8577
vn -0.5141 0.0000 -0.8577
vn -0.6344 0.0000 -0.7730
vn -0.6344 0.0000 -0.7730
vn -0.6344 0.0000 -0.7730
vn -0.5141 0.0000 -0.8577
vn -0.0000 -1.0000 -0.0000
vn -0.0000 -1.0000 -0.0000
vn -0.0000 -1.0000 -0.0000
vn -0.0000 -1.0000 -0.0000
vn -0.0000 -1.0000 -0.0000
vn -0.0000 -1.0000 -0.0000
vn 0.0000 1.0000 0.0000
vn 0.0000 1.0000 0.0000
vn 0.0000 1.0000 0.0000
vn 0.0000 1.0000 0.0000
vn 0.0000 1.0000 0.0000
vn 0.0000 1.0000 0.0000
vn -0.0000 0.0000 -1.0000
vn -0.0000 0.0000 -1.0000
vn -0.0000 0.0000 -1.0000
vn -0.0000 0.0000 -1.0000
vn -0.0000 0.0000 -1.0000
vn -0.0000 0.0000 -1.0000
vn -1.0000 -0.0000 0.0000
vn -1.0000 -0.0000 0.0000
vn -1.0000 -0.0000 0.0000
vn -1.0000 -0.0000 0.0000
vn -1.0000 0.0000 0.0000
vn -1.0000 -0.0000 0.0000
vn 0.0000 -0.0000 1.0000
vn 0.0000 0.0000 1.0000
vn 0.0000 -0.0000 1.0000
vn 0.0000 -0.0000 1.0000
vn 0.0000 -0.0000 1.0000
vn 0.0000 -0.0000 1.0000
vn 1.0000 0.0000 -0.0000
vn 1.0000 0.0000 -0.0000
vn 1.0000 0.0000 -0.0000
vn 1.0000 0.0000 -0.0000
vn 1.0000 0.0000 -0.0000
vn 1.0000 0.0000 -0.0000
# 348 vertex normals

vt 0.0000 0.0000 0.0000
vt 1.0000 0.0000 0.0000
vt 0.0000 0.1250 0.0000
vt 1.0000 0.1250 0.0000
vt 0.0000 0.2500 0.0000
vt 1.0000 0.2500 0.0000
vt 0.0000 0.3750 0.0000
vt 1.0000 0.3750 0.0000
vt 0.0000 0.5000 0.0000
vt 1.0000 0.5000 0.0000
vt 0.0000 0.0000 0.0000
vt 0.5000 0.0000 0.0000
vt 1.0000 0.0000 0.0000
vt 0.0000 0.1250 0.0000
vt 0.5000 0.1250 0.0000
vt 1.0000 0.1250 0.0000
vt 0.0000 0.2500 0.0000
vt 0.5000 0.2500 0.0000
vt 1.0000 0.2500 0.0000
vt 0.0000 0.3750 0.0000
vt 0.5000 0.3750 0.0000
vt 1.0000 0.3750 0.0000
vt 0.0000 0.5000 0.0000
vt 0.5000 0.5000 0.0000
vt 1.0000 0.5000 0.0000
vt 0.0000 0.0000 0.0000
vt 0.5000 0.0000 0.0000
vt 1.0000 0.0000 0.0000
vt 0.0000 1.0000 0.0000
vt 0.5000 1.0000 0.0000
vt 1.0000 1.0000 0.0000
vt 1.0000 0.0000 0.0000
vt 1.0000 1.0000 0.0000
vt 0.5000 1.0000 0.0000
vt 0.5000 0.0000 0.0000
vt 0.0000 1.0000 0.0000
vt 0.0000 0.0000 0.0000
vt 0.0000 0.0000 0.0000
vt 0.5000 0.0000 0.0000
vt 0.5000 0.1250 0.0000
vt 0.0000 0.1250 0.0000
vt 1.0000 0.0000 0.0000
vt 1.0000 0.1250 0.0000
vt 0.5000 0.2500 0.0000
vt 0.0000 0.2500 0.0000
vt 1.0000 0.2500 0.0000
vt 0.5000 0.3750 0.0000
vt 0.0000 0.3750 0.0000
vt 1.0000 0.3750 0.0000
vt 0.5000 0.5000 0.0000
vt 0.0000 0.5000 0.0000
vt 1.0000 0.5000 0.0000
vt 0.0000 0.0000 0.0000
vt 1.0000 0.0000 0.0000
vt 1.0000 0.1250 0.0000
vt 0.0000 0.1250 0.0000
vt 1.0000 0.2500 0.0000
vt 0.0000 0.2500 0.0000
vt 1.0000 0.3750 0.0000
vt 0.0000 0.3750 0.0000
vt 1.0000 0.5000 0.0000
vt 0.0000 0.5000 0.0000
vt 1.0000 0.0000 0.0000
vt 0.0000 0.0000 0.0000
vt 1.0000 1.0000 0.0000
vt 0.0000 1.0000 0.0000
vt 0.0000 0.0000 0.0000
vt 1.0000 0.0000 0.0000
vt 0.0000 1.0000 0.0000
vt 1.0000 1.0000 0.0000
vt 0.0000 0.0000 0.0000
vt 1.0000 0.0000 0.0000
vt 0.0000 1.0000 0.0000
vt 1.0000 1.0000 0.0000
vt 0.0000 0.0000 0.0000
vt 1.0000 0.0000 0.0000
vt 0.0000 1.0000 0.0000
vt 1.0000 1.0000 0.0000
vt 0.0000 0.0000 0.0000
vt 1.0000 0.0000 0.0000
vt 0.0000 1.0000 0.0000
vt 1.0000 1.0000 0.0000
vt 0.0000 0.0000 0.0000
vt 1.0000 0.0000 0.0000
vt 0.0000 1.0000 0.0000
vt 1.0000 1.0000 0.0000
# 86 texture coords

g Bank_5_135
usemtl wire_135006006
f 70/30/1 2/27/2 64/28/3 
f 64/28/4 69/31/5 70/30/6 
f 6/29/7 3/26/8 2/27/9 
f 2/27/10 70/30/11 6/29/12 
f 8/15/13 7/14/14 1/11/15 
f 1/11/16 65/12/17 8/15/18 
f 74/16/19 8/15/20 65/12/21 
f 65/12/22 67/13/23 74/16/24 
f 14/18/25 13/17/26 7/14/27 
f 7/14/28 8/15/29 14/18/30 
f 78/19/31 14/18/32 8/15/33 
f 8/15/34 74/16/35 78/19/36 
f 20/21/37 19/20/38 13/17/39 
f 13/17/40 14/18/41 20/21/42 
f 82/22/43 20/21/44 14/18/45 
f 14/18/46 78/19/47 82/22/48 
f 26/24/49 25/23/50 19/20/51 
f 19/20/52 20/21/53 26/24/54 
f 88/25/55 26/24/56 20/21/57 
f 20/21/58 82/22/59 88/25/60 
f 75/4/61 9/3/62 66/1/63 
f 66/1/64 72/2/65 75/4/66 
f 79/6/67 15/5/68 9/3/69 
f 9/3/70 75/4/71 79/6/72 
f 83/8/73 21/7/74 15/5/75 
f 15/5/76 79/6/77 83/8/78 
f 90/10/79 27/9/80 21/7/81 
f 21/7/82 83/8/83 90/10/84 
f 11/15/85 10/14/86 71/11/87 
f 71/11/88 5/12/89 11/15/90 
f 76/16/91 11/15/92 5/12/93 
f 5/12/94 68/13/95 76/16/96 
f 17/18/97 16/17/98 10/14/99 
f 10/14/100 11/15/101 17/18/102 
f 80/19/103 17/18/104 11/15/105 
f 11/15/106 76/16/107 80/19/108 
f 23/21/109 22/20/110 16/17/111 
f 16/17/112 17/18/113 23/21/114 
f 84/22/115 23/21/116 17/18/117 
f 17/18/118 80/19/119 84/22/120 
f 29/24/121 28/23/122 22/20/123 
f 22/20/124 23/21/125 29/24/126 
f 92/25/127 29/24/128 23/21/129 
f 23/21/130 84/22/131 92/25/132 
f 73/4/133 12/3/134 4/1/135 
f 4/1/136 63/2/137 73/4/138 
f 77/6/139 18/5/140 12/3/141 
f 12/3/142 73/4/143 77/6/144 
f 81/8/145 24/7/146 18/5/147 
f 18/5/148 77/6/149 81/8/150 
f 86/10/151 30/9/152 24/7/153 
f 24/7/154 81/8/155 86/10/156 
f 97/34/157 34/35/158 31/32/159 
f 31/32/160 96/33/161 97/34/162 
f 100/36/163 36/37/164 34/35/165 
f 34/35/166 97/34/167 100/36/168 
f 37/40/169 38/41/170 93/38/171 
f 93/38/172 98/39/173 37/40/174 
f 104/43/175 37/40/176 98/39/177 
f 98/39/178 102/42/179 104/43/180 
f 40/44/181 41/45/182 38/41/183 
f 38/41/184 37/40/185 40/44/186 
f 106/46/187 40/44/188 37/40/189 
f 37/40/190 104/43/191 106/46/192 
f 43/47/193 107/48/194 41/45/195 
f 41/45/196 40/44/197 43/47/198 
f 45/49/199 43/47/200 40/44/201 
f 40/44/202 106/46/203 45/49/204 
f 26/50/205 88/51/206 107/48/207 
f 107/48/208 43/47/209 26/50/210 
f 25/52/211 26/50/212 43/47/213 
f 43/47/214 45/49/215 25/52/216 
f 109/55/217 39/56/218 101/53/219 
f 101/53/220 99/54/221 109/55/222 
f 110/57/223 42/58/224 39/56/225 
f 39/56/226 109/55/227 110/57/228 
f 48/59/229 108/60/230 42/58/231 
f 42/58/232 110/57/233 48/59/234 
f 91/61/235 85/62/236 108/60/237 
f 108/60/238 48/59/239 91/61/240 
f 49/40/241 46/41/242 35/38/243 
f 35/38/244 33/39/245 49/40/246 
f 112/43/247 49/40/248 33/39/249 
f 33/39/250 95/42/251 112/43/252 
f 51/44/253 47/45/254 46/41/255 
f 46/41/256 49/40/257 51/44/258 
f 52/46/259 51/44/260 49/40/261 
f 49/40/262 112/43/263 52/46/264 
f 53/47/265 111/48/266 47/45/267 
f 47/45/268 51/44/269 53/47/270 
f 54/49/271 53/47/272 51/44/273 
f 51/44/274 52/46/275 54/49/276 
f 29/50/277 92/51/278 111/48/279 
f 111/48/280 53/47/281 29/50/282 
f 28/52/283 29/50/284 53/47/285 
f 53/47/286 54/49/287 28/52/288 
f 103/55/289 50/56/290 32/53/291 
f 32/53/292 94/54/293 103/55/294 
f 105/57/295 113/58/296 50/56/297 
f 50/56/298 103/55/299 105/57/300 
f 44/59/301 114/60/302 113/58/303 
f 113/58/304 105/57/305 44/59/306 
f 87/61/307 89/62/308 114/60/309 
f 114/60/310 44/59/311 87/61/312 
f 116/63/313 120/65/314 58/66/315 
f 58/66/316 56/64/317 116/63/318 
f 123/67/319 125/68/320 129/70/321 
f 129/70/322 127/69/323 123/67/324 
f 55/71/325 118/72/326 126/74/327 
f 126/74/328 59/73/329 55/71/330 
f 117/75/331 122/76/332 130/78/333 
f 130/78/334 60/77/335 117/75/336 
f 121/79/337 119/80/338 128/82/339 
f 128/82/340 62/81/341 121/79/342 
f 57/83/343 115/84/344 124/86/345 
f 124/86/346 61/85/347 57/83/348 
# 116 faces

