# 3ds Max Wavefront OBJ Exporter v0.97b - (c)2007 guruware
# File Created: 07.03.2017 18:29:23

mtllib Bank-5-180_MSH.mtl

#
# object Bank_5_180
#

v  -0.2500 0.0156 -0.0000
v  0.0000 0.0156 -0.0000
v  0.2500 0.0156 -0.0000
v  -0.2500 -0.0156 0.0000
v  0.0000 -0.0156 0.0000
v  0.2500 -0.0156 0.0000
v  -0.1098 0.0156 -0.7047
v  0.1211 0.0156 -0.6091
v  0.3521 0.0156 -0.5134
v  0.3521 -0.0156 -0.5134
v  0.1211 -0.0156 -0.6091
v  -0.1098 -0.0156 -0.7047
v  0.2894 0.0156 -1.3022
v  0.4662 0.0156 -1.1254
v  0.6429 0.0156 -0.9486
v  0.6429 -0.0156 -0.9486
v  0.4662 -0.0156 -1.1254
v  0.2894 -0.0156 -1.3022
v  0.8868 0.0156 -1.7014
v  0.9825 0.0156 -1.4704
v  1.0782 0.0156 -1.2394
v  1.0782 -0.0156 -1.2394
v  0.9825 -0.0156 -1.4704
v  0.8868 -0.0156 -1.7014
v  1.5915 0.0156 -1.5915
v  1.5915 -0.0156 -1.3415
v  1.5915 -0.0156 -1.5915
v  3.4331 0.0156 -3.1831
v  3.4331 -0.0156 -3.1831
v  3.1831 -0.0156 -3.1831
v  3.1831 0.0156 -3.1831
v  2.9331 -0.0156 -3.1831
v  2.9331 0.0156 -3.1831
v  3.0619 0.0156 -2.5740
v  3.2929 0.0156 -2.4784
v  2.8310 0.0156 -2.6697
v  2.7169 0.0156 -2.0577
v  2.8937 0.0156 -1.8809
v  2.5402 0.0156 -2.2345
v  2.2006 0.0156 -1.7127
v  2.2963 0.0156 -1.4817
v  2.1049 0.0156 -1.9437
v  1.5915 0.0156 -1.3415
v  1.5915 0.0156 -1.8415
v  2.8310 -0.0156 -2.6697
v  2.5402 -0.0156 -2.2345
v  2.1049 -0.0156 -1.9437
v  1.5915 -0.0156 -1.8415
v  3.0619 -0.0156 -2.5740
v  3.2929 -0.0156 -2.4784
v  2.7169 -0.0156 -2.0577
v  2.8937 -0.0156 -1.8809
v  2.2006 -0.0156 -1.7127
v  2.2963 -0.0156 -1.4817
v  -0.2500 -0.0313 0.7188
v  0.2500 -0.0313 0.7188
v  -0.2500 -0.0313 0.5312
v  0.2500 -0.0313 0.5313
v  -0.2500 0.0312 0.7188
v  0.2500 0.0312 0.7188
v  -0.2500 0.0312 0.5312
v  0.2500 0.0312 0.5313
v  -0.2500 0.0156 -0.0000
v  -0.2500 0.0156 -0.0000
v  0.0000 0.0156 -0.0000
v  0.2500 0.0156 -0.0000
v  0.2500 0.0156 -0.0000
v  -0.2500 -0.0156 0.0000
v  -0.2500 -0.0156 0.0000
v  0.0000 -0.0156 0.0000
v  0.2500 -0.0156 0.0000
v  0.2500 -0.0156 0.0000
v  -0.1098 0.0156 -0.7047
v  0.3521 0.0156 -0.5134
v  0.3521 -0.0156 -0.5134
v  -0.1098 -0.0156 -0.7047
v  0.2894 0.0156 -1.3022
v  0.6429 0.0156 -0.9486
v  0.6429 -0.0156 -0.9486
v  0.2894 -0.0156 -1.3022
v  0.8868 0.0156 -1.7014
v  1.0782 0.0156 -1.2394
v  1.0782 -0.0156 -1.2394
v  0.8868 -0.0156 -1.7014
v  1.5915 -0.0156 -1.3415
v  3.4331 0.0156 -3.1831
v  3.4331 0.0156 -3.1831
v  3.4331 -0.0156 -3.1831
v  3.4331 -0.0156 -3.1831
v  3.1831 -0.0156 -3.1831
v  3.1831 0.0156 -3.1831
v  2.9331 -0.0156 -3.1831
v  2.9331 -0.0156 -3.1831
v  2.9331 0.0156 -3.1831
v  2.9331 0.0156 -3.1831
v  3.2929 0.0156 -2.4784
v  2.8310 0.0156 -2.6697
v  2.8937 0.0156 -1.8809
v  2.5402 0.0156 -2.2345
v  2.2963 0.0156 -1.4817
v  2.1049 0.0156 -1.9437
v  1.5915 0.0156 -1.3415
v  1.5915 0.0156 -1.8415
v  1.5915 0.0156 -1.8415
v  2.8310 -0.0156 -2.6697
v  2.5402 -0.0156 -2.2345
v  2.1049 -0.0156 -1.9437
v  1.5915 -0.0156 -1.8415
v  1.5915 -0.0156 -1.8415
v  3.2929 -0.0156 -2.4784
v  2.8937 -0.0156 -1.8809
v  2.2963 -0.0156 -1.4817
v  -0.2500 -0.0313 0.7188
v  -0.2500 -0.0313 0.7188
v  0.2500 -0.0313 0.7188
v  0.2500 -0.0313 0.7188
v  -0.2500 -0.0313 0.5312
v  -0.2500 -0.0313 0.5312
v  0.2500 -0.0313 0.5313
v  0.2500 -0.0313 0.5313
v  -0.2500 0.0312 0.7188
v  -0.2500 0.0312 0.7188
v  0.2500 0.0312 0.7188
v  0.2500 0.0312 0.7188
v  -0.2500 0.0312 0.5312
v  -0.2500 0.0312 0.5312
v  0.2500 0.0312 0.5313
v  0.2500 0.0312 0.5313
# 128 vertices

vn -0.0000 0.0000 1.0000
vn -0.0000 0.0000 1.0000
vn -0.0000 0.0000 1.0000
vn -0.0000 0.0000 1.0000
vn -0.0000 0.0000 1.0000
vn -0.0000 0.0000 1.0000
vn -0.0000 0.0000 1.0000
vn -0.0000 0.0000 1.0000
vn -0.0000 0.0000 1.0000
vn -0.0000 0.0000 1.0000
vn -0.0000 0.0000 1.0000
vn -0.0000 0.0000 1.0000
vn 0.0000 1.0000 -0.0000
vn 0.0000 1.0000 -0.0000
vn 0.0000 1.0000 -0.0000
vn 0.0000 1.0000 -0.0000
vn 0.0000 1.0000 -0.0000
vn 0.0000 1.0000 -0.0000
vn 0.0000 1.0000 -0.0000
vn 0.0000 1.0000 -0.0000
vn 0.0000 1.0000 -0.0000
vn 0.0000 1.0000 -0.0000
vn 0.0000 1.0000 -0.0000
vn 0.0000 1.0000 -0.0000
vn 0.0000 1.0000 -0.0000
vn 0.0000 1.0000 -0.0000
vn 0.0000 1.0000 -0.0000
vn 0.0000 1.0000 -0.0000
vn 0.0000 1.0000 -0.0000
vn 0.0000 1.0000 -0.0000
vn 0.0000 1.0000 -0.0000
vn 0.0000 1.0000 -0.0000
vn 0.0000 1.0000 -0.0000
vn 0.0000 1.0000 -0.0000
vn 0.0000 1.0000 -0.0000
vn 0.0000 1.0000 -0.0000
vn 0.0000 1.0000 -0.0000
vn 0.0000 1.0000 -0.0000
vn 0.0000 1.0000 -0.0000
vn 0.0000 1.0000 -0.0000
vn 0.0000 1.0000 -0.0000
vn 0.0000 1.0000 -0.0000
vn 0.0000 1.0000 -0.0000
vn 0.0000 1.0000 -0.0000
vn 0.0000 1.0000 -0.0000
vn 0.0000 1.0000 -0.0000
vn 0.0000 1.0000 -0.0000
vn 0.0000 1.0000 -0.0000
vn 0.0000 1.0000 -0.0000
vn 0.0000 1.0000 -0.0000
vn 0.0000 1.0000 -0.0000
vn 0.0000 1.0000 -0.0000
vn 0.0000 1.0000 -0.0000
vn 0.0000 1.0000 -0.0000
vn 0.0000 1.0000 -0.0000
vn 0.0000 1.0000 -0.0000
vn 0.0000 1.0000 -0.0000
vn 0.0000 1.0000 -0.0000
vn 0.0000 1.0000 -0.0000
vn 0.0000 1.0000 -0.0000
vn 0.9239 0.0000 0.3827
vn 0.9239 0.0000 0.3827
vn 0.9808 0.0000 0.1951
vn 0.9808 0.0000 0.1951
vn 0.9808 0.0000 0.1951
vn 0.9239 0.0000 0.3827
vn 0.7071 0.0000 0.7071
vn 0.7071 0.0000 0.7071
vn 0.9239 0.0000 0.3827
vn 0.9239 0.0000 0.3827
vn 0.9239 0.0000 0.3827
vn 0.7071 0.0000 0.7071
vn 0.3827 0.0000 0.9239
vn 0.3827 0.0000 0.9239
vn 0.7071 0.0000 0.7071
vn 0.7071 0.0000 0.7071
vn 0.7071 0.0000 0.7071
vn 0.3827 0.0000 0.9239
vn 0.1951 0.0000 0.9808
vn 0.1951 0.0000 0.9808
vn 0.3827 0.0000 0.9239
vn 0.3827 0.0000 0.9239
vn 0.3827 0.0000 0.9239
vn 0.1951 0.0000 0.9808
vn 0.0000 -1.0000 0.0000
vn 0.0000 -1.0000 0.0000
vn 0.0000 -1.0000 0.0000
vn 0.0000 -1.0000 0.0000
vn 0.0000 -1.0000 0.0000
vn 0.0000 -1.0000 0.0000
vn 0.0000 -1.0000 0.0000
vn 0.0000 -1.0000 0.0000
vn 0.0000 -1.0000 0.0000
vn 0.0000 -1.0000 0.0000
vn 0.0000 -1.0000 0.0000
vn 0.0000 -1.0000 0.0000
vn 0.0000 -1.0000 0.0000
vn 0.0000 -1.0000 0.0000
vn 0.0000 -1.0000 0.0000
vn 0.0000 -1.0000 0.0000
vn 0.0000 -1.0000 0.0000
vn 0.0000 -1.0000 0.0000
vn 0.0000 -1.0000 0.0000
vn 0.0000 -1.0000 0.0000
vn 0.0000 -1.0000 0.0000
vn 0.0000 -1.0000 0.0000
vn 0.0000 -1.0000 0.0000
vn 0.0000 -1.0000 0.0000
vn 0.0000 -1.0000 0.0000
vn 0.0000 -1.0000 0.0000
vn 0.0000 -1.0000 0.0000
vn 0.0000 -1.0000 0.0000
vn 0.0000 -1.0000 0.0000
vn 0.0000 -1.0000 0.0000
vn 0.0000 -1.0000 0.0000
vn 0.0000 -1.0000 0.0000
vn 0.0000 -1.0000 0.0000
vn 0.0000 -1.0000 0.0000
vn 0.0000 -1.0000 0.0000
vn 0.0000 -1.0000 0.0000
vn 0.0000 -1.0000 0.0000
vn 0.0000 -1.0000 0.0000
vn 0.0000 -1.0000 0.0000
vn 0.0000 -1.0000 0.0000
vn 0.0000 -1.0000 0.0000
vn 0.0000 -1.0000 0.0000
vn 0.0000 -1.0000 0.0000
vn 0.0000 -1.0000 0.0000
vn 0.0000 -1.0000 0.0000
vn 0.0000 -1.0000 0.0000
vn 0.0000 -1.0000 0.0000
vn 0.0000 -1.0000 0.0000
vn -0.9239 -0.0000 -0.3827
vn -0.9239 -0.0000 -0.3827
vn -0.9808 -0.0000 -0.1951
vn -0.9808 -0.0000 -0.1951
vn -0.9808 -0.0000 -0.1951
vn -0.9239 -0.0000 -0.3827
vn -0.7071 -0.0000 -0.7071
vn -0.7071 -0.0000 -0.7071
vn -0.9239 -0.0000 -0.3827
vn -0.9239 -0.0000 -0.3827
vn -0.9239 -0.0000 -0.3827
vn -0.7071 -0.0000 -0.7071
vn -0.3827 -0.0000 -0.9239
vn -0.3827 -0.0000 -0.9239
vn -0.7071 -0.0000 -0.7071
vn -0.7071 -0.0000 -0.7071
vn -0.7071 -0.0000 -0.7071
vn -0.3827 -0.0000 -0.9239
vn -0.1951 -0.0000 -0.9808
vn -0.1951 -0.0000 -0.9808
vn -0.3827 -0.0000 -0.9239
vn -0.3827 -0.0000 -0.9239
vn -0.3827 -0.0000 -0.9239
vn -0.1951 -0.0000 -0.9808
vn 0.0000 -0.0000 -1.0000
vn 0.0000 -0.0000 -1.0000
vn 0.0000 -0.0000 -1.0000
vn 0.0000 -0.0000 -1.0000
vn 0.0000 -0.0000 -1.0000
vn 0.0000 -0.0000 -1.0000
vn 0.0000 -0.0000 -1.0000
vn 0.0000 -0.0000 -1.0000
vn 0.0000 -0.0000 -1.0000
vn 0.0000 -0.0000 -1.0000
vn 0.0000 -0.0000 -1.0000
vn 0.0000 -0.0000 -1.0000
vn 0.0000 1.0000 -0.0000
vn 0.0000 1.0000 -0.0000
vn 0.0000 1.0000 -0.0000
vn 0.0000 1.0000 -0.0000
vn 0.0000 1.0000 -0.0000
vn 0.0000 1.0000 -0.0000
vn 0.0000 1.0000 -0.0000
vn 0.0000 1.0000 -0.0000
vn 0.0000 1.0000 -0.0000
vn 0.0000 1.0000 -0.0000
vn 0.0000 1.0000 -0.0000
vn 0.0000 1.0000 -0.0000
vn 0.0000 1.0000 -0.0000
vn 0.0000 1.0000 -0.0000
vn 0.0000 1.0000 -0.0000
vn 0.0000 1.0000 -0.0000
vn 0.0000 1.0000 -0.0000
vn 0.0000 1.0000 -0.0000
vn 0.0000 1.0000 -0.0000
vn 0.0000 1.0000 -0.0000
vn 0.0000 1.0000 -0.0000
vn 0.0000 1.0000 -0.0000
vn 0.0000 1.0000 -0.0000
vn 0.0000 1.0000 -0.0000
vn 0.0000 1.0000 -0.0000
vn 0.0000 1.0000 -0.0000
vn 0.0000 1.0000 -0.0000
vn 0.0000 1.0000 -0.0000
vn 0.0000 1.0000 -0.0000
vn 0.0000 1.0000 -0.0000
vn 0.0000 1.0000 -0.0000
vn 0.0000 1.0000 -0.0000
vn 0.0000 1.0000 -0.0000
vn 0.0000 1.0000 -0.0000
vn 0.0000 1.0000 -0.0000
vn 0.0000 1.0000 -0.0000
vn 0.0000 1.0000 -0.0000
vn 0.0000 1.0000 -0.0000
vn 0.0000 1.0000 -0.0000
vn 0.0000 1.0000 -0.0000
vn 0.0000 1.0000 -0.0000
vn 0.0000 1.0000 -0.0000
vn 0.0000 1.0000 -0.0000
vn 0.0000 1.0000 -0.0000
vn 0.0000 1.0000 -0.0000
vn 0.0000 1.0000 -0.0000
vn 0.0000 1.0000 -0.0000
vn 0.0000 1.0000 -0.0000
vn -0.9239 -0.0000 -0.3827
vn -0.9239 -0.0000 -0.3827
vn -0.9808 -0.0000 -0.1951
vn -0.9808 -0.0000 -0.1951
vn -0.9808 -0.0000 -0.1951
vn -0.9239 -0.0000 -0.3827
vn -0.7071 -0.0000 -0.7071
vn -0.7071 -0.0000 -0.7071
vn -0.9239 -0.0000 -0.3827
vn -0.9239 -0.0000 -0.3827
vn -0.9239 -0.0000 -0.3827
vn -0.7071 -0.0000 -0.7071
vn -0.3827 -0.0000 -0.9239
vn -0.3827 -0.0000 -0.9239
vn -0.7071 -0.0000 -0.7071
vn -0.7071 -0.0000 -0.7071
vn -0.7071 -0.0000 -0.7071
vn -0.3827 -0.0000 -0.9239
vn -0.1951 -0.0000 -0.9808
vn -0.1951 -0.0000 -0.9808
vn -0.3827 -0.0000 -0.9239
vn -0.3827 -0.0000 -0.9239
vn -0.3827 -0.0000 -0.9239
vn -0.1951 -0.0000 -0.9808
vn 0.0000 -1.0000 0.0000
vn 0.0000 -1.0000 0.0000
vn 0.0000 -1.0000 0.0000
vn 0.0000 -1.0000 0.0000
vn 0.0000 -1.0000 0.0000
vn 0.0000 -1.0000 0.0000
vn 0.0000 -1.0000 0.0000
vn 0.0000 -1.0000 0.0000
vn 0.0000 -1.0000 0.0000
vn 0.0000 -1.0000 0.0000
vn 0.0000 -1.0000 0.0000
vn 0.0000 -1.0000 0.0000
vn 0.0000 -1.0000 0.0000
vn 0.0000 -1.0000 0.0000
vn 0.0000 -1.0000 0.0000
vn 0.0000 -1.0000 0.0000
vn 0.0000 -1.0000 0.0000
vn 0.0000 -1.0000 0.0000
vn 0.0000 -1.0000 0.0000
vn 0.0000 -1.0000 0.0000
vn 0.0000 -1.0000 0.0000
vn 0.0000 -1.0000 0.0000
vn 0.0000 -1.0000 0.0000
vn 0.0000 -1.0000 0.0000
vn 0.0000 -1.0000 0.0000
vn 0.0000 -1.0000 0.0000
vn 0.0000 -1.0000 0.0000
vn 0.0000 -1.0000 0.0000
vn 0.0000 -1.0000 0.0000
vn 0.0000 -1.0000 0.0000
vn 0.0000 -1.0000 0.0000
vn 0.0000 -1.0000 0.0000
vn 0.0000 -1.0000 0.0000
vn 0.0000 -1.0000 0.0000
vn 0.0000 -1.0000 0.0000
vn 0.0000 -1.0000 0.0000
vn 0.0000 -1.0000 0.0000
vn 0.0000 -1.0000 0.0000
vn 0.0000 -1.0000 0.0000
vn 0.0000 -1.0000 0.0000
vn 0.0000 -1.0000 0.0000
vn 0.0000 -1.0000 0.0000
vn 0.0000 -1.0000 0.0000
vn 0.0000 -1.0000 0.0000
vn 0.0000 -1.0000 0.0000
vn 0.0000 -1.0000 0.0000
vn 0.0000 -1.0000 0.0000
vn 0.0000 -1.0000 0.0000
vn 0.9239 0.0000 0.3827
vn 0.9239 0.0000 0.3827
vn 0.9808 0.0000 0.1951
vn 0.9808 0.0000 0.1951
vn 0.9808 0.0000 0.1951
vn 0.9239 0.0000 0.3827
vn 0.7071 0.0000 0.7071
vn 0.7071 0.0000 0.7071
vn 0.9239 0.0000 0.3827
vn 0.9239 0.0000 0.3827
vn 0.9239 0.0000 0.3827
vn 0.7071 0.0000 0.7071
vn 0.3827 0.0000 0.9239
vn 0.3827 0.0000 0.9239
vn 0.7071 0.0000 0.7071
vn 0.7071 0.0000 0.7071
vn 0.7071 0.0000 0.7071
vn 0.3827 0.0000 0.9239
vn 0.1951 0.0000 0.9808
vn 0.1951 0.0000 0.9808
vn 0.3827 0.0000 0.9239
vn 0.3827 0.0000 0.9239
vn 0.3827 0.0000 0.9239
vn 0.1951 0.0000 0.9808
vn 0.0000 -1.0000 0.0000
vn 0.0000 -1.0000 0.0000
vn 0.0000 -1.0000 0.0000
vn 0.0000 -1.0000 0.0000
vn 0.0000 -1.0000 0.0000
vn 0.0000 -1.0000 0.0000
vn -0.0000 1.0000 0.0000
vn 0.0000 1.0000 0.0000
vn -0.0000 1.0000 0.0000
vn -0.0000 1.0000 0.0000
vn -0.0000 1.0000 0.0000
vn -0.0000 1.0000 0.0000
vn 0.0000 0.0000 1.0000
vn 0.0000 0.0000 1.0000
vn 0.0000 0.0000 1.0000
vn 0.0000 0.0000 1.0000
vn 0.0000 0.0000 1.0000
vn 0.0000 0.0000 1.0000
vn 1.0000 0.0000 0.0000
vn 1.0000 0.0000 0.0000
vn 1.0000 0.0000 0.0000
vn 1.0000 0.0000 0.0000
vn 1.0000 0.0000 0.0000
vn 1.0000 0.0000 0.0000
vn 0.0000 -0.0000 -1.0000
vn 0.0000 -0.0000 -1.0000
vn 0.0000 -0.0000 -1.0000
vn 0.0000 -0.0000 -1.0000
vn 0.0000 -0.0000 -1.0000
vn 0.0000 -0.0000 -1.0000
vn -1.0000 -0.0000 -0.0000
vn -1.0000 -0.0000 -0.0000
vn -1.0000 -0.0000 -0.0000
vn -1.0000 -0.0000 -0.0000
vn -1.0000 -0.0000 -0.0000
vn -1.0000 -0.0000 -0.0000
# 348 vertex normals

vt 0.5000 0.0000 0.0000
vt 1.0000 0.0000 0.0000
vt 0.5000 0.1250 0.0000
vt 1.0000 0.1250 0.0000
vt 0.5000 0.2500 0.0000
vt 1.0000 0.2500 0.0000
vt 0.5000 0.3750 0.0000
vt 1.0000 0.3750 0.0000
vt 0.5000 0.5000 0.0000
vt 1.0000 0.5000 0.0000
vt 0.5000 0.0000 0.0000
vt 0.7500 0.0000 0.0000
vt 1.0000 0.0000 0.0000
vt 0.5000 0.1250 0.0000
vt 0.7500 0.1250 0.0000
vt 1.0000 0.1250 0.0000
vt 0.5000 0.2500 0.0000
vt 0.7500 0.2500 0.0000
vt 1.0000 0.2500 0.0000
vt 0.5000 0.3750 0.0000
vt 0.7500 0.3750 0.0000
vt 1.0000 0.3750 0.0000
vt 0.5000 0.5000 0.0000
vt 0.7500 0.5000 0.0000
vt 1.0000 0.5000 0.0000
vt 0.5000 0.0000 0.0000
vt 0.7500 0.0000 0.0000
vt 1.0000 0.0000 0.0000
vt 0.5000 1.0000 0.0000
vt 0.7500 1.0000 0.0000
vt 1.0000 1.0000 0.0000
vt 1.0000 0.0000 0.0000
vt 1.0000 1.0000 0.0000
vt 0.7500 1.0000 0.0000
vt 0.7500 0.0000 0.0000
vt 0.5000 1.0000 0.0000
vt 0.5000 0.0000 0.0000
vt 0.5000 0.0000 0.0000
vt 0.7500 0.0000 0.0000
vt 0.7500 0.1250 0.0000
vt 0.5000 0.1250 0.0000
vt 1.0000 0.0000 0.0000
vt 1.0000 0.1250 0.0000
vt 0.7500 0.2500 0.0000
vt 0.5000 0.2500 0.0000
vt 1.0000 0.2500 0.0000
vt 0.7500 0.3750 0.0000
vt 0.5000 0.3750 0.0000
vt 1.0000 0.3750 0.0000
vt 0.7500 0.5000 0.0000
vt 0.5000 0.5000 0.0000
vt 1.0000 0.5000 0.0000
vt 0.5000 0.0000 0.0000
vt 1.0000 0.0000 0.0000
vt 1.0000 0.1250 0.0000
vt 0.5000 0.1250 0.0000
vt 1.0000 0.2500 0.0000
vt 0.5000 0.2500 0.0000
vt 1.0000 0.3750 0.0000
vt 0.5000 0.3750 0.0000
vt 1.0000 0.5000 0.0000
vt 0.5000 0.5000 0.0000
vt 0.0000 0.4063 0.0000
vt 0.0000 0.5938 0.0000
vt 0.5000 0.5937 0.0000
vt 0.5000 0.4063 0.0000
vt 0.0000 0.4063 0.0000
vt 0.5000 0.4063 0.0000
vt 0.5000 0.5937 0.0000
vt 0.0000 0.5938 0.0000
# 70 texture coords

g Bank_5_180
usemtl wire_135006006
f 70/30/1 2/27/2 64/28/3 
f 64/28/4 69/31/5 70/30/6 
f 6/29/7 3/26/8 2/27/9 
f 2/27/10 70/30/11 6/29/12 
f 8/15/13 7/14/14 1/11/15 
f 1/11/16 65/12/17 8/15/18 
f 74/16/19 8/15/20 65/12/21 
f 65/12/22 67/13/23 74/16/24 
f 14/18/25 13/17/26 7/14/27 
f 7/14/28 8/15/29 14/18/30 
f 78/19/31 14/18/32 8/15/33 
f 8/15/34 74/16/35 78/19/36 
f 20/21/37 19/20/38 13/17/39 
f 13/17/40 14/18/41 20/21/42 
f 82/22/43 20/21/44 14/18/45 
f 14/18/46 78/19/47 82/22/48 
f 25/24/49 44/23/50 19/20/51 
f 19/20/52 20/21/53 25/24/54 
f 102/25/55 25/24/56 20/21/57 
f 20/21/58 82/22/59 102/25/60 
f 75/4/61 9/3/62 66/1/63 
f 66/1/64 72/2/65 75/4/66 
f 79/6/67 15/5/68 9/3/69 
f 9/3/70 75/4/71 79/6/72 
f 83/8/73 21/7/74 15/5/75 
f 15/5/76 79/6/77 83/8/78 
f 85/10/79 43/9/80 21/7/81 
f 21/7/82 83/8/83 85/10/84 
f 11/15/85 10/14/86 71/11/87 
f 71/11/88 5/12/89 11/15/90 
f 76/16/91 11/15/92 5/12/93 
f 5/12/94 68/13/95 76/16/96 
f 17/18/97 16/17/98 10/14/99 
f 10/14/100 11/15/101 17/18/102 
f 80/19/103 17/18/104 11/15/105 
f 11/15/106 76/16/107 80/19/108 
f 23/21/109 22/20/110 16/17/111 
f 16/17/112 17/18/113 23/21/114 
f 84/22/115 23/21/116 17/18/117 
f 17/18/118 80/19/119 84/22/120 
f 27/24/121 26/23/122 22/20/123 
f 22/20/124 23/21/125 27/24/126 
f 109/25/127 27/24/128 23/21/129 
f 23/21/130 84/22/131 109/25/132 
f 73/4/133 12/3/134 4/1/135 
f 4/1/136 63/2/137 73/4/138 
f 77/6/139 18/5/140 12/3/141 
f 12/3/142 73/4/143 77/6/144 
f 81/8/145 24/7/146 18/5/147 
f 18/5/148 77/6/149 81/8/150 
f 104/10/151 48/9/152 24/7/153 
f 24/7/154 81/8/155 104/10/156 
f 90/34/157 31/35/158 28/32/159 
f 28/32/160 89/33/161 90/34/162 
f 93/36/163 33/37/164 31/35/165 
f 31/35/166 90/34/167 93/36/168 
f 34/40/169 35/41/170 86/38/171 
f 86/38/172 91/39/173 34/40/174 
f 97/43/175 34/40/176 91/39/177 
f 91/39/178 95/42/179 97/43/180 
f 37/44/181 38/45/182 35/41/183 
f 35/41/184 34/40/185 37/44/186 
f 99/46/187 37/44/188 34/40/189 
f 34/40/190 97/43/191 99/46/192 
f 40/47/193 41/48/194 38/45/195 
f 38/45/196 37/44/197 40/47/198 
f 101/49/199 40/47/200 37/44/201 
f 37/44/202 99/46/203 101/49/204 
f 25/50/205 102/51/206 41/48/207 
f 41/48/208 40/47/209 25/50/210 
f 44/52/211 25/50/212 40/47/213 
f 40/47/214 101/49/215 44/52/216 
f 105/55/217 36/56/218 94/53/219 
f 94/53/220 92/54/221 105/55/222 
f 106/57/223 39/58/224 36/56/225 
f 36/56/226 105/55/227 106/57/228 
f 107/59/229 42/60/230 39/58/231 
f 39/58/232 106/57/233 107/59/234 
f 108/61/235 103/62/236 42/60/237 
f 42/60/238 107/59/239 108/61/240 
f 49/40/241 45/41/242 32/38/243 
f 32/38/244 30/39/245 49/40/246 
f 110/43/247 49/40/248 30/39/249 
f 30/39/250 88/42/251 110/43/252 
f 51/44/253 46/45/254 45/41/255 
f 45/41/256 49/40/257 51/44/258 
f 52/46/259 51/44/260 49/40/261 
f 49/40/262 110/43/263 52/46/264 
f 53/47/265 47/48/266 46/45/267 
f 46/45/268 51/44/269 53/47/270 
f 54/49/271 53/47/272 51/44/273 
f 51/44/274 52/46/275 54/49/276 
f 27/50/277 109/51/278 47/48/279 
f 47/48/280 53/47/281 27/50/282 
f 26/52/283 27/50/284 53/47/285 
f 53/47/286 54/49/287 26/52/288 
f 96/55/289 50/56/290 29/53/291 
f 29/53/292 87/54/293 96/55/294 
f 98/57/295 111/58/296 50/56/297 
f 50/56/298 96/55/299 98/57/300 
f 100/59/301 112/60/302 111/58/303 
f 111/58/304 98/57/305 100/59/306 
f 43/61/307 85/62/308 112/60/309 
f 112/60/310 100/59/311 43/61/312 
f 114/63/313 118/64/314 58/65/315 
f 58/65/316 56/66/317 114/63/318 
f 121/67/319 123/68/320 127/69/321 
f 127/69/322 125/70/323 121/67/324 
f 55/63/325 116/66/326 124/68/327 
f 124/68/328 59/67/329 55/63/330 
f 115/66/331 120/65/332 128/69/333 
f 128/69/334 60/68/335 115/66/336 
f 119/65/337 117/64/338 126/70/339 
f 126/70/340 62/69/341 119/65/342 
f 57/64/343 113/63/344 122/67/345 
f 122/67/346 61/70/347 57/64/348 
# 116 faces

