# 3ds Max Wavefront OBJ Exporter v0.97b - (c)2007 guruware
# File Created: 09.03.2017 20:26:49

mtllib Bank-3-30_MSH.mtl

#
# object Bank_3_30
#

v  -0.2500 0.0156 -0.0000
v  0.0000 0.0156 -0.0000
v  0.2500 0.0156 -0.0000
v  -0.2500 -0.0156 0.0000
v  0.0000 -0.0156 0.0000
v  0.2500 -0.0156 0.0000
v  -0.2372 0.0156 -0.3911
v  0.0123 0.0156 -0.3747
v  0.2617 0.0156 -0.3584
v  0.2617 -0.0156 -0.3584
v  0.0123 -0.0156 -0.3747
v  -0.2372 -0.0156 -0.3911
v  -0.1988 0.0156 -0.7805
v  0.0490 0.0156 -0.7479
v  0.2969 0.0156 -0.7152
v  0.2969 -0.0156 -0.7152
v  0.0490 -0.0156 -0.7479
v  -0.1988 -0.0156 -0.7805
v  -0.1351 0.0156 -1.1666
v  0.1101 0.0156 -1.1178
v  0.3553 0.0156 -1.0690
v  0.3553 -0.0156 -1.0690
v  0.1101 -0.0156 -1.1178
v  -0.1351 -0.0156 -1.1666
v  0.6405 0.0156 -2.9658
v  0.6405 -0.0156 -2.9658
v  0.3905 -0.0156 -2.9658
v  0.3905 0.0156 -2.9658
v  0.1405 -0.0156 -2.9658
v  0.1405 0.0156 -2.9658
v  0.3782 0.0156 -2.5911
v  0.6277 0.0156 -2.5748
v  0.1287 0.0156 -2.6075
v  0.3414 0.0156 -2.2180
v  0.5893 0.0156 -2.1854
v  0.0936 0.0156 -2.2506
v  0.2804 0.0156 -1.8481
v  0.5256 0.0156 -1.7993
v  0.0352 0.0156 -1.8968
v  0.1952 0.0156 -1.4829
v  0.4367 0.0156 -1.4182
v  -0.0463 0.0156 -1.5476
v  0.1287 -0.0156 -2.6075
v  0.0936 -0.0156 -2.2506
v  0.0352 -0.0156 -1.8968
v  -0.0463 -0.0156 -1.5476
v  0.3782 -0.0156 -2.5911
v  0.6277 -0.0156 -2.5748
v  0.3414 -0.0156 -2.2180
v  0.5893 -0.0156 -2.1854
v  0.2804 -0.0156 -1.8481
v  0.5256 -0.0156 -1.7993
v  0.1952 -0.0156 -1.4829
v  0.4367 -0.0156 -1.4182
v  -0.2500 -0.0313 0.7188
v  0.2500 -0.0313 0.7188
v  -0.2500 -0.0313 0.5312
v  0.2500 -0.0313 0.5313
v  -0.2500 0.0312 0.7188
v  0.2500 0.0312 0.7188
v  -0.2500 0.0312 0.5312
v  0.2500 0.0312 0.5313
v  -0.2500 0.0156 -0.0000
v  -0.2500 0.0156 -0.0000
v  0.0000 0.0156 -0.0000
v  0.2500 0.0156 -0.0000
v  0.2500 0.0156 -0.0000
v  -0.2500 -0.0156 0.0000
v  -0.2500 -0.0156 0.0000
v  0.0000 -0.0156 0.0000
v  0.2500 -0.0156 0.0000
v  0.2500 -0.0156 0.0000
v  -0.2372 0.0156 -0.3911
v  0.2617 0.0156 -0.3584
v  0.2617 -0.0156 -0.3584
v  -0.2372 -0.0156 -0.3911
v  -0.1988 0.0156 -0.7805
v  0.2969 0.0156 -0.7152
v  0.2969 -0.0156 -0.7152
v  -0.1988 -0.0156 -0.7805
v  -0.1351 0.0156 -1.1666
v  0.3553 0.0156 -1.0690
v  0.3553 -0.0156 -1.0690
v  -0.1351 -0.0156 -1.1666
v  0.6405 0.0156 -2.9658
v  0.6405 0.0156 -2.9658
v  0.6405 -0.0156 -2.9658
v  0.6405 -0.0156 -2.9658
v  0.3905 -0.0156 -2.9658
v  0.3905 0.0156 -2.9658
v  0.1405 -0.0156 -2.9658
v  0.1405 -0.0156 -2.9658
v  0.1405 0.0156 -2.9658
v  0.1405 0.0156 -2.9658
v  0.6277 0.0156 -2.5748
v  0.1287 0.0156 -2.6075
v  0.5893 0.0156 -2.1854
v  0.0936 0.0156 -2.2506
v  0.5256 0.0156 -1.7993
v  0.0352 0.0156 -1.8968
v  0.4367 0.0156 -1.4182
v  0.4367 0.0156 -1.4182
v  -0.0463 0.0156 -1.5476
v  0.1287 -0.0156 -2.6075
v  0.0936 -0.0156 -2.2506
v  0.0352 -0.0156 -1.8968
v  -0.0463 -0.0156 -1.5476
v  0.6277 -0.0156 -2.5748
v  0.5893 -0.0156 -2.1854
v  0.5256 -0.0156 -1.7993
v  0.4367 -0.0156 -1.4182
v  0.4367 -0.0156 -1.4182
v  -0.2500 -0.0313 0.7188
v  -0.2500 -0.0313 0.7188
v  0.2500 -0.0313 0.7188
v  0.2500 -0.0313 0.7188
v  -0.2500 -0.0313 0.5312
v  -0.2500 -0.0313 0.5312
v  0.2500 -0.0313 0.5313
v  0.2500 -0.0313 0.5313
v  -0.2500 0.0312 0.7188
v  -0.2500 0.0312 0.7188
v  0.2500 0.0312 0.7188
v  0.2500 0.0312 0.7188
v  -0.2500 0.0312 0.5312
v  -0.2500 0.0312 0.5312
v  0.2500 0.0312 0.5313
v  0.2500 0.0312 0.5313
# 128 vertices

vn -0.0000 0.0000 1.0000
vn -0.0000 0.0000 1.0000
vn -0.0000 0.0000 1.0000
vn -0.0000 0.0000 1.0000
vn -0.0000 0.0000 1.0000
vn -0.0000 0.0000 1.0000
vn -0.0000 0.0000 1.0000
vn -0.0000 0.0000 1.0000
vn -0.0000 0.0000 1.0000
vn -0.0000 0.0000 1.0000
vn -0.0000 0.0000 1.0000
vn -0.0000 0.0000 1.0000
vn 0.0000 1.0000 -0.0000
vn 0.0000 1.0000 -0.0000
vn 0.0000 1.0000 -0.0000
vn 0.0000 1.0000 -0.0000
vn 0.0000 1.0000 -0.0000
vn 0.0000 1.0000 -0.0000
vn 0.0000 1.0000 -0.0000
vn 0.0000 1.0000 -0.0000
vn 0.0000 1.0000 -0.0000
vn 0.0000 1.0000 -0.0000
vn 0.0000 1.0000 -0.0000
vn 0.0000 1.0000 -0.0000
vn 0.0000 1.0000 -0.0000
vn 0.0000 1.0000 -0.0000
vn 0.0000 1.0000 -0.0000
vn 0.0000 1.0000 -0.0000
vn 0.0000 1.0000 -0.0000
vn 0.0000 1.0000 -0.0000
vn 0.0000 1.0000 -0.0000
vn 0.0000 1.0000 -0.0000
vn 0.0000 1.0000 -0.0000
vn 0.0000 1.0000 -0.0000
vn 0.0000 1.0000 -0.0000
vn 0.0000 1.0000 -0.0000
vn 0.0000 1.0000 -0.0000
vn 0.0000 1.0000 -0.0000
vn 0.0000 1.0000 -0.0000
vn 0.0000 1.0000 -0.0000
vn 0.0000 1.0000 -0.0000
vn 0.0000 1.0000 -0.0000
vn 0.0000 1.0000 -0.0000
vn 0.0000 1.0000 -0.0000
vn 0.0000 1.0000 -0.0000
vn 0.0000 1.0000 -0.0000
vn 0.0000 1.0000 -0.0000
vn 0.0000 1.0000 -0.0000
vn 0.0000 1.0000 -0.0000
vn 0.0000 1.0000 -0.0000
vn 0.0000 1.0000 -0.0000
vn 0.0000 1.0000 -0.0000
vn 0.0000 1.0000 -0.0000
vn 0.0000 1.0000 -0.0000
vn 0.0000 1.0000 -0.0000
vn 0.0000 1.0000 -0.0000
vn 0.0000 1.0000 -0.0000
vn 0.0000 1.0000 -0.0000
vn 0.0000 1.0000 -0.0000
vn 0.0000 1.0000 -0.0000
vn 0.9979 0.0000 0.0654
vn 0.9979 0.0000 0.0654
vn 0.9995 0.0000 0.0327
vn 0.9995 0.0000 0.0327
vn 0.9995 0.0000 0.0327
vn 0.9979 0.0000 0.0654
vn 0.9914 0.0000 0.1305
vn 0.9914 0.0000 0.1305
vn 0.9979 0.0000 0.0654
vn 0.9979 0.0000 0.0654
vn 0.9979 0.0000 0.0654
vn 0.9914 0.0000 0.1305
vn 0.9808 0.0000 0.1951
vn 0.9808 0.0000 0.1951
vn 0.9914 0.0000 0.1305
vn 0.9914 0.0000 0.1305
vn 0.9914 0.0000 0.1305
vn 0.9808 0.0000 0.1951
vn 0.9739 0.0000 0.2271
vn 0.9739 0.0000 0.2271
vn 0.9808 0.0000 0.1951
vn 0.9808 0.0000 0.1951
vn 0.9808 0.0000 0.1951
vn 0.9739 0.0000 0.2271
vn 0.0000 -1.0000 0.0000
vn 0.0000 -1.0000 0.0000
vn 0.0000 -1.0000 0.0000
vn 0.0000 -1.0000 0.0000
vn 0.0000 -1.0000 0.0000
vn 0.0000 -1.0000 0.0000
vn 0.0000 -1.0000 0.0000
vn 0.0000 -1.0000 0.0000
vn 0.0000 -1.0000 0.0000
vn 0.0000 -1.0000 0.0000
vn 0.0000 -1.0000 0.0000
vn 0.0000 -1.0000 0.0000
vn 0.0000 -1.0000 0.0000
vn 0.0000 -1.0000 0.0000
vn 0.0000 -1.0000 0.0000
vn 0.0000 -1.0000 0.0000
vn 0.0000 -1.0000 0.0000
vn 0.0000 -1.0000 0.0000
vn 0.0000 -1.0000 0.0000
vn 0.0000 -1.0000 0.0000
vn 0.0000 -1.0000 0.0000
vn 0.0000 -1.0000 0.0000
vn 0.0000 -1.0000 0.0000
vn 0.0000 -1.0000 0.0000
vn 0.0000 -1.0000 0.0000
vn 0.0000 -1.0000 0.0000
vn 0.0000 -1.0000 0.0000
vn 0.0000 -1.0000 0.0000
vn 0.0000 -1.0000 0.0000
vn 0.0000 -1.0000 0.0000
vn 0.0000 -1.0000 0.0000
vn 0.0000 -1.0000 0.0000
vn 0.0000 -1.0000 0.0000
vn 0.0000 -1.0000 0.0000
vn 0.0000 -1.0000 0.0000
vn 0.0000 -1.0000 0.0000
vn 0.0000 -1.0000 0.0000
vn 0.0000 -1.0000 0.0000
vn 0.0000 -1.0000 0.0000
vn 0.0000 -1.0000 0.0000
vn 0.0000 -1.0000 0.0000
vn 0.0000 -1.0000 0.0000
vn 0.0000 -1.0000 0.0000
vn 0.0000 -1.0000 0.0000
vn 0.0000 -1.0000 0.0000
vn 0.0000 -1.0000 0.0000
vn 0.0000 -1.0000 0.0000
vn 0.0000 -1.0000 0.0000
vn -0.9979 -0.0000 -0.0654
vn -0.9979 -0.0000 -0.0654
vn -0.9995 -0.0000 -0.0327
vn -0.9995 -0.0000 -0.0327
vn -0.9995 -0.0000 -0.0327
vn -0.9979 -0.0000 -0.0654
vn -0.9914 -0.0000 -0.1305
vn -0.9914 -0.0000 -0.1305
vn -0.9979 -0.0000 -0.0654
vn -0.9979 -0.0000 -0.0654
vn -0.9979 -0.0000 -0.0654
vn -0.9914 -0.0000 -0.1305
vn -0.9808 -0.0000 -0.1951
vn -0.9808 -0.0000 -0.1951
vn -0.9914 -0.0000 -0.1305
vn -0.9914 -0.0000 -0.1305
vn -0.9914 -0.0000 -0.1305
vn -0.9808 -0.0000 -0.1951
vn -0.9739 -0.0000 -0.2271
vn -0.9739 -0.0000 -0.2271
vn -0.9808 -0.0000 -0.1951
vn -0.9808 -0.0000 -0.1951
vn -0.9808 -0.0000 -0.1951
vn -0.9739 -0.0000 -0.2271
vn 0.0000 -0.0000 -1.0000
vn 0.0000 -0.0000 -1.0000
vn 0.0000 -0.0000 -1.0000
vn 0.0000 -0.0000 -1.0000
vn 0.0000 -0.0000 -1.0000
vn 0.0000 -0.0000 -1.0000
vn 0.0000 -0.0000 -1.0000
vn 0.0000 -0.0000 -1.0000
vn 0.0000 -0.0000 -1.0000
vn 0.0000 -0.0000 -1.0000
vn 0.0000 -0.0000 -1.0000
vn 0.0000 -0.0000 -1.0000
vn 0.0000 1.0000 -0.0000
vn 0.0000 1.0000 -0.0000
vn 0.0000 1.0000 -0.0000
vn 0.0000 1.0000 -0.0000
vn 0.0000 1.0000 -0.0000
vn 0.0000 1.0000 -0.0000
vn 0.0000 1.0000 -0.0000
vn 0.0000 1.0000 -0.0000
vn 0.0000 1.0000 -0.0000
vn 0.0000 1.0000 -0.0000
vn 0.0000 1.0000 -0.0000
vn 0.0000 1.0000 -0.0000
vn 0.0000 1.0000 -0.0000
vn 0.0000 1.0000 -0.0000
vn 0.0000 1.0000 -0.0000
vn 0.0000 1.0000 -0.0000
vn 0.0000 1.0000 -0.0000
vn 0.0000 1.0000 -0.0000
vn 0.0000 1.0000 -0.0000
vn 0.0000 1.0000 -0.0000
vn 0.0000 1.0000 -0.0000
vn 0.0000 1.0000 -0.0000
vn 0.0000 1.0000 -0.0000
vn 0.0000 1.0000 -0.0000
vn 0.0000 1.0000 -0.0000
vn 0.0000 1.0000 -0.0000
vn 0.0000 1.0000 -0.0000
vn 0.0000 1.0000 -0.0000
vn 0.0000 1.0000 -0.0000
vn 0.0000 1.0000 -0.0000
vn 0.0000 1.0000 -0.0000
vn 0.0000 1.0000 -0.0000
vn 0.0000 1.0000 -0.0000
vn 0.0000 1.0000 -0.0000
vn 0.0000 1.0000 -0.0000
vn 0.0000 1.0000 -0.0000
vn 0.0000 1.0000 -0.0000
vn 0.0000 1.0000 -0.0000
vn 0.0000 1.0000 -0.0000
vn 0.0000 1.0000 -0.0000
vn 0.0000 1.0000 -0.0000
vn 0.0000 1.0000 -0.0000
vn 0.0000 1.0000 -0.0000
vn 0.0000 1.0000 -0.0000
vn 0.0000 1.0000 -0.0000
vn 0.0000 1.0000 -0.0000
vn 0.0000 1.0000 -0.0000
vn 0.0000 1.0000 -0.0000
vn -0.9979 -0.0000 -0.0654
vn -0.9979 -0.0000 -0.0654
vn -0.9995 -0.0000 -0.0327
vn -0.9995 -0.0000 -0.0327
vn -0.9995 -0.0000 -0.0327
vn -0.9979 -0.0000 -0.0654
vn -0.9914 -0.0000 -0.1305
vn -0.9914 -0.0000 -0.1305
vn -0.9979 -0.0000 -0.0654
vn -0.9979 -0.0000 -0.0654
vn -0.9979 -0.0000 -0.0654
vn -0.9914 -0.0000 -0.1305
vn -0.9808 -0.0000 -0.1951
vn -0.9808 -0.0000 -0.1951
vn -0.9914 -0.0000 -0.1305
vn -0.9914 -0.0000 -0.1305
vn -0.9914 -0.0000 -0.1305
vn -0.9808 -0.0000 -0.1951
vn -0.9739 -0.0000 -0.2271
vn -0.9739 -0.0000 -0.2271
vn -0.9808 -0.0000 -0.1951
vn -0.9808 -0.0000 -0.1951
vn -0.9808 -0.0000 -0.1951
vn -0.9739 -0.0000 -0.2271
vn 0.0000 -1.0000 0.0000
vn 0.0000 -1.0000 0.0000
vn 0.0000 -1.0000 0.0000
vn 0.0000 -1.0000 0.0000
vn 0.0000 -1.0000 0.0000
vn 0.0000 -1.0000 0.0000
vn 0.0000 -1.0000 0.0000
vn 0.0000 -1.0000 0.0000
vn 0.0000 -1.0000 0.0000
vn 0.0000 -1.0000 0.0000
vn 0.0000 -1.0000 0.0000
vn 0.0000 -1.0000 0.0000
vn 0.0000 -1.0000 0.0000
vn 0.0000 -1.0000 0.0000
vn 0.0000 -1.0000 0.0000
vn 0.0000 -1.0000 0.0000
vn 0.0000 -1.0000 0.0000
vn 0.0000 -1.0000 0.0000
vn 0.0000 -1.0000 0.0000
vn 0.0000 -1.0000 0.0000
vn 0.0000 -1.0000 0.0000
vn 0.0000 -1.0000 0.0000
vn 0.0000 -1.0000 0.0000
vn 0.0000 -1.0000 0.0000
vn 0.0000 -1.0000 0.0000
vn 0.0000 -1.0000 0.0000
vn 0.0000 -1.0000 0.0000
vn 0.0000 -1.0000 0.0000
vn 0.0000 -1.0000 0.0000
vn 0.0000 -1.0000 0.0000
vn 0.0000 -1.0000 0.0000
vn 0.0000 -1.0000 0.0000
vn 0.0000 -1.0000 0.0000
vn 0.0000 -1.0000 0.0000
vn 0.0000 -1.0000 0.0000
vn 0.0000 -1.0000 0.0000
vn 0.0000 -1.0000 0.0000
vn 0.0000 -1.0000 0.0000
vn 0.0000 -1.0000 0.0000
vn 0.0000 -1.0000 0.0000
vn 0.0000 -1.0000 0.0000
vn 0.0000 -1.0000 0.0000
vn 0.0000 -1.0000 0.0000
vn 0.0000 -1.0000 0.0000
vn 0.0000 -1.0000 0.0000
vn 0.0000 -1.0000 0.0000
vn 0.0000 -1.0000 0.0000
vn 0.0000 -1.0000 0.0000
vn 0.9979 0.0000 0.0654
vn 0.9979 0.0000 0.0654
vn 0.9995 0.0000 0.0327
vn 0.9995 0.0000 0.0327
vn 0.9995 0.0000 0.0327
vn 0.9979 0.0000 0.0654
vn 0.9914 0.0000 0.1305
vn 0.9914 0.0000 0.1305
vn 0.9979 0.0000 0.0654
vn 0.9979 0.0000 0.0654
vn 0.9979 0.0000 0.0654
vn 0.9914 0.0000 0.1305
vn 0.9808 0.0000 0.1951
vn 0.9808 0.0000 0.1951
vn 0.9914 0.0000 0.1305
vn 0.9914 0.0000 0.1305
vn 0.9914 0.0000 0.1305
vn 0.9808 0.0000 0.1951
vn 0.9739 0.0000 0.2271
vn 0.9739 0.0000 0.2271
vn 0.9808 0.0000 0.1951
vn 0.9808 0.0000 0.1951
vn 0.9808 0.0000 0.1951
vn 0.9739 0.0000 0.2271
vn 0.0000 -1.0000 0.0000
vn 0.0000 -1.0000 0.0000
vn 0.0000 -1.0000 0.0000
vn 0.0000 -1.0000 0.0000
vn 0.0000 -1.0000 0.0000
vn 0.0000 -1.0000 0.0000
vn -0.0000 1.0000 0.0000
vn 0.0000 1.0000 0.0000
vn -0.0000 1.0000 0.0000
vn -0.0000 1.0000 0.0000
vn -0.0000 1.0000 0.0000
vn -0.0000 1.0000 0.0000
vn 0.0000 0.0000 1.0000
vn 0.0000 0.0000 1.0000
vn 0.0000 0.0000 1.0000
vn 0.0000 0.0000 1.0000
vn 0.0000 0.0000 1.0000
vn 0.0000 0.0000 1.0000
vn 1.0000 0.0000 0.0000
vn 1.0000 0.0000 0.0000
vn 1.0000 0.0000 0.0000
vn 1.0000 0.0000 0.0000
vn 1.0000 0.0000 0.0000
vn 1.0000 0.0000 0.0000
vn 0.0000 -0.0000 -1.0000
vn 0.0000 -0.0000 -1.0000
vn 0.0000 -0.0000 -1.0000
vn 0.0000 -0.0000 -1.0000
vn 0.0000 -0.0000 -1.0000
vn 0.0000 -0.0000 -1.0000
vn -1.0000 -0.0000 -0.0000
vn -1.0000 -0.0000 -0.0000
vn -1.0000 -0.0000 -0.0000
vn -1.0000 -0.0000 -0.0000
vn -1.0000 -0.0000 -0.0000
vn -1.0000 -0.0000 -0.0000
# 348 vertex normals

vt 0.6375 0.4000 0.0000
vt 0.8625 0.4000 0.0000
vt 0.6375 0.4563 0.0000
vt 0.8625 0.4563 0.0000
vt 0.6375 0.5125 0.0000
vt 0.8625 0.5125 0.0000
vt 0.6375 0.5688 0.0000
vt 0.8625 0.5688 0.0000
vt 0.6375 0.6250 0.0000
vt 0.8625 0.6250 0.0000
vt 0.6375 0.4000 0.0000
vt 0.7500 0.4000 0.0000
vt 0.8625 0.4000 0.0000
vt 0.6375 0.4563 0.0000
vt 0.7500 0.4563 0.0000
vt 0.8625 0.4563 0.0000
vt 0.6375 0.5125 0.0000
vt 0.7500 0.5125 0.0000
vt 0.8625 0.5125 0.0000
vt 0.6375 0.5688 0.0000
vt 0.7500 0.5688 0.0000
vt 0.8625 0.5688 0.0000
vt 0.6375 0.6250 0.0000
vt 0.7500 0.6250 0.0000
vt 0.8625 0.6250 0.0000
vt 0.6375 0.4000 0.0000
vt 0.7500 0.4000 0.0000
vt 0.8625 0.4000 0.0000
vt 0.6375 0.8500 0.0000
vt 0.7500 0.8500 0.0000
vt 0.8625 0.8500 0.0000
vt 0.8625 0.4000 0.0000
vt 0.8625 0.8500 0.0000
vt 0.7500 0.8500 0.0000
vt 0.7500 0.4000 0.0000
vt 0.6375 0.8500 0.0000
vt 0.6375 0.4000 0.0000
vt 0.6375 0.4000 0.0000
vt 0.7500 0.4000 0.0000
vt 0.7500 0.4563 0.0000
vt 0.6375 0.4563 0.0000
vt 0.8625 0.4000 0.0000
vt 0.8625 0.4563 0.0000
vt 0.7500 0.5125 0.0000
vt 0.6375 0.5125 0.0000
vt 0.8625 0.5125 0.0000
vt 0.7500 0.5688 0.0000
vt 0.6375 0.5688 0.0000
vt 0.8625 0.5688 0.0000
vt 0.7500 0.6250 0.0000
vt 0.6375 0.6250 0.0000
vt 0.8625 0.6250 0.0000
vt 0.6375 0.4000 0.0000
vt 0.8625 0.4000 0.0000
vt 0.8625 0.4563 0.0000
vt 0.6375 0.4563 0.0000
vt 0.8625 0.5125 0.0000
vt 0.6375 0.5125 0.0000
vt 0.8625 0.5688 0.0000
vt 0.6375 0.5688 0.0000
vt 0.8625 0.6250 0.0000
vt 0.6375 0.6250 0.0000
vt 0.6375 0.0828 0.0000
vt 0.6375 0.1672 0.0000
vt 0.8625 0.1672 0.0000
vt 0.8625 0.0828 0.0000
vt 0.6375 0.0828 0.0000
vt 0.8625 0.0828 0.0000
vt 0.8625 0.1672 0.0000
vt 0.6375 0.1672 0.0000
# 70 texture coords

g Bank_3_30
usemtl Material__2
f 70/30/1 2/27/2 64/28/3 
f 64/28/4 69/31/5 70/30/6 
f 6/29/7 3/26/8 2/27/9 
f 2/27/10 70/30/11 6/29/12 
f 8/15/13 7/14/14 1/11/15 
f 1/11/16 65/12/17 8/15/18 
f 74/16/19 8/15/20 65/12/21 
f 65/12/22 67/13/23 74/16/24 
f 14/18/25 13/17/26 7/14/27 
f 7/14/28 8/15/29 14/18/30 
f 78/19/31 14/18/32 8/15/33 
f 8/15/34 74/16/35 78/19/36 
f 20/21/37 19/20/38 13/17/39 
f 13/17/40 14/18/41 20/21/42 
f 82/22/43 20/21/44 14/18/45 
f 14/18/46 78/19/47 82/22/48 
f 40/24/49 42/23/50 19/20/51 
f 19/20/52 20/21/53 40/24/54 
f 102/25/55 40/24/56 20/21/57 
f 20/21/58 82/22/59 102/25/60 
f 75/4/61 9/3/62 66/1/63 
f 66/1/64 72/2/65 75/4/66 
f 79/6/67 15/5/68 9/3/69 
f 9/3/70 75/4/71 79/6/72 
f 83/8/73 21/7/74 15/5/75 
f 15/5/76 79/6/77 83/8/78 
f 112/10/79 41/9/80 21/7/81 
f 21/7/82 83/8/83 112/10/84 
f 11/15/85 10/14/86 71/11/87 
f 71/11/88 5/12/89 11/15/90 
f 76/16/91 11/15/92 5/12/93 
f 5/12/94 68/13/95 76/16/96 
f 17/18/97 16/17/98 10/14/99 
f 10/14/100 11/15/101 17/18/102 
f 80/19/103 17/18/104 11/15/105 
f 11/15/106 76/16/107 80/19/108 
f 23/21/109 22/20/110 16/17/111 
f 16/17/112 17/18/113 23/21/114 
f 84/22/115 23/21/116 17/18/117 
f 17/18/118 80/19/119 84/22/120 
f 53/24/121 54/23/122 22/20/123 
f 22/20/124 23/21/125 53/24/126 
f 107/25/127 53/24/128 23/21/129 
f 23/21/130 84/22/131 107/25/132 
f 73/4/133 12/3/134 4/1/135 
f 4/1/136 63/2/137 73/4/138 
f 77/6/139 18/5/140 12/3/141 
f 12/3/142 73/4/143 77/6/144 
f 81/8/145 24/7/146 18/5/147 
f 18/5/148 77/6/149 81/8/150 
f 103/10/151 46/9/152 24/7/153 
f 24/7/154 81/8/155 103/10/156 
f 89/34/157 28/35/158 25/32/159 
f 25/32/160 88/33/161 89/34/162 
f 92/36/163 30/37/164 28/35/165 
f 28/35/166 89/34/167 92/36/168 
f 31/40/169 32/41/170 85/38/171 
f 85/38/172 90/39/173 31/40/174 
f 96/43/175 31/40/176 90/39/177 
f 90/39/178 94/42/179 96/43/180 
f 34/44/181 35/45/182 32/41/183 
f 32/41/184 31/40/185 34/44/186 
f 98/46/187 34/44/188 31/40/189 
f 31/40/190 96/43/191 98/46/192 
f 37/47/193 38/48/194 35/45/195 
f 35/45/196 34/44/197 37/47/198 
f 100/49/199 37/47/200 34/44/201 
f 34/44/202 98/46/203 100/49/204 
f 40/50/205 102/51/206 38/48/207 
f 38/48/208 37/47/209 40/50/210 
f 42/52/211 40/50/212 37/47/213 
f 37/47/214 100/49/215 42/52/216 
f 104/55/217 33/56/218 93/53/219 
f 93/53/220 91/54/221 104/55/222 
f 105/57/223 36/58/224 33/56/225 
f 33/56/226 104/55/227 105/57/228 
f 106/59/229 39/60/230 36/58/231 
f 36/58/232 105/57/233 106/59/234 
f 46/61/235 103/62/236 39/60/237 
f 39/60/238 106/59/239 46/61/240 
f 47/40/241 43/41/242 29/38/243 
f 29/38/244 27/39/245 47/40/246 
f 108/43/247 47/40/248 27/39/249 
f 27/39/250 87/42/251 108/43/252 
f 49/44/253 44/45/254 43/41/255 
f 43/41/256 47/40/257 49/44/258 
f 50/46/259 49/44/260 47/40/261 
f 47/40/262 108/43/263 50/46/264 
f 51/47/265 45/48/266 44/45/267 
f 44/45/268 49/44/269 51/47/270 
f 52/49/271 51/47/272 49/44/273 
f 49/44/274 50/46/275 52/49/276 
f 53/50/277 107/51/278 45/48/279 
f 45/48/280 51/47/281 53/50/282 
f 54/52/283 53/50/284 51/47/285 
f 51/47/286 52/49/287 54/52/288 
f 95/55/289 48/56/290 26/53/291 
f 26/53/292 86/54/293 95/55/294 
f 97/57/295 109/58/296 48/56/297 
f 48/56/298 95/55/299 97/57/300 
f 99/59/301 110/60/302 109/58/303 
f 109/58/304 97/57/305 99/59/306 
f 101/61/307 111/62/308 110/60/309 
f 110/60/310 99/59/311 101/61/312 
f 114/63/313 118/64/314 58/65/315 
f 58/65/316 56/66/317 114/63/318 
f 121/67/319 123/68/320 127/69/321 
f 127/69/322 125/70/323 121/67/324 
f 55/63/325 116/66/326 124/68/327 
f 124/68/328 59/67/329 55/63/330 
f 115/66/331 120/65/332 128/69/333 
f 128/69/334 60/68/335 115/66/336 
f 119/65/337 117/64/338 126/70/339 
f 126/70/340 62/69/341 119/65/342 
f 57/64/343 113/63/344 122/67/345 
f 122/67/346 61/70/347 57/64/348 
# 116 faces

