# 3ds Max Wavefront OBJ Exporter v0.97b - (c)2007 guruware
# File Created: 09.03.2017 20:16:48

mtllib Bank-5-135_MSH.mtl

#
# object Bank_5_135
#

v  -0.2500 0.0156 -0.0000
v  0.0000 0.0156 -0.0000
v  0.2500 0.0156 -0.0000
v  -0.2500 -0.0156 0.0000
v  0.0000 -0.0156 0.0000
v  0.2500 -0.0156 0.0000
v  -0.1479 0.0156 -0.6886
v  0.0914 0.0156 -0.6160
v  0.3306 0.0156 -0.5434
v  0.3306 -0.0156 -0.5434
v  0.0914 -0.0156 -0.6160
v  -0.1479 -0.0156 -0.6886
v  0.1498 0.0156 -1.3178
v  0.3576 0.0156 -1.1790
v  0.5655 0.0156 -1.0401
v  0.5655 -0.0156 -1.0401
v  0.3576 -0.0156 -1.1790
v  0.1498 -0.0156 -1.3178
v  0.6172 0.0156 -1.8336
v  0.7758 0.0156 -1.6404
v  0.9344 0.0156 -1.4471
v  0.9344 -0.0156 -1.4471
v  0.7758 -0.0156 -1.6404
v  0.6172 -0.0156 -1.8336
v  1.2143 0.0156 -2.1915
v  1.3100 0.0156 -1.9605
v  1.4057 0.0156 -1.7296
v  1.4057 -0.0156 -1.7296
v  1.3100 -0.0156 -1.9605
v  1.2143 -0.0156 -2.1915
v  2.8700 0.0156 -3.9211
v  2.8700 -0.0156 -3.9211
v  2.6200 -0.0156 -3.9211
v  2.6200 0.0156 -3.9211
v  2.3700 -0.0156 -3.9211
v  2.3700 0.0156 -3.9211
v  2.5286 0.0156 -3.3051
v  2.7678 0.0156 -3.2325
v  2.2894 0.0156 -3.3776
v  2.2623 0.0156 -2.7421
v  2.4702 0.0156 -2.6032
v  2.0545 0.0156 -2.8810
v  1.8441 0.0156 -2.2807
v  2.0027 0.0156 -2.0874
v  1.6855 0.0156 -2.4739
v  2.2894 -0.0156 -3.3776
v  2.0545 -0.0156 -2.8810
v  1.6855 -0.0156 -2.4739
v  2.5286 -0.0156 -3.3051
v  2.7678 -0.0156 -3.2325
v  2.2623 -0.0156 -2.7421
v  2.4702 -0.0156 -2.6032
v  1.8441 -0.0156 -2.2807
v  2.0027 -0.0156 -2.0874
v  -0.2500 -0.0313 0.7188
v  0.2500 -0.0313 0.7188
v  -0.2500 -0.0313 0.5312
v  0.2500 -0.0313 0.5313
v  -0.2500 0.0312 0.7188
v  0.2500 0.0312 0.7188
v  -0.2500 0.0312 0.5312
v  0.2500 0.0312 0.5313
# 62 vertices

vn -0.0000 0.0000 1.0000
vn -0.0000 0.0000 1.0000
vn -0.0000 0.0000 1.0000
vn -0.0000 0.0000 1.0000
vn -0.0000 0.0000 1.0000
vn -0.0000 0.0000 1.0000
vn -0.0000 0.0000 1.0000
vn -0.0000 0.0000 1.0000
vn -0.0000 0.0000 1.0000
vn -0.0000 0.0000 1.0000
vn -0.0000 0.0000 1.0000
vn -0.0000 0.0000 1.0000
vn 0.0000 1.0000 -0.0000
vn 0.0000 1.0000 -0.0000
vn 0.0000 1.0000 -0.0000
vn 0.0000 1.0000 -0.0000
vn 0.0000 1.0000 -0.0000
vn 0.0000 1.0000 -0.0000
vn 0.0000 1.0000 -0.0000
vn 0.0000 1.0000 -0.0000
vn 0.0000 1.0000 -0.0000
vn 0.0000 1.0000 -0.0000
vn 0.0000 1.0000 -0.0000
vn 0.0000 1.0000 -0.0000
vn 0.0000 1.0000 -0.0000
vn 0.0000 1.0000 -0.0000
vn 0.0000 1.0000 -0.0000
vn 0.0000 1.0000 -0.0000
vn 0.0000 1.0000 -0.0000
vn 0.0000 1.0000 -0.0000
vn 0.0000 1.0000 -0.0000
vn 0.0000 1.0000 -0.0000
vn 0.0000 1.0000 -0.0000
vn 0.0000 1.0000 -0.0000
vn 0.0000 1.0000 -0.0000
vn 0.0000 1.0000 -0.0000
vn 0.0000 1.0000 -0.0000
vn 0.0000 1.0000 -0.0000
vn 0.0000 1.0000 -0.0000
vn 0.0000 1.0000 -0.0000
vn 0.0000 1.0000 -0.0000
vn 0.0000 1.0000 -0.0000
vn 0.0000 1.0000 -0.0000
vn 0.0000 1.0000 -0.0000
vn 0.0000 1.0000 -0.0000
vn 0.0000 1.0000 -0.0000
vn 0.0000 1.0000 -0.0000
vn 0.0000 1.0000 -0.0000
vn 0.0000 1.0000 -0.0000
vn 0.0000 1.0000 -0.0000
vn 0.0000 1.0000 -0.0000
vn 0.0000 1.0000 -0.0000
vn 0.0000 1.0000 -0.0000
vn 0.0000 1.0000 -0.0000
vn 0.0000 1.0000 -0.0000
vn 0.0000 1.0000 -0.0000
vn 0.0000 1.0000 -0.0000
vn 0.0000 1.0000 -0.0000
vn 0.0000 1.0000 -0.0000
vn 0.0000 1.0000 -0.0000
vn 0.9569 0.0000 0.2903
vn 0.9569 0.0000 0.2903
vn 0.9892 0.0000 0.1467
vn 0.9892 0.0000 0.1467
vn 0.9892 0.0000 0.1467
vn 0.9569 0.0000 0.2903
vn 0.8315 0.0000 0.5556
vn 0.8315 0.0000 0.5556
vn 0.9569 0.0000 0.2903
vn 0.9569 0.0000 0.2903
vn 0.9569 0.0000 0.2903
vn 0.8315 0.0000 0.5556
vn 0.6344 0.0000 0.7730
vn 0.6344 0.0000 0.7730
vn 0.8315 0.0000 0.5556
vn 0.8315 0.0000 0.5556
vn 0.8315 0.0000 0.5556
vn 0.6344 0.0000 0.7730
vn 0.5141 0.0000 0.8577
vn 0.5141 0.0000 0.8577
vn 0.6344 0.0000 0.7730
vn 0.6344 0.0000 0.7730
vn 0.6344 0.0000 0.7730
vn 0.5141 0.0000 0.8577
vn 0.0000 -1.0000 0.0000
vn 0.0000 -1.0000 0.0000
vn 0.0000 -1.0000 0.0000
vn 0.0000 -1.0000 0.0000
vn 0.0000 -1.0000 0.0000
vn 0.0000 -1.0000 0.0000
vn 0.0000 -1.0000 0.0000
vn 0.0000 -1.0000 0.0000
vn 0.0000 -1.0000 0.0000
vn 0.0000 -1.0000 0.0000
vn 0.0000 -1.0000 0.0000
vn 0.0000 -1.0000 0.0000
vn 0.0000 -1.0000 0.0000
vn 0.0000 -1.0000 0.0000
vn 0.0000 -1.0000 0.0000
vn 0.0000 -1.0000 0.0000
vn 0.0000 -1.0000 0.0000
vn 0.0000 -1.0000 0.0000
vn 0.0000 -1.0000 0.0000
vn 0.0000 -1.0000 0.0000
vn 0.0000 -1.0000 0.0000
vn 0.0000 -1.0000 0.0000
vn 0.0000 -1.0000 0.0000
vn 0.0000 -1.0000 0.0000
vn 0.0000 -1.0000 0.0000
vn 0.0000 -1.0000 0.0000
vn 0.0000 -1.0000 0.0000
vn 0.0000 -1.0000 0.0000
vn 0.0000 -1.0000 0.0000
vn 0.0000 -1.0000 0.0000
vn 0.0000 -1.0000 0.0000
vn 0.0000 -1.0000 0.0000
vn 0.0000 -1.0000 0.0000
vn 0.0000 -1.0000 0.0000
vn 0.0000 -1.0000 0.0000
vn 0.0000 -1.0000 0.0000
vn 0.0000 -1.0000 0.0000
vn 0.0000 -1.0000 0.0000
vn 0.0000 -1.0000 0.0000
vn 0.0000 -1.0000 0.0000
vn 0.0000 -1.0000 0.0000
vn 0.0000 -1.0000 0.0000
vn 0.0000 -1.0000 0.0000
vn 0.0000 -1.0000 0.0000
vn 0.0000 -1.0000 0.0000
vn 0.0000 -1.0000 0.0000
vn 0.0000 -1.0000 0.0000
vn 0.0000 -1.0000 0.0000
vn -0.9569 -0.0000 -0.2903
vn -0.9569 -0.0000 -0.2903
vn -0.9892 -0.0000 -0.1467
vn -0.9892 -0.0000 -0.1467
vn -0.9892 -0.0000 -0.1467
vn -0.9569 -0.0000 -0.2903
vn -0.8315 -0.0000 -0.5556
vn -0.8315 -0.0000 -0.5556
vn -0.9569 -0.0000 -0.2903
vn -0.9569 -0.0000 -0.2903
vn -0.9569 -0.0000 -0.2903
vn -0.8315 -0.0000 -0.5556
vn -0.6344 -0.0000 -0.7730
vn -0.6344 -0.0000 -0.7730
vn -0.8315 -0.0000 -0.5556
vn -0.8315 -0.0000 -0.5556
vn -0.8315 -0.0000 -0.5556
vn -0.6344 -0.0000 -0.7730
vn -0.5141 -0.0000 -0.8577
vn -0.5141 -0.0000 -0.8577
vn -0.6344 -0.0000 -0.7730
vn -0.6344 -0.0000 -0.7730
vn -0.6344 -0.0000 -0.7730
vn -0.5141 -0.0000 -0.8577
vn 0.0000 -0.0000 -1.0000
vn 0.0000 -0.0000 -1.0000
vn 0.0000 -0.0000 -1.0000
vn 0.0000 -0.0000 -1.0000
vn 0.0000 -0.0000 -1.0000
vn 0.0000 -0.0000 -1.0000
vn 0.0000 -0.0000 -1.0000
vn 0.0000 -0.0000 -1.0000
vn 0.0000 -0.0000 -1.0000
vn 0.0000 -0.0000 -1.0000
vn 0.0000 -0.0000 -1.0000
vn 0.0000 -0.0000 -1.0000
vn 0.0000 1.0000 -0.0000
vn 0.0000 1.0000 -0.0000
vn 0.0000 1.0000 -0.0000
vn 0.0000 1.0000 -0.0000
vn 0.0000 1.0000 -0.0000
vn 0.0000 1.0000 -0.0000
vn 0.0000 1.0000 -0.0000
vn 0.0000 1.0000 -0.0000
vn 0.0000 1.0000 -0.0000
vn 0.0000 1.0000 -0.0000
vn 0.0000 1.0000 -0.0000
vn 0.0000 1.0000 -0.0000
vn 0.0000 1.0000 -0.0000
vn 0.0000 1.0000 -0.0000
vn 0.0000 1.0000 -0.0000
vn 0.0000 1.0000 -0.0000
vn 0.0000 1.0000 -0.0000
vn 0.0000 1.0000 -0.0000
vn 0.0000 1.0000 -0.0000
vn 0.0000 1.0000 -0.0000
vn 0.0000 1.0000 -0.0000
vn 0.0000 1.0000 -0.0000
vn 0.0000 1.0000 -0.0000
vn 0.0000 1.0000 -0.0000
vn 0.0000 1.0000 -0.0000
vn 0.0000 1.0000 -0.0000
vn 0.0000 1.0000 -0.0000
vn 0.0000 1.0000 -0.0000
vn 0.0000 1.0000 -0.0000
vn 0.0000 1.0000 -0.0000
vn 0.0000 1.0000 -0.0000
vn 0.0000 1.0000 -0.0000
vn 0.0000 1.0000 -0.0000
vn 0.0000 1.0000 -0.0000
vn 0.0000 1.0000 -0.0000
vn 0.0000 1.0000 -0.0000
vn 0.0000 1.0000 -0.0000
vn 0.0000 1.0000 -0.0000
vn 0.0000 1.0000 -0.0000
vn 0.0000 1.0000 -0.0000
vn 0.0000 1.0000 -0.0000
vn 0.0000 1.0000 -0.0000
vn 0.0000 1.0000 -0.0000
vn 0.0000 1.0000 -0.0000
vn 0.0000 1.0000 -0.0000
vn 0.0000 1.0000 -0.0000
vn 0.0000 1.0000 -0.0000
vn 0.0000 1.0000 -0.0000
vn -0.9569 -0.0000 -0.2903
vn -0.9569 -0.0000 -0.2903
vn -0.9892 -0.0000 -0.1467
vn -0.9892 -0.0000 -0.1467
vn -0.9892 -0.0000 -0.1467
vn -0.9569 -0.0000 -0.2903
vn -0.8315 -0.0000 -0.5556
vn -0.8315 -0.0000 -0.5556
vn -0.9569 -0.0000 -0.2903
vn -0.9569 -0.0000 -0.2903
vn -0.9569 -0.0000 -0.2903
vn -0.8315 -0.0000 -0.5556
vn -0.6344 -0.0000 -0.7730
vn -0.6344 -0.0000 -0.7730
vn -0.8315 -0.0000 -0.5556
vn -0.8315 -0.0000 -0.5556
vn -0.8315 -0.0000 -0.5556
vn -0.6344 -0.0000 -0.7730
vn -0.5141 -0.0000 -0.8577
vn -0.5141 -0.0000 -0.8577
vn -0.6344 -0.0000 -0.7730
vn -0.6344 -0.0000 -0.7730
vn -0.6344 -0.0000 -0.7730
vn -0.5141 -0.0000 -0.8577
vn 0.0000 -1.0000 0.0000
vn 0.0000 -1.0000 0.0000
vn 0.0000 -1.0000 0.0000
vn 0.0000 -1.0000 0.0000
vn 0.0000 -1.0000 0.0000
vn 0.0000 -1.0000 0.0000
vn 0.0000 -1.0000 0.0000
vn 0.0000 -1.0000 0.0000
vn 0.0000 -1.0000 0.0000
vn 0.0000 -1.0000 0.0000
vn 0.0000 -1.0000 0.0000
vn 0.0000 -1.0000 0.0000
vn 0.0000 -1.0000 0.0000
vn 0.0000 -1.0000 0.0000
vn 0.0000 -1.0000 0.0000
vn 0.0000 -1.0000 0.0000
vn 0.0000 -1.0000 0.0000
vn 0.0000 -1.0000 0.0000
vn 0.0000 -1.0000 0.0000
vn 0.0000 -1.0000 0.0000
vn 0.0000 -1.0000 0.0000
vn 0.0000 -1.0000 0.0000
vn 0.0000 -1.0000 0.0000
vn 0.0000 -1.0000 0.0000
vn 0.0000 -1.0000 0.0000
vn 0.0000 -1.0000 0.0000
vn 0.0000 -1.0000 0.0000
vn 0.0000 -1.0000 0.0000
vn 0.0000 -1.0000 0.0000
vn 0.0000 -1.0000 0.0000
vn 0.0000 -1.0000 0.0000
vn 0.0000 -1.0000 0.0000
vn 0.0000 -1.0000 0.0000
vn 0.0000 -1.0000 0.0000
vn 0.0000 -1.0000 0.0000
vn 0.0000 -1.0000 0.0000
vn 0.0000 -1.0000 0.0000
vn 0.0000 -1.0000 0.0000
vn 0.0000 -1.0000 0.0000
vn 0.0000 -1.0000 0.0000
vn 0.0000 -1.0000 0.0000
vn 0.0000 -1.0000 0.0000
vn 0.0000 -1.0000 0.0000
vn 0.0000 -1.0000 0.0000
vn 0.0000 -1.0000 0.0000
vn 0.0000 -1.0000 0.0000
vn 0.0000 -1.0000 0.0000
vn 0.0000 -1.0000 0.0000
vn 0.9569 0.0000 0.2903
vn 0.9569 0.0000 0.2903
vn 0.9892 0.0000 0.1467
vn 0.9892 0.0000 0.1467
vn 0.9892 0.0000 0.1467
vn 0.9569 0.0000 0.2903
vn 0.8315 0.0000 0.5556
vn 0.8315 0.0000 0.5556
vn 0.9569 0.0000 0.2903
vn 0.9569 0.0000 0.2903
vn 0.9569 0.0000 0.2903
vn 0.8315 0.0000 0.5556
vn 0.6344 0.0000 0.7730
vn 0.6344 0.0000 0.7730
vn 0.8315 0.0000 0.5556
vn 0.8315 0.0000 0.5556
vn 0.8315 0.0000 0.5556
vn 0.6344 0.0000 0.7730
vn 0.5141 0.0000 0.8577
vn 0.5141 0.0000 0.8577
vn 0.6344 0.0000 0.7730
vn 0.6344 0.0000 0.7730
vn 0.6344 0.0000 0.7730
vn 0.5141 0.0000 0.8577
vn 0.0000 -1.0000 0.0000
vn 0.0000 -1.0000 0.0000
vn 0.0000 -1.0000 0.0000
vn 0.0000 -1.0000 0.0000
vn 0.0000 -1.0000 0.0000
vn 0.0000 -1.0000 0.0000
vn -0.0000 1.0000 0.0000
vn 0.0000 1.0000 0.0000
vn -0.0000 1.0000 0.0000
vn -0.0000 1.0000 0.0000
vn -0.0000 1.0000 0.0000
vn -0.0000 1.0000 0.0000
vn 0.0000 0.0000 1.0000
vn 0.0000 0.0000 1.0000
vn 0.0000 0.0000 1.0000
vn 0.0000 0.0000 1.0000
vn 0.0000 0.0000 1.0000
vn 0.0000 0.0000 1.0000
vn 1.0000 0.0000 0.0000
vn 1.0000 0.0000 0.0000
vn 1.0000 0.0000 0.0000
vn 1.0000 0.0000 0.0000
vn 1.0000 0.0000 0.0000
vn 1.0000 0.0000 0.0000
vn 0.0000 -0.0000 -1.0000
vn 0.0000 -0.0000 -1.0000
vn 0.0000 -0.0000 -1.0000
vn 0.0000 -0.0000 -1.0000
vn 0.0000 -0.0000 -1.0000
vn 0.0000 -0.0000 -1.0000
vn -1.0000 -0.0000 -0.0000
vn -1.0000 -0.0000 -0.0000
vn -1.0000 -0.0000 -0.0000
vn -1.0000 -0.0000 -0.0000
vn -1.0000 -0.0000 -0.0000
vn -1.0000 -0.0000 -0.0000
# 348 vertex normals

vt 0.6375 0.4000 0.0000
vt 0.8625 0.4000 0.0000
vt 0.6375 0.4563 0.0000
vt 0.8625 0.4563 0.0000
vt 0.6375 0.5125 0.0000
vt 0.8625 0.5125 0.0000
vt 0.6375 0.5688 0.0000
vt 0.8625 0.5688 0.0000
vt 0.6375 0.6250 0.0000
vt 0.8625 0.6250 0.0000
vt 0.6375 0.4000 0.0000
vt 0.7500 0.4000 0.0000
vt 0.8625 0.4000 0.0000
vt 0.6375 0.4563 0.0000
vt 0.7500 0.4563 0.0000
vt 0.8625 0.4563 0.0000
vt 0.6375 0.5125 0.0000
vt 0.7500 0.5125 0.0000
vt 0.8625 0.5125 0.0000
vt 0.6375 0.5688 0.0000
vt 0.7500 0.5688 0.0000
vt 0.8625 0.5688 0.0000
vt 0.6375 0.6250 0.0000
vt 0.7500 0.6250 0.0000
vt 0.8625 0.6250 0.0000
vt 0.6375 0.4000 0.0000
vt 0.7500 0.4000 0.0000
vt 0.8625 0.4000 0.0000
vt 0.6375 0.8500 0.0000
vt 0.7500 0.8500 0.0000
vt 0.8625 0.8500 0.0000
vt 0.8625 0.4000 0.0000
vt 0.8625 0.8500 0.0000
vt 0.7500 0.8500 0.0000
vt 0.7500 0.4000 0.0000
vt 0.6375 0.8500 0.0000
vt 0.6375 0.4000 0.0000
vt 0.6375 0.4000 0.0000
vt 0.7500 0.4000 0.0000
vt 0.7500 0.4563 0.0000
vt 0.6375 0.4563 0.0000
vt 0.8625 0.4000 0.0000
vt 0.8625 0.4563 0.0000
vt 0.7500 0.5125 0.0000
vt 0.6375 0.5125 0.0000
vt 0.8625 0.5125 0.0000
vt 0.7500 0.5688 0.0000
vt 0.6375 0.5688 0.0000
vt 0.8625 0.5688 0.0000
vt 0.7500 0.6250 0.0000
vt 0.6375 0.6250 0.0000
vt 0.8625 0.6250 0.0000
vt 0.6375 0.4000 0.0000
vt 0.8625 0.4000 0.0000
vt 0.8625 0.4563 0.0000
vt 0.6375 0.4563 0.0000
vt 0.8625 0.5125 0.0000
vt 0.6375 0.5125 0.0000
vt 0.8625 0.5688 0.0000
vt 0.6375 0.5688 0.0000
vt 0.8625 0.6250 0.0000
vt 0.6375 0.6250 0.0000
vt 0.6375 0.0828 0.0000
vt 0.6375 0.1672 0.0000
vt 0.8625 0.1672 0.0000
vt 0.8625 0.0828 0.0000
vt 0.6375 0.0828 0.0000
vt 0.8625 0.0828 0.0000
vt 0.8625 0.1672 0.0000
vt 0.6375 0.1672 0.0000
# 70 texture coords

g Bank_5_135
usemtl Material__2
f 5/30/1 2/27/2 1/28/3 
f 1/28/4 4/31/5 5/30/6 
f 6/29/7 3/26/8 2/27/9 
f 2/27/10 5/30/11 6/29/12 
f 8/15/13 7/14/14 1/11/15 
f 1/11/16 2/12/17 8/15/18 
f 9/16/19 8/15/20 2/12/21 
f 2/12/22 3/13/23 9/16/24 
f 14/18/25 13/17/26 7/14/27 
f 7/14/28 8/15/29 14/18/30 
f 15/19/31 14/18/32 8/15/33 
f 8/15/34 9/16/35 15/19/36 
f 20/21/37 19/20/38 13/17/39 
f 13/17/40 14/18/41 20/21/42 
f 21/22/43 20/21/44 14/18/45 
f 14/18/46 15/19/47 21/22/48 
f 26/24/49 25/23/50 19/20/51 
f 19/20/52 20/21/53 26/24/54 
f 27/25/55 26/24/56 20/21/57 
f 20/21/58 21/22/59 27/25/60 
f 10/4/61 9/3/62 3/1/63 
f 3/1/64 6/2/65 10/4/66 
f 16/6/67 15/5/68 9/3/69 
f 9/3/70 10/4/71 16/6/72 
f 22/8/73 21/7/74 15/5/75 
f 15/5/76 16/6/77 22/8/78 
f 28/10/79 27/9/80 21/7/81 
f 21/7/82 22/8/83 28/10/84 
f 11/15/85 10/14/86 6/11/87 
f 6/11/88 5/12/89 11/15/90 
f 12/16/91 11/15/92 5/12/93 
f 5/12/94 4/13/95 12/16/96 
f 17/18/97 16/17/98 10/14/99 
f 10/14/100 11/15/101 17/18/102 
f 18/19/103 17/18/104 11/15/105 
f 11/15/106 12/16/107 18/19/108 
f 23/21/109 22/20/110 16/17/111 
f 16/17/112 17/18/113 23/21/114 
f 24/22/115 23/21/116 17/18/117 
f 17/18/118 18/19/119 24/22/120 
f 29/24/121 28/23/122 22/20/123 
f 22/20/124 23/21/125 29/24/126 
f 30/25/127 29/24/128 23/21/129 
f 23/21/130 24/22/131 30/25/132 
f 7/4/133 12/3/134 4/1/135 
f 4/1/136 1/2/137 7/4/138 
f 13/6/139 18/5/140 12/3/141 
f 12/3/142 7/4/143 13/6/144 
f 19/8/145 24/7/146 18/5/147 
f 18/5/148 13/6/149 19/8/150 
f 25/10/151 30/9/152 24/7/153 
f 24/7/154 19/8/155 25/10/156 
f 33/34/157 34/35/158 31/32/159 
f 31/32/160 32/33/161 33/34/162 
f 35/36/163 36/37/164 34/35/165 
f 34/35/166 33/34/167 35/36/168 
f 37/40/169 38/41/170 31/38/171 
f 31/38/172 34/39/173 37/40/174 
f 39/43/175 37/40/176 34/39/177 
f 34/39/178 36/42/179 39/43/180 
f 40/44/181 41/45/182 38/41/183 
f 38/41/184 37/40/185 40/44/186 
f 42/46/187 40/44/188 37/40/189 
f 37/40/190 39/43/191 42/46/192 
f 43/47/193 44/48/194 41/45/195 
f 41/45/196 40/44/197 43/47/198 
f 45/49/199 43/47/200 40/44/201 
f 40/44/202 42/46/203 45/49/204 
f 26/50/205 27/51/206 44/48/207 
f 44/48/208 43/47/209 26/50/210 
f 25/52/211 26/50/212 43/47/213 
f 43/47/214 45/49/215 25/52/216 
f 46/55/217 39/56/218 36/53/219 
f 36/53/220 35/54/221 46/55/222 
f 47/57/223 42/58/224 39/56/225 
f 39/56/226 46/55/227 47/57/228 
f 48/59/229 45/60/230 42/58/231 
f 42/58/232 47/57/233 48/59/234 
f 30/61/235 25/62/236 45/60/237 
f 45/60/238 48/59/239 30/61/240 
f 49/40/241 46/41/242 35/38/243 
f 35/38/244 33/39/245 49/40/246 
f 50/43/247 49/40/248 33/39/249 
f 33/39/250 32/42/251 50/43/252 
f 51/44/253 47/45/254 46/41/255 
f 46/41/256 49/40/257 51/44/258 
f 52/46/259 51/44/260 49/40/261 
f 49/40/262 50/43/263 52/46/264 
f 53/47/265 48/48/266 47/45/267 
f 47/45/268 51/44/269 53/47/270 
f 54/49/271 53/47/272 51/44/273 
f 51/44/274 52/46/275 54/49/276 
f 29/50/277 30/51/278 48/48/279 
f 48/48/280 53/47/281 29/50/282 
f 28/52/283 29/50/284 53/47/285 
f 53/47/286 54/49/287 28/52/288 
f 38/55/289 50/56/290 32/53/291 
f 32/53/292 31/54/293 38/55/294 
f 41/57/295 52/58/296 50/56/297 
f 50/56/298 38/55/299 41/57/300 
f 44/59/301 54/60/302 52/58/303 
f 52/58/304 41/57/305 44/59/306 
f 27/61/307 28/62/308 54/60/309 
f 54/60/310 44/59/311 27/61/312 
f 55/63/313 57/64/314 58/65/315 
f 58/65/316 56/66/317 55/63/318 
f 59/67/319 60/68/320 62/69/321 
f 62/69/322 61/70/323 59/67/324 
f 55/63/325 56/66/326 60/68/327 
f 60/68/328 59/67/329 55/63/330 
f 56/66/331 58/65/332 62/69/333 
f 62/69/334 60/68/335 56/66/336 
f 58/65/337 57/64/338 61/70/339 
f 61/70/340 62/69/341 58/65/342 
f 57/64/343 55/63/344 59/67/345 
f 59/67/346 61/70/347 57/64/348 
# 116 faces

