# 3ds Max Wavefront OBJ Exporter v0.97b - (c)2007 guruware
# File Created: 09.03.2017 20:17:37

mtllib Bank-1-105_MSH.mtl

#
# object Bank_1_105
#

v  -0.2500 0.0156 -0.0000
v  0.0000 0.0156 -0.0000
v  0.2500 0.0156 -0.0000
v  -0.2500 -0.0156 0.0000
v  0.0000 -0.0156 0.0000
v  0.2500 -0.0156 0.0000
v  -0.2292 0.0156 -0.1807
v  0.0143 0.0156 -0.1239
v  0.2577 0.0156 -0.0671
v  0.2577 -0.0156 -0.0671
v  0.0143 -0.0156 -0.1239
v  -0.2292 -0.0156 -0.1807
v  -0.1679 0.0156 -0.3519
v  0.0563 0.0156 -0.2413
v  0.2805 0.0156 -0.1308
v  0.2805 -0.0156 -0.1308
v  0.0563 -0.0156 -0.2413
v  -0.1679 -0.0156 -0.3519
v  -0.0694 0.0156 -0.5048
v  0.1239 0.0156 -0.3462
v  0.3171 0.0156 -0.1876
v  0.3171 -0.0156 -0.1876
v  0.1239 -0.0156 -0.3462
v  -0.0694 -0.0156 -0.5048
v  0.0613 0.0156 -0.6313
v  0.2135 0.0156 -0.4329
v  0.2135 -0.0156 -0.4329
v  0.0613 -0.0156 -0.6313
v  0.6770 0.0156 -0.8658
v  0.6770 -0.0156 -0.8658
v  0.4270 -0.0156 -0.8658
v  0.4270 0.0156 -0.8658
v  0.1770 -0.0156 -0.8658
v  0.1770 0.0156 -0.8658
v  0.4127 0.0156 -0.7419
v  0.6562 0.0156 -0.6851
v  0.1693 0.0156 -0.7987
v  0.3707 0.0156 -0.6245
v  0.5949 0.0156 -0.5139
v  0.1465 0.0156 -0.7351
v  0.3031 0.0156 -0.5197
v  0.4964 0.0156 -0.3611
v  0.1099 0.0156 -0.6783
v  0.3657 0.0156 -0.2346
v  0.1693 -0.0156 -0.7987
v  0.1465 -0.0156 -0.7351
v  0.1099 -0.0156 -0.6783
v  0.4127 -0.0156 -0.7419
v  0.6562 -0.0156 -0.6851
v  0.3707 -0.0156 -0.6245
v  0.5949 -0.0156 -0.5139
v  0.3031 -0.0156 -0.5197
v  0.4964 -0.0156 -0.3611
v  0.3657 -0.0156 -0.2346
v  -0.2500 -0.0313 0.7188
v  0.2500 -0.0313 0.7188
v  -0.2500 -0.0313 0.5312
v  0.2500 -0.0313 0.5313
v  -0.2500 0.0312 0.7188
v  0.2500 0.0312 0.7188
v  -0.2500 0.0312 0.5312
v  0.2500 0.0312 0.5313
# 62 vertices

vn -0.0000 0.0000 1.0000
vn -0.0000 0.0000 1.0000
vn -0.0000 0.0000 1.0000
vn -0.0000 0.0000 1.0000
vn -0.0000 0.0000 1.0000
vn -0.0000 0.0000 1.0000
vn -0.0000 0.0000 1.0000
vn -0.0000 0.0000 1.0000
vn -0.0000 0.0000 1.0000
vn -0.0000 0.0000 1.0000
vn -0.0000 0.0000 1.0000
vn -0.0000 0.0000 1.0000
vn 0.0000 1.0000 -0.0000
vn 0.0000 1.0000 -0.0000
vn 0.0000 1.0000 -0.0000
vn 0.0000 1.0000 -0.0000
vn 0.0000 1.0000 -0.0000
vn 0.0000 1.0000 -0.0000
vn 0.0000 1.0000 -0.0000
vn 0.0000 1.0000 -0.0000
vn 0.0000 1.0000 -0.0000
vn 0.0000 1.0000 -0.0000
vn 0.0000 1.0000 -0.0000
vn 0.0000 1.0000 -0.0000
vn 0.0000 1.0000 -0.0000
vn 0.0000 1.0000 -0.0000
vn 0.0000 1.0000 -0.0000
vn 0.0000 1.0000 -0.0000
vn 0.0000 1.0000 -0.0000
vn 0.0000 1.0000 -0.0000
vn 0.0000 1.0000 -0.0000
vn 0.0000 1.0000 -0.0000
vn 0.0000 1.0000 -0.0000
vn 0.0000 1.0000 -0.0000
vn 0.0000 1.0000 -0.0000
vn 0.0000 1.0000 -0.0000
vn 0.0000 1.0000 -0.0000
vn 0.0000 1.0000 -0.0000
vn 0.0000 1.0000 -0.0000
vn 0.0000 1.0000 -0.0000
vn 0.0000 1.0000 -0.0000
vn 0.0000 1.0000 -0.0000
vn 0.0000 1.0000 -0.0000
vn 0.0000 1.0000 -0.0000
vn 0.0000 1.0000 -0.0000
vn 0.0000 1.0000 -0.0000
vn 0.0000 1.0000 -0.0000
vn 0.0000 1.0000 -0.0000
vn 0.0000 1.0000 -0.0000
vn 0.0000 1.0000 -0.0000
vn 0.0000 1.0000 -0.0000
vn 0.0000 1.0000 -0.0000
vn 0.0000 1.0000 -0.0000
vn 0.0000 1.0000 -0.0000
vn 0.0000 1.0000 -0.0000
vn 0.0000 1.0000 -0.0000
vn 0.0000 1.0000 -0.0000
vn 0.0000 1.0000 -0.0000
vn 0.0000 1.0000 -0.0000
vn 0.0000 1.0000 -0.0000
vn 0.9739 0.0000 0.2271
vn 0.9739 0.0000 0.2271
vn 0.9934 0.0000 0.1143
vn 0.9934 0.0000 0.1143
vn 0.9934 0.0000 0.1143
vn 0.9739 0.0000 0.2271
vn 0.8969 0.0000 0.4423
vn 0.8969 0.0000 0.4423
vn 0.9739 0.0000 0.2271
vn 0.9739 0.0000 0.2271
vn 0.9739 0.0000 0.2271
vn 0.8969 0.0000 0.4423
vn 0.7730 0.0000 0.6344
vn 0.7730 0.0000 0.6344
vn 0.8969 0.0000 0.4423
vn 0.8969 0.0000 0.4423
vn 0.8969 0.0000 0.4423
vn 0.7730 0.0000 0.6344
vn 0.6954 0.0000 0.7186
vn 0.6954 0.0000 0.7186
vn 0.7730 0.0000 0.6344
vn 0.7730 0.0000 0.6344
vn 0.7730 0.0000 0.6344
vn 0.6954 0.0000 0.7186
vn 0.0000 -1.0000 0.0000
vn 0.0000 -1.0000 0.0000
vn 0.0000 -1.0000 0.0000
vn 0.0000 -1.0000 0.0000
vn 0.0000 -1.0000 0.0000
vn 0.0000 -1.0000 0.0000
vn 0.0000 -1.0000 0.0000
vn 0.0000 -1.0000 0.0000
vn 0.0000 -1.0000 0.0000
vn 0.0000 -1.0000 0.0000
vn 0.0000 -1.0000 0.0000
vn 0.0000 -1.0000 0.0000
vn 0.0000 -1.0000 0.0000
vn 0.0000 -1.0000 0.0000
vn 0.0000 -1.0000 0.0000
vn 0.0000 -1.0000 0.0000
vn 0.0000 -1.0000 0.0000
vn 0.0000 -1.0000 0.0000
vn 0.0000 -1.0000 0.0000
vn 0.0000 -1.0000 0.0000
vn 0.0000 -1.0000 0.0000
vn 0.0000 -1.0000 0.0000
vn 0.0000 -1.0000 0.0000
vn 0.0000 -1.0000 0.0000
vn 0.0000 -1.0000 0.0000
vn 0.0000 -1.0000 0.0000
vn 0.0000 -1.0000 0.0000
vn 0.0000 -1.0000 0.0000
vn 0.0000 -1.0000 0.0000
vn 0.0000 -1.0000 0.0000
vn 0.0000 -1.0000 0.0000
vn 0.0000 -1.0000 0.0000
vn 0.0000 -1.0000 0.0000
vn 0.0000 -1.0000 0.0000
vn 0.0000 -1.0000 0.0000
vn 0.0000 -1.0000 0.0000
vn 0.0000 -1.0000 0.0000
vn 0.0000 -1.0000 0.0000
vn 0.0000 -1.0000 0.0000
vn 0.0000 -1.0000 0.0000
vn 0.0000 -1.0000 0.0000
vn 0.0000 -1.0000 0.0000
vn 0.0000 -1.0000 0.0000
vn 0.0000 -1.0000 0.0000
vn 0.0000 -1.0000 0.0000
vn 0.0000 -1.0000 0.0000
vn 0.0000 -1.0000 0.0000
vn 0.0000 -1.0000 0.0000
vn -0.9739 -0.0000 -0.2271
vn -0.9739 -0.0000 -0.2271
vn -0.9934 -0.0000 -0.1143
vn -0.9934 -0.0000 -0.1143
vn -0.9934 -0.0000 -0.1143
vn -0.9739 -0.0000 -0.2271
vn -0.8969 -0.0000 -0.4423
vn -0.8969 -0.0000 -0.4423
vn -0.9739 -0.0000 -0.2271
vn -0.9739 -0.0000 -0.2271
vn -0.9739 -0.0000 -0.2271
vn -0.8969 -0.0000 -0.4423
vn -0.7730 -0.0000 -0.6344
vn -0.7730 -0.0000 -0.6344
vn -0.8969 -0.0000 -0.4423
vn -0.8969 -0.0000 -0.4423
vn -0.8969 -0.0000 -0.4423
vn -0.7730 -0.0000 -0.6344
vn -0.6954 -0.0000 -0.7186
vn -0.6954 -0.0000 -0.7186
vn -0.7730 -0.0000 -0.6344
vn -0.7730 -0.0000 -0.6344
vn -0.7730 -0.0000 -0.6344
vn -0.6954 -0.0000 -0.7186
vn 0.0000 -0.0000 -1.0000
vn 0.0000 -0.0000 -1.0000
vn 0.0000 -0.0000 -1.0000
vn 0.0000 -0.0000 -1.0000
vn 0.0000 -0.0000 -1.0000
vn 0.0000 -0.0000 -1.0000
vn 0.0000 -0.0000 -1.0000
vn 0.0000 -0.0000 -1.0000
vn 0.0000 -0.0000 -1.0000
vn 0.0000 -0.0000 -1.0000
vn 0.0000 -0.0000 -1.0000
vn 0.0000 -0.0000 -1.0000
vn 0.0000 1.0000 -0.0000
vn 0.0000 1.0000 -0.0000
vn 0.0000 1.0000 -0.0000
vn 0.0000 1.0000 -0.0000
vn 0.0000 1.0000 -0.0000
vn 0.0000 1.0000 -0.0000
vn 0.0000 1.0000 -0.0000
vn 0.0000 1.0000 -0.0000
vn 0.0000 1.0000 -0.0000
vn 0.0000 1.0000 -0.0000
vn 0.0000 1.0000 -0.0000
vn 0.0000 1.0000 -0.0000
vn 0.0000 1.0000 -0.0000
vn 0.0000 1.0000 -0.0000
vn 0.0000 1.0000 -0.0000
vn 0.0000 1.0000 -0.0000
vn 0.0000 1.0000 -0.0000
vn 0.0000 1.0000 -0.0000
vn 0.0000 1.0000 -0.0000
vn 0.0000 1.0000 -0.0000
vn 0.0000 1.0000 -0.0000
vn 0.0000 1.0000 -0.0000
vn 0.0000 1.0000 -0.0000
vn 0.0000 1.0000 -0.0000
vn 0.0000 1.0000 -0.0000
vn 0.0000 1.0000 -0.0000
vn 0.0000 1.0000 -0.0000
vn 0.0000 1.0000 -0.0000
vn 0.0000 1.0000 -0.0000
vn 0.0000 1.0000 -0.0000
vn 0.0000 1.0000 -0.0000
vn 0.0000 1.0000 -0.0000
vn 0.0000 1.0000 -0.0000
vn 0.0000 1.0000 -0.0000
vn 0.0000 1.0000 -0.0000
vn 0.0000 1.0000 -0.0000
vn 0.0000 1.0000 -0.0000
vn 0.0000 1.0000 -0.0000
vn 0.0000 1.0000 -0.0000
vn 0.0000 1.0000 -0.0000
vn 0.0000 1.0000 -0.0000
vn 0.0000 1.0000 -0.0000
vn 0.0000 1.0000 -0.0000
vn 0.0000 1.0000 -0.0000
vn 0.0000 1.0000 -0.0000
vn 0.0000 1.0000 -0.0000
vn 0.0000 1.0000 -0.0000
vn 0.0000 1.0000 -0.0000
vn -0.9739 -0.0000 -0.2271
vn -0.9739 -0.0000 -0.2271
vn -0.9934 -0.0000 -0.1143
vn -0.9934 -0.0000 -0.1143
vn -0.9934 -0.0000 -0.1143
vn -0.9739 -0.0000 -0.2271
vn -0.8969 -0.0000 -0.4423
vn -0.8969 -0.0000 -0.4423
vn -0.9739 -0.0000 -0.2271
vn -0.9739 -0.0000 -0.2271
vn -0.9739 -0.0000 -0.2271
vn -0.8969 -0.0000 -0.4423
vn -0.7730 -0.0000 -0.6344
vn -0.7730 -0.0000 -0.6344
vn -0.8969 -0.0000 -0.4423
vn -0.8969 -0.0000 -0.4423
vn -0.8969 -0.0000 -0.4423
vn -0.7730 -0.0000 -0.6344
vn -0.6954 -0.0000 -0.7186
vn -0.6954 -0.0000 -0.7186
vn -0.7730 -0.0000 -0.6344
vn -0.7730 -0.0000 -0.6344
vn -0.7730 -0.0000 -0.6344
vn -0.6954 -0.0000 -0.7186
vn 0.0000 -1.0000 0.0000
vn 0.0000 -1.0000 0.0000
vn 0.0000 -1.0000 0.0000
vn 0.0000 -1.0000 0.0000
vn 0.0000 -1.0000 0.0000
vn 0.0000 -1.0000 0.0000
vn 0.0000 -1.0000 0.0000
vn 0.0000 -1.0000 0.0000
vn 0.0000 -1.0000 0.0000
vn 0.0000 -1.0000 0.0000
vn 0.0000 -1.0000 0.0000
vn 0.0000 -1.0000 0.0000
vn 0.0000 -1.0000 0.0000
vn 0.0000 -1.0000 0.0000
vn 0.0000 -1.0000 0.0000
vn 0.0000 -1.0000 0.0000
vn 0.0000 -1.0000 0.0000
vn 0.0000 -1.0000 0.0000
vn 0.0000 -1.0000 0.0000
vn 0.0000 -1.0000 0.0000
vn 0.0000 -1.0000 0.0000
vn 0.0000 -1.0000 0.0000
vn 0.0000 -1.0000 0.0000
vn 0.0000 -1.0000 0.0000
vn 0.0000 -1.0000 0.0000
vn 0.0000 -1.0000 0.0000
vn 0.0000 -1.0000 0.0000
vn 0.0000 -1.0000 0.0000
vn 0.0000 -1.0000 0.0000
vn 0.0000 -1.0000 0.0000
vn 0.0000 -1.0000 0.0000
vn 0.0000 -1.0000 0.0000
vn 0.0000 -1.0000 0.0000
vn 0.0000 -1.0000 0.0000
vn 0.0000 -1.0000 0.0000
vn 0.0000 -1.0000 0.0000
vn 0.0000 -1.0000 0.0000
vn 0.0000 -1.0000 0.0000
vn 0.0000 -1.0000 0.0000
vn 0.0000 -1.0000 0.0000
vn 0.0000 -1.0000 0.0000
vn 0.0000 -1.0000 0.0000
vn 0.0000 -1.0000 0.0000
vn 0.0000 -1.0000 0.0000
vn 0.0000 -1.0000 0.0000
vn 0.0000 -1.0000 0.0000
vn 0.0000 -1.0000 0.0000
vn 0.0000 -1.0000 0.0000
vn 0.9739 0.0000 0.2271
vn 0.9739 0.0000 0.2271
vn 0.9934 0.0000 0.1143
vn 0.9934 0.0000 0.1143
vn 0.9934 0.0000 0.1143
vn 0.9739 0.0000 0.2271
vn 0.8969 0.0000 0.4423
vn 0.8969 0.0000 0.4423
vn 0.9739 0.0000 0.2271
vn 0.9739 0.0000 0.2271
vn 0.9739 0.0000 0.2271
vn 0.8969 0.0000 0.4423
vn 0.7730 0.0000 0.6344
vn 0.7730 0.0000 0.6344
vn 0.8969 0.0000 0.4423
vn 0.8969 0.0000 0.4423
vn 0.8969 0.0000 0.4423
vn 0.7730 0.0000 0.6344
vn 0.6954 0.0000 0.7186
vn 0.6954 0.0000 0.7186
vn 0.7730 0.0000 0.6344
vn 0.7730 0.0000 0.6344
vn 0.7730 0.0000 0.6344
vn 0.6954 0.0000 0.7186
vn 0.0000 -1.0000 0.0000
vn 0.0000 -1.0000 0.0000
vn 0.0000 -1.0000 0.0000
vn 0.0000 -1.0000 0.0000
vn 0.0000 -1.0000 0.0000
vn 0.0000 -1.0000 0.0000
vn -0.0000 1.0000 0.0000
vn 0.0000 1.0000 0.0000
vn -0.0000 1.0000 0.0000
vn -0.0000 1.0000 0.0000
vn -0.0000 1.0000 0.0000
vn -0.0000 1.0000 0.0000
vn 0.0000 0.0000 1.0000
vn 0.0000 0.0000 1.0000
vn 0.0000 0.0000 1.0000
vn 0.0000 0.0000 1.0000
vn 0.0000 0.0000 1.0000
vn 0.0000 0.0000 1.0000
vn 1.0000 0.0000 0.0000
vn 1.0000 0.0000 0.0000
vn 1.0000 0.0000 0.0000
vn 1.0000 0.0000 0.0000
vn 1.0000 0.0000 0.0000
vn 1.0000 0.0000 0.0000
vn 0.0000 -0.0000 -1.0000
vn 0.0000 -0.0000 -1.0000
vn 0.0000 -0.0000 -1.0000
vn 0.0000 -0.0000 -1.0000
vn 0.0000 -0.0000 -1.0000
vn 0.0000 -0.0000 -1.0000
vn -1.0000 -0.0000 -0.0000
vn -1.0000 -0.0000 -0.0000
vn -1.0000 -0.0000 -0.0000
vn -1.0000 -0.0000 -0.0000
vn -1.0000 -0.0000 -0.0000
vn -1.0000 -0.0000 -0.0000
# 348 vertex normals

vt 0.6375 0.4000 0.0000
vt 0.8625 0.4000 0.0000
vt 0.6375 0.4563 0.0000
vt 0.8625 0.4563 0.0000
vt 0.6375 0.5125 0.0000
vt 0.8625 0.5125 0.0000
vt 0.6375 0.5688 0.0000
vt 0.8625 0.5688 0.0000
vt 0.6375 0.6250 0.0000
vt 0.8625 0.6250 0.0000
vt 0.6375 0.4000 0.0000
vt 0.7500 0.4000 0.0000
vt 0.8625 0.4000 0.0000
vt 0.6375 0.4563 0.0000
vt 0.7500 0.4563 0.0000
vt 0.8625 0.4563 0.0000
vt 0.6375 0.5125 0.0000
vt 0.7500 0.5125 0.0000
vt 0.8625 0.5125 0.0000
vt 0.6375 0.5688 0.0000
vt 0.7500 0.5688 0.0000
vt 0.8625 0.5688 0.0000
vt 0.6375 0.6250 0.0000
vt 0.7500 0.6250 0.0000
vt 0.8625 0.6250 0.0000
vt 0.6375 0.4000 0.0000
vt 0.7500 0.4000 0.0000
vt 0.8625 0.4000 0.0000
vt 0.6375 0.8500 0.0000
vt 0.7500 0.8500 0.0000
vt 0.8625 0.8500 0.0000
vt 0.8625 0.4000 0.0000
vt 0.8625 0.8500 0.0000
vt 0.7500 0.8500 0.0000
vt 0.7500 0.4000 0.0000
vt 0.6375 0.8500 0.0000
vt 0.6375 0.4000 0.0000
vt 0.6375 0.4000 0.0000
vt 0.7500 0.4000 0.0000
vt 0.7500 0.4563 0.0000
vt 0.6375 0.4563 0.0000
vt 0.8625 0.4000 0.0000
vt 0.8625 0.4563 0.0000
vt 0.7500 0.5125 0.0000
vt 0.6375 0.5125 0.0000
vt 0.8625 0.5125 0.0000
vt 0.7500 0.5688 0.0000
vt 0.6375 0.5688 0.0000
vt 0.8625 0.5688 0.0000
vt 0.7500 0.6250 0.0000
vt 0.6375 0.6250 0.0000
vt 0.8625 0.6250 0.0000
vt 0.6375 0.4000 0.0000
vt 0.8625 0.4000 0.0000
vt 0.8625 0.4563 0.0000
vt 0.6375 0.4563 0.0000
vt 0.8625 0.5125 0.0000
vt 0.6375 0.5125 0.0000
vt 0.8625 0.5688 0.0000
vt 0.6375 0.5688 0.0000
vt 0.8625 0.6250 0.0000
vt 0.6375 0.6250 0.0000
vt 0.6375 0.0828 0.0000
vt 0.6375 0.1672 0.0000
vt 0.8625 0.1672 0.0000
vt 0.8625 0.0828 0.0000
vt 0.6375 0.0828 0.0000
vt 0.8625 0.0828 0.0000
vt 0.8625 0.1672 0.0000
vt 0.6375 0.1672 0.0000
# 70 texture coords

g Bank_1_105
usemtl Material__2
f 5/30/1 2/27/2 1/28/3 
f 1/28/4 4/31/5 5/30/6 
f 6/29/7 3/26/8 2/27/9 
f 2/27/10 5/30/11 6/29/12 
f 8/15/13 7/14/14 1/11/15 
f 1/11/16 2/12/17 8/15/18 
f 9/16/19 8/15/20 2/12/21 
f 2/12/22 3/13/23 9/16/24 
f 14/18/25 13/17/26 7/14/27 
f 7/14/28 8/15/29 14/18/30 
f 15/19/31 14/18/32 8/15/33 
f 8/15/34 9/16/35 15/19/36 
f 20/21/37 19/20/38 13/17/39 
f 13/17/40 14/18/41 20/21/42 
f 21/22/43 20/21/44 14/18/45 
f 14/18/46 15/19/47 21/22/48 
f 26/24/49 25/23/50 19/20/51 
f 19/20/52 20/21/53 26/24/54 
f 44/25/55 26/24/56 20/21/57 
f 20/21/58 21/22/59 44/25/60 
f 10/4/61 9/3/62 3/1/63 
f 3/1/64 6/2/65 10/4/66 
f 16/6/67 15/5/68 9/3/69 
f 9/3/70 10/4/71 16/6/72 
f 22/8/73 21/7/74 15/5/75 
f 15/5/76 16/6/77 22/8/78 
f 54/10/79 44/9/80 21/7/81 
f 21/7/82 22/8/83 54/10/84 
f 11/15/85 10/14/86 6/11/87 
f 6/11/88 5/12/89 11/15/90 
f 12/16/91 11/15/92 5/12/93 
f 5/12/94 4/13/95 12/16/96 
f 17/18/97 16/17/98 10/14/99 
f 10/14/100 11/15/101 17/18/102 
f 18/19/103 17/18/104 11/15/105 
f 11/15/106 12/16/107 18/19/108 
f 23/21/109 22/20/110 16/17/111 
f 16/17/112 17/18/113 23/21/114 
f 24/22/115 23/21/116 17/18/117 
f 17/18/118 18/19/119 24/22/120 
f 27/24/121 54/23/122 22/20/123 
f 22/20/124 23/21/125 27/24/126 
f 28/25/127 27/24/128 23/21/129 
f 23/21/130 24/22/131 28/25/132 
f 7/4/133 12/3/134 4/1/135 
f 4/1/136 1/2/137 7/4/138 
f 13/6/139 18/5/140 12/3/141 
f 12/3/142 7/4/143 13/6/144 
f 19/8/145 24/7/146 18/5/147 
f 18/5/148 13/6/149 19/8/150 
f 25/10/151 28/9/152 24/7/153 
f 24/7/154 19/8/155 25/10/156 
f 31/34/157 32/35/158 29/32/159 
f 29/32/160 30/33/161 31/34/162 
f 33/36/163 34/37/164 32/35/165 
f 32/35/166 31/34/167 33/36/168 
f 35/40/169 36/41/170 29/38/171 
f 29/38/172 32/39/173 35/40/174 
f 37/43/175 35/40/176 32/39/177 
f 32/39/178 34/42/179 37/43/180 
f 38/44/181 39/45/182 36/41/183 
f 36/41/184 35/40/185 38/44/186 
f 40/46/187 38/44/188 35/40/189 
f 35/40/190 37/43/191 40/46/192 
f 41/47/193 42/48/194 39/45/195 
f 39/45/196 38/44/197 41/47/198 
f 43/49/199 41/47/200 38/44/201 
f 38/44/202 40/46/203 43/49/204 
f 26/50/205 44/51/206 42/48/207 
f 42/48/208 41/47/209 26/50/210 
f 25/52/211 26/50/212 41/47/213 
f 41/47/214 43/49/215 25/52/216 
f 45/55/217 37/56/218 34/53/219 
f 34/53/220 33/54/221 45/55/222 
f 46/57/223 40/58/224 37/56/225 
f 37/56/226 45/55/227 46/57/228 
f 47/59/229 43/60/230 40/58/231 
f 40/58/232 46/57/233 47/59/234 
f 28/61/235 25/62/236 43/60/237 
f 43/60/238 47/59/239 28/61/240 
f 48/40/241 45/41/242 33/38/243 
f 33/38/244 31/39/245 48/40/246 
f 49/43/247 48/40/248 31/39/249 
f 31/39/250 30/42/251 49/43/252 
f 50/44/253 46/45/254 45/41/255 
f 45/41/256 48/40/257 50/44/258 
f 51/46/259 50/44/260 48/40/261 
f 48/40/262 49/43/263 51/46/264 
f 52/47/265 47/48/266 46/45/267 
f 46/45/268 50/44/269 52/47/270 
f 53/49/271 52/47/272 50/44/273 
f 50/44/274 51/46/275 53/49/276 
f 27/50/277 28/51/278 47/48/279 
f 47/48/280 52/47/281 27/50/282 
f 54/52/283 27/50/284 52/47/285 
f 52/47/286 53/49/287 54/52/288 
f 36/55/289 49/56/290 30/53/291 
f 30/53/292 29/54/293 36/55/294 
f 39/57/295 51/58/296 49/56/297 
f 49/56/298 36/55/299 39/57/300 
f 42/59/301 53/60/302 51/58/303 
f 51/58/304 39/57/305 42/59/306 
f 44/61/307 54/62/308 53/60/309 
f 53/60/310 42/59/311 44/61/312 
f 55/63/313 57/64/314 58/65/315 
f 58/65/316 56/66/317 55/63/318 
f 59/67/319 60/68/320 62/69/321 
f 62/69/322 61/70/323 59/67/324 
f 55/63/325 56/66/326 60/68/327 
f 60/68/328 59/67/329 55/63/330 
f 56/66/331 58/65/332 62/69/333 
f 62/69/334 60/68/335 56/66/336 
f 58/65/337 57/64/338 61/70/339 
f 61/70/340 62/69/341 58/65/342 
f 57/64/343 55/63/344 59/67/345 
f 59/67/346 61/70/347 57/64/348 
# 116 faces

