# 3ds Max Wavefront OBJ Exporter v0.97b - (c)2007 guruware
# File Created: 02.04.2017 21:53:48

mtllib Turn-8-105_MSH.mtl

#
# object Turn_8_105
#

v  -0.2500 0.0156 -0.0000
v  0.0000 0.0156 -0.0000
v  0.2500 0.0156 -0.0000
v  -0.2500 -0.0156 0.0000
v  0.0000 -0.0156 0.0000
v  0.2500 -0.0156 0.0000
v  5.5599 0.0156 -4.4581
v  5.4952 0.0156 -4.2166
v  5.4305 0.0156 -3.9752
v  5.5599 -0.0156 -4.4581
v  5.4952 -0.0156 -4.2166
v  5.4305 -0.0156 -3.9752
v  -0.1294 0.0156 -1.0480
v  0.1140 0.0156 -0.9913
v  0.3575 0.0156 -0.9345
v  0.3575 -0.0156 -0.9345
v  0.1140 -0.0156 -0.9913
v  -0.1294 -0.0156 -1.0480
v  0.2260 0.0156 -2.0413
v  0.4502 0.0156 -1.9308
v  0.6744 0.0156 -1.8202
v  0.6744 -0.0156 -1.8202
v  0.4502 -0.0156 -1.9308
v  0.2260 -0.0156 -2.0413
v  0.7976 0.0156 -2.9280
v  0.9909 0.0156 -2.7694
v  1.1842 0.0156 -2.6108
v  1.1842 -0.0156 -2.6108
v  0.9909 -0.0156 -2.7694
v  0.7976 -0.0156 -2.9280
v  1.5557 0.0156 -3.6616
v  1.7079 0.0156 -3.4633
v  1.8601 0.0156 -3.2650
v  1.8601 -0.0156 -3.2650
v  1.7079 -0.0156 -3.4633
v  1.5557 -0.0156 -3.6616
v  2.4606 0.0156 -4.2040
v  2.5638 0.0156 -3.9763
v  2.6669 0.0156 -3.7486
v  2.6669 -0.0156 -3.7486
v  2.5638 -0.0156 -3.9763
v  2.4606 -0.0156 -4.2040
v  3.4650 0.0156 -4.5267
v  3.5137 0.0156 -4.2815
v  3.5625 0.0156 -4.0363
v  3.5625 -0.0156 -4.0363
v  3.5137 -0.0156 -4.2815
v  3.4650 -0.0156 -4.5267
v  4.5164 0.0156 -4.6129
v  4.5082 0.0156 -4.3631
v  4.5000 0.0156 -4.1132
v  4.5000 -0.0156 -4.1132
v  4.5082 -0.0156 -4.3631
v  4.5164 -0.0156 -4.6129
v  -0.2500 -0.0313 0.7188
v  0.2500 -0.0313 0.7188
v  -0.2500 -0.0313 0.5312
v  0.2500 -0.0313 0.5313
v  -0.2500 0.0312 0.7188
v  0.2500 0.0312 0.7188
v  -0.2500 0.0312 0.5312
v  0.2500 0.0312 0.5313
v  -0.2500 -0.0313 0.7188
v  -0.2500 -0.0313 0.7188
v  0.2500 -0.0313 0.7188
v  0.2500 -0.0313 0.7188
v  -0.2500 -0.0313 0.5312
v  -0.2500 -0.0313 0.5312
v  0.2500 -0.0313 0.5313
v  0.2500 -0.0313 0.5313
v  -0.2500 0.0312 0.7188
v  -0.2500 0.0312 0.7188
v  0.2500 0.0312 0.7188
v  0.2500 0.0312 0.7188
v  -0.2500 0.0312 0.5312
v  -0.2500 0.0312 0.5312
v  0.2500 0.0312 0.5313
v  0.2500 0.0312 0.5313
v  -0.2500 0.0156 -0.0000
v  -0.2500 0.0156 -0.0000
v  0.0000 0.0156 -0.0000
v  0.2500 0.0156 -0.0000
v  0.2500 0.0156 -0.0000
v  -0.2500 -0.0156 0.0000
v  -0.2500 -0.0156 0.0000
v  0.0000 -0.0156 0.0000
v  0.2500 -0.0156 0.0000
v  0.2500 -0.0156 0.0000
v  5.5599 0.0156 -4.4581
v  5.5599 0.0156 -4.4581
v  5.4952 0.0156 -4.2166
v  5.4305 0.0156 -3.9752
v  5.4305 0.0156 -3.9752
v  5.5599 -0.0156 -4.4581
v  5.5599 -0.0156 -4.4581
v  5.4952 -0.0156 -4.2166
v  5.4305 -0.0156 -3.9752
v  5.4305 -0.0156 -3.9752
v  -0.1294 0.0156 -1.0480
v  0.3575 0.0156 -0.9345
v  0.3575 -0.0156 -0.9345
v  -0.1294 -0.0156 -1.0480
v  0.2260 0.0156 -2.0413
v  0.6744 0.0156 -1.8202
v  0.6744 -0.0156 -1.8202
v  0.2260 -0.0156 -2.0413
v  0.7976 0.0156 -2.9280
v  1.1842 0.0156 -2.6108
v  1.1842 -0.0156 -2.6108
v  0.7976 -0.0156 -2.9280
v  1.5557 0.0156 -3.6616
v  1.8601 0.0156 -3.2650
v  1.8601 -0.0156 -3.2650
v  1.5557 -0.0156 -3.6616
v  2.4606 0.0156 -4.2040
v  2.6669 0.0156 -3.7486
v  2.6669 -0.0156 -3.7486
v  2.4606 -0.0156 -4.2040
v  3.4650 0.0156 -4.5267
v  3.5625 0.0156 -4.0363
v  3.5625 -0.0156 -4.0363
v  3.4650 -0.0156 -4.5267
v  4.5164 0.0156 -4.6129
v  4.5000 0.0156 -4.1132
v  4.5000 -0.0156 -4.1132
v  4.5164 -0.0156 -4.6129
# 126 vertices

vn -0.0000 0.0000 1.0000
vn -0.0000 0.0000 1.0000
vn -0.0000 0.0000 1.0000
vn -0.0000 0.0000 1.0000
vn -0.0000 0.0000 1.0000
vn -0.0000 0.0000 1.0000
vn -0.0000 0.0000 1.0000
vn -0.0000 0.0000 1.0000
vn -0.0000 0.0000 1.0000
vn -0.0000 0.0000 1.0000
vn -0.0000 0.0000 1.0000
vn -0.0000 0.0000 1.0000
vn 0.9659 0.0000 0.2588
vn 0.9659 0.0000 0.2588
vn 0.9659 0.0000 0.2588
vn 0.9659 0.0000 0.2588
vn 0.9659 0.0000 0.2588
vn 0.9659 0.0000 0.2588
vn 0.9659 0.0000 0.2588
vn 0.9659 0.0000 0.2588
vn 0.9659 0.0000 0.2588
vn 0.9659 0.0000 0.2588
vn 0.9659 0.0000 0.2588
vn 0.9659 0.0000 0.2588
vn 0.0000 1.0000 -0.0000
vn 0.0000 1.0000 -0.0000
vn 0.0000 1.0000 -0.0000
vn 0.0000 1.0000 -0.0000
vn 0.0000 1.0000 -0.0000
vn 0.0000 1.0000 -0.0000
vn 0.0000 1.0000 -0.0000
vn 0.0000 1.0000 -0.0000
vn 0.0000 1.0000 -0.0000
vn 0.0000 1.0000 -0.0000
vn 0.0000 1.0000 -0.0000
vn 0.0000 1.0000 -0.0000
vn 0.0000 1.0000 -0.0000
vn 0.0000 1.0000 -0.0000
vn 0.0000 1.0000 -0.0000
vn 0.0000 1.0000 -0.0000
vn 0.0000 1.0000 -0.0000
vn 0.0000 1.0000 -0.0000
vn 0.0000 1.0000 -0.0000
vn 0.0000 1.0000 -0.0000
vn 0.0000 1.0000 -0.0000
vn 0.0000 1.0000 -0.0000
vn 0.0000 1.0000 -0.0000
vn 0.0000 1.0000 -0.0000
vn 0.0000 1.0000 -0.0000
vn 0.0000 1.0000 -0.0000
vn 0.0000 1.0000 -0.0000
vn 0.0000 1.0000 -0.0000
vn 0.0000 1.0000 -0.0000
vn 0.0000 1.0000 -0.0000
vn 0.0000 1.0000 -0.0000
vn 0.0000 1.0000 -0.0000
vn 0.0000 1.0000 -0.0000
vn 0.0000 1.0000 -0.0000
vn 0.0000 1.0000 -0.0000
vn 0.0000 1.0000 -0.0000
vn 0.0000 1.0000 -0.0000
vn 0.0000 1.0000 -0.0000
vn 0.0000 1.0000 -0.0000
vn 0.0000 1.0000 -0.0000
vn 0.0000 1.0000 -0.0000
vn 0.0000 1.0000 -0.0000
vn 0.0000 1.0000 -0.0000
vn 0.0000 1.0000 -0.0000
vn 0.0000 1.0000 -0.0000
vn 0.0000 1.0000 -0.0000
vn 0.0000 1.0000 -0.0000
vn 0.0000 1.0000 -0.0000
vn 0.0000 1.0000 -0.0000
vn 0.0000 1.0000 -0.0000
vn 0.0000 1.0000 -0.0000
vn 0.0000 1.0000 -0.0000
vn 0.0000 1.0000 -0.0000
vn 0.0000 1.0000 -0.0000
vn 0.0000 1.0000 -0.0000
vn 0.0000 1.0000 -0.0000
vn 0.0000 1.0000 -0.0000
vn 0.0000 1.0000 -0.0000
vn 0.0000 1.0000 -0.0000
vn 0.0000 1.0000 -0.0000
vn 0.0000 1.0000 -0.0000
vn 0.0000 1.0000 -0.0000
vn 0.0000 1.0000 -0.0000
vn 0.0000 1.0000 -0.0000
vn 0.0000 1.0000 -0.0000
vn 0.0000 1.0000 -0.0000
vn 0.0000 1.0000 -0.0000
vn 0.0000 1.0000 -0.0000
vn 0.0000 1.0000 -0.0000
vn 0.0000 1.0000 -0.0000
vn 0.0000 1.0000 -0.0000
vn 0.0000 1.0000 -0.0000
vn 0.0000 1.0000 -0.0000
vn 0.0000 1.0000 -0.0000
vn 0.0000 1.0000 -0.0000
vn 0.0000 1.0000 -0.0000
vn 0.0000 1.0000 -0.0000
vn 0.0000 1.0000 -0.0000
vn 0.0000 1.0000 -0.0000
vn 0.0000 1.0000 -0.0000
vn 0.0000 1.0000 -0.0000
vn 0.0000 1.0000 -0.0000
vn 0.0000 1.0000 -0.0000
vn 0.0000 1.0000 -0.0000
vn 0.0000 1.0000 -0.0000
vn 0.0000 1.0000 -0.0000
vn 0.0000 1.0000 -0.0000
vn 0.0000 1.0000 -0.0000
vn 0.0000 1.0000 -0.0000
vn 0.0000 1.0000 -0.0000
vn 0.0000 1.0000 -0.0000
vn 0.0000 1.0000 -0.0000
vn 0.0000 1.0000 -0.0000
vn 0.0000 1.0000 -0.0000
vn 0.0000 1.0000 -0.0000
vn 0.0000 1.0000 -0.0000
vn 0.9739 0.0000 0.2271
vn 0.9739 0.0000 0.2271
vn 0.9934 0.0000 0.1143
vn 0.9934 0.0000 0.1143
vn 0.9934 0.0000 0.1143
vn 0.9739 0.0000 0.2271
vn 0.8969 0.0000 0.4423
vn 0.8969 0.0000 0.4423
vn 0.9739 0.0000 0.2271
vn 0.9739 0.0000 0.2271
vn 0.9739 0.0000 0.2271
vn 0.8969 0.0000 0.4423
vn 0.7730 0.0000 0.6344
vn 0.7730 0.0000 0.6344
vn 0.8969 0.0000 0.4423
vn 0.8969 0.0000 0.4423
vn 0.8969 0.0000 0.4423
vn 0.7730 0.0000 0.6344
vn 0.6088 0.0000 0.7934
vn 0.6088 0.0000 0.7934
vn 0.7730 0.0000 0.6344
vn 0.7730 0.0000 0.6344
vn 0.7730 0.0000 0.6344
vn 0.6088 0.0000 0.7934
vn 0.4127 0.0000 0.9109
vn 0.4127 0.0000 0.9109
vn 0.6088 0.0000 0.7934
vn 0.6088 0.0000 0.7934
vn 0.6088 0.0000 0.7934
vn 0.4127 0.0000 0.9109
vn 0.1951 0.0000 0.9808
vn 0.1951 0.0000 0.9808
vn 0.4127 0.0000 0.9109
vn 0.4127 0.0000 0.9109
vn 0.4127 0.0000 0.9109
vn 0.1951 0.0000 0.9808
vn -0.0327 0.0000 0.9995
vn -0.0327 0.0000 0.9995
vn 0.1951 0.0000 0.9808
vn 0.1951 0.0000 0.9808
vn 0.1951 0.0000 0.9808
vn -0.0327 0.0000 0.9995
vn -0.1467 0.0000 0.9892
vn -0.1467 0.0000 0.9892
vn -0.0327 0.0000 0.9995
vn -0.0327 0.0000 0.9995
vn -0.0327 0.0000 0.9995
vn -0.1467 0.0000 0.9892
vn 0.0000 -1.0000 0.0000
vn 0.0000 -1.0000 0.0000
vn 0.0000 -1.0000 0.0000
vn 0.0000 -1.0000 0.0000
vn 0.0000 -1.0000 0.0000
vn 0.0000 -1.0000 0.0000
vn 0.0000 -1.0000 0.0000
vn 0.0000 -1.0000 0.0000
vn 0.0000 -1.0000 0.0000
vn 0.0000 -1.0000 0.0000
vn 0.0000 -1.0000 0.0000
vn 0.0000 -1.0000 0.0000
vn 0.0000 -1.0000 0.0000
vn 0.0000 -1.0000 0.0000
vn 0.0000 -1.0000 0.0000
vn 0.0000 -1.0000 0.0000
vn 0.0000 -1.0000 0.0000
vn 0.0000 -1.0000 0.0000
vn 0.0000 -1.0000 0.0000
vn 0.0000 -1.0000 0.0000
vn 0.0000 -1.0000 0.0000
vn 0.0000 -1.0000 0.0000
vn 0.0000 -1.0000 0.0000
vn 0.0000 -1.0000 0.0000
vn 0.0000 -1.0000 0.0000
vn 0.0000 -1.0000 0.0000
vn 0.0000 -1.0000 0.0000
vn 0.0000 -1.0000 0.0000
vn 0.0000 -1.0000 0.0000
vn 0.0000 -1.0000 0.0000
vn 0.0000 -1.0000 0.0000
vn 0.0000 -1.0000 0.0000
vn 0.0000 -1.0000 0.0000
vn 0.0000 -1.0000 0.0000
vn 0.0000 -1.0000 0.0000
vn 0.0000 -1.0000 0.0000
vn 0.0000 -1.0000 0.0000
vn 0.0000 -1.0000 0.0000
vn 0.0000 -1.0000 0.0000
vn 0.0000 -1.0000 0.0000
vn 0.0000 -1.0000 0.0000
vn 0.0000 -1.0000 0.0000
vn 0.0000 -1.0000 0.0000
vn 0.0000 -1.0000 0.0000
vn 0.0000 -1.0000 0.0000
vn 0.0000 -1.0000 0.0000
vn 0.0000 -1.0000 0.0000
vn 0.0000 -1.0000 0.0000
vn 0.0000 -1.0000 0.0000
vn 0.0000 -1.0000 0.0000
vn 0.0000 -1.0000 0.0000
vn 0.0000 -1.0000 0.0000
vn 0.0000 -1.0000 0.0000
vn 0.0000 -1.0000 0.0000
vn 0.0000 -1.0000 0.0000
vn 0.0000 -1.0000 0.0000
vn 0.0000 -1.0000 0.0000
vn 0.0000 -1.0000 0.0000
vn 0.0000 -1.0000 0.0000
vn 0.0000 -1.0000 0.0000
vn 0.0000 -1.0000 0.0000
vn 0.0000 -1.0000 0.0000
vn 0.0000 -1.0000 0.0000
vn 0.0000 -1.0000 0.0000
vn 0.0000 -1.0000 0.0000
vn 0.0000 -1.0000 0.0000
vn 0.0000 -1.0000 0.0000
vn 0.0000 -1.0000 0.0000
vn 0.0000 -1.0000 0.0000
vn 0.0000 -1.0000 0.0000
vn 0.0000 -1.0000 0.0000
vn 0.0000 -1.0000 0.0000
vn 0.0000 -1.0000 0.0000
vn 0.0000 -1.0000 0.0000
vn 0.0000 -1.0000 0.0000
vn 0.0000 -1.0000 0.0000
vn 0.0000 -1.0000 0.0000
vn 0.0000 -1.0000 0.0000
vn 0.0000 -1.0000 0.0000
vn 0.0000 -1.0000 0.0000
vn 0.0000 -1.0000 0.0000
vn 0.0000 -1.0000 0.0000
vn 0.0000 -1.0000 0.0000
vn 0.0000 -1.0000 0.0000
vn 0.0000 -1.0000 0.0000
vn 0.0000 -1.0000 0.0000
vn 0.0000 -1.0000 0.0000
vn 0.0000 -1.0000 0.0000
vn 0.0000 -1.0000 0.0000
vn 0.0000 -1.0000 0.0000
vn 0.0000 -1.0000 0.0000
vn 0.0000 -1.0000 0.0000
vn 0.0000 -1.0000 0.0000
vn 0.0000 -1.0000 0.0000
vn 0.0000 -1.0000 0.0000
vn 0.0000 -1.0000 0.0000
vn -0.9739 -0.0000 -0.2271
vn -0.9739 -0.0000 -0.2271
vn -0.9934 -0.0000 -0.1143
vn -0.9934 -0.0000 -0.1143
vn -0.9934 -0.0000 -0.1143
vn -0.9739 -0.0000 -0.2271
vn -0.8969 -0.0000 -0.4423
vn -0.8969 -0.0000 -0.4423
vn -0.9739 -0.0000 -0.2271
vn -0.9739 -0.0000 -0.2271
vn -0.9739 -0.0000 -0.2271
vn -0.8969 -0.0000 -0.4423
vn -0.7730 -0.0000 -0.6344
vn -0.7730 -0.0000 -0.6344
vn -0.8969 -0.0000 -0.4423
vn -0.8969 -0.0000 -0.4423
vn -0.8969 -0.0000 -0.4423
vn -0.7730 -0.0000 -0.6344
vn -0.6088 -0.0000 -0.7934
vn -0.6088 -0.0000 -0.7934
vn -0.7730 -0.0000 -0.6344
vn -0.7730 -0.0000 -0.6344
vn -0.7730 -0.0000 -0.6344
vn -0.6088 -0.0000 -0.7934
vn -0.4127 -0.0000 -0.9109
vn -0.4127 -0.0000 -0.9109
vn -0.6088 -0.0000 -0.7934
vn -0.6088 -0.0000 -0.7934
vn -0.6088 -0.0000 -0.7934
vn -0.4127 -0.0000 -0.9109
vn -0.1951 -0.0000 -0.9808
vn -0.1951 -0.0000 -0.9808
vn -0.4127 -0.0000 -0.9109
vn -0.4127 -0.0000 -0.9109
vn -0.4127 -0.0000 -0.9109
vn -0.1951 -0.0000 -0.9808
vn 0.0327 -0.0000 -0.9995
vn 0.0327 -0.0000 -0.9995
vn -0.1951 -0.0000 -0.9808
vn -0.1951 -0.0000 -0.9808
vn -0.1951 -0.0000 -0.9808
vn 0.0327 -0.0000 -0.9995
vn 0.1467 -0.0000 -0.9892
vn 0.1467 -0.0000 -0.9892
vn 0.0327 -0.0000 -0.9995
vn 0.0327 -0.0000 -0.9995
vn 0.0327 -0.0000 -0.9995
vn 0.1467 -0.0000 -0.9892
vn 0.0000 -1.0000 0.0000
vn 0.0000 -1.0000 0.0000
vn 0.0000 -1.0000 0.0000
vn 0.0000 -1.0000 0.0000
vn 0.0000 -1.0000 0.0000
vn 0.0000 -1.0000 0.0000
vn -0.0000 1.0000 0.0000
vn 0.0000 1.0000 0.0000
vn -0.0000 1.0000 0.0000
vn -0.0000 1.0000 0.0000
vn -0.0000 1.0000 0.0000
vn -0.0000 1.0000 0.0000
vn 0.0000 0.0000 1.0000
vn 0.0000 0.0000 1.0000
vn 0.0000 0.0000 1.0000
vn 0.0000 0.0000 1.0000
vn 0.0000 0.0000 1.0000
vn 0.0000 0.0000 1.0000
vn 1.0000 0.0000 0.0000
vn 1.0000 0.0000 0.0000
vn 1.0000 0.0000 0.0000
vn 1.0000 0.0000 0.0000
vn 1.0000 0.0000 0.0000
vn 1.0000 0.0000 0.0000
vn 0.0000 -0.0000 -1.0000
vn 0.0000 -0.0000 -1.0000
vn 0.0000 -0.0000 -1.0000
vn 0.0000 -0.0000 -1.0000
vn 0.0000 -0.0000 -1.0000
vn 0.0000 -0.0000 -1.0000
vn -1.0000 -0.0000 -0.0000
vn -1.0000 -0.0000 -0.0000
vn -1.0000 -0.0000 -0.0000
vn -1.0000 -0.0000 -0.0000
vn -1.0000 -0.0000 -0.0000
vn -1.0000 -0.0000 -0.0000
# 348 vertex normals

vt 0.6375 0.4000 0.0000
vt 0.8625 0.4000 0.0000
vt 0.6375 0.4563 0.0000
vt 0.8625 0.4563 0.0000
vt 0.6375 0.5125 0.0000
vt 0.8625 0.5125 0.0000
vt 0.6375 0.5688 0.0000
vt 0.8625 0.5688 0.0000
vt 0.6375 0.6250 0.0000
vt 0.8625 0.6250 0.0000
vt 0.6375 0.6812 0.0000
vt 0.8625 0.6812 0.0000
vt 0.6375 0.7375 0.0000
vt 0.8625 0.7375 0.0000
vt 0.6375 0.7937 0.0000
vt 0.8625 0.7937 0.0000
vt 0.6375 0.8500 0.0000
vt 0.8625 0.8500 0.0000
vt 0.6375 0.4000 0.0000
vt 0.7500 0.4000 0.0000
vt 0.8625 0.4000 0.0000
vt 0.6375 0.4563 0.0000
vt 0.7500 0.4563 0.0000
vt 0.8625 0.4563 0.0000
vt 0.6375 0.5125 0.0000
vt 0.7500 0.5125 0.0000
vt 0.8625 0.5125 0.0000
vt 0.6375 0.5688 0.0000
vt 0.7500 0.5688 0.0000
vt 0.8625 0.5688 0.0000
vt 0.6375 0.6250 0.0000
vt 0.7500 0.6250 0.0000
vt 0.8625 0.6250 0.0000
vt 0.6375 0.6812 0.0000
vt 0.7500 0.6812 0.0000
vt 0.8625 0.6812 0.0000
vt 0.6375 0.7375 0.0000
vt 0.7500 0.7375 0.0000
vt 0.8625 0.7375 0.0000
vt 0.6375 0.7937 0.0000
vt 0.7500 0.7937 0.0000
vt 0.8625 0.7937 0.0000
vt 0.6375 0.8500 0.0000
vt 0.7500 0.8500 0.0000
vt 0.8625 0.8500 0.0000
vt 0.6375 0.4000 0.0000
vt 0.7500 0.4000 0.0000
vt 0.8625 0.4000 0.0000
vt 0.6375 0.8500 0.0000
vt 0.7500 0.8500 0.0000
vt 0.8625 0.8500 0.0000
vt 0.6375 0.0828 0.0000
vt 0.6375 0.1672 0.0000
vt 0.8625 0.1672 0.0000
vt 0.8625 0.0828 0.0000
vt 0.6375 0.0828 0.0000
vt 0.8625 0.0828 0.0000
vt 0.8625 0.1672 0.0000
vt 0.6375 0.1672 0.0000
# 59 texture coords

g Turn_8_105
usemtl Material__2
f 86/50/1 2/47/2 80/48/3 
f 80/48/4 85/51/5 86/50/6 
f 6/49/7 3/46/8 2/47/9 
f 2/47/10 86/50/11 6/49/12 
f 96/50/13 10/49/14 7/46/15 
f 7/46/16 91/47/17 96/50/18 
f 98/51/19 96/50/20 91/47/21 
f 91/47/22 93/48/23 98/51/24 
f 14/23/25 13/22/26 1/19/27 
f 1/19/28 81/20/29 14/23/30 
f 100/24/31 14/23/32 81/20/33 
f 81/20/34 83/21/35 100/24/36 
f 20/26/37 19/25/38 13/22/39 
f 13/22/40 14/23/41 20/26/42 
f 104/27/43 20/26/44 14/23/45 
f 14/23/46 100/24/47 104/27/48 
f 26/29/49 25/28/50 19/25/51 
f 19/25/52 20/26/53 26/29/54 
f 108/30/55 26/29/56 20/26/57 
f 20/26/58 104/27/59 108/30/60 
f 32/32/61 31/31/62 25/28/63 
f 25/28/64 26/29/65 32/32/66 
f 112/33/67 32/32/68 26/29/69 
f 26/29/70 108/30/71 112/33/72 
f 38/35/73 37/34/74 31/31/75 
f 31/31/76 32/32/77 38/35/78 
f 116/36/79 38/35/80 32/32/81 
f 32/32/82 112/33/83 116/36/84 
f 44/38/85 43/37/86 37/34/87 
f 37/34/88 38/35/89 44/38/90 
f 120/39/91 44/38/92 38/35/93 
f 38/35/94 116/36/95 120/39/96 
f 50/41/97 123/40/98 43/37/99 
f 43/37/100 44/38/101 50/41/102 
f 51/42/103 50/41/104 44/38/105 
f 44/38/106 120/39/107 51/42/108 
f 8/44/109 90/43/110 123/40/111 
f 123/40/112 50/41/113 8/44/114 
f 9/45/115 8/44/116 50/41/117 
f 50/41/118 51/42/119 9/45/120 
f 101/4/121 15/3/122 82/1/123 
f 82/1/124 88/2/125 101/4/126 
f 105/6/127 21/5/128 15/3/129 
f 15/3/130 101/4/131 105/6/132 
f 109/8/133 27/7/134 21/5/135 
f 21/5/136 105/6/137 109/8/138 
f 113/10/139 33/9/140 27/7/141 
f 27/7/142 109/8/143 113/10/144 
f 117/12/145 39/11/146 33/9/147 
f 33/9/148 113/10/149 117/12/150 
f 121/14/151 45/13/152 39/11/153 
f 39/11/154 117/12/155 121/14/156 
f 52/16/157 124/15/158 45/13/159 
f 45/13/160 121/14/161 52/16/162 
f 12/18/163 92/17/164 124/15/165 
f 124/15/166 52/16/167 12/18/168 
f 17/23/169 16/22/170 87/19/171 
f 87/19/172 5/20/173 17/23/174 
f 102/24/175 17/23/176 5/20/177 
f 5/20/178 84/21/179 102/24/180 
f 23/26/181 22/25/182 16/22/183 
f 16/22/184 17/23/185 23/26/186 
f 106/27/187 23/26/188 17/23/189 
f 17/23/190 102/24/191 106/27/192 
f 29/29/193 28/28/194 22/25/195 
f 22/25/196 23/26/197 29/29/198 
f 110/30/199 29/29/200 23/26/201 
f 23/26/202 106/27/203 110/30/204 
f 35/32/205 34/31/206 28/28/207 
f 28/28/208 29/29/209 35/32/210 
f 114/33/211 35/32/212 29/29/213 
f 29/29/214 110/30/215 114/33/216 
f 41/35/217 40/34/218 34/31/219 
f 34/31/220 35/32/221 41/35/222 
f 118/36/223 41/35/224 35/32/225 
f 35/32/226 114/33/227 118/36/228 
f 47/38/229 46/37/230 40/34/231 
f 40/34/232 41/35/233 47/38/234 
f 122/39/235 47/38/236 41/35/237 
f 41/35/238 118/36/239 122/39/240 
f 53/41/241 125/40/242 46/37/243 
f 46/37/244 47/38/245 53/41/246 
f 54/42/247 53/41/248 47/38/249 
f 47/38/250 122/39/251 54/42/252 
f 11/44/253 97/43/254 125/40/255 
f 125/40/256 53/41/257 11/44/258 
f 94/45/259 11/44/260 53/41/261 
f 53/41/262 54/42/263 94/45/264 
f 99/4/265 18/3/266 4/1/267 
f 4/1/268 79/2/269 99/4/270 
f 103/6/271 24/5/272 18/3/273 
f 18/3/274 99/4/275 103/6/276 
f 107/8/277 30/7/278 24/5/279 
f 24/5/280 103/6/281 107/8/282 
f 111/10/283 36/9/284 30/7/285 
f 30/7/286 107/8/287 111/10/288 
f 115/12/289 42/11/290 36/9/291 
f 36/9/292 111/10/293 115/12/294 
f 119/14/295 48/13/296 42/11/297 
f 42/11/298 115/12/299 119/14/300 
f 49/16/301 126/15/302 48/13/303 
f 48/13/304 119/14/305 49/16/306 
f 89/18/307 95/17/308 126/15/309 
f 126/15/310 49/16/311 89/18/312 
f 64/52/313 68/53/314 58/54/315 
f 58/54/316 56/55/317 64/52/318 
f 71/56/319 73/57/320 77/58/321 
f 77/58/322 75/59/323 71/56/324 
f 55/52/325 66/55/326 74/57/327 
f 74/57/328 59/56/329 55/52/330 
f 65/55/331 70/54/332 78/58/333 
f 78/58/334 60/57/335 65/55/336 
f 69/54/337 67/53/338 76/59/339 
f 76/59/340 62/58/341 69/54/342 
f 57/53/343 63/52/344 72/56/345 
f 72/56/346 61/59/347 57/53/348 
# 116 faces

