# 3ds Max Wavefront OBJ Exporter v0.97b - (c)2007 guruware
# File Created: 02.03.2017 22:43:46

mtllib Turn-1-30-COL.mtl

#
# object Turn_1_30
#

v  0.462046 -0.015625 0.690434
v  0.526998 -0.015625 0.652934
v  0.424547 -0.015625 0.625482
v  0.489498 -0.015625 0.587982
v  0.462046 0.015625 0.690434
v  0.526998 0.015625 0.652934
v  0.424547 0.015625 0.625482
v  0.489498 0.015625 0.587982
v  -0.745361 -0.015625 0.366910
v  -0.680409 -0.015625 0.329410
v  -0.782861 -0.015625 0.301958
v  -0.717909 -0.015625 0.264458
v  -0.745361 0.015625 0.366910
v  -0.680409 0.015625 0.329410
v  -0.782861 0.015625 0.301958
v  -0.717909 0.015625 0.264458
# 16 vertices

vn 0.000000 -1.000000 -0.000000
vn 0.000000 -1.000000 -0.000000
vn 0.000000 -1.000000 -0.000000
vn 0.000000 -1.000000 -0.000000
vn 0.000000 -1.000000 -0.000000
vn 0.000000 -1.000000 -0.000000
vn 0.000000 1.000000 -0.000000
vn 0.000000 1.000000 -0.000000
vn 0.000000 1.000000 -0.000000
vn 0.000000 1.000000 -0.000000
vn 0.000000 1.000000 -0.000000
vn 0.000000 1.000000 -0.000000
vn 0.500000 0.000000 0.866026
vn 0.500000 0.000000 0.866026
vn 0.500000 0.000000 0.866026
vn 0.500000 0.000000 0.866026
vn 0.500000 0.000000 0.866026
vn 0.500000 0.000000 0.866026
vn 0.866025 0.000000 -0.500000
vn 0.866025 0.000000 -0.500000
vn 0.866025 0.000000 -0.500000
vn 0.866025 0.000000 -0.500000
vn 0.866025 0.000000 -0.500000
vn 0.866025 0.000000 -0.500000
vn -0.500000 0.000000 -0.866025
vn -0.500000 0.000000 -0.866025
vn -0.500000 0.000000 -0.866025
vn -0.500000 0.000000 -0.866025
vn -0.500000 0.000000 -0.866025
vn -0.500000 0.000000 -0.866025
vn -0.866026 0.000000 0.499999
vn -0.866026 0.000000 0.499999
vn -0.866026 0.000000 0.499999
vn -0.866026 0.000000 0.499999
vn -0.866026 0.000000 0.499999
vn -0.866026 0.000000 0.499999
vn 0.000000 -1.000000 -0.000000
vn 0.000000 -1.000000 -0.000000
vn 0.000000 -1.000000 -0.000000
vn 0.000000 -1.000000 -0.000000
vn 0.000000 -1.000000 -0.000000
vn 0.000000 -1.000000 -0.000000
vn 0.000000 1.000000 -0.000000
vn 0.000000 1.000000 -0.000000
vn 0.000000 1.000000 -0.000000
vn 0.000000 1.000000 -0.000000
vn 0.000000 1.000000 -0.000000
vn 0.000000 1.000000 -0.000000
vn 0.499999 0.000000 0.866026
vn 0.499999 0.000000 0.866026
vn 0.499999 0.000000 0.866026
vn 0.499999 0.000000 0.866026
vn 0.499999 0.000000 0.866026
vn 0.499999 0.000000 0.866026
vn 0.866025 0.000000 -0.500000
vn 0.866025 0.000000 -0.500000
vn 0.866025 0.000000 -0.500000
vn 0.866025 0.000000 -0.500000
vn 0.866025 0.000000 -0.500000
vn 0.866025 0.000000 -0.500000
vn -0.500000 0.000000 -0.866025
vn -0.500000 0.000000 -0.866025
vn -0.500000 0.000000 -0.866025
vn -0.500000 0.000000 -0.866025
vn -0.500000 0.000000 -0.866025
vn -0.500000 0.000000 -0.866025
vn -0.866025 0.000000 0.500000
vn -0.866026 0.000000 0.500000
vn -0.866025 0.000000 0.500000
vn -0.866025 0.000000 0.500000
vn -0.866026 0.000000 0.500000
vn -0.866025 0.000000 0.500000
# 72 vertex normals

vt 1.000000 0.000000 0.000000
vt 0.000000 0.000000 0.000000
vt 1.000000 1.000000 0.000000
vt 0.000000 1.000000 0.000000
vt 0.000000 0.000000 0.000000
vt 1.000000 0.000000 0.000000
vt 0.000000 1.000000 0.000000
vt 1.000000 1.000000 0.000000
vt 0.000000 0.000000 0.000000
vt 1.000000 0.000000 0.000000
vt 0.000000 1.000000 0.000000
vt 1.000000 1.000000 0.000000
vt 0.000000 0.000000 0.000000
vt 1.000000 0.000000 0.000000
vt 0.000000 1.000000 0.000000
vt 1.000000 1.000000 0.000000
vt 0.000000 0.000000 0.000000
vt 1.000000 0.000000 0.000000
vt 0.000000 1.000000 0.000000
vt 1.000000 1.000000 0.000000
vt 0.000000 0.000000 0.000000
vt 1.000000 0.000000 0.000000
vt 0.000000 1.000000 0.000000
vt 1.000000 1.000000 0.000000
vt 1.000000 0.000000 0.000000
vt 0.000000 0.000000 0.000000
vt 1.000000 1.000000 0.000000
vt 0.000000 1.000000 0.000000
vt 0.000000 0.000000 0.000000
vt 1.000000 0.000000 0.000000
vt 0.000000 1.000000 0.000000
vt 1.000000 1.000000 0.000000
vt 0.000000 0.000000 0.000000
vt 1.000000 0.000000 0.000000
vt 0.000000 1.000000 0.000000
vt 1.000000 1.000000 0.000000
vt 0.000000 0.000000 0.000000
vt 1.000000 0.000000 0.000000
vt 0.000000 1.000000 0.000000
vt 1.000000 1.000000 0.000000
vt 0.000000 0.000000 0.000000
vt 1.000000 0.000000 0.000000
vt 0.000000 1.000000 0.000000
vt 1.000000 1.000000 0.000000
vt 0.000000 0.000000 0.000000
vt 1.000000 0.000000 0.000000
vt 0.000000 1.000000 0.000000
vt 1.000000 1.000000 0.000000
# 48 texture coords

g Turn_1_30
usemtl wire_224086086
s 2
f -13/-45/-72 -15/-47/-71 -16/-48/-70 
f -16/-48/-69 -14/-46/-68 -13/-45/-67 
s 4
f -9/-41/-66 -10/-42/-65 -12/-44/-64 
f -12/-44/-63 -11/-43/-62 -9/-41/-61 
s 8
f -11/-37/-60 -12/-38/-59 -16/-40/-58 
f -16/-40/-57 -15/-39/-56 -11/-37/-55 
s 16
f -9/-33/-54 -11/-34/-53 -15/-36/-52 
f -15/-36/-51 -13/-35/-50 -9/-33/-49 
s 32
f -10/-29/-48 -9/-30/-47 -13/-32/-46 
f -13/-32/-45 -14/-31/-44 -10/-29/-43 
s 64
f -12/-25/-42 -10/-26/-41 -14/-28/-40 
f -14/-28/-39 -16/-27/-38 -12/-25/-37 
s 2
f -5/-21/-36 -7/-23/-35 -8/-24/-34 
f -8/-24/-33 -6/-22/-32 -5/-21/-31 
s 4
f -1/-17/-30 -2/-18/-29 -4/-20/-28 
f -4/-20/-27 -3/-19/-26 -1/-17/-25 
s 8
f -3/-13/-24 -4/-14/-23 -8/-16/-22 
f -8/-16/-21 -7/-15/-20 -3/-13/-19 
s 16
f -1/-9/-18 -3/-10/-17 -7/-12/-16 
f -7/-12/-15 -5/-11/-14 -1/-9/-13 
s 32
f -2/-5/-12 -1/-6/-11 -5/-8/-10 
f -5/-8/-9 -6/-7/-8 -2/-5/-7 
s 64
f -4/-1/-6 -2/-2/-5 -6/-4/-4 
f -6/-4/-3 -8/-3/-2 -4/-1/-1 
# 24 faces

