# 3ds Max Wavefront OBJ Exporter v0.97b - (c)2007 guruware
# File Created: 09.03.2017 20:17:06

mtllib Turn-2-150_MSH.mtl

#
# object Turn_2_150
#

v  -0.2500 0.0156 -0.0000
v  0.0000 0.0156 -0.0000
v  0.2500 0.0156 -0.0000
v  -0.2500 -0.0156 0.0000
v  0.0000 -0.0156 0.0000
v  0.2500 -0.0156 0.0000
v  1.6420 0.0156 -0.5070
v  1.4255 0.0156 -0.3820
v  1.2090 0.0156 -0.2570
v  1.6420 -0.0156 -0.5070
v  1.4255 -0.0156 -0.3820
v  1.2090 -0.0156 -0.2570
v  -0.1962 0.0156 -0.3259
v  0.0405 0.0156 -0.2456
v  0.2773 0.0156 -0.1652
v  0.2773 -0.0156 -0.1652
v  0.0405 -0.0156 -0.2456
v  -0.1962 -0.0156 -0.3259
v  -0.0405 0.0156 -0.6172
v  0.1579 0.0156 -0.4651
v  0.3562 0.0156 -0.3129
v  0.3562 -0.0156 -0.3129
v  0.1579 -0.0156 -0.4651
v  -0.0405 -0.0156 -0.6172
v  0.2006 0.0156 -0.8431
v  0.3395 0.0156 -0.6352
v  0.4784 0.0156 -0.4273
v  0.4784 -0.0156 -0.4273
v  0.3395 -0.0156 -0.6352
v  0.2006 -0.0156 -0.8431
v  0.5015 0.0156 -0.9794
v  0.5662 0.0156 -0.7379
v  0.6309 0.0156 -0.4964
v  0.6309 -0.0156 -0.4964
v  0.5662 -0.0156 -0.7379
v  0.5015 -0.0156 -0.9794
v  0.8303 0.0156 -1.0118
v  0.8139 0.0156 -0.7623
v  0.7976 0.0156 -0.5128
v  0.7976 -0.0156 -0.5128
v  0.8139 -0.0156 -0.7623
v  0.8303 -0.0156 -1.0118
v  1.1520 0.0156 -0.9368
v  1.0563 0.0156 -0.7058
v  0.9606 0.0156 -0.4748
v  0.9606 -0.0156 -0.4748
v  1.0563 -0.0156 -0.7058
v  1.1520 -0.0156 -0.9368
v  1.4325 0.0156 -0.7623
v  1.2676 0.0156 -0.5744
v  1.1028 0.0156 -0.3864
v  1.1028 -0.0156 -0.3864
v  1.2676 -0.0156 -0.5744
v  1.4325 -0.0156 -0.7623
v  -0.2500 -0.0313 0.7188
v  0.2500 -0.0313 0.7188
v  -0.2500 -0.0313 0.5312
v  0.2500 -0.0313 0.5313
v  -0.2500 0.0312 0.7188
v  0.2500 0.0312 0.7188
v  -0.2500 0.0312 0.5312
v  0.2500 0.0312 0.5313
# 62 vertices

vn -0.0000 0.0000 1.0000
vn -0.0000 0.0000 1.0000
vn -0.0000 0.0000 1.0000
vn -0.0000 0.0000 1.0000
vn -0.0000 0.0000 1.0000
vn -0.0000 0.0000 1.0000
vn -0.0000 0.0000 1.0000
vn -0.0000 0.0000 1.0000
vn -0.0000 0.0000 1.0000
vn -0.0000 0.0000 1.0000
vn -0.0000 0.0000 1.0000
vn -0.0000 0.0000 1.0000
vn 0.5000 0.0000 0.8660
vn 0.5000 0.0000 0.8660
vn 0.5000 0.0000 0.8660
vn 0.5000 0.0000 0.8660
vn 0.5000 0.0000 0.8660
vn 0.5000 0.0000 0.8660
vn 0.5000 0.0000 0.8660
vn 0.5000 0.0000 0.8660
vn 0.5000 0.0000 0.8660
vn 0.5000 0.0000 0.8660
vn 0.5000 0.0000 0.8660
vn 0.5000 0.0000 0.8660
vn 0.0000 1.0000 -0.0000
vn 0.0000 1.0000 -0.0000
vn 0.0000 1.0000 -0.0000
vn 0.0000 1.0000 -0.0000
vn 0.0000 1.0000 -0.0000
vn 0.0000 1.0000 -0.0000
vn 0.0000 1.0000 -0.0000
vn 0.0000 1.0000 -0.0000
vn 0.0000 1.0000 -0.0000
vn 0.0000 1.0000 -0.0000
vn 0.0000 1.0000 -0.0000
vn 0.0000 1.0000 -0.0000
vn 0.0000 1.0000 -0.0000
vn 0.0000 1.0000 -0.0000
vn 0.0000 1.0000 -0.0000
vn 0.0000 1.0000 -0.0000
vn 0.0000 1.0000 -0.0000
vn 0.0000 1.0000 -0.0000
vn 0.0000 1.0000 -0.0000
vn 0.0000 1.0000 -0.0000
vn 0.0000 1.0000 -0.0000
vn 0.0000 1.0000 -0.0000
vn 0.0000 1.0000 -0.0000
vn 0.0000 1.0000 -0.0000
vn 0.0000 1.0000 -0.0000
vn 0.0000 1.0000 -0.0000
vn 0.0000 1.0000 -0.0000
vn 0.0000 1.0000 -0.0000
vn 0.0000 1.0000 -0.0000
vn 0.0000 1.0000 -0.0000
vn 0.0000 1.0000 -0.0000
vn 0.0000 1.0000 -0.0000
vn 0.0000 1.0000 -0.0000
vn 0.0000 1.0000 -0.0000
vn 0.0000 1.0000 -0.0000
vn 0.0000 1.0000 -0.0000
vn 0.0000 1.0000 -0.0000
vn 0.0000 1.0000 -0.0000
vn 0.0000 1.0000 -0.0000
vn 0.0000 1.0000 -0.0000
vn 0.0000 1.0000 -0.0000
vn 0.0000 1.0000 -0.0000
vn 0.0000 1.0000 -0.0000
vn 0.0000 1.0000 -0.0000
vn 0.0000 1.0000 -0.0000
vn 0.0000 1.0000 -0.0000
vn 0.0000 1.0000 -0.0000
vn 0.0000 1.0000 -0.0000
vn 0.0000 1.0000 -0.0000
vn 0.0000 1.0000 -0.0000
vn 0.0000 1.0000 -0.0000
vn 0.0000 1.0000 -0.0000
vn 0.0000 1.0000 -0.0000
vn 0.0000 1.0000 -0.0000
vn 0.0000 1.0000 -0.0000
vn 0.0000 1.0000 -0.0000
vn 0.0000 1.0000 -0.0000
vn 0.0000 1.0000 -0.0000
vn 0.0000 1.0000 -0.0000
vn 0.0000 1.0000 -0.0000
vn 0.0000 1.0000 -0.0000
vn 0.0000 1.0000 -0.0000
vn 0.0000 1.0000 -0.0000
vn 0.0000 1.0000 -0.0000
vn 0.0000 1.0000 -0.0000
vn 0.0000 1.0000 -0.0000
vn 0.0000 1.0000 -0.0000
vn 0.0000 1.0000 -0.0000
vn 0.0000 1.0000 -0.0000
vn 0.0000 1.0000 -0.0000
vn 0.0000 1.0000 -0.0000
vn 0.0000 1.0000 -0.0000
vn 0.0000 1.0000 -0.0000
vn 0.0000 1.0000 -0.0000
vn 0.0000 1.0000 -0.0000
vn 0.0000 1.0000 -0.0000
vn 0.0000 1.0000 -0.0000
vn 0.0000 1.0000 -0.0000
vn 0.0000 1.0000 -0.0000
vn 0.0000 1.0000 -0.0000
vn 0.0000 1.0000 -0.0000
vn 0.0000 1.0000 -0.0000
vn 0.0000 1.0000 -0.0000
vn 0.0000 1.0000 -0.0000
vn 0.0000 1.0000 -0.0000
vn 0.0000 1.0000 -0.0000
vn 0.0000 1.0000 -0.0000
vn 0.0000 1.0000 -0.0000
vn 0.0000 1.0000 -0.0000
vn 0.0000 1.0000 -0.0000
vn 0.0000 1.0000 -0.0000
vn 0.0000 1.0000 -0.0000
vn 0.0000 1.0000 -0.0000
vn 0.0000 1.0000 -0.0000
vn 0.0000 1.0000 -0.0000
vn 0.0000 1.0000 -0.0000
vn 0.9469 0.0000 0.3214
vn 0.9469 0.0000 0.3214
vn 0.9866 0.0000 0.1629
vn 0.9866 0.0000 0.1629
vn 0.9866 0.0000 0.1629
vn 0.9469 0.0000 0.3214
vn 0.7934 0.0000 0.6088
vn 0.7934 0.0000 0.6088
vn 0.9469 0.0000 0.3214
vn 0.9469 0.0000 0.3214
vn 0.9469 0.0000 0.3214
vn 0.7934 0.0000 0.6088
vn 0.5556 0.0000 0.8315
vn 0.5556 0.0000 0.8315
vn 0.7934 0.0000 0.6088
vn 0.7934 0.0000 0.6088
vn 0.7934 0.0000 0.6088
vn 0.5556 0.0000 0.8315
vn 0.2588 0.0000 0.9659
vn 0.2588 0.0000 0.9659
vn 0.5556 0.0000 0.8315
vn 0.5556 0.0000 0.8315
vn 0.5556 0.0000 0.8315
vn 0.2588 0.0000 0.9659
vn -0.0654 0.0000 0.9979
vn -0.0654 0.0000 0.9979
vn 0.2588 0.0000 0.9659
vn 0.2588 0.0000 0.9659
vn 0.2588 0.0000 0.9659
vn -0.0654 0.0000 0.9979
vn -0.3827 0.0000 0.9239
vn -0.3827 0.0000 0.9239
vn -0.0654 0.0000 0.9979
vn -0.0654 0.0000 0.9979
vn -0.0654 0.0000 0.9979
vn -0.3827 0.0000 0.9239
vn -0.6593 0.0000 0.7518
vn -0.6593 0.0000 0.7518
vn -0.3827 0.0000 0.9239
vn -0.3827 0.0000 0.9239
vn -0.3827 0.0000 0.9239
vn -0.6593 0.0000 0.7518
vn -0.7730 0.0000 0.6344
vn -0.7730 0.0000 0.6344
vn -0.6593 0.0000 0.7518
vn -0.6593 0.0000 0.7518
vn -0.6593 0.0000 0.7518
vn -0.7730 0.0000 0.6344
vn 0.0000 -1.0000 0.0000
vn 0.0000 -1.0000 0.0000
vn 0.0000 -1.0000 0.0000
vn 0.0000 -1.0000 0.0000
vn 0.0000 -1.0000 0.0000
vn 0.0000 -1.0000 0.0000
vn 0.0000 -1.0000 0.0000
vn 0.0000 -1.0000 0.0000
vn 0.0000 -1.0000 0.0000
vn 0.0000 -1.0000 0.0000
vn 0.0000 -1.0000 0.0000
vn 0.0000 -1.0000 0.0000
vn 0.0000 -1.0000 0.0000
vn 0.0000 -1.0000 0.0000
vn 0.0000 -1.0000 0.0000
vn 0.0000 -1.0000 0.0000
vn 0.0000 -1.0000 0.0000
vn 0.0000 -1.0000 0.0000
vn 0.0000 -1.0000 0.0000
vn 0.0000 -1.0000 0.0000
vn 0.0000 -1.0000 0.0000
vn 0.0000 -1.0000 0.0000
vn 0.0000 -1.0000 0.0000
vn 0.0000 -1.0000 0.0000
vn 0.0000 -1.0000 0.0000
vn 0.0000 -1.0000 0.0000
vn 0.0000 -1.0000 0.0000
vn 0.0000 -1.0000 0.0000
vn 0.0000 -1.0000 0.0000
vn 0.0000 -1.0000 0.0000
vn 0.0000 -1.0000 0.0000
vn 0.0000 -1.0000 0.0000
vn 0.0000 -1.0000 0.0000
vn 0.0000 -1.0000 0.0000
vn 0.0000 -1.0000 0.0000
vn 0.0000 -1.0000 0.0000
vn 0.0000 -1.0000 0.0000
vn 0.0000 -1.0000 0.0000
vn 0.0000 -1.0000 0.0000
vn 0.0000 -1.0000 0.0000
vn 0.0000 -1.0000 0.0000
vn 0.0000 -1.0000 0.0000
vn 0.0000 -1.0000 0.0000
vn 0.0000 -1.0000 0.0000
vn 0.0000 -1.0000 0.0000
vn 0.0000 -1.0000 0.0000
vn 0.0000 -1.0000 0.0000
vn 0.0000 -1.0000 0.0000
vn 0.0000 -1.0000 0.0000
vn 0.0000 -1.0000 0.0000
vn 0.0000 -1.0000 0.0000
vn 0.0000 -1.0000 0.0000
vn 0.0000 -1.0000 0.0000
vn 0.0000 -1.0000 0.0000
vn 0.0000 -1.0000 0.0000
vn 0.0000 -1.0000 0.0000
vn 0.0000 -1.0000 0.0000
vn 0.0000 -1.0000 0.0000
vn 0.0000 -1.0000 0.0000
vn 0.0000 -1.0000 0.0000
vn 0.0000 -1.0000 0.0000
vn 0.0000 -1.0000 0.0000
vn 0.0000 -1.0000 0.0000
vn 0.0000 -1.0000 0.0000
vn 0.0000 -1.0000 0.0000
vn 0.0000 -1.0000 0.0000
vn 0.0000 -1.0000 0.0000
vn 0.0000 -1.0000 0.0000
vn 0.0000 -1.0000 0.0000
vn 0.0000 -1.0000 0.0000
vn 0.0000 -1.0000 0.0000
vn 0.0000 -1.0000 0.0000
vn 0.0000 -1.0000 0.0000
vn 0.0000 -1.0000 0.0000
vn 0.0000 -1.0000 0.0000
vn 0.0000 -1.0000 0.0000
vn 0.0000 -1.0000 0.0000
vn 0.0000 -1.0000 0.0000
vn 0.0000 -1.0000 0.0000
vn 0.0000 -1.0000 0.0000
vn 0.0000 -1.0000 0.0000
vn 0.0000 -1.0000 0.0000
vn 0.0000 -1.0000 0.0000
vn 0.0000 -1.0000 0.0000
vn 0.0000 -1.0000 0.0000
vn 0.0000 -1.0000 0.0000
vn 0.0000 -1.0000 0.0000
vn 0.0000 -1.0000 0.0000
vn 0.0000 -1.0000 0.0000
vn 0.0000 -1.0000 0.0000
vn 0.0000 -1.0000 0.0000
vn 0.0000 -1.0000 0.0000
vn 0.0000 -1.0000 0.0000
vn 0.0000 -1.0000 0.0000
vn 0.0000 -1.0000 0.0000
vn 0.0000 -1.0000 0.0000
vn -0.9469 -0.0000 -0.3214
vn -0.9469 -0.0000 -0.3214
vn -0.9866 -0.0000 -0.1629
vn -0.9866 -0.0000 -0.1629
vn -0.9866 -0.0000 -0.1629
vn -0.9469 -0.0000 -0.3214
vn -0.7934 -0.0000 -0.6088
vn -0.7934 -0.0000 -0.6088
vn -0.9469 -0.0000 -0.3214
vn -0.9469 -0.0000 -0.3214
vn -0.9469 -0.0000 -0.3214
vn -0.7934 -0.0000 -0.6088
vn -0.5556 -0.0000 -0.8315
vn -0.5556 -0.0000 -0.8315
vn -0.7934 -0.0000 -0.6088
vn -0.7934 -0.0000 -0.6088
vn -0.7934 -0.0000 -0.6088
vn -0.5556 -0.0000 -0.8315
vn -0.2588 -0.0000 -0.9659
vn -0.2588 -0.0000 -0.9659
vn -0.5556 -0.0000 -0.8315
vn -0.5556 -0.0000 -0.8315
vn -0.5556 -0.0000 -0.8315
vn -0.2588 -0.0000 -0.9659
vn 0.0654 -0.0000 -0.9979
vn 0.0654 -0.0000 -0.9979
vn -0.2588 -0.0000 -0.9659
vn -0.2588 -0.0000 -0.9659
vn -0.2588 -0.0000 -0.9659
vn 0.0654 -0.0000 -0.9979
vn 0.3827 -0.0000 -0.9239
vn 0.3827 -0.0000 -0.9239
vn 0.0654 -0.0000 -0.9979
vn 0.0654 -0.0000 -0.9979
vn 0.0654 -0.0000 -0.9979
vn 0.3827 -0.0000 -0.9239
vn 0.6593 -0.0000 -0.7518
vn 0.6593 -0.0000 -0.7518
vn 0.3827 -0.0000 -0.9239
vn 0.3827 -0.0000 -0.9239
vn 0.3827 -0.0000 -0.9239
vn 0.6593 -0.0000 -0.7518
vn 0.7730 -0.0000 -0.6344
vn 0.7730 -0.0000 -0.6344
vn 0.6593 -0.0000 -0.7518
vn 0.6593 -0.0000 -0.7518
vn 0.6593 -0.0000 -0.7518
vn 0.7730 -0.0000 -0.6344
vn 0.0000 -1.0000 0.0000
vn 0.0000 -1.0000 0.0000
vn 0.0000 -1.0000 0.0000
vn 0.0000 -1.0000 0.0000
vn 0.0000 -1.0000 0.0000
vn 0.0000 -1.0000 0.0000
vn -0.0000 1.0000 0.0000
vn 0.0000 1.0000 0.0000
vn -0.0000 1.0000 0.0000
vn -0.0000 1.0000 0.0000
vn -0.0000 1.0000 0.0000
vn -0.0000 1.0000 0.0000
vn 0.0000 0.0000 1.0000
vn 0.0000 0.0000 1.0000
vn 0.0000 0.0000 1.0000
vn 0.0000 0.0000 1.0000
vn 0.0000 0.0000 1.0000
vn 0.0000 0.0000 1.0000
vn 1.0000 0.0000 0.0000
vn 1.0000 0.0000 0.0000
vn 1.0000 0.0000 0.0000
vn 1.0000 0.0000 0.0000
vn 1.0000 0.0000 0.0000
vn 1.0000 0.0000 0.0000
vn 0.0000 -0.0000 -1.0000
vn 0.0000 -0.0000 -1.0000
vn 0.0000 -0.0000 -1.0000
vn 0.0000 -0.0000 -1.0000
vn 0.0000 -0.0000 -1.0000
vn 0.0000 -0.0000 -1.0000
vn -1.0000 -0.0000 -0.0000
vn -1.0000 -0.0000 -0.0000
vn -1.0000 -0.0000 -0.0000
vn -1.0000 -0.0000 -0.0000
vn -1.0000 -0.0000 -0.0000
vn -1.0000 -0.0000 -0.0000
# 348 vertex normals

vt 0.6375 0.4000 0.0000
vt 0.8625 0.4000 0.0000
vt 0.6375 0.4563 0.0000
vt 0.8625 0.4563 0.0000
vt 0.6375 0.5125 0.0000
vt 0.8625 0.5125 0.0000
vt 0.6375 0.5688 0.0000
vt 0.8625 0.5688 0.0000
vt 0.6375 0.6250 0.0000
vt 0.8625 0.6250 0.0000
vt 0.6375 0.6812 0.0000
vt 0.8625 0.6812 0.0000
vt 0.6375 0.7375 0.0000
vt 0.8625 0.7375 0.0000
vt 0.6375 0.7937 0.0000
vt 0.8625 0.7937 0.0000
vt 0.6375 0.8500 0.0000
vt 0.8625 0.8500 0.0000
vt 0.6375 0.4000 0.0000
vt 0.7500 0.4000 0.0000
vt 0.8625 0.4000 0.0000
vt 0.6375 0.4563 0.0000
vt 0.7500 0.4563 0.0000
vt 0.8625 0.4563 0.0000
vt 0.6375 0.5125 0.0000
vt 0.7500 0.5125 0.0000
vt 0.8625 0.5125 0.0000
vt 0.6375 0.5688 0.0000
vt 0.7500 0.5688 0.0000
vt 0.8625 0.5688 0.0000
vt 0.6375 0.6250 0.0000
vt 0.7500 0.6250 0.0000
vt 0.8625 0.6250 0.0000
vt 0.6375 0.6812 0.0000
vt 0.7500 0.6812 0.0000
vt 0.8625 0.6812 0.0000
vt 0.6375 0.7375 0.0000
vt 0.7500 0.7375 0.0000
vt 0.8625 0.7375 0.0000
vt 0.6375 0.7937 0.0000
vt 0.7500 0.7937 0.0000
vt 0.8625 0.7937 0.0000
vt 0.6375 0.8500 0.0000
vt 0.7500 0.8500 0.0000
vt 0.8625 0.8500 0.0000
vt 0.6375 0.4000 0.0000
vt 0.7500 0.4000 0.0000
vt 0.8625 0.4000 0.0000
vt 0.6375 0.8500 0.0000
vt 0.7500 0.8500 0.0000
vt 0.8625 0.8500 0.0000
vt 0.6375 0.0828 0.0000
vt 0.6375 0.1672 0.0000
vt 0.8625 0.1672 0.0000
vt 0.8625 0.0828 0.0000
vt 0.6375 0.0828 0.0000
vt 0.8625 0.0828 0.0000
vt 0.8625 0.1672 0.0000
vt 0.6375 0.1672 0.0000
# 59 texture coords

g Turn_2_150
usemtl Material__2
f 5/50/1 2/47/2 1/48/3 
f 1/48/4 4/51/5 5/50/6 
f 6/49/7 3/46/8 2/47/9 
f 2/47/10 5/50/11 6/49/12 
f 11/50/13 10/49/14 7/46/15 
f 7/46/16 8/47/17 11/50/18 
f 12/51/19 11/50/20 8/47/21 
f 8/47/22 9/48/23 12/51/24 
f 14/23/25 13/22/26 1/19/27 
f 1/19/28 2/20/29 14/23/30 
f 15/24/31 14/23/32 2/20/33 
f 2/20/34 3/21/35 15/24/36 
f 20/26/37 19/25/38 13/22/39 
f 13/22/40 14/23/41 20/26/42 
f 21/27/43 20/26/44 14/23/45 
f 14/23/46 15/24/47 21/27/48 
f 26/29/49 25/28/50 19/25/51 
f 19/25/52 20/26/53 26/29/54 
f 27/30/55 26/29/56 20/26/57 
f 20/26/58 21/27/59 27/30/60 
f 32/32/61 31/31/62 25/28/63 
f 25/28/64 26/29/65 32/32/66 
f 33/33/67 32/32/68 26/29/69 
f 26/29/70 27/30/71 33/33/72 
f 38/35/73 37/34/74 31/31/75 
f 31/31/76 32/32/77 38/35/78 
f 39/36/79 38/35/80 32/32/81 
f 32/32/82 33/33/83 39/36/84 
f 44/38/85 43/37/86 37/34/87 
f 37/34/88 38/35/89 44/38/90 
f 45/39/91 44/38/92 38/35/93 
f 38/35/94 39/36/95 45/39/96 
f 50/41/97 49/40/98 43/37/99 
f 43/37/100 44/38/101 50/41/102 
f 51/42/103 50/41/104 44/38/105 
f 44/38/106 45/39/107 51/42/108 
f 8/44/109 7/43/110 49/40/111 
f 49/40/112 50/41/113 8/44/114 
f 9/45/115 8/44/116 50/41/117 
f 50/41/118 51/42/119 9/45/120 
f 16/4/121 15/3/122 3/1/123 
f 3/1/124 6/2/125 16/4/126 
f 22/6/127 21/5/128 15/3/129 
f 15/3/130 16/4/131 22/6/132 
f 28/8/133 27/7/134 21/5/135 
f 21/5/136 22/6/137 28/8/138 
f 34/10/139 33/9/140 27/7/141 
f 27/7/142 28/8/143 34/10/144 
f 40/12/145 39/11/146 33/9/147 
f 33/9/148 34/10/149 40/12/150 
f 46/14/151 45/13/152 39/11/153 
f 39/11/154 40/12/155 46/14/156 
f 52/16/157 51/15/158 45/13/159 
f 45/13/160 46/14/161 52/16/162 
f 12/18/163 9/17/164 51/15/165 
f 51/15/166 52/16/167 12/18/168 
f 17/23/169 16/22/170 6/19/171 
f 6/19/172 5/20/173 17/23/174 
f 18/24/175 17/23/176 5/20/177 
f 5/20/178 4/21/179 18/24/180 
f 23/26/181 22/25/182 16/22/183 
f 16/22/184 17/23/185 23/26/186 
f 24/27/187 23/26/188 17/23/189 
f 17/23/190 18/24/191 24/27/192 
f 29/29/193 28/28/194 22/25/195 
f 22/25/196 23/26/197 29/29/198 
f 30/30/199 29/29/200 23/26/201 
f 23/26/202 24/27/203 30/30/204 
f 35/32/205 34/31/206 28/28/207 
f 28/28/208 29/29/209 35/32/210 
f 36/33/211 35/32/212 29/29/213 
f 29/29/214 30/30/215 36/33/216 
f 41/35/217 40/34/218 34/31/219 
f 34/31/220 35/32/221 41/35/222 
f 42/36/223 41/35/224 35/32/225 
f 35/32/226 36/33/227 42/36/228 
f 47/38/229 46/37/230 40/34/231 
f 40/34/232 41/35/233 47/38/234 
f 48/39/235 47/38/236 41/35/237 
f 41/35/238 42/36/239 48/39/240 
f 53/41/241 52/40/242 46/37/243 
f 46/37/244 47/38/245 53/41/246 
f 54/42/247 53/41/248 47/38/249 
f 47/38/250 48/39/251 54/42/252 
f 11/44/253 12/43/254 52/40/255 
f 52/40/256 53/41/257 11/44/258 
f 10/45/259 11/44/260 53/41/261 
f 53/41/262 54/42/263 10/45/264 
f 13/4/265 18/3/266 4/1/267 
f 4/1/268 1/2/269 13/4/270 
f 19/6/271 24/5/272 18/3/273 
f 18/3/274 13/4/275 19/6/276 
f 25/8/277 30/7/278 24/5/279 
f 24/5/280 19/6/281 25/8/282 
f 31/10/283 36/9/284 30/7/285 
f 30/7/286 25/8/287 31/10/288 
f 37/12/289 42/11/290 36/9/291 
f 36/9/292 31/10/293 37/12/294 
f 43/14/295 48/13/296 42/11/297 
f 42/11/298 37/12/299 43/14/300 
f 49/16/301 54/15/302 48/13/303 
f 48/13/304 43/14/305 49/16/306 
f 7/18/307 10/17/308 54/15/309 
f 54/15/310 49/16/311 7/18/312 
f 55/52/313 57/53/314 58/54/315 
f 58/54/316 56/55/317 55/52/318 
f 59/56/319 60/57/320 62/58/321 
f 62/58/322 61/59/323 59/56/324 
f 55/52/325 56/55/326 60/57/327 
f 60/57/328 59/56/329 55/52/330 
f 56/55/331 58/54/332 62/58/333 
f 62/58/334 60/57/335 56/55/336 
f 58/54/337 57/53/338 61/59/339 
f 61/59/340 62/58/341 58/54/342 
f 57/53/343 55/52/344 59/56/345 
f 59/56/346 61/59/347 57/53/348 
# 116 faces

