# 3ds Max Wavefront OBJ Exporter v0.97b - (c)2007 guruware
# File Created: 02.03.2017 21:34:06

mtllib Turn-1-120-COL.mtl

#
# object Turn_1_120
#

v  -0.000000 -0.015625 0.687500
v  -0.000000 0.015625 0.687500
v  -0.000000 0.015625 0.562500
v  -0.000000 -0.015625 0.562500
v  -0.134125 -0.015625 0.674290
v  -0.134125 0.015625 0.674290
v  -0.109738 0.015625 0.551692
v  -0.109738 -0.015625 0.551692
v  -0.263095 -0.015625 0.635167
v  -0.263095 0.015625 0.635167
v  -0.215259 0.015625 0.519682
v  -0.215259 -0.015625 0.519682
v  0.263094 -0.015625 0.635167
v  0.263094 0.015625 0.635167
v  0.215259 0.015625 0.519682
v  0.215259 -0.015625 0.519682
v  0.134124 -0.015625 0.674290
v  0.134124 0.015625 0.674290
v  0.109738 0.015625 0.551692
v  0.109738 -0.015625 0.551692
v  0.091512 -0.015625 -0.774522
v  0.019068 -0.015625 -0.793934
v  0.072101 -0.015625 -0.702078
v  -0.000343 -0.015625 -0.721489
v  0.091512 0.015625 -0.774522
v  0.019068 0.015625 -0.793934
v  0.072101 0.015625 -0.702078
v  -0.000343 0.015625 -0.721489
v  0.716512 -0.015625 0.308009
v  0.644068 -0.015625 0.288598
v  0.697101 -0.015625 0.380454
v  0.624657 -0.015625 0.361042
v  0.716512 0.015625 0.308009
v  0.644068 0.015625 0.288598
v  0.697101 0.015625 0.380454
v  0.624657 0.015625 0.361042
v  1.311561 -0.015625 -0.069730
v  1.311561 0.015625 -0.069730
v  1.203308 0.015625 -0.132230
v  1.203308 -0.015625 -0.132230
v  1.233059 -0.015625 0.039820
v  1.233059 0.015625 0.039820
v  1.139079 0.015625 -0.042598
v  1.139079 -0.015625 -0.042598
v  1.134692 -0.015625 0.131950
v  1.134692 0.015625 0.131950
v  1.058597 0.015625 0.032781
v  1.058597 -0.015625 0.032781
v  1.397787 -0.015625 -0.323743
v  1.397787 0.015625 -0.323743
v  1.273857 0.015625 -0.340059
v  1.273857 -0.015625 -0.340059
v  1.367183 -0.015625 -0.192490
v  1.367183 0.015625 -0.192490
v  1.248817 0.015625 -0.232670
v  1.248817 -0.015625 -0.232670
# 56 vertices

vn -0.195090 0.000000 0.980785
vn -0.195090 0.000000 0.980785
vn -0.000000 0.000000 1.000000
vn -0.000000 0.000000 1.000000
vn -0.000000 0.000000 1.000000
vn -0.195090 0.000000 0.980785
vn 0.000000 1.000000 -0.000000
vn 0.000000 1.000000 -0.000000
vn 0.000000 1.000000 -0.000000
vn 0.000000 1.000000 -0.000000
vn 0.000000 1.000000 -0.000000
vn 0.000000 1.000000 -0.000000
vn 0.195091 0.000000 -0.980785
vn 0.195091 0.000000 -0.980785
vn 0.000000 0.000000 -1.000000
vn 0.000000 0.000000 -1.000000
vn 0.000000 0.000000 -1.000000
vn 0.195091 0.000000 -0.980785
vn 0.000000 -1.000000 -0.000000
vn 0.000000 -1.000000 -0.000000
vn 0.000000 -1.000000 -0.000000
vn 0.000000 -1.000000 -0.000000
vn 0.000000 -1.000000 -0.000000
vn 0.000000 -1.000000 -0.000000
vn -0.290285 0.000000 0.956940
vn -0.290285 0.000000 0.956940
vn -0.195090 0.000000 0.980785
vn -0.195090 0.000000 0.980785
vn -0.195090 0.000000 0.980785
vn -0.290285 0.000000 0.956940
vn 0.000000 1.000000 -0.000000
vn 0.000000 1.000000 -0.000000
vn 0.000000 1.000000 -0.000000
vn 0.000000 1.000000 -0.000000
vn 0.000000 1.000000 -0.000000
vn 0.000000 1.000000 -0.000000
vn 0.290285 0.000000 -0.956940
vn 0.290285 0.000000 -0.956940
vn 0.195091 0.000000 -0.980785
vn 0.195091 0.000000 -0.980785
vn 0.195091 0.000000 -0.980785
vn 0.290285 0.000000 -0.956940
vn 0.000000 -1.000000 -0.000000
vn 0.000000 -1.000000 -0.000000
vn 0.000000 -1.000000 -0.000000
vn 0.000000 -1.000000 -0.000000
vn 0.000000 -1.000000 -0.000000
vn 0.000000 -1.000000 -0.000000
vn 0.195089 0.000000 0.980785
vn 0.195089 0.000000 0.980785
vn 0.290284 0.000000 0.956941
vn 0.290284 0.000000 0.956941
vn 0.290284 0.000000 0.956941
vn 0.195089 0.000000 0.980785
vn 0.000000 1.000000 -0.000000
vn 0.000000 1.000000 -0.000000
vn 0.000000 1.000000 -0.000000
vn 0.000000 1.000000 -0.000000
vn 0.000000 1.000000 -0.000000
vn 0.000000 1.000000 -0.000000
vn -0.195090 0.000000 -0.980785
vn -0.195090 0.000000 -0.980785
vn -0.290284 0.000000 -0.956941
vn -0.290284 0.000000 -0.956941
vn -0.290284 0.000000 -0.956941
vn -0.195090 0.000000 -0.980785
vn 0.000000 -1.000000 -0.000000
vn 0.000000 -1.000000 -0.000000
vn 0.000000 -1.000000 -0.000000
vn 0.000000 -1.000000 -0.000000
vn 0.000000 -1.000000 -0.000000
vn 0.000000 -1.000000 -0.000000
vn -0.000000 0.000000 1.000000
vn -0.000000 0.000000 1.000000
vn 0.195089 0.000000 0.980785
vn 0.195089 0.000000 0.980785
vn 0.195089 0.000000 0.980785
vn -0.000000 0.000000 1.000000
vn 0.000000 1.000000 -0.000000
vn 0.000000 1.000000 -0.000000
vn 0.000000 1.000000 -0.000000
vn 0.000000 1.000000 -0.000000
vn 0.000000 1.000000 -0.000000
vn 0.000000 1.000000 -0.000000
vn 0.000000 0.000000 -1.000000
vn 0.000000 0.000000 -1.000000
vn -0.195090 0.000000 -0.980785
vn -0.195090 0.000000 -0.980785
vn -0.195090 0.000000 -0.980785
vn 0.000000 0.000000 -1.000000
vn 0.000000 -1.000000 -0.000000
vn 0.000000 -1.000000 -0.000000
vn 0.000000 -1.000000 -0.000000
vn 0.000000 -1.000000 -0.000000
vn 0.000000 -1.000000 -0.000000
vn 0.000000 -1.000000 -0.000000
vn -0.923880 0.000000 -0.382684
vn -0.923880 0.000000 -0.382684
vn -0.923880 0.000000 -0.382684
vn -0.923880 0.000000 -0.382684
vn -0.923880 0.000000 -0.382684
vn -0.923880 0.000000 -0.382684
vn 0.923880 0.000000 -0.382682
vn 0.923880 0.000000 -0.382682
vn 0.923880 0.000000 -0.382682
vn 0.923880 0.000000 -0.382682
vn 0.923880 0.000000 -0.382682
vn 0.923880 0.000000 -0.382682
vn 0.000000 -1.000000 -0.000000
vn 0.000000 -1.000000 -0.000000
vn 0.000000 -1.000000 -0.000000
vn 0.000000 -1.000000 -0.000000
vn 0.000000 -1.000000 -0.000000
vn 0.000000 -1.000000 -0.000000
vn 0.000000 1.000000 -0.000000
vn 0.000000 1.000000 -0.000000
vn 0.000000 1.000000 -0.000000
vn 0.000000 1.000000 -0.000000
vn 0.000000 1.000000 -0.000000
vn 0.000000 1.000000 -0.000000
vn 0.258819 0.000000 -0.965926
vn 0.258819 0.000000 -0.965926
vn 0.258819 0.000000 -0.965926
vn 0.258819 0.000000 -0.965926
vn 0.258819 0.000000 -0.965926
vn 0.258819 0.000000 -0.965926
vn -0.965926 0.000000 -0.258819
vn -0.965926 0.000000 -0.258819
vn -0.965926 0.000000 -0.258819
vn -0.965926 0.000000 -0.258819
vn -0.965926 0.000000 -0.258819
vn -0.965926 0.000000 -0.258819
vn -0.258819 0.000000 0.965926
vn -0.258819 0.000000 0.965926
vn -0.258819 0.000000 0.965926
vn -0.258819 0.000000 0.965926
vn -0.258819 0.000000 0.965926
vn -0.258819 0.000000 0.965926
vn 0.965926 0.000000 0.258819
vn 0.965926 0.000000 0.258819
vn 0.965926 0.000000 0.258819
vn 0.965926 0.000000 0.258819
vn 0.965926 0.000000 0.258819
vn 0.965926 0.000000 0.258819
vn 0.000000 -1.000000 -0.000000
vn 0.000000 -1.000000 -0.000000
vn 0.000000 -1.000000 -0.000000
vn 0.000000 -1.000000 -0.000000
vn 0.000000 -1.000000 -0.000000
vn 0.000000 -1.000000 -0.000000
vn 0.000000 1.000000 -0.000000
vn 0.000000 1.000000 -0.000000
vn 0.000000 1.000000 -0.000000
vn 0.000000 1.000000 -0.000000
vn 0.000000 1.000000 -0.000000
vn 0.000000 1.000000 -0.000000
vn 0.258819 0.000000 -0.965926
vn 0.258819 0.000000 -0.965926
vn 0.258819 0.000000 -0.965926
vn 0.258819 0.000000 -0.965926
vn 0.258819 0.000000 -0.965926
vn 0.258819 0.000000 -0.965926
vn -0.965926 0.000000 -0.258819
vn -0.965926 0.000000 -0.258819
vn -0.965926 0.000000 -0.258819
vn -0.965926 0.000000 -0.258819
vn -0.965926 0.000000 -0.258819
vn -0.965926 0.000000 -0.258819
vn -0.258820 0.000000 0.965926
vn -0.258820 0.000000 0.965926
vn -0.258820 0.000000 0.965926
vn -0.258820 0.000000 0.965926
vn -0.258820 0.000000 0.965926
vn -0.258820 0.000000 0.965926
vn 0.965926 0.000000 0.258819
vn 0.965926 0.000000 0.258819
vn 0.965926 0.000000 0.258819
vn 0.965926 0.000000 0.258819
vn 0.965926 0.000000 0.258819
vn 0.965926 0.000000 0.258819
vn 0.751840 0.000000 0.659346
vn 0.751840 0.000000 0.659346
vn 0.866025 0.000000 0.500000
vn 0.866025 0.000000 0.500000
vn 0.866025 0.000000 0.500000
vn 0.751840 0.000000 0.659346
vn 0.000000 1.000000 -0.000000
vn 0.000000 1.000000 -0.000000
vn 0.000000 1.000000 -0.000000
vn 0.000000 1.000000 -0.000000
vn 0.000000 1.000000 -0.000000
vn 0.000000 1.000000 -0.000000
vn -0.751840 0.000000 -0.659346
vn -0.751840 0.000000 -0.659346
vn -0.866025 0.000000 -0.500000
vn -0.866025 0.000000 -0.500000
vn -0.866025 0.000000 -0.500000
vn -0.751840 0.000000 -0.659346
vn 0.000000 -1.000000 -0.000000
vn 0.000000 -1.000000 -0.000000
vn 0.000000 -1.000000 -0.000000
vn 0.000000 -1.000000 -0.000000
vn 0.000000 -1.000000 -0.000000
vn 0.000000 -1.000000 -0.000000
vn 0.683592 0.000000 0.729864
vn 0.683592 0.000000 0.729864
vn 0.751840 0.000000 0.659346
vn 0.751840 0.000000 0.659346
vn 0.751840 0.000000 0.659346
vn 0.683592 0.000000 0.729864
vn 0.000000 1.000000 -0.000000
vn 0.000000 1.000000 -0.000000
vn 0.000000 1.000000 -0.000000
vn 0.000000 1.000000 -0.000000
vn 0.000000 1.000000 -0.000000
vn 0.000000 1.000000 -0.000000
vn -0.683592 0.000000 -0.729864
vn -0.683592 0.000000 -0.729864
vn -0.751840 0.000000 -0.659346
vn -0.751840 0.000000 -0.659346
vn -0.751840 0.000000 -0.659346
vn -0.683592 0.000000 -0.729864
vn 0.000000 -1.000000 -0.000000
vn 0.000000 -1.000000 -0.000000
vn 0.000000 -1.000000 -0.000000
vn 0.000000 -1.000000 -0.000000
vn 0.000000 -1.000000 -0.000000
vn 0.000000 -1.000000 -0.000000
vn 0.946930 0.000000 0.321440
vn 0.946930 0.000000 0.321440
vn 0.973877 0.000000 0.227078
vn 0.973877 0.000000 0.227078
vn 0.973877 0.000000 0.227078
vn 0.946930 0.000000 0.321440
vn 0.000000 1.000000 -0.000000
vn 0.000000 1.000000 -0.000000
vn 0.000000 1.000000 -0.000000
vn 0.000000 1.000000 -0.000000
vn 0.000000 1.000000 -0.000000
vn 0.000000 1.000000 -0.000000
vn -0.946930 0.000000 -0.321440
vn -0.946930 0.000000 -0.321440
vn -0.973877 0.000000 -0.227077
vn -0.973877 0.000000 -0.227077
vn -0.973877 0.000000 -0.227077
vn -0.946930 0.000000 -0.321440
vn 0.000000 -1.000000 -0.000000
vn 0.000000 -1.000000 -0.000000
vn 0.000000 -1.000000 -0.000000
vn 0.000000 -1.000000 -0.000000
vn 0.000000 -1.000000 -0.000000
vn 0.000000 -1.000000 -0.000000
vn 0.866025 0.000000 0.500000
vn 0.866025 0.000000 0.500000
vn 0.946930 0.000000 0.321440
vn 0.946930 0.000000 0.321440
vn 0.946930 0.000000 0.321440
vn 0.866025 0.000000 0.500000
vn 0.000000 1.000000 -0.000000
vn 0.000000 1.000000 -0.000000
vn 0.000000 1.000000 -0.000000
vn 0.000000 1.000000 -0.000000
vn 0.000000 1.000000 -0.000000
vn 0.000000 1.000000 -0.000000
vn -0.866025 0.000000 -0.500000
vn -0.866025 0.000000 -0.500000
vn -0.946930 0.000000 -0.321440
vn -0.946930 0.000000 -0.321440
vn -0.946930 0.000000 -0.321440
vn -0.866025 0.000000 -0.500000
vn 0.000000 -1.000000 -0.000000
vn 0.000000 -1.000000 -0.000000
vn 0.000000 -1.000000 -0.000000
vn 0.000000 -1.000000 -0.000000
vn 0.000000 -1.000000 -0.000000
vn 0.000000 -1.000000 -0.000000
vn -0.793354 0.000000 0.608761
vn -0.793354 0.000000 0.608761
vn -0.793354 0.000000 0.608761
vn -0.793354 0.000000 0.608761
vn -0.793354 0.000000 0.608761
vn -0.793354 0.000000 0.608761
vn 0.130527 0.000000 -0.991445
vn 0.130527 0.000000 -0.991445
vn 0.130527 0.000000 -0.991445
vn 0.130527 0.000000 -0.991445
vn 0.130527 0.000000 -0.991445
vn 0.130527 0.000000 -0.991445
# 288 vertex normals

vt 0.000000 0.000000 0.000000
vt 0.250000 0.000000 0.000000
vt 0.500000 0.000000 0.000000
vt 0.750000 0.000000 0.000000
vt 1.000000 0.000000 0.000000
vt 0.000000 0.031250 0.000000
vt 0.250000 0.031250 0.000000
vt 0.500000 0.031250 0.000000
vt 0.750000 0.031250 0.000000
vt 1.000000 0.031250 0.000000
vt 0.000000 0.062500 0.000000
vt 0.250000 0.062500 0.000000
vt 0.500000 0.062500 0.000000
vt 0.750000 0.062500 0.000000
vt 1.000000 0.062500 0.000000
vt 0.000000 0.937500 0.000000
vt 0.250000 0.937500 0.000000
vt 0.500000 0.937500 0.000000
vt 0.750000 0.937500 0.000000
vt 1.000000 0.937500 0.000000
vt 0.000000 0.968750 0.000000
vt 0.250000 0.968750 0.000000
vt 0.500000 0.968750 0.000000
vt 0.750000 0.968750 0.000000
vt 1.000000 0.968750 0.000000
vt 0.000000 1.000000 0.000000
vt 0.250000 1.000000 0.000000
vt 0.500000 1.000000 0.000000
vt 0.750000 1.000000 0.000000
vt 1.000000 1.000000 0.000000
vt 1.000000 0.000000 0.000000
vt 0.000000 0.000000 0.000000
vt 1.000000 1.000000 0.000000
vt 0.000000 1.000000 0.000000
vt 0.000000 0.000000 0.000000
vt 1.000000 0.000000 0.000000
vt 0.000000 1.000000 0.000000
vt 1.000000 1.000000 0.000000
vt 0.000000 0.000000 0.000000
vt 1.000000 0.000000 0.000000
vt 0.000000 1.000000 0.000000
vt 1.000000 1.000000 0.000000
vt 0.000000 0.000000 0.000000
vt 1.000000 0.000000 0.000000
vt 0.000000 1.000000 0.000000
vt 1.000000 1.000000 0.000000
vt 0.000000 0.000000 0.000000
vt 1.000000 0.000000 0.000000
vt 0.000000 1.000000 0.000000
vt 1.000000 1.000000 0.000000
vt 0.000000 0.000000 0.000000
vt 1.000000 0.000000 0.000000
vt 0.000000 1.000000 0.000000
vt 1.000000 1.000000 0.000000
vt 1.000000 0.000000 0.000000
vt 0.000000 0.000000 0.000000
vt 1.000000 1.000000 0.000000
vt 0.000000 1.000000 0.000000
vt 0.000000 0.000000 0.000000
vt 1.000000 0.000000 0.000000
vt 0.000000 1.000000 0.000000
vt 1.000000 1.000000 0.000000
vt 0.000000 0.000000 0.000000
vt 1.000000 0.000000 0.000000
vt 0.000000 1.000000 0.000000
vt 1.000000 1.000000 0.000000
vt 0.000000 0.000000 0.000000
vt 1.000000 0.000000 0.000000
vt 0.000000 1.000000 0.000000
vt 1.000000 1.000000 0.000000
vt 0.000000 0.000000 0.000000
vt 1.000000 0.000000 0.000000
vt 0.000000 1.000000 0.000000
vt 1.000000 1.000000 0.000000
vt 0.000000 0.000000 0.000000
vt 1.000000 0.000000 0.000000
vt 0.000000 1.000000 0.000000
vt 1.000000 1.000000 0.000000
vt 0.000000 0.000000 0.000000
vt 0.250000 0.000000 0.000000
vt 0.500000 0.000000 0.000000
vt 0.750000 0.000000 0.000000
vt 1.000000 0.000000 0.000000
vt 0.000000 0.031250 0.000000
vt 0.250000 0.031250 0.000000
vt 0.500000 0.031250 0.000000
vt 0.750000 0.031250 0.000000
vt 1.000000 0.031250 0.000000
vt 0.000000 0.062500 0.000000
vt 0.250000 0.062500 0.000000
vt 0.500000 0.062500 0.000000
vt 0.750000 0.062500 0.000000
vt 1.000000 0.062500 0.000000
vt 0.000000 0.937500 0.000000
vt 0.250000 0.937500 0.000000
vt 0.500000 0.937500 0.000000
vt 0.750000 0.937500 0.000000
vt 1.000000 0.937500 0.000000
vt 0.000000 0.968750 0.000000
vt 0.250000 0.968750 0.000000
vt 0.500000 0.968750 0.000000
vt 0.750000 0.968750 0.000000
vt 1.000000 0.968750 0.000000
vt 0.000000 1.000000 0.000000
vt 0.250000 1.000000 0.000000
vt 0.500000 1.000000 0.000000
vt 0.750000 1.000000 0.000000
vt 1.000000 1.000000 0.000000
# 108 texture coords

g Turn_1_120
usemtl wire_224086086
s 2
f -51/-102/-288 -52/-103/-287 -56/-108/-286 
f -56/-108/-285 -55/-107/-284 -51/-102/-283 
s 4
f -50/-101/-282 -51/-102/-281 -55/-107/-280 
f -55/-107/-279 -54/-106/-278 -50/-101/-277 
s 2
f -49/-100/-276 -50/-101/-275 -54/-106/-274 
f -54/-106/-273 -53/-105/-272 -49/-100/-271 
s 4
f -52/-99/-270 -49/-100/-269 -53/-105/-268 
f -53/-105/-267 -56/-104/-266 -52/-99/-265 
s 2
f -47/-97/-264 -48/-98/-263 -52/-103/-262 
f -52/-103/-261 -51/-102/-260 -47/-97/-259 
s 4
f -46/-96/-258 -47/-97/-257 -51/-102/-256 
f -51/-102/-255 -50/-101/-254 -46/-96/-253 
s 2
f -45/-95/-252 -46/-96/-251 -50/-101/-250 
f -50/-101/-249 -49/-100/-248 -45/-95/-247 
s 4
f -48/-94/-246 -45/-95/-245 -49/-100/-244 
f -49/-100/-243 -52/-99/-242 -48/-94/-241 
s 2
f -39/-87/-240 -40/-88/-239 -44/-93/-238 
f -44/-93/-237 -43/-92/-236 -39/-87/-235 
s 4
f -38/-86/-234 -39/-87/-233 -43/-92/-232 
f -43/-92/-231 -42/-91/-230 -38/-86/-229 
s 2
f -37/-85/-228 -38/-86/-227 -42/-91/-226 
f -42/-91/-225 -41/-90/-224 -37/-85/-223 
s 4
f -40/-84/-222 -37/-85/-221 -41/-90/-220 
f -41/-90/-219 -44/-89/-218 -40/-84/-217 
s 2
f -55/-82/-216 -56/-83/-215 -40/-88/-214 
f -40/-88/-213 -39/-87/-212 -55/-82/-211 
s 4
f -54/-81/-210 -55/-82/-209 -39/-87/-208 
f -39/-87/-207 -38/-86/-206 -54/-81/-205 
s 2
f -53/-80/-204 -54/-81/-203 -38/-86/-202 
f -38/-86/-201 -37/-85/-200 -53/-80/-199 
s 4
f -56/-79/-198 -53/-80/-197 -37/-85/-196 
f -37/-85/-195 -40/-84/-194 -56/-79/-193 
s off
f -48/-94/-192 -47/-97/-191 -46/-96/-190 
f -46/-96/-189 -45/-95/-188 -48/-94/-187 
f -43/-92/-186 -44/-93/-185 -41/-90/-184 
f -41/-90/-183 -42/-91/-182 -43/-92/-181 
s 2
f -33/-75/-180 -35/-77/-179 -36/-78/-178 
f -36/-78/-177 -34/-76/-176 -33/-75/-175 
s 4
f -29/-71/-174 -30/-72/-173 -32/-74/-172 
f -32/-74/-171 -31/-73/-170 -29/-71/-169 
s 8
f -31/-67/-168 -32/-68/-167 -36/-70/-166 
f -36/-70/-165 -35/-69/-164 -31/-67/-163 
s 16
f -29/-63/-162 -31/-64/-161 -35/-66/-160 
f -35/-66/-159 -33/-65/-158 -29/-63/-157 
s 32
f -30/-59/-156 -29/-60/-155 -33/-62/-154 
f -33/-62/-153 -34/-61/-152 -30/-59/-151 
s 64
f -32/-55/-150 -30/-56/-149 -34/-58/-148 
f -34/-58/-147 -36/-57/-146 -32/-55/-145 
s 2
f -25/-51/-144 -27/-53/-143 -28/-54/-142 
f -28/-54/-141 -26/-52/-140 -25/-51/-139 
s 4
f -21/-47/-138 -22/-48/-137 -24/-50/-136 
f -24/-50/-135 -23/-49/-134 -21/-47/-133 
s 8
f -23/-43/-132 -24/-44/-131 -28/-46/-130 
f -28/-46/-129 -27/-45/-128 -23/-43/-127 
s 16
f -21/-39/-126 -23/-40/-125 -27/-42/-124 
f -27/-42/-123 -25/-41/-122 -21/-39/-121 
s 32
f -22/-35/-120 -21/-36/-119 -25/-38/-118 
f -25/-38/-117 -26/-37/-116 -22/-35/-115 
s 64
f -24/-31/-114 -22/-32/-113 -26/-34/-112 
f -26/-34/-111 -28/-33/-110 -24/-31/-109 
s 2
f -15/-24/-108 -16/-25/-107 -20/-30/-106 
f -20/-30/-105 -19/-29/-104 -15/-24/-103 
s 4
f -14/-23/-102 -15/-24/-101 -19/-29/-100 
f -19/-29/-99 -18/-28/-98 -14/-23/-97 
s 2
f -13/-22/-96 -14/-23/-95 -18/-28/-94 
f -18/-28/-93 -17/-27/-92 -13/-22/-91 
s 4
f -16/-21/-90 -13/-22/-89 -17/-27/-88 
f -17/-27/-87 -20/-26/-86 -16/-21/-85 
s 2
f -11/-19/-84 -12/-20/-83 -16/-25/-82 
f -16/-25/-81 -15/-24/-80 -11/-19/-79 
s 4
f -10/-18/-78 -11/-19/-77 -15/-24/-76 
f -15/-24/-75 -14/-23/-74 -10/-18/-73 
s 2
f -9/-17/-72 -10/-18/-71 -14/-23/-70 
f -14/-23/-69 -13/-22/-68 -9/-17/-67 
s 4
f -12/-16/-66 -9/-17/-65 -13/-22/-64 
f -13/-22/-63 -16/-21/-62 -12/-16/-61 
s 2
f -3/-9/-60 -4/-10/-59 -8/-15/-58 
f -8/-15/-57 -7/-14/-56 -3/-9/-55 
s 4
f -2/-8/-54 -3/-9/-53 -7/-14/-52 
f -7/-14/-51 -6/-13/-50 -2/-8/-49 
s 2
f -1/-7/-48 -2/-8/-47 -6/-13/-46 
f -6/-13/-45 -5/-12/-44 -1/-7/-43 
s 4
f -4/-6/-42 -1/-7/-41 -5/-12/-40 
f -5/-12/-39 -8/-11/-38 -4/-6/-37 
s 2
f -19/-4/-36 -20/-5/-35 -4/-10/-34 
f -4/-10/-33 -3/-9/-32 -19/-4/-31 
s 4
f -18/-3/-30 -19/-4/-29 -3/-9/-28 
f -3/-9/-27 -2/-8/-26 -18/-3/-25 
s 2
f -17/-2/-24 -18/-3/-23 -2/-8/-22 
f -2/-8/-21 -1/-7/-20 -17/-2/-19 
s 4
f -20/-1/-18 -17/-2/-17 -1/-7/-16 
f -1/-7/-15 -4/-6/-14 -20/-1/-13 
s off
f -12/-16/-12 -11/-19/-11 -10/-18/-10 
f -10/-18/-9 -9/-17/-8 -12/-16/-7 
f -7/-14/-6 -8/-15/-5 -5/-12/-4 
f -5/-12/-3 -6/-13/-2 -7/-14/-1 
# 96 faces

