# 3ds Max Wavefront OBJ Exporter v0.97b - (c)2007 guruware
# File Created: 06.04.2017 01:10:54

mtllib testhouse.mtl

#
# object Box001
#

v  -2.1978 0.0000 1.6097
v  -0.5366 0.0000 1.6097
v  -2.1978 0.0000 -0.2973
v  -0.5366 0.0000 -0.2973
v  -2.1978 0.9461 1.6097
v  -0.5366 0.9461 1.6097
v  -2.1978 0.9461 -0.2973
v  -0.5366 0.9461 -0.2973
v  -1.3672 0.0000 -0.2973
v  -1.3672 0.0000 1.6097
v  -1.3672 1.5551 1.6097
v  -1.3672 1.5551 -0.2973
v  -1.3672 0.0000 2.7127
v  -0.5366 0.0000 3.4008
v  -0.5366 0.9461 3.4008
v  -1.3672 1.5551 2.7127
v  -2.1978 0.9461 2.0246
v  -2.1978 0.0000 2.0246
v  -3.3973 0.0000 2.7127
v  -3.3973 0.0000 3.4008
v  -3.3973 0.9461 3.4008
v  -3.3973 1.5551 2.7127
v  -3.3973 0.9461 2.0246
v  -3.3973 0.0000 2.0246
v  -2.1978 0.0000 1.6097
v  -0.5366 0.0000 1.6097
v  -2.1978 0.0000 -0.2973
v  -2.1978 0.0000 -0.2973
v  -0.5366 0.0000 -0.2973
v  -0.5366 0.0000 -0.2973
v  -2.1978 0.9461 1.6097
v  -0.5366 0.9461 1.6097
v  -2.1978 0.9461 -0.2973
v  -2.1978 0.9461 -0.2973
v  -0.5366 0.9461 -0.2973
v  -0.5366 0.9461 -0.2973
v  -1.3672 0.0000 -0.2973
v  -1.3672 1.5551 -0.2973
v  -0.5366 0.0000 3.4008
v  -0.5366 0.0000 3.4008
v  -0.5366 0.9461 3.4008
v  -0.5366 0.9461 3.4008
v  -0.5366 0.9461 3.4008
v  -1.3672 1.5551 2.7127
v  -1.3672 1.5551 2.7127
v  -1.3672 1.5551 2.7127
v  -2.1978 0.9461 2.0246
v  -2.1978 0.9461 2.0246
v  -2.1978 0.9461 2.0246
v  -2.1978 0.0000 2.0246
v  -2.1978 0.0000 2.0246
v  -3.3973 0.0000 2.7127
v  -3.3973 0.0000 3.4008
v  -3.3973 0.0000 3.4008
v  -3.3973 0.9461 3.4008
v  -3.3973 0.9461 3.4008
v  -3.3973 1.5551 2.7127
v  -3.3973 1.5551 2.7127
v  -3.3973 0.9461 2.0246
v  -3.3973 0.9461 2.0246
v  -3.3973 0.0000 2.0246
v  -3.3973 0.0000 2.0246
# 62 vertices

vn 0.0000 -1.0000 -0.0000
vn 0.0000 -1.0000 -0.0000
vn 0.0000 -1.0000 -0.0000
vn 0.0000 -1.0000 -0.0000
vn 0.0000 -1.0000 -0.0000
vn 0.0000 -1.0000 -0.0000
vn -0.5913 0.8065 0.0000
vn -0.5913 0.8065 -0.0000
vn -0.5913 0.8065 -0.0000
vn -0.5913 0.8065 -0.0000
vn -0.5913 0.8065 0.0000
vn -0.5913 0.8065 0.0000
vn 1.0000 0.0000 -0.0000
vn 1.0000 0.0000 -0.0000
vn 1.0000 0.0000 -0.0000
vn 1.0000 0.0000 -0.0000
vn 1.0000 0.0000 -0.0000
vn 1.0000 0.0000 -0.0000
vn 0.0000 0.0000 -1.0000
vn 0.0000 0.0000 -1.0000
vn 0.0000 0.0000 -1.0000
vn 0.0000 0.0000 -1.0000
vn 0.0000 0.0000 -1.0000
vn 0.0000 0.0000 -1.0000
vn -1.0000 0.0000 -0.0000
vn -1.0000 0.0000 -0.0000
vn -1.0000 0.0000 -0.0000
vn -1.0000 0.0000 -0.0000
vn -1.0000 0.0000 -0.0000
vn -1.0000 0.0000 -0.0000
vn 0.0000 -1.0000 -0.0000
vn 0.0000 -1.0000 -0.0000
vn 0.0000 -1.0000 -0.0000
vn 0.0000 -1.0000 -0.0000
vn 0.0000 -1.0000 -0.0000
vn 0.0000 -1.0000 -0.0000
vn 0.5913 0.8065 -0.0000
vn 0.5913 0.8065 -0.0000
vn 0.5913 0.8065 -0.0000
vn 0.5913 0.8065 -0.0000
vn 0.5913 0.8065 -0.0000
vn 0.5913 0.8065 -0.0000
vn 0.0000 0.0000 -1.0000
vn 0.0000 0.0000 -1.0000
vn 0.0000 0.0000 -1.0000
vn 0.0000 0.0000 -1.0000
vn 0.0000 0.0000 -1.0000
vn 0.0000 0.0000 -1.0000
vn 0.0000 -1.0000 -0.0000
vn 0.0000 -1.0000 -0.0000
vn 0.0000 -1.0000 -0.0000
vn 0.0000 -1.0000 -0.0000
vn 0.0000 -1.0000 -0.0000
vn 0.0000 -1.0000 -0.0000
vn 1.0000 0.0000 -0.0000
vn 1.0000 0.0000 -0.0000
vn 1.0000 0.0000 -0.0000
vn 1.0000 0.0000 -0.0000
vn 1.0000 0.0000 -0.0000
vn 1.0000 0.0000 -0.0000
vn 0.5913 0.8065 -0.0000
vn 0.5913 0.8065 -0.0000
vn 0.5913 0.8065 -0.0000
vn 0.5913 0.8065 -0.0000
vn 0.5913 0.8065 -0.0000
vn 0.5913 0.8065 -0.0000
vn -0.5913 0.8065 0.0000
vn -0.5913 0.8065 -0.0000
vn -0.5913 0.8065 0.0000
vn -0.5913 0.8065 0.0000
vn -0.5913 0.8065 0.0000
vn -0.5913 0.8065 0.0000
vn -1.0000 0.0000 -0.0000
vn -1.0000 0.0000 -0.0000
vn -1.0000 0.0000 -0.0000
vn -1.0000 0.0000 -0.0000
vn -1.0000 0.0000 -0.0000
vn -1.0000 0.0000 -0.0000
vn 0.0000 -1.0000 -0.0000
vn 0.0000 -1.0000 -0.0000
vn 0.0000 -1.0000 -0.0000
vn 0.0000 -1.0000 -0.0000
vn 0.0000 -1.0000 -0.0000
vn 0.0000 -1.0000 -0.0000
vn -1.0000 0.0000 -0.0000
vn -1.0000 0.0000 -0.0000
vn -1.0000 0.0000 -0.0000
vn -1.0000 0.0000 -0.0000
vn -1.0000 0.0000 -0.0000
vn -1.0000 0.0000 -0.0000
vn -1.0000 0.0000 -0.0000
vn -1.0000 0.0000 -0.0000
vn -1.0000 0.0000 -0.0000
vn -1.0000 0.0000 -0.0000
vn -1.0000 0.0000 -0.0000
vn -1.0000 0.0000 -0.0000
vn 0.0000 -1.0000 -0.0000
vn 0.0000 -1.0000 -0.0000
vn 0.0000 -1.0000 -0.0000
vn 0.0000 -1.0000 -0.0000
vn 0.0000 -1.0000 -0.0000
vn 0.0000 -1.0000 -0.0000
vn 0.0000 0.0000 1.0000
vn 0.0000 0.0000 1.0000
vn 0.0000 0.0000 1.0000
vn 0.0000 0.0000 1.0000
vn 0.0000 0.0000 1.0000
vn 0.0000 0.0000 1.0000
vn 0.0000 0.7488 0.6627
vn 0.0000 0.7488 0.6627
vn 0.0000 0.7488 0.6627
vn 0.0000 0.7488 0.6627
vn 0.0000 0.7488 0.6627
vn 0.0000 0.7488 0.6627
vn 0.0000 0.7488 -0.6627
vn 0.0000 0.7488 -0.6627
vn 0.0000 0.7488 -0.6627
vn 0.0000 0.7488 -0.6627
vn 0.0000 0.7488 -0.6627
vn 0.0000 0.7488 -0.6627
vn 0.0000 0.0000 -1.0000
vn 0.0000 0.0000 -1.0000
vn 0.0000 0.0000 -1.0000
vn 0.0000 0.0000 -1.0000
vn 0.0000 0.0000 -1.0000
vn 0.0000 0.0000 -1.0000
vn 0.0000 -1.0000 -0.0000
vn 0.0000 -1.0000 -0.0000
vn 0.0000 -1.0000 -0.0000
vn 0.0000 -1.0000 -0.0000
vn 0.0000 -1.0000 -0.0000
vn 0.0000 -1.0000 -0.0000
# 132 vertex normals

vt 1.0000 0.0000 0.0000
vt 0.0000 0.0000 0.0000
vt 1.0000 1.0000 0.0000
vt 0.0000 1.0000 0.0000
vt 0.0000 0.0000 0.0000
vt 1.0000 0.0000 0.0000
vt 0.0000 1.0000 0.0000
vt 1.0000 1.0000 0.0000
vt 0.0000 0.0000 0.0000
vt 1.0000 0.0000 0.0000
vt 0.0000 1.0000 0.0000
vt 1.0000 1.0000 0.0000
vt 0.0000 0.0000 0.0000
vt 1.0000 0.0000 0.0000
vt 0.0000 1.0000 0.0000
vt 1.0000 1.0000 0.0000
vt 0.0000 0.0000 0.0000
vt 1.0000 0.0000 0.0000
vt 0.0000 1.0000 0.0000
vt 1.0000 1.0000 0.0000
vt 0.0000 0.0000 0.0000
vt 1.0000 0.0000 0.0000
vt 0.0000 1.0000 0.0000
vt 1.0000 1.0000 0.0000
vt 0.5000 1.0000 0.0000
vt 0.5000 0.0000 0.0000
vt 0.5000 0.0000 0.0000
vt 0.5000 0.0000 0.0000
vt 0.5000 0.0000 0.0000
vt 0.5000 1.0000 0.0000
vt 0.5000 1.0000 0.0000
vt 0.5000 1.0000 0.0000
vt 0.5000 0.0000 0.0000
vt 1.0000 0.0000 0.0000
vt 1.0000 1.0000 0.0000
vt 0.5000 1.0000 0.0000
vt 0.0000 1.0000 0.0000
vt 0.0000 0.0000 0.0000
vt 0.5000 0.0000 0.0000
vt 1.0000 0.0000 0.0000
vt 1.0000 1.0000 0.0000
vt 0.5000 1.0000 0.0000
vt 0.0000 1.0000 0.0000
vt 0.0000 0.0000 0.0000
# 44 texture coords

g Box001
usemtl wire_006135113
f 28/3/1 37/25/2 10/27/3 
f 10/27/4 1/1/5 28/3/6 
f 11/29/7 12/31/8 33/7/9 
f 33/7/10 5/5/11 11/29/12 
f 2/13/13 30/14/14 36/16/15 
f 36/16/16 32/15/17 2/13/18 
f 9/26/19 38/32/20 8/19/21 
f 8/19/22 29/17/23 9/26/24 
f 3/21/25 25/22/26 31/24/27 
f 31/24/28 7/23/29 3/21/30 
f 4/4/31 26/2/32 10/27/33 
f 10/27/34 37/25/35 4/4/36 
f 6/6/37 35/8/38 12/31/39 
f 12/31/40 11/29/41 6/6/42 
f 27/18/43 34/20/44 38/32/45 
f 38/32/46 9/26/47 27/18/48 
f 26/10/49 40/34/50 13/33/51 
f 13/33/52 10/28/53 26/10/54 
f 32/12/55 43/35/56 14/34/57 
f 14/34/58 2/10/59 32/12/60 
f 11/30/61 46/36/62 15/35/63 
f 15/35/64 6/12/65 11/30/66 
f 5/11/67 49/37/68 16/36/69 
f 16/36/70 11/30/71 5/11/72 
f 25/9/73 51/38/74 17/37/75 
f 17/37/76 31/11/77 25/9/78 
f 10/28/79 13/33/80 18/38/81 
f 18/38/82 1/9/83 10/28/84 
f 55/41/85 57/42/86 59/43/87 
f 59/43/88 61/44/89 19/39/90 
f 55/41/91 59/43/92 19/39/93 
f 53/40/94 55/41/95 19/39/96 
f 13/33/97 40/34/98 54/40/99 
f 54/40/100 52/39/101 13/33/102 
f 39/34/103 42/35/104 56/41/105 
f 56/41/106 20/40/107 39/34/108 
f 41/35/109 45/36/110 58/42/111 
f 58/42/112 21/41/113 41/35/114 
f 44/36/115 48/37/116 60/43/117 
f 60/43/118 22/42/119 44/36/120 
f 47/37/121 50/38/122 62/44/123 
f 62/44/124 23/43/125 47/37/126 
f 18/38/127 13/33/128 52/39/129 
f 52/39/130 24/44/131 18/38/132 
# 44 faces

