# 3ds Max Wavefront OBJ Exporter v0.97b - (c)2007 guruware
# File Created: 22.03.2017 23:54:47

mtllib blister-2.mtl

#
# object blister_2
#

v  0.3750 1.7500 -0.3750
v  0.6250 0.0000 -0.3750
v  0.6250 -0.0000 0.5000
v  0.6250 1.7500 -0.5000
v  0.6250 1.7500 -0.3750
v  0.3750 0.0000 -0.3750
v  0.3750 -0.0000 0.5000
v  0.3750 -1.5000 -0.5000
v  0.3750 -1.5000 0.5000
v  0.6250 -1.3750 -0.5000
v  0.6250 -1.3750 0.5000
v  0.3750 1.7500 -0.5000
v  0.5000 -1.5000 -0.5000
v  0.5000 -1.5000 0.5000
v  0.3750 1.7500 -0.3750
v  0.6250 0.0000 -0.3750
v  0.6250 -0.0000 0.5000
v  0.6250 1.7500 -0.5000
v  0.6250 1.7500 -0.3750
v  0.3750 0.0000 -0.3750
v  0.3750 -0.0000 0.5000
v  0.3750 1.7500 -0.5000
# 22 vertices

vn 0.0000 0.0000 -1.0000
vn 0.0000 0.0000 -1.0000
vn 0.0000 0.0000 -1.0000
vn 0.0000 1.0000 0.0000
vn 0.0000 1.0000 0.0000
vn 0.0000 1.0000 0.0000
vn 0.0000 1.0000 0.0000
vn 0.0000 1.0000 0.0000
vn 0.0000 1.0000 0.0000
vn -0.0000 -0.0000 1.0000
vn -0.0000 -0.0000 1.0000
vn -0.0000 -0.0000 1.0000
vn -0.0000 -0.0000 1.0000
vn -0.0000 -0.0000 1.0000
vn -0.0000 -0.0000 1.0000
vn 0.0000 1.0000 0.0000
vn 0.0000 1.0000 0.0000
vn 0.0000 1.0000 0.0000
vn 0.0000 1.0000 0.0000
vn 0.0000 1.0000 0.0000
vn 0.0000 1.0000 0.0000
vn 0.0000 -0.0000 1.0000
vn 0.0000 -0.0000 1.0000
vn 0.0000 -0.0000 1.0000
vn 0.0000 -0.0000 1.0000
vn 0.0000 -0.0000 1.0000
vn 0.0000 -0.0000 1.0000
vn 0.0000 0.0000 -1.0000
vn 0.0000 0.0000 -1.0000
vn 0.0000 0.0000 -1.0000
vn 0.0000 0.0000 -1.0000
vn 0.0000 0.0000 -1.0000
vn 0.0000 0.0000 -1.0000
vn 0.0000 -0.0000 1.0000
vn 0.0000 -0.0000 1.0000
vn 0.0000 -0.0000 1.0000
# 36 vertex normals

vt 0.4375 0.0781 0.0000
vt 0.4531 0.0781 0.0000
vt 0.6719 0.0781 0.0000
vt 0.7813 0.0781 0.0000
vt 0.4531 0.0469 0.0000
vt 0.6719 0.0469 0.0000
vt 0.4375 0.0469 0.0000
vt 0.9688 0.0625 0.0000
vt 0.0469 0.0781 0.0000
vt 0.7813 0.0469 0.0000
vt 0.9688 0.0469 0.0000
vt 0.9531 0.0781 0.0000
vt 0.0313 0.0625 0.0000
vt 0.0313 0.0469 0.0000
# 14 texture coords

g blister_2
usemtl Material__28
f 22/7/1 13/13/2 8/14/3 
f 18/1/4 12/7/5 15/5/6 
f 15/5/7 5/2/8 18/1/9 
f 19/2/10 1/5/11 20/6/12 
f 20/6/13 2/3/14 19/2/15 
f 16/3/16 6/6/17 21/10/18 
f 21/10/19 3/4/20 16/3/21 
f 11/12/22 17/4/23 7/10/24 
f 7/10/25 14/8/26 11/12/27 
f 22/7/28 4/1/29 10/9/30 
f 10/9/31 13/13/32 22/7/33 
f 7/10/34 9/11/35 14/8/36 
# 12 faces

#
# object blister_2_untinted
#

v  -1.2500 -1.7500 -0.5000
v  -1.2500 1.7500 -0.5000
v  1.2500 1.7500 -0.5000
v  -1.2500 1.7500 -0.3750
v  1.2500 1.7500 -0.3750
v  1.0000 0.0000 -0.3750
v  -1.0000 0.0000 -0.3750
v  1.0000 -0.0000 0.5000
v  -1.0000 -0.0000 0.5000
v  1.0000 -1.7500 -0.3750
v  1.2500 -1.7500 -0.5000
v  1.0000 -1.7500 0.5000
v  -1.2500 -1.7500 -0.3750
v  1.2500 -1.7500 -0.3750
v  -1.0000 -1.7500 -0.3750
v  -1.0000 -1.7500 0.5000
v  0.3750 1.7500 -0.3750
v  0.6250 0.0000 -0.3750
v  0.6250 -0.0000 0.5000
v  0.6250 1.7500 -0.5000
v  0.6250 1.7500 -0.3750
v  0.3750 0.0000 -0.3750
v  0.3750 -0.0000 0.5000
v  0.3750 -1.5000 -0.5000
v  0.3750 -1.5000 0.5000
v  0.6250 -1.3750 -0.5000
v  0.6250 -1.3750 0.5000
v  0.3750 1.7500 -0.5000
v  0.5000 -1.5000 -0.5000
v  0.5000 -1.5000 0.5000
v  -1.2500 -1.7500 -0.5000
v  -1.2500 -1.7500 -0.5000
v  -1.2500 1.7500 -0.5000
v  -1.2500 1.7500 -0.5000
v  1.2500 1.7500 -0.5000
v  1.2500 1.7500 -0.5000
v  -1.2500 1.7500 -0.3750
v  -1.2500 1.7500 -0.3750
v  1.2500 1.7500 -0.3750
v  1.2500 1.7500 -0.3750
v  1.0000 0.0000 -0.3750
v  1.0000 0.0000 -0.3750
v  -1.0000 0.0000 -0.3750
v  -1.0000 0.0000 -0.3750
v  1.0000 -0.0000 0.5000
v  1.0000 -0.0000 0.5000
v  -1.0000 -0.0000 0.5000
v  -1.0000 -0.0000 0.5000
v  1.0000 -1.7500 -0.3750
v  1.0000 -1.7500 -0.3750
v  1.2500 -1.7500 -0.5000
v  1.2500 -1.7500 -0.5000
v  1.0000 -1.7500 0.5000
v  1.0000 -1.7500 0.5000
v  -1.2500 -1.7500 -0.3750
v  -1.2500 -1.7500 -0.3750
v  1.2500 -1.7500 -0.3750
v  1.2500 -1.7500 -0.3750
v  -1.0000 -1.7500 -0.3750
v  -1.0000 -1.7500 -0.3750
v  -1.0000 -1.7500 0.5000
v  -1.0000 -1.7500 0.5000
v  0.3750 1.7500 -0.3750
v  0.6250 0.0000 -0.3750
v  0.6250 -0.0000 0.5000
v  0.6250 1.7500 -0.5000
v  0.6250 1.7500 -0.3750
v  0.3750 0.0000 -0.3750
v  0.3750 -0.0000 0.5000
v  0.3750 1.7500 -0.5000
# 70 vertices

vn 0.0000 1.0000 0.0000
vn 0.0000 1.0000 0.0000
vn 0.0000 1.0000 0.0000
vn 0.0000 1.0000 0.0000
vn 0.0000 1.0000 0.0000
vn 0.0000 1.0000 0.0000
vn -1.0000 0.0000 -0.0000
vn -1.0000 0.0000 -0.0000
vn -1.0000 0.0000 -0.0000
vn -1.0000 0.0000 -0.0000
vn -1.0000 0.0000 -0.0000
vn -1.0000 0.0000 -0.0000
vn -0.0000 -0.0000 1.0000
vn -0.0000 -0.0000 1.0000
vn 0.0000 -0.0000 1.0000
vn 0.0000 -0.0000 1.0000
vn -0.0000 -0.0000 1.0000
vn -0.0000 -0.0000 1.0000
vn -0.0000 -0.0000 1.0000
vn -0.0000 -0.0000 1.0000
vn -0.0000 -0.0000 1.0000
vn -0.0000 -0.0000 1.0000
vn -0.0000 -0.0000 1.0000
vn -0.0000 -0.0000 1.0000
vn 0.0000 -1.0000 -0.0000
vn 0.0000 -1.0000 -0.0000
vn 0.0000 -1.0000 -0.0000
vn 0.0000 -1.0000 -0.0000
vn 0.0000 -1.0000 -0.0000
vn 0.0000 -1.0000 -0.0000
vn 0.0000 1.0000 0.0000
vn 0.0000 1.0000 0.0000
vn 0.0000 1.0000 0.0000
vn 0.0000 1.0000 0.0000
vn 0.0000 1.0000 0.0000
vn 0.0000 1.0000 0.0000
vn -1.0000 0.0000 -0.0000
vn -1.0000 0.0000 -0.0000
vn -1.0000 0.0000 -0.0000
vn -1.0000 0.0000 -0.0000
vn -1.0000 0.0000 -0.0000
vn -1.0000 0.0000 -0.0000
vn -0.0000 0.0000 -1.0000
vn -0.0000 0.0000 -1.0000
vn -0.0000 0.0000 -1.0000
vn -0.0000 0.0000 -1.0000
vn 0.0000 0.0000 -1.0000
vn -0.0000 0.0000 -1.0000
vn 0.0000 1.0000 0.0000
vn 0.0000 1.0000 0.0000
vn 0.0000 1.0000 0.0000
vn 0.0000 1.0000 0.0000
vn 0.0000 1.0000 0.0000
vn 0.0000 1.0000 0.0000
vn -0.0000 -0.0000 1.0000
vn -0.0000 -0.0000 1.0000
vn -0.0000 -0.0000 1.0000
vn -0.0000 -0.0000 1.0000
vn 0.0000 -0.0000 1.0000
vn -0.0000 -0.0000 1.0000
vn 0.0000 1.0000 0.0000
vn 0.0000 1.0000 0.0000
vn 0.0000 1.0000 0.0000
vn 0.0000 1.0000 0.0000
vn 0.0000 1.0000 0.0000
vn 0.0000 1.0000 0.0000
vn 0.0000 -0.0000 1.0000
vn 0.0000 -0.0000 1.0000
vn -0.0000 -0.0000 1.0000
vn -0.0000 -0.0000 1.0000
vn -0.0000 -0.0000 1.0000
vn 0.0000 -0.0000 1.0000
vn 0.0000 -1.0000 -0.0000
vn 0.0000 -1.0000 -0.0000
vn 0.0000 -1.0000 -0.0000
vn 0.0000 -1.0000 -0.0000
vn 0.0000 -1.0000 -0.0000
vn 0.0000 -1.0000 -0.0000
vn 0.0000 -1.0000 -0.0000
vn 0.0000 -1.0000 -0.0000
vn 0.0000 -1.0000 -0.0000
vn 0.0000 -1.0000 -0.0000
vn 0.0000 -1.0000 -0.0000
vn 0.0000 -1.0000 -0.0000
vn 0.0000 0.0000 -1.0000
vn 0.0000 0.0000 -1.0000
vn 0.0000 0.0000 -1.0000
vn 0.0000 0.0000 -1.0000
vn 0.0000 0.0000 -1.0000
vn 0.0000 0.0000 -1.0000
vn -0.0000 -0.0000 1.0000
vn -0.0000 -0.0000 1.0000
vn -0.0000 -0.0000 1.0000
vn -0.0000 -0.0000 1.0000
vn -0.0000 -0.0000 1.0000
vn -0.0000 -0.0000 1.0000
vn 1.0000 0.0000 -0.0000
vn 1.0000 0.0000 -0.0000
vn 1.0000 0.0000 -0.0000
vn 1.0000 0.0000 -0.0000
vn 1.0000 0.0000 -0.0000
vn 1.0000 0.0000 -0.0000
vn -0.0000 -0.0000 1.0000
vn -0.0000 -0.0000 1.0000
vn 0.0000 -0.0000 1.0000
vn 0.0000 -0.0000 1.0000
vn -0.0000 -0.0000 1.0000
vn -0.0000 -0.0000 1.0000
vn 1.0000 -0.0000 -0.0000
vn 1.0000 -0.0000 -0.0000
vn 1.0000 -0.0000 -0.0000
vn 1.0000 -0.0000 -0.0000
vn 1.0000 -0.0000 -0.0000
vn 1.0000 -0.0000 -0.0000
vn -0.0000 -0.0000 1.0000
vn -0.0000 -0.0000 1.0000
vn 0.0000 -0.0000 1.0000
vn 0.0000 -0.0000 1.0000
vn 0.0000 -0.0000 1.0000
vn -0.0000 -0.0000 1.0000
vn -0.0000 0.0000 -1.0000
vn -0.0000 0.0000 -1.0000
vn -0.0000 0.0000 -1.0000
vn 0.0000 -0.0000 1.0000
vn 0.0000 -0.0000 1.0000
vn 0.0000 -0.0000 1.0000
vn -0.0000 0.0000 -1.0000
vn 0.0000 0.0000 -1.0000
vn 0.0000 0.0000 -1.0000
vn 0.0000 0.0000 -1.0000
vn -0.0000 0.0000 -1.0000
vn -0.0000 0.0000 -1.0000
# 132 vertex normals

vt 0.5938 0.9688 0.0000
vt 0.5938 0.5313 0.0000
vt 0.4922 0.9688 0.0000
vt 0.4063 0.4831 0.0000
vt 0.0938 0.4453 0.0000
vt 0.4063 0.9688 0.0000
vt 0.4922 0.5313 0.0000
vt 0.5078 0.5313 0.0000
vt 0.0938 0.4297 0.0000
vt 0.3750 0.3047 0.0000
vt 0.6250 0.2656 0.0000
vt 0.1250 0.4297 0.0000
vt 0.3750 0.4297 0.0000
vt 0.8750 0.2656 0.0000
vt 0.4063 0.4297 0.0000
vt 0.3750 0.1953 0.0000
vt 0.3750 0.7500 0.0000
vt 0.0938 0.9688 0.0000
vt 0.0938 0.5313 0.0000
vt 0.1250 0.5313 0.0000
vt 0.1250 0.7500 0.0000
vt 0.1328 0.7344 0.0000
vt 0.4063 0.5313 0.0000
vt 0.1328 0.5156 0.0000
vt 0.3672 0.5156 0.0000
vt 0.3672 0.7344 0.0000
vt 0.2578 0.7344 0.0000
vt 0.2578 0.5156 0.0000
vt 0.4063 0.4674 0.0000
vt 0.5078 0.9688 0.0000
vt 0.4922 0.9688 0.0000
vt 0.5078 0.5313 0.0000
vt 0.3750 0.5313 0.0000
vt 0.1250 0.3047 0.0000
vt 0.1250 0.1953 0.0000
vt 0.0938 0.4831 0.0000
vt 0.0938 0.4674 0.0000
vt 0.4063 0.4453 0.0000
vt 0.1250 0.3203 0.0000
vt 0.6250 0.4844 0.0000
vt 0.3750 0.3203 0.0000
vt 0.8750 0.4844 0.0000
vt 0.2422 0.5156 0.0000
vt 0.2422 0.7344 0.0000
vt 0.5078 0.9688 0.0000
vt 0.4922 0.5313 0.0000
vt 0.9063 0.5313 0.0000
vt 0.9063 0.9688 0.0000
vt 0.2969 0.9688 0.0000
vt 0.2969 0.4674 0.0000
vt 0.3281 0.7500 0.0000
vt 0.3281 0.3047 0.0000
vt 0.3281 0.1953 0.0000
vt 0.8281 0.4844 0.0000
vt 0.6719 0.9688 0.0000
vt 0.3281 0.4831 0.0000
vt 0.3281 0.4674 0.0000
vt 0.3281 0.9688 0.0000
vt 0.2969 0.3047 0.0000
vt 0.2969 0.7500 0.0000
vt 0.7969 0.4844 0.0000
vt 0.2969 0.1953 0.0000
vt 0.7031 0.5625 0.0000
vt 0.7969 0.2969 0.0000
vt 0.6719 0.5781 0.0000
vt 0.8281 0.3125 0.0000
vt 0.2969 0.4831 0.0000
vt 0.7031 0.9688 0.0000
vt 0.6875 0.5625 0.0000
vt 0.8125 0.2969 0.0000
# 70 texture coords

g blister_2_untinted
usemtl Material__28
f 42/70/37 89/71/38 27/43/39 
f 27/43/40 58/18/41 42/70/42 
f 54/21/43 78/46/44 26/59/45 
f 26/59/46 24/17/47 54/21/48 
f 43/72/49 86/65/50 64/31/51 
f 64/31/52 61/20/53 43/72/54 
f 77/33/55 81/34/56 66/35/57 
f 66/35/58 59/32/59 77/33/60 
f 74/19/61 79/23/62 71/26/63 
f 82/27/64 35/29/65 53/52/66 
f 40/66/67 87/67/68 30/30/69 
f 30/30/70 28/24/71 40/66/72 
f 37/38/73 38/57/74 31/58/75 
f 31/58/76 29/36/77 37/38/78 
f 57/15/79 33/16/80 48/79/81 
f 48/79/82 88/69/83 57/15/84 
f 55/50/85 60/51/86 39/64/87 
f 39/64/88 92/81/89 55/50/90 
f 85/63/91 59/32/92 66/35/93 
f 66/35/94 44/74/95 85/63/96 
f 65/48/97 70/49/98 45/76/99 
f 45/76/100 90/73/101 65/48/102 
f 34/28/103 52/84/104 47/78/105 
f 47/78/106 84/25/107 34/28/108 
f 53/52/109 74/19/110 71/26/111 
f 71/26/112 82/27/113 53/52/114 
f 82/27/115 71/26/116 75/53/117 
f 75/53/118 83/55/119 82/27/120 
f 56/62/121 50/82/122 46/77/123 
f 46/77/124 23/61/125 56/62/126 
f 91/75/127 69/54/128 84/25/129 
f 84/25/130 47/78/131 91/75/132 
f 25/44/133 62/45/134 80/60/135 
f 80/60/136 73/22/137 25/44/138 
f 36/37/139 61/20/140 64/31/141 
f 64/31/142 72/47/143 36/37/144 
f 63/40/145 68/41/146 76/42/147 
f 76/42/148 32/39/149 63/40/150 
f 67/56/151 41/68/152 49/80/153 
f 49/80/154 34/28/155 67/56/156 
f 48/79/157 33/16/158 51/83/159 
f 34/28/160 49/80/161 52/84/162 
f 33/16/163 23/61/164 46/77/165 
f 46/77/166 51/83/167 33/16/168 
# 44 faces

