# 3ds Max Wavefront OBJ Exporter v0.97b - (c)2007 guruware
# File Created: 22.03.2017 23:55:07

mtllib blister-1.mtl

#
# object blister_1
#

v  -1.2500 -1.7500 -0.3750
v  -1.2500 -1.7500 -0.5000
v  -1.2500 1.7500 -0.5000
v  1.2500 1.7500 -0.5000
v  1.2500 -1.7500 -0.3750
v  -1.2500 1.7500 -0.3750
v  1.2500 1.7500 -0.3750
v  -1.0000 -1.7500 -0.3750
v  1.0000 0.0000 -0.3750
v  -1.0000 0.0000 -0.3750
v  1.2500 -1.7500 -0.5000
v  1.0000 -1.7500 -0.3750
v  -1.0000 -1.7500 0.5000
v  1.0000 -1.7500 0.5000
v  1.0000 -0.0000 0.5000
v  -1.0000 -0.0000 0.5000
v  -1.2500 -1.7500 -0.3750
v  -1.2500 -1.7500 -0.3750
v  -1.2500 -1.7500 -0.5000
v  -1.2500 -1.7500 -0.5000
v  -1.2500 1.7500 -0.5000
v  -1.2500 1.7500 -0.5000
v  1.2500 1.7500 -0.5000
v  1.2500 1.7500 -0.5000
v  1.2500 -1.7500 -0.3750
v  1.2500 -1.7500 -0.3750
v  -1.2500 1.7500 -0.3750
v  -1.2500 1.7500 -0.3750
v  -1.2500 1.7500 -0.3750
v  1.2500 1.7500 -0.3750
v  1.2500 1.7500 -0.3750
v  1.2500 1.7500 -0.3750
v  -1.0000 -1.7500 -0.3750
v  -1.0000 -1.7500 -0.3750
v  1.0000 0.0000 -0.3750
v  1.0000 0.0000 -0.3750
v  1.0000 0.0000 -0.3750
v  -1.0000 0.0000 -0.3750
v  -1.0000 0.0000 -0.3750
v  -1.0000 0.0000 -0.3750
v  1.2500 -1.7500 -0.5000
v  1.2500 -1.7500 -0.5000
v  1.0000 -1.7500 -0.3750
v  1.0000 -1.7500 -0.3750
v  -1.0000 -1.7500 0.5000
v  -1.0000 -1.7500 0.5000
v  1.0000 -1.7500 0.5000
v  1.0000 -1.7500 0.5000
v  1.0000 -0.0000 0.5000
v  1.0000 -0.0000 0.5000
v  -1.0000 -0.0000 0.5000
v  -1.0000 -0.0000 0.5000
# 52 vertices

vn 0.0000 0.0000 -1.0000
vn 0.0000 0.0000 -1.0000
vn 0.0000 0.0000 -1.0000
vn 0.0000 0.0000 -1.0000
vn 0.0000 0.0000 -1.0000
vn 0.0000 0.0000 -1.0000
vn -0.0000 -0.0000 1.0000
vn 0.0000 -0.0000 1.0000
vn -0.0000 -0.0000 1.0000
vn -0.0000 -0.0000 1.0000
vn -0.0000 -0.0000 1.0000
vn -0.0000 -0.0000 1.0000
vn 0.0000 -1.0000 -0.0000
vn 0.0000 -1.0000 -0.0000
vn 0.0000 -1.0000 -0.0000
vn 0.0000 -1.0000 -0.0000
vn 0.0000 -1.0000 -0.0000
vn 0.0000 -1.0000 -0.0000
vn 1.0000 0.0000 -0.0000
vn 1.0000 0.0000 -0.0000
vn 1.0000 0.0000 -0.0000
vn 1.0000 0.0000 -0.0000
vn 1.0000 0.0000 -0.0000
vn 1.0000 0.0000 -0.0000
vn 0.0000 1.0000 0.0000
vn 0.0000 1.0000 0.0000
vn 0.0000 1.0000 0.0000
vn 0.0000 1.0000 0.0000
vn 0.0000 1.0000 0.0000
vn 0.0000 1.0000 0.0000
vn -1.0000 0.0000 -0.0000
vn -1.0000 0.0000 -0.0000
vn -1.0000 0.0000 -0.0000
vn -1.0000 0.0000 -0.0000
vn -1.0000 0.0000 -0.0000
vn -1.0000 0.0000 -0.0000
vn 0.0000 -0.0000 1.0000
vn 0.0000 -0.0000 1.0000
vn 0.0000 -0.0000 1.0000
vn -0.0000 -0.0000 1.0000
vn -0.0000 -0.0000 1.0000
vn -0.0000 -0.0000 1.0000
vn -0.0000 -0.0000 1.0000
vn -0.0000 -0.0000 1.0000
vn -0.0000 -0.0000 1.0000
vn -0.0000 -0.0000 1.0000
vn -0.0000 -0.0000 1.0000
vn -0.0000 -0.0000 1.0000
vn -0.0000 -0.0000 1.0000
vn -0.0000 -0.0000 1.0000
vn -0.0000 -0.0000 1.0000
vn -0.0000 -0.0000 1.0000
vn -0.0000 -0.0000 1.0000
vn -0.0000 -0.0000 1.0000
vn 0.0000 -1.0000 -0.0000
vn 0.0000 -1.0000 -0.0000
vn 0.0000 -1.0000 -0.0000
vn 0.0000 -1.0000 -0.0000
vn 0.0000 -1.0000 -0.0000
vn 0.0000 -1.0000 -0.0000
vn 0.0000 -1.0000 -0.0000
vn 0.0000 -1.0000 -0.0000
vn 0.0000 -1.0000 -0.0000
vn 0.0000 -1.0000 -0.0000
vn 0.0000 -1.0000 -0.0000
vn 0.0000 -1.0000 -0.0000
vn 1.0000 -0.0000 -0.0000
vn 1.0000 -0.0000 -0.0000
vn 1.0000 -0.0000 -0.0000
vn 1.0000 -0.0000 -0.0000
vn 1.0000 -0.0000 -0.0000
vn 1.0000 -0.0000 -0.0000
vn 0.0000 1.0000 0.0000
vn 0.0000 1.0000 0.0000
vn 0.0000 1.0000 0.0000
vn 0.0000 1.0000 0.0000
vn 0.0000 1.0000 0.0000
vn 0.0000 1.0000 0.0000
vn -1.0000 0.0000 -0.0000
vn -1.0000 0.0000 -0.0000
vn -1.0000 0.0000 -0.0000
vn -1.0000 0.0000 -0.0000
vn -1.0000 0.0000 -0.0000
vn -1.0000 0.0000 -0.0000
# 84 vertex normals

vt -0.0938 0.5313 0.0000
vt -0.0938 0.9687 0.0000
vt -0.4062 0.9687 0.0000
vt -0.4062 0.5313 0.0000
vt -0.5078 0.9687 0.0000
vt -0.5938 0.4831 0.0000
vt -0.9062 0.4831 0.0000
vt -0.5938 0.4453 0.0000
vt -0.3750 0.2656 0.0000
vt -0.5078 0.5313 0.0000
vt -0.4922 0.5313 0.0000
vt -0.4922 0.5313 0.0000
vt -0.9062 0.4453 0.0000
vt -0.8750 0.4297 0.0000
vt -0.6250 0.4297 0.0000
vt -0.1250 0.2656 0.0000
vt -0.6250 0.3047 0.0000
vt -0.8750 0.3047 0.0000
vt -0.1250 0.4844 0.0000
vt -0.9062 0.4297 0.0000
vt -0.5938 0.4297 0.0000
vt -0.3750 0.4844 0.0000
vt -0.8750 0.3203 0.0000
vt -0.6250 0.3203 0.0000
vt -0.8750 0.1953 0.0000
vt -0.6250 0.1953 0.0000
vt -0.5938 0.5313 0.0000
vt -0.5938 0.9687 0.0000
vt -0.6250 0.7500 0.0000
vt -0.6250 0.5313 0.0000
vt -0.9062 0.9687 0.0000
vt -0.8750 0.7500 0.0000
vt -0.9062 0.5313 0.0000
vt -0.8750 0.5313 0.0000
vt -0.8672 0.7344 0.0000
vt -0.8672 0.5156 0.0000
vt -0.7578 0.5156 0.0000
vt -0.7578 0.7344 0.0000
vt -0.6328 0.5156 0.0000
vt -0.6328 0.7344 0.0000
vt -0.7422 0.7344 0.0000
vt -0.7422 0.5156 0.0000
vt -0.9062 0.4674 0.0000
vt -0.5938 0.4674 0.0000
vt -0.4922 0.9687 0.0000
vt -0.5078 0.9687 0.0000
vt -0.5078 0.5313 0.0000
vt -0.4922 0.9687 0.0000
# 48 texture coords

g blister_1
usemtl Material__28
f 19/1/1 22/2/2 24/3/3 
f 24/3/4 11/4/5 19/1/6 
f 45/9/7 47/16/8 49/19/9 
f 49/19/10 51/22/11 45/9/12 
f 42/13/13 44/14/14 8/15/15 
f 8/15/16 20/8/17 42/13/18 
f 41/11/19 23/45/20 32/46/21 
f 32/46/22 26/47/23 41/11/24 
f 4/6/25 21/7/26 28/43/27 
f 28/43/28 7/44/29 4/6/30 
f 3/5/31 2/10/32 18/12/33 
f 18/12/34 29/48/35 3/5/36 
f 5/27/37 31/28/38 37/29/39 
f 37/29/40 12/30/41 5/27/42 
f 30/28/43 27/31/44 40/32/45 
f 40/32/46 9/29/47 30/28/48 
f 6/31/49 17/33/50 34/34/51 
f 34/34/52 10/32/53 6/31/54 
f 42/13/55 25/20/56 44/14/57 
f 8/15/58 1/21/59 20/8/60 
f 8/15/61 44/14/62 48/23/63 
f 48/23/64 13/24/65 8/15/66 
f 43/39/67 36/40/68 50/41/69 
f 50/41/70 14/42/71 43/39/72 
f 35/17/73 39/18/74 52/25/75 
f 52/25/76 15/26/77 35/17/78 
f 38/35/79 33/36/80 46/37/81 
f 46/37/82 16/38/83 38/35/84 
# 28 faces

