# 3ds Max Wavefront OBJ Exporter v0.97b - (c)2007 guruware
# File Created: 01.04.2017 12:11:49

mtllib gamebox-2.mtl

#
# object gamebox_2
#

v  2.5000 4.1875 1.3125
v  2.5000 4.1875 -0.4375
v  2.5000 -3.8125 -0.4375
v  1.5000 4.1875 1.3125
v  1.5000 -3.8125 -0.9375
v  1.5000 4.1875 -0.9375
v  2.5000 -3.8125 1.3125
v  1.5000 -3.8125 1.3125
v  2.0000 -3.8125 -0.9375
v  2.0000 4.1875 -0.9375
v  2.5000 4.1875 1.3125
v  1.5000 4.1875 1.3125
v  2.5000 -3.8125 1.3125
v  1.5000 -3.8125 1.3125
# 14 vertices

vn 0.0000 -0.0000 1.0000
vn 0.0000 -0.0000 1.0000
vn 0.0000 -0.0000 1.0000
vn 0.0000 -0.0000 1.0000
vn 0.0000 -0.0000 1.0000
vn 0.0000 -0.0000 1.0000
vn 0.0000 1.0000 0.0000
vn 0.0000 1.0000 0.0000
vn 0.0000 1.0000 -0.0000
vn 0.0000 -1.0000 0.0000
vn 0.0000 -1.0000 0.0000
vn 0.0000 -1.0000 0.0000
vn 0.0000 -1.0000 0.0000
vn 0.0000 -1.0000 0.0000
vn 0.0000 -1.0000 0.0000
vn 0.0000 1.0000 0.0000
vn 0.0000 1.0000 0.0000
vn -0.0000 1.0000 -0.0000
vn -0.0000 1.0000 -0.0000
vn 0.0000 1.0000 -0.0000
vn 0.0000 1.0000 0.0000
vn 0.0000 -1.0000 0.0000
vn -0.0000 -1.0000 0.0000
vn 0.0000 -1.0000 0.0000
# 24 vertex normals

vt 0.3125 0.1172 0.0000
vt 0.6875 0.1172 0.0000
vt 0.3125 0.0703 0.0000
vt 0.6875 0.0703 0.0000
vt 0.2070 0.0937 0.0000
vt 0.2305 0.1172 0.0000
vt 0.7930 0.0937 0.0000
vt 0.7930 0.0703 0.0000
vt 0.7695 0.1172 0.0000
vt 0.2070 0.0703 0.0000
# 10 texture coords

g gamebox_2
usemtl Material__25
f 11/1/1 4/3/2 14/4/3 
f 14/4/4 7/2/5 11/1/6 
f 6/10/7 12/3/8 10/5/9 
f 13/2/10 8/4/11 9/7/12 
f 9/7/13 3/9/14 13/2/15 
f 12/3/16 1/1/17 2/6/18 
f 2/6/19 10/5/20 12/3/21 
f 8/4/22 5/8/23 9/7/24 
# 8 faces

#
# object gamebox_2_untinted
#

v  -4.0000 -3.8125 1.3125
v  4.0000 4.1875 -1.6875
v  4.0000 -3.8125 -1.6875
v  4.0000 4.1875 1.3125
v  -4.0000 4.1875 1.3125
v  4.0000 -3.8125 1.3125
v  -4.0000 -3.8125 -1.6875
v  -4.0000 4.1875 -1.6875
v  2.5000 4.1875 1.3125
v  2.5000 4.1875 -0.4375
v  2.5000 -3.8125 -0.4375
v  1.5000 4.1875 1.3125
v  1.5000 -3.8125 -0.9375
v  1.5000 4.1875 -0.9375
v  2.5000 -3.8125 1.3125
v  1.5000 -3.8125 1.3125
v  2.0000 -3.8125 -0.9375
v  2.0000 4.1875 -0.9375
v  -4.0000 -3.8125 1.3125
v  -4.0000 -3.8125 1.3125
v  4.0000 4.1875 -1.6875
v  4.0000 4.1875 -1.6875
v  4.0000 -3.8125 -1.6875
v  4.0000 -3.8125 -1.6875
v  4.0000 4.1875 1.3125
v  4.0000 4.1875 1.3125
v  -4.0000 4.1875 1.3125
v  -4.0000 4.1875 1.3125
v  4.0000 -3.8125 1.3125
v  4.0000 -3.8125 1.3125
v  -4.0000 -3.8125 -1.6875
v  -4.0000 -3.8125 -1.6875
v  -4.0000 4.1875 -1.6875
v  -4.0000 4.1875 -1.6875
v  2.5000 4.1875 1.3125
v  1.5000 4.1875 1.3125
v  2.5000 -3.8125 1.3125
v  1.5000 -3.8125 1.3125
# 38 vertices

vn 0.0000 -0.0000 1.0000
vn 0.0000 -0.0000 1.0000
vn 0.0000 -0.0000 1.0000
vn 0.0000 -0.0000 1.0000
vn 0.0000 -0.0000 1.0000
vn 0.0000 -0.0000 1.0000
vn 0.0000 -0.0000 1.0000
vn 0.0000 -0.0000 1.0000
vn 0.0000 -0.0000 1.0000
vn 0.0000 -0.0000 1.0000
vn 0.0000 -0.0000 1.0000
vn 0.0000 -0.0000 1.0000
vn 0.0000 0.0000 -1.0000
vn 0.0000 0.0000 -1.0000
vn 0.0000 0.0000 -1.0000
vn 0.0000 0.0000 -1.0000
vn 0.0000 0.0000 -1.0000
vn 0.0000 0.0000 -1.0000
vn -0.0000 1.0000 -0.0000
vn 0.0000 1.0000 0.0000
vn -0.0000 1.0000 -0.0000
vn 0.0000 -1.0000 -0.0000
vn 0.0000 -1.0000 -0.0000
vn 0.0000 -1.0000 -0.0000
vn 0.0000 -1.0000 -0.0000
vn 0.0000 -1.0000 -0.0000
vn 0.0000 -1.0000 -0.0000
vn 0.0000 1.0000 0.0000
vn 0.0000 1.0000 0.0000
vn -0.0000 1.0000 -0.0000
vn -0.0000 1.0000 -0.0000
vn -0.0000 1.0000 -0.0000
vn 0.0000 1.0000 0.0000
vn -1.0000 -0.0000 -0.0000
vn -1.0000 -0.0000 -0.0000
vn -1.0000 -0.0000 -0.0000
vn -1.0000 -0.0000 -0.0000
vn -1.0000 -0.0000 -0.0000
vn -1.0000 -0.0000 -0.0000
vn 0.0000 -1.0000 0.0000
vn 0.0000 -1.0000 -0.0000
vn 0.0000 -1.0000 -0.0000
vn 0.0000 -1.0000 -0.0000
vn 0.0000 -1.0000 -0.0000
vn 0.0000 -1.0000 0.0000
vn 1.0000 0.0000 0.0000
vn 1.0000 0.0000 0.0000
vn 1.0000 0.0000 0.0000
vn 1.0000 0.0000 0.0000
vn 1.0000 0.0000 0.0000
vn 1.0000 0.0000 0.0000
vn -0.0000 1.0000 0.0000
vn -0.0000 1.0000 0.0000
vn -0.0000 1.0000 -0.0000
vn -0.0000 1.0000 -0.0000
vn -0.0000 1.0000 0.0000
vn -0.0000 1.0000 0.0000
vn 0.0000 -1.0000 0.0000
vn 0.0000 -1.0000 0.0000
vn 0.0000 -1.0000 0.0000
vn 0.0000 -1.0000 0.0000
vn 0.0000 -1.0000 -0.0000
vn 0.0000 -1.0000 0.0000
vn -0.0000 1.0000 -0.0000
vn -0.0000 1.0000 0.0000
vn -0.0000 1.0000 -0.0000
vn -0.0000 1.0000 -0.0000
vn 0.0000 1.0000 0.0000
vn -0.0000 1.0000 -0.0000
vn 0.0000 -1.0000 -0.0000
vn 0.0000 -1.0000 0.0000
vn 0.0000 -1.0000 -0.0000
# 72 vertex normals

vt 0.4375 0.9375 0.0000
vt 0.5625 0.3594 0.0000
vt 0.0625 0.1719 0.0000
vt 0.9375 0.9375 0.0000
vt 0.5625 0.9375 0.0000
vt 0.9375 0.3594 0.0000
vt 0.5625 0.5625 0.0000
vt 0.9375 0.5625 0.0000
vt 0.0625 0.3594 0.0000
vt 0.4375 0.3594 0.0000
vt 0.5625 0.5000 0.0000
vt 0.9375 0.5000 0.0000
vt 0.9375 0.1719 0.0000
vt 0.5625 0.1719 0.0000
vt 0.9375 0.3125 0.0000
vt 0.5625 0.3125 0.0000
vt 0.4375 0.5625 0.0000
vt 0.0625 0.3125 0.0000
vt 0.0625 0.9375 0.0000
vt 0.0625 0.5000 0.0000
vt 0.0625 0.5625 0.0000
vt 0.4375 0.1719 0.0000
vt 0.4375 0.5000 0.0000
vt 0.4375 0.3125 0.0000
vt 0.3672 0.9375 0.0000
vt 0.1328 0.3125 0.0000
vt 0.1328 0.2305 0.0000
vt 0.3672 0.4180 0.0000
vt 0.1797 0.3125 0.0000
vt 0.3203 0.9375 0.0000
vt 0.3203 0.3945 0.0000
vt 0.1797 0.2070 0.0000
vt 0.3672 0.5000 0.0000
vt 0.3672 0.5625 0.0000
vt 0.3203 0.5000 0.0000
vt 0.3203 0.5625 0.0000
vt 0.3437 0.3945 0.0000
vt 0.1563 0.2070 0.0000
# 38 texture coords

g gamebox_2_untinted
usemtl Material__25
f 23/35/25 51/44/26 43/27/27 
f 43/27/28 39/11/29 23/35/30 
f 19/29/31 34/31/32 30/46/33 
f 30/46/34 50/40/35 19/29/36 
f 38/14/37 45/15/38 22/17/39 
f 22/17/40 16/18/41 38/14/42 
f 35/13/43 32/48/44 24/37/45 
f 37/20/46 31/47/47 27/41/48 
f 27/41/49 46/19/50 37/20/51 
f 49/36/52 18/28/53 35/13/54 
f 35/13/55 24/37/56 49/36/57 
f 15/25/58 42/26/59 47/24/60 
f 47/24/61 21/23/62 15/25/63 
f 52/45/64 33/30/65 46/19/66 
f 46/19/67 27/41/68 52/45/69 
f 40/22/70 20/21/71 17/12/72 
f 17/12/73 36/16/74 40/22/75 
f 41/34/76 26/39/77 28/42/78 
f 28/42/79 48/32/80 41/34/81 
f 44/33/82 29/43/83 25/38/84 
f 25/38/85 37/20/86 44/33/87 
f 35/13/88 48/32/89 28/42/90 
f 28/42/91 32/48/92 35/13/93 
f 37/20/94 25/38/95 31/47/96 
# 24 faces

