# 3ds Max Wavefront OBJ Exporter v0.97b - (c)2007 guruware
# File Created: 11.03.2017 15:06:42

mtllib HexW_MSH.mtl

#
# object HexW
#

v  0.5000 0.0313 -0.0000
v  0.2500 0.0313 -0.4330
v  -0.2500 0.0313 -0.4330
v  -0.5000 0.0313 0.0000
v  -0.2500 0.0313 0.4330
v  0.2500 0.0313 0.4330
v  0.5000 -0.0313 -0.0000
v  0.2500 -0.0313 -0.4330
v  -0.2500 -0.0313 -0.4330
v  -0.5000 -0.0313 0.0000
v  -0.2500 -0.0313 0.4330
v  0.2500 -0.0313 0.4330
v  0.5000 0.0313 -0.0000
v  0.2500 0.0313 -0.4330
v  -0.2500 0.0313 -0.4330
v  -0.5000 0.0313 0.0000
v  -0.2500 0.0313 0.4330
v  0.2500 0.0313 0.4330
v  0.5000 -0.0313 -0.0000
v  0.2500 -0.0313 -0.4330
v  -0.2500 -0.0313 -0.4330
v  -0.5000 -0.0313 0.0000
v  -0.2500 -0.0313 0.4330
v  0.2500 -0.0313 0.4330
# 24 vertices

vn -0.8660 0.0000 0.5000
vn -0.8660 0.0000 0.5000
vn -0.8660 0.0000 0.5000
vn -0.8660 0.0000 0.5000
vn -0.8660 0.0000 0.5000
vn -0.8660 0.0000 0.5000
vn 0.0000 0.0000 1.0000
vn 0.0000 0.0000 1.0000
vn 0.0000 0.0000 1.0000
vn 0.0000 0.0000 1.0000
vn 0.0000 0.0000 1.0000
vn 0.0000 0.0000 1.0000
vn 0.8660 0.0000 0.5000
vn 0.8660 0.0000 0.5000
vn 0.8660 0.0000 0.5000
vn 0.8660 0.0000 0.5000
vn 0.8660 0.0000 0.5000
vn 0.8660 0.0000 0.5000
vn 0.8660 0.0000 -0.5000
vn 0.8660 0.0000 -0.5000
vn 0.8660 0.0000 -0.5000
vn 0.8660 0.0000 -0.5000
vn 0.8660 0.0000 -0.5000
vn 0.8660 0.0000 -0.5000
vn -0.0000 0.0000 -1.0000
vn -0.0000 0.0000 -1.0000
vn -0.0000 0.0000 -1.0000
vn -0.0000 0.0000 -1.0000
vn -0.0000 0.0000 -1.0000
vn -0.0000 0.0000 -1.0000
vn -0.8660 0.0000 -0.5000
vn -0.8660 0.0000 -0.5000
vn -0.8660 0.0000 -0.5000
vn -0.8660 0.0000 -0.5000
vn -0.8660 0.0000 -0.5000
vn -0.8660 0.0000 -0.5000
# 36 vertex normals

vt 0.5272 0.0875 0.0000
vt 0.3756 0.0875 0.0000
vt 0.3756 0.0375 0.0000
vt 0.5272 0.0375 0.0000
vt 0.6720 0.0875 0.0000
vt 0.6720 0.0375 0.0000
vt 0.8235 0.0875 0.0000
vt 0.8235 0.0375 0.0000
vt 0.0000 0.0875 0.0000
vt 0.0000 0.0375 0.0000
vt 0.1991 0.0875 0.0000
vt 0.1991 0.0375 0.0000
vt 1.0000 0.0875 0.0000
vt 1.0000 0.0375 0.0000
# 14 texture coords

g HexW
usemtl Material__2
f 10/3/1 23/4/2 5/1/3 
f 5/1/4 16/2/5 10/3/6 
f 11/4/7 24/6/8 6/5/9 
f 6/5/10 17/1/11 11/4/12 
f 12/6/13 19/8/14 1/7/15 
f 1/7/16 18/5/17 12/6/18 
f 7/8/19 20/14/20 2/13/21 
f 2/13/22 13/7/23 7/8/24 
f 8/10/25 21/12/26 3/11/27 
f 3/11/28 14/9/29 8/10/30 
f 9/12/31 22/3/32 4/2/33 
f 4/2/34 15/11/35 9/12/36 
# 12 faces

#
# object HexW_faces
#

v  0.5000 0.0313 -0.0000
v  0.2500 0.0313 -0.4330
v  -0.2500 0.0313 -0.4330
v  -0.5000 0.0313 0.0000
v  -0.2500 0.0313 0.4330
v  0.2500 0.0313 0.4330
v  0.5000 -0.0313 -0.0000
v  0.2500 -0.0313 -0.4330
v  -0.2500 -0.0313 -0.4330
v  -0.5000 -0.0313 0.0000
v  -0.2500 -0.0313 0.4330
v  0.2500 -0.0313 0.4330
# 12 vertices

vn 0.0000 1.0000 -0.0000
vn 0.0000 1.0000 -0.0000
vn 0.0000 1.0000 -0.0000
vn 0.0000 1.0000 -0.0000
vn 0.0000 1.0000 -0.0000
vn 0.0000 1.0000 -0.0000
vn 0.0000 1.0000 -0.0000
vn 0.0000 1.0000 -0.0000
vn 0.0000 1.0000 -0.0000
vn 0.0000 1.0000 -0.0000
vn 0.0000 1.0000 -0.0000
vn 0.0000 1.0000 -0.0000
vn 0.0000 -1.0000 -0.0000
vn 0.0000 -1.0000 -0.0000
vn 0.0000 -1.0000 -0.0000
vn 0.0000 -1.0000 -0.0000
vn 0.0000 -1.0000 -0.0000
vn 0.0000 -1.0000 -0.0000
vn 0.0000 -1.0000 -0.0000
vn 0.0000 -1.0000 -0.0000
vn 0.0000 -1.0000 -0.0000
vn 0.0000 -1.0000 -0.0000
vn 0.0000 -1.0000 -0.0000
vn 0.0000 -1.0000 -0.0000
# 24 vertex normals

vt 0.4375 0.5022 0.0000
vt 0.3438 0.8270 0.0000
vt 0.1563 0.8270 0.0000
vt 0.0625 0.5022 0.0000
vt 0.1563 0.1775 0.0000
vt 0.3438 0.1775 0.0000
vt 0.5625 0.5022 0.0000
vt 0.6563 0.8270 0.0000
vt 0.8438 0.8270 0.0000
vt 0.9375 0.5022 0.0000
vt 0.8438 0.1775 0.0000
vt 0.6562 0.1775 0.0000
# 12 texture coords

g HexW_faces
usemtl Material__2
f 30/20/37 25/15/38 26/16/39 
f 30/20/40 26/16/41 27/17/42 
f 30/20/43 27/17/44 28/18/45 
f 30/20/46 28/18/47 29/19/48 
f 32/22/49 31/21/50 36/26/51 
f 36/26/52 35/25/53 34/24/54 
f 36/26/55 34/24/56 33/23/57 
f 32/22/58 36/26/59 33/23/60 
# 8 faces

