# 3ds Max Wavefront OBJ Exporter v0.97b - (c)2007 guruware
# File Created: 11.03.2017 15:06:41

mtllib Tomb_MSH.mtl

#
# object Tomb
#

v  0.2948 0.0313 -0.3045
v  0.2262 0.0313 -0.4062
v  0.1245 0.0313 -0.4748
v  -0.0000 0.0313 -0.5000
v  -0.1245 0.0313 -0.4748
v  -0.2262 0.0313 -0.4062
v  -0.2948 0.0313 -0.3045
v  -0.3200 0.0313 -0.1800
v  -0.3200 0.0313 0.5000
v  0.3200 0.0313 0.5000
v  0.3200 0.0313 -0.1800
v  0.2948 -0.0312 -0.3045
v  0.2262 -0.0312 -0.4062
v  0.1245 -0.0312 -0.4748
v  -0.0000 -0.0313 -0.5000
v  -0.1245 -0.0312 -0.4748
v  -0.2262 -0.0312 -0.4062
v  -0.2948 -0.0312 -0.3045
v  -0.3200 -0.0312 -0.1800
v  -0.3200 -0.0313 0.5000
v  0.3200 -0.0313 0.5000
v  0.3200 -0.0312 -0.1800
v  -0.3200 0.0313 0.5000
v  0.3200 0.0313 0.5000
v  -0.3200 -0.0313 0.5000
v  0.3200 -0.0313 0.5000
# 26 vertices

vn -0.9950 0.0000 -0.0996
vn -1.0000 0.0000 -0.0000
vn -1.0000 0.0000 -0.0000
vn -1.0000 0.0000 -0.0000
vn -0.9950 0.0000 -0.0996
vn -0.9950 0.0000 -0.0996
vn 0.0000 0.0000 1.0000
vn 0.0000 0.0000 1.0000
vn 0.0000 0.0000 1.0000
vn 0.0000 0.0000 1.0000
vn 0.0000 0.0000 1.0000
vn 0.0000 0.0000 1.0000
vn 1.0000 0.0000 0.0000
vn 0.9950 0.0000 -0.0996
vn 0.9950 0.0000 -0.0996
vn 0.9950 0.0000 -0.0996
vn 1.0000 0.0000 0.0000
vn 1.0000 0.0000 0.0000
vn 0.7071 0.0000 -0.7071
vn 0.3862 -0.0000 -0.9224
vn 0.3862 0.0000 -0.9224
vn 0.3862 0.0000 -0.9224
vn 0.7071 0.0000 -0.7071
vn 0.7071 0.0000 -0.7071
vn 0.3862 -0.0000 -0.9224
vn -0.0000 -0.0000 -1.0000
vn -0.0000 0.0000 -1.0000
vn -0.0000 0.0000 -1.0000
vn 0.3862 0.0000 -0.9224
vn 0.3862 -0.0000 -0.9224
vn -0.0000 -0.0000 -1.0000
vn -0.3862 0.0000 -0.9224
vn -0.3862 0.0000 -0.9224
vn -0.3862 0.0000 -0.9224
vn -0.0000 0.0000 -1.0000
vn -0.0000 -0.0000 -1.0000
vn -0.3862 0.0000 -0.9224
vn -0.7071 0.0000 -0.7071
vn -0.7071 0.0000 -0.7071
vn -0.7071 0.0000 -0.7071
vn -0.3862 0.0000 -0.9224
vn -0.3862 0.0000 -0.9224
vn -0.7071 0.0000 -0.7071
vn -0.9224 0.0000 -0.3862
vn -0.9224 0.0000 -0.3862
vn -0.9224 0.0000 -0.3862
vn -0.7071 0.0000 -0.7071
vn -0.7071 0.0000 -0.7071
vn 0.9224 0.0000 -0.3862
vn 0.7071 0.0000 -0.7071
vn 0.7071 0.0000 -0.7071
vn 0.7071 0.0000 -0.7071
vn 0.9224 0.0000 -0.3862
vn 0.9224 0.0000 -0.3862
vn 0.9950 0.0000 -0.0996
vn 0.9224 0.0000 -0.3862
vn 0.9224 0.0000 -0.3862
vn 0.9224 0.0000 -0.3862
vn 0.9950 0.0000 -0.0996
vn 0.9950 0.0000 -0.0996
vn -0.9224 0.0000 -0.3862
vn -0.9950 0.0000 -0.0996
vn -0.9950 0.0000 -0.0996
vn -0.9950 0.0000 -0.0996
vn -0.9224 0.0000 -0.3862
vn -0.9224 0.0000 -0.3862
# 66 vertex normals

vt 0.6232 0.0875 0.0000
vt 0.4075 0.0875 0.0000
vt 0.4075 0.0375 0.0000
vt 0.6232 0.0375 0.0000
vt 0.7843 0.0875 0.0000
vt 0.7843 0.0375 0.0000
vt -0.0000 0.0875 0.0000
vt -0.0000 0.0375 0.0000
vt 0.1543 0.0875 0.0000
vt 0.1057 0.0875 0.0000
vt 0.1057 0.0375 0.0000
vt 0.1543 0.0375 0.0000
vt 0.2038 0.0875 0.0000
vt 0.2038 0.0375 0.0000
vt 0.2532 0.0875 0.0000
vt 0.2532 0.0375 0.0000
vt 0.3018 0.0875 0.0000
vt 0.3018 0.0375 0.0000
vt 0.3521 0.0875 0.0000
vt 0.3521 0.0375 0.0000
vt 0.0554 0.0875 0.0000
vt 0.0554 0.0375 0.0000
vt 1.0000 0.0875 0.0000
vt 1.0000 0.0375 0.0000
# 24 texture coords

g Tomb
usemtl Material__2
f 19/3/1 25/4/2 9/1/3 
f 9/1/4 8/2/5 19/3/6 
f 20/4/7 26/6/8 10/5/9 
f 10/5/10 23/1/11 20/4/12 
f 21/6/13 22/24/14 11/23/15 
f 11/23/16 24/5/17 21/6/18 
f 13/11/19 14/12/20 3/9/21 
f 3/9/22 2/10/23 13/11/24 
f 14/12/25 15/14/26 4/13/27 
f 4/13/28 3/9/29 14/12/30 
f 15/14/31 16/16/32 5/15/33 
f 5/15/34 4/13/35 15/14/36 
f 16/16/37 17/18/38 6/17/39 
f 6/17/40 5/15/41 16/16/42 
f 17/18/43 18/20/44 7/19/45 
f 7/19/46 6/17/47 17/18/48 
f 12/22/49 13/11/50 2/10/51 
f 2/10/52 1/21/53 12/22/54 
f 22/8/55 12/22/56 1/21/57 
f 1/21/58 11/7/59 22/8/60 
f 18/20/61 19/3/62 8/2/63 
f 8/2/64 7/19/65 18/20/66 
# 22 faces

#
# object Tomb_faces
#

v  0.2948 0.0313 -0.3045
v  0.2262 0.0313 -0.4062
v  0.1245 0.0313 -0.4748
v  -0.0000 0.0313 -0.5000
v  -0.1245 0.0313 -0.4748
v  -0.2262 0.0313 -0.4062
v  -0.2948 0.0313 -0.3045
v  -0.3200 0.0313 -0.1800
v  -0.3200 0.0313 0.5000
v  0.3200 0.0313 0.5000
v  0.3200 0.0313 -0.1800
v  0.2948 -0.0312 -0.3045
v  0.2262 -0.0312 -0.4062
v  0.1245 -0.0312 -0.4748
v  -0.0000 -0.0313 -0.5000
v  -0.1245 -0.0312 -0.4748
v  -0.2262 -0.0312 -0.4062
v  -0.2948 -0.0312 -0.3045
v  -0.3200 -0.0312 -0.1800
v  -0.3200 -0.0313 0.5000
v  0.3200 -0.0313 0.5000
v  0.3200 -0.0312 -0.1800
# 22 vertices

vn 0.0000 1.0000 -0.0000
vn 0.0000 1.0000 -0.0000
vn -0.0000 1.0000 -0.0000
vn 0.0000 1.0000 -0.0000
vn -0.0000 1.0000 -0.0000
vn -0.0000 1.0000 -0.0000
vn 0.0000 1.0000 -0.0000
vn -0.0000 1.0000 -0.0000
vn 0.0000 1.0000 -0.0000
vn 0.0000 1.0000 -0.0000
vn 0.0000 1.0000 -0.0000
vn -0.0000 1.0000 -0.0000
vn 0.0000 1.0000 0.0000
vn 0.0000 1.0000 0.0000
vn 0.0000 1.0000 0.0000
vn 0.0000 1.0000 0.0000
vn 0.0000 1.0000 0.0000
vn 0.0000 1.0000 0.0000
vn -0.0000 1.0000 -0.0000
vn 0.0000 1.0000 0.0000
vn 0.0000 1.0000 0.0000
vn -0.0000 1.0000 -0.0000
vn 0.0000 1.0000 0.0000
vn -0.0000 1.0000 -0.0000
vn 0.0000 1.0000 -0.0000
vn -0.0000 1.0000 -0.0000
vn -0.0000 1.0000 -0.0000
vn -0.0000 -1.0000 0.0000
vn 0.0000 -1.0000 0.0000
vn 0.0000 -1.0000 0.0000
vn 0.0000 -1.0000 -0.0000
vn 0.0000 -1.0000 -0.0000
vn 0.0000 -1.0000 -0.0000
vn 0.0000 -1.0000 -0.0000
vn 0.0000 -1.0000 -0.0000
vn 0.0000 -1.0000 -0.0000
vn 0.0000 -1.0000 -0.0000
vn 0.0000 -1.0000 -0.0000
vn 0.0000 -1.0000 0.0000
vn 0.0000 -1.0000 0.0000
vn 0.0000 -1.0000 -0.0000
vn 0.0000 -1.0000 0.0000
vn 0.0000 -1.0000 0.0000
vn 0.0000 -1.0000 0.0000
vn 0.0000 -1.0000 0.0000
vn 0.0000 -1.0000 0.0000
vn 0.0000 -1.0000 0.0000
vn 0.0000 -1.0000 0.0000
vn 0.0000 -1.0000 0.0000
vn 0.0000 -1.0000 0.0000
vn -0.0000 -1.0000 0.0000
vn -0.0000 -1.0000 0.0000
vn 0.0000 -1.0000 0.0000
vn -0.0000 -1.0000 0.0000
# 54 vertex normals

vt 0.3606 0.7306 0.0000
vt 0.3348 0.8069 0.0000
vt 0.2967 0.8584 0.0000
vt 0.2500 0.8772 0.0000
vt 0.2033 0.8584 0.0000
vt 0.1652 0.8069 0.0000
vt 0.1394 0.7306 0.0000
vt 0.1300 0.6372 0.0000
vt 0.1300 0.1272 0.0000
vt 0.3700 0.1272 0.0000
vt 0.3700 0.6372 0.0000
vt 0.6394 0.7306 0.0000
vt 0.6652 0.8069 0.0000
vt 0.7033 0.8584 0.0000
vt 0.7500 0.8772 0.0000
vt 0.7967 0.8584 0.0000
vt 0.8348 0.8069 0.0000
vt 0.8606 0.7306 0.0000
vt 0.8700 0.6372 0.0000
vt 0.8700 0.1272 0.0000
vt 0.6300 0.1272 0.0000
vt 0.6300 0.6372 0.0000
# 22 texture coords

g Tomb_faces
usemtl Material__2
f 28/26/67 29/27/68 30/28/69 
f 28/26/70 30/28/71 31/29/72 
f 28/26/73 31/29/74 32/30/75 
f 28/26/76 32/30/77 33/31/78 
f 34/32/79 35/33/80 36/34/81 
f 34/32/82 36/34/83 37/35/84 
f 33/31/85 34/32/86 37/35/87 
f 33/31/88 37/35/89 27/25/90 
f 28/26/91 33/31/92 27/25/93 
f 41/39/94 40/38/95 39/37/96 
f 47/45/97 46/44/98 45/43/99 
f 48/46/100 47/45/101 45/43/102 
f 48/46/103 45/43/104 44/42/105 
f 38/36/106 48/46/107 44/42/108 
f 39/37/109 38/36/110 44/42/111 
f 39/37/112 44/42/113 43/41/114 
f 39/37/115 43/41/116 42/40/117 
f 41/39/118 39/37/119 42/40/120 
# 18 faces

