# 3ds Max Wavefront OBJ Exporter v0.97b - (c)2007 guruware
# File Created: 11.03.2017 15:06:43

mtllib Triangle_MSH.mtl

#
# object Triangle
#

v  -0.0000 0.0313 -0.5774
v  -0.5000 0.0313 0.2887
v  0.5000 0.0313 0.2887
v  -0.0000 -0.0313 -0.5774
v  -0.5000 -0.0313 0.2887
v  0.5000 -0.0313 0.2887
v  -0.0000 0.0313 -0.5774
v  -0.5000 0.0313 0.2887
v  0.5000 0.0313 0.2887
v  -0.0000 -0.0313 -0.5774
v  -0.5000 -0.0313 0.2887
v  0.5000 -0.0313 0.2887
# 12 vertices

vn -0.8660 0.0000 -0.5000
vn -0.8660 0.0000 -0.5000
vn -0.8660 0.0000 -0.5000
vn -0.8660 0.0000 -0.5000
vn -0.8660 0.0000 -0.5000
vn -0.8660 0.0000 -0.5000
vn 0.0000 0.0000 1.0000
vn 0.0000 0.0000 1.0000
vn 0.0000 0.0000 1.0000
vn 0.0000 0.0000 1.0000
vn 0.0000 0.0000 1.0000
vn 0.0000 0.0000 1.0000
vn 0.8660 0.0000 -0.5000
vn 0.8660 0.0000 -0.5000
vn 0.8660 0.0000 -0.5000
vn 0.8660 0.0000 -0.5000
vn 0.8660 0.0000 -0.5000
vn 0.8660 0.0000 -0.5000
# 18 vertex normals

vt 0.5265 0.0875 0.0000
vt 0.1755 0.0875 0.0000
vt 0.1755 0.0375 0.0000
vt 0.5265 0.0375 0.0000
vt 0.8245 0.0875 0.0000
vt 0.8245 0.0375 0.0000
# 6 texture coords

g Triangle
usemtl Material__2
f 4/3/1 11/4/2 2/1/3 
f 2/1/4 7/2/5 4/3/6 
f 5/4/7 12/6/8 3/5/9 
f 3/5/10 8/1/11 5/4/12 
f 6/6/13 10/3/14 1/2/15 
f 1/2/16 9/5/17 6/6/18 
# 6 faces

#
# object Triangle_faces
#

v  -0.0000 0.0313 -0.5774
v  -0.5000 0.0313 0.2887
v  0.5000 0.0313 0.2887
v  -0.0000 -0.0313 -0.5774
v  -0.5000 -0.0313 0.2887
v  0.5000 -0.0313 0.2887
# 6 vertices

vn 0.0000 1.0000 -0.0000
vn 0.0000 1.0000 -0.0000
vn 0.0000 1.0000 -0.0000
vn 0.0000 -1.0000 -0.0000
vn 0.0000 -1.0000 -0.0000
vn 0.0000 -1.0000 -0.0000
# 6 vertex normals

vt 0.2500 0.9353 0.0000
vt 0.0625 0.2857 0.0000
vt 0.4375 0.2857 0.0000
vt 0.7500 0.9353 0.0000
vt 0.9375 0.2857 0.0000
vt 0.5625 0.2857 0.0000
# 6 texture coords

g Triangle_faces
usemtl Material__2
f 13/7/19 14/8/20 15/9/21 
f 18/12/22 17/11/23 16/10/24 
# 2 faces

