# 3ds Max Wavefront OBJ Exporter v0.97b - (c)2007 guruware
# File Created: 11.03.2017 13:54:41

mtllib CapsuleH_COL.mtl

#
# object CapsuleH_COL
#

v  0.3286 0.0312 0.2473
v  0.4139 0.0312 0.1897
v  0.4925 0.0312 -0.0000
v  0.4714 0.0312 -0.1044
v  0.2234 0.0312 -0.2686
v  -0.2234 0.0312 -0.2686
v  -0.3286 0.0312 -0.2473
v  -0.4139 0.0312 -0.1897
v  -0.2234 0.0312 0.2686
v  0.2234 -0.0312 0.2686
v  0.3286 -0.0312 0.2473
v  0.4139 -0.0312 0.1897
v  0.4714 -0.0312 -0.1044
v  0.2234 -0.0312 -0.2686
v  -0.3286 -0.0312 -0.2473
v  -0.4714 -0.0312 -0.1044
v  -0.2234 -0.0312 0.2686
v  0.2234 0.0312 0.2686
v  0.4714 0.0312 0.1044
v  0.4139 0.0312 -0.1897
v  0.3286 0.0312 -0.2473
v  -0.4714 0.0312 -0.1044
v  -0.4925 0.0312 -0.0000
v  -0.4714 0.0312 0.1044
v  -0.4139 0.0312 0.1897
v  -0.3286 0.0312 0.2473
v  0.4714 -0.0312 0.1044
v  0.4925 -0.0312 -0.0000
v  0.4139 -0.0312 -0.1897
v  0.3286 -0.0312 -0.2473
v  -0.2234 -0.0312 -0.2686
v  -0.4139 -0.0312 -0.1897
v  -0.4925 -0.0312 -0.0000
v  -0.4714 -0.0312 0.1044
v  -0.4139 -0.0312 0.1897
v  -0.3286 -0.0312 0.2473
# 36 vertices

vn 0.0000 1.0000 -0.0000
vn 0.0000 1.0000 -0.0000
vn 0.0000 1.0000 -0.0000
vn 0.0000 1.0000 -0.0000
vn 0.0000 1.0000 -0.0000
vn 0.0000 1.0000 -0.0000
vn 0.0000 1.0000 -0.0000
vn 0.0000 1.0000 -0.0000
vn 0.0000 1.0000 -0.0000
vn 0.0000 1.0000 -0.0000
vn 0.0000 1.0000 -0.0000
vn 0.0000 1.0000 -0.0000
vn 0.0000 1.0000 -0.0000
vn 0.0000 1.0000 -0.0000
vn 0.0000 1.0000 -0.0000
vn 0.0000 1.0000 -0.0000
vn 0.0000 1.0000 -0.0000
vn 0.0000 1.0000 -0.0000
vn 0.0000 1.0000 -0.0000
vn 0.0000 1.0000 -0.0000
vn 0.0000 1.0000 -0.0000
vn 0.0000 1.0000 -0.0000
vn 0.0000 1.0000 -0.0000
vn 0.0000 1.0000 -0.0000
vn 0.0000 1.0000 -0.0000
vn 0.0000 1.0000 -0.0000
vn 0.0000 1.0000 -0.0000
vn 0.0000 1.0000 -0.0000
vn 0.0000 1.0000 -0.0000
vn 0.0000 1.0000 -0.0000
vn 0.0000 1.0000 -0.0000
vn 0.0000 1.0000 -0.0000
vn 0.0000 1.0000 -0.0000
vn 0.0000 1.0000 -0.0000
vn 0.0000 1.0000 -0.0000
vn 0.0000 1.0000 -0.0000
vn 0.0000 1.0000 -0.0000
vn 0.0000 1.0000 -0.0000
vn 0.0000 1.0000 -0.0000
vn 0.0000 1.0000 -0.0000
vn 0.0000 1.0000 -0.0000
vn 0.0000 1.0000 -0.0000
vn 0.0000 1.0000 -0.0000
vn 0.0000 1.0000 -0.0000
vn 0.0000 1.0000 -0.0000
vn 0.0000 1.0000 -0.0000
vn 0.0000 1.0000 -0.0000
vn 0.0000 1.0000 -0.0000
vn 0.0000 -1.0000 -0.0000
vn 0.0000 -1.0000 -0.0000
vn 0.0000 -1.0000 -0.0000
vn 0.0000 -1.0000 -0.0000
vn 0.0000 -1.0000 -0.0000
vn 0.0000 -1.0000 -0.0000
vn 0.0000 -1.0000 -0.0000
vn 0.0000 -1.0000 -0.0000
vn 0.0000 -1.0000 -0.0000
vn 0.0000 -1.0000 -0.0000
vn 0.0000 -1.0000 -0.0000
vn 0.0000 -1.0000 -0.0000
vn 0.0000 -1.0000 -0.0000
vn 0.0000 -1.0000 -0.0000
vn 0.0000 -1.0000 -0.0000
vn 0.0000 -1.0000 -0.0000
vn 0.0000 -1.0000 -0.0000
vn 0.0000 -1.0000 -0.0000
vn 0.0000 -1.0000 -0.0000
vn 0.0000 -1.0000 -0.0000
vn 0.0000 -1.0000 -0.0000
vn 0.0000 -1.0000 -0.0000
vn 0.0000 -1.0000 -0.0000
vn 0.0000 -1.0000 -0.0000
vn 0.0000 -1.0000 -0.0000
vn 0.0000 -1.0000 -0.0000
vn 0.0000 -1.0000 -0.0000
vn 0.0000 -1.0000 -0.0000
vn 0.0000 -1.0000 -0.0000
vn 0.0000 -1.0000 -0.0000
vn 0.0000 -1.0000 -0.0000
vn 0.0000 -1.0000 -0.0000
vn 0.0000 -1.0000 -0.0000
vn 0.0000 -1.0000 -0.0000
vn 0.0000 -1.0000 -0.0000
vn 0.0000 -1.0000 -0.0000
vn 0.0000 -1.0000 -0.0000
vn 0.0000 -1.0000 -0.0000
vn 0.0000 -1.0000 -0.0000
vn 0.0000 -1.0000 -0.0000
vn 0.0000 -1.0000 -0.0000
vn 0.0000 -1.0000 -0.0000
vn 0.0000 -1.0000 -0.0000
vn 0.0000 -1.0000 -0.0000
vn 0.0000 -1.0000 -0.0000
vn 0.0000 -1.0000 -0.0000
vn 0.0000 -1.0000 -0.0000
vn 0.0000 -1.0000 -0.0000
vn 0.9224 0.0000 0.3861
vn 1.0000 -0.0000 -0.0000
vn 1.0000 0.0000 -0.0000
vn 1.0000 0.0000 -0.0000
vn 0.9224 0.0000 0.3861
vn 0.9224 0.0000 0.3861
vn 1.0000 -0.0000 -0.0000
vn 0.9224 -0.0000 -0.3861
vn 0.9224 -0.0000 -0.3861
vn 0.9224 -0.0000 -0.3861
vn 1.0000 0.0000 -0.0000
vn 1.0000 -0.0000 -0.0000
vn -0.7071 0.0000 -0.7071
vn -0.9224 0.0000 -0.3861
vn -0.9224 0.0000 -0.3861
vn -0.9224 0.0000 -0.3861
vn -0.7071 0.0000 -0.7071
vn -0.7071 0.0000 -0.7071
vn -0.9224 0.0000 -0.3861
vn -1.0000 0.0000 -0.0000
vn -1.0000 0.0000 -0.0000
vn -1.0000 0.0000 -0.0000
vn -0.9224 0.0000 -0.3861
vn -0.9224 0.0000 -0.3861
vn -1.0000 0.0000 -0.0000
vn -0.9224 0.0000 0.3861
vn -0.9224 0.0000 0.3861
vn -0.9224 0.0000 0.3861
vn -1.0000 0.0000 -0.0000
vn -1.0000 0.0000 -0.0000
vn -0.9224 0.0000 0.3861
vn -0.7071 0.0000 0.7071
vn -0.7071 0.0000 0.7071
vn -0.7071 0.0000 0.7071
vn -0.9224 0.0000 0.3861
vn -0.9224 0.0000 0.3861
vn -0.3865 0.0000 -0.9223
vn -0.7071 0.0000 -0.7071
vn -0.7071 0.0000 -0.7071
vn -0.7071 0.0000 -0.7071
vn -0.3865 0.0000 -0.9223
vn -0.3865 0.0000 -0.9223
vn -0.7071 0.0000 0.7071
vn -0.3865 0.0000 0.9223
vn -0.3865 0.0000 0.9223
vn -0.3865 0.0000 0.9223
vn -0.7071 0.0000 0.7071
vn -0.7071 0.0000 0.7071
vn -0.3865 0.0000 0.9223
vn -0.0999 0.0000 0.9950
vn -0.0999 0.0000 0.9950
vn -0.0999 0.0000 0.9950
vn -0.3865 0.0000 0.9223
vn -0.3865 0.0000 0.9223
vn -0.0999 0.0000 -0.9950
vn -0.3865 0.0000 -0.9223
vn -0.3865 0.0000 -0.9223
vn -0.3865 0.0000 -0.9223
vn -0.0999 0.0000 -0.9950
vn -0.0999 0.0000 -0.9950
vn 0.0999 0.0000 -0.9950
vn -0.0999 0.0000 -0.9950
vn -0.0999 0.0000 -0.9950
vn -0.0999 0.0000 -0.9950
vn 0.0999 0.0000 -0.9950
vn 0.0999 0.0000 -0.9950
vn -0.0999 0.0000 0.9950
vn 0.0999 0.0000 0.9950
vn 0.0999 0.0000 0.9950
vn 0.0999 0.0000 0.9950
vn -0.0999 0.0000 0.9950
vn -0.0999 0.0000 0.9950
vn 0.0999 0.0000 0.9950
vn 0.3865 0.0000 0.9223
vn 0.3865 0.0000 0.9223
vn 0.3865 0.0000 0.9223
vn 0.0999 0.0000 0.9950
vn 0.0999 0.0000 0.9950
vn 0.3865 0.0000 0.9223
vn 0.7071 0.0000 0.7071
vn 0.7071 0.0000 0.7071
vn 0.7071 0.0000 0.7071
vn 0.3865 0.0000 0.9223
vn 0.3865 0.0000 0.9223
vn 0.3865 0.0000 -0.9223
vn 0.0999 0.0000 -0.9950
vn 0.0999 0.0000 -0.9950
vn 0.0999 0.0000 -0.9950
vn 0.3865 0.0000 -0.9223
vn 0.3865 0.0000 -0.9223
vn 0.7071 0.0000 -0.7071
vn 0.3865 0.0000 -0.9223
vn 0.3865 0.0000 -0.9223
vn 0.3865 0.0000 -0.9223
vn 0.7071 -0.0000 -0.7071
vn 0.7071 0.0000 -0.7071
vn 0.9224 -0.0000 -0.3861
vn 0.7071 0.0000 -0.7071
vn 0.7071 -0.0000 -0.7071
vn 0.7071 -0.0000 -0.7071
vn 0.9224 -0.0000 -0.3861
vn 0.9224 -0.0000 -0.3861
vn 0.7071 0.0000 0.7071
vn 0.9224 0.0000 0.3861
vn 0.9224 0.0000 0.3861
vn 0.9224 0.0000 0.3861
vn 0.7071 0.0000 0.7071
vn 0.7071 0.0000 0.7071
# 204 vertex normals

vt 0.0928 0.6798 0.0000
vt 0.0706 0.6140 0.0000
vt 0.0625 0.5335 0.0000
vt 0.0706 0.4530 0.0000
vt 0.0928 0.3872 0.0000
vt 0.1257 0.3429 0.0000
vt 0.1659 0.3266 0.0000
vt 0.3341 0.3266 0.0000
vt 0.3743 0.3429 0.0000
vt 0.4072 0.3872 0.0000
vt 0.4294 0.4530 0.0000
vt 0.4375 0.5335 0.0000
vt 0.4294 0.6140 0.0000
vt 0.4072 0.6798 0.0000
vt 0.3743 0.7241 0.0000
vt 0.3341 0.7404 0.0000
vt 0.1659 0.7404 0.0000
vt 0.1257 0.7241 0.0000
vt 0.9240 0.0750 0.0000
vt 0.8902 0.0750 0.0000
vt 0.8902 0.0250 0.0000
vt 0.9240 0.0250 0.0000
vt -0.0421 0.0750 0.0000
vt -0.0421 0.0250 0.0000
vt 0.4421 0.0750 0.0000
vt 0.4090 0.0750 0.0000
vt 0.4090 0.0250 0.0000
vt 0.4421 0.0250 0.0000
vt 0.4760 0.0750 0.0000
vt 0.4760 0.0250 0.0000
vt 0.5098 0.0750 0.0000
vt 0.5098 0.0250 0.0000
vt 0.5425 0.0750 0.0000
vt 0.5425 0.0250 0.0000
vt 0.3749 0.0750 0.0000
vt 0.3749 0.0250 0.0000
vt 0.5756 0.0750 0.0000
vt 0.5756 0.0250 0.0000
vt 0.6105 0.0750 0.0000
vt 0.6105 0.0250 0.0000
vt 0.3379 0.0750 0.0000
vt 0.3379 0.0250 0.0000
vt 0.0621 0.0750 0.0000
vt 0.0621 0.0250 0.0000
vt 0.7895 0.0750 0.0000
vt 0.7895 0.0250 0.0000
vt 0.8244 0.0750 0.0000
vt 0.8244 0.0250 0.0000
vt 0.8575 0.0750 0.0000
vt 0.8575 0.0250 0.0000
vt 0.0251 0.0750 0.0000
vt 0.0251 0.0250 0.0000
vt -0.0090 0.0750 0.0000
vt -0.0090 0.0250 0.0000
vt 0.9579 0.0750 0.0000
vt 0.9579 0.0250 0.0000
vt 0.5625 0.5335 0.0000
vt 0.5706 0.6140 0.0000
vt 0.5928 0.6798 0.0000
vt 0.6257 0.7241 0.0000
vt 0.6659 0.7404 0.0000
vt 0.8341 0.7404 0.0000
vt 0.8743 0.7241 0.0000
vt 0.9072 0.6798 0.0000
vt 0.9294 0.6140 0.0000
vt 0.9375 0.5335 0.0000
vt 0.9294 0.4530 0.0000
vt 0.9072 0.3872 0.0000
vt 0.8743 0.3429 0.0000
vt 0.8341 0.3266 0.0000
vt 0.6659 0.3266 0.0000
vt 0.6257 0.3429 0.0000
vt 0.5928 0.3872 0.0000
vt 0.5706 0.4530 0.0000
# 74 texture coords

g CapsuleH_COL
usemtl wire_224086086
f 8/1/1 22/2/2 23/3/3 
f 8/1/4 23/3/5 24/4/6 
f 8/1/7 24/4/8 25/5/9 
f 19/11/10 3/12/11 4/13/12 
f 2/10/13 19/11/14 4/13/15 
f 2/10/16 4/13/17 20/14/18 
f 2/10/19 20/14/20 21/15/21 
f 2/10/22 21/15/23 5/16/24 
f 1/9/25 2/10/26 5/16/27 
f 18/8/28 1/9/29 5/16/30 
f 9/7/31 18/8/32 5/16/33 
f 9/7/34 5/16/35 6/17/36 
f 9/7/37 6/17/38 7/18/39 
f 26/6/40 9/7/41 7/18/42 
f 25/5/43 26/6/44 7/18/45 
f 8/1/46 25/5/47 7/18/48 
f 33/57/49 16/58/50 32/59/51 
f 13/65/52 28/66/53 27/67/54 
f 13/65/55 27/67/56 12/68/57 
f 29/64/58 13/65/59 12/68/60 
f 30/63/61 29/64/62 12/68/63 
f 14/62/64 30/63/65 12/68/66 
f 14/62/67 12/68/68 11/69/69 
f 14/62/70 11/69/71 10/70/72 
f 14/62/73 10/70/74 17/71/75 
f 31/61/76 14/62/77 17/71/78 
f 15/60/79 31/61/80 17/71/81 
f 15/60/82 17/71/83 36/72/84 
f 15/60/85 36/72/86 35/73/87 
f 32/59/88 15/60/89 35/73/90 
f 32/59/91 35/73/92 34/74/93 
f 33/57/94 32/59/95 34/74/96 
f 27/21/97 28/22/98 3/19/99 
f 3/19/100 19/20/101 27/21/102 
f 28/22/103 13/56/104 4/55/105 
f 4/55/106 3/19/107 28/22/108 
f 32/27/109 16/28/110 22/25/111 
f 22/25/112 8/26/113 32/27/114 
f 16/28/115 33/30/116 23/29/117 
f 23/29/118 22/25/119 16/28/120 
f 33/30/121 34/32/122 24/31/123 
f 24/31/124 23/29/125 33/30/126 
f 34/32/127 35/34/128 25/33/129 
f 25/33/130 24/31/131 34/32/132 
f 15/36/133 32/27/134 8/26/135 
f 8/26/136 7/35/137 15/36/138 
f 35/34/139 36/38/140 26/37/141 
f 26/37/142 25/33/143 35/34/144 
f 36/38/145 17/40/146 9/39/147 
f 9/39/148 26/37/149 36/38/150 
f 31/42/151 15/36/152 7/35/153 
f 7/35/154 6/41/155 31/42/156 
f 14/44/157 31/42/158 6/41/159 
f 6/41/160 5/43/161 14/44/162 
f 17/40/163 10/46/164 18/45/165 
f 18/45/166 9/39/167 17/40/168 
f 10/46/169 11/48/170 1/47/171 
f 1/47/172 18/45/173 10/46/174 
f 11/48/175 12/50/176 2/49/177 
f 2/49/178 1/47/179 11/48/180 
f 30/52/181 14/44/182 5/43/183 
f 5/43/184 21/51/185 30/52/186 
f 29/54/187 30/52/188 21/51/189 
f 21/51/190 20/53/191 29/54/192 
f 13/24/193 29/54/194 20/53/195 
f 20/53/196 4/23/197 13/24/198 
f 12/50/199 27/21/200 19/20/201 
f 19/20/202 2/49/203 12/50/204 
# 68 faces

