# 3ds Max Wavefront OBJ Exporter v0.97b - (c)2007 guruware
# File Created: 11.03.2017 13:54:50

mtllib Circle_COL.mtl

#
# object Circle_COL
#

v  0.4552 -0.0312 -0.1886
v  -0.0000 -0.0312 -0.4927
v  -0.0961 -0.0312 -0.4833
v  -0.1886 -0.0312 -0.4552
v  -0.2737 -0.0312 -0.4097
v  -0.4833 -0.0312 0.0961
v  -0.3484 -0.0312 0.3484
v  -0.2737 -0.0312 0.4097
v  -0.1886 -0.0312 0.4552
v  -0.0961 -0.0312 0.4833
v  0.0961 -0.0312 0.4833
v  0.1886 -0.0312 0.4552
v  0.4927 0.0312 0.0000
v  0.4833 0.0312 -0.0961
v  0.3484 0.0312 -0.3484
v  0.1886 0.0312 -0.4552
v  0.0961 0.0312 -0.4833
v  -0.0000 0.0312 -0.4927
v  -0.1886 0.0312 -0.4552
v  -0.2737 0.0312 -0.4097
v  -0.3484 0.0312 -0.3484
v  -0.4927 0.0312 0.0000
v  -0.4552 0.0312 0.1886
v  -0.3484 0.0312 0.3484
v  -0.2737 0.0312 0.4097
v  -0.1886 0.0312 0.4552
v  -0.0961 0.0312 0.4833
v  0.0000 0.0312 0.4927
v  0.3484 0.0312 0.3484
v  0.4552 0.0312 0.1886
v  0.4927 -0.0312 0.0000
v  0.4833 -0.0312 -0.0961
v  0.4097 -0.0312 -0.2737
v  0.3484 -0.0312 -0.3484
v  0.2737 -0.0312 -0.4097
v  0.1886 -0.0312 -0.4552
v  0.0961 -0.0312 -0.4833
v  -0.3484 -0.0312 -0.3484
v  -0.4097 -0.0312 -0.2737
v  -0.4552 -0.0312 -0.1886
v  -0.4833 -0.0312 -0.0961
v  -0.4927 -0.0312 0.0000
v  -0.4552 -0.0312 0.1886
v  -0.4097 -0.0312 0.2737
v  0.0000 -0.0312 0.4927
v  0.2737 -0.0312 0.4097
v  0.3484 -0.0312 0.3484
v  0.4097 -0.0312 0.2737
v  0.4552 -0.0312 0.1886
v  0.4833 -0.0312 0.0961
v  0.4552 0.0312 -0.1886
v  0.4097 0.0312 -0.2737
v  0.2737 0.0312 -0.4097
v  -0.0961 0.0312 -0.4833
v  -0.4097 0.0312 -0.2737
v  -0.4552 0.0312 -0.1886
v  -0.4833 0.0312 -0.0961
v  -0.4833 0.0312 0.0961
v  -0.4097 0.0312 0.2737
v  0.0961 0.0312 0.4833
v  0.1886 0.0312 0.4552
v  0.2737 0.0312 0.4097
v  0.4097 0.0312 0.2737
v  0.4833 0.0312 0.0961
# 64 vertices

vn 1.0000 0.0000 -0.0000
vn 0.9808 0.0000 -0.1951
vn 0.9808 0.0000 -0.1951
vn 0.9808 0.0000 -0.1951
vn 1.0000 0.0000 -0.0000
vn 1.0000 0.0000 -0.0000
vn 0.9808 0.0000 -0.1951
vn 0.9239 0.0000 -0.3827
vn 0.9239 0.0000 -0.3827
vn 0.9239 0.0000 -0.3827
vn 0.9808 0.0000 -0.1951
vn 0.9808 0.0000 -0.1951
vn 0.9239 0.0000 -0.3827
vn 0.8315 0.0000 -0.5556
vn 0.8315 0.0000 -0.5556
vn 0.8315 0.0000 -0.5556
vn 0.9239 0.0000 -0.3827
vn 0.9239 0.0000 -0.3827
vn 0.8315 0.0000 -0.5556
vn 0.7071 0.0000 -0.7071
vn 0.7071 0.0000 -0.7071
vn 0.7071 0.0000 -0.7071
vn 0.8315 0.0000 -0.5556
vn 0.8315 0.0000 -0.5556
vn 0.7071 0.0000 -0.7071
vn 0.5556 0.0000 -0.8315
vn 0.5556 0.0000 -0.8315
vn 0.5556 0.0000 -0.8315
vn 0.7071 0.0000 -0.7071
vn 0.7071 0.0000 -0.7071
vn 0.5556 0.0000 -0.8315
vn 0.3827 0.0000 -0.9239
vn 0.3827 0.0000 -0.9239
vn 0.3827 0.0000 -0.9239
vn 0.5556 0.0000 -0.8315
vn 0.5556 0.0000 -0.8315
vn 0.3827 0.0000 -0.9239
vn 0.1951 0.0000 -0.9808
vn 0.1951 0.0000 -0.9808
vn 0.1951 0.0000 -0.9808
vn 0.3827 0.0000 -0.9239
vn 0.3827 0.0000 -0.9239
vn 0.1951 0.0000 -0.9808
vn 0.0000 0.0000 -1.0000
vn 0.0000 0.0000 -1.0000
vn 0.0000 0.0000 -1.0000
vn 0.1951 0.0000 -0.9808
vn 0.1951 0.0000 -0.9808
vn 0.0000 0.0000 -1.0000
vn -0.1951 0.0000 -0.9808
vn -0.1951 0.0000 -0.9808
vn -0.1951 0.0000 -0.9808
vn 0.0000 0.0000 -1.0000
vn 0.0000 0.0000 -1.0000
vn -0.1951 0.0000 -0.9808
vn -0.3827 0.0000 -0.9239
vn -0.3827 0.0000 -0.9239
vn -0.3827 0.0000 -0.9239
vn -0.1951 0.0000 -0.9808
vn -0.1951 0.0000 -0.9808
vn -0.3827 0.0000 -0.9239
vn -0.5556 0.0000 -0.8315
vn -0.5556 0.0000 -0.8315
vn -0.5556 0.0000 -0.8315
vn -0.3827 0.0000 -0.9239
vn -0.3827 0.0000 -0.9239
vn -0.5556 0.0000 -0.8315
vn -0.7071 0.0000 -0.7071
vn -0.7071 0.0000 -0.7071
vn -0.7071 0.0000 -0.7071
vn -0.5556 0.0000 -0.8315
vn -0.5556 0.0000 -0.8315
vn -0.7071 0.0000 -0.7071
vn -0.8315 0.0000 -0.5556
vn -0.8315 0.0000 -0.5556
vn -0.8315 0.0000 -0.5556
vn -0.7071 0.0000 -0.7071
vn -0.7071 0.0000 -0.7071
vn -0.8315 0.0000 -0.5556
vn -0.9239 -0.0000 -0.3827
vn -0.9239 0.0000 -0.3827
vn -0.9239 0.0000 -0.3827
vn -0.8315 0.0000 -0.5556
vn -0.8315 0.0000 -0.5556
vn -0.9239 -0.0000 -0.3827
vn -0.9808 -0.0000 -0.1951
vn -0.9808 -0.0000 -0.1951
vn -0.9808 -0.0000 -0.1951
vn -0.9239 0.0000 -0.3827
vn -0.9239 -0.0000 -0.3827
vn -0.9808 -0.0000 -0.1951
vn -1.0000 0.0000 -0.0000
vn -1.0000 -0.0000 -0.0000
vn -1.0000 -0.0000 -0.0000
vn -0.9808 -0.0000 -0.1951
vn -0.9808 -0.0000 -0.1951
vn -1.0000 0.0000 -0.0000
vn -0.9808 0.0000 0.1951
vn -0.9808 0.0000 0.1951
vn -0.9808 0.0000 0.1951
vn -1.0000 -0.0000 -0.0000
vn -1.0000 0.0000 -0.0000
vn -0.9808 0.0000 0.1951
vn -0.9239 0.0000 0.3827
vn -0.9239 0.0000 0.3827
vn -0.9239 0.0000 0.3827
vn -0.9808 0.0000 0.1951
vn -0.9808 0.0000 0.1951
vn -0.9239 0.0000 0.3827
vn -0.8315 0.0000 0.5556
vn -0.8315 0.0000 0.5556
vn -0.8315 0.0000 0.5556
vn -0.9239 0.0000 0.3827
vn -0.9239 0.0000 0.3827
vn -0.8315 0.0000 0.5556
vn -0.7071 0.0000 0.7071
vn -0.7071 0.0000 0.7071
vn -0.7071 0.0000 0.7071
vn -0.8315 0.0000 0.5556
vn -0.8315 0.0000 0.5556
vn -0.7071 0.0000 0.7071
vn -0.5556 0.0000 0.8315
vn -0.5556 0.0000 0.8315
vn -0.5556 0.0000 0.8315
vn -0.7071 0.0000 0.7071
vn -0.7071 0.0000 0.7071
vn -0.5556 0.0000 0.8315
vn -0.3827 0.0000 0.9239
vn -0.3827 0.0000 0.9239
vn -0.3827 0.0000 0.9239
vn -0.5556 0.0000 0.8315
vn -0.5556 0.0000 0.8315
vn -0.3827 0.0000 0.9239
vn -0.1951 0.0000 0.9808
vn -0.1951 0.0000 0.9808
vn -0.1951 0.0000 0.9808
vn -0.3827 0.0000 0.9239
vn -0.3827 0.0000 0.9239
vn -0.1951 0.0000 0.9808
vn 0.0000 0.0000 1.0000
vn 0.0000 0.0000 1.0000
vn 0.0000 0.0000 1.0000
vn -0.1951 0.0000 0.9808
vn -0.1951 0.0000 0.9808
vn 0.0000 0.0000 1.0000
vn 0.1951 0.0000 0.9808
vn 0.1951 0.0000 0.9808
vn 0.1951 0.0000 0.9808
vn 0.0000 0.0000 1.0000
vn 0.0000 0.0000 1.0000
vn 0.1951 0.0000 0.9808
vn 0.3827 0.0000 0.9239
vn 0.3827 0.0000 0.9239
vn 0.3827 0.0000 0.9239
vn 0.1951 0.0000 0.9808
vn 0.1951 0.0000 0.9808
vn 0.3827 0.0000 0.9239
vn 0.5556 0.0000 0.8315
vn 0.5556 0.0000 0.8315
vn 0.5556 0.0000 0.8315
vn 0.3827 0.0000 0.9239
vn 0.3827 0.0000 0.9239
vn 0.5556 0.0000 0.8315
vn 0.7071 0.0000 0.7071
vn 0.7071 0.0000 0.7071
vn 0.7071 0.0000 0.7071
vn 0.5556 0.0000 0.8315
vn 0.5556 0.0000 0.8315
vn 0.7071 0.0000 0.7071
vn 0.8315 0.0000 0.5556
vn 0.8315 0.0000 0.5556
vn 0.8315 0.0000 0.5556
vn 0.7071 0.0000 0.7071
vn 0.7071 0.0000 0.7071
vn 0.8315 0.0000 0.5556
vn 0.9239 0.0000 0.3827
vn 0.9239 0.0000 0.3827
vn 0.9239 0.0000 0.3827
vn 0.8315 0.0000 0.5556
vn 0.8315 0.0000 0.5556
vn 0.9239 0.0000 0.3827
vn 0.9808 0.0000 0.1951
vn 0.9808 0.0000 0.1951
vn 0.9808 0.0000 0.1951
vn 0.9239 0.0000 0.3827
vn 0.9239 0.0000 0.3827
vn 0.9808 0.0000 0.1951
vn 1.0000 0.0000 -0.0000
vn 1.0000 0.0000 -0.0000
vn 1.0000 0.0000 -0.0000
vn 0.9808 0.0000 0.1951
vn 0.9808 0.0000 0.1951
vn 0.0000 -1.0000 -0.0000
vn 0.0000 -1.0000 -0.0000
vn 0.0000 -1.0000 -0.0000
vn 0.0000 -1.0000 -0.0000
vn 0.0000 -1.0000 -0.0000
vn 0.0000 -1.0000 -0.0000
vn 0.0000 -1.0000 -0.0000
vn 0.0000 -1.0000 -0.0000
vn 0.0000 -1.0000 -0.0000
vn 0.0000 -1.0000 -0.0000
vn 0.0000 -1.0000 -0.0000
vn 0.0000 -1.0000 -0.0000
vn 0.0000 -1.0000 -0.0000
vn 0.0000 -1.0000 -0.0000
vn 0.0000 -1.0000 -0.0000
vn 0.0000 -1.0000 -0.0000
vn 0.0000 -1.0000 -0.0000
vn 0.0000 -1.0000 -0.0000
vn 0.0000 -1.0000 -0.0000
vn 0.0000 -1.0000 -0.0000
vn 0.0000 -1.0000 -0.0000
vn 0.0000 -1.0000 -0.0000
vn 0.0000 -1.0000 -0.0000
vn 0.0000 -1.0000 -0.0000
vn 0.0000 -1.0000 -0.0000
vn 0.0000 -1.0000 -0.0000
vn 0.0000 -1.0000 -0.0000
vn 0.0000 -1.0000 -0.0000
vn 0.0000 -1.0000 -0.0000
vn 0.0000 -1.0000 -0.0000
vn 0.0000 -1.0000 -0.0000
vn 0.0000 -1.0000 -0.0000
vn 0.0000 -1.0000 -0.0000
vn 0.0000 -1.0000 -0.0000
vn 0.0000 -1.0000 -0.0000
vn 0.0000 -1.0000 -0.0000
vn 0.0000 -1.0000 -0.0000
vn 0.0000 -1.0000 -0.0000
vn 0.0000 -1.0000 -0.0000
vn 0.0000 -1.0000 -0.0000
vn 0.0000 -1.0000 -0.0000
vn 0.0000 -1.0000 -0.0000
vn 0.0000 -1.0000 -0.0000
vn 0.0000 -1.0000 -0.0000
vn 0.0000 -1.0000 -0.0000
vn 0.0000 -1.0000 -0.0000
vn 0.0000 -1.0000 -0.0000
vn 0.0000 -1.0000 -0.0000
vn 0.0000 -1.0000 -0.0000
vn 0.0000 -1.0000 -0.0000
vn 0.0000 -1.0000 -0.0000
vn 0.0000 -1.0000 -0.0000
vn 0.0000 -1.0000 -0.0000
vn 0.0000 -1.0000 -0.0000
vn 0.0000 -1.0000 -0.0000
vn 0.0000 -1.0000 -0.0000
vn 0.0000 -1.0000 -0.0000
vn 0.0000 -1.0000 -0.0000
vn 0.0000 -1.0000 -0.0000
vn 0.0000 -1.0000 -0.0000
vn 0.0000 -1.0000 -0.0000
vn 0.0000 -1.0000 -0.0000
vn 0.0000 -1.0000 -0.0000
vn 0.0000 -1.0000 -0.0000
vn 0.0000 -1.0000 -0.0000
vn 0.0000 -1.0000 -0.0000
vn 0.0000 -1.0000 -0.0000
vn 0.0000 -1.0000 -0.0000
vn 0.0000 -1.0000 -0.0000
vn 0.0000 -1.0000 -0.0000
vn 0.0000 -1.0000 -0.0000
vn 0.0000 -1.0000 -0.0000
vn 0.0000 -1.0000 -0.0000
vn 0.0000 -1.0000 -0.0000
vn 0.0000 -1.0000 -0.0000
vn 0.0000 -1.0000 -0.0000
vn 0.0000 -1.0000 -0.0000
vn 0.0000 -1.0000 -0.0000
vn 0.0000 -1.0000 -0.0000
vn 0.0000 -1.0000 -0.0000
vn 0.0000 -1.0000 -0.0000
vn 0.0000 -1.0000 -0.0000
vn 0.0000 -1.0000 -0.0000
vn 0.0000 -1.0000 -0.0000
vn 0.0000 -1.0000 -0.0000
vn 0.0000 -1.0000 -0.0000
vn 0.0000 -1.0000 -0.0000
vn 0.0000 -1.0000 -0.0000
vn 0.0000 -1.0000 -0.0000
vn 0.0000 -1.0000 -0.0000
vn 0.0000 1.0000 -0.0000
vn 0.0000 1.0000 -0.0000
vn 0.0000 1.0000 -0.0000
vn 0.0000 1.0000 -0.0000
vn 0.0000 1.0000 -0.0000
vn 0.0000 1.0000 -0.0000
vn 0.0000 1.0000 -0.0000
vn 0.0000 1.0000 -0.0000
vn 0.0000 1.0000 -0.0000
vn 0.0000 1.0000 -0.0000
vn 0.0000 1.0000 -0.0000
vn 0.0000 1.0000 -0.0000
vn 0.0000 1.0000 -0.0000
vn 0.0000 1.0000 -0.0000
vn 0.0000 1.0000 -0.0000
vn 0.0000 1.0000 -0.0000
vn 0.0000 1.0000 -0.0000
vn 0.0000 1.0000 -0.0000
vn 0.0000 1.0000 -0.0000
vn 0.0000 1.0000 -0.0000
vn 0.0000 1.0000 -0.0000
vn 0.0000 1.0000 -0.0000
vn 0.0000 1.0000 -0.0000
vn 0.0000 1.0000 -0.0000
vn 0.0000 1.0000 -0.0000
vn 0.0000 1.0000 -0.0000
vn 0.0000 1.0000 -0.0000
vn 0.0000 1.0000 -0.0000
vn 0.0000 1.0000 -0.0000
vn 0.0000 1.0000 -0.0000
vn 0.0000 1.0000 -0.0000
vn 0.0000 1.0000 -0.0000
vn 0.0000 1.0000 -0.0000
vn 0.0000 1.0000 -0.0000
vn 0.0000 1.0000 -0.0000
vn 0.0000 1.0000 -0.0000
vn 0.0000 1.0000 -0.0000
vn 0.0000 1.0000 -0.0000
vn 0.0000 1.0000 -0.0000
vn 0.0000 1.0000 -0.0000
vn 0.0000 1.0000 -0.0000
vn 0.0000 1.0000 -0.0000
vn 0.0000 1.0000 -0.0000
vn 0.0000 1.0000 -0.0000
vn 0.0000 1.0000 -0.0000
vn 0.0000 1.0000 -0.0000
vn 0.0000 1.0000 -0.0000
vn 0.0000 1.0000 -0.0000
vn 0.0000 1.0000 -0.0000
vn 0.0000 1.0000 -0.0000
vn 0.0000 1.0000 -0.0000
vn 0.0000 1.0000 -0.0000
vn 0.0000 1.0000 -0.0000
vn 0.0000 1.0000 -0.0000
vn 0.0000 1.0000 -0.0000
vn 0.0000 1.0000 -0.0000
vn 0.0000 1.0000 -0.0000
vn 0.0000 1.0000 -0.0000
vn 0.0000 1.0000 -0.0000
vn 0.0000 1.0000 -0.0000
vn 0.0000 1.0000 -0.0000
vn 0.0000 1.0000 -0.0000
vn 0.0000 1.0000 -0.0000
vn 0.0000 1.0000 -0.0000
vn 0.0000 1.0000 -0.0000
vn 0.0000 1.0000 -0.0000
vn 0.0000 1.0000 -0.0000
vn 0.0000 1.0000 -0.0000
vn 0.0000 1.0000 -0.0000
vn 0.0000 1.0000 -0.0000
vn 0.0000 1.0000 -0.0000
vn 0.0000 1.0000 -0.0000
vn 0.0000 1.0000 -0.0000
vn 0.0000 1.0000 -0.0000
vn 0.0000 1.0000 -0.0000
vn 0.0000 1.0000 -0.0000
vn 0.0000 1.0000 -0.0000
vn 0.0000 1.0000 -0.0000
vn 0.0000 1.0000 -0.0000
vn 0.0000 1.0000 -0.0000
vn 0.0000 1.0000 -0.0000
vn 0.0000 1.0000 -0.0000
vn 0.0000 1.0000 -0.0000
vn 0.0000 1.0000 -0.0000
vn 0.0000 1.0000 -0.0000
vn 0.0000 1.0000 -0.0000
vn 0.0000 1.0000 -0.0000
vn 0.0000 1.0000 -0.0000
vn 0.0000 1.0000 -0.0000
vn 0.0000 1.0000 -0.0000
# 372 vertex normals

vt 0.7500 0.0000 1.0000
vt 0.7813 0.0000 1.0000
vt 0.8125 0.0000 1.0000
vt 0.8438 0.0000 1.0000
vt 0.8750 0.0000 1.0000
vt 0.9063 0.0000 1.0000
vt 0.9375 0.0000 1.0000
vt 0.9688 0.0000 1.0000
vt 1.0000 0.0000 1.0000
vt 0.0313 0.0000 1.0000
vt 0.0625 0.0000 1.0000
vt 0.0938 0.0000 1.0000
vt 0.1250 0.0000 1.0000
vt 0.1563 0.0000 1.0000
vt 0.1875 0.0000 1.0000
vt 0.2188 0.0000 1.0000
vt 0.2500 0.0000 1.0000
vt 0.2813 0.0000 1.0000
vt 0.3125 0.0000 1.0000
vt 0.3438 0.0000 1.0000
vt 0.3750 0.0000 1.0000
vt 0.4063 0.0000 1.0000
vt 0.4375 0.0000 1.0000
vt 0.4688 0.0000 1.0000
vt 0.5000 0.0000 1.0000
vt 0.5313 0.0000 1.0000
vt 0.5625 0.0000 1.0000
vt 0.5938 0.0000 1.0000
vt 0.6250 0.0000 1.0000
vt 0.6563 0.0000 1.0000
vt 0.6875 0.0000 1.0000
vt 0.7188 0.0000 1.0000
vt 0.7500 1.0000 1.0000
vt 0.7813 1.0000 1.0000
vt 0.8125 1.0000 1.0000
vt 0.8438 1.0000 1.0000
vt 0.8750 1.0000 1.0000
vt 0.9063 1.0000 1.0000
vt 0.9375 1.0000 1.0000
vt 0.9688 1.0000 1.0000
vt 1.0000 1.0000 1.0000
vt 0.0313 1.0000 1.0000
vt 0.0625 1.0000 1.0000
vt 0.0938 1.0000 1.0000
vt 0.1250 1.0000 1.0000
vt 0.1563 1.0000 1.0000
vt 0.1875 1.0000 1.0000
vt 0.2188 1.0000 1.0000
vt 0.2500 1.0000 1.0000
vt 0.2813 1.0000 1.0000
vt 0.3125 1.0000 1.0000
vt 0.3438 1.0000 1.0000
vt 0.3750 1.0000 1.0000
vt 0.4063 1.0000 1.0000
vt 0.4375 1.0000 1.0000
vt 0.4688 1.0000 1.0000
vt 0.5000 1.0000 1.0000
vt 0.5313 1.0000 1.0000
vt 0.5625 1.0000 1.0000
vt 0.5938 1.0000 1.0000
vt 0.6250 1.0000 1.0000
vt 0.6563 1.0000 1.0000
vt 0.6875 1.0000 1.0000
vt 0.7188 1.0000 1.0000
vt 1.0313 0.0000 1.0000
vt 1.0313 1.0000 1.0000
vt 0.5975 0.9904 -0.2500
vt 0.6913 0.9619 -0.2500
vt 0.7778 0.9157 -0.2500
vt 0.8536 0.8536 -0.2500
vt 0.9157 0.7778 -0.2500
vt 0.9619 0.6913 -0.2500
vt 0.9904 0.5975 -0.2500
vt 1.0000 0.5000 -0.2500
vt 0.9904 0.4025 -0.2500
vt 0.9619 0.3087 -0.2500
vt 0.9157 0.2222 -0.2500
vt 0.8536 0.1464 -0.2500
vt 0.7778 0.0843 -0.2500
vt 0.6913 0.0381 -0.2500
vt 0.5975 0.0096 -0.2500
vt 0.5000 0.0000 -0.2500
vt 0.4025 0.0096 -0.2500
vt 0.3087 0.0381 -0.2500
vt 0.2222 0.0843 -0.2500
vt 0.1464 0.1464 -0.2500
vt 0.0843 0.2222 -0.2500
vt 0.0381 0.3087 -0.2500
vt 0.0096 0.4025 -0.2500
vt 0.0000 0.5000 -0.2500
vt 0.0096 0.5975 -0.2500
vt 0.0381 0.6913 -0.2500
vt 0.0843 0.7778 -0.2500
vt 0.1464 0.8536 -0.2500
vt 0.2222 0.9157 -0.2500
vt 0.3087 0.9619 -0.2500
vt 0.4025 0.9904 -0.2500
vt 0.5000 1.0000 -0.2500
vt 0.5000 1.0000 0.2500
vt 0.4025 0.9904 0.2500
vt 0.3087 0.9619 0.2500
vt 0.2222 0.9157 0.2500
vt 0.1464 0.8536 0.2500
vt 0.0843 0.7778 0.2500
vt 0.0381 0.6913 0.2500
vt 0.0096 0.5975 0.2500
vt 0.0000 0.5000 0.2500
vt 0.0096 0.4025 0.2500
vt 0.0381 0.3087 0.2500
vt 0.0843 0.2222 0.2500
vt 0.1464 0.1464 0.2500
vt 0.2222 0.0843 0.2500
vt 0.3087 0.0381 0.2500
vt 0.4025 0.0096 0.2500
vt 0.5000 0.0000 0.2500
vt 0.5975 0.0096 0.2500
vt 0.6913 0.0381 0.2500
vt 0.7778 0.0843 0.2500
vt 0.8536 0.1464 0.2500
vt 0.9157 0.2222 0.2500
vt 0.9619 0.3087 0.2500
vt 0.9904 0.4025 0.2500
vt 1.0000 0.5000 0.2500
vt 0.9904 0.5975 0.2500
vt 0.9619 0.6913 0.2500
vt 0.9157 0.7778 0.2500
vt 0.8536 0.8536 0.2500
vt 0.7778 0.9157 0.2500
vt 0.6913 0.9619 0.2500
vt 0.5975 0.9904 0.2500
# 130 texture coords

g Circle_COL
usemtl wire_088144225
f 31/1/1 32/2/2 14/34/3 
f 14/34/4 13/33/5 31/1/6 
f 32/2/7 1/3/8 51/35/9 
f 51/35/10 14/34/11 32/2/12 
f 1/3/13 33/4/14 52/36/15 
f 52/36/16 51/35/17 1/3/18 
f 33/4/19 34/5/20 15/37/21 
f 15/37/22 52/36/23 33/4/24 
f 34/5/25 35/6/26 53/38/27 
f 53/38/28 15/37/29 34/5/30 
f 35/6/31 36/7/32 16/39/33 
f 16/39/34 53/38/35 35/6/36 
f 36/7/37 37/8/38 17/40/39 
f 17/40/40 16/39/41 36/7/42 
f 37/8/43 2/9/44 18/41/45 
f 18/41/46 17/40/47 37/8/48 
f 2/9/49 3/65/50 54/66/51 
f 54/66/52 18/41/53 2/9/54 
f 3/10/55 4/11/56 19/43/57 
f 19/43/58 54/42/59 3/10/60 
f 4/11/61 5/12/62 20/44/63 
f 20/44/64 19/43/65 4/11/66 
f 5/12/67 38/13/68 21/45/69 
f 21/45/70 20/44/71 5/12/72 
f 38/13/73 39/14/74 55/46/75 
f 55/46/76 21/45/77 38/13/78 
f 39/14/79 40/15/80 56/47/81 
f 56/47/82 55/46/83 39/14/84 
f 40/15/85 41/16/86 57/48/87 
f 57/48/88 56/47/89 40/15/90 
f 41/16/91 42/17/92 22/49/93 
f 22/49/94 57/48/95 41/16/96 
f 42/17/97 6/18/98 58/50/99 
f 58/50/100 22/49/101 42/17/102 
f 6/18/103 43/19/104 23/51/105 
f 23/51/106 58/50/107 6/18/108 
f 43/19/109 44/20/110 59/52/111 
f 59/52/112 23/51/113 43/19/114 
f 44/20/115 7/21/116 24/53/117 
f 24/53/118 59/52/119 44/20/120 
f 7/21/121 8/22/122 25/54/123 
f 25/54/124 24/53/125 7/21/126 
f 8/22/127 9/23/128 26/55/129 
f 26/55/130 25/54/131 8/22/132 
f 9/23/133 10/24/134 27/56/135 
f 27/56/136 26/55/137 9/23/138 
f 10/24/139 45/25/140 28/57/141 
f 28/57/142 27/56/143 10/24/144 
f 45/25/145 11/26/146 60/58/147 
f 60/58/148 28/57/149 45/25/150 
f 11/26/151 12/27/152 61/59/153 
f 61/59/154 60/58/155 11/26/156 
f 12/27/157 46/28/158 62/60/159 
f 62/60/160 61/59/161 12/27/162 
f 46/28/163 47/29/164 29/61/165 
f 29/61/166 62/60/167 46/28/168 
f 47/29/169 48/30/170 63/62/171 
f 63/62/172 29/61/173 47/29/174 
f 48/30/175 49/31/176 30/63/177 
f 30/63/178 63/62/179 48/30/180 
f 49/31/181 50/32/182 64/64/183 
f 64/64/184 30/63/185 49/31/186 
f 50/32/187 31/1/188 13/33/189 
f 13/33/190 64/64/191 50/32/192 
f 49/68/193 48/69/194 47/70/195 
f 47/70/196 46/71/197 12/72/198 
f 12/72/199 11/73/200 45/74/201 
f 47/70/202 12/72/203 45/74/204 
f 45/74/205 10/75/206 9/76/207 
f 9/76/208 8/77/209 7/78/210 
f 45/74/211 9/76/212 7/78/213 
f 7/78/214 44/79/215 43/80/216 
f 43/80/217 6/81/218 42/82/219 
f 7/78/220 43/80/221 42/82/222 
f 45/74/223 7/78/224 42/82/225 
f 42/82/226 41/83/227 40/84/228 
f 40/84/229 39/85/230 38/86/231 
f 42/82/232 40/84/233 38/86/234 
f 38/86/235 5/87/236 4/88/237 
f 4/88/238 3/89/239 2/90/240 
f 38/86/241 4/88/242 2/90/243 
f 42/82/244 38/86/245 2/90/246 
f 2/90/247 37/91/248 36/92/249 
f 36/92/250 35/93/251 34/94/252 
f 2/90/253 36/92/254 34/94/255 
f 34/94/256 33/95/257 1/96/258 
f 1/96/259 32/97/260 31/98/261 
f 34/94/262 1/96/263 31/98/264 
f 2/90/265 34/94/266 31/98/267 
f 42/82/268 2/90/269 31/98/270 
f 45/74/271 42/82/272 31/98/273 
f 47/70/274 45/74/275 31/98/276 
f 49/68/277 47/70/278 31/98/279 
f 50/67/280 49/68/281 31/98/282 
f 14/100/283 51/101/284 52/102/285 
f 52/102/286 15/103/287 53/104/288 
f 53/104/289 16/105/290 17/106/291 
f 52/102/292 53/104/293 17/106/294 
f 17/106/295 18/107/296 54/108/297 
f 54/108/298 19/109/299 20/110/300 
f 17/106/301 54/108/302 20/110/303 
f 20/110/304 21/111/305 55/112/306 
f 55/112/307 56/113/308 57/114/309 
f 20/110/310 55/112/311 57/114/312 
f 17/106/313 20/110/314 57/114/315 
f 57/114/316 22/115/317 58/116/318 
f 58/116/319 23/117/320 59/118/321 
f 57/114/322 58/116/323 59/118/324 
f 59/118/325 24/119/326 25/120/327 
f 25/120/328 26/121/329 27/122/330 
f 59/118/331 25/120/332 27/122/333 
f 57/114/334 59/118/335 27/122/336 
f 27/122/337 28/123/338 60/124/339 
f 60/124/340 61/125/341 62/126/342 
f 27/122/343 60/124/344 62/126/345 
f 62/126/346 29/127/347 63/128/348 
f 63/128/349 30/129/350 64/130/351 
f 62/126/352 63/128/353 64/130/354 
f 27/122/355 62/126/356 64/130/357 
f 57/114/358 27/122/359 64/130/360 
f 17/106/361 57/114/362 64/130/363 
f 52/102/364 17/106/365 64/130/366 
f 14/100/367 52/102/368 64/130/369 
f 13/99/370 14/100/371 64/130/372 
# 124 faces

