# 3ds Max Wavefront OBJ Exporter v0.97b - (c)2007 guruware
# File Created: 11.03.2017 13:54:48

mtllib DiamondV_COL.mtl

#
# object DiamondV_COL
#

v  -0.0000 0.0312 -0.4917
v  0.0000 0.0312 0.4917
v  0.3120 -0.0312 0.0000
v  -0.3120 -0.0312 -0.0000
v  0.0000 -0.0312 0.4917
v  0.3120 0.0312 0.0000
v  -0.3120 0.0312 -0.0000
v  -0.0000 -0.0312 -0.4917
# 8 vertices

vn 0.0000 1.0000 -0.0000
vn 0.0000 1.0000 -0.0000
vn 0.0000 1.0000 -0.0000
vn 0.0000 1.0000 -0.0000
vn 0.0000 1.0000 -0.0000
vn 0.0000 1.0000 -0.0000
vn 0.0000 -1.0000 -0.0000
vn 0.0000 -1.0000 -0.0000
vn 0.0000 -1.0000 -0.0000
vn 0.0000 -1.0000 -0.0000
vn 0.0000 -1.0000 -0.0000
vn 0.0000 -1.0000 -0.0000
vn 0.8443 0.0000 -0.5358
vn 0.8443 0.0000 -0.5358
vn 0.8443 0.0000 -0.5358
vn 0.8443 0.0000 -0.5358
vn 0.8443 0.0000 -0.5358
vn 0.8443 0.0000 -0.5358
vn -0.8443 0.0000 -0.5358
vn -0.8443 0.0000 -0.5358
vn -0.8443 0.0000 -0.5358
vn -0.8443 0.0000 -0.5358
vn -0.8443 0.0000 -0.5358
vn -0.8443 0.0000 -0.5358
vn -0.8443 0.0000 0.5358
vn -0.8443 0.0000 0.5358
vn -0.8443 0.0000 0.5358
vn -0.8443 0.0000 0.5358
vn -0.8443 0.0000 0.5358
vn -0.8443 0.0000 0.5358
vn 0.8443 0.0000 0.5358
vn 0.8443 0.0000 0.5358
vn 0.8443 0.0000 0.5358
vn 0.8443 0.0000 0.5358
vn 0.8443 0.0000 0.5358
vn 0.8443 0.0000 0.5358
# 36 vertex normals

vt 0.3700 0.5335 0.0000
vt 0.2500 0.9085 0.0000
vt 0.1300 0.5335 0.0000
vt 0.2500 0.1585 0.0000
vt 0.2000 0.0750 0.0000
vt 0.9099 0.0750 0.0000
vt 0.9099 0.0250 0.0000
vt 0.2000 0.0250 0.0000
vt 0.4901 0.0750 0.0000
vt 0.4901 0.0250 0.0000
vt 0.7000 0.0750 0.0000
vt 0.7000 0.0250 0.0000
vt 0.6300 0.5335 0.0000
vt 0.7500 0.9085 0.0000
vt 0.8700 0.5335 0.0000
vt 0.7500 0.1585 0.0000
# 16 texture coords

g DiamondV_COL
usemtl wire_224086086
f 7/3/1 2/4/2 6/1/3 
f 6/1/4 1/2/5 7/3/6 
f 3/15/7 5/16/8 4/13/9 
f 4/13/10 8/14/11 3/15/12 
f 3/7/13 8/8/14 1/5/15 
f 1/5/16 6/6/17 3/7/18 
f 8/8/19 4/10/20 7/9/21 
f 7/9/22 1/5/23 8/8/24 
f 4/10/25 5/12/26 2/11/27 
f 2/11/28 7/9/29 4/10/30 
f 5/12/31 3/7/32 6/6/33 
f 6/6/34 2/11/35 5/12/36 
# 12 faces

