# 3ds Max Wavefront OBJ Exporter v0.97b - (c)2007 guruware
# File Created: 11.03.2017 13:54:39

mtllib OvalH_COL.mtl

#
# object OvalH_COL
#

v  -0.0000 0.0312 -0.3128
v  -0.0998 0.0312 -0.3063
v  -0.1926 0.0312 -0.2879
v  -0.2766 0.0312 -0.2587
v  -0.4095 0.0312 0.1736
v  -0.3495 0.0312 0.2201
v  -0.0998 0.0312 0.3063
v  0.0000 0.0312 0.3128
v  0.0998 0.0312 0.3063
v  0.1926 0.0312 0.2879
v  0.3495 0.0312 0.2201
v  0.4095 0.0312 0.1736
v  0.4545 0.0312 0.1205
v  0.4828 0.0312 0.0622
v  0.4095 0.0312 -0.1736
v  0.3495 0.0312 -0.2201
v  -0.0000 -0.0312 -0.3128
v  -0.1926 -0.0312 -0.2879
v  -0.2766 -0.0312 -0.2587
v  -0.3495 -0.0312 -0.2201
v  -0.4926 -0.0312 0.0000
v  -0.2766 -0.0312 0.2587
v  -0.0998 -0.0312 0.3063
v  0.0998 -0.0312 0.3063
v  0.3495 -0.0312 0.2201
v  0.4545 -0.0312 0.1205
v  0.4828 -0.0312 0.0622
v  0.4926 -0.0312 -0.0000
v  0.4095 -0.0312 -0.1736
v  0.0998 -0.0312 -0.3063
v  -0.3495 0.0312 -0.2201
v  -0.4095 0.0312 -0.1736
v  -0.4545 0.0312 -0.1205
v  -0.4828 0.0312 -0.0622
v  -0.4926 0.0312 -0.0000
v  -0.4828 0.0312 0.0622
v  -0.4545 0.0312 0.1205
v  -0.2766 0.0312 0.2587
v  -0.1926 0.0312 0.2879
v  0.2766 0.0312 0.2587
v  0.4926 0.0312 0.0000
v  0.4828 0.0312 -0.0622
v  0.4545 0.0312 -0.1205
v  0.2766 0.0312 -0.2587
v  0.1926 0.0312 -0.2879
v  0.0998 0.0312 -0.3063
v  -0.0998 -0.0312 -0.3063
v  -0.4095 -0.0312 -0.1736
v  -0.4545 -0.0312 -0.1205
v  -0.4828 -0.0312 -0.0622
v  -0.4828 -0.0312 0.0622
v  -0.4545 -0.0312 0.1205
v  -0.4095 -0.0312 0.1736
v  -0.3495 -0.0312 0.2201
v  -0.1926 -0.0312 0.2879
v  0.0000 -0.0312 0.3128
v  0.1926 -0.0312 0.2879
v  0.2766 -0.0312 0.2587
v  0.4095 -0.0312 0.1736
v  0.4828 -0.0312 -0.0622
v  0.4545 -0.0312 -0.1205
v  0.3495 -0.0312 -0.2201
v  0.2766 -0.0312 -0.2587
v  0.1926 -0.0312 -0.2879
# 64 vertices

vn 0.0000 1.0000 -0.0000
vn 0.0000 1.0000 -0.0000
vn 0.0000 1.0000 -0.0000
vn 0.0000 1.0000 -0.0000
vn 0.0000 1.0000 -0.0000
vn 0.0000 1.0000 -0.0000
vn 0.0000 1.0000 -0.0000
vn 0.0000 1.0000 -0.0000
vn 0.0000 1.0000 -0.0000
vn 0.0000 1.0000 -0.0000
vn 0.0000 1.0000 -0.0000
vn 0.0000 1.0000 -0.0000
vn 0.0000 1.0000 -0.0000
vn 0.0000 1.0000 -0.0000
vn 0.0000 1.0000 -0.0000
vn 0.0000 1.0000 -0.0000
vn 0.0000 1.0000 -0.0000
vn 0.0000 1.0000 -0.0000
vn 0.0000 1.0000 -0.0000
vn 0.0000 1.0000 -0.0000
vn 0.0000 1.0000 -0.0000
vn 0.0000 1.0000 -0.0000
vn 0.0000 1.0000 -0.0000
vn 0.0000 1.0000 -0.0000
vn 0.0000 1.0000 -0.0000
vn 0.0000 1.0000 -0.0000
vn 0.0000 1.0000 -0.0000
vn 0.0000 1.0000 -0.0000
vn 0.0000 1.0000 -0.0000
vn 0.0000 1.0000 -0.0000
vn 0.0000 1.0000 -0.0000
vn 0.0000 1.0000 -0.0000
vn 0.0000 1.0000 -0.0000
vn 0.0000 1.0000 -0.0000
vn 0.0000 1.0000 -0.0000
vn 0.0000 1.0000 -0.0000
vn 0.0000 1.0000 -0.0000
vn 0.0000 1.0000 -0.0000
vn 0.0000 1.0000 -0.0000
vn 0.0000 1.0000 -0.0000
vn 0.0000 1.0000 -0.0000
vn 0.0000 1.0000 -0.0000
vn 0.0000 1.0000 -0.0000
vn 0.0000 1.0000 -0.0000
vn 0.0000 1.0000 -0.0000
vn 0.0000 1.0000 -0.0000
vn 0.0000 1.0000 -0.0000
vn 0.0000 1.0000 -0.0000
vn 0.0000 1.0000 -0.0000
vn 0.0000 1.0000 -0.0000
vn 0.0000 1.0000 -0.0000
vn 0.0000 1.0000 -0.0000
vn 0.0000 1.0000 -0.0000
vn 0.0000 1.0000 -0.0000
vn 0.0000 1.0000 -0.0000
vn 0.0000 1.0000 -0.0000
vn 0.0000 1.0000 -0.0000
vn 0.0000 1.0000 -0.0000
vn 0.0000 1.0000 -0.0000
vn 0.0000 1.0000 -0.0000
vn 0.0000 1.0000 -0.0000
vn 0.0000 1.0000 -0.0000
vn 0.0000 1.0000 -0.0000
vn 0.0000 1.0000 -0.0000
vn 0.0000 1.0000 -0.0000
vn 0.0000 1.0000 -0.0000
vn 0.0000 1.0000 -0.0000
vn 0.0000 1.0000 -0.0000
vn 0.0000 1.0000 -0.0000
vn 0.0000 1.0000 -0.0000
vn 0.0000 1.0000 -0.0000
vn 0.0000 1.0000 -0.0000
vn 0.0000 1.0000 -0.0000
vn 0.0000 1.0000 -0.0000
vn 0.0000 1.0000 -0.0000
vn 0.0000 1.0000 -0.0000
vn 0.0000 1.0000 -0.0000
vn 0.0000 1.0000 -0.0000
vn 0.0000 1.0000 -0.0000
vn 0.0000 1.0000 -0.0000
vn 0.0000 1.0000 -0.0000
vn 0.0000 1.0000 -0.0000
vn 0.0000 1.0000 -0.0000
vn 0.0000 1.0000 -0.0000
vn 0.0000 1.0000 -0.0000
vn 0.0000 1.0000 -0.0000
vn 0.0000 1.0000 -0.0000
vn 0.0000 1.0000 -0.0000
vn 0.0000 1.0000 -0.0000
vn 0.0000 1.0000 -0.0000
vn 0.0000 -1.0000 -0.0000
vn 0.0000 -1.0000 -0.0000
vn 0.0000 -1.0000 -0.0000
vn 0.0000 -1.0000 -0.0000
vn 0.0000 -1.0000 -0.0000
vn 0.0000 -1.0000 -0.0000
vn 0.0000 -1.0000 -0.0000
vn 0.0000 -1.0000 -0.0000
vn 0.0000 -1.0000 -0.0000
vn 0.0000 -1.0000 -0.0000
vn 0.0000 -1.0000 -0.0000
vn 0.0000 -1.0000 -0.0000
vn 0.0000 -1.0000 -0.0000
vn 0.0000 -1.0000 -0.0000
vn 0.0000 -1.0000 -0.0000
vn 0.0000 -1.0000 -0.0000
vn 0.0000 -1.0000 -0.0000
vn 0.0000 -1.0000 -0.0000
vn 0.0000 -1.0000 -0.0000
vn 0.0000 -1.0000 -0.0000
vn 0.0000 -1.0000 -0.0000
vn 0.0000 -1.0000 -0.0000
vn 0.0000 -1.0000 -0.0000
vn 0.0000 -1.0000 -0.0000
vn 0.0000 -1.0000 -0.0000
vn 0.0000 -1.0000 -0.0000
vn 0.0000 -1.0000 -0.0000
vn 0.0000 -1.0000 -0.0000
vn 0.0000 -1.0000 -0.0000
vn 0.0000 -1.0000 -0.0000
vn 0.0000 -1.0000 -0.0000
vn 0.0000 -1.0000 -0.0000
vn 0.0000 -1.0000 -0.0000
vn 0.0000 -1.0000 -0.0000
vn 0.0000 -1.0000 -0.0000
vn 0.0000 -1.0000 -0.0000
vn 0.0000 -1.0000 -0.0000
vn 0.0000 -1.0000 -0.0000
vn 0.0000 -1.0000 -0.0000
vn 0.0000 -1.0000 -0.0000
vn 0.0000 -1.0000 -0.0000
vn 0.0000 -1.0000 -0.0000
vn 0.0000 -1.0000 -0.0000
vn 0.0000 -1.0000 -0.0000
vn 0.0000 -1.0000 -0.0000
vn 0.0000 -1.0000 -0.0000
vn 0.0000 -1.0000 -0.0000
vn 0.0000 -1.0000 -0.0000
vn 0.0000 -1.0000 -0.0000
vn 0.0000 -1.0000 -0.0000
vn 0.0000 -1.0000 -0.0000
vn 0.0000 -1.0000 -0.0000
vn 0.0000 -1.0000 -0.0000
vn 0.0000 -1.0000 -0.0000
vn 0.0000 -1.0000 -0.0000
vn 0.0000 -1.0000 -0.0000
vn 0.0000 -1.0000 -0.0000
vn 0.0000 -1.0000 -0.0000
vn 0.0000 -1.0000 -0.0000
vn 0.0000 -1.0000 -0.0000
vn 0.0000 -1.0000 -0.0000
vn 0.0000 -1.0000 -0.0000
vn 0.0000 -1.0000 -0.0000
vn 0.0000 -1.0000 -0.0000
vn 0.0000 -1.0000 -0.0000
vn 0.0000 -1.0000 -0.0000
vn 0.0000 -1.0000 -0.0000
vn 0.0000 -1.0000 -0.0000
vn 0.0000 -1.0000 -0.0000
vn 0.0000 -1.0000 -0.0000
vn 0.0000 -1.0000 -0.0000
vn 0.0000 -1.0000 -0.0000
vn 0.0000 -1.0000 -0.0000
vn 0.0000 -1.0000 -0.0000
vn 0.0000 -1.0000 -0.0000
vn 0.0000 -1.0000 -0.0000
vn 0.0000 -1.0000 -0.0000
vn 0.0000 -1.0000 -0.0000
vn 0.0000 -1.0000 -0.0000
vn 0.0000 -1.0000 -0.0000
vn 0.0000 -1.0000 -0.0000
vn 0.0000 -1.0000 -0.0000
vn 0.0000 -1.0000 -0.0000
vn 0.0000 -1.0000 -0.0000
vn 0.0000 -1.0000 -0.0000
vn 0.0000 -1.0000 -0.0000
vn 0.0000 -1.0000 -0.0000
vn 0.0000 -1.0000 -0.0000
vn 0.0000 -1.0000 -0.0000
vn 0.0000 -1.0000 -0.0000
vn 0.9541 0.0000 0.2994
vn 1.0000 0.0000 0.0000
vn 1.0000 0.0000 0.0000
vn 1.0000 0.0000 0.0000
vn 0.9541 0.0000 0.2994
vn 0.9541 0.0000 0.2994
vn 1.0000 0.0000 0.0000
vn 0.9541 0.0000 -0.2994
vn 0.9541 0.0000 -0.2994
vn 0.9541 0.0000 -0.2994
vn 1.0000 0.0000 0.0000
vn 1.0000 0.0000 0.0000
vn -0.9541 0.0000 -0.2994
vn -1.0000 0.0000 -0.0000
vn -1.0000 0.0000 -0.0000
vn -1.0000 0.0000 -0.0000
vn -0.9541 -0.0000 -0.2994
vn -0.9541 0.0000 -0.2994
vn -1.0000 0.0000 -0.0000
vn -0.9541 0.0000 0.2994
vn -0.9541 0.0000 0.2994
vn -0.9541 0.0000 0.2994
vn -1.0000 0.0000 -0.0000
vn -1.0000 0.0000 -0.0000
vn -0.8378 -0.0000 -0.5460
vn -0.9541 0.0000 -0.2994
vn -0.9541 -0.0000 -0.2994
vn -0.9541 -0.0000 -0.2994
vn -0.8378 -0.0000 -0.5460
vn -0.8378 -0.0000 -0.5460
vn -0.9541 0.0000 0.2994
vn -0.8378 0.0000 0.5460
vn -0.8378 0.0000 0.5460
vn -0.8378 0.0000 0.5460
vn -0.9541 0.0000 0.2994
vn -0.9541 0.0000 0.2994
vn -0.8378 0.0000 0.5460
vn -0.6916 0.0000 0.7223
vn -0.6916 0.0000 0.7223
vn -0.6916 0.0000 0.7223
vn -0.8378 0.0000 0.5460
vn -0.8378 0.0000 0.5460
vn -0.6916 -0.0000 -0.7223
vn -0.8378 -0.0000 -0.5460
vn -0.8378 -0.0000 -0.5460
vn -0.8378 -0.0000 -0.5460
vn -0.6916 0.0000 -0.7223
vn -0.6916 -0.0000 -0.7223
vn -0.6916 0.0000 0.7223
vn -0.5422 0.0000 0.8403
vn -0.5422 0.0000 0.8403
vn -0.5422 0.0000 0.8403
vn -0.6916 0.0000 0.7223
vn -0.6916 0.0000 0.7223
vn -0.5422 0.0000 -0.8403
vn -0.6916 -0.0000 -0.7223
vn -0.6916 0.0000 -0.7223
vn -0.6916 0.0000 -0.7223
vn -0.5422 0.0000 -0.8403
vn -0.5422 0.0000 -0.8403
vn -0.5422 0.0000 0.8403
vn -0.3990 0.0000 0.9170
vn -0.3990 0.0000 0.9170
vn -0.3990 0.0000 0.9170
vn -0.5422 0.0000 0.8403
vn -0.5422 0.0000 0.8403
vn -0.3990 0.0000 -0.9170
vn -0.5422 0.0000 -0.8403
vn -0.5422 0.0000 -0.8403
vn -0.5422 0.0000 -0.8403
vn -0.3990 0.0000 -0.9170
vn -0.3990 0.0000 -0.9170
vn -0.3990 0.0000 0.9170
vn -0.2624 0.0000 0.9650
vn -0.2624 0.0000 0.9650
vn -0.2624 0.0000 0.9650
vn -0.3990 0.0000 0.9170
vn -0.3990 0.0000 0.9170
vn -0.2624 0.0000 -0.9650
vn -0.3990 0.0000 -0.9170
vn -0.3990 0.0000 -0.9170
vn -0.3990 0.0000 -0.9170
vn -0.2624 0.0000 -0.9650
vn -0.2624 0.0000 -0.9650
vn -0.2624 0.0000 0.9650
vn -0.1301 0.0000 0.9915
vn -0.1301 0.0000 0.9915
vn -0.1301 0.0000 0.9915
vn -0.2624 0.0000 0.9650
vn -0.2624 0.0000 0.9650
vn -0.1301 0.0000 -0.9915
vn -0.2624 0.0000 -0.9650
vn -0.2624 0.0000 -0.9650
vn -0.2624 0.0000 -0.9650
vn -0.1301 0.0000 -0.9915
vn -0.1301 0.0000 -0.9915
vn -0.0000 0.0000 -1.0000
vn -0.1301 0.0000 -0.9915
vn -0.1301 0.0000 -0.9915
vn -0.1301 0.0000 -0.9915
vn -0.0000 0.0000 -1.0000
vn -0.0000 0.0000 -1.0000
vn -0.1301 0.0000 0.9915
vn 0.0000 0.0000 1.0000
vn 0.0000 0.0000 1.0000
vn 0.0000 0.0000 1.0000
vn -0.1301 0.0000 0.9915
vn -0.1301 0.0000 0.9915
vn 0.0000 0.0000 1.0000
vn 0.1301 0.0000 0.9915
vn 0.1301 0.0000 0.9915
vn 0.1301 0.0000 0.9915
vn 0.0000 0.0000 1.0000
vn 0.0000 0.0000 1.0000
vn 0.1301 0.0000 -0.9915
vn -0.0000 0.0000 -1.0000
vn -0.0000 0.0000 -1.0000
vn -0.0000 0.0000 -1.0000
vn 0.1301 0.0000 -0.9915
vn 0.1301 0.0000 -0.9915
vn 0.1301 0.0000 0.9915
vn 0.2624 0.0000 0.9650
vn 0.2624 0.0000 0.9650
vn 0.2624 0.0000 0.9650
vn 0.1301 0.0000 0.9915
vn 0.1301 0.0000 0.9915
vn 0.2624 0.0000 -0.9650
vn 0.1301 0.0000 -0.9915
vn 0.1301 0.0000 -0.9915
vn 0.1301 0.0000 -0.9915
vn 0.2624 0.0000 -0.9650
vn 0.2624 0.0000 -0.9650
vn 0.3990 0.0000 -0.9170
vn 0.2624 0.0000 -0.9650
vn 0.2624 0.0000 -0.9650
vn 0.2624 0.0000 -0.9650
vn 0.3990 0.0000 -0.9170
vn 0.3990 0.0000 -0.9170
vn 0.2624 0.0000 0.9650
vn 0.3990 0.0000 0.9170
vn 0.3990 0.0000 0.9170
vn 0.3990 0.0000 0.9170
vn 0.2624 0.0000 0.9650
vn 0.2624 0.0000 0.9650
vn 0.5422 0.0000 -0.8403
vn 0.3990 0.0000 -0.9170
vn 0.3990 0.0000 -0.9170
vn 0.3990 0.0000 -0.9170
vn 0.5422 0.0000 -0.8403
vn 0.5422 0.0000 -0.8403
vn 0.3990 0.0000 0.9170
vn 0.5422 0.0000 0.8403
vn 0.5422 0.0000 0.8403
vn 0.5422 0.0000 0.8403
vn 0.3990 0.0000 0.9170
vn 0.3990 0.0000 0.9170
vn 0.6916 0.0000 -0.7223
vn 0.5422 0.0000 -0.8403
vn 0.5422 0.0000 -0.8403
vn 0.5422 0.0000 -0.8403
vn 0.6916 0.0000 -0.7223
vn 0.6916 0.0000 -0.7223
vn 0.5422 0.0000 0.8403
vn 0.6916 0.0000 0.7223
vn 0.6916 0.0000 0.7223
vn 0.6916 0.0000 0.7223
vn 0.5422 0.0000 0.8403
vn 0.5422 0.0000 0.8403
vn 0.6916 0.0000 0.7223
vn 0.8378 0.0000 0.5460
vn 0.8378 0.0000 0.5460
vn 0.8378 0.0000 0.5460
vn 0.6916 0.0000 0.7223
vn 0.6916 0.0000 0.7223
vn 0.8378 0.0000 -0.5460
vn 0.6916 0.0000 -0.7223
vn 0.6916 0.0000 -0.7223
vn 0.6916 0.0000 -0.7223
vn 0.8378 0.0000 -0.5460
vn 0.8378 0.0000 -0.5460
vn 0.9541 0.0000 -0.2994
vn 0.8378 0.0000 -0.5460
vn 0.8378 0.0000 -0.5460
vn 0.8378 0.0000 -0.5460
vn 0.9541 0.0000 -0.2994
vn 0.9541 0.0000 -0.2994
vn 0.8378 0.0000 0.5460
vn 0.9541 0.0000 0.2994
vn 0.9541 0.0000 0.2994
vn 0.9541 0.0000 0.2994
vn 0.8378 0.0000 0.5460
vn 0.8378 0.0000 0.5460
# 372 vertex normals

vt 0.0663 0.5818 0.0000
vt 0.0625 0.5335 0.0000
vt 0.0663 0.4852 0.0000
vt 0.0772 0.4401 0.0000
vt 0.0945 0.3994 0.0000
vt 0.1175 0.3638 0.0000
vt 0.1452 0.3345 0.0000
vt 0.1771 0.3124 0.0000
vt 0.2122 0.2984 0.0000
vt 0.2500 0.2935 0.0000
vt 0.2878 0.2984 0.0000
vt 0.3229 0.3124 0.0000
vt 0.3548 0.3345 0.0000
vt 0.3825 0.3638 0.0000
vt 0.4055 0.3994 0.0000
vt 0.4228 0.4401 0.0000
vt 0.4337 0.4852 0.0000
vt 0.4375 0.5335 0.0000
vt 0.4337 0.5818 0.0000
vt 0.4228 0.6269 0.0000
vt 0.4055 0.6676 0.0000
vt 0.3825 0.7032 0.0000
vt 0.3548 0.7325 0.0000
vt 0.3229 0.7546 0.0000
vt 0.2878 0.7686 0.0000
vt 0.2500 0.7735 0.0000
vt 0.2122 0.7686 0.0000
vt 0.1771 0.7546 0.0000
vt 0.1452 0.7325 0.0000
vt 0.1175 0.7032 0.0000
vt 0.0945 0.6676 0.0000
vt 0.0772 0.6269 0.0000
vt 0.9240 0.0750 0.0000
vt 0.9038 0.0750 0.0000
vt 0.9038 0.0250 0.0000
vt 0.9240 0.0250 0.0000
vt 0.9439 0.0750 0.0000
vt 0.9439 0.0250 0.0000
vt 0.4760 0.0750 0.0000
vt 0.4561 0.0750 0.0000
vt 0.4561 0.0250 0.0000
vt 0.4760 0.0250 0.0000
vt 0.4962 0.0750 0.0000
vt 0.4962 0.0250 0.0000
vt 0.4360 0.0750 0.0000
vt 0.4360 0.0250 0.0000
vt 0.5168 0.0750 0.0000
vt 0.5168 0.0250 0.0000
vt 0.5390 0.0750 0.0000
vt 0.5390 0.0250 0.0000
vt 0.4143 0.0750 0.0000
vt 0.4143 0.0250 0.0000
vt 0.5637 0.0750 0.0000
vt 0.5637 0.0250 0.0000
vt 0.3894 0.0750 0.0000
vt 0.3894 0.0250 0.0000
vt 0.5917 0.0750 0.0000
vt 0.5917 0.0250 0.0000
vt 0.3589 0.0750 0.0000
vt 0.3589 0.0250 0.0000
vt 0.6237 0.0750 0.0000
vt 0.6237 0.0250 0.0000
vt 0.3192 0.0750 0.0000
vt 0.3192 0.0250 0.0000
vt 0.6601 0.0750 0.0000
vt 0.6601 0.0250 0.0000
vt 0.2662 0.0750 0.0000
vt 0.2662 0.0250 0.0000
vt 0.2000 0.0750 0.0000
vt 0.2000 0.0250 0.0000
vt 0.7000 0.0750 0.0000
vt 0.7000 0.0250 0.0000
vt 0.7399 0.0750 0.0000
vt 0.7399 0.0250 0.0000
vt 0.1338 0.0750 0.0000
vt 0.1338 0.0250 0.0000
vt 0.7763 0.0750 0.0000
vt 0.7763 0.0250 0.0000
vt 0.0808 0.0750 0.0000
vt 0.0808 0.0250 0.0000
vt 0.0411 0.0750 0.0000
vt 0.0411 0.0250 0.0000
vt 0.8083 0.0750 0.0000
vt 0.8083 0.0250 0.0000
vt 0.0106 0.0750 0.0000
vt 0.0106 0.0250 0.0000
vt 0.8363 0.0750 0.0000
vt 0.8363 0.0250 0.0000
vt -0.0143 0.0750 0.0000
vt -0.0143 0.0250 0.0000
vt 0.8610 0.0750 0.0000
vt 0.8610 0.0250 0.0000
vt 0.8832 0.0750 0.0000
vt 0.8832 0.0250 0.0000
vt -0.0360 0.0750 0.0000
vt -0.0360 0.0250 0.0000
vt 0.9640 0.0750 0.0000
vt 0.9640 0.0250 0.0000
vt 0.5663 0.4852 0.0000
vt 0.5625 0.5335 0.0000
vt 0.5663 0.5818 0.0000
vt 0.5772 0.6269 0.0000
vt 0.5945 0.6676 0.0000
vt 0.6175 0.7032 0.0000
vt 0.6452 0.7325 0.0000
vt 0.6771 0.7546 0.0000
vt 0.7122 0.7686 0.0000
vt 0.7500 0.7735 0.0000
vt 0.7878 0.7686 0.0000
vt 0.8229 0.7546 0.0000
vt 0.8548 0.7325 0.0000
vt 0.8825 0.7032 0.0000
vt 0.9055 0.6676 0.0000
vt 0.9228 0.6269 0.0000
vt 0.9337 0.5818 0.0000
vt 0.9375 0.5335 0.0000
vt 0.9337 0.4852 0.0000
vt 0.9228 0.4401 0.0000
vt 0.9055 0.3994 0.0000
vt 0.8825 0.3638 0.0000
vt 0.8548 0.3345 0.0000
vt 0.8229 0.3124 0.0000
vt 0.7878 0.2984 0.0000
vt 0.7500 0.2935 0.0000
vt 0.7122 0.2984 0.0000
vt 0.6771 0.3124 0.0000
vt 0.6452 0.3345 0.0000
vt 0.6175 0.3638 0.0000
vt 0.5945 0.3994 0.0000
vt 0.5772 0.4401 0.0000
# 130 texture coords

g OvalH_COL
usemtl wire_224086086
f 34/1/1 35/2/2 36/3/3 
f 14/17/4 41/18/5 42/19/6 
f 13/16/7 14/17/8 42/19/9 
f 13/16/10 42/19/11 43/20/12 
f 13/16/13 43/20/14 15/21/15 
f 12/15/16 13/16/17 15/21/18 
f 11/14/19 12/15/20 15/21/21 
f 11/14/22 15/21/23 16/22/24 
f 40/13/25 11/14/26 16/22/27 
f 40/13/28 16/22/29 44/23/30 
f 10/12/31 40/13/32 44/23/33 
f 10/12/34 44/23/35 45/24/36 
f 10/12/37 45/24/38 46/25/39 
f 9/11/40 10/12/41 46/25/42 
f 9/11/43 46/25/44 1/26/45 
f 8/10/46 9/11/47 1/26/48 
f 7/9/49 8/10/50 1/26/51 
f 7/9/52 1/26/53 2/27/54 
f 7/9/55 2/27/56 3/28/57 
f 39/8/58 7/9/59 3/28/60 
f 39/8/61 3/28/62 4/29/63 
f 38/7/64 39/8/65 4/29/66 
f 38/7/67 4/29/68 31/30/69 
f 6/6/70 38/7/71 31/30/72 
f 6/6/73 31/30/74 32/31/75 
f 5/5/76 6/6/77 32/31/78 
f 5/5/79 32/31/80 33/32/81 
f 37/4/82 5/5/83 33/32/84 
f 36/3/85 37/4/86 33/32/87 
f 34/1/88 36/3/89 33/32/90 
f 51/99/91 21/100/92 50/101/93 
f 51/99/94 50/101/95 49/102/96 
f 60/115/97 28/116/98 27/117/99 
f 60/115/100 27/117/101 26/118/102 
f 61/114/103 60/115/104 26/118/105 
f 29/113/106 61/114/107 26/118/108 
f 29/113/109 26/118/110 59/119/111 
f 29/113/112 59/119/113 25/120/114 
f 62/112/115 29/113/116 25/120/117 
f 62/112/118 25/120/119 58/121/120 
f 63/111/121 62/112/122 58/121/123 
f 63/111/124 58/121/125 57/122/126 
f 64/110/127 63/111/128 57/122/129 
f 30/109/130 64/110/131 57/122/132 
f 30/109/133 57/122/134 24/123/135 
f 17/108/136 30/109/137 24/123/138 
f 17/108/139 24/123/140 56/124/141 
f 17/108/142 56/124/143 23/125/144 
f 47/107/145 17/108/146 23/125/147 
f 18/106/148 47/107/149 23/125/150 
f 18/106/151 23/125/152 55/126/153 
f 19/105/154 18/106/155 55/126/156 
f 19/105/157 55/126/158 22/127/159 
f 20/104/160 19/105/161 22/127/162 
f 20/104/163 22/127/164 54/128/165 
f 48/103/166 20/104/167 54/128/168 
f 48/103/169 54/128/170 53/129/171 
f 49/102/172 48/103/173 53/129/174 
f 49/102/175 53/129/176 52/130/177 
f 51/99/178 49/102/179 52/130/180 
f 27/35/181 28/36/182 41/33/183 
f 41/33/184 14/34/185 27/35/186 
f 28/36/187 60/38/188 42/37/189 
f 42/37/190 41/33/191 28/36/192 
f 50/41/193 21/42/194 35/39/195 
f 35/39/196 34/40/197 50/41/198 
f 21/42/199 51/44/200 36/43/201 
f 36/43/202 35/39/203 21/42/204 
f 49/46/205 50/41/206 34/40/207 
f 34/40/208 33/45/209 49/46/210 
f 51/44/211 52/48/212 37/47/213 
f 37/47/214 36/43/215 51/44/216 
f 52/48/217 53/50/218 5/49/219 
f 5/49/220 37/47/221 52/48/222 
f 48/52/223 49/46/224 33/45/225 
f 33/45/226 32/51/227 48/52/228 
f 53/50/229 54/54/230 6/53/231 
f 6/53/232 5/49/233 53/50/234 
f 20/56/235 48/52/236 32/51/237 
f 32/51/238 31/55/239 20/56/240 
f 54/54/241 22/58/242 38/57/243 
f 38/57/244 6/53/245 54/54/246 
f 19/60/247 20/56/248 31/55/249 
f 31/55/250 4/59/251 19/60/252 
f 22/58/253 55/62/254 39/61/255 
f 39/61/256 38/57/257 22/58/258 
f 18/64/259 19/60/260 4/59/261 
f 4/59/262 3/63/263 18/64/264 
f 55/62/265 23/66/266 7/65/267 
f 7/65/268 39/61/269 55/62/270 
f 47/68/271 18/64/272 3/63/273 
f 3/63/274 2/67/275 47/68/276 
f 17/70/277 47/68/278 2/67/279 
f 2/67/280 1/69/281 17/70/282 
f 23/66/283 56/72/284 8/71/285 
f 8/71/286 7/65/287 23/66/288 
f 56/72/289 24/74/290 9/73/291 
f 9/73/292 8/71/293 56/72/294 
f 30/76/295 17/70/296 1/69/297 
f 1/69/298 46/75/299 30/76/300 
f 24/74/301 57/78/302 10/77/303 
f 10/77/304 9/73/305 24/74/306 
f 64/80/307 30/76/308 46/75/309 
f 46/75/310 45/79/311 64/80/312 
f 63/82/313 64/80/314 45/79/315 
f 45/79/316 44/81/317 63/82/318 
f 57/78/319 58/84/320 40/83/321 
f 40/83/322 10/77/323 57/78/324 
f 62/86/325 63/82/326 44/81/327 
f 44/81/328 16/85/329 62/86/330 
f 58/84/331 25/88/332 11/87/333 
f 11/87/334 40/83/335 58/84/336 
f 29/90/337 62/86/338 16/85/339 
f 16/85/340 15/89/341 29/90/342 
f 25/88/343 59/92/344 12/91/345 
f 12/91/346 11/87/347 25/88/348 
f 59/92/349 26/94/350 13/93/351 
f 13/93/352 12/91/353 59/92/354 
f 61/96/355 29/90/356 15/89/357 
f 15/89/358 43/95/359 61/96/360 
f 60/38/361 61/98/362 43/97/363 
f 43/97/364 42/37/365 60/38/366 
f 26/94/367 27/35/368 14/34/369 
f 14/34/370 13/93/371 26/94/372 
# 124 faces

