# 3ds Max Wavefront OBJ Exporter v0.97b - (c)2007 guruware
# File Created: 02.04.2017 13:18:13

mtllib def_MSH.mtl

#
# object Box001
#

v  -0.1875 -0.0156 0.1875
v  0.1875 -0.0156 0.1875
v  -0.2500 -0.0156 -0.1250
v  0.2500 -0.0156 -0.1250
v  -0.1875 0.0156 0.1875
v  0.2500 0.0156 0.1250
v  -0.2500 0.0156 -0.1250
v  0.1875 0.0156 -0.1875
v  -0.2500 -0.0156 0.1250
v  0.2500 -0.0156 0.1250
v  -0.1875 -0.0156 -0.1875
v  0.1875 -0.0156 -0.1875
v  -0.2500 0.0156 0.1250
v  0.1875 0.0156 0.1875
v  -0.1875 0.0156 -0.1875
v  0.2500 0.0156 -0.1250
v  -0.1875 -0.0156 0.1875
v  -0.1875 -0.0156 0.1875
v  0.1875 -0.0156 0.1875
v  0.1875 -0.0156 0.1875
v  -0.2500 -0.0156 -0.1250
v  -0.2500 -0.0156 -0.1250
v  0.2500 -0.0156 -0.1250
v  0.2500 -0.0156 -0.1250
v  -0.1875 0.0156 0.1875
v  -0.1875 0.0156 0.1875
v  0.2500 0.0156 0.1250
v  0.2500 0.0156 0.1250
v  -0.2500 0.0156 -0.1250
v  -0.2500 0.0156 -0.1250
v  0.1875 0.0156 -0.1875
v  0.1875 0.0156 -0.1875
v  -0.2500 -0.0156 0.1250
v  -0.2500 -0.0156 0.1250
v  0.2500 -0.0156 0.1250
v  0.2500 -0.0156 0.1250
v  -0.1875 -0.0156 -0.1875
v  -0.1875 -0.0156 -0.1875
v  0.1875 -0.0156 -0.1875
v  0.1875 -0.0156 -0.1875
v  -0.2500 0.0156 0.1250
v  -0.2500 0.0156 0.1250
v  0.1875 0.0156 0.1875
v  0.1875 0.0156 0.1875
v  -0.1875 0.0156 -0.1875
v  -0.1875 0.0156 -0.1875
v  0.2500 0.0156 -0.1250
v  0.2500 0.0156 -0.1250
# 48 vertices

vn 0.0000 -1.0000 -0.0000
vn 0.0000 -1.0000 -0.0000
vn 0.0000 -1.0000 -0.0000
vn 0.0000 -1.0000 -0.0000
vn 0.0000 -1.0000 -0.0000
vn 0.0000 -1.0000 -0.0000
vn 0.0000 1.0000 -0.0000
vn 0.0000 1.0000 -0.0000
vn 0.0000 1.0000 -0.0000
vn 0.0000 1.0000 -0.0000
vn 0.0000 1.0000 -0.0000
vn 0.0000 1.0000 -0.0000
vn 0.0000 0.0000 1.0000
vn 0.0000 0.0000 1.0000
vn 0.0000 0.0000 1.0000
vn 0.0000 0.0000 1.0000
vn 0.0000 0.0000 1.0000
vn 0.0000 0.0000 1.0000
vn 1.0000 0.0000 -0.0000
vn 1.0000 0.0000 -0.0000
vn 1.0000 0.0000 -0.0000
vn 1.0000 0.0000 -0.0000
vn 1.0000 0.0000 -0.0000
vn 1.0000 0.0000 -0.0000
vn 0.0000 0.0000 -1.0000
vn 0.0000 0.0000 -1.0000
vn 0.0000 0.0000 -1.0000
vn 0.0000 0.0000 -1.0000
vn 0.0000 0.0000 -1.0000
vn 0.0000 0.0000 -1.0000
vn -1.0000 0.0000 -0.0000
vn -1.0000 0.0000 -0.0000
vn -1.0000 0.0000 -0.0000
vn -1.0000 0.0000 -0.0000
vn -1.0000 0.0000 -0.0000
vn -1.0000 0.0000 -0.0000
vn 0.7071 0.0000 0.7071
vn 0.7071 0.0000 0.7071
vn 0.7071 0.0000 0.7071
vn 0.7071 0.0000 0.7071
vn 0.7071 0.0000 0.7071
vn 0.7071 0.0000 0.7071
vn -0.7071 0.0000 0.7071
vn -0.7071 0.0000 0.7071
vn -0.7071 0.0000 0.7071
vn -0.7071 0.0000 0.7071
vn -0.7071 0.0000 0.7071
vn -0.7071 0.0000 0.7071
vn 0.7071 0.0000 -0.7071
vn 0.7071 0.0000 -0.7071
vn 0.7071 0.0000 -0.7071
vn 0.7071 0.0000 -0.7071
vn 0.7071 0.0000 -0.7071
vn 0.7071 0.0000 -0.7071
vn -0.7071 0.0000 -0.7071
vn -0.7071 0.0000 -0.7071
vn -0.7071 0.0000 -0.7071
vn -0.7071 0.0000 -0.7071
vn -0.7071 0.0000 -0.7071
vn -0.7071 0.0000 -0.7071
vn 0.0000 -1.0000 -0.0000
vn 0.0000 -1.0000 -0.0000
vn 0.0000 -1.0000 -0.0000
vn 0.0000 -1.0000 -0.0000
vn 0.0000 -1.0000 -0.0000
vn 0.0000 -1.0000 -0.0000
vn 0.0000 1.0000 -0.0000
vn 0.0000 1.0000 -0.0000
vn 0.0000 1.0000 -0.0000
vn 0.0000 1.0000 -0.0000
vn 0.0000 1.0000 -0.0000
vn 0.0000 1.0000 -0.0000
vn 0.0000 -1.0000 -0.0000
vn 0.0000 -1.0000 -0.0000
vn 0.0000 -1.0000 -0.0000
vn 0.0000 -1.0000 -0.0000
vn 0.0000 -1.0000 -0.0000
vn 0.0000 -1.0000 -0.0000
vn 0.0000 1.0000 -0.0000
vn 0.0000 1.0000 -0.0000
vn 0.0000 1.0000 -0.0000
vn 0.0000 1.0000 -0.0000
vn 0.0000 1.0000 -0.0000
vn 0.0000 1.0000 -0.0000
# 84 vertex normals

vt 0.8516 0.5742 0.0000
vt 0.8516 0.9258 0.0000
vt 0.1484 0.9258 0.0000
vt 0.1484 0.5742 0.0000
vt 0.0313 0.1328 0.0000
vt 0.1484 0.0742 0.0000
vt 0.1484 0.4258 0.0000
vt 0.0313 0.3672 0.0000
vt 0.0234 0.4854 0.0000
vt 0.7266 0.4854 0.0000
vt 0.7266 0.5146 0.0000
vt 0.0234 0.5146 0.0000
vt 0.1406 0.4854 0.0000
vt 0.6094 0.4854 0.0000
vt 0.6094 0.5146 0.0000
vt 0.1406 0.5146 0.0000
vt 0.0234 0.4854 0.0000
vt 0.7266 0.4854 0.0000
vt 0.7266 0.5146 0.0000
vt 0.0234 0.5146 0.0000
vt 0.2921 0.4854 0.0000
vt 0.1406 0.4854 0.0000
vt 0.4579 0.4854 0.0000
vt 0.6094 0.4854 0.0000
vt 0.9688 0.6328 0.0000
vt 0.9688 0.8672 0.0000
vt 0.0313 0.8672 0.0000
vt 0.0313 0.6328 0.0000
vt 0.8516 0.0742 0.0000
vt 0.8516 0.4258 0.0000
vt 0.9688 0.1328 0.0000
vt 0.9688 0.3672 0.0000
vt 0.2921 0.4854 0.0000
vt 0.4579 0.4854 0.0000
vt 0.4579 0.5146 0.0000
vt 0.2921 0.5146 0.0000
vt 0.2921 0.4854 0.0000
vt 0.4579 0.4854 0.0000
vt 0.4579 0.5146 0.0000
vt 0.2921 0.5146 0.0000
vt 0.2921 0.4854 0.0000
vt 0.4579 0.4854 0.0000
vt 0.6094 0.5146 0.0000
vt 0.1406 0.5146 0.0000
vt 0.4579 0.5146 0.0000
vt 0.2921 0.5146 0.0000
vt 0.4579 0.5146 0.0000
vt 0.2921 0.5146 0.0000
# 48 texture coords

g Box001
usemtl Material__28
f 38/2/1 40/3/2 2/4/3 
f 2/4/4 18/1/5 38/2/6 
f 25/6/7 46/7/8 29/8/9 
f 29/8/10 13/5/11 25/6/12 
f 1/9/13 20/10/14 44/11/15 
f 44/11/16 5/12/17 1/9/18 
f 35/13/19 24/14/20 48/15/21 
f 48/15/22 6/16/23 35/13/24 
f 12/17/25 37/18/26 15/19/27 
f 15/19/28 8/20/29 12/17/30 
f 22/22/31 33/24/32 41/43/33 
f 41/43/34 7/44/35 22/22/36 
f 19/33/37 36/34/38 28/45/39 
f 28/45/40 14/46/41 19/33/42 
f 26/35/43 42/36/44 9/41/45 
f 9/41/46 17/42/47 26/35/48 
f 23/37/49 39/38/50 32/47/51 
f 32/47/52 16/48/53 23/37/54 
f 11/21/55 3/23/56 30/39/57 
f 30/39/58 45/40/59 11/21/60 
f 34/25/61 21/26/62 38/2/63 
f 38/2/64 18/1/65 34/25/66 
f 43/29/67 31/30/68 46/7/69 
f 46/7/70 25/6/71 43/29/72 
f 4/27/73 10/28/74 2/4/75 
f 2/4/76 40/3/77 4/27/78 
f 43/29/79 27/31/80 47/32/81 
f 47/32/82 31/30/83 43/29/84 
# 28 faces

