# 3ds Max Wavefront OBJ Exporter v0.97b - (c)2007 guruware
# File Created: 07.04.2019 15:11:01

#
# object Square_2in
#

v  1.00000012 -0.12500000 -0.99999982
v  -0.99999982 -0.12500000 -1.00000012
v  -1.00000012 -0.12500000 0.99999982
v  0.99999982 -0.12500000 1.00000012
v  1.00000012 0.00000000 -0.99999982
v  -0.99999982 0.00000000 -1.00000012
v  -1.00000012 0.00000000 0.99999982
v  0.99999982 0.00000000 1.00000012
v  1.00000012 -0.12500000 -0.99999982
v  -0.99999982 -0.12500000 -1.00000012
v  -1.00000012 -0.12500000 0.99999982
v  0.99999982 -0.12500000 1.00000012
v  1.00000012 0.00000000 -0.99999982
v  -0.99999982 0.00000000 -1.00000012
v  -1.00000012 0.00000000 0.99999982
v  0.99999982 0.00000000 1.00000012
# 16 vertices

vn 0.00000015 0.00000000 -1.00000000
vn 0.00000015 0.00000000 -1.00000000
vn 0.00000015 0.00000000 -1.00000000
vn 0.00000015 0.00000000 -1.00000000
vn 0.00000015 0.00000000 -1.00000000
vn 0.00000015 0.00000000 -1.00000000
vn -1.00000000 0.00000000 -0.00000015
vn -1.00000000 0.00000000 -0.00000015
vn -1.00000000 0.00000000 -0.00000015
vn -1.00000000 0.00000000 -0.00000015
vn -1.00000000 0.00000000 -0.00000015
vn -1.00000000 0.00000000 -0.00000015
vn -0.00000015 0.00000000 1.00000000
vn -0.00000015 0.00000000 1.00000000
vn -0.00000015 0.00000000 1.00000000
vn -0.00000015 0.00000000 1.00000000
vn -0.00000015 0.00000000 1.00000000
vn -0.00000015 0.00000000 1.00000000
vn 1.00000000 0.00000000 0.00000015
vn 1.00000000 0.00000000 0.00000015
vn 1.00000000 0.00000000 0.00000015
vn 1.00000000 0.00000000 0.00000015
vn 1.00000000 0.00000000 0.00000015
vn 1.00000000 0.00000000 0.00000015
vn 0.00000000 -1.00000000 -0.00000000
vn 0.00000000 -1.00000000 -0.00000000
vn 0.00000000 -1.00000000 -0.00000000
vn 0.00000000 -1.00000000 -0.00000000
vn 0.00000000 -1.00000000 -0.00000000
vn 0.00000000 -1.00000000 -0.00000000
vn 0.00000000 1.00000000 -0.00000000
vn 0.00000000 1.00000000 -0.00000000
vn 0.00000000 1.00000000 -0.00000000
vn 0.00000000 1.00000000 -0.00000000
vn 0.00000000 1.00000000 -0.00000000
vn 0.00000000 1.00000000 -0.00000000
# 36 vertex normals

vt 0.89999998 0.99999994 0.00000000
vt 0.10000002 0.99999994 0.00000000
vt 0.10000002 0.99999994 0.00000000
vt 0.89999998 0.99999994 0.00000000
vt 0.10000007 0.65217388 0.00000000
vt 0.10000007 0.65217388 0.00000000
vt 0.89999998 0.65217388 0.00000000
vt 0.89999998 0.65217388 0.00000000
vt 0.89999998 0.99999994 0.00000000
vt 0.10000002 0.99999994 0.00000000
vt 0.10000007 0.65217388 0.00000000
vt 0.89999998 0.65217388 0.00000000
vt 0.89999998 0.99999994 0.00000000
vt 0.10000002 0.99999994 0.00000000
vt 0.10000007 0.65217388 0.00000000
vt 0.89999998 0.65217388 0.00000000
# 16 texture coords

o Square_2in
g Square_2in
f 6/3/1 5/4/2 1/1/3 
f 1/1/4 2/2/5 6/3/6 
f 7/6/7 6/3/8 2/2/9 
f 2/2/10 3/5/11 7/6/12 
f 8/8/13 7/6/14 3/5/15 
f 3/5/16 4/7/17 8/8/18 
f 5/4/19 8/8/20 4/7/21 
f 4/7/22 1/1/23 5/4/24 
f 11/11/25 10/10/26 9/9/27 
f 9/9/28 12/12/29 11/11/30 
f 13/13/31 14/14/32 15/15/33 
f 15/15/34 16/16/35 13/13/36 
# 12 faces

