# 3ds Max Wavefront OBJ Exporter v0.97b - (c)2007 guruware
# File Created: 28.04.2019 22:39:10

#
# object Square_3in
#

v  1.50000012 -0.12499999 -1.49999988
v  -1.49999988 -0.12499999 -1.50000012
v  -1.50000012 -0.12500000 1.49999988
v  1.49999988 -0.12500000 1.50000012
v  1.50000012 0.00000000 -1.49999988
v  -1.49999988 0.00000000 -1.50000012
v  -1.50000012 0.00000000 1.49999988
v  1.49999988 0.00000000 1.50000012
v  1.50000012 -0.12499999 -1.49999988
v  -1.49999988 -0.12499999 -1.50000012
v  -1.50000012 -0.12500000 1.49999988
v  1.49999988 -0.12500000 1.50000012
v  1.50000012 0.00000000 -1.49999988
v  -1.49999988 0.00000000 -1.50000012
v  -1.50000012 0.00000000 1.49999988
v  1.49999988 0.00000000 1.50000012
v  1.50000012 -0.12499999 -1.49999988
v  -1.49999988 -0.12499999 -1.50000012
v  -1.50000012 -0.12500000 1.49999988
v  1.49999988 -0.12500000 1.50000012
v  1.50000012 0.00000000 -1.49999988
v  -1.49999988 0.00000000 -1.50000012
v  -1.50000012 0.00000000 1.49999988
v  1.49999988 0.00000000 1.50000012
# 24 vertices

vn 0.00000008 0.00000000 -1.00000000
vn 0.00000008 0.00000000 -1.00000000
vn 0.00000008 0.00000000 -1.00000000
vn 0.00000008 0.00000000 -1.00000000
vn 0.00000008 0.00000000 -1.00000000
vn 0.00000008 0.00000000 -1.00000000
vn -1.00000000 0.00000000 -0.00000008
vn -1.00000000 0.00000000 -0.00000008
vn -1.00000000 0.00000000 -0.00000008
vn -1.00000000 0.00000000 -0.00000008
vn -1.00000000 0.00000000 -0.00000008
vn -1.00000000 0.00000000 -0.00000008
vn -0.00000008 0.00000000 1.00000000
vn -0.00000008 0.00000000 1.00000000
vn -0.00000008 0.00000000 1.00000000
vn -0.00000008 0.00000000 1.00000000
vn -0.00000008 0.00000000 1.00000000
vn -0.00000008 0.00000000 1.00000000
vn 1.00000000 0.00000000 0.00000008
vn 1.00000000 0.00000000 0.00000008
vn 1.00000000 0.00000000 0.00000008
vn 1.00000000 0.00000000 0.00000008
vn 1.00000000 0.00000000 0.00000008
vn 1.00000000 0.00000000 0.00000008
vn 0.00000000 -1.00000000 -0.00000000
vn 0.00000000 -1.00000000 -0.00000000
vn 0.00000000 -1.00000000 -0.00000000
vn 0.00000000 -1.00000000 -0.00000000
vn 0.00000000 -1.00000000 -0.00000000
vn 0.00000000 -1.00000000 -0.00000000
vn 0.00000000 1.00000000 -0.00000000
vn 0.00000000 1.00000000 -0.00000000
vn 0.00000000 1.00000000 -0.00000000
vn 0.00000000 1.00000000 -0.00000000
vn 0.00000000 1.00000000 -0.00000000
vn 0.00000000 1.00000000 -0.00000000
# 36 vertex normals

vt 0.79999995 0.65217388 0.00000000
vt 0.20000000 0.65217388 0.00000000
vt 0.20000000 0.65217388 0.00000000
vt 0.79999995 0.65217388 0.00000000
vt 0.19999999 0.39130437 0.00000000
vt 0.19999999 0.39130437 0.00000000
vt 0.79999995 0.39130431 0.00000000
vt 0.79999995 0.39130431 0.00000000
vt 0.79999995 0.65217388 0.00000000
vt 0.20000000 0.65217388 0.00000000
vt 0.19999999 0.39130437 0.00000000
vt 0.79999995 0.39130431 0.00000000
vt 0.79999995 0.65217388 0.00000000
vt 0.20000000 0.65217388 0.00000000
vt 0.19999999 0.39130437 0.00000000
vt 0.79999995 0.39130431 0.00000000
# 16 texture coords

o Square_3in
g Square_3in
f 6/3/1 21/4/2 1/1/3 
f 1/1/4 18/2/5 6/3/6 
f 7/6/7 22/3/8 2/2/9 
f 2/2/10 19/5/11 7/6/12 
f 8/8/13 23/6/14 3/5/15 
f 3/5/16 20/7/17 8/8/18 
f 5/4/19 24/8/20 4/7/21 
f 4/7/22 17/1/23 5/4/24 
f 11/11/25 10/10/26 9/9/27 
f 9/9/28 12/12/29 11/11/30 
f 13/13/31 14/14/32 15/15/33 
f 15/15/34 16/16/35 13/13/36 
# 12 faces

