# 3ds Max Wavefront OBJ Exporter v0.97b - (c)2007 guruware
# File Created: 06.03.2019 15:29:29

#
# object 6edf1d63445e4518a7abd1997fd0c9ae
#

v  0.20128614 1.16914678 0.00936900
v  -0.01834725 1.04813850 0.07587637
v  0.29524499 0.94740862 0.10744800
v  0.39237902 0.73317748 0.05778937
v  0.40090501 0.72200435 -0.02341763
v  0.19727886 1.18920481 -0.10157362
v  0.28060800 1.00456309 -0.13554189
v  -0.01663200 1.09635937 -0.16277963
v  0.03968213 1.13132060 -0.19965112
v  -0.17455876 0.71610415 -0.11807925
v  0.32333964 0.37114426 0.17306213
v  0.14339925 0.54876375 0.29914761
v  0.29926613 0.93924147 -0.20639175
v  0.09866062 0.94521821 -0.28459463
v  -0.10747275 0.49520060 -0.21661726
v  0.03028200 0.64588797 -0.29325712
v  0.08500800 0.20736976 -0.24583763
v  -0.11608688 0.09589012 -0.04062525
v  0.00320962 0.01288687 -0.09997950
v  0.00595125 0.13601363 -0.20421714
v  -0.08150437 0.22583437 -0.18454126
v  0.36758888 0.40566936 -0.13753162
v  0.36174449 0.40320712 -0.15014175
v  0.29178038 0.10456912 0.10461113
v  0.24977100 0.03051975 0.09890850
v  0.22803339 0.18109950 -0.18876749
v  0.17705849 -0.01726463 -0.03212662
v  -0.10815112 0.81593138 0.18760464
v  -0.07069275 0.24598087 0.24558675
v  -0.20315024 0.62810779 -0.00651862
v  -0.16354388 0.17366549 0.05905912
v  0.10261351 0.53001374 0.30977663
v  -0.01405163 0.23573700 0.26697898
v  -0.06672900 0.64446265 0.26494536
v  0.20128614 1.16914678 0.00936900
v  0.20128614 1.16914678 0.00936900
v  -0.01834725 1.04813850 0.07587637
v  -0.01834725 1.04813850 0.07587637
v  -0.01834725 1.04813850 0.07587637
v  -0.01834725 1.04813850 0.07587637
v  0.29524499 0.94740862 0.10744800
v  0.29524499 0.94740862 0.10744800
v  0.29524499 0.94740862 0.10744800
v  0.29524499 0.94740862 0.10744800
v  0.29524499 0.94740862 0.10744800
v  0.39237902 0.73317748 0.05778937
v  0.39237902 0.73317748 0.05778937
v  0.40090501 0.72200435 -0.02341763
v  0.40090501 0.72200435 -0.02341763
v  0.40090501 0.72200435 -0.02341763
v  0.19727886 1.18920481 -0.10157362
v  0.19727886 1.18920481 -0.10157362
v  0.19727886 1.18920481 -0.10157362
v  0.28060800 1.00456309 -0.13554189
v  0.28060800 1.00456309 -0.13554189
v  0.28060800 1.00456309 -0.13554189
v  -0.01663200 1.09635937 -0.16277963
v  -0.01663200 1.09635937 -0.16277963
v  -0.01663200 1.09635937 -0.16277963
v  0.03968213 1.13132060 -0.19965112
v  0.03968213 1.13132060 -0.19965112
v  -0.17455876 0.71610415 -0.11807925
v  -0.17455876 0.71610415 -0.11807925
v  -0.17455876 0.71610415 -0.11807925
v  -0.17455876 0.71610415 -0.11807925
v  0.32333964 0.37114426 0.17306213
v  0.32333964 0.37114426 0.17306213
v  0.32333964 0.37114426 0.17306213
v  0.32333964 0.37114426 0.17306213
v  0.14339925 0.54876375 0.29914761
v  0.14339925 0.54876375 0.29914761
v  0.14339925 0.54876375 0.29914761
v  0.29926613 0.93924147 -0.20639175
v  0.29926613 0.93924147 -0.20639175
v  0.29926613 0.93924147 -0.20639175
v  0.09866062 0.94521821 -0.28459463
v  0.09866062 0.94521821 -0.28459463
v  0.09866062 0.94521821 -0.28459463
v  0.09866062 0.94521821 -0.28459463
v  -0.10747275 0.49520060 -0.21661726
v  -0.10747275 0.49520060 -0.21661726
v  -0.10747275 0.49520060 -0.21661726
v  -0.10747275 0.49520060 -0.21661726
v  0.03028200 0.64588797 -0.29325712
v  0.03028200 0.64588797 -0.29325712
v  0.03028200 0.64588797 -0.29325712
v  0.08500800 0.20736976 -0.24583763
v  0.08500800 0.20736976 -0.24583763
v  0.08500800 0.20736976 -0.24583763
v  -0.11608688 0.09589012 -0.04062525
v  -0.11608688 0.09589012 -0.04062525
v  -0.11608688 0.09589012 -0.04062525
v  -0.11608688 0.09589012 -0.04062525
v  0.00320962 0.01288687 -0.09997950
v  0.00320962 0.01288687 -0.09997950
v  0.00595125 0.13601363 -0.20421714
v  0.00595125 0.13601363 -0.20421714
v  0.00595125 0.13601363 -0.20421714
v  -0.08150437 0.22583437 -0.18454126
v  -0.08150437 0.22583437 -0.18454126
v  0.36758888 0.40566936 -0.13753162
v  0.36758888 0.40566936 -0.13753162
v  0.36758888 0.40566936 -0.13753162
v  0.36174449 0.40320712 -0.15014175
v  0.36174449 0.40320712 -0.15014175
v  0.36174449 0.40320712 -0.15014175
v  0.29178038 0.10456912 0.10461113
v  0.29178038 0.10456912 0.10461113
v  0.24977100 0.03051975 0.09890850
v  0.24977100 0.03051975 0.09890850
v  0.22803339 0.18109950 -0.18876749
v  0.22803339 0.18109950 -0.18876749
v  0.22803339 0.18109950 -0.18876749
v  0.22803339 0.18109950 -0.18876749
v  0.22803339 0.18109950 -0.18876749
v  0.17705849 -0.01726463 -0.03212662
v  0.17705849 -0.01726463 -0.03212662
v  0.17705849 -0.01726463 -0.03212662
v  -0.10815112 0.81593138 0.18760464
v  -0.10815112 0.81593138 0.18760464
v  -0.10815112 0.81593138 0.18760464
v  -0.07069275 0.24598087 0.24558675
v  -0.07069275 0.24598087 0.24558675
v  -0.07069275 0.24598087 0.24558675
v  -0.20315024 0.62810779 -0.00651862
v  -0.20315024 0.62810779 -0.00651862
v  -0.20315024 0.62810779 -0.00651862
v  -0.16354388 0.17366549 0.05905912
v  -0.16354388 0.17366549 0.05905912
v  -0.16354388 0.17366549 0.05905912
v  -0.16354388 0.17366549 0.05905912
v  0.10261351 0.53001374 0.30977663
v  0.10261351 0.53001374 0.30977663
v  -0.01405163 0.23573700 0.26697898
v  -0.01405163 0.23573700 0.26697898
v  -0.01405163 0.23573700 0.26697898
v  -0.01405163 0.23573700 0.26697898
v  -0.01405163 0.23573700 0.26697898
v  -0.06672900 0.64446265 0.26494536
v  -0.06672900 0.64446265 0.26494536
# 140 vertices

vn 0.91349262 0.40486413 0.04020337
vn 0.91349238 0.40486458 0.04020349
vn 0.91349238 0.40486473 0.04020251
vn 0.91349280 0.40486374 0.04020231
vn 0.40429816 0.33875653 -0.84958047
vn 0.51196969 0.37337354 -0.77361441
vn 0.45406044 0.48502800 -0.74738008
vn 0.33158258 0.47668478 -0.81414044
vn -0.43378958 0.88376695 0.17544974
vn -0.43378961 0.88376695 0.17544970
vn -0.43378961 0.88376695 0.17544971
vn 0.36121193 -0.05557675 -0.93082607
vn 0.36121166 -0.05557679 -0.93082619
vn 0.36121148 -0.05557697 -0.93082625
vn 0.36121196 -0.05557707 -0.93082601
vn -0.60882795 0.16155653 -0.77667755
vn -0.60882807 0.16155663 -0.77667743
vn -0.60882831 0.16155668 -0.77667725
vn -0.60882813 0.16155645 -0.77667743
vn -0.93082702 -0.13039160 -0.34140757
vn -0.93082708 -0.13039142 -0.34140742
vn -0.93082720 -0.13039139 -0.34140706
vn -0.93082702 -0.13039184 -0.34140742
vn -0.35589141 -0.14425905 -0.92332584
vn -0.35589078 -0.14425904 -0.92332608
vn -0.35589051 -0.14425881 -0.92332625
vn -0.35589078 -0.14425841 -0.92332619
vn 0.83931816 -0.45301235 -0.30054095
vn 0.83931786 -0.45301217 -0.30054206
vn 0.83931786 -0.45301211 -0.30054212
vn 0.18154621 -0.63774800 -0.74854422
vn 0.18154623 -0.63774800 -0.74854422
vn 0.18154623 -0.63774800 -0.74854422
vn 0.90113950 0.05997787 -0.42936027
vn 0.90114051 0.05997823 -0.42935807
vn 0.90114057 0.05997831 -0.42935798
vn 0.90113932 0.05997935 -0.42936045
vn -0.91807824 0.38977659 0.07215647
vn -0.91807812 0.38977697 0.07215577
vn -0.91807789 0.38977745 0.07215618
vn -0.91807812 0.38977680 0.07215693
vn -0.91807824 0.38977650 0.07215670
vn -0.91807824 0.38977650 0.07215670
vn -0.91807824 0.38977650 0.07215670
vn 0.35775462 -0.27175975 0.89339703
vn 0.35775474 -0.27176011 0.89339685
vn 0.35775396 -0.27176106 0.89339691
vn 0.35775140 -0.27175969 0.89339834
vn -0.32815614 -0.81417000 0.47899973
vn -0.32815608 -0.81417000 0.47899973
vn -0.32815614 -0.81417000 0.47899970
vn -0.60882646 0.16155696 -0.77667862
vn -0.60882783 0.16155609 -0.77667773
vn -0.60882759 0.16155559 -0.77667803
vn -0.60882574 0.16155462 -0.77667969
vn 0.91349214 0.40486509 0.04020377
vn 0.91349214 0.40486506 0.04020371
vn 0.91349214 0.40486515 0.04020371
vn 0.26222801 0.74291235 -0.61588776
vn 0.26222801 0.74291235 -0.61588776
vn 0.26222798 0.74291235 -0.61588776
vn 0.84159523 -0.53673929 0.06023615
vn 0.98128551 -0.14785005 0.12336565
vn 0.97241539 -0.05704564 -0.22617285
vn 0.83931756 -0.45301157 -0.30054373
vn -0.43378839 0.88376737 0.17545058
vn -0.43378973 0.88376671 0.17545050
vn -0.43378949 0.88376713 0.17544904
vn -0.43378887 0.88376743 0.17544912
vn 0.36121130 -0.05557730 -0.93082631
vn 0.36121142 -0.05557716 -0.93082625
vn 0.36121112 -0.05557700 -0.93082637
vn 0.36121106 -0.05557734 -0.93082637
vn -0.63696498 -0.48978955 -0.59529978
vn -0.63696581 -0.48978892 -0.59529942
vn -0.63696617 -0.48978946 -0.59529853
vn -0.63696510 -0.48979008 -0.59529918
vn -0.35589057 -0.14425881 -0.92332619
vn -0.35589051 -0.14425881 -0.92332625
vn -0.35589051 -0.14425883 -0.92332625
vn -0.93082702 -0.13039100 -0.34140772
vn -0.93082714 -0.13039127 -0.34140724
vn -0.93082702 -0.13039148 -0.34140751
vn -0.93082678 -0.13039157 -0.34140816
vn 0.98128533 -0.14784917 0.12336837
vn 0.98128551 -0.14785008 0.12336564
vn 0.98128545 -0.14785078 0.12336554
vn 0.98128486 -0.14785184 0.12336869
vn 0.35775867 -0.27176178 0.89339483
vn 0.35775486 -0.27176052 0.89339674
vn 0.35775465 -0.27175996 0.89339697
vn 0.35775715 -0.27175730 0.89339674
vn 0.64501059 0.11742260 0.75509816
vn 0.64501083 0.11742312 0.75509793
vn 0.64501214 0.11742253 0.75509685
vn 0.64501143 0.11742199 0.75509757
vn 0.83931667 -0.45301312 -0.30054399
vn 0.83931696 -0.45301259 -0.30054390
vn 0.83931673 -0.45301244 -0.30054474
vn 0.83931643 -0.45301330 -0.30054423
vn -0.35960594 -0.04170869 0.93217164
vn -0.35272428 0.00375161 0.93571979
vn -0.27512425 -0.03067750 0.96091908
vn -0.28318849 -0.04372684 0.95806694
vn 0.18154645 -0.63774973 -0.74854267
vn 0.18154645 -0.63774985 -0.74854261
vn 0.18154651 -0.63774979 -0.74854261
vn 0.18154652 -0.63774973 -0.74854267
vn 0.04345346 0.41947350 0.90672696
vn 0.04345348 0.41947356 0.90672696
vn 0.04345348 0.41947356 0.90672696
vn 0.04345347 0.41947353 0.90672696
vn 0.04345557 0.41947514 0.90672612
vn 0.04345493 0.41947499 0.90672618
vn 0.04345655 0.41947705 0.90672517
vn 0.04345699 0.41947624 0.90672553
vn 0.04345414 0.41947535 0.90672606
vn 0.04345414 0.41947532 0.90672606
vn 0.04345414 0.41947529 0.90672612
vn -0.89312953 -0.01295878 0.44961280
vn -0.89312953 -0.01295878 0.44961283
vn -0.89312953 -0.01295878 0.44961286
vn -0.89312947 -0.01295814 0.44961303
vn -0.89312935 -0.01295840 0.44961327
vn -0.89312941 -0.01295854 0.44961312
vn -0.89312977 -0.01295851 0.44961244
vn -0.32815772 -0.81416881 0.47900066
vn -0.32815793 -0.81416941 0.47899953
vn -0.32815894 -0.81416881 0.47899985
vn -0.32815823 -0.81416857 0.47900072
vn -0.32815799 -0.81416970 0.47899899
vn -0.32815799 -0.81416970 0.47899896
vn -0.32815799 -0.81416965 0.47899905
vn 0.90558201 0.42417085 0.00056464
vn 0.92861539 0.36050048 -0.08782302
vn 0.96304268 0.26929617 0.00533121
vn 0.91349214 0.40486515 0.04020364
vn -0.32815793 -0.81416875 0.47900066
vn -0.32815796 -0.81416869 0.47900069
vn -0.32815796 -0.81416875 0.47900066
# 140 vertex normals

vt 0.04541800 0.66814798 0.00000000
vt 0.16433699 0.74363798 0.00000000
vt 0.11307700 0.84406197 0.00000000
vt 0.05758500 0.81558901 0.00000000
vt 0.28281999 0.79742002 0.00000000
vt 0.20980699 0.88872701 0.00000000
vt 0.68240100 0.73621100 0.00000000
vt 0.61688399 0.64100200 0.00000000
vt 0.63869298 0.60624403 0.00000000
vt 0.20728600 0.71792299 0.00000000
vt 0.29949400 0.48393199 0.00000000
vt 0.41913301 0.68180197 0.00000000
vt 0.67121100 0.40573600 0.00000000
vt 0.52343798 0.55859900 0.00000000
vt 0.52343899 0.37264600 0.00000000
vt 0.61889499 0.29068300 0.00000000
vt 0.79515702 0.12236900 0.00000000
vt 0.64030898 0.14331201 0.00000000
vt 0.73009801 0.06951500 0.00000000
vt 0.53922498 0.11002000 0.00000000
vt 0.60297602 0.07826400 0.00000000
vt 0.39283800 0.39305699 0.00000000
vt 0.29280499 0.48169699 0.00000000
vt 0.52318299 0.36848101 0.00000000
vt 0.47659299 0.42332301 0.00000000
vt 0.17112100 0.58567601 0.00000000
vt 0.75445300 0.58154798 0.00000000
vt 0.72950000 0.36446199 0.00000000
vt 0.81154001 0.47035900 0.00000000
vt 0.16768600 0.38481000 0.00000000
vt 0.07938000 0.20290200 0.00000000
vt 0.29314899 0.24866299 0.00000000
vt 0.27364600 0.29113099 0.00000000
vt 0.23333900 0.02917800 0.00000000
vt 0.25679699 0.00012700 0.00000000
vt 0.39090800 0.00012700 0.00000000
vt 0.13360400 0.57042903 0.00000000
vt 0.75268602 0.72574198 0.00000000
vt 0.66351098 0.00012700 0.00000000
vt 0.00012700 0.37662199 0.00000000
vt 0.01308000 0.39982000 0.00000000
vt 0.38867599 0.24393500 0.00000000
vt 0.91600502 0.18217400 0.00000000
vt 0.95398802 0.18518600 0.00000000
vt 0.98415703 0.38108101 0.00000000
vt 0.87035400 0.40011400 0.00000000
vt 0.50724697 0.26667500 0.00000000
vt 0.99987298 0.40346301 0.00000000
vt 0.91333300 0.67491800 0.00000000
vt 0.44552901 0.06144600 0.00000000
vt 0.46206200 0.15546000 0.00000000
# 51 texture coords

o 6edf1d63445e4518a7abd1997fd0c9ae
g 6edf1d63445e4518a7abd1997fd0c9ae
f 45/1/1 56/2/2 6/3/3 35/4/4 
f 51/3/5 55/2/6 79/5/7 9/6/8 
f 52/7/9 61/8/10 57/9/11 
f 73/10/12 106/11/13 16/12/14 76/5/15 
f 63/13/16 77/14/17 86/15/18 15/16/19 
f 31/17/20 82/16/21 100/18/22 92/19/23 
f 21/18/24 81/16/25 89/20/26 98/21/27 
f 111/22/28 104/11/29 102/23/30 
f 20/24/31 88/25/32 115/22/33 
f 23/11/34 13/10/35 49/26/36 103/23/37 
f 38/27/38 65/13/39 127/28/40 28/29/41 
f 37/27/42 59/9/43 10/13/44 
f 67/30/45 138/31/46 25/32/47 24/33/48 
f 135/34/49 122/35/50 129/36/51 
f 60/8/52 78/14/53 62/13/54 58/9/55 
f 43/1/56 47/37/57 5/26/58 
f 74/10/59 14/5/60 54/2/61 
f 101/23/62 68/30/63 108/33/64 112/22/65 
f 36/38/66 53/7/67 8/9/68 2/27/69 
f 84/12/70 105/11/71 26/22/72 87/25/73 
f 93/19/74 99/18/75 97/21/76 19/39/77 
f 85/15/78 17/20/79 80/16/80 
f 64/13/81 83/16/82 131/17/83 30/28/84 
f 46/37/85 69/30/86 22/23/87 48/26/88 
f 133/40/89 33/31/90 66/30/91 71/41/92 
f 72/41/93 11/30/94 4/37/95 42/1/96 
f 113/22/97 107/33/98 110/32/99 117/42/100 
f 123/43/101 134/44/102 132/45/103 139/46/104 
f 96/24/105 114/22/106 116/42/107 94/47/108 
f 121/29/109 12/48/110 41/49/111 39/27/112 
f 120/29/113 140/46/114 32/45/115 70/48/116 
f 1/38/117 40/27/118 3/49/119 
f 130/17/120 29/43/121 125/28/122 
f 119/29/123 126/28/124 124/43/125 34/46/126 
f 90/50/127 118/42/128 109/32/129 137/34/130 
f 18/50/131 95/51/132 27/42/133 
f 50/26/134 75/10/135 7/2/136 44/1/137 
f 136/34/138 128/36/139 91/50/140 
# 26 polygons - 12 triangles

