# 3ds Max Wavefront OBJ Exporter v0.97b - (c)2007 guruware
# File Created: 11.03.2017 12:29:57

mtllib CartoucheH_COL.mtl

#
# object CartoucheH_COL
#

v  -0.4428 0.0313 -0.3200
v  -0.4675 0.0313 -0.2439
v  -0.4854 0.0313 -0.1629
v  -0.4963 0.0313 -0.0804
v  -0.5000 0.0312 0.0000
v  -0.4963 0.0313 0.0804
v  -0.4854 0.0313 0.1629
v  -0.4675 0.0312 0.2439
v  -0.4428 0.0313 0.3200
v  0.4428 0.0313 0.3200
v  0.4675 0.0313 0.2439
v  0.4854 0.0313 0.1629
v  0.4963 0.0312 0.0804
v  0.5000 0.0312 -0.0000
v  0.4963 0.0313 -0.0804
v  0.4854 0.0313 -0.1629
v  0.4675 0.0313 -0.2439
v  0.4428 0.0313 -0.3200
v  -0.4428 -0.0313 -0.3200
v  -0.4675 -0.0313 -0.2439
v  -0.4854 -0.0313 -0.1629
v  -0.4963 -0.0313 -0.0804
v  -0.5000 -0.0313 0.0000
v  -0.4963 -0.0313 0.0804
v  -0.4854 -0.0313 0.1629
v  -0.4675 -0.0313 0.2439
v  -0.4428 -0.0313 0.3200
v  0.4428 -0.0313 0.3200
v  0.4675 -0.0313 0.2439
v  0.4854 -0.0313 0.1629
v  0.4963 -0.0313 0.0804
v  0.5000 -0.0313 -0.0000
v  0.4963 -0.0313 -0.0804
v  0.4854 -0.0313 -0.1629
v  0.4675 -0.0313 -0.2439
v  0.4428 -0.0313 -0.3200
# 36 vertices

vn -0.0000 1.0000 -0.0000
vn 0.0000 1.0000 -0.0000
vn -0.0000 1.0000 -0.0000
vn 0.0000 1.0000 -0.0000
vn 0.0000 1.0000 -0.0000
vn 0.0000 1.0000 -0.0000
vn 0.0000 1.0000 -0.0000
vn 0.0000 1.0000 -0.0000
vn 0.0000 1.0000 -0.0000
vn 0.0000 1.0000 -0.0000
vn 0.0000 1.0000 -0.0000
vn 0.0000 1.0000 -0.0000
vn 0.0000 1.0000 -0.0000
vn 0.0000 1.0000 -0.0000
vn 0.0000 1.0000 -0.0000
vn 0.0000 1.0000 -0.0000
vn 0.0000 1.0000 -0.0000
vn 0.0000 1.0000 0.0000
vn 0.0000 1.0000 0.0000
vn 0.0000 1.0000 -0.0000
vn 0.0000 1.0000 0.0000
vn 0.0000 1.0000 0.0000
vn 0.0000 1.0000 0.0000
vn 0.0000 1.0000 0.0000
vn 0.0000 1.0000 0.0000
vn 0.0000 1.0000 0.0000
vn 0.0000 1.0000 0.0000
vn 0.0000 1.0000 0.0000
vn 0.0000 1.0000 0.0000
vn 0.0000 1.0000 -0.0000
vn 0.0000 1.0000 -0.0000
vn 0.0000 1.0000 0.0000
vn 0.0000 1.0000 -0.0000
vn 0.0000 1.0000 -0.0000
vn 0.0000 1.0000 -0.0000
vn 0.0000 1.0000 -0.0000
vn 0.0000 1.0000 -0.0000
vn 0.0000 1.0000 -0.0000
vn -0.0000 1.0000 0.0000
vn -0.0000 1.0000 -0.0000
vn 0.0000 1.0000 -0.0000
vn -0.0000 1.0000 0.0000
vn -0.0000 1.0000 -0.0000
vn -0.0000 1.0000 0.0000
vn -0.0000 1.0000 0.0000
vn -0.0000 1.0000 -0.0000
vn -0.0000 1.0000 -0.0000
vn -0.0000 1.0000 0.0000
vn 0.0000 -1.0000 -0.0000
vn 0.0000 -1.0000 -0.0000
vn 0.0000 -1.0000 -0.0000
vn 0.0000 -1.0000 -0.0000
vn 0.0000 -1.0000 -0.0000
vn 0.0000 -1.0000 -0.0000
vn 0.0000 -1.0000 -0.0000
vn 0.0000 -1.0000 -0.0000
vn 0.0000 -1.0000 -0.0000
vn 0.0000 -1.0000 -0.0000
vn 0.0000 -1.0000 -0.0000
vn 0.0000 -1.0000 -0.0000
vn 0.0000 -1.0000 -0.0000
vn 0.0000 -1.0000 -0.0000
vn 0.0000 -1.0000 -0.0000
vn 0.0000 -1.0000 -0.0000
vn 0.0000 -1.0000 -0.0000
vn 0.0000 -1.0000 -0.0000
vn 0.0000 -1.0000 -0.0000
vn 0.0000 -1.0000 -0.0000
vn 0.0000 -1.0000 -0.0000
vn 0.0000 -1.0000 -0.0000
vn 0.0000 -1.0000 -0.0000
vn 0.0000 -1.0000 -0.0000
vn 0.0000 -1.0000 -0.0000
vn 0.0000 -1.0000 -0.0000
vn 0.0000 -1.0000 -0.0000
vn 0.0000 -1.0000 -0.0000
vn 0.0000 -1.0000 -0.0000
vn 0.0000 -1.0000 -0.0000
vn 0.0000 -1.0000 -0.0000
vn 0.0000 -1.0000 -0.0000
vn 0.0000 -1.0000 -0.0000
vn 0.0000 -1.0000 -0.0000
vn 0.0000 -1.0000 -0.0000
vn 0.0000 -1.0000 -0.0000
vn 0.0000 -1.0000 -0.0000
vn 0.0000 -1.0000 -0.0000
vn 0.0000 -1.0000 -0.0000
vn 0.0000 -1.0000 -0.0000
vn 0.0000 -1.0000 -0.0000
vn 0.0000 -1.0000 -0.0000
vn 0.0000 -1.0000 -0.0000
vn 0.0000 -1.0000 -0.0000
vn 0.0000 -1.0000 -0.0000
vn 0.0000 -1.0000 -0.0000
vn 0.0000 -1.0000 -0.0000
vn 0.0000 -1.0000 -0.0000
vn 0.9649 0.0000 -0.2625
vn 0.9512 0.0000 -0.3087
vn 0.9512 0.0000 -0.3087
vn 0.9512 0.0000 -0.3087
vn 0.9649 0.0000 -0.2625
vn 0.9649 0.0000 -0.2625
vn -0.0000 0.0000 -1.0000
vn -0.0000 0.0000 -1.0000
vn -0.0000 0.0000 -1.0000
vn -0.0000 0.0000 -1.0000
vn -0.0000 0.0000 -1.0000
vn -0.0000 0.0000 -1.0000
vn -0.9512 0.0000 -0.3087
vn -0.9649 0.0000 -0.2625
vn -0.9649 0.0000 -0.2625
vn -0.9649 0.0000 -0.2625
vn -0.9512 0.0000 -0.3087
vn -0.9512 0.0000 -0.3087
vn 0.0000 0.0000 1.0000
vn 0.0000 0.0000 1.0000
vn 0.0000 0.0000 1.0000
vn 0.0000 0.0000 1.0000
vn 0.0000 0.0000 1.0000
vn 0.0000 0.0000 1.0000
vn 0.9512 0.0000 0.3087
vn 0.9649 0.0000 0.2625
vn 0.9649 0.0000 0.2625
vn 0.9649 0.0000 0.2625
vn 0.9512 0.0000 0.3087
vn 0.9512 0.0000 0.3087
vn -0.9649 0.0000 0.2625
vn -0.9512 0.0000 0.3087
vn -0.9512 0.0000 0.3087
vn -0.9512 0.0000 0.3087
vn -0.9649 0.0000 0.2625
vn -0.9649 0.0000 0.2625
vn -0.9848 0.0000 0.1736
vn -0.9649 0.0000 0.2625
vn -0.9649 0.0000 0.2625
vn -0.9649 0.0000 0.2625
vn -0.9848 0.0000 0.1736
vn -0.9848 0.0000 0.1736
vn 0.9649 0.0000 0.2625
vn 0.9848 0.0000 0.1736
vn 0.9848 0.0000 0.1736
vn 0.9848 0.0000 0.1736
vn 0.9649 0.0000 0.2625
vn 0.9649 0.0000 0.2625
vn -0.9961 0.0000 0.0885
vn -0.9848 0.0000 0.1736
vn -0.9848 0.0000 0.1736
vn -0.9848 0.0000 0.1736
vn -0.9961 0.0000 0.0885
vn -0.9961 0.0000 0.0885
vn 0.9848 0.0000 0.1736
vn 0.9961 0.0000 0.0885
vn 0.9961 0.0000 0.0885
vn 0.9961 0.0000 0.0885
vn 0.9848 0.0000 0.1736
vn 0.9848 0.0000 0.1736
vn 0.9961 0.0000 0.0885
vn 1.0000 0.0000 0.0000
vn 1.0000 0.0000 0.0000
vn 1.0000 0.0000 0.0000
vn 0.9961 0.0000 0.0885
vn 0.9961 0.0000 0.0885
vn -1.0000 0.0000 0.0000
vn -0.9961 0.0000 0.0885
vn -0.9961 0.0000 0.0885
vn -0.9961 0.0000 0.0885
vn -1.0000 0.0000 0.0000
vn -1.0000 0.0000 0.0000
vn -0.9961 0.0000 -0.0885
vn -1.0000 0.0000 0.0000
vn -1.0000 0.0000 0.0000
vn -1.0000 0.0000 0.0000
vn -0.9961 0.0000 -0.0885
vn -0.9961 0.0000 -0.0885
vn 1.0000 0.0000 0.0000
vn 0.9961 0.0000 -0.0885
vn 0.9961 0.0000 -0.0885
vn 0.9961 0.0000 -0.0885
vn 1.0000 0.0000 0.0000
vn 1.0000 0.0000 0.0000
vn 0.9961 0.0000 -0.0885
vn 0.9848 0.0000 -0.1736
vn 0.9848 0.0000 -0.1736
vn 0.9848 0.0000 -0.1736
vn 0.9961 0.0000 -0.0885
vn 0.9961 0.0000 -0.0885
vn -0.9848 0.0000 -0.1736
vn -0.9961 0.0000 -0.0885
vn -0.9961 0.0000 -0.0885
vn -0.9961 0.0000 -0.0885
vn -0.9848 0.0000 -0.1736
vn -0.9848 0.0000 -0.1736
vn -0.9649 0.0000 -0.2625
vn -0.9848 0.0000 -0.1736
vn -0.9848 0.0000 -0.1736
vn -0.9848 0.0000 -0.1736
vn -0.9649 0.0000 -0.2625
vn -0.9649 0.0000 -0.2625
vn 0.9848 0.0000 -0.1736
vn 0.9649 0.0000 -0.2625
vn 0.9649 0.0000 -0.2625
vn 0.9649 0.0000 -0.2625
vn 0.9848 0.0000 -0.1736
vn 0.9848 0.0000 -0.1736
# 204 vertex normals

vt 0.0839 0.2935 0.0000
vt 0.4161 0.2935 0.0000
vt 0.4253 0.3505 0.0000
vt 0.4320 0.4113 0.0000
vt 0.4361 0.4732 0.0000
vt 0.4375 0.5335 0.0000
vt 0.4361 0.5938 0.0000
vt 0.4320 0.6557 0.0000
vt 0.4253 0.7165 0.0000
vt 0.4161 0.7735 0.0000
vt 0.0839 0.7735 0.0000
vt 0.0747 0.7165 0.0000
vt 0.0680 0.6557 0.0000
vt 0.0639 0.5938 0.0000
vt 0.0625 0.5335 0.0000
vt 0.0639 0.4732 0.0000
vt 0.0680 0.4113 0.0000
vt 0.0747 0.3505 0.0000
vt 0.0274 0.0750 0.0000
vt 0.0022 0.0750 0.0000
vt 0.0022 0.0250 0.0000
vt 0.0274 0.0250 0.0000
vt 0.3726 0.0750 0.0000
vt 0.3726 0.0250 0.0000
vt 0.3978 0.0750 0.0000
vt 0.3978 0.0250 0.0000
vt 0.8332 0.0750 0.0000
vt 0.5668 0.0750 0.0000
vt 0.5668 0.0250 0.0000
vt 0.8332 0.0250 0.0000
vt 0.8536 0.0750 0.0000
vt 0.8536 0.0250 0.0000
vt 0.5464 0.0750 0.0000
vt 0.5464 0.0250 0.0000
vt 0.5241 0.0750 0.0000
vt 0.5241 0.0250 0.0000
vt 0.8759 0.0750 0.0000
vt 0.8759 0.0250 0.0000
vt 0.5002 0.0750 0.0000
vt 0.5002 0.0250 0.0000
vt 0.8998 0.0750 0.0000
vt 0.8998 0.0250 0.0000
vt 0.9240 0.0750 0.0000
vt 0.9240 0.0250 0.0000
vt 0.4760 0.0750 0.0000
vt 0.4760 0.0250 0.0000
vt 0.4509 0.0750 0.0000
vt 0.4509 0.0250 0.0000
vt 0.9491 0.0750 0.0000
vt 0.9491 0.0250 0.0000
vt -0.0244 0.0750 0.0000
vt -0.0244 0.0250 0.0000
vt 0.4244 0.0750 0.0000
vt 0.4244 0.0250 0.0000
vt 0.9756 0.0750 0.0000
vt 0.9756 0.0250 0.0000
vt 0.9253 0.3505 0.0000
vt 0.9161 0.2935 0.0000
vt 0.5839 0.2935 0.0000
vt 0.5747 0.3505 0.0000
vt 0.5680 0.4113 0.0000
vt 0.5639 0.4732 0.0000
vt 0.5625 0.5335 0.0000
vt 0.5639 0.5938 0.0000
vt 0.5680 0.6557 0.0000
vt 0.5747 0.7165 0.0000
vt 0.5839 0.7735 0.0000
vt 0.9161 0.7735 0.0000
vt 0.9253 0.7165 0.0000
vt 0.9320 0.6557 0.0000
vt 0.9361 0.5938 0.0000
vt 0.9375 0.5335 0.0000
vt 0.9361 0.4732 0.0000
vt 0.9320 0.4113 0.0000
# 74 texture coords

g CartoucheH_COL
usemtl wire_224086086
f 9/1/1 10/2/2 11/3/3 
f 17/9/4 18/10/5 1/11/6 
f 17/9/7 1/11/8 2/12/9 
f 16/8/10 17/9/11 2/12/12 
f 16/8/13 2/12/14 3/13/15 
f 16/8/16 3/13/17 4/14/18 
f 15/7/19 16/8/20 4/14/21 
f 14/6/22 15/7/23 4/14/24 
f 14/6/25 4/14/26 5/15/27 
f 14/6/28 5/15/29 6/16/30 
f 13/5/31 14/6/32 6/16/33 
f 12/4/34 13/5/35 6/16/36 
f 12/4/37 6/16/38 7/17/39 
f 11/3/40 12/4/41 7/17/42 
f 11/3/43 7/17/44 8/18/45 
f 9/1/46 11/3/47 8/18/48 
f 29/57/49 28/58/50 27/59/51 
f 29/57/52 27/59/53 26/60/54 
f 29/57/55 26/60/56 25/61/57 
f 19/67/58 36/68/59 35/69/60 
f 20/66/61 19/67/62 35/69/63 
f 20/66/64 35/69/65 34/70/66 
f 21/65/67 20/66/68 34/70/69 
f 22/64/70 21/65/71 34/70/72 
f 22/64/73 34/70/74 33/71/75 
f 22/64/76 33/71/77 32/72/78 
f 23/63/79 22/64/80 32/72/81 
f 24/62/82 23/63/83 32/72/84 
f 24/62/85 32/72/86 31/73/87 
f 24/62/88 31/73/89 30/74/90 
f 25/61/91 24/62/92 30/74/93 
f 29/57/94 25/61/95 30/74/96 
f 35/21/97 36/22/98 18/19/99 
f 18/19/100 17/20/101 35/21/102 
f 36/22/103 19/24/104 1/23/105 
f 1/23/106 18/19/107 36/22/108 
f 19/24/109 20/26/110 2/25/111 
f 2/25/112 1/23/113 19/24/114 
f 27/29/115 28/30/116 10/27/117 
f 10/27/118 9/28/119 27/29/120 
f 28/30/121 29/32/122 11/31/123 
f 11/31/124 10/27/125 28/30/126 
f 26/34/127 27/29/128 9/28/129 
f 9/28/130 8/33/131 26/34/132 
f 25/36/133 26/34/134 8/33/135 
f 8/33/136 7/35/137 25/36/138 
f 29/32/139 30/38/140 12/37/141 
f 12/37/142 11/31/143 29/32/144 
f 24/40/145 25/36/146 7/35/147 
f 7/35/148 6/39/149 24/40/150 
f 30/38/151 31/42/152 13/41/153 
f 13/41/154 12/37/155 30/38/156 
f 31/42/157 32/44/158 14/43/159 
f 14/43/160 13/41/161 31/42/162 
f 23/46/163 24/40/164 6/39/165 
f 6/39/166 5/45/167 23/46/168 
f 22/48/169 23/46/170 5/45/171 
f 5/45/172 4/47/173 22/48/174 
f 32/44/175 33/50/176 15/49/177 
f 15/49/178 14/43/179 32/44/180 
f 33/50/181 34/56/182 16/55/183 
f 16/55/184 15/49/185 33/50/186 
f 21/54/187 22/48/188 4/47/189 
f 4/47/190 3/53/191 21/54/192 
f 20/26/193 21/54/194 3/53/195 
f 3/53/196 2/25/197 20/26/198 
f 34/52/199 35/21/200 17/20/201 
f 17/20/202 16/51/203 34/52/204 
# 68 faces

