# 3ds Max Wavefront OBJ Exporter v0.97b - (c)2007 guruware
# File Created: 11.03.2017 12:24:09

mtllib ElongHexH.mtl

#
# object ElongHexH
#

v  0.0000 0.0313 -0.3200
v  -0.5000 0.0313 -0.1411
v  -0.5000 0.0313 0.1411
v  0.0000 0.0313 0.3200
v  0.5000 0.0313 0.1411
v  0.5000 0.0313 -0.1411
v  0.0000 -0.0313 -0.3200
v  -0.5000 -0.0313 -0.1411
v  -0.5000 -0.0313 0.1411
v  0.0000 -0.0313 0.3200
v  0.5000 -0.0313 0.1411
v  0.5000 -0.0313 -0.1411
v  0.0000 0.0313 -0.3200
v  -0.5000 0.0313 -0.1411
v  -0.5000 0.0313 0.1411
v  0.0000 0.0313 0.3200
v  0.5000 0.0313 0.1411
v  0.5000 0.0313 -0.1411
v  0.0000 -0.0313 -0.3200
v  -0.5000 -0.0313 -0.1411
v  -0.5000 -0.0313 0.1411
v  0.0000 -0.0313 0.3200
v  0.5000 -0.0313 0.1411
v  0.5000 -0.0313 -0.1411
# 24 vertices

vn 1.0000 0.0000 -0.0000
vn 1.0000 0.0000 -0.0000
vn 1.0000 0.0000 -0.0000
vn 1.0000 0.0000 -0.0000
vn 1.0000 0.0000 -0.0000
vn 1.0000 0.0000 -0.0000
vn 0.3369 0.0000 -0.9416
vn 0.3369 0.0000 -0.9416
vn 0.3369 0.0000 -0.9416
vn 0.3369 0.0000 -0.9416
vn 0.3369 0.0000 -0.9416
vn 0.3369 0.0000 -0.9416
vn -1.0000 0.0000 -0.0000
vn -1.0000 0.0000 -0.0000
vn -1.0000 0.0000 -0.0000
vn -1.0000 0.0000 -0.0000
vn -1.0000 0.0000 -0.0000
vn -1.0000 0.0000 -0.0000
vn -0.3369 0.0000 0.9416
vn -0.3369 0.0000 0.9416
vn -0.3369 0.0000 0.9416
vn -0.3369 0.0000 0.9416
vn -0.3369 0.0000 0.9416
vn -0.3369 0.0000 0.9416
vn -0.3369 0.0000 -0.9416
vn -0.3369 0.0000 -0.9416
vn -0.3369 0.0000 -0.9416
vn -0.3369 0.0000 -0.9416
vn -0.3369 0.0000 -0.9416
vn -0.3369 0.0000 -0.9416
vn 0.3369 0.0000 0.9416
vn 0.3369 0.0000 0.9416
vn 0.3369 0.0000 0.9416
vn 0.3369 0.0000 0.9416
vn 0.3369 0.0000 0.9416
vn 0.3369 0.0000 0.9416
# 36 vertex normals

vt -0.0319 0.0750 0.0000
vt 0.8835 0.0750 0.0000
vt 0.8835 0.0250 0.0000
vt -0.0319 0.0250 0.0000
vt 0.2000 0.0750 0.0000
vt 0.2000 0.0250 0.0000
vt 0.5165 0.0750 0.0000
vt 0.4319 0.0750 0.0000
vt 0.4319 0.0250 0.0000
vt 0.5165 0.0250 0.0000
vt 0.7000 0.0750 0.0000
vt 0.7000 0.0250 0.0000
vt 0.9681 0.0750 0.0000
vt 0.9681 0.0250 0.0000
# 14 texture coords

g ElongHexH
usemtl wire_224086086
f 11/3/1 24/14/2 6/13/3 
f 6/13/4 17/2/5 11/3/6 
f 12/4/7 19/6/8 1/5/9 
f 1/5/10 18/1/11 12/4/12 
f 8/9/13 21/10/14 3/7/15 
f 3/7/16 14/8/17 8/9/18 
f 9/10/19 22/12/20 4/11/21 
f 4/11/22 15/7/23 9/10/24 
f 7/6/25 20/9/26 2/8/27 
f 2/8/28 13/5/29 7/6/30 
f 10/12/31 23/3/32 5/2/33 
f 5/2/34 16/11/35 10/12/36 
# 12 faces

#
# object ElongHexH_faces
#

v  0.0000 0.0313 -0.3200
v  -0.5000 0.0313 -0.1411
v  -0.5000 0.0313 0.1411
v  0.0000 0.0313 0.3200
v  0.5000 0.0313 0.1411
v  0.5000 0.0313 -0.1411
v  0.0000 -0.0313 -0.3200
v  -0.5000 -0.0313 -0.1411
v  -0.5000 -0.0313 0.1411
v  0.0000 -0.0313 0.3200
v  0.5000 -0.0313 0.1411
v  0.5000 -0.0313 -0.1411
# 12 vertices

vn 0.0000 1.0000 -0.0000
vn 0.0000 1.0000 -0.0000
vn 0.0000 1.0000 -0.0000
vn 0.0000 1.0000 -0.0000
vn 0.0000 1.0000 -0.0000
vn 0.0000 1.0000 -0.0000
vn 0.0000 1.0000 -0.0000
vn 0.0000 1.0000 -0.0000
vn 0.0000 1.0000 -0.0000
vn 0.0000 1.0000 -0.0000
vn 0.0000 1.0000 -0.0000
vn 0.0000 1.0000 -0.0000
vn 0.0000 -1.0000 -0.0000
vn 0.0000 -1.0000 -0.0000
vn 0.0000 -1.0000 -0.0000
vn 0.0000 -1.0000 -0.0000
vn 0.0000 -1.0000 -0.0000
vn 0.0000 -1.0000 -0.0000
vn 0.0000 -1.0000 -0.0000
vn 0.0000 -1.0000 -0.0000
vn 0.0000 -1.0000 -0.0000
vn 0.0000 -1.0000 -0.0000
vn 0.0000 -1.0000 -0.0000
vn 0.0000 -1.0000 -0.0000
# 24 vertex normals

vt 0.2500 0.7735 0.0000
vt 0.0625 0.6393 0.0000
vt 0.0625 0.4277 0.0000
vt 0.2500 0.2935 0.0000
vt 0.4375 0.4277 0.0000
vt 0.4375 0.6393 0.0000
vt 0.7500 0.7735 0.0000
vt 0.5625 0.6393 0.0000
vt 0.5625 0.4277 0.0000
vt 0.7500 0.2935 0.0000
vt 0.9375 0.4277 0.0000
vt 0.9375 0.6393 0.0000
# 12 texture coords

g ElongHexH_faces
usemtl wire_224086086
f 26/16/37 27/17/38 28/18/39 
f 29/19/40 30/20/41 25/15/42 
f 28/18/43 29/19/44 25/15/45 
f 26/16/46 28/18/47 25/15/48 
f 34/24/49 33/23/50 32/22/51 
f 34/24/52 32/22/53 31/21/54 
f 31/21/55 36/26/56 35/25/57 
f 34/24/58 31/21/59 35/25/60 
# 8 faces

