# 3ds Max Wavefront OBJ Exporter v0.97b - (c)2007 guruware
# File Created: 11.03.2017 12:29:57

mtllib ElongHexH_COL.mtl

#
# object ElongHexH_COL
#

v  0.0000 0.0313 -0.3200
v  -0.5000 0.0313 -0.1411
v  -0.5000 0.0313 0.1411
v  0.0000 0.0313 0.3200
v  0.5000 0.0313 0.1411
v  0.5000 0.0313 -0.1411
v  0.0000 -0.0313 -0.3200
v  -0.5000 -0.0313 -0.1411
v  -0.5000 -0.0313 0.1411
v  0.0000 -0.0313 0.3200
v  0.5000 -0.0313 0.1411
v  0.5000 -0.0313 -0.1411
# 12 vertices

vn 0.0000 1.0000 -0.0000
vn 0.0000 1.0000 -0.0000
vn 0.0000 1.0000 -0.0000
vn 0.0000 1.0000 -0.0000
vn 0.0000 1.0000 -0.0000
vn 0.0000 1.0000 -0.0000
vn 0.0000 1.0000 -0.0000
vn 0.0000 1.0000 -0.0000
vn 0.0000 1.0000 -0.0000
vn 0.0000 1.0000 -0.0000
vn 0.0000 1.0000 -0.0000
vn 0.0000 1.0000 -0.0000
vn 0.0000 -1.0000 -0.0000
vn 0.0000 -1.0000 -0.0000
vn 0.0000 -1.0000 -0.0000
vn 0.0000 -1.0000 -0.0000
vn 0.0000 -1.0000 -0.0000
vn 0.0000 -1.0000 -0.0000
vn 0.0000 -1.0000 -0.0000
vn 0.0000 -1.0000 -0.0000
vn 0.0000 -1.0000 -0.0000
vn 0.0000 -1.0000 -0.0000
vn 0.0000 -1.0000 -0.0000
vn 0.0000 -1.0000 -0.0000
vn 1.0000 0.0000 -0.0000
vn 1.0000 0.0000 -0.0000
vn 1.0000 0.0000 -0.0000
vn 1.0000 0.0000 -0.0000
vn 1.0000 0.0000 -0.0000
vn 1.0000 0.0000 -0.0000
vn 0.3369 0.0000 -0.9416
vn 0.3369 0.0000 -0.9416
vn 0.3369 0.0000 -0.9416
vn 0.3369 0.0000 -0.9416
vn 0.3369 0.0000 -0.9416
vn 0.3369 0.0000 -0.9416
vn -1.0000 0.0000 -0.0000
vn -1.0000 0.0000 -0.0000
vn -1.0000 0.0000 -0.0000
vn -1.0000 0.0000 -0.0000
vn -1.0000 0.0000 -0.0000
vn -1.0000 0.0000 -0.0000
vn -0.3369 0.0000 0.9416
vn -0.3369 0.0000 0.9416
vn -0.3369 0.0000 0.9416
vn -0.3369 0.0000 0.9416
vn -0.3369 0.0000 0.9416
vn -0.3369 0.0000 0.9416
vn -0.3369 0.0000 -0.9416
vn -0.3369 0.0000 -0.9416
vn -0.3369 0.0000 -0.9416
vn -0.3369 0.0000 -0.9416
vn -0.3369 0.0000 -0.9416
vn -0.3369 0.0000 -0.9416
vn 0.3369 0.0000 0.9416
vn 0.3369 0.0000 0.9416
vn 0.3369 0.0000 0.9416
vn 0.3369 0.0000 0.9416
vn 0.3369 0.0000 0.9416
vn 0.3369 0.0000 0.9416
# 60 vertex normals

vt 0.0625 0.6393 0.0000
vt 0.0625 0.4277 0.0000
vt 0.2500 0.2935 0.0000
vt 0.4375 0.4277 0.0000
vt 0.4375 0.6393 0.0000
vt 0.2500 0.7735 0.0000
vt -0.0319 0.0750 0.0000
vt 0.8835 0.0750 0.0000
vt 0.8835 0.0250 0.0000
vt -0.0319 0.0250 0.0000
vt 0.2000 0.0750 0.0000
vt 0.2000 0.0250 0.0000
vt 0.5165 0.0750 0.0000
vt 0.4319 0.0750 0.0000
vt 0.4319 0.0250 0.0000
vt 0.5165 0.0250 0.0000
vt 0.7000 0.0750 0.0000
vt 0.7000 0.0250 0.0000
vt 0.9681 0.0750 0.0000
vt 0.9681 0.0250 0.0000
vt 0.7500 0.2935 0.0000
vt 0.5625 0.4277 0.0000
vt 0.5625 0.6393 0.0000
vt 0.7500 0.7735 0.0000
vt 0.9375 0.6393 0.0000
vt 0.9375 0.4277 0.0000
# 26 texture coords

g ElongHexH_COL
usemtl wire_224086086
f 2/1/1 3/2/2 4/3/3 
f 5/4/4 6/5/5 1/6/6 
f 4/3/7 5/4/8 1/6/9 
f 2/1/10 4/3/11 1/6/12 
f 10/21/13 9/22/14 8/23/15 
f 10/21/16 8/23/17 7/24/18 
f 7/24/19 12/25/20 11/26/21 
f 10/21/22 7/24/23 11/26/24 
f 11/9/25 12/20/26 6/19/27 
f 6/19/28 5/8/29 11/9/30 
f 12/10/31 7/12/32 1/11/33 
f 1/11/34 6/7/35 12/10/36 
f 8/15/37 9/16/38 3/13/39 
f 3/13/40 2/14/41 8/15/42 
f 9/16/43 10/18/44 4/17/45 
f 4/17/46 3/13/47 9/16/48 
f 7/12/49 8/15/50 2/14/51 
f 2/14/52 1/11/53 7/12/54 
f 10/18/55 11/9/56 5/8/57 
f 5/8/58 4/17/59 10/18/60 
# 20 faces

