# 3ds Max Wavefront OBJ Exporter v0.97b - (c)2007 guruware
# File Created: 11.03.2017 12:29:57

mtllib EyeH_COL.mtl

#
# object EyeH_COL
#

v  -0.5000 0.0313 -0.0008
v  -0.4097 0.0313 0.1315
v  -0.2925 0.0312 0.2326
v  -0.1541 0.0313 0.2973
v  0.0000 0.0313 0.3200
v  0.1541 0.0312 0.2973
v  0.2925 0.0313 0.2326
v  0.4096 0.0312 0.1315
v  0.5000 0.0312 -0.0008
v  0.4096 0.0313 -0.1322
v  0.2925 0.0312 -0.2329
v  0.1541 0.0313 -0.2973
v  -0.0000 0.0313 -0.3200
v  -0.1541 0.0313 -0.2973
v  -0.2925 0.0313 -0.2329
v  -0.4096 0.0313 -0.1322
v  -0.5000 -0.0313 -0.0008
v  -0.4097 -0.0313 0.1315
v  -0.2925 -0.0313 0.2326
v  -0.1541 -0.0313 0.2973
v  0.0000 -0.0313 0.3200
v  0.1541 -0.0313 0.2973
v  0.2925 -0.0313 0.2326
v  0.4096 -0.0313 0.1315
v  0.5000 -0.0313 -0.0008
v  0.4096 -0.0313 -0.1322
v  0.2925 -0.0313 -0.2329
v  0.1541 -0.0313 -0.2973
v  -0.0000 -0.0313 -0.3200
v  -0.1541 -0.0313 -0.2973
v  -0.2925 -0.0313 -0.2329
v  -0.4096 -0.0313 -0.1322
# 32 vertices

vn 0.0000 1.0000 -0.0000
vn 0.0000 1.0000 -0.0000
vn 0.0000 1.0000 0.0000
vn 0.0000 1.0000 -0.0000
vn 0.0000 1.0000 0.0000
vn -0.0000 1.0000 0.0000
vn 0.0000 1.0000 -0.0000
vn -0.0000 1.0000 0.0000
vn 0.0000 1.0000 -0.0000
vn -0.0000 1.0000 0.0000
vn 0.0000 1.0000 -0.0000
vn 0.0000 1.0000 -0.0000
vn -0.0000 1.0000 0.0000
vn 0.0000 1.0000 -0.0000
vn 0.0000 1.0000 0.0000
vn 0.0000 1.0000 0.0000
vn -0.0000 1.0000 0.0000
vn 0.0000 1.0000 0.0000
vn 0.0000 1.0000 0.0000
vn 0.0000 1.0000 0.0000
vn 0.0000 1.0000 0.0000
vn 0.0000 1.0000 -0.0000
vn 0.0000 1.0000 0.0000
vn 0.0000 1.0000 0.0000
vn -0.0000 1.0000 -0.0000
vn 0.0000 1.0000 -0.0000
vn 0.0000 1.0000 0.0000
vn -0.0000 1.0000 -0.0000
vn 0.0000 1.0000 0.0000
vn -0.0000 1.0000 0.0000
vn -0.0000 1.0000 0.0000
vn -0.0000 1.0000 -0.0000
vn -0.0000 1.0000 0.0000
vn -0.0000 1.0000 0.0000
vn -0.0000 1.0000 0.0000
vn 0.0000 1.0000 0.0000
vn 0.0000 1.0000 0.0000
vn -0.0000 1.0000 0.0000
vn 0.0000 1.0000 0.0000
vn 0.0000 1.0000 -0.0000
vn 0.0000 1.0000 0.0000
vn 0.0000 1.0000 0.0000
vn 0.0000 -1.0000 -0.0000
vn 0.0000 -1.0000 -0.0000
vn 0.0000 -1.0000 -0.0000
vn 0.0000 -1.0000 -0.0000
vn 0.0000 -1.0000 -0.0000
vn 0.0000 -1.0000 -0.0000
vn 0.0000 -1.0000 -0.0000
vn 0.0000 -1.0000 -0.0000
vn 0.0000 -1.0000 -0.0000
vn 0.0000 -1.0000 -0.0000
vn 0.0000 -1.0000 -0.0000
vn 0.0000 -1.0000 -0.0000
vn 0.0000 -1.0000 -0.0000
vn 0.0000 -1.0000 -0.0000
vn 0.0000 -1.0000 -0.0000
vn 0.0000 -1.0000 -0.0000
vn 0.0000 -1.0000 -0.0000
vn 0.0000 -1.0000 -0.0000
vn 0.0000 -1.0000 -0.0000
vn 0.0000 -1.0000 -0.0000
vn 0.0000 -1.0000 -0.0000
vn 0.0000 -1.0000 -0.0000
vn 0.0000 -1.0000 -0.0000
vn 0.0000 -1.0000 -0.0000
vn 0.0000 -1.0000 -0.0000
vn 0.0000 -1.0000 -0.0000
vn 0.0000 -1.0000 -0.0000
vn 0.0000 -1.0000 -0.0000
vn 0.0000 -1.0000 -0.0000
vn 0.0000 -1.0000 -0.0000
vn 0.0000 -1.0000 -0.0000
vn 0.0000 -1.0000 -0.0000
vn 0.0000 -1.0000 -0.0000
vn 0.0000 -1.0000 -0.0000
vn 0.0000 -1.0000 -0.0000
vn 0.0000 -1.0000 -0.0000
vn 0.0000 -1.0000 -0.0000
vn 0.0000 -1.0000 -0.0000
vn 0.0000 -1.0000 -0.0000
vn 0.0000 -1.0000 -0.0000
vn 0.0000 -1.0000 -0.0000
vn 0.0000 -1.0000 -0.0000
vn 0.7459 0.0000 0.6660
vn 0.8258 0.0000 0.5639
vn 0.8258 0.0000 0.5639
vn 0.8258 0.0000 0.5639
vn 0.7459 0.0000 0.6660
vn 0.7459 0.0000 0.6660
vn 0.8239 0.0000 -0.5667
vn 0.7440 0.0000 -0.6682
vn 0.7440 0.0000 -0.6682
vn 0.7440 0.0000 -0.6682
vn 0.8239 0.0000 -0.5667
vn 0.8239 0.0000 -0.5667
vn 0.7440 0.0000 -0.6682
vn 0.5419 0.0000 -0.8404
vn 0.5419 0.0000 -0.8404
vn 0.5419 0.0000 -0.8404
vn 0.7440 0.0000 -0.6682
vn 0.7440 0.0000 -0.6682
vn -0.7440 0.0000 -0.6682
vn -0.8239 0.0000 -0.5667
vn -0.8239 0.0000 -0.5667
vn -0.8239 0.0000 -0.5667
vn -0.7440 0.0000 -0.6682
vn -0.7440 0.0000 -0.6682
vn -0.8258 0.0000 0.5639
vn -0.7459 0.0000 0.6660
vn -0.7459 0.0000 0.6660
vn -0.7459 0.0000 0.6660
vn -0.8258 0.0000 0.5639
vn -0.8258 0.0000 0.5639
vn -0.5419 0.0000 -0.8404
vn -0.7440 0.0000 -0.6682
vn -0.7440 0.0000 -0.6682
vn -0.7440 0.0000 -0.6682
vn -0.5419 0.0000 -0.8404
vn -0.5419 0.0000 -0.8404
vn -0.7459 0.0000 0.6660
vn -0.5434 0.0000 0.8395
vn -0.5434 0.0000 0.8395
vn -0.5434 0.0000 0.8395
vn -0.7459 0.0000 0.6660
vn -0.7459 0.0000 0.6660
vn -0.2869 0.0000 -0.9580
vn -0.5419 0.0000 -0.8404
vn -0.5419 0.0000 -0.8404
vn -0.5419 0.0000 -0.8404
vn -0.2869 0.0000 -0.9580
vn -0.2869 0.0000 -0.9580
vn -0.5434 0.0000 0.8395
vn -0.2875 0.0000 0.9578
vn -0.2875 0.0000 0.9578
vn -0.2875 0.0000 0.9578
vn -0.5434 0.0000 0.8395
vn -0.5434 0.0000 0.8395
vn -0.0000 0.0000 -1.0000
vn -0.2869 0.0000 -0.9580
vn -0.2869 0.0000 -0.9580
vn -0.2869 0.0000 -0.9580
vn -0.0000 0.0000 -1.0000
vn -0.0000 0.0000 -1.0000
vn -0.2875 0.0000 0.9578
vn -0.0000 0.0000 1.0000
vn -0.0000 0.0000 1.0000
vn -0.0000 0.0000 1.0000
vn -0.2875 0.0000 0.9578
vn -0.2875 0.0000 0.9578
vn -0.0000 0.0000 1.0000
vn 0.2875 0.0000 0.9578
vn 0.2875 0.0000 0.9578
vn 0.2875 0.0000 0.9578
vn -0.0000 0.0000 1.0000
vn -0.0000 0.0000 1.0000
vn 0.2869 0.0000 -0.9580
vn -0.0000 0.0000 -1.0000
vn -0.0000 0.0000 -1.0000
vn -0.0000 0.0000 -1.0000
vn 0.2869 0.0000 -0.9580
vn 0.2869 0.0000 -0.9580
vn 0.2875 0.0000 0.9578
vn 0.5434 0.0000 0.8395
vn 0.5434 0.0000 0.8395
vn 0.5434 0.0000 0.8395
vn 0.2875 0.0000 0.9578
vn 0.2875 0.0000 0.9578
vn 0.5419 0.0000 -0.8404
vn 0.2869 0.0000 -0.9580
vn 0.2869 0.0000 -0.9580
vn 0.2869 0.0000 -0.9580
vn 0.5419 0.0000 -0.8404
vn 0.5419 0.0000 -0.8404
vn 0.5434 0.0000 0.8395
vn 0.7459 0.0000 0.6660
vn 0.7459 0.0000 0.6660
vn 0.7459 0.0000 0.6660
vn 0.5434 0.0000 0.8395
vn 0.5434 0.0000 0.8395
# 180 vertex normals

vt 0.0964 0.6326 0.0000
vt 0.0625 0.5341 0.0000
vt 0.0964 0.4349 0.0000
vt 0.1403 0.3590 0.0000
vt 0.1922 0.3105 0.0000
vt 0.2500 0.2935 0.0000
vt 0.3078 0.3105 0.0000
vt 0.3597 0.3590 0.0000
vt 0.4036 0.4349 0.0000
vt 0.4375 0.5341 0.0000
vt 0.4036 0.6326 0.0000
vt 0.3597 0.7081 0.0000
vt 0.3078 0.7565 0.0000
vt 0.2500 0.7735 0.0000
vt 0.1922 0.7565 0.0000
vt 0.1403 0.7081 0.0000
vt 0.9242 0.0750 0.0000
vt 0.8738 0.0750 0.0000
vt 0.8738 0.0250 0.0000
vt 0.9242 0.0250 0.0000
vt -0.0313 0.0750 0.0000
vt -0.0313 0.0250 0.0000
vt 0.0246 0.0750 0.0000
vt 0.0246 0.0250 0.0000
vt 0.4758 0.0750 0.0000
vt 0.4313 0.0750 0.0000
vt 0.4313 0.0250 0.0000
vt 0.4758 0.0250 0.0000
vt 0.5262 0.0750 0.0000
vt 0.5262 0.0250 0.0000
vt 0.3754 0.0750 0.0000
vt 0.3754 0.0250 0.0000
vt 0.5803 0.0750 0.0000
vt 0.5803 0.0250 0.0000
vt 0.3001 0.0750 0.0000
vt 0.3001 0.0250 0.0000
vt 0.6382 0.0750 0.0000
vt 0.6382 0.0250 0.0000
vt 0.2000 0.0750 0.0000
vt 0.2000 0.0250 0.0000
vt 0.7000 0.0750 0.0000
vt 0.7000 0.0250 0.0000
vt 0.7618 0.0750 0.0000
vt 0.7618 0.0250 0.0000
vt 0.0999 0.0750 0.0000
vt 0.0999 0.0250 0.0000
vt 0.8197 0.0750 0.0000
vt 0.8197 0.0250 0.0000
vt 0.9687 0.0750 0.0000
vt 0.9687 0.0250 0.0000
vt 0.5964 0.4349 0.0000
vt 0.5625 0.5341 0.0000
vt 0.5964 0.6326 0.0000
vt 0.6403 0.7081 0.0000
vt 0.6922 0.7565 0.0000
vt 0.7500 0.7735 0.0000
vt 0.8078 0.7565 0.0000
vt 0.8597 0.7081 0.0000
vt 0.9036 0.6326 0.0000
vt 0.9375 0.5341 0.0000
vt 0.9036 0.4349 0.0000
vt 0.8597 0.3590 0.0000
vt 0.8078 0.3105 0.0000
vt 0.7500 0.2935 0.0000
vt 0.6922 0.3105 0.0000
vt 0.6403 0.3590 0.0000
# 66 texture coords

g EyeH_COL
usemtl wire_224086086
f 16/1/1 1/2/2 2/3/3 
f 8/9/4 9/10/5 10/11/6 
f 8/9/7 10/11/8 11/12/9 
f 7/8/10 8/9/11 11/12/12 
f 7/8/13 11/12/14 12/13/15 
f 6/7/16 7/8/17 12/13/18 
f 6/7/19 12/13/20 13/14/21 
f 5/6/22 6/7/23 13/14/24 
f 4/5/25 5/6/26 13/14/27 
f 4/5/28 13/14/29 14/15/30 
f 3/4/31 4/5/32 14/15/33 
f 3/4/34 14/15/35 15/16/36 
f 2/3/37 3/4/38 15/16/39 
f 16/1/40 2/3/41 15/16/42 
f 18/51/43 17/52/44 32/53/45 
f 18/51/46 32/53/47 31/54/48 
f 26/59/49 25/60/50 24/61/51 
f 27/58/52 26/59/53 24/61/54 
f 27/58/55 24/61/56 23/62/57 
f 28/57/58 27/58/59 23/62/60 
f 28/57/61 23/62/62 22/63/63 
f 29/56/64 28/57/65 22/63/66 
f 29/56/67 22/63/68 21/64/69 
f 29/56/70 21/64/71 20/65/72 
f 30/55/73 29/56/74 20/65/75 
f 30/55/76 20/65/77 19/66/78 
f 31/54/79 30/55/80 19/66/81 
f 18/51/82 31/54/83 19/66/84 
f 24/19/85 25/20/86 9/17/87 
f 9/17/88 8/18/89 24/19/90 
f 25/20/91 26/50/92 10/49/93 
f 10/49/94 9/17/95 25/20/96 
f 26/22/97 27/24/98 11/23/99 
f 11/23/100 10/21/101 26/22/102 
f 32/27/103 17/28/104 1/25/105 
f 1/25/106 16/26/107 32/27/108 
f 17/28/109 18/30/110 2/29/111 
f 2/29/112 1/25/113 17/28/114 
f 31/32/115 32/27/116 16/26/117 
f 16/26/118 15/31/119 31/32/120 
f 18/30/121 19/34/122 3/33/123 
f 3/33/124 2/29/125 18/30/126 
f 30/36/127 31/32/128 15/31/129 
f 15/31/130 14/35/131 30/36/132 
f 19/34/133 20/38/134 4/37/135 
f 4/37/136 3/33/137 19/34/138 
f 29/40/139 30/36/140 14/35/141 
f 14/35/142 13/39/143 29/40/144 
f 20/38/145 21/42/146 5/41/147 
f 5/41/148 4/37/149 20/38/150 
f 21/42/151 22/44/152 6/43/153 
f 6/43/154 5/41/155 21/42/156 
f 28/46/157 29/40/158 13/39/159 
f 13/39/160 12/45/161 28/46/162 
f 22/44/163 23/48/164 7/47/165 
f 7/47/166 6/43/167 22/44/168 
f 27/24/169 28/46/170 12/45/171 
f 12/45/172 11/23/173 27/24/174 
f 23/48/175 24/19/176 8/18/177 
f 8/18/178 7/47/179 23/48/180 
# 60 faces

