# 3ds Max Wavefront OBJ Exporter v0.97b - (c)2007 guruware
# File Created: 11.03.2017 12:29:57

mtllib EyeV_COL.mtl

#
# object EyeV_COL
#

v  0.0008 0.0313 -0.5000
v  -0.1315 0.0313 -0.4097
v  -0.2326 0.0313 -0.2925
v  -0.2973 0.0313 -0.1541
v  -0.3200 0.0312 -0.0000
v  -0.2973 0.0312 0.1541
v  -0.2326 0.0312 0.2925
v  -0.1315 0.0312 0.4096
v  0.0008 0.0313 0.5000
v  0.1322 0.0312 0.4096
v  0.2329 0.0312 0.2925
v  0.2973 0.0313 0.1541
v  0.3200 0.0313 -0.0000
v  0.2973 0.0313 -0.1541
v  0.2329 0.0313 -0.2925
v  0.1322 0.0313 -0.4096
v  0.0008 -0.0313 -0.5000
v  -0.1315 -0.0313 -0.4097
v  -0.2326 -0.0313 -0.2925
v  -0.2973 -0.0313 -0.1541
v  -0.3200 -0.0313 -0.0000
v  -0.2973 -0.0313 0.1541
v  -0.2326 -0.0313 0.2925
v  -0.1315 -0.0313 0.4096
v  0.0008 -0.0313 0.5000
v  0.1322 -0.0313 0.4096
v  0.2329 -0.0313 0.2925
v  0.2973 -0.0313 0.1541
v  0.3200 -0.0313 -0.0000
v  0.2973 -0.0313 -0.1541
v  0.2329 -0.0313 -0.2925
v  0.1322 -0.0313 -0.4096
# 32 vertices

vn 0.0000 1.0000 -0.0000
vn 0.0000 1.0000 -0.0000
vn 0.0000 1.0000 -0.0000
vn 0.0000 1.0000 -0.0000
vn 0.0000 1.0000 -0.0000
vn 0.0000 1.0000 -0.0000
vn 0.0000 1.0000 -0.0000
vn 0.0000 1.0000 -0.0000
vn -0.0000 1.0000 0.0000
vn -0.0000 1.0000 0.0000
vn 0.0000 1.0000 -0.0000
vn -0.0000 1.0000 0.0000
vn -0.0000 1.0000 0.0000
vn -0.0000 1.0000 0.0000
vn -0.0000 1.0000 0.0000
vn -0.0000 1.0000 0.0000
vn -0.0000 1.0000 0.0000
vn -0.0000 1.0000 0.0000
vn -0.0000 1.0000 0.0000
vn -0.0000 1.0000 0.0000
vn -0.0000 1.0000 0.0000
vn -0.0000 1.0000 0.0000
vn -0.0000 1.0000 0.0000
vn -0.0000 1.0000 0.0000
vn -0.0000 1.0000 0.0000
vn -0.0000 1.0000 0.0000
vn -0.0000 1.0000 0.0000
vn -0.0000 1.0000 0.0000
vn -0.0000 1.0000 0.0000
vn 0.0000 1.0000 -0.0000
vn 0.0000 1.0000 -0.0000
vn -0.0000 1.0000 0.0000
vn 0.0000 1.0000 -0.0000
vn 0.0000 1.0000 -0.0000
vn 0.0000 1.0000 -0.0000
vn 0.0000 1.0000 -0.0000
vn 0.0000 1.0000 -0.0000
vn 0.0000 1.0000 -0.0000
vn 0.0000 1.0000 -0.0000
vn 0.0000 1.0000 -0.0000
vn 0.0000 1.0000 -0.0000
vn 0.0000 1.0000 -0.0000
vn 0.0000 -1.0000 -0.0000
vn 0.0000 -1.0000 -0.0000
vn 0.0000 -1.0000 -0.0000
vn 0.0000 -1.0000 -0.0000
vn 0.0000 -1.0000 -0.0000
vn 0.0000 -1.0000 -0.0000
vn 0.0000 -1.0000 -0.0000
vn 0.0000 -1.0000 -0.0000
vn 0.0000 -1.0000 -0.0000
vn 0.0000 -1.0000 -0.0000
vn 0.0000 -1.0000 -0.0000
vn 0.0000 -1.0000 -0.0000
vn 0.0000 -1.0000 -0.0000
vn 0.0000 -1.0000 -0.0000
vn 0.0000 -1.0000 -0.0000
vn 0.0000 -1.0000 -0.0000
vn 0.0000 -1.0000 -0.0000
vn 0.0000 -1.0000 -0.0000
vn 0.0000 -1.0000 -0.0000
vn 0.0000 -1.0000 -0.0000
vn 0.0000 -1.0000 -0.0000
vn 0.0000 -1.0000 -0.0000
vn 0.0000 -1.0000 -0.0000
vn 0.0000 -1.0000 -0.0000
vn 0.0000 -1.0000 -0.0000
vn 0.0000 -1.0000 -0.0000
vn 0.0000 -1.0000 -0.0000
vn 0.0000 -1.0000 -0.0000
vn 0.0000 -1.0000 -0.0000
vn 0.0000 -1.0000 -0.0000
vn 0.0000 -1.0000 -0.0000
vn 0.0000 -1.0000 -0.0000
vn 0.0000 -1.0000 -0.0000
vn 0.0000 -1.0000 -0.0000
vn 0.0000 -1.0000 -0.0000
vn 0.0000 -1.0000 -0.0000
vn 0.0000 -1.0000 -0.0000
vn 0.0000 -1.0000 -0.0000
vn 0.0000 -1.0000 -0.0000
vn 0.0000 -1.0000 -0.0000
vn 0.0000 -1.0000 -0.0000
vn 0.0000 -1.0000 -0.0000
vn -0.6660 0.0000 0.7459
vn -0.5639 0.0000 0.8258
vn -0.5639 0.0000 0.8258
vn -0.5639 0.0000 0.8258
vn -0.6660 0.0000 0.7459
vn -0.6660 0.0000 0.7459
vn 0.5667 0.0000 0.8239
vn 0.6682 0.0000 0.7440
vn 0.6682 0.0000 0.7440
vn 0.6682 0.0000 0.7440
vn 0.5667 0.0000 0.8239
vn 0.5667 0.0000 0.8239
vn 0.6682 0.0000 0.7440
vn 0.8404 0.0000 0.5419
vn 0.8404 0.0000 0.5419
vn 0.8404 0.0000 0.5419
vn 0.6682 0.0000 0.7440
vn 0.6682 0.0000 0.7440
vn 0.6682 0.0000 -0.7440
vn 0.5667 0.0000 -0.8239
vn 0.5667 0.0000 -0.8239
vn 0.5667 0.0000 -0.8239
vn 0.6682 0.0000 -0.7440
vn 0.6682 0.0000 -0.7440
vn -0.5639 0.0000 -0.8258
vn -0.6660 0.0000 -0.7459
vn -0.6660 0.0000 -0.7459
vn -0.6660 0.0000 -0.7459
vn -0.5639 0.0000 -0.8258
vn -0.5639 0.0000 -0.8258
vn 0.8404 0.0000 -0.5419
vn 0.6682 0.0000 -0.7440
vn 0.6682 0.0000 -0.7440
vn 0.6682 0.0000 -0.7440
vn 0.8404 0.0000 -0.5419
vn 0.8404 0.0000 -0.5419
vn -0.6660 0.0000 -0.7459
vn -0.8395 0.0000 -0.5434
vn -0.8395 0.0000 -0.5434
vn -0.8395 0.0000 -0.5434
vn -0.6660 0.0000 -0.7459
vn -0.6660 0.0000 -0.7459
vn 0.9580 0.0000 -0.2869
vn 0.8404 0.0000 -0.5419
vn 0.8404 0.0000 -0.5419
vn 0.8404 0.0000 -0.5419
vn 0.9580 0.0000 -0.2869
vn 0.9580 0.0000 -0.2869
vn -0.8395 0.0000 -0.5434
vn -0.9578 0.0000 -0.2875
vn -0.9578 0.0000 -0.2875
vn -0.9578 0.0000 -0.2875
vn -0.8395 0.0000 -0.5434
vn -0.8395 0.0000 -0.5434
vn 1.0000 0.0000 -0.0000
vn 0.9580 0.0000 -0.2869
vn 0.9580 0.0000 -0.2869
vn 0.9580 0.0000 -0.2869
vn 1.0000 0.0000 -0.0000
vn 1.0000 0.0000 -0.0000
vn -0.9578 0.0000 -0.2875
vn -1.0000 0.0000 -0.0000
vn -1.0000 0.0000 -0.0000
vn -1.0000 0.0000 -0.0000
vn -0.9578 0.0000 -0.2875
vn -0.9578 0.0000 -0.2875
vn -1.0000 0.0000 -0.0000
vn -0.9578 0.0000 0.2875
vn -0.9578 0.0000 0.2875
vn -0.9578 0.0000 0.2875
vn -1.0000 0.0000 -0.0000
vn -1.0000 0.0000 -0.0000
vn 0.9580 0.0000 0.2869
vn 1.0000 0.0000 -0.0000
vn 1.0000 0.0000 -0.0000
vn 1.0000 0.0000 -0.0000
vn 0.9580 0.0000 0.2869
vn 0.9580 0.0000 0.2869
vn -0.9578 0.0000 0.2875
vn -0.8395 0.0000 0.5434
vn -0.8395 0.0000 0.5434
vn -0.8395 0.0000 0.5434
vn -0.9578 0.0000 0.2875
vn -0.9578 0.0000 0.2875
vn 0.8404 0.0000 0.5419
vn 0.9580 0.0000 0.2869
vn 0.9580 0.0000 0.2869
vn 0.9580 0.0000 0.2869
vn 0.8404 0.0000 0.5419
vn 0.8404 0.0000 0.5419
vn -0.8395 0.0000 0.5434
vn -0.6660 0.0000 0.7459
vn -0.6660 0.0000 0.7459
vn -0.6660 0.0000 0.7459
vn -0.8395 0.0000 0.5434
vn -0.8395 0.0000 0.5434
# 180 vertex normals

vt 0.2996 0.8407 0.0000
vt 0.2503 0.9085 0.0000
vt 0.2007 0.8407 0.0000
vt 0.1628 0.7528 0.0000
vt 0.1385 0.6490 0.0000
vt 0.1300 0.5335 0.0000
vt 0.1385 0.4180 0.0000
vt 0.1628 0.3141 0.0000
vt 0.2007 0.2263 0.0000
vt 0.2503 0.1585 0.0000
vt 0.2996 0.2263 0.0000
vt 0.3373 0.3141 0.0000
vt 0.3615 0.4180 0.0000
vt 0.3700 0.5335 0.0000
vt 0.3615 0.6490 0.0000
vt 0.3373 0.7528 0.0000
vt 0.7002 0.0750 0.0000
vt 0.6581 0.0750 0.0000
vt 0.6581 0.0250 0.0000
vt 0.7002 0.0250 0.0000
vt 0.7421 0.0750 0.0000
vt 0.7421 0.0250 0.0000
vt 0.7890 0.0750 0.0000
vt 0.7890 0.0250 0.0000
vt 0.1997 0.0750 0.0000
vt 0.1382 0.0750 0.0000
vt 0.1382 0.0250 0.0000
vt 0.1997 0.0250 0.0000
vt 0.2615 0.0750 0.0000
vt 0.2615 0.0250 0.0000
vt 0.0657 0.0750 0.0000
vt 0.0657 0.0250 0.0000
vt 0.3343 0.0750 0.0000
vt 0.3343 0.0250 0.0000
vt -0.0132 0.0750 0.0000
vt -0.0132 0.0250 0.0000
vt 0.4132 0.0750 0.0000
vt 0.4132 0.0250 0.0000
vt 0.9099 0.0750 0.0000
vt 0.9099 0.0250 0.0000
vt 0.4901 0.0750 0.0000
vt 0.4901 0.0250 0.0000
vt 0.5564 0.0750 0.0000
vt 0.5564 0.0250 0.0000
vt 0.8436 0.0750 0.0000
vt 0.8436 0.0250 0.0000
vt 0.6110 0.0750 0.0000
vt 0.6110 0.0250 0.0000
vt 0.9868 0.0750 0.0000
vt 0.9868 0.0250 0.0000
vt 0.7007 0.8407 0.0000
vt 0.7503 0.9085 0.0000
vt 0.7996 0.8407 0.0000
vt 0.8373 0.7528 0.0000
vt 0.8615 0.6490 0.0000
vt 0.8700 0.5335 0.0000
vt 0.8615 0.4180 0.0000
vt 0.8373 0.3141 0.0000
vt 0.7996 0.2263 0.0000
vt 0.7503 0.1585 0.0000
vt 0.7007 0.2263 0.0000
vt 0.6628 0.3141 0.0000
vt 0.6385 0.4180 0.0000
vt 0.6300 0.5335 0.0000
vt 0.6385 0.6490 0.0000
vt 0.6628 0.7528 0.0000
# 66 texture coords

g EyeV_COL
usemtl wire_224086086
f 16/1/1 1/2/2 2/3/3 
f 8/9/4 9/10/5 10/11/6 
f 8/9/7 10/11/8 11/12/9 
f 7/8/10 8/9/11 11/12/12 
f 7/8/13 11/12/14 12/13/15 
f 6/7/16 7/8/17 12/13/18 
f 6/7/19 12/13/20 13/14/21 
f 5/6/22 6/7/23 13/14/24 
f 4/5/25 5/6/26 13/14/27 
f 4/5/28 13/14/29 14/15/30 
f 3/4/31 4/5/32 14/15/33 
f 3/4/34 14/15/35 15/16/36 
f 2/3/37 3/4/38 15/16/39 
f 16/1/40 2/3/41 15/16/42 
f 18/51/43 17/52/44 32/53/45 
f 18/51/46 32/53/47 31/54/48 
f 26/59/49 25/60/50 24/61/51 
f 27/58/52 26/59/53 24/61/54 
f 27/58/55 24/61/56 23/62/57 
f 28/57/58 27/58/59 23/62/60 
f 28/57/61 23/62/62 22/63/63 
f 29/56/64 28/57/65 22/63/66 
f 29/56/67 22/63/68 21/64/69 
f 29/56/70 21/64/71 20/65/72 
f 30/55/73 29/56/74 20/65/75 
f 30/55/76 20/65/77 19/66/78 
f 31/54/79 30/55/80 19/66/81 
f 18/51/82 31/54/83 19/66/84 
f 24/19/85 25/20/86 9/17/87 
f 9/17/88 8/18/89 24/19/90 
f 25/20/91 26/22/92 10/21/93 
f 10/21/94 9/17/95 25/20/96 
f 26/22/97 27/24/98 11/23/99 
f 11/23/100 10/21/101 26/22/102 
f 32/27/103 17/28/104 1/25/105 
f 1/25/106 16/26/107 32/27/108 
f 17/28/109 18/30/110 2/29/111 
f 2/29/112 1/25/113 17/28/114 
f 31/32/115 32/27/116 16/26/117 
f 16/26/118 15/31/119 31/32/120 
f 18/30/121 19/34/122 3/33/123 
f 3/33/124 2/29/125 18/30/126 
f 30/36/127 31/32/128 15/31/129 
f 15/31/130 14/35/131 30/36/132 
f 19/34/133 20/38/134 4/37/135 
f 4/37/136 3/33/137 19/34/138 
f 29/40/139 30/50/140 14/49/141 
f 14/49/142 13/39/143 29/40/144 
f 20/38/145 21/42/146 5/41/147 
f 5/41/148 4/37/149 20/38/150 
f 21/42/151 22/44/152 6/43/153 
f 6/43/154 5/41/155 21/42/156 
f 28/46/157 29/40/158 13/39/159 
f 13/39/160 12/45/161 28/46/162 
f 22/44/163 23/48/164 7/47/165 
f 7/47/166 6/43/167 22/44/168 
f 27/24/169 28/46/170 12/45/171 
f 12/45/172 11/23/173 27/24/174 
f 23/48/175 24/19/176 8/18/177 
f 8/18/178 7/47/179 23/48/180 
# 60 faces

