# 3ds Max Wavefront OBJ Exporter v0.97b - (c)2007 guruware
# File Created: 11.03.2017 12:29:57

mtllib Gear_COL.mtl

#
# object Gear_COL
#

v  -0.0789 0.0313 -0.4938
v  -0.0984 0.0313 -0.3644
v  -0.1589 0.0313 -0.3424
v  -0.2570 0.0313 -0.4290
v  -0.3778 0.0313 -0.3276
v  -0.3096 0.0313 -0.2159
v  -0.3418 0.0313 -0.1602
v  -0.4726 0.0313 -0.1634
v  -0.5000 0.0313 -0.0080
v  -0.3760 0.0313 0.0336
v  -0.3648 0.0313 0.0970
v  -0.4671 0.0313 0.1786
v  -0.3882 0.0313 0.3152
v  -0.2664 0.0313 0.2674
v  -0.2171 0.0313 0.3088
v  -0.2430 0.0313 0.4370
v  -0.0947 0.0313 0.4910
v  -0.0322 0.0313 0.3761
v  0.0322 0.0313 0.3761
v  0.0947 0.0313 0.4910
v  0.2430 0.0313 0.4370
v  0.2171 0.0313 0.3088
v  0.2664 0.0313 0.2674
v  0.3882 0.0313 0.3152
v  0.4671 0.0313 0.1786
v  0.3648 0.0313 0.0970
v  0.3760 0.0313 0.0336
v  0.5000 0.0313 -0.0080
v  0.4726 0.0313 -0.1634
v  0.3418 0.0313 -0.1602
v  0.3096 0.0313 -0.2159
v  0.3778 0.0313 -0.3276
v  0.2570 0.0313 -0.4290
v  0.1589 0.0313 -0.3424
v  0.0984 0.0313 -0.3644
v  0.0789 0.0313 -0.4938
v  -0.0789 -0.0313 -0.4938
v  -0.0984 -0.0313 -0.3644
v  -0.1589 -0.0313 -0.3424
v  -0.2570 -0.0313 -0.4290
v  -0.3778 -0.0313 -0.3276
v  -0.3096 -0.0313 -0.2159
v  -0.3418 -0.0313 -0.1602
v  -0.4726 -0.0313 -0.1634
v  -0.5000 -0.0313 -0.0080
v  -0.3760 -0.0313 0.0336
v  -0.3648 -0.0313 0.0970
v  -0.4671 -0.0313 0.1786
v  -0.3882 -0.0313 0.3152
v  -0.2664 -0.0313 0.2674
v  -0.2171 -0.0313 0.3088
v  -0.2430 -0.0313 0.4370
v  -0.0947 -0.0313 0.4910
v  -0.0322 -0.0313 0.3761
v  0.0322 -0.0313 0.3761
v  0.0947 -0.0313 0.4910
v  0.2430 -0.0313 0.4370
v  0.2171 -0.0313 0.3088
v  0.2664 -0.0313 0.2674
v  0.3882 -0.0313 0.3152
v  0.4671 -0.0313 0.1786
v  0.3648 -0.0313 0.0970
v  0.3760 -0.0313 0.0336
v  0.5000 -0.0313 -0.0080
v  0.4726 -0.0313 -0.1634
v  0.3418 -0.0313 -0.1602
v  0.3096 -0.0313 -0.2159
v  0.3778 -0.0313 -0.3276
v  0.2570 -0.0313 -0.4290
v  0.1589 -0.0313 -0.3424
v  0.0984 -0.0313 -0.3644
v  0.0789 -0.0313 -0.4938
# 72 vertices

vn 0.0000 1.0000 -0.0000
vn 0.0000 1.0000 -0.0000
vn 0.0000 1.0000 -0.0000
vn 0.0000 1.0000 -0.0000
vn 0.0000 1.0000 -0.0000
vn 0.0000 1.0000 -0.0000
vn 0.0000 1.0000 -0.0000
vn 0.0000 1.0000 -0.0000
vn 0.0000 1.0000 -0.0000
vn 0.0000 1.0000 -0.0000
vn 0.0000 1.0000 -0.0000
vn 0.0000 1.0000 -0.0000
vn 0.0000 1.0000 -0.0000
vn 0.0000 1.0000 -0.0000
vn 0.0000 1.0000 -0.0000
vn 0.0000 1.0000 -0.0000
vn 0.0000 1.0000 -0.0000
vn 0.0000 1.0000 -0.0000
vn 0.0000 1.0000 -0.0000
vn 0.0000 1.0000 -0.0000
vn 0.0000 1.0000 -0.0000
vn 0.0000 1.0000 -0.0000
vn 0.0000 1.0000 -0.0000
vn 0.0000 1.0000 -0.0000
vn 0.0000 1.0000 -0.0000
vn 0.0000 1.0000 -0.0000
vn 0.0000 1.0000 -0.0000
vn 0.0000 1.0000 -0.0000
vn 0.0000 1.0000 -0.0000
vn 0.0000 1.0000 -0.0000
vn 0.0000 1.0000 -0.0000
vn 0.0000 1.0000 -0.0000
vn 0.0000 1.0000 -0.0000
vn 0.0000 1.0000 -0.0000
vn 0.0000 1.0000 -0.0000
vn 0.0000 1.0000 -0.0000
vn 0.0000 1.0000 -0.0000
vn 0.0000 1.0000 -0.0000
vn 0.0000 1.0000 -0.0000
vn 0.0000 1.0000 -0.0000
vn 0.0000 1.0000 -0.0000
vn 0.0000 1.0000 -0.0000
vn 0.0000 1.0000 -0.0000
vn 0.0000 1.0000 -0.0000
vn 0.0000 1.0000 -0.0000
vn 0.0000 1.0000 -0.0000
vn 0.0000 1.0000 -0.0000
vn 0.0000 1.0000 -0.0000
vn 0.0000 1.0000 -0.0000
vn 0.0000 1.0000 -0.0000
vn 0.0000 1.0000 -0.0000
vn 0.0000 1.0000 -0.0000
vn 0.0000 1.0000 -0.0000
vn 0.0000 1.0000 -0.0000
vn 0.0000 1.0000 -0.0000
vn 0.0000 1.0000 -0.0000
vn 0.0000 1.0000 -0.0000
vn 0.0000 1.0000 -0.0000
vn 0.0000 1.0000 -0.0000
vn 0.0000 1.0000 -0.0000
vn 0.0000 1.0000 -0.0000
vn 0.0000 1.0000 -0.0000
vn 0.0000 1.0000 -0.0000
vn 0.0000 1.0000 -0.0000
vn 0.0000 1.0000 -0.0000
vn 0.0000 1.0000 -0.0000
vn 0.0000 1.0000 -0.0000
vn 0.0000 1.0000 -0.0000
vn 0.0000 1.0000 -0.0000
vn 0.0000 1.0000 -0.0000
vn 0.0000 1.0000 -0.0000
vn 0.0000 1.0000 -0.0000
vn 0.0000 1.0000 -0.0000
vn 0.0000 1.0000 -0.0000
vn 0.0000 1.0000 -0.0000
vn 0.0000 1.0000 -0.0000
vn 0.0000 1.0000 -0.0000
vn 0.0000 1.0000 -0.0000
vn 0.0000 1.0000 -0.0000
vn 0.0000 1.0000 -0.0000
vn 0.0000 1.0000 -0.0000
vn 0.0000 1.0000 -0.0000
vn 0.0000 1.0000 -0.0000
vn 0.0000 1.0000 -0.0000
vn 0.0000 1.0000 -0.0000
vn 0.0000 1.0000 -0.0000
vn 0.0000 1.0000 -0.0000
vn 0.0000 1.0000 -0.0000
vn 0.0000 1.0000 -0.0000
vn 0.0000 1.0000 -0.0000
vn 0.0000 1.0000 -0.0000
vn 0.0000 1.0000 -0.0000
vn 0.0000 1.0000 -0.0000
vn 0.0000 1.0000 -0.0000
vn 0.0000 1.0000 -0.0000
vn 0.0000 1.0000 -0.0000
vn 0.0000 1.0000 -0.0000
vn 0.0000 1.0000 -0.0000
vn 0.0000 1.0000 -0.0000
vn 0.0000 1.0000 -0.0000
vn 0.0000 1.0000 -0.0000
vn 0.0000 1.0000 -0.0000
vn 0.0000 -1.0000 -0.0000
vn 0.0000 -1.0000 -0.0000
vn 0.0000 -1.0000 -0.0000
vn 0.0000 -1.0000 -0.0000
vn 0.0000 -1.0000 -0.0000
vn 0.0000 -1.0000 -0.0000
vn 0.0000 -1.0000 -0.0000
vn 0.0000 -1.0000 -0.0000
vn 0.0000 -1.0000 -0.0000
vn 0.0000 -1.0000 -0.0000
vn 0.0000 -1.0000 -0.0000
vn 0.0000 -1.0000 -0.0000
vn 0.0000 -1.0000 -0.0000
vn 0.0000 -1.0000 -0.0000
vn 0.0000 -1.0000 -0.0000
vn 0.0000 -1.0000 -0.0000
vn 0.0000 -1.0000 -0.0000
vn 0.0000 -1.0000 -0.0000
vn 0.0000 -1.0000 -0.0000
vn 0.0000 -1.0000 -0.0000
vn 0.0000 -1.0000 -0.0000
vn 0.0000 -1.0000 -0.0000
vn 0.0000 -1.0000 -0.0000
vn 0.0000 -1.0000 -0.0000
vn 0.0000 -1.0000 -0.0000
vn 0.0000 -1.0000 -0.0000
vn 0.0000 -1.0000 -0.0000
vn 0.0000 -1.0000 -0.0000
vn 0.0000 -1.0000 -0.0000
vn 0.0000 -1.0000 -0.0000
vn 0.0000 -1.0000 -0.0000
vn 0.0000 -1.0000 -0.0000
vn 0.0000 -1.0000 -0.0000
vn 0.0000 -1.0000 -0.0000
vn 0.0000 -1.0000 -0.0000
vn 0.0000 -1.0000 -0.0000
vn 0.0000 -1.0000 -0.0000
vn 0.0000 -1.0000 -0.0000
vn 0.0000 -1.0000 -0.0000
vn 0.0000 -1.0000 -0.0000
vn 0.0000 -1.0000 -0.0000
vn 0.0000 -1.0000 -0.0000
vn 0.0000 -1.0000 -0.0000
vn 0.0000 -1.0000 -0.0000
vn 0.0000 -1.0000 -0.0000
vn 0.0000 -1.0000 -0.0000
vn 0.0000 -1.0000 -0.0000
vn 0.0000 -1.0000 -0.0000
vn 0.0000 -1.0000 -0.0000
vn 0.0000 -1.0000 -0.0000
vn 0.0000 -1.0000 -0.0000
vn 0.0000 -1.0000 -0.0000
vn 0.0000 -1.0000 -0.0000
vn 0.0000 -1.0000 -0.0000
vn 0.0000 -1.0000 -0.0000
vn 0.0000 -1.0000 -0.0000
vn 0.0000 -1.0000 -0.0000
vn 0.0000 -1.0000 -0.0000
vn 0.0000 -1.0000 -0.0000
vn 0.0000 -1.0000 -0.0000
vn 0.0000 -1.0000 -0.0000
vn 0.0000 -1.0000 -0.0000
vn 0.0000 -1.0000 -0.0000
vn 0.0000 -1.0000 -0.0000
vn 0.0000 -1.0000 -0.0000
vn 0.0000 -1.0000 -0.0000
vn 0.0000 -1.0000 -0.0000
vn 0.0000 -1.0000 -0.0000
vn 0.0000 -1.0000 -0.0000
vn 0.0000 -1.0000 -0.0000
vn 0.0000 -1.0000 -0.0000
vn 0.0000 -1.0000 -0.0000
vn 0.0000 -1.0000 -0.0000
vn 0.0000 -1.0000 -0.0000
vn 0.0000 -1.0000 -0.0000
vn 0.0000 -1.0000 -0.0000
vn 0.0000 -1.0000 -0.0000
vn 0.0000 -1.0000 -0.0000
vn 0.0000 -1.0000 -0.0000
vn 0.0000 -1.0000 -0.0000
vn 0.0000 -1.0000 -0.0000
vn 0.0000 -1.0000 -0.0000
vn 0.0000 -1.0000 -0.0000
vn 0.0000 -1.0000 -0.0000
vn 0.0000 -1.0000 -0.0000
vn 0.0000 -1.0000 -0.0000
vn 0.0000 -1.0000 -0.0000
vn 0.0000 -1.0000 -0.0000
vn 0.0000 -1.0000 -0.0000
vn 0.0000 -1.0000 -0.0000
vn 0.0000 -1.0000 -0.0000
vn 0.0000 -1.0000 -0.0000
vn 0.0000 -1.0000 -0.0000
vn 0.0000 -1.0000 -0.0000
vn 0.0000 -1.0000 -0.0000
vn 0.0000 -1.0000 -0.0000
vn 0.0000 -1.0000 -0.0000
vn 0.0000 -1.0000 -0.0000
vn 0.0000 -1.0000 -0.0000
vn 0.0000 -1.0000 -0.0000
vn 0.0000 -1.0000 -0.0000
vn 0.0000 -1.0000 -0.0000
vn -0.3652 0.0000 0.9309
vn -0.3652 0.0000 0.9309
vn -0.3652 0.0000 0.9309
vn -0.3652 0.0000 0.9309
vn -0.3652 0.0000 0.9309
vn -0.3652 0.0000 0.9309
vn 0.8660 0.0000 0.5000
vn 0.8660 0.0000 0.5000
vn 0.8660 0.0000 0.5000
vn 0.8660 0.0000 0.5000
vn 0.8660 0.0000 0.5000
vn 0.8660 0.0000 0.5000
vn 0.6236 0.0000 -0.7817
vn 0.6236 0.0000 -0.7817
vn 0.6236 0.0000 -0.7817
vn 0.6236 0.0000 -0.7817
vn 0.6236 0.0000 -0.7817
vn 0.6236 0.0000 -0.7817
vn 0.9848 0.0000 0.1736
vn 0.9848 0.0000 0.1736
vn 0.9848 0.0000 0.1736
vn 0.9848 0.0000 0.1736
vn 0.9848 0.0000 0.1736
vn 0.9848 0.0000 0.1736
vn 0.3186 0.0000 0.9479
vn 0.3186 0.0000 0.9479
vn 0.3186 0.0000 0.9479
vn 0.3186 0.0000 0.9479
vn 0.3186 0.0000 0.9479
vn 0.3186 0.0000 0.9479
vn 0.9848 0.0000 -0.1737
vn 0.9848 0.0000 -0.1737
vn 0.9848 0.0000 -0.1737
vn 0.9848 0.0000 -0.1737
vn 0.9848 0.0000 -0.1737
vn 0.9848 0.0000 -0.1737
vn -0.0248 0.0000 -0.9997
vn -0.0248 0.0000 -0.9997
vn -0.0248 0.0000 -0.9997
vn -0.0248 0.0000 -0.9997
vn -0.0248 0.0000 -0.9997
vn -0.0248 0.0000 -0.9997
vn 0.8660 0.0000 -0.5000
vn 0.8660 0.0000 -0.5000
vn 0.8660 0.0000 -0.5000
vn 0.8660 0.0000 -0.5000
vn 0.8660 0.0000 -0.5000
vn 0.8660 0.0000 -0.5000
vn 0.6428 0.0000 -0.7660
vn 0.6428 0.0000 -0.7660
vn 0.6428 0.0000 -0.7660
vn 0.6428 0.0000 -0.7660
vn 0.6428 0.0000 -0.7660
vn 0.6428 0.0000 -0.7660
vn -0.6616 0.0000 -0.7499
vn -0.6616 0.0000 -0.7499
vn -0.6616 0.0000 -0.7499
vn -0.6616 0.0000 -0.7499
vn -0.6616 0.0000 -0.7499
vn -0.6616 0.0000 -0.7499
vn 0.8534 0.0000 0.5213
vn 0.8534 0.0000 0.5213
vn 0.8534 0.0000 0.5213
vn 0.8534 0.0000 0.5213
vn 0.8534 0.0000 0.5213
vn 0.8534 0.0000 0.5213
vn 0.9888 0.0000 -0.1492
vn 0.9888 0.0000 -0.1492
vn 0.9888 0.0000 -0.1492
vn 0.9888 0.0000 -0.1492
vn 0.9888 0.0000 -0.1492
vn 0.9888 0.0000 -0.1492
vn -0.0000 0.0000 -1.0000
vn -0.0000 0.0000 -1.0000
vn -0.0000 0.0000 -1.0000
vn -0.0000 0.0000 -1.0000
vn -0.0000 0.0000 -1.0000
vn -0.0000 0.0000 -1.0000
vn -0.9888 0.0000 -0.1492
vn -0.9888 0.0000 -0.1492
vn -0.9888 0.0000 -0.1492
vn -0.9888 0.0000 -0.1492
vn -0.9888 0.0000 -0.1492
vn -0.9888 0.0000 -0.1492
vn 0.3420 0.0000 -0.9397
vn 0.3420 0.0000 -0.9397
vn 0.3420 0.0000 -0.9397
vn 0.3420 0.0000 -0.9397
vn 0.3420 0.0000 -0.9397
vn 0.3420 0.0000 -0.9397
vn -0.3420 0.0000 -0.9397
vn -0.3420 0.0000 -0.9397
vn -0.3420 0.0000 -0.9397
vn -0.3420 0.0000 -0.9397
vn -0.3420 0.0000 -0.9397
vn -0.3420 0.0000 -0.9397
vn 0.6616 0.0000 -0.7499
vn 0.6616 0.0000 -0.7499
vn 0.6616 0.0000 -0.7499
vn 0.6616 0.0000 -0.7499
vn 0.6616 0.0000 -0.7499
vn 0.6616 0.0000 -0.7499
vn -0.6428 0.0000 -0.7660
vn -0.6428 0.0000 -0.7660
vn -0.6428 0.0000 -0.7660
vn -0.6428 0.0000 -0.7660
vn -0.6428 0.0000 -0.7660
vn -0.6428 0.0000 -0.7660
vn -0.8534 0.0000 0.5213
vn -0.8534 0.0000 0.5213
vn -0.8534 0.0000 0.5213
vn -0.8534 0.0000 0.5213
vn -0.8534 0.0000 0.5213
vn -0.8534 0.0000 0.5213
vn -0.8660 0.0000 -0.5000
vn -0.8660 0.0000 -0.5000
vn -0.8660 0.0000 -0.5000
vn -0.8660 0.0000 -0.5000
vn -0.8660 0.0000 -0.5000
vn -0.8660 0.0000 -0.5000
vn -0.9848 0.0000 -0.1736
vn -0.9848 0.0000 -0.1736
vn -0.9848 0.0000 -0.1736
vn -0.9848 0.0000 -0.1736
vn -0.9848 0.0000 -0.1736
vn -0.9848 0.0000 -0.1736
vn -0.3186 0.0000 0.9479
vn -0.3186 0.0000 0.9479
vn -0.3186 0.0000 0.9479
vn -0.3186 0.0000 0.9479
vn -0.3186 0.0000 0.9479
vn -0.3186 0.0000 0.9479
vn 0.0248 0.0000 -0.9997
vn 0.0248 0.0000 -0.9997
vn 0.0248 0.0000 -0.9997
vn 0.0248 0.0000 -0.9997
vn 0.0248 0.0000 -0.9997
vn 0.0248 0.0000 -0.9997
vn -0.9848 0.0000 0.1736
vn -0.9848 0.0000 0.1736
vn -0.9848 0.0000 0.1736
vn -0.9848 0.0000 0.1736
vn -0.9848 0.0000 0.1736
vn -0.9848 0.0000 0.1736
vn -0.8660 0.0000 0.5000
vn -0.8660 0.0000 0.5000
vn -0.8660 0.0000 0.5000
vn -0.8660 0.0000 0.5000
vn -0.8660 0.0000 0.5000
vn -0.8660 0.0000 0.5000
vn 0.3652 0.0000 0.9309
vn 0.3652 0.0000 0.9309
vn 0.3652 0.0000 0.9309
vn 0.3652 0.0000 0.9309
vn 0.3652 0.0000 0.9309
vn 0.3652 0.0000 0.9309
vn -0.6236 0.0000 -0.7817
vn -0.6236 0.0000 -0.7817
vn -0.6236 0.0000 -0.7817
vn -0.6236 0.0000 -0.7817
vn -0.6236 0.0000 -0.7817
vn -0.6236 0.0000 -0.7817
vn -0.6428 0.0000 0.7660
vn -0.6428 0.0000 0.7660
vn -0.6428 0.0000 0.7660
vn -0.6428 0.0000 0.7660
vn -0.6428 0.0000 0.7660
vn -0.6428 0.0000 0.7660
vn -0.9802 0.0000 -0.1980
vn -0.9802 0.0000 -0.1980
vn -0.9802 0.0000 -0.1980
vn -0.9802 0.0000 -0.1980
vn -0.9802 0.0000 -0.1980
vn -0.9802 0.0000 -0.1980
vn -0.3420 0.0000 0.9397
vn -0.3420 0.0000 0.9397
vn -0.3420 0.0000 0.9397
vn -0.3420 0.0000 0.9397
vn -0.3420 0.0000 0.9397
vn -0.3420 0.0000 0.9397
vn 0.8782 0.0000 0.4784
vn 0.8782 0.0000 0.4784
vn 0.8782 0.0000 0.4784
vn 0.8782 0.0000 0.4784
vn 0.8782 0.0000 0.4784
vn 0.8782 0.0000 0.4784
vn 0.0000 0.0000 1.0000
vn 0.0000 0.0000 1.0000
vn 0.0000 0.0000 1.0000
vn 0.0000 0.0000 1.0000
vn 0.0000 0.0000 1.0000
vn 0.0000 0.0000 1.0000
vn -0.8782 0.0000 0.4784
vn -0.8782 0.0000 0.4784
vn -0.8782 0.0000 0.4784
vn -0.8782 0.0000 0.4784
vn -0.8782 0.0000 0.4784
vn -0.8782 0.0000 0.4784
vn 0.3420 0.0000 0.9397
vn 0.3420 0.0000 0.9397
vn 0.3420 0.0000 0.9397
vn 0.3420 0.0000 0.9397
vn 0.3420 0.0000 0.9397
vn 0.3420 0.0000 0.9397
vn 0.9802 0.0000 -0.1980
vn 0.9802 0.0000 -0.1980
vn 0.9802 0.0000 -0.1980
vn 0.9802 0.0000 -0.1980
vn 0.9802 0.0000 -0.1980
vn 0.9802 0.0000 -0.1980
vn 0.6428 0.0000 0.7660
vn 0.6428 0.0000 0.7660
vn 0.6428 0.0000 0.7660
vn 0.6428 0.0000 0.7660
vn 0.6428 0.0000 0.7660
vn 0.6428 0.0000 0.7660
# 420 vertex normals

vt 0.2621 0.2514 0.0000
vt 0.2855 0.1652 0.0000
vt 0.3411 0.2057 0.0000
vt 0.3314 0.3019 0.0000
vt 0.3499 0.3329 0.0000
vt 0.3956 0.2971 0.0000
vt 0.4252 0.3996 0.0000
vt 0.3868 0.4608 0.0000
vt 0.3910 0.5083 0.0000
vt 0.4375 0.5395 0.0000
vt 0.4272 0.6561 0.0000
vt 0.3782 0.6536 0.0000
vt 0.3661 0.6954 0.0000
vt 0.3917 0.7792 0.0000
vt 0.3464 0.8552 0.0000
vt 0.3096 0.7903 0.0000
vt 0.2869 0.8068 0.0000
vt 0.2796 0.9038 0.0000
vt 0.2204 0.9038 0.0000
vt 0.2131 0.8068 0.0000
vt 0.1904 0.7903 0.0000
vt 0.1536 0.8552 0.0000
vt 0.1083 0.7792 0.0000
vt 0.1339 0.6954 0.0000
vt 0.1218 0.6536 0.0000
vt 0.0728 0.6561 0.0000
vt 0.0625 0.5395 0.0000
vt 0.1090 0.5083 0.0000
vt 0.1132 0.4608 0.0000
vt 0.0748 0.3996 0.0000
vt 0.1044 0.2971 0.0000
vt 0.1501 0.3329 0.0000
vt 0.1686 0.3019 0.0000
vt 0.1589 0.2057 0.0000
vt 0.2145 0.1652 0.0000
vt 0.2379 0.2514 0.0000
vt 0.8237 0.0750 0.0000
vt 0.8042 0.0750 0.0000
vt 0.8042 0.0250 0.0000
vt 0.8237 0.0250 0.0000
vt 0.8694 0.0750 0.0000
vt 0.8694 0.0250 0.0000
vt 0.8776 0.0750 0.0000
vt 0.8776 0.0250 0.0000
vt 0.9025 0.0750 0.0000
vt 0.9025 0.0250 0.0000
vt 0.9265 0.0750 0.0000
vt 0.9265 0.0250 0.0000
vt -0.0235 0.0750 0.0000
vt -0.0235 0.0250 0.0000
vt -0.0151 0.0750 0.0000
vt -0.0151 0.0250 0.0000
vt 0.0138 0.0750 0.0000
vt 0.0138 0.0250 0.0000
vt 0.0975 0.0750 0.0000
vt 0.0406 0.0750 0.0000
vt 0.0406 0.0250 0.0000
vt 0.0975 0.0250 0.0000
vt 0.1117 0.0750 0.0000
vt 0.1117 0.0250 0.0000
vt 0.1695 0.0750 0.0000
vt 0.1459 0.0750 0.0000
vt 0.1459 0.0250 0.0000
vt 0.1695 0.0250 0.0000
vt 0.2305 0.0750 0.0000
vt 0.2305 0.0250 0.0000
vt 0.2541 0.0750 0.0000
vt 0.2541 0.0250 0.0000
vt 0.2883 0.0750 0.0000
vt 0.2883 0.0250 0.0000
vt 0.3025 0.0750 0.0000
vt 0.3025 0.0250 0.0000
vt 0.3594 0.0750 0.0000
vt 0.3594 0.0250 0.0000
vt 0.3862 0.0750 0.0000
vt 0.3862 0.0250 0.0000
vt 0.4151 0.0750 0.0000
vt 0.4151 0.0250 0.0000
vt 0.4735 0.0750 0.0000
vt 0.4235 0.0750 0.0000
vt 0.4235 0.0250 0.0000
vt 0.4735 0.0250 0.0000
vt 0.4975 0.0750 0.0000
vt 0.4975 0.0250 0.0000
vt 0.5224 0.0750 0.0000
vt 0.5224 0.0250 0.0000
vt 0.5763 0.0750 0.0000
vt 0.5306 0.0750 0.0000
vt 0.5306 0.0250 0.0000
vt 0.5763 0.0250 0.0000
vt 0.5958 0.0750 0.0000
vt 0.5958 0.0250 0.0000
vt 0.6188 0.0750 0.0000
vt 0.6188 0.0250 0.0000
vt 0.6298 0.0750 0.0000
vt 0.6298 0.0250 0.0000
vt 0.6737 0.0750 0.0000
vt 0.6737 0.0250 0.0000
vt 0.6888 0.0750 0.0000
vt 0.6888 0.0250 0.0000
vt 0.7112 0.0750 0.0000
vt 0.7112 0.0250 0.0000
vt 0.7263 0.0750 0.0000
vt 0.7263 0.0250 0.0000
vt 0.7702 0.0750 0.0000
vt 0.7702 0.0250 0.0000
vt 0.7812 0.0750 0.0000
vt 0.7812 0.0250 0.0000
vt 0.9765 0.0750 0.0000
vt 0.9765 0.0250 0.0000
vt 0.8411 0.2057 0.0000
vt 0.7855 0.1652 0.0000
vt 0.7621 0.2514 0.0000
vt 0.7379 0.2514 0.0000
vt 0.7145 0.1652 0.0000
vt 0.6589 0.2057 0.0000
vt 0.6686 0.3019 0.0000
vt 0.6501 0.3329 0.0000
vt 0.6044 0.2971 0.0000
vt 0.5748 0.3996 0.0000
vt 0.6132 0.4608 0.0000
vt 0.6090 0.5083 0.0000
vt 0.5625 0.5395 0.0000
vt 0.5728 0.6561 0.0000
vt 0.6218 0.6536 0.0000
vt 0.6339 0.6954 0.0000
vt 0.6083 0.7792 0.0000
vt 0.6536 0.8552 0.0000
vt 0.6904 0.7903 0.0000
vt 0.7131 0.8068 0.0000
vt 0.7204 0.9038 0.0000
vt 0.7796 0.9038 0.0000
vt 0.7869 0.8068 0.0000
vt 0.8096 0.7903 0.0000
vt 0.8464 0.8552 0.0000
vt 0.8917 0.7792 0.0000
vt 0.8661 0.6954 0.0000
vt 0.8782 0.6536 0.0000
vt 0.9272 0.6561 0.0000
vt 0.9375 0.5395 0.0000
vt 0.8910 0.5083 0.0000
vt 0.8868 0.4608 0.0000
vt 0.9252 0.3996 0.0000
vt 0.8956 0.2971 0.0000
vt 0.8499 0.3329 0.0000
vt 0.8314 0.3019 0.0000
# 146 texture coords

g Gear_COL
usemtl wire_087225087
f 19/1/1 20/2/2 21/3/3 
f 19/1/4 21/3/5 22/4/6 
f 23/5/7 24/6/8 25/7/9 
f 23/5/10 25/7/11 26/8/12 
f 23/5/13 26/8/14 27/9/15 
f 27/9/16 28/10/17 29/11/18 
f 27/9/19 29/11/20 30/12/21 
f 23/5/22 27/9/23 30/12/24 
f 23/5/25 30/12/26 31/13/27 
f 32/14/28 33/15/29 34/16/30 
f 31/13/31 32/14/32 34/16/33 
f 23/5/34 31/13/35 34/16/36 
f 22/4/37 23/5/38 34/16/39 
f 19/1/40 22/4/41 34/16/42 
f 35/17/43 36/18/44 1/19/45 
f 35/17/46 1/19/47 2/20/48 
f 34/16/49 35/17/50 2/20/51 
f 34/16/52 2/20/53 3/21/54 
f 3/21/55 4/22/56 5/23/57 
f 3/21/58 5/23/59 6/24/60 
f 34/16/61 3/21/62 6/24/63 
f 34/16/64 6/24/65 7/25/66 
f 8/26/67 9/27/68 10/28/69 
f 7/25/70 8/26/71 10/28/72 
f 34/16/73 7/25/74 10/28/75 
f 34/16/76 10/28/77 11/29/78 
f 12/30/79 13/31/80 14/32/81 
f 11/29/82 12/30/83 14/32/84 
f 34/16/85 11/29/86 14/32/87 
f 34/16/88 14/32/89 15/33/90 
f 15/33/91 16/34/92 17/35/93 
f 15/33/94 17/35/95 18/36/96 
f 34/16/97 15/33/98 18/36/99 
f 19/1/100 34/16/101 18/36/102 
f 57/111/103 56/112/104 55/113/105 
f 53/115/106 52/116/107 51/117/108 
f 54/114/109 53/115/110 51/117/111 
f 50/118/112 49/119/113 48/120/114 
f 50/118/115 48/120/116 47/121/117 
f 46/122/118 45/123/119 44/124/120 
f 46/122/121 44/124/122 43/125/123 
f 41/127/124 40/128/125 39/129/126 
f 42/126/127 41/127/128 39/129/129 
f 37/131/130 72/132/131 71/133/132 
f 38/130/133 37/131/134 71/133/135 
f 38/130/136 71/133/137 70/134/138 
f 39/129/139 38/130/140 70/134/141 
f 42/126/142 39/129/143 70/134/144 
f 43/125/145 42/126/146 70/134/147 
f 46/122/148 43/125/149 70/134/150 
f 47/121/151 46/122/152 70/134/153 
f 50/118/154 47/121/155 70/134/156 
f 51/117/157 50/118/158 70/134/159 
f 54/114/160 51/117/161 70/134/162 
f 55/113/163 54/114/164 70/134/165 
f 70/134/166 69/135/167 68/136/168 
f 70/134/169 68/136/170 67/137/171 
f 65/139/172 64/140/173 63/141/174 
f 66/138/175 65/139/176 63/141/177 
f 61/143/178 60/144/179 59/145/180 
f 62/142/181 61/143/182 59/145/183 
f 63/141/184 62/142/185 59/145/186 
f 66/138/187 63/141/188 59/145/189 
f 67/137/190 66/138/191 59/145/192 
f 70/134/193 67/137/194 59/145/195 
f 70/134/196 59/145/197 58/146/198 
f 55/113/199 70/134/200 58/146/201 
f 57/111/202 55/113/203 58/146/204 
f 59/39/205 60/40/206 24/37/207 
f 24/37/208 23/38/209 59/39/210 
f 60/40/211 61/42/212 25/41/213 
f 25/41/214 24/37/215 60/40/216 
f 61/42/217 62/44/218 26/43/219 
f 26/43/220 25/41/221 61/42/222 
f 62/44/223 63/46/224 27/45/225 
f 27/45/226 26/43/227 62/44/228 
f 63/46/229 64/48/230 28/47/231 
f 28/47/232 27/45/233 63/46/234 
f 64/48/235 65/110/236 29/109/237 
f 29/109/238 28/47/239 64/48/240 
f 65/50/241 66/52/242 30/51/243 
f 30/51/244 29/49/245 65/50/246 
f 66/52/247 67/54/248 31/53/249 
f 31/53/250 30/51/251 66/52/252 
f 68/57/253 69/58/254 33/55/255 
f 33/55/256 32/56/257 68/57/258 
f 69/58/259 70/60/260 34/59/261 
f 34/59/262 33/55/263 69/58/264 
f 67/54/265 68/57/266 32/56/267 
f 32/56/268 31/53/269 67/54/270 
f 71/63/271 72/64/272 36/61/273 
f 36/61/274 35/62/275 71/63/276 
f 72/64/277 37/66/278 1/65/279 
f 1/65/280 36/61/281 72/64/282 
f 37/66/283 38/68/284 2/67/285 
f 2/67/286 1/65/287 37/66/288 
f 70/60/289 71/63/290 35/62/291 
f 35/62/292 34/59/293 70/60/294 
f 38/68/295 39/70/296 3/69/297 
f 3/69/298 2/67/299 38/68/300 
f 39/70/301 40/72/302 4/71/303 
f 4/71/304 3/69/305 39/70/306 
f 40/72/307 41/74/308 5/73/309 
f 5/73/310 4/71/311 40/72/312 
f 41/74/313 42/76/314 6/75/315 
f 6/75/316 5/73/317 41/74/318 
f 42/76/319 43/78/320 7/77/321 
f 7/77/322 6/75/323 42/76/324 
f 44/81/325 45/82/326 9/79/327 
f 9/79/328 8/80/329 44/81/330 
f 45/82/331 46/84/332 10/83/333 
f 10/83/334 9/79/335 45/82/336 
f 43/78/337 44/81/338 8/80/339 
f 8/80/340 7/77/341 43/78/342 
f 46/84/343 47/86/344 11/85/345 
f 11/85/346 10/83/347 46/84/348 
f 48/89/349 49/90/350 13/87/351 
f 13/87/352 12/88/353 48/89/354 
f 49/90/355 50/92/356 14/91/357 
f 14/91/358 13/87/359 49/90/360 
f 47/86/361 48/89/362 12/88/363 
f 12/88/364 11/85/365 47/86/366 
f 50/92/367 51/94/368 15/93/369 
f 15/93/370 14/91/371 50/92/372 
f 51/94/373 52/96/374 16/95/375 
f 16/95/376 15/93/377 51/94/378 
f 52/96/379 53/98/380 17/97/381 
f 17/97/382 16/95/383 52/96/384 
f 53/98/385 54/100/386 18/99/387 
f 18/99/388 17/97/389 53/98/390 
f 54/100/391 55/102/392 19/101/393 
f 19/101/394 18/99/395 54/100/396 
f 55/102/397 56/104/398 20/103/399 
f 20/103/400 19/101/401 55/102/402 
f 56/104/403 57/106/404 21/105/405 
f 21/105/406 20/103/407 56/104/408 
f 57/106/409 58/108/410 22/107/411 
f 22/107/412 21/105/413 57/106/414 
f 58/108/415 59/39/416 23/38/417 
f 23/38/418 22/107/419 58/108/420 
# 140 faces

