# 3ds Max Wavefront OBJ Exporter v0.97b - (c)2007 guruware
# File Created: 11.03.2017 12:26:15

mtllib Oct.mtl

#
# object Oct
#

v  0.5000 0.0313 -0.2071
v  0.2071 0.0313 -0.5000
v  -0.2071 0.0312 -0.5000
v  -0.5000 0.0313 -0.2071
v  -0.5000 0.0312 0.2071
v  -0.2071 0.0313 0.5000
v  0.2071 0.0312 0.5000
v  0.5000 0.0312 0.2071
v  0.5000 -0.0313 -0.2071
v  0.2071 -0.0313 -0.5000
v  -0.2071 -0.0313 -0.5000
v  -0.5000 -0.0313 -0.2071
v  -0.5000 -0.0313 0.2071
v  -0.2071 -0.0313 0.5000
v  0.2071 -0.0313 0.5000
v  0.5000 -0.0313 0.2071
v  -0.2071 0.0312 -0.5000
v  -0.5000 0.0312 0.2071
v  0.2071 0.0312 0.5000
v  -0.2071 -0.0313 -0.5000
v  -0.5000 -0.0313 0.2071
v  0.2071 -0.0313 0.5000
# 22 vertices

vn 0.7071 0.0000 0.7071
vn 0.9239 0.0000 0.3827
vn 0.9239 0.0000 0.3827
vn 0.9239 0.0000 0.3827
vn 0.7071 0.0000 0.7071
vn 0.7071 0.0000 0.7071
vn 0.9239 0.0000 0.3827
vn 0.9239 0.0000 -0.3827
vn 0.9239 0.0000 -0.3827
vn 0.9239 0.0000 -0.3827
vn 0.9239 0.0000 0.3827
vn 0.9239 0.0000 0.3827
vn -0.9239 0.0000 -0.3827
vn -1.0000 0.0000 0.0000
vn -1.0000 0.0000 0.0000
vn -1.0000 0.0000 0.0000
vn -0.9239 0.0000 -0.3827
vn -0.9239 0.0000 -0.3827
vn -0.7071 0.0000 0.7071
vn -0.3827 0.0000 0.9239
vn -0.3827 0.0000 0.9239
vn -0.3827 0.0000 0.9239
vn -0.7071 0.0000 0.7071
vn -0.7071 0.0000 0.7071
vn -0.7071 0.0000 -0.7071
vn -0.9239 0.0000 -0.3827
vn -0.9239 0.0000 -0.3827
vn -0.9239 0.0000 -0.3827
vn -0.7071 0.0000 -0.7071
vn -0.7071 0.0000 -0.7071
vn 0.3827 0.0000 -0.9239
vn 0.0000 0.0000 -1.0000
vn 0.0000 0.0000 -1.0000
vn 0.0000 0.0000 -1.0000
vn 0.3827 0.0000 -0.9239
vn 0.3827 0.0000 -0.9239
vn 0.9239 0.0000 -0.3827
vn 0.3827 0.0000 -0.9239
vn 0.3827 0.0000 -0.9239
vn 0.3827 0.0000 -0.9239
vn 0.9239 0.0000 -0.3827
vn 0.9239 0.0000 -0.3827
vn -0.3827 0.0000 0.9239
vn 0.0000 0.0000 1.0000
vn 0.0000 0.0000 1.0000
vn 0.0000 0.0000 1.0000
vn -0.3827 0.0000 0.9239
vn -0.3827 0.0000 0.9239
# 48 vertex normals

vt 0.8670 0.0750 0.0000
vt 0.7548 0.0750 0.0000
vt 0.7548 0.0250 0.0000
vt 0.8670 0.0250 0.0000
vt -0.0118 0.0750 0.0000
vt -0.0118 0.0250 0.0000
vt 0.5330 0.0750 0.0000
vt 0.4118 0.0750 0.0000
vt 0.4118 0.0250 0.0000
vt 0.5330 0.0250 0.0000
vt 0.6452 0.0750 0.0000
vt 0.6452 0.0250 0.0000
vt 0.2741 0.0750 0.0000
vt 0.2741 0.0250 0.0000
vt 0.1259 0.0750 0.0000
vt 0.1259 0.0250 0.0000
vt 0.9882 0.0750 0.0000
vt 0.9882 0.0250 0.0000
# 18 texture coords

g Oct
usemtl wire_224086086
f 15/3/1 16/4/2 8/1/3 
f 8/1/4 19/2/5 15/3/6 
f 16/4/7 9/18/8 1/17/9 
f 1/17/10 8/1/11 16/4/12 
f 12/9/13 21/10/14 5/7/15 
f 5/7/16 4/8/17 12/9/18 
f 13/10/19 14/12/20 6/11/21 
f 6/11/22 18/7/23 13/10/24 
f 11/14/25 12/9/26 4/8/27 
f 4/8/28 17/13/29 11/14/30 
f 10/16/31 20/14/32 3/13/33 
f 3/13/34 2/15/35 10/16/36 
f 9/6/37 10/16/38 2/15/39 
f 2/15/40 1/5/41 9/6/42 
f 14/12/43 22/3/44 7/2/45 
f 7/2/46 6/11/47 14/12/48 
# 16 faces

#
# object Oct_faces
#

v  0.5000 0.0313 -0.2071
v  0.2071 0.0313 -0.5000
v  -0.2071 0.0312 -0.5000
v  -0.5000 0.0313 -0.2071
v  -0.5000 0.0312 0.2071
v  -0.2071 0.0313 0.5000
v  0.2071 0.0312 0.5000
v  0.5000 0.0312 0.2071
v  0.5000 -0.0313 -0.2071
v  0.2071 -0.0313 -0.5000
v  -0.2071 -0.0313 -0.5000
v  -0.5000 -0.0313 -0.2071
v  -0.5000 -0.0313 0.2071
v  -0.2071 -0.0313 0.5000
v  0.2071 -0.0313 0.5000
v  0.5000 -0.0313 0.2071
# 16 vertices

vn 0.0000 1.0000 -0.0000
vn -0.0000 1.0000 0.0000
vn -0.0000 1.0000 0.0000
vn 0.0000 1.0000 0.0000
vn 0.0000 1.0000 0.0000
vn 0.0000 1.0000 0.0000
vn -0.0000 1.0000 0.0000
vn 0.0000 1.0000 0.0000
vn 0.0000 1.0000 0.0000
vn -0.0000 1.0000 0.0000
vn 0.0000 1.0000 0.0000
vn -0.0000 1.0000 -0.0000
vn -0.0000 1.0000 0.0000
vn -0.0000 1.0000 -0.0000
vn -0.0000 1.0000 -0.0000
vn 0.0000 1.0000 -0.0000
vn -0.0000 1.0000 0.0000
vn -0.0000 1.0000 -0.0000
vn 0.0000 -1.0000 -0.0000
vn 0.0000 -1.0000 -0.0000
vn 0.0000 -1.0000 -0.0000
vn 0.0000 -1.0000 -0.0000
vn 0.0000 -1.0000 -0.0000
vn 0.0000 -1.0000 -0.0000
vn 0.0000 -1.0000 -0.0000
vn 0.0000 -1.0000 -0.0000
vn 0.0000 -1.0000 -0.0000
vn 0.0000 -1.0000 -0.0000
vn 0.0000 -1.0000 -0.0000
vn 0.0000 -1.0000 -0.0000
vn 0.0000 -1.0000 -0.0000
vn 0.0000 -1.0000 -0.0000
vn 0.0000 -1.0000 -0.0000
vn 0.0000 -1.0000 -0.0000
vn 0.0000 -1.0000 -0.0000
vn 0.0000 -1.0000 -0.0000
# 36 vertex normals

vt 0.4375 0.6888 0.0000
vt 0.3277 0.9085 0.0000
vt 0.1723 0.9085 0.0000
vt 0.0625 0.6888 0.0000
vt 0.0625 0.3782 0.0000
vt 0.1723 0.1585 0.0000
vt 0.3277 0.1585 0.0000
vt 0.4375 0.3782 0.0000
vt 0.9375 0.6888 0.0000
vt 0.8277 0.9085 0.0000
vt 0.6723 0.9085 0.0000
vt 0.5625 0.6888 0.0000
vt 0.5625 0.3782 0.0000
vt 0.6723 0.1585 0.0000
vt 0.8277 0.1585 0.0000
vt 0.9375 0.3782 0.0000
# 16 texture coords

g Oct_faces
usemtl wire_224086086
f 26/22/49 27/23/50 28/24/51 
f 29/25/52 30/26/53 23/19/54 
f 28/24/55 29/25/56 23/19/57 
f 28/24/58 23/19/59 24/20/60 
f 28/24/61 24/20/62 25/21/63 
f 26/22/64 28/24/65 25/21/66 
f 36/32/67 35/31/68 34/30/69 
f 36/32/70 34/30/71 33/29/72 
f 36/32/73 33/29/74 32/28/75 
f 36/32/76 32/28/77 31/27/78 
f 31/27/79 38/34/80 37/33/81 
f 36/32/82 31/27/83 37/33/84 
# 12 faces

