# 3ds Max Wavefront OBJ Exporter v0.97b - (c)2007 guruware
# File Created: 11.03.2017 12:29:56

mtllib OctOffset_COL.mtl

#
# object OctOffset_COL
#

v  0.3536 0.0313 -0.3536
v  -0.0000 0.0313 -0.5000
v  -0.3536 0.0313 -0.3536
v  -0.5000 0.0313 0.0000
v  -0.3536 0.0312 0.3536
v  0.0000 0.0313 0.5000
v  0.3536 0.0312 0.3536
v  0.5000 0.0313 -0.0000
v  0.3536 -0.0313 -0.3536
v  -0.0000 -0.0313 -0.5000
v  -0.3536 -0.0313 -0.3536
v  -0.5000 -0.0313 0.0000
v  -0.3536 -0.0313 0.3536
v  0.0000 -0.0313 0.5000
v  0.3536 -0.0313 0.3536
v  0.5000 -0.0313 -0.0000
# 16 vertices

vn 0.0000 1.0000 0.0000
vn 0.0000 1.0000 -0.0000
vn 0.0000 1.0000 -0.0000
vn 0.0000 1.0000 0.0000
vn 0.0000 1.0000 -0.0000
vn 0.0000 1.0000 -0.0000
vn 0.0000 1.0000 0.0000
vn 0.0000 1.0000 -0.0000
vn 0.0000 1.0000 0.0000
vn 0.0000 1.0000 0.0000
vn 0.0000 1.0000 0.0000
vn -0.0000 1.0000 0.0000
vn 0.0000 1.0000 0.0000
vn -0.0000 1.0000 0.0000
vn -0.0000 1.0000 -0.0000
vn 0.0000 1.0000 0.0000
vn -0.0000 1.0000 -0.0000
vn 0.0000 1.0000 0.0000
vn 0.0000 -1.0000 -0.0000
vn 0.0000 -1.0000 -0.0000
vn 0.0000 -1.0000 -0.0000
vn 0.0000 -1.0000 -0.0000
vn 0.0000 -1.0000 -0.0000
vn 0.0000 -1.0000 -0.0000
vn 0.0000 -1.0000 -0.0000
vn 0.0000 -1.0000 -0.0000
vn 0.0000 -1.0000 -0.0000
vn 0.0000 -1.0000 -0.0000
vn 0.0000 -1.0000 -0.0000
vn 0.0000 -1.0000 -0.0000
vn 0.0000 -1.0000 -0.0000
vn 0.0000 -1.0000 -0.0000
vn 0.0000 -1.0000 -0.0000
vn 0.0000 -1.0000 -0.0000
vn 0.0000 -1.0000 -0.0000
vn 0.0000 -1.0000 -0.0000
vn 0.0000 0.0000 1.0000
vn 0.7071 0.0000 0.7071
vn 0.7071 0.0000 0.7071
vn 0.7071 0.0000 0.7071
vn 0.0000 0.0000 1.0000
vn 0.0000 0.0000 1.0000
vn 0.7071 0.0000 0.7071
vn 0.9239 0.0000 0.3827
vn 0.9239 0.0000 0.3827
vn 0.9239 0.0000 0.3827
vn 0.7071 0.0000 0.7071
vn 0.7071 0.0000 0.7071
vn 0.9239 0.0000 -0.3827
vn 0.7071 0.0000 -0.7071
vn 0.7071 0.0000 -0.7071
vn 0.7071 0.0000 -0.7071
vn 0.9239 0.0000 -0.3827
vn 0.9239 0.0000 -0.3827
vn 0.7071 0.0000 -0.7071
vn -0.0000 0.0000 -1.0000
vn -0.0000 0.0000 -1.0000
vn -0.0000 0.0000 -1.0000
vn 0.7071 0.0000 -0.7071
vn 0.7071 0.0000 -0.7071
vn -0.0000 0.0000 -1.0000
vn -0.3827 0.0000 -0.9239
vn -0.3827 0.0000 -0.9239
vn -0.3827 0.0000 -0.9239
vn -0.0000 0.0000 -1.0000
vn -0.0000 0.0000 -1.0000
vn -0.9239 0.0000 -0.3827
vn -1.0000 0.0000 0.0000
vn -1.0000 0.0000 0.0000
vn -1.0000 0.0000 0.0000
vn -0.9239 0.0000 -0.3827
vn -0.9239 0.0000 -0.3827
vn -1.0000 0.0000 0.0000
vn -0.7071 0.0000 0.7071
vn -0.7071 0.0000 0.7071
vn -0.7071 0.0000 0.7071
vn -1.0000 0.0000 0.0000
vn -1.0000 0.0000 0.0000
vn -0.7071 0.0000 0.7071
vn 0.0000 0.0000 1.0000
vn 0.0000 0.0000 1.0000
vn 0.0000 0.0000 1.0000
vn -0.7071 0.0000 0.7071
vn -0.7071 0.0000 0.7071
# 84 vertex normals

vt 0.4375 0.5335 0.0000
vt 0.3826 0.7987 0.0000
vt 0.2500 0.9085 0.0000
vt 0.1174 0.7987 0.0000
vt 0.0625 0.5335 0.0000
vt 0.1174 0.2683 0.0000
vt 0.2500 0.1585 0.0000
vt 0.3826 0.2683 0.0000
vt 0.7542 0.0750 0.0000
vt 0.6458 0.0750 0.0000
vt 0.6458 0.0250 0.0000
vt 0.7542 0.0250 0.0000
vt 0.8653 0.0750 0.0000
vt 0.8653 0.0250 0.0000
vt -0.0138 0.0750 0.0000
vt -0.0138 0.0250 0.0000
vt 0.1249 0.0750 0.0000
vt 0.1249 0.0250 0.0000
vt 0.2751 0.0750 0.0000
vt 0.2751 0.0250 0.0000
vt 0.4138 0.0750 0.0000
vt 0.4138 0.0250 0.0000
vt 0.5347 0.0750 0.0000
vt 0.5347 0.0250 0.0000
vt 0.9862 0.0750 0.0000
vt 0.9862 0.0250 0.0000
vt 0.7500 0.9085 0.0000
vt 0.8826 0.7987 0.0000
vt 0.9375 0.5335 0.0000
vt 0.8826 0.2683 0.0000
vt 0.7500 0.1585 0.0000
vt 0.6174 0.2683 0.0000
vt 0.5625 0.5335 0.0000
vt 0.6174 0.7987 0.0000
# 34 texture coords

g OctOffset_COL
usemtl wire_224086086
f 8/1/1 1/2/2 2/3/3 
f 8/1/4 2/3/5 3/4/6 
f 8/1/7 3/4/8 4/5/9 
f 8/1/10 4/5/11 5/6/12 
f 8/1/13 5/6/14 6/7/15 
f 8/1/16 6/7/17 7/8/18 
f 10/27/19 9/28/20 16/29/21 
f 16/29/22 15/30/23 14/31/24 
f 16/29/25 14/31/26 13/32/27 
f 16/29/28 13/32/29 12/33/30 
f 16/29/31 12/33/32 11/34/33 
f 10/27/34 16/29/35 11/34/36 
f 14/11/37 15/12/38 7/9/39 
f 7/9/40 6/10/41 14/11/42 
f 15/12/43 16/14/44 8/13/45 
f 8/13/46 7/9/47 15/12/48 
f 16/14/49 9/26/50 1/25/51 
f 1/25/52 8/13/53 16/14/54 
f 9/16/55 10/18/56 2/17/57 
f 2/17/58 1/15/59 9/16/60 
f 10/18/61 11/20/62 3/19/63 
f 3/19/64 2/17/65 10/18/66 
f 11/20/67 12/22/68 4/21/69 
f 4/21/70 3/19/71 11/20/72 
f 12/22/73 13/24/74 5/23/75 
f 5/23/76 4/21/77 12/22/78 
f 13/24/79 14/11/80 6/10/81 
f 6/10/82 5/23/83 13/24/84 
# 28 faces

