# 3ds Max Wavefront OBJ Exporter v0.97b - (c)2007 guruware
# File Created: 11.03.2017 12:29:56

mtllib OvalV_COL.mtl

#
# object OvalV_COL
#

v  0.3200 0.0313 -0.0000
v  0.3135 0.0313 -0.1007
v  0.2948 0.0313 -0.1945
v  0.2653 0.0313 -0.2794
v  0.2262 0.0313 -0.3535
v  0.1788 0.0313 -0.4145
v  0.1245 0.0313 -0.4607
v  0.0644 0.0312 -0.4898
v  -0.0000 0.0312 -0.5000
v  -0.0644 0.0313 -0.4898
v  -0.1245 0.0312 -0.4607
v  -0.1788 0.0312 -0.4145
v  -0.2262 0.0313 -0.3535
v  -0.2653 0.0313 -0.2794
v  -0.2948 0.0313 -0.1945
v  -0.3135 0.0313 -0.1007
v  -0.3200 0.0313 -0.0000
v  -0.3135 0.0313 0.1007
v  -0.2948 0.0313 0.1945
v  -0.2653 0.0313 0.2794
v  -0.2262 0.0313 0.3535
v  -0.1788 0.0313 0.4145
v  -0.1245 0.0312 0.4607
v  -0.0644 0.0312 0.4898
v  0.0000 0.0312 0.5000
v  0.0644 0.0313 0.4898
v  0.1245 0.0313 0.4607
v  0.1788 0.0313 0.4145
v  0.2262 0.0313 0.3535
v  0.2653 0.0313 0.2794
v  0.2948 0.0313 0.1945
v  0.3135 0.0313 0.1007
v  0.3200 -0.0313 -0.0000
v  0.3135 -0.0313 -0.1007
v  0.2948 -0.0313 -0.1945
v  0.2653 -0.0313 -0.2794
v  0.2262 -0.0313 -0.3535
v  0.1788 -0.0313 -0.4145
v  0.1245 -0.0313 -0.4607
v  0.0644 -0.0313 -0.4898
v  -0.0000 -0.0313 -0.5000
v  -0.0644 -0.0313 -0.4898
v  -0.1245 -0.0313 -0.4607
v  -0.1788 -0.0313 -0.4145
v  -0.2262 -0.0313 -0.3535
v  -0.2653 -0.0313 -0.2794
v  -0.2948 -0.0313 -0.1945
v  -0.3135 -0.0313 -0.1007
v  -0.3200 -0.0313 -0.0000
v  -0.3135 -0.0313 0.1007
v  -0.2948 -0.0313 0.1945
v  -0.2653 -0.0313 0.2794
v  -0.2262 -0.0313 0.3535
v  -0.1788 -0.0313 0.4145
v  -0.1245 -0.0313 0.4607
v  -0.0644 -0.0313 0.4898
v  0.0000 -0.0313 0.5000
v  0.0644 -0.0313 0.4898
v  0.1245 -0.0313 0.4607
v  0.1788 -0.0313 0.4145
v  0.2262 -0.0313 0.3535
v  0.2653 -0.0313 0.2794
v  0.2948 -0.0313 0.1945
v  0.3135 -0.0313 0.1007
# 64 vertices

vn 0.0000 1.0000 -0.0000
vn 0.0000 1.0000 -0.0000
vn -0.0000 1.0000 0.0000
vn -0.0000 1.0000 0.0000
vn -0.0000 1.0000 0.0000
vn -0.0000 1.0000 -0.0000
vn -0.0000 1.0000 0.0000
vn -0.0000 1.0000 0.0000
vn -0.0000 1.0000 -0.0000
vn -0.0000 1.0000 0.0000
vn -0.0000 1.0000 -0.0000
vn -0.0000 1.0000 -0.0000
vn -0.0000 1.0000 0.0000
vn -0.0000 1.0000 -0.0000
vn -0.0000 1.0000 0.0000
vn 0.0000 1.0000 0.0000
vn -0.0000 1.0000 0.0000
vn -0.0000 1.0000 0.0000
vn 0.0000 1.0000 -0.0000
vn 0.0000 1.0000 0.0000
vn -0.0000 1.0000 0.0000
vn 0.0000 1.0000 -0.0000
vn -0.0000 1.0000 0.0000
vn 0.0000 1.0000 -0.0000
vn 0.0000 1.0000 -0.0000
vn 0.0000 1.0000 -0.0000
vn 0.0000 1.0000 -0.0000
vn 0.0000 1.0000 -0.0000
vn 0.0000 1.0000 -0.0000
vn 0.0000 1.0000 -0.0000
vn 0.0000 1.0000 -0.0000
vn 0.0000 1.0000 -0.0000
vn 0.0000 1.0000 -0.0000
vn 0.0000 1.0000 -0.0000
vn 0.0000 1.0000 -0.0000
vn 0.0000 1.0000 -0.0000
vn 0.0000 1.0000 -0.0000
vn 0.0000 1.0000 -0.0000
vn 0.0000 1.0000 -0.0000
vn 0.0000 1.0000 -0.0000
vn 0.0000 1.0000 -0.0000
vn 0.0000 1.0000 -0.0000
vn 0.0000 1.0000 -0.0000
vn 0.0000 1.0000 -0.0000
vn 0.0000 1.0000 -0.0000
vn 0.0000 1.0000 -0.0000
vn 0.0000 1.0000 -0.0000
vn 0.0000 1.0000 -0.0000
vn 0.0000 1.0000 -0.0000
vn 0.0000 1.0000 -0.0000
vn 0.0000 1.0000 -0.0000
vn 0.0000 1.0000 -0.0000
vn 0.0000 1.0000 -0.0000
vn 0.0000 1.0000 -0.0000
vn 0.0000 1.0000 -0.0000
vn 0.0000 1.0000 -0.0000
vn 0.0000 1.0000 -0.0000
vn 0.0000 1.0000 -0.0000
vn 0.0000 1.0000 -0.0000
vn 0.0000 1.0000 -0.0000
vn 0.0000 1.0000 -0.0000
vn 0.0000 1.0000 -0.0000
vn 0.0000 1.0000 -0.0000
vn 0.0000 1.0000 -0.0000
vn 0.0000 1.0000 -0.0000
vn 0.0000 1.0000 -0.0000
vn 0.0000 1.0000 -0.0000
vn 0.0000 1.0000 -0.0000
vn 0.0000 1.0000 -0.0000
vn -0.0000 1.0000 -0.0000
vn 0.0000 1.0000 -0.0000
vn 0.0000 1.0000 -0.0000
vn -0.0000 1.0000 -0.0000
vn 0.0000 1.0000 -0.0000
vn -0.0000 1.0000 -0.0000
vn -0.0000 1.0000 -0.0000
vn -0.0000 1.0000 -0.0000
vn -0.0000 1.0000 -0.0000
vn -0.0000 1.0000 -0.0000
vn -0.0000 1.0000 -0.0000
vn -0.0000 1.0000 -0.0000
vn -0.0000 1.0000 0.0000
vn -0.0000 1.0000 -0.0000
vn -0.0000 1.0000 -0.0000
vn -0.0000 1.0000 0.0000
vn -0.0000 1.0000 0.0000
vn -0.0000 1.0000 -0.0000
vn 0.0000 1.0000 -0.0000
vn -0.0000 1.0000 0.0000
vn -0.0000 1.0000 -0.0000
vn 0.0000 -1.0000 -0.0000
vn 0.0000 -1.0000 -0.0000
vn 0.0000 -1.0000 -0.0000
vn 0.0000 -1.0000 -0.0000
vn 0.0000 -1.0000 -0.0000
vn 0.0000 -1.0000 -0.0000
vn 0.0000 -1.0000 -0.0000
vn 0.0000 -1.0000 -0.0000
vn 0.0000 -1.0000 -0.0000
vn 0.0000 -1.0000 -0.0000
vn 0.0000 -1.0000 -0.0000
vn 0.0000 -1.0000 -0.0000
vn 0.0000 -1.0000 -0.0000
vn 0.0000 -1.0000 -0.0000
vn 0.0000 -1.0000 -0.0000
vn 0.0000 -1.0000 -0.0000
vn 0.0000 -1.0000 -0.0000
vn 0.0000 -1.0000 -0.0000
vn 0.0000 -1.0000 -0.0000
vn 0.0000 -1.0000 -0.0000
vn 0.0000 -1.0000 -0.0000
vn 0.0000 -1.0000 -0.0000
vn 0.0000 -1.0000 -0.0000
vn 0.0000 -1.0000 -0.0000
vn 0.0000 -1.0000 -0.0000
vn 0.0000 -1.0000 -0.0000
vn 0.0000 -1.0000 -0.0000
vn 0.0000 -1.0000 -0.0000
vn 0.0000 -1.0000 -0.0000
vn 0.0000 -1.0000 -0.0000
vn 0.0000 -1.0000 -0.0000
vn 0.0000 -1.0000 -0.0000
vn 0.0000 -1.0000 -0.0000
vn 0.0000 -1.0000 -0.0000
vn 0.0000 -1.0000 -0.0000
vn 0.0000 -1.0000 -0.0000
vn 0.0000 -1.0000 -0.0000
vn 0.0000 -1.0000 -0.0000
vn 0.0000 -1.0000 -0.0000
vn 0.0000 -1.0000 -0.0000
vn 0.0000 -1.0000 -0.0000
vn 0.0000 -1.0000 -0.0000
vn 0.0000 -1.0000 -0.0000
vn 0.0000 -1.0000 -0.0000
vn 0.0000 -1.0000 -0.0000
vn 0.0000 -1.0000 -0.0000
vn 0.0000 -1.0000 -0.0000
vn 0.0000 -1.0000 -0.0000
vn 0.0000 -1.0000 -0.0000
vn 0.0000 -1.0000 -0.0000
vn 0.0000 -1.0000 -0.0000
vn 0.0000 -1.0000 -0.0000
vn 0.0000 -1.0000 -0.0000
vn 0.0000 -1.0000 -0.0000
vn 0.0000 -1.0000 -0.0000
vn 0.0000 -1.0000 -0.0000
vn 0.0000 -1.0000 -0.0000
vn 0.0000 -1.0000 -0.0000
vn 0.0000 -1.0000 -0.0000
vn 0.0000 -1.0000 -0.0000
vn 0.0000 -1.0000 -0.0000
vn 0.0000 -1.0000 -0.0000
vn 0.0000 -1.0000 -0.0000
vn 0.0000 -1.0000 -0.0000
vn 0.0000 -1.0000 -0.0000
vn 0.0000 -1.0000 -0.0000
vn 0.0000 -1.0000 -0.0000
vn 0.0000 -1.0000 -0.0000
vn 0.0000 -1.0000 -0.0000
vn 0.0000 -1.0000 -0.0000
vn 0.0000 -1.0000 -0.0000
vn 0.0000 -1.0000 -0.0000
vn 0.0000 -1.0000 -0.0000
vn 0.0000 -1.0000 -0.0000
vn 0.0000 -1.0000 -0.0000
vn 0.0000 -1.0000 -0.0000
vn 0.0000 -1.0000 -0.0000
vn 0.0000 -1.0000 -0.0000
vn 0.0000 -1.0000 -0.0000
vn 0.0000 -1.0000 -0.0000
vn 0.0000 -1.0000 -0.0000
vn 0.0000 -1.0000 -0.0000
vn 0.0000 -1.0000 -0.0000
vn 0.0000 -1.0000 -0.0000
vn 0.0000 -1.0000 -0.0000
vn 0.0000 -1.0000 -0.0000
vn 0.0000 -1.0000 -0.0000
vn 0.0000 -1.0000 -0.0000
vn 0.0000 -1.0000 -0.0000
vn 0.0000 -1.0000 -0.0000
vn -0.2996 0.0000 0.9541
vn 0.0000 0.0000 1.0000
vn 0.0000 0.0000 1.0000
vn 0.0000 0.0000 1.0000
vn -0.2996 0.0000 0.9541
vn -0.2996 0.0000 0.9541
vn 0.0000 0.0000 1.0000
vn 0.2996 0.0000 0.9541
vn 0.2996 0.0000 0.9541
vn 0.2996 0.0000 0.9541
vn 0.0000 0.0000 1.0000
vn 0.0000 0.0000 1.0000
vn 0.2996 0.0000 -0.9541
vn -0.0000 0.0000 -1.0000
vn -0.0000 0.0000 -1.0000
vn -0.0000 0.0000 -1.0000
vn 0.2996 0.0000 -0.9541
vn 0.2996 0.0000 -0.9541
vn -0.0000 0.0000 -1.0000
vn -0.2996 0.0000 -0.9541
vn -0.2996 0.0000 -0.9541
vn -0.2996 0.0000 -0.9541
vn -0.0000 0.0000 -1.0000
vn -0.0000 0.0000 -1.0000
vn 0.5463 0.0000 -0.8376
vn 0.2996 0.0000 -0.9541
vn 0.2996 0.0000 -0.9541
vn 0.2996 0.0000 -0.9541
vn 0.5463 0.0000 -0.8376
vn 0.5463 0.0000 -0.8376
vn -0.2996 0.0000 -0.9541
vn -0.5463 0.0000 -0.8376
vn -0.5463 0.0000 -0.8376
vn -0.5463 0.0000 -0.8376
vn -0.2996 0.0000 -0.9541
vn -0.2996 0.0000 -0.9541
vn -0.5463 0.0000 -0.8376
vn -0.7225 0.0000 -0.6913
vn -0.7225 0.0000 -0.6913
vn -0.7225 0.0000 -0.6913
vn -0.5463 0.0000 -0.8376
vn -0.5463 0.0000 -0.8376
vn 0.7225 0.0000 -0.6913
vn 0.5463 0.0000 -0.8376
vn 0.5463 0.0000 -0.8376
vn 0.5463 0.0000 -0.8376
vn 0.7225 0.0000 -0.6913
vn 0.7225 0.0000 -0.6913
vn -0.7225 0.0000 -0.6913
vn -0.8404 0.0000 -0.5420
vn -0.8404 0.0000 -0.5420
vn -0.8404 0.0000 -0.5420
vn -0.7225 0.0000 -0.6913
vn -0.7225 0.0000 -0.6913
vn 0.8404 0.0000 -0.5420
vn 0.7225 0.0000 -0.6913
vn 0.7225 0.0000 -0.6913
vn 0.7225 0.0000 -0.6913
vn 0.8404 0.0000 -0.5420
vn 0.8404 0.0000 -0.5420
vn -0.8404 0.0000 -0.5420
vn -0.9170 0.0000 -0.3988
vn -0.9170 0.0000 -0.3988
vn -0.9170 0.0000 -0.3988
vn -0.8404 0.0000 -0.5420
vn -0.8404 0.0000 -0.5420
vn 0.9170 0.0000 -0.3988
vn 0.8404 0.0000 -0.5420
vn 0.8404 0.0000 -0.5420
vn 0.8404 0.0000 -0.5420
vn 0.9170 0.0000 -0.3988
vn 0.9170 0.0000 -0.3988
vn -0.9170 0.0000 -0.3988
vn -0.9650 0.0000 -0.2623
vn -0.9650 0.0000 -0.2623
vn -0.9650 0.0000 -0.2623
vn -0.9170 0.0000 -0.3988
vn -0.9170 0.0000 -0.3988
vn 0.9650 0.0000 -0.2623
vn 0.9170 0.0000 -0.3988
vn 0.9170 0.0000 -0.3988
vn 0.9170 0.0000 -0.3988
vn 0.9650 0.0000 -0.2623
vn 0.9650 0.0000 -0.2623
vn -0.9650 0.0000 -0.2623
vn -0.9915 0.0000 -0.1301
vn -0.9915 0.0000 -0.1301
vn -0.9915 0.0000 -0.1301
vn -0.9650 0.0000 -0.2623
vn -0.9650 0.0000 -0.2623
vn 0.9915 0.0000 -0.1301
vn 0.9650 0.0000 -0.2623
vn 0.9650 0.0000 -0.2623
vn 0.9650 0.0000 -0.2623
vn 0.9915 0.0000 -0.1301
vn 0.9915 0.0000 -0.1301
vn 1.0000 0.0000 -0.0000
vn 0.9915 0.0000 -0.1301
vn 0.9915 0.0000 -0.1301
vn 0.9915 0.0000 -0.1301
vn 1.0000 0.0000 0.0000
vn 1.0000 0.0000 -0.0000
vn -0.9915 0.0000 -0.1301
vn -1.0000 0.0000 0.0000
vn -1.0000 0.0000 0.0000
vn -1.0000 0.0000 0.0000
vn -0.9915 0.0000 -0.1301
vn -0.9915 0.0000 -0.1301
vn -1.0000 0.0000 0.0000
vn -0.9915 0.0000 0.1301
vn -0.9915 0.0000 0.1301
vn -0.9915 0.0000 0.1301
vn -1.0000 0.0000 0.0000
vn -1.0000 0.0000 0.0000
vn 0.9915 0.0000 0.1301
vn 1.0000 0.0000 -0.0000
vn 1.0000 0.0000 0.0000
vn 1.0000 0.0000 0.0000
vn 0.9915 0.0000 0.1301
vn 0.9915 0.0000 0.1301
vn -0.9915 0.0000 0.1301
vn -0.9650 0.0000 0.2623
vn -0.9650 0.0000 0.2623
vn -0.9650 0.0000 0.2623
vn -0.9915 0.0000 0.1301
vn -0.9915 0.0000 0.1301
vn 0.9650 0.0000 0.2623
vn 0.9915 0.0000 0.1301
vn 0.9915 0.0000 0.1301
vn 0.9915 0.0000 0.1301
vn 0.9650 0.0000 0.2623
vn 0.9650 0.0000 0.2623
vn 0.9170 0.0000 0.3988
vn 0.9650 0.0000 0.2623
vn 0.9650 0.0000 0.2623
vn 0.9650 0.0000 0.2623
vn 0.9170 0.0000 0.3988
vn 0.9170 0.0000 0.3988
vn -0.9650 0.0000 0.2623
vn -0.9170 0.0000 0.3988
vn -0.9170 0.0000 0.3988
vn -0.9170 0.0000 0.3988
vn -0.9650 0.0000 0.2623
vn -0.9650 0.0000 0.2623
vn 0.8404 0.0000 0.5420
vn 0.9170 0.0000 0.3988
vn 0.9170 0.0000 0.3988
vn 0.9170 0.0000 0.3988
vn 0.8404 0.0000 0.5420
vn 0.8404 0.0000 0.5420
vn -0.9170 0.0000 0.3988
vn -0.8404 0.0000 0.5420
vn -0.8404 0.0000 0.5420
vn -0.8404 0.0000 0.5420
vn -0.9170 0.0000 0.3988
vn -0.9170 0.0000 0.3988
vn 0.7225 0.0000 0.6913
vn 0.8404 0.0000 0.5420
vn 0.8404 0.0000 0.5420
vn 0.8404 0.0000 0.5420
vn 0.7225 0.0000 0.6913
vn 0.7225 0.0000 0.6913
vn -0.8404 0.0000 0.5420
vn -0.7225 0.0000 0.6913
vn -0.7225 0.0000 0.6913
vn -0.7225 0.0000 0.6913
vn -0.8404 0.0000 0.5420
vn -0.8404 0.0000 0.5420
vn -0.7225 0.0000 0.6913
vn -0.5463 0.0000 0.8376
vn -0.5463 0.0000 0.8376
vn -0.5463 0.0000 0.8376
vn -0.7225 0.0000 0.6913
vn -0.7225 0.0000 0.6913
vn 0.5463 0.0000 0.8376
vn 0.7225 0.0000 0.6913
vn 0.7225 0.0000 0.6913
vn 0.7225 0.0000 0.6913
vn 0.5463 0.0000 0.8376
vn 0.5463 0.0000 0.8376
vn 0.2996 0.0000 0.9541
vn 0.5463 0.0000 0.8376
vn 0.5463 0.0000 0.8376
vn 0.5463 0.0000 0.8376
vn 0.2996 0.0000 0.9541
vn 0.2996 0.0000 0.9541
vn -0.5463 0.0000 0.8376
vn -0.2996 0.0000 0.9541
vn -0.2996 0.0000 0.9541
vn -0.2996 0.0000 0.9541
vn -0.5463 0.0000 0.8376
vn -0.5463 0.0000 0.8376
# 372 vertex normals

vt 0.2742 0.9009 0.0000
vt 0.2500 0.9085 0.0000
vt 0.2258 0.9009 0.0000
vt 0.2033 0.8790 0.0000
vt 0.1829 0.8444 0.0000
vt 0.1652 0.7986 0.0000
vt 0.1505 0.7431 0.0000
vt 0.1394 0.6794 0.0000
vt 0.1324 0.6090 0.0000
vt 0.1300 0.5335 0.0000
vt 0.1324 0.4580 0.0000
vt 0.1394 0.3876 0.0000
vt 0.1505 0.3239 0.0000
vt 0.1652 0.2684 0.0000
vt 0.1829 0.2226 0.0000
vt 0.2033 0.1880 0.0000
vt 0.2258 0.1661 0.0000
vt 0.2500 0.1585 0.0000
vt 0.2742 0.1661 0.0000
vt 0.2967 0.1880 0.0000
vt 0.3171 0.2226 0.0000
vt 0.3348 0.2684 0.0000
vt 0.3495 0.3239 0.0000
vt 0.3606 0.3876 0.0000
vt 0.3676 0.4580 0.0000
vt 0.3700 0.5335 0.0000
vt 0.3676 0.6090 0.0000
vt 0.3606 0.6794 0.0000
vt 0.3495 0.7431 0.0000
vt 0.3348 0.7986 0.0000
vt 0.3171 0.8444 0.0000
vt 0.2967 0.8790 0.0000
vt 0.7000 0.0750 0.0000
vt 0.6820 0.0750 0.0000
vt 0.6820 0.0250 0.0000
vt 0.7000 0.0250 0.0000
vt 0.7180 0.0750 0.0000
vt 0.7180 0.0250 0.0000
vt 0.2000 0.0750 0.0000
vt 0.1747 0.0750 0.0000
vt 0.1747 0.0250 0.0000
vt 0.2000 0.0250 0.0000
vt 0.2253 0.0750 0.0000
vt 0.2253 0.0250 0.0000
vt 0.1488 0.0750 0.0000
vt 0.1488 0.0250 0.0000
vt 0.2512 0.0750 0.0000
vt 0.2512 0.0250 0.0000
vt 0.2795 0.0750 0.0000
vt 0.2795 0.0250 0.0000
vt 0.1205 0.0750 0.0000
vt 0.1205 0.0250 0.0000
vt 0.3118 0.0750 0.0000
vt 0.3118 0.0250 0.0000
vt 0.0882 0.0750 0.0000
vt 0.0882 0.0250 0.0000
vt 0.3495 0.0750 0.0000
vt 0.3495 0.0250 0.0000
vt 0.0505 0.0750 0.0000
vt 0.0505 0.0250 0.0000
vt 0.3931 0.0750 0.0000
vt 0.3931 0.0250 0.0000
vt 0.0069 0.0750 0.0000
vt 0.0069 0.0250 0.0000
vt 0.4413 0.0750 0.0000
vt 0.4413 0.0250 0.0000
vt -0.0413 0.0750 0.0000
vt -0.0413 0.0250 0.0000
vt 0.9099 0.0750 0.0000
vt 0.9099 0.0250 0.0000
vt 0.4901 0.0750 0.0000
vt 0.4901 0.0250 0.0000
vt 0.5338 0.0750 0.0000
vt 0.5338 0.0250 0.0000
vt 0.8662 0.0750 0.0000
vt 0.8662 0.0250 0.0000
vt 0.5695 0.0750 0.0000
vt 0.5695 0.0250 0.0000
vt 0.8305 0.0750 0.0000
vt 0.8305 0.0250 0.0000
vt 0.8013 0.0750 0.0000
vt 0.8013 0.0250 0.0000
vt 0.5987 0.0750 0.0000
vt 0.5987 0.0250 0.0000
vt 0.7767 0.0750 0.0000
vt 0.7767 0.0250 0.0000
vt 0.6233 0.0750 0.0000
vt 0.6233 0.0250 0.0000
vt 0.7554 0.0750 0.0000
vt 0.7554 0.0250 0.0000
vt 0.6446 0.0750 0.0000
vt 0.6446 0.0250 0.0000
vt 0.6638 0.0750 0.0000
vt 0.6638 0.0250 0.0000
vt 0.7362 0.0750 0.0000
vt 0.7362 0.0250 0.0000
vt 0.9587 0.0750 0.0000
vt 0.9587 0.0250 0.0000
vt 0.7258 0.9009 0.0000
vt 0.7500 0.9085 0.0000
vt 0.7742 0.9009 0.0000
vt 0.7967 0.8790 0.0000
vt 0.8171 0.8444 0.0000
vt 0.8348 0.7986 0.0000
vt 0.8495 0.7431 0.0000
vt 0.8606 0.6794 0.0000
vt 0.8676 0.6090 0.0000
vt 0.8700 0.5335 0.0000
vt 0.8676 0.4580 0.0000
vt 0.8606 0.3876 0.0000
vt 0.8495 0.3239 0.0000
vt 0.8348 0.2684 0.0000
vt 0.8171 0.2226 0.0000
vt 0.7967 0.1880 0.0000
vt 0.7742 0.1661 0.0000
vt 0.7500 0.1585 0.0000
vt 0.7258 0.1661 0.0000
vt 0.7033 0.1880 0.0000
vt 0.6829 0.2226 0.0000
vt 0.6652 0.2684 0.0000
vt 0.6505 0.3239 0.0000
vt 0.6394 0.3876 0.0000
vt 0.6324 0.4580 0.0000
vt 0.6300 0.5335 0.0000
vt 0.6324 0.6090 0.0000
vt 0.6394 0.6794 0.0000
vt 0.6505 0.7431 0.0000
vt 0.6652 0.7986 0.0000
vt 0.6829 0.8444 0.0000
vt 0.7033 0.8790 0.0000
# 130 texture coords

g OvalV_COL
usemtl wire_224086086
f 8/1/1 9/2/2 10/3/3 
f 24/17/4 25/18/5 26/19/6 
f 23/16/7 24/17/8 26/19/9 
f 23/16/10 26/19/11 27/20/12 
f 23/16/13 27/20/14 28/21/15 
f 22/15/16 23/16/17 28/21/18 
f 21/14/19 22/15/20 28/21/21 
f 21/14/22 28/21/23 29/22/24 
f 20/13/25 21/14/26 29/22/27 
f 20/13/28 29/22/29 30/23/30 
f 19/12/31 20/13/32 30/23/33 
f 19/12/34 30/23/35 31/24/36 
f 19/12/37 31/24/38 32/25/39 
f 18/11/40 19/12/41 32/25/42 
f 18/11/43 32/25/44 1/26/45 
f 17/10/46 18/11/47 1/26/48 
f 16/9/49 17/10/50 1/26/51 
f 16/9/52 1/26/53 2/27/54 
f 16/9/55 2/27/56 3/28/57 
f 15/8/58 16/9/59 3/28/60 
f 15/8/61 3/28/62 4/29/63 
f 14/7/64 15/8/65 4/29/66 
f 14/7/67 4/29/68 5/30/69 
f 13/6/70 14/7/71 5/30/72 
f 13/6/73 5/30/74 6/31/75 
f 12/5/76 13/6/77 6/31/78 
f 12/5/79 6/31/80 7/32/81 
f 11/4/82 12/5/83 7/32/84 
f 10/3/85 11/4/86 7/32/87 
f 8/1/88 10/3/89 7/32/90 
f 42/99/91 41/100/92 40/101/93 
f 42/99/94 40/101/95 39/102/96 
f 58/115/97 57/116/98 56/117/99 
f 58/115/100 56/117/101 55/118/102 
f 59/114/103 58/115/104 55/118/105 
f 60/113/106 59/114/107 55/118/108 
f 60/113/109 55/118/110 54/119/111 
f 60/113/112 54/119/113 53/120/114 
f 61/112/115 60/113/116 53/120/117 
f 61/112/118 53/120/119 52/121/120 
f 62/111/121 61/112/122 52/121/123 
f 62/111/124 52/121/125 51/122/126 
f 63/110/127 62/111/128 51/122/129 
f 64/109/130 63/110/131 51/122/132 
f 64/109/133 51/122/134 50/123/135 
f 33/108/136 64/109/137 50/123/138 
f 33/108/139 50/123/140 49/124/141 
f 33/108/142 49/124/143 48/125/144 
f 34/107/145 33/108/146 48/125/147 
f 35/106/148 34/107/149 48/125/150 
f 35/106/151 48/125/152 47/126/153 
f 36/105/154 35/106/155 47/126/156 
f 36/105/157 47/126/158 46/127/159 
f 37/104/160 36/105/161 46/127/162 
f 37/104/163 46/127/164 45/128/165 
f 38/103/166 37/104/167 45/128/168 
f 38/103/169 45/128/170 44/129/171 
f 39/102/172 38/103/173 44/129/174 
f 39/102/175 44/129/176 43/130/177 
f 42/99/178 39/102/179 43/130/180 
f 56/35/181 57/36/182 25/33/183 
f 25/33/184 24/34/185 56/35/186 
f 57/36/187 58/38/188 26/37/189 
f 26/37/190 25/33/191 57/36/192 
f 40/41/193 41/42/194 9/39/195 
f 9/39/196 8/40/197 40/41/198 
f 41/42/199 42/44/200 10/43/201 
f 10/43/202 9/39/203 41/42/204 
f 39/46/205 40/41/206 8/40/207 
f 8/40/208 7/45/209 39/46/210 
f 42/44/211 43/48/212 11/47/213 
f 11/47/214 10/43/215 42/44/216 
f 43/48/217 44/50/218 12/49/219 
f 12/49/220 11/47/221 43/48/222 
f 38/52/223 39/46/224 7/45/225 
f 7/45/226 6/51/227 38/52/228 
f 44/50/229 45/54/230 13/53/231 
f 13/53/232 12/49/233 44/50/234 
f 37/56/235 38/52/236 6/51/237 
f 6/51/238 5/55/239 37/56/240 
f 45/54/241 46/58/242 14/57/243 
f 14/57/244 13/53/245 45/54/246 
f 36/60/247 37/56/248 5/55/249 
f 5/55/250 4/59/251 36/60/252 
f 46/58/253 47/62/254 15/61/255 
f 15/61/256 14/57/257 46/58/258 
f 35/64/259 36/60/260 4/59/261 
f 4/59/262 3/63/263 35/64/264 
f 47/62/265 48/66/266 16/65/267 
f 16/65/268 15/61/269 47/62/270 
f 34/68/271 35/64/272 3/63/273 
f 3/63/274 2/67/275 34/68/276 
f 33/70/277 34/98/278 2/97/279 
f 2/97/280 1/69/281 33/70/282 
f 48/66/283 49/72/284 17/71/285 
f 17/71/286 16/65/287 48/66/288 
f 49/72/289 50/74/290 18/73/291 
f 18/73/292 17/71/293 49/72/294 
f 64/76/295 33/70/296 1/69/297 
f 1/69/298 32/75/299 64/76/300 
f 50/74/301 51/78/302 19/77/303 
f 19/77/304 18/73/305 50/74/306 
f 63/80/307 64/76/308 32/75/309 
f 32/75/310 31/79/311 63/80/312 
f 62/82/313 63/80/314 31/79/315 
f 31/79/316 30/81/317 62/82/318 
f 51/78/319 52/84/320 20/83/321 
f 20/83/322 19/77/323 51/78/324 
f 61/86/325 62/82/326 30/81/327 
f 30/81/328 29/85/329 61/86/330 
f 52/84/331 53/88/332 21/87/333 
f 21/87/334 20/83/335 52/84/336 
f 60/90/337 61/86/338 29/85/339 
f 29/85/340 28/89/341 60/90/342 
f 53/88/343 54/92/344 22/91/345 
f 22/91/346 21/87/347 53/88/348 
f 54/92/349 55/94/350 23/93/351 
f 23/93/352 22/91/353 54/92/354 
f 59/96/355 60/90/356 28/89/357 
f 28/89/358 27/95/359 59/96/360 
f 58/38/361 59/96/362 27/95/363 
f 27/95/364 26/37/365 58/38/366 
f 55/94/367 56/35/368 24/34/369 
f 24/34/370 23/93/371 55/94/372 
# 124 faces

