# 3ds Max Wavefront OBJ Exporter v0.97b - (c)2007 guruware
# File Created: 11.03.2017 12:29:56

mtllib Pent_COL.mtl

#
# object Pent_COL
#

v  -0.0000 0.0313 -0.5257
v  -0.5000 0.0313 -0.1625
v  -0.3090 0.0313 0.4253
v  0.3090 0.0313 0.4253
v  0.5000 0.0313 -0.1625
v  -0.0000 -0.0313 -0.5257
v  -0.5000 -0.0313 -0.1625
v  -0.3090 -0.0313 0.4253
v  0.3090 -0.0313 0.4253
v  0.5000 -0.0313 -0.1625
# 10 vertices

vn 0.0000 1.0000 -0.0000
vn 0.0000 1.0000 -0.0000
vn 0.0000 1.0000 -0.0000
vn 0.0000 1.0000 -0.0000
vn 0.0000 1.0000 -0.0000
vn 0.0000 1.0000 -0.0000
vn 0.0000 1.0000 -0.0000
vn 0.0000 1.0000 -0.0000
vn 0.0000 1.0000 -0.0000
vn 0.0000 -1.0000 -0.0000
vn 0.0000 -1.0000 -0.0000
vn 0.0000 -1.0000 -0.0000
vn 0.0000 -1.0000 -0.0000
vn 0.0000 -1.0000 -0.0000
vn 0.0000 -1.0000 -0.0000
vn 0.0000 -1.0000 -0.0000
vn 0.0000 -1.0000 -0.0000
vn 0.0000 -1.0000 -0.0000
vn -0.5878 0.0000 -0.8090
vn -0.5878 0.0000 -0.8090
vn -0.5878 0.0000 -0.8090
vn -0.5878 0.0000 -0.8090
vn -0.5878 0.0000 -0.8090
vn -0.5878 0.0000 -0.8090
vn -0.9511 0.0000 0.3090
vn -0.9511 0.0000 0.3090
vn -0.9511 0.0000 0.3090
vn -0.9511 0.0000 0.3090
vn -0.9511 0.0000 0.3090
vn -0.9511 0.0000 0.3090
vn 0.0000 0.0000 1.0000
vn 0.0000 0.0000 1.0000
vn 0.0000 0.0000 1.0000
vn 0.0000 0.0000 1.0000
vn 0.0000 0.0000 1.0000
vn 0.0000 0.0000 1.0000
vn 0.9511 0.0000 0.3090
vn 0.9511 0.0000 0.3090
vn 0.9511 0.0000 0.3090
vn 0.9511 0.0000 0.3090
vn 0.9511 0.0000 0.3090
vn 0.9511 0.0000 0.3090
vn 0.5878 0.0000 -0.8090
vn 0.5878 0.0000 -0.8090
vn 0.5878 0.0000 -0.8090
vn 0.5878 0.0000 -0.8090
vn 0.5878 0.0000 -0.8090
vn 0.5878 0.0000 -0.8090
# 48 vertex normals

vt 0.1341 0.2145 0.0000
vt 0.3659 0.2145 0.0000
vt 0.4375 0.6553 0.0000
vt 0.2500 0.9278 0.0000
vt 0.0625 0.6553 0.0000
vt 0.4253 0.0750 0.0000
vt 0.2000 0.0750 0.0000
vt 0.2000 0.0250 0.0000
vt 0.4253 0.0250 0.0000
vt 0.6124 0.0750 0.0000
vt 0.6124 0.0250 0.0000
vt 0.7876 0.0750 0.0000
vt 0.7876 0.0250 0.0000
vt -0.0253 0.0750 0.0000
vt -0.0253 0.0250 0.0000
vt 0.9747 0.0750 0.0000
vt 0.9747 0.0250 0.0000
vt 0.9375 0.6553 0.0000
vt 0.8659 0.2145 0.0000
vt 0.6341 0.2145 0.0000
vt 0.5625 0.6553 0.0000
vt 0.7500 0.9278 0.0000
# 22 texture coords

g Pent_COL
usemtl wire_224086086
f 3/1/1 4/2/2 5/3/3 
f 3/1/4 5/3/5 1/4/6 
f 3/1/7 1/4/8 2/5/9 
f 10/18/10 9/19/11 8/20/12 
f 8/20/13 7/21/14 6/22/15 
f 10/18/16 8/20/17 6/22/18 
f 6/8/19 7/9/20 2/6/21 
f 2/6/22 1/7/23 6/8/24 
f 7/9/25 8/11/26 3/10/27 
f 3/10/28 2/6/29 7/9/30 
f 8/11/31 9/13/32 4/12/33 
f 4/12/34 3/10/35 8/11/36 
f 9/13/37 10/17/38 5/16/39 
f 5/16/40 4/12/41 9/13/42 
f 10/15/43 6/8/44 1/7/45 
f 1/7/46 5/14/47 10/15/48 
# 16 faces

