# 3ds Max Wavefront OBJ Exporter v0.97b - (c)2007 guruware
# File Created: 11.03.2017 14:36:09

mtllib Pillow_MSH.mtl

#
# object Pillow
#

v  -0.4412 0.0313 -0.4451
v  -0.4849 0.0313 -0.2245
v  -0.4994 0.0312 -0.0008
v  -0.4848 0.0313 0.2229
v  -0.4411 0.0313 0.4434
v  -0.2195 0.0313 0.4858
v  0.0039 0.0313 0.4996
v  0.2265 0.0312 0.4847
v  0.4457 0.0312 0.4411
v  0.4879 0.0312 0.2207
v  0.5018 0.0312 -0.0016
v  0.4873 0.0313 -0.2231
v  0.4445 0.0313 -0.4413
v  0.2252 0.0313 -0.4852
v  0.0027 0.0313 -0.5004
v  -0.2203 0.0312 -0.4870
v  -0.4412 -0.0313 -0.4451
v  -0.4849 -0.0313 -0.2245
v  -0.4994 -0.0313 -0.0008
v  -0.4848 -0.0313 0.2229
v  -0.4411 -0.0313 0.4434
v  -0.2195 -0.0313 0.4858
v  0.0039 -0.0313 0.4996
v  0.2265 -0.0313 0.4847
v  0.4457 -0.0313 0.4411
v  0.4879 -0.0313 0.2207
v  0.5018 -0.0313 -0.0016
v  0.4873 -0.0313 -0.2231
v  0.4445 -0.0313 -0.4413
v  0.2252 -0.0313 -0.4852
v  0.0027 -0.0313 -0.5004
v  -0.2203 -0.0313 -0.4870
v  -0.4412 0.0313 -0.4451
v  -0.4411 0.0313 0.4434
v  0.4457 0.0312 0.4411
v  0.4445 0.0313 -0.4413
v  -0.4412 -0.0313 -0.4451
v  -0.4411 -0.0313 0.4434
v  0.4457 -0.0313 0.4411
v  0.4445 -0.0313 -0.4413
# 40 vertices

vn -0.9915 0.0000 0.1302
vn -0.9809 0.0000 0.1946
vn -0.9809 0.0000 0.1946
vn -0.9809 0.0000 0.1946
vn -0.9915 0.0000 0.1302
vn -0.9915 0.0000 0.1302
vn -0.1879 0.0000 0.9822
vn -0.1250 0.0000 0.9922
vn -0.1250 0.0000 0.9922
vn -0.1250 0.0000 0.9922
vn -0.1879 0.0000 0.9822
vn -0.1879 0.0000 0.9822
vn 0.1312 0.0000 0.9914
vn 0.1951 0.0000 0.9808
vn 0.1951 0.0000 0.9808
vn 0.1951 0.0000 0.9808
vn 0.1312 0.0000 0.9914
vn 0.1312 0.0000 0.9914
vn 0.9822 0.0000 0.1879
vn 0.9921 0.0000 0.1254
vn 0.9921 0.0000 0.1254
vn 0.9921 0.0000 0.1254
vn 0.9822 0.0000 0.1879
vn 0.9822 0.0000 0.1879
vn 0.0026 0.0000 1.0000
vn 0.1312 0.0000 0.9914
vn 0.1312 0.0000 0.9914
vn 0.1312 0.0000 0.9914
vn 0.0026 0.0000 1.0000
vn 0.0026 0.0000 1.0000
vn 0.9921 0.0000 0.1254
vn 1.0000 0.0000 -0.0014
vn 1.0000 0.0000 -0.0014
vn 1.0000 0.0000 -0.0014
vn 0.9921 0.0000 0.1254
vn 0.9921 0.0000 0.1254
vn 1.0000 0.0000 -0.0014
vn 0.9916 0.0000 -0.1292
vn 0.9916 0.0000 -0.1292
vn 0.9916 0.0000 -0.1292
vn 1.0000 0.0000 -0.0014
vn 1.0000 0.0000 -0.0014
vn 0.9916 0.0000 -0.1292
vn 0.9812 0.0000 -0.1928
vn 0.9812 0.0000 -0.1928
vn 0.9812 0.0000 -0.1928
vn 0.9916 0.0000 -0.1292
vn 0.9916 0.0000 -0.1292
vn 0.1964 0.0000 -0.9805
vn 0.1326 0.0000 -0.9912
vn 0.1326 0.0000 -0.9912
vn 0.1326 0.0000 -0.9912
vn 0.1964 0.0000 -0.9805
vn 0.1964 0.0000 -0.9805
vn 0.1326 0.0000 -0.9912
vn 0.0041 0.0000 -1.0000
vn 0.0041 0.0000 -1.0000
vn 0.0041 0.0000 -1.0000
vn 0.1326 0.0000 -0.9912
vn 0.1326 0.0000 -0.9912
vn 0.0041 0.0000 -1.0000
vn -0.1234 0.0000 -0.9924
vn -0.1234 0.0000 -0.9924
vn -0.1234 0.0000 -0.9924
vn 0.0041 0.0000 -1.0000
vn 0.0041 0.0000 -1.0000
vn -0.1234 0.0000 -0.9924
vn -0.1863 0.0000 -0.9825
vn -0.1863 0.0000 -0.9825
vn -0.1863 0.0000 -0.9825
vn -0.1234 0.0000 -0.9924
vn -0.1234 0.0000 -0.9924
vn -0.9809 0.0000 -0.1944
vn -0.9915 0.0000 -0.1299
vn -0.9915 0.0000 -0.1299
vn -0.9915 0.0000 -0.1299
vn -0.9809 0.0000 -0.1944
vn -0.9809 0.0000 -0.1944
vn -0.9915 0.0000 -0.1299
vn -1.0000 0.0000 0.0001
vn -1.0000 0.0000 0.0001
vn -1.0000 0.0000 0.0001
vn -0.9915 0.0000 -0.1299
vn -0.9915 0.0000 -0.1299
vn -0.1250 0.0000 0.9922
vn 0.0026 0.0000 1.0000
vn 0.0026 0.0000 1.0000
vn 0.0026 0.0000 1.0000
vn -0.1250 0.0000 0.9922
vn -0.1250 0.0000 0.9922
vn -1.0000 0.0000 0.0001
vn -0.9915 0.0000 0.1302
vn -0.9915 0.0000 0.1302
vn -0.9915 0.0000 0.1302
vn -1.0000 0.0000 0.0001
vn -1.0000 0.0000 0.0001
# 96 vertex normals

vt 0.5957 0.0875 0.0000
vt 0.5466 0.0875 0.0000
vt 0.5466 0.0375 0.0000
vt 0.5957 0.0375 0.0000
vt 0.6481 0.0875 0.0000
vt 0.6481 0.0375 0.0000
vt 0.8194 0.0875 0.0000
vt 0.7676 0.0875 0.0000
vt 0.7676 0.0375 0.0000
vt 0.8194 0.0375 0.0000
vt 0.8682 0.0875 0.0000
vt 0.8682 0.0375 0.0000
vt 0.7080 0.0875 0.0000
vt 0.7080 0.0375 0.0000
vt 0.9305 0.0875 0.0000
vt 0.9305 0.0375 0.0000
vt -0.0000 0.0875 0.0000
vt -0.0000 0.0375 0.0000
vt 0.0633 0.0875 0.0000
vt 0.0633 0.0375 0.0000
vt 0.1244 0.0875 0.0000
vt 0.1244 0.0375 0.0000
vt 0.2059 0.0875 0.0000
vt 0.2059 0.0375 0.0000
vt 0.2877 0.0875 0.0000
vt 0.2877 0.0375 0.0000
vt 0.3491 0.0875 0.0000
vt 0.3491 0.0375 0.0000
vt 0.4133 0.0875 0.0000
vt 0.4133 0.0375 0.0000
vt 0.4837 0.0875 0.0000
vt 0.4837 0.0375 0.0000
vt 1.0000 0.0875 0.0000
vt 1.0000 0.0375 0.0000
# 34 texture coords

g Pillow
usemtl wire_087225087
f 20/3/1 38/4/2 5/1/3 
f 5/1/4 4/2/5 20/3/6 
f 21/4/7 22/6/8 6/5/9 
f 6/5/10 34/1/11 21/4/12 
f 24/9/13 39/10/14 9/7/15 
f 9/7/16 8/8/17 24/9/18 
f 25/10/19 26/12/20 10/11/21 
f 10/11/22 35/7/23 25/10/24 
f 23/14/25 24/9/26 8/8/27 
f 8/8/28 7/13/29 23/14/30 
f 26/12/31 27/16/32 11/15/33 
f 11/15/34 10/11/35 26/12/36 
f 27/16/37 28/34/38 12/33/39 
f 12/33/40 11/15/41 27/16/42 
f 28/18/43 40/20/44 13/19/45 
f 13/19/46 12/17/47 28/18/48 
f 29/20/49 30/22/50 14/21/51 
f 14/21/52 36/19/53 29/20/54 
f 30/22/55 31/24/56 15/23/57 
f 15/23/58 14/21/59 30/22/60 
f 31/24/61 32/26/62 16/25/63 
f 16/25/64 15/23/65 31/24/66 
f 32/26/67 37/28/68 1/27/69 
f 1/27/70 16/25/71 32/26/72 
f 17/28/73 18/30/74 2/29/75 
f 2/29/76 33/27/77 17/28/78 
f 18/30/79 19/32/80 3/31/81 
f 3/31/82 2/29/83 18/30/84 
f 22/6/85 23/14/86 7/13/87 
f 7/13/88 6/5/89 22/6/90 
f 19/32/91 20/3/92 4/2/93 
f 4/2/94 3/31/95 19/32/96 
# 32 faces

#
# object Pillow_faces
#

v  -0.4412 0.0313 -0.4451
v  -0.4849 0.0313 -0.2245
v  -0.4994 0.0312 -0.0008
v  -0.4848 0.0313 0.2229
v  -0.4411 0.0313 0.4434
v  -0.2195 0.0313 0.4858
v  0.0039 0.0313 0.4996
v  0.2265 0.0312 0.4847
v  0.4457 0.0312 0.4411
v  0.4879 0.0312 0.2207
v  0.5018 0.0312 -0.0016
v  0.4873 0.0313 -0.2231
v  0.4445 0.0313 -0.4413
v  0.2252 0.0313 -0.4852
v  0.0027 0.0313 -0.5004
v  -0.2203 0.0312 -0.4870
v  -0.4412 -0.0313 -0.4451
v  -0.4849 -0.0313 -0.2245
v  -0.4994 -0.0313 -0.0008
v  -0.4848 -0.0313 0.2229
v  -0.4411 -0.0313 0.4434
v  -0.2195 -0.0313 0.4858
v  0.0039 -0.0313 0.4996
v  0.2265 -0.0313 0.4847
v  0.4457 -0.0313 0.4411
v  0.4879 -0.0313 0.2207
v  0.5018 -0.0313 -0.0016
v  0.4873 -0.0313 -0.2231
v  0.4445 -0.0313 -0.4413
v  0.2252 -0.0313 -0.4852
v  0.0027 -0.0313 -0.5004
v  -0.2203 -0.0313 -0.4870
# 32 vertices

vn -0.0000 1.0000 -0.0000
vn 0.0000 1.0000 0.0000
vn 0.0000 1.0000 0.0000
vn 0.0000 1.0000 -0.0000
vn 0.0000 1.0000 -0.0000
vn 0.0000 1.0000 -0.0000
vn -0.0000 1.0000 0.0000
vn 0.0000 1.0000 -0.0000
vn 0.0000 1.0000 -0.0000
vn -0.0000 1.0000 0.0000
vn 0.0000 1.0000 -0.0000
vn 0.0000 1.0000 0.0000
vn 0.0000 1.0000 0.0000
vn -0.0000 1.0000 0.0000
vn 0.0000 1.0000 0.0000
vn -0.0000 1.0000 -0.0000
vn 0.0000 1.0000 0.0000
vn 0.0000 1.0000 0.0000
vn 0.0000 1.0000 0.0000
vn 0.0000 1.0000 -0.0000
vn 0.0000 1.0000 0.0000
vn 0.0000 1.0000 0.0000
vn 0.0000 1.0000 0.0000
vn 0.0000 1.0000 0.0000
vn 0.0000 1.0000 0.0000
vn 0.0000 1.0000 0.0000
vn 0.0000 1.0000 0.0000
vn 0.0000 1.0000 0.0000
vn 0.0000 1.0000 0.0000
vn 0.0000 1.0000 0.0000
vn 0.0000 1.0000 0.0000
vn 0.0000 1.0000 -0.0000
vn 0.0000 1.0000 -0.0000
vn 0.0000 1.0000 0.0000
vn 0.0000 1.0000 0.0000
vn 0.0000 1.0000 -0.0000
vn 0.0000 1.0000 0.0000
vn 0.0000 1.0000 -0.0000
vn -0.0000 1.0000 0.0000
vn -0.0000 1.0000 -0.0000
vn 0.0000 1.0000 0.0000
vn -0.0000 1.0000 0.0000
vn 0.0000 -1.0000 -0.0000
vn 0.0000 -1.0000 -0.0000
vn 0.0000 -1.0000 -0.0000
vn 0.0000 -1.0000 -0.0000
vn 0.0000 -1.0000 -0.0000
vn 0.0000 -1.0000 -0.0000
vn 0.0000 -1.0000 -0.0000
vn 0.0000 -1.0000 -0.0000
vn 0.0000 -1.0000 -0.0000
vn 0.0000 -1.0000 -0.0000
vn 0.0000 -1.0000 -0.0000
vn 0.0000 -1.0000 -0.0000
vn 0.0000 -1.0000 -0.0000
vn 0.0000 -1.0000 -0.0000
vn 0.0000 -1.0000 -0.0000
vn 0.0000 -1.0000 -0.0000
vn 0.0000 -1.0000 -0.0000
vn 0.0000 -1.0000 -0.0000
vn 0.0000 -1.0000 -0.0000
vn 0.0000 -1.0000 -0.0000
vn 0.0000 -1.0000 -0.0000
vn 0.0000 -1.0000 -0.0000
vn 0.0000 -1.0000 -0.0000
vn 0.0000 -1.0000 -0.0000
vn 0.0000 -1.0000 -0.0000
vn 0.0000 -1.0000 -0.0000
vn 0.0000 -1.0000 -0.0000
vn 0.0000 -1.0000 -0.0000
vn 0.0000 -1.0000 -0.0000
vn 0.0000 -1.0000 -0.0000
vn 0.0000 -1.0000 -0.0000
vn 0.0000 -1.0000 -0.0000
vn 0.0000 -1.0000 -0.0000
vn 0.0000 -1.0000 -0.0000
vn 0.0000 -1.0000 -0.0000
vn 0.0000 -1.0000 -0.0000
vn 0.0000 -1.0000 -0.0000
vn 0.0000 -1.0000 -0.0000
vn 0.0000 -1.0000 -0.0000
vn 0.0000 -1.0000 -0.0000
vn 0.0000 -1.0000 -0.0000
vn 0.0000 -1.0000 -0.0000
# 84 vertex normals

vt 0.0846 0.8361 0.0000
vt 0.0682 0.6706 0.0000
vt 0.0627 0.5029 0.0000
vt 0.0682 0.3351 0.0000
vt 0.0846 0.1697 0.0000
vt 0.1677 0.1379 0.0000
vt 0.2515 0.1275 0.0000
vt 0.3350 0.1387 0.0000
vt 0.4171 0.1714 0.0000
vt 0.4330 0.3367 0.0000
vt 0.4382 0.5034 0.0000
vt 0.4327 0.6696 0.0000
vt 0.4167 0.8332 0.0000
vt 0.3344 0.8661 0.0000
vt 0.2510 0.8775 0.0000
vt 0.1674 0.8675 0.0000
vt 0.5846 0.8361 0.0000
vt 0.5682 0.6706 0.0000
vt 0.5627 0.5029 0.0000
vt 0.5682 0.3351 0.0000
vt 0.5846 0.1697 0.0000
vt 0.6677 0.1379 0.0000
vt 0.7515 0.1275 0.0000
vt 0.8350 0.1387 0.0000
vt 0.9171 0.1714 0.0000
vt 0.9330 0.3367 0.0000
vt 0.9382 0.5034 0.0000
vt 0.9327 0.6696 0.0000
vt 0.9167 0.8332 0.0000
vt 0.8344 0.8661 0.0000
vt 0.7510 0.8775 0.0000
vt 0.6674 0.8675 0.0000
# 32 texture coords

g Pillow_faces
usemtl wire_087225087
f 56/50/97 41/35/98 42/36/99 
f 44/38/100 45/39/101 46/40/102 
f 43/37/103 44/38/104 46/40/105 
f 43/37/106 46/40/107 47/41/108 
f 42/36/109 43/37/110 47/41/111 
f 56/50/112 42/36/113 47/41/114 
f 48/42/115 49/43/116 50/44/117 
f 47/41/118 48/42/119 50/44/120 
f 47/41/121 50/44/122 51/45/123 
f 47/41/124 51/45/125 52/46/126 
f 52/46/127 53/47/128 54/48/129 
f 47/41/130 52/46/131 54/48/132 
f 47/41/133 54/48/134 55/49/135 
f 56/50/136 47/41/137 55/49/138 
f 58/52/139 57/51/140 72/66/141 
f 70/64/142 69/63/143 68/62/144 
f 66/60/145 65/59/146 64/58/147 
f 66/60/148 64/58/149 63/57/150 
f 67/61/151 66/60/152 63/57/153 
f 68/62/154 67/61/155 63/57/156 
f 70/64/157 68/62/158 63/57/159 
f 71/65/160 70/64/161 63/57/162 
f 72/66/163 71/65/164 63/57/165 
f 58/52/166 72/66/167 63/57/168 
f 62/56/169 61/55/170 60/54/171 
f 62/56/172 60/54/173 59/53/174 
f 63/57/175 62/56/176 59/53/177 
f 58/52/178 63/57/179 59/53/180 
# 28 faces

