# 3ds Max Wavefront OBJ Exporter v0.97b - (c)2007 guruware
# File Created: 11.03.2017 12:29:56

mtllib RectH_COL.mtl

#
# object RectH_COL
#

v  -0.5000 0.0313 -0.3200
v  -0.5000 0.0313 0.3200
v  0.5000 0.0313 0.3200
v  0.5000 0.0313 -0.3200
v  -0.5000 -0.0313 -0.3200
v  -0.5000 -0.0313 0.3200
v  0.5000 -0.0313 0.3200
v  0.5000 -0.0313 -0.3200
# 8 vertices

vn 0.0000 1.0000 -0.0000
vn 0.0000 1.0000 -0.0000
vn 0.0000 1.0000 -0.0000
vn 0.0000 1.0000 -0.0000
vn 0.0000 1.0000 -0.0000
vn 0.0000 1.0000 -0.0000
vn 0.0000 -1.0000 -0.0000
vn 0.0000 -1.0000 -0.0000
vn 0.0000 -1.0000 -0.0000
vn 0.0000 -1.0000 -0.0000
vn 0.0000 -1.0000 -0.0000
vn 0.0000 -1.0000 -0.0000
vn -1.0000 0.0000 -0.0000
vn -1.0000 0.0000 -0.0000
vn -1.0000 0.0000 -0.0000
vn -1.0000 0.0000 -0.0000
vn -1.0000 0.0000 -0.0000
vn -1.0000 0.0000 -0.0000
vn 0.0000 0.0000 1.0000
vn 0.0000 0.0000 1.0000
vn 0.0000 0.0000 1.0000
vn 0.0000 0.0000 1.0000
vn 0.0000 0.0000 1.0000
vn 0.0000 0.0000 1.0000
vn 1.0000 0.0000 -0.0000
vn 1.0000 0.0000 -0.0000
vn 1.0000 0.0000 -0.0000
vn 1.0000 0.0000 -0.0000
vn 1.0000 0.0000 -0.0000
vn 1.0000 0.0000 -0.0000
vn -0.0000 0.0000 -1.0000
vn -0.0000 0.0000 -1.0000
vn -0.0000 0.0000 -1.0000
vn -0.0000 0.0000 -1.0000
vn -0.0000 0.0000 -1.0000
vn -0.0000 0.0000 -1.0000
# 36 vertex normals

vt 0.0625 0.7735 0.0000
vt 0.0625 0.2935 0.0000
vt 0.4375 0.2935 0.0000
vt 0.4375 0.7735 0.0000
vt 0.5572 0.0750 0.0000
vt 0.3803 0.0750 0.0000
vt 0.3803 0.0250 0.0000
vt 0.5572 0.0250 0.0000
vt 0.8428 0.0750 0.0000
vt 0.8428 0.0250 0.0000
vt 0.0197 0.0750 0.0000
vt 0.0197 0.0250 0.0000
vt 1.0197 0.0750 0.0000
vt 1.0197 0.0250 0.0000
vt 0.9375 0.2935 0.0000
vt 0.5625 0.2935 0.0000
vt 0.5625 0.7735 0.0000
vt 0.9375 0.7735 0.0000
# 18 texture coords

g RectH_COL
usemtl wire_224086086
f 3/3/1 4/4/2 1/1/3 
f 1/1/4 2/2/5 3/3/6 
f 5/17/7 8/18/8 7/15/9 
f 7/15/10 6/16/11 5/17/12 
f 5/7/13 6/8/14 2/5/15 
f 2/5/16 1/6/17 5/7/18 
f 6/8/19 7/10/20 3/9/21 
f 3/9/22 2/5/23 6/8/24 
f 7/10/25 8/14/26 4/13/27 
f 4/13/28 3/9/29 7/10/30 
f 8/12/31 5/7/32 1/6/33 
f 1/6/34 4/11/35 8/12/36 
# 12 faces

