# 3ds Max Wavefront OBJ Exporter v0.97b - (c)2007 guruware
# File Created: 11.03.2017 12:27:24

mtllib Star.mtl

#
# object Star
#

v  0.0000 0.0313 -0.5129
v  -0.1483 0.0313 -0.3080
v  -0.4010 0.0313 -0.3198
v  -0.3333 0.0313 -0.0761
v  -0.5000 0.0312 0.1141
v  -0.2673 0.0313 0.2132
v  -0.2225 0.0313 0.4621
v  0.0000 0.0313 0.3419
v  0.2225 0.0313 0.4621
v  0.2673 0.0313 0.2132
v  0.5000 0.0313 0.1141
v  0.3333 0.0313 -0.0761
v  0.4010 0.0312 -0.3198
v  0.1483 0.0312 -0.3080
v  0.0000 -0.0313 -0.5129
v  -0.1483 -0.0313 -0.3080
v  -0.4010 -0.0313 -0.3198
v  -0.3333 -0.0313 -0.0761
v  -0.5000 -0.0313 0.1141
v  -0.2673 -0.0313 0.2132
v  -0.2225 -0.0313 0.4621
v  0.0000 -0.0313 0.3419
v  0.2225 -0.0313 0.4621
v  0.2673 -0.0313 0.2132
v  0.5000 -0.0313 0.1141
v  0.3333 -0.0313 -0.0761
v  0.4010 -0.0313 -0.3198
v  0.1483 -0.0313 -0.3080
v  -0.1483 0.0313 -0.3080
v  -0.4010 0.0313 -0.3198
v  -0.3333 0.0313 -0.0761
v  -0.5000 0.0312 0.1141
v  -0.2673 0.0313 0.2132
v  -0.2225 0.0313 0.4621
v  0.0000 0.0313 0.3419
v  0.2225 0.0313 0.4621
v  0.2673 0.0313 0.2132
v  0.5000 0.0313 0.1141
v  0.3333 0.0313 -0.0761
v  0.4010 0.0312 -0.3198
v  0.1483 0.0312 -0.3080
v  -0.1483 -0.0313 -0.3080
v  -0.4010 -0.0313 -0.3198
v  -0.3333 -0.0313 -0.0761
v  -0.5000 -0.0313 0.1141
v  -0.2673 -0.0313 0.2132
v  -0.2225 -0.0313 0.4621
v  0.0000 -0.0313 0.3419
v  0.2225 -0.0313 0.4621
v  0.2673 -0.0313 0.2132
v  0.5000 -0.0313 0.1141
v  0.3333 -0.0313 -0.0761
v  0.4010 -0.0313 -0.3198
v  0.1483 -0.0313 -0.3080
# 54 vertices

vn 0.3917 0.0000 0.9201
vn 0.3917 0.0000 0.9201
vn 0.3917 0.0000 0.9201
vn 0.3917 0.0000 0.9201
vn 0.3917 0.0000 0.9201
vn 0.3917 0.0000 0.9201
vn 0.7521 0.0000 -0.6590
vn 0.7521 0.0000 -0.6590
vn 0.7521 0.0000 -0.6590
vn 0.7521 0.0000 -0.6590
vn 0.7521 0.0000 -0.6590
vn 0.7521 0.0000 -0.6590
vn 0.9636 0.0000 0.2674
vn 0.9636 0.0000 0.2674
vn 0.9636 0.0000 0.2674
vn 0.9636 0.0000 0.2674
vn 0.9636 0.0000 0.2674
vn 0.9636 0.0000 0.2674
vn -0.0463 0.0000 -0.9989
vn -0.0463 0.0000 -0.9989
vn -0.0463 0.0000 -0.9989
vn -0.0463 0.0000 -0.9989
vn -0.0463 0.0000 -0.9989
vn -0.0463 0.0000 -0.9989
vn 0.8099 0.0000 -0.5866
vn 0.8099 0.0000 -0.5866
vn 0.8099 0.0000 -0.5866
vn 0.8099 0.0000 -0.5866
vn 0.8099 0.0000 -0.5866
vn 0.8099 0.0000 -0.5866
vn -0.8099 0.0000 -0.5866
vn -0.8099 0.0000 -0.5866
vn -0.8099 0.0000 -0.5866
vn -0.8099 0.0000 -0.5866
vn -0.8099 0.0000 -0.5866
vn -0.8099 0.0000 -0.5866
vn 0.0463 0.0000 -0.9989
vn 0.0463 0.0000 -0.9989
vn 0.0463 0.0000 -0.9989
vn 0.0463 0.0000 -0.9989
vn 0.0463 0.0000 -0.9989
vn 0.0463 0.0000 -0.9989
vn -0.9636 0.0000 0.2674
vn -0.9636 0.0000 0.2674
vn -0.9636 0.0000 0.2674
vn -0.9636 0.0000 0.2674
vn -0.9636 0.0000 0.2674
vn -0.9636 0.0000 0.2674
vn -0.7521 0.0000 -0.6590
vn -0.7521 0.0000 -0.6590
vn -0.7521 0.0000 -0.6590
vn -0.7521 0.0000 -0.6590
vn -0.7521 0.0000 -0.6590
vn -0.7521 0.0000 -0.6590
vn -0.3917 0.0000 0.9201
vn -0.3917 0.0000 0.9201
vn -0.3917 0.0000 0.9201
vn -0.3917 0.0000 0.9201
vn -0.3917 0.0000 0.9201
vn -0.3917 0.0000 0.9201
vn -0.9842 0.0000 0.1771
vn -0.9842 0.0000 0.1771
vn -0.9842 0.0000 0.1771
vn -0.9842 0.0000 0.1771
vn -0.9842 0.0000 0.1771
vn -0.9842 0.0000 0.1771
vn 0.4752 0.0000 0.8799
vn 0.4752 0.0000 0.8799
vn 0.4752 0.0000 0.8799
vn 0.4752 0.0000 0.8799
vn 0.4752 0.0000 0.8799
vn 0.4752 0.0000 0.8799
vn -0.4752 0.0000 0.8799
vn -0.4752 0.0000 0.8799
vn -0.4752 0.0000 0.8799
vn -0.4752 0.0000 0.8799
vn -0.4752 0.0000 0.8799
vn -0.4752 0.0000 0.8799
vn 0.9842 0.0000 0.1771
vn 0.9842 0.0000 0.1771
vn 0.9842 0.0000 0.1771
vn 0.9842 0.0000 0.1771
vn 0.9842 0.0000 0.1771
vn 0.9842 0.0000 0.1771
# 84 vertex normals

vt 0.8907 0.0750 0.0000
vt 0.8176 0.0750 0.0000
vt 0.8176 0.0250 0.0000
vt 0.8907 0.0250 0.0000
vt 0.9466 0.0750 0.0000
vt 0.9466 0.0250 0.0000
vt 0.0341 0.0750 0.0000
vt 0.0341 0.0250 0.0000
vt 0.1064 0.0750 0.0000
vt 0.1064 0.0250 0.0000
vt 0.2000 0.0750 0.0000
vt 0.2000 0.0250 0.0000
vt 0.2936 0.0750 0.0000
vt 0.2936 0.0250 0.0000
vt 0.3659 0.0750 0.0000
vt 0.3659 0.0250 0.0000
vt 0.4534 0.0750 0.0000
vt 0.4534 0.0250 0.0000
vt 0.5093 0.0750 0.0000
vt 0.5093 0.0250 0.0000
vt 0.5824 0.0750 0.0000
vt 0.5824 0.0250 0.0000
vt 0.6378 0.0750 0.0000
vt 0.6378 0.0250 0.0000
vt 0.7000 0.0750 0.0000
vt 0.7000 0.0250 0.0000
vt 0.7622 0.0750 0.0000
vt 0.7622 0.0250 0.0000
vt 1.0341 0.0750 0.0000
vt 1.0341 0.0250 0.0000
# 30 texture coords

g Star
usemtl wire_087225087
f 24/3/1 51/4/2 11/1/3 
f 11/1/4 37/2/5 24/3/6 
f 25/4/7 52/6/8 12/5/9 
f 12/5/10 38/1/11 25/4/12 
f 26/6/13 53/30/14 13/29/15 
f 13/29/16 39/5/17 26/6/18 
f 27/8/19 54/10/20 14/9/21 
f 14/9/22 40/7/23 27/8/24 
f 28/10/25 15/12/26 1/11/27 
f 1/11/28 41/9/29 28/10/30 
f 15/12/31 42/14/32 2/13/33 
f 2/13/34 1/11/35 15/12/36 
f 16/14/37 43/16/38 3/15/39 
f 3/15/40 29/13/41 16/14/42 
f 17/16/43 44/18/44 4/17/45 
f 4/17/46 30/15/47 17/16/48 
f 18/18/49 45/20/50 5/19/51 
f 5/19/52 31/17/53 18/18/54 
f 19/20/55 46/22/56 6/21/57 
f 6/21/58 32/19/59 19/20/60 
f 20/22/61 47/24/62 7/23/63 
f 7/23/64 33/21/65 20/22/66 
f 21/24/67 48/26/68 8/25/69 
f 8/25/70 34/23/71 21/24/72 
f 22/26/73 49/28/74 9/27/75 
f 9/27/76 35/25/77 22/26/78 
f 23/28/79 50/3/80 10/2/81 
f 10/2/82 36/27/83 23/28/84 
# 28 faces

#
# object Star_faces
#

v  0.0000 0.0313 -0.5129
v  -0.1483 0.0313 -0.3080
v  -0.4010 0.0313 -0.3198
v  -0.3333 0.0313 -0.0761
v  -0.5000 0.0312 0.1141
v  -0.2673 0.0313 0.2132
v  -0.2225 0.0313 0.4621
v  0.0000 0.0313 0.3419
v  0.2225 0.0313 0.4621
v  0.2673 0.0313 0.2132
v  0.5000 0.0313 0.1141
v  0.3333 0.0313 -0.0761
v  0.4010 0.0312 -0.3198
v  0.1483 0.0312 -0.3080
v  0.0000 -0.0313 -0.5129
v  -0.1483 -0.0313 -0.3080
v  -0.4010 -0.0313 -0.3198
v  -0.3333 -0.0313 -0.0761
v  -0.5000 -0.0313 0.1141
v  -0.2673 -0.0313 0.2132
v  -0.2225 -0.0313 0.4621
v  0.0000 -0.0313 0.3419
v  0.2225 -0.0313 0.4621
v  0.2673 -0.0313 0.2132
v  0.5000 -0.0313 0.1141
v  0.3333 -0.0313 -0.0761
v  0.4010 -0.0313 -0.3198
v  0.1483 -0.0313 -0.3080
# 28 vertices

vn -0.0000 1.0000 0.0000
vn 0.0000 1.0000 -0.0000
vn 0.0000 1.0000 -0.0000
vn 0.0000 1.0000 -0.0000
vn 0.0000 1.0000 -0.0000
vn 0.0000 1.0000 -0.0000
vn 0.0000 1.0000 -0.0000
vn 0.0000 1.0000 -0.0000
vn 0.0000 1.0000 -0.0000
vn 0.0000 1.0000 -0.0000
vn 0.0000 1.0000 -0.0000
vn 0.0000 1.0000 -0.0000
vn -0.0000 1.0000 0.0000
vn 0.0000 1.0000 -0.0000
vn 0.0000 1.0000 -0.0000
vn 0.0000 1.0000 -0.0000
vn -0.0000 1.0000 -0.0000
vn 0.0000 1.0000 -0.0000
vn 0.0000 1.0000 -0.0000
vn 0.0000 1.0000 0.0000
vn 0.0000 1.0000 -0.0000
vn 0.0000 1.0000 -0.0000
vn 0.0000 1.0000 -0.0000
vn 0.0000 1.0000 -0.0000
vn 0.0000 1.0000 -0.0000
vn 0.0000 1.0000 -0.0000
vn -0.0000 1.0000 0.0000
vn 0.0000 1.0000 -0.0000
vn 0.0000 1.0000 -0.0000
vn -0.0000 1.0000 0.0000
vn -0.0000 1.0000 0.0000
vn 0.0000 1.0000 -0.0000
vn -0.0000 1.0000 0.0000
vn -0.0000 1.0000 0.0000
vn -0.0000 1.0000 0.0000
vn -0.0000 1.0000 0.0000
vn 0.0000 -1.0000 -0.0000
vn 0.0000 -1.0000 -0.0000
vn 0.0000 -1.0000 -0.0000
vn 0.0000 -1.0000 -0.0000
vn 0.0000 -1.0000 -0.0000
vn 0.0000 -1.0000 -0.0000
vn 0.0000 -1.0000 -0.0000
vn 0.0000 -1.0000 -0.0000
vn 0.0000 -1.0000 -0.0000
vn 0.0000 -1.0000 -0.0000
vn 0.0000 -1.0000 -0.0000
vn 0.0000 -1.0000 -0.0000
vn 0.0000 -1.0000 -0.0000
vn 0.0000 -1.0000 -0.0000
vn 0.0000 -1.0000 -0.0000
vn 0.0000 -1.0000 -0.0000
vn 0.0000 -1.0000 -0.0000
vn 0.0000 -1.0000 -0.0000
vn 0.0000 -1.0000 -0.0000
vn 0.0000 -1.0000 -0.0000
vn 0.0000 -1.0000 -0.0000
vn 0.0000 -1.0000 -0.0000
vn 0.0000 -1.0000 -0.0000
vn 0.0000 -1.0000 -0.0000
vn 0.0000 -1.0000 -0.0000
vn 0.0000 -1.0000 -0.0000
vn 0.0000 -1.0000 -0.0000
vn 0.0000 -1.0000 -0.0000
vn 0.0000 -1.0000 -0.0000
vn 0.0000 -1.0000 -0.0000
vn 0.0000 -1.0000 -0.0000
vn 0.0000 -1.0000 -0.0000
vn 0.0000 -1.0000 -0.0000
vn 0.0000 -1.0000 -0.0000
vn 0.0000 -1.0000 -0.0000
vn 0.0000 -1.0000 -0.0000
# 72 vertex normals

vt 0.2500 0.9181 0.0000
vt 0.1944 0.7645 0.0000
vt 0.0996 0.7733 0.0000
vt 0.1250 0.5906 0.0000
vt 0.0625 0.4479 0.0000
vt 0.1498 0.3736 0.0000
vt 0.1666 0.1869 0.0000
vt 0.2500 0.2771 0.0000
vt 0.3334 0.1869 0.0000
vt 0.3502 0.3736 0.0000
vt 0.4375 0.4479 0.0000
vt 0.3750 0.5906 0.0000
vt 0.4004 0.7733 0.0000
vt 0.3056 0.7645 0.0000
vt 0.7500 0.9181 0.0000
vt 0.6944 0.7645 0.0000
vt 0.5996 0.7733 0.0000
vt 0.6250 0.5906 0.0000
vt 0.5625 0.4479 0.0000
vt 0.6498 0.3736 0.0000
vt 0.6666 0.1869 0.0000
vt 0.7500 0.2771 0.0000
vt 0.8334 0.1869 0.0000
vt 0.8502 0.3736 0.0000
vt 0.9375 0.4479 0.0000
vt 0.8750 0.5906 0.0000
vt 0.9004 0.7733 0.0000
vt 0.8056 0.7645 0.0000
# 28 texture coords

g Star_faces
usemtl wire_087225087
f 60/36/85 61/37/86 62/38/87 
f 62/38/88 63/39/89 64/40/90 
f 64/40/91 65/41/92 66/42/93 
f 62/38/94 64/40/95 66/42/96 
f 60/36/97 62/38/98 66/42/99 
f 66/42/100 67/43/101 68/44/102 
f 68/44/103 55/31/104 56/32/105 
f 66/42/106 68/44/107 56/32/108 
f 56/32/109 57/33/110 58/34/111 
f 66/42/112 56/32/113 58/34/114 
f 60/36/115 66/42/116 58/34/117 
f 60/36/118 58/34/119 59/35/120 
f 76/52/121 75/51/122 74/50/123 
f 74/50/124 73/49/125 72/48/126 
f 72/48/127 71/47/128 70/46/129 
f 70/46/130 69/45/131 82/58/132 
f 82/58/133 81/57/134 80/56/135 
f 70/46/136 82/58/137 80/56/138 
f 72/48/139 70/46/140 80/56/141 
f 74/50/142 72/48/143 80/56/144 
f 76/52/145 74/50/146 80/56/147 
f 80/56/148 79/55/149 78/54/150 
f 76/52/151 80/56/152 78/54/153 
f 76/52/154 78/54/155 77/53/156 
# 24 faces

