# 3ds Max Wavefront OBJ Exporter v0.97b - (c)2007 guruware
# File Created: 11.03.2017 12:29:55

mtllib StretchHexH_COL.mtl

#
# object StretchHexH_COL
#

v  -0.5000 0.0313 0.0000
v  -0.3067 0.0313 0.3200
v  0.3067 0.0313 0.3200
v  0.5000 0.0313 -0.0000
v  0.3067 0.0313 -0.3200
v  -0.3067 0.0313 -0.3200
v  -0.5000 -0.0313 0.0000
v  -0.3067 -0.0313 0.3200
v  0.3067 -0.0313 0.3200
v  0.5000 -0.0313 -0.0000
v  0.3067 -0.0313 -0.3200
v  -0.3067 -0.0313 -0.3200
# 12 vertices

vn 0.0000 1.0000 -0.0000
vn 0.0000 1.0000 -0.0000
vn 0.0000 1.0000 -0.0000
vn 0.0000 1.0000 -0.0000
vn 0.0000 1.0000 -0.0000
vn 0.0000 1.0000 -0.0000
vn 0.0000 1.0000 -0.0000
vn 0.0000 1.0000 -0.0000
vn 0.0000 1.0000 -0.0000
vn 0.0000 1.0000 -0.0000
vn 0.0000 1.0000 -0.0000
vn 0.0000 1.0000 -0.0000
vn 0.0000 -1.0000 -0.0000
vn 0.0000 -1.0000 -0.0000
vn 0.0000 -1.0000 -0.0000
vn 0.0000 -1.0000 -0.0000
vn 0.0000 -1.0000 -0.0000
vn 0.0000 -1.0000 -0.0000
vn 0.0000 -1.0000 -0.0000
vn 0.0000 -1.0000 -0.0000
vn 0.0000 -1.0000 -0.0000
vn 0.0000 -1.0000 -0.0000
vn 0.0000 -1.0000 -0.0000
vn 0.0000 -1.0000 -0.0000
vn 0.8560 0.0000 0.5170
vn 0.8560 0.0000 0.5170
vn 0.8560 0.0000 0.5170
vn 0.8560 0.0000 0.5170
vn 0.8560 0.0000 0.5170
vn 0.8560 0.0000 0.5170
vn 0.8560 0.0000 -0.5170
vn 0.8560 0.0000 -0.5170
vn 0.8560 0.0000 -0.5170
vn 0.8560 0.0000 -0.5170
vn 0.8560 0.0000 -0.5170
vn 0.8560 0.0000 -0.5170
vn -0.0000 0.0000 -1.0000
vn -0.0000 0.0000 -1.0000
vn -0.0000 0.0000 -1.0000
vn -0.0000 0.0000 -1.0000
vn -0.0000 0.0000 -1.0000
vn -0.0000 0.0000 -1.0000
vn -0.8560 0.0000 -0.5170
vn -0.8560 0.0000 -0.5170
vn -0.8560 0.0000 -0.5170
vn -0.8560 0.0000 -0.5170
vn -0.8560 0.0000 -0.5170
vn -0.8560 0.0000 -0.5170
vn -0.8560 0.0000 0.5170
vn -0.8560 0.0000 0.5170
vn -0.8560 0.0000 0.5170
vn -0.8560 0.0000 0.5170
vn -0.8560 0.0000 0.5170
vn -0.8560 0.0000 0.5170
vn 0.0000 0.0000 1.0000
vn 0.0000 0.0000 1.0000
vn 0.0000 0.0000 1.0000
vn 0.0000 0.0000 1.0000
vn 0.0000 0.0000 1.0000
vn 0.0000 0.0000 1.0000
# 60 vertex normals

vt 0.1350 0.7735 0.0000
vt 0.0625 0.5335 0.0000
vt 0.1350 0.2935 0.0000
vt 0.3650 0.2935 0.0000
vt 0.4375 0.5335 0.0000
vt 0.3650 0.7735 0.0000
vt 0.9240 0.0750 0.0000
vt 0.8043 0.0750 0.0000
vt 0.8043 0.0250 0.0000
vt 0.9240 0.0250 0.0000
vt 0.0538 0.0750 0.0000
vt 0.0538 0.0250 0.0000
vt 0.3462 0.0750 0.0000
vt 0.3462 0.0250 0.0000
vt 0.4760 0.0750 0.0000
vt 0.4760 0.0250 0.0000
vt 0.5957 0.0750 0.0000
vt 0.5957 0.0250 0.0000
vt 1.0538 0.0750 0.0000
vt 1.0538 0.0250 0.0000
vt 0.6350 0.2935 0.0000
vt 0.5625 0.5335 0.0000
vt 0.6350 0.7735 0.0000
vt 0.8650 0.7735 0.0000
vt 0.9375 0.5335 0.0000
vt 0.8650 0.2935 0.0000
# 26 texture coords

g StretchHexH_COL
usemtl wire_224086086
f 6/1/1 1/2/2 2/3/3 
f 6/1/4 2/3/5 3/4/6 
f 3/4/7 4/5/8 5/6/9 
f 6/1/10 3/4/11 5/6/12 
f 8/21/13 7/22/14 12/23/15 
f 11/24/16 10/25/17 9/26/18 
f 12/23/19 11/24/20 9/26/21 
f 8/21/22 12/23/23 9/26/24 
f 9/9/25 10/10/26 4/7/27 
f 4/7/28 3/8/29 9/9/30 
f 10/10/31 11/20/32 5/19/33 
f 5/19/34 4/7/35 10/10/36 
f 11/12/37 12/14/38 6/13/39 
f 6/13/40 5/11/41 11/12/42 
f 12/14/43 7/16/44 1/15/45 
f 1/15/46 6/13/47 12/14/48 
f 7/16/49 8/18/50 2/17/51 
f 2/17/52 1/15/53 7/16/54 
f 8/18/55 9/9/56 3/8/57 
f 3/8/58 2/17/59 8/18/60 
# 20 faces

