# 3ds Max Wavefront OBJ Exporter v0.97b - (c)2007 guruware
# File Created: 11.03.2017 12:29:55

mtllib TruncRectV_COL.mtl

#
# object TruncRectV_COL
#

v  0.1891 0.0313 -0.5000
v  -0.1891 0.0313 -0.5000
v  -0.3200 0.0313 -0.3691
v  -0.3200 0.0313 0.3691
v  -0.1891 0.0313 0.5000
v  0.1891 0.0313 0.5000
v  0.3200 0.0312 0.3691
v  0.3200 0.0313 -0.3691
v  0.1891 -0.0313 -0.5000
v  -0.1891 -0.0313 -0.5000
v  -0.3200 -0.0313 -0.3691
v  -0.3200 -0.0313 0.3691
v  -0.1891 -0.0313 0.5000
v  0.1891 -0.0313 0.5000
v  0.3200 -0.0313 0.3691
v  0.3200 -0.0313 -0.3691
# 16 vertices

vn 0.0000 1.0000 -0.0000
vn 0.0000 1.0000 -0.0000
vn 0.0000 1.0000 -0.0000
vn 0.0000 1.0000 -0.0000
vn 0.0000 1.0000 -0.0000
vn 0.0000 1.0000 -0.0000
vn 0.0000 1.0000 -0.0000
vn 0.0000 1.0000 -0.0000
vn 0.0000 1.0000 0.0000
vn 0.0000 1.0000 -0.0000
vn 0.0000 1.0000 -0.0000
vn 0.0000 1.0000 0.0000
vn 0.0000 1.0000 -0.0000
vn 0.0000 1.0000 -0.0000
vn 0.0000 1.0000 0.0000
vn 0.0000 1.0000 -0.0000
vn 0.0000 1.0000 -0.0000
vn 0.0000 1.0000 0.0000
vn 0.0000 -1.0000 -0.0000
vn 0.0000 -1.0000 -0.0000
vn 0.0000 -1.0000 -0.0000
vn 0.0000 -1.0000 -0.0000
vn 0.0000 -1.0000 -0.0000
vn 0.0000 -1.0000 -0.0000
vn 0.0000 -1.0000 -0.0000
vn 0.0000 -1.0000 -0.0000
vn 0.0000 -1.0000 -0.0000
vn 0.0000 -1.0000 -0.0000
vn 0.0000 -1.0000 -0.0000
vn 0.0000 -1.0000 -0.0000
vn 0.0000 -1.0000 -0.0000
vn 0.0000 -1.0000 -0.0000
vn 0.0000 -1.0000 -0.0000
vn 0.0000 -1.0000 -0.0000
vn 0.0000 -1.0000 -0.0000
vn 0.0000 -1.0000 -0.0000
vn 0.0000 0.0000 1.0000
vn 0.0000 0.0000 1.0000
vn 0.0000 0.0000 1.0000
vn 0.0000 0.0000 1.0000
vn 0.0000 0.0000 1.0000
vn 0.0000 0.0000 1.0000
vn 0.7071 0.0000 0.7071
vn 0.9239 0.0000 0.3827
vn 0.9239 0.0000 0.3827
vn 0.9239 0.0000 0.3827
vn 0.7071 0.0000 0.7071
vn 0.7071 0.0000 0.7071
vn 0.9239 0.0000 0.3827
vn 0.9239 0.0000 -0.3827
vn 0.9239 0.0000 -0.3827
vn 0.9239 0.0000 -0.3827
vn 0.9239 0.0000 0.3827
vn 0.9239 0.0000 0.3827
vn 0.0000 0.0000 -1.0000
vn 0.0000 0.0000 -1.0000
vn 0.0000 0.0000 -1.0000
vn 0.0000 0.0000 -1.0000
vn 0.0000 0.0000 -1.0000
vn 0.0000 0.0000 -1.0000
vn -0.7071 0.0000 -0.7071
vn -0.9239 0.0000 -0.3827
vn -0.9239 0.0000 -0.3827
vn -0.9239 0.0000 -0.3827
vn -0.7071 0.0000 -0.7071
vn -0.7071 0.0000 -0.7071
vn 0.9239 0.0000 -0.3827
vn 0.7071 0.0000 -0.7071
vn 0.7071 0.0000 -0.7071
vn 0.7071 0.0000 -0.7071
vn 0.9239 0.0000 -0.3827
vn 0.9239 0.0000 -0.3827
vn -0.9239 0.0000 -0.3827
vn -0.9239 0.0000 0.3827
vn -0.9239 0.0000 0.3827
vn -0.9239 0.0000 0.3827
vn -0.9239 0.0000 -0.3827
vn -0.9239 0.0000 -0.3827
vn -0.9239 0.0000 0.3827
vn -0.7071 0.0000 0.7071
vn -0.7071 0.0000 0.7071
vn -0.7071 0.0000 0.7071
vn -0.9239 0.0000 0.3827
vn -0.9239 0.0000 0.3827
# 84 vertex normals

vt 0.3209 0.9085 0.0000
vt 0.1791 0.9085 0.0000
vt 0.1300 0.8103 0.0000
vt 0.1300 0.2566 0.0000
vt 0.1791 0.1585 0.0000
vt 0.3209 0.1585 0.0000
vt 0.3700 0.2566 0.0000
vt 0.3700 0.8103 0.0000
vt 0.7504 0.0750 0.0000
vt 0.6496 0.0750 0.0000
vt 0.6496 0.0250 0.0000
vt 0.7504 0.0250 0.0000
vt 0.7987 0.0750 0.0000
vt 0.7987 0.0250 0.0000
vt 0.0652 0.0750 0.0000
vt 0.0652 0.0250 0.0000
vt 0.2684 0.0750 0.0000
vt 0.1316 0.0750 0.0000
vt 0.1316 0.0250 0.0000
vt 0.2684 0.0250 0.0000
vt 0.3348 0.0750 0.0000
vt 0.3348 0.0250 0.0000
vt 0.6013 0.0750 0.0000
vt 0.6013 0.0250 0.0000
vt 1.0652 0.0750 0.0000
vt 1.0652 0.0250 0.0000
vt 0.6300 0.8103 0.0000
vt 0.6791 0.9085 0.0000
vt 0.8209 0.9085 0.0000
vt 0.8700 0.8103 0.0000
vt 0.8700 0.2566 0.0000
vt 0.8209 0.1585 0.0000
vt 0.6791 0.1585 0.0000
vt 0.6300 0.2566 0.0000
# 34 texture coords

g TruncRectV_COL
usemtl wire_224086086
f 1/1/1 2/2/2 3/3/3 
f 5/5/4 6/6/5 7/7/6 
f 5/5/7 7/7/8 8/8/9 
f 4/4/10 5/5/11 8/8/12 
f 3/3/13 4/4/14 8/8/15 
f 1/1/16 3/3/17 8/8/18 
f 11/27/19 10/28/20 9/29/21 
f 11/27/22 9/29/23 16/30/24 
f 15/31/25 14/32/26 13/33/27 
f 16/30/28 15/31/29 13/33/30 
f 16/30/31 13/33/32 12/34/33 
f 11/27/34 16/30/35 12/34/36 
f 13/11/37 14/12/38 6/9/39 
f 6/9/40 5/10/41 13/11/42 
f 14/12/43 15/14/44 7/13/45 
f 7/13/46 6/9/47 14/12/48 
f 15/14/49 16/26/50 8/25/51 
f 8/25/52 7/13/53 15/14/54 
f 9/19/55 10/20/56 2/17/57 
f 2/17/58 1/18/59 9/19/60 
f 10/20/61 11/22/62 3/21/63 
f 3/21/64 2/17/65 10/20/66 
f 16/16/67 9/19/68 1/18/69 
f 1/18/70 8/15/71 16/16/72 
f 11/22/73 12/24/74 4/23/75 
f 4/23/76 3/21/77 11/22/78 
f 12/24/79 13/11/80 5/10/81 
f 5/10/82 4/23/83 12/24/84 
# 28 faces

