# 3ds Max Wavefront OBJ Exporter v0.97b - (c)2007 guruware
# File Created: 02.04.2017 21:53:24

mtllib Bank-7-15_MSH.mtl

#
# object Bank_7_15
#

v  -0.2500 0.0156 -0.0000
v  0.0000 0.0156 -0.0000
v  0.2500 0.0156 -0.0000
v  -0.2500 -0.0156 -0.0000
v  0.0000 -0.0156 -0.0000
v  0.2500 -0.0156 -0.0000
v  -0.2356 0.0156 -0.8830
v  0.0143 0.0156 -0.8748
v  0.2642 0.0156 -0.8667
v  0.2642 -0.0156 -0.8667
v  0.0143 -0.0156 -0.8748
v  -0.2356 -0.0156 -0.8830
v  -0.1922 0.0156 -1.7651
v  0.0572 0.0156 -1.7488
v  0.3067 0.0156 -1.7324
v  0.3067 -0.0156 -1.7324
v  0.0572 -0.0156 -1.7488
v  -0.1922 -0.0156 -1.7651
v  -0.1200 0.0156 -2.6453
v  0.1288 0.0156 -2.6208
v  0.3775 0.0156 -2.5963
v  0.3775 -0.0156 -2.5963
v  0.1288 -0.0156 -2.6208
v  -0.1200 -0.0156 -2.6453
v  -0.0191 0.0156 -3.5226
v  0.4766 0.0156 -3.4574
v  0.4766 -0.0156 -3.4574
v  -0.0191 -0.0156 -3.5226
v  0.7075 0.0156 -6.9800
v  0.7075 -0.0156 -6.9800
v  0.4575 -0.0156 -6.9800
v  0.4575 0.0156 -6.9800
v  0.2075 -0.0156 -6.9800
v  0.2075 0.0156 -6.9800
v  0.4432 0.0156 -6.1052
v  0.6930 0.0156 -6.0970
v  0.1933 0.0156 -6.1134
v  0.4002 0.0156 -5.2313
v  0.6497 0.0156 -5.2149
v  0.1508 0.0156 -5.2476
v  0.3287 0.0156 -4.3592
v  0.5775 0.0156 -4.3347
v  0.0799 0.0156 -4.3837
v  0.2287 0.0156 -3.4900
v  0.1933 -0.0156 -6.1134
v  0.1508 -0.0156 -5.2476
v  0.0799 -0.0156 -4.3837
v  0.4432 -0.0156 -6.1052
v  0.6930 -0.0156 -6.0970
v  0.4002 -0.0156 -5.2313
v  0.6497 -0.0156 -5.2149
v  0.3287 -0.0156 -4.3592
v  0.5775 -0.0156 -4.3347
v  0.2287 -0.0156 -3.4900
v  -0.2500 -0.0313 0.7188
v  0.2500 -0.0313 0.7188
v  -0.2500 -0.0313 0.5312
v  0.2500 -0.0313 0.5313
v  -0.2500 0.0312 0.7188
v  0.2500 0.0312 0.7188
v  -0.2500 0.0312 0.5312
v  0.2500 0.0312 0.5313
v  -0.2500 -0.0313 0.7188
v  -0.2500 -0.0313 0.7188
v  0.2500 -0.0313 0.7188
v  0.2500 -0.0313 0.7188
v  -0.2500 -0.0313 0.5312
v  -0.2500 -0.0313 0.5312
v  0.2500 -0.0313 0.5313
v  0.2500 -0.0313 0.5313
v  -0.2500 0.0312 0.7188
v  -0.2500 0.0312 0.7188
v  0.2500 0.0312 0.7188
v  0.2500 0.0312 0.7188
v  -0.2500 0.0312 0.5312
v  -0.2500 0.0312 0.5312
v  0.2500 0.0312 0.5313
v  0.2500 0.0312 0.5313
v  -0.2500 0.0156 -0.0000
v  -0.2500 0.0156 -0.0000
v  0.0000 0.0156 -0.0000
v  0.2500 0.0156 -0.0000
v  0.2500 0.0156 -0.0000
v  -0.2500 -0.0156 -0.0000
v  -0.2500 -0.0156 -0.0000
v  0.0000 -0.0156 -0.0000
v  0.2500 -0.0156 -0.0000
v  0.2500 -0.0156 -0.0000
v  -0.2356 0.0156 -0.8830
v  0.2642 0.0156 -0.8667
v  0.2642 -0.0156 -0.8667
v  -0.2356 -0.0156 -0.8830
v  -0.1922 0.0156 -1.7651
v  0.3067 0.0156 -1.7324
v  0.3067 -0.0156 -1.7324
v  -0.1922 -0.0156 -1.7651
v  -0.1200 0.0156 -2.6453
v  0.3775 0.0156 -2.5963
v  0.3775 -0.0156 -2.5963
v  -0.1200 -0.0156 -2.6453
v  -0.0191 0.0156 -3.5226
v  -0.0191 0.0156 -3.5226
v  0.4766 0.0156 -3.4574
v  0.4766 0.0156 -3.4574
v  0.4766 -0.0156 -3.4574
v  0.4766 -0.0156 -3.4574
v  -0.0191 -0.0156 -3.5226
v  -0.0191 -0.0156 -3.5226
v  0.7075 0.0156 -6.9800
v  0.7075 0.0156 -6.9800
v  0.7075 -0.0156 -6.9800
v  0.7075 -0.0156 -6.9800
v  0.4575 -0.0156 -6.9800
v  0.4575 0.0156 -6.9800
v  0.2075 -0.0156 -6.9800
v  0.2075 -0.0156 -6.9800
v  0.2075 0.0156 -6.9800
v  0.2075 0.0156 -6.9800
v  0.6930 0.0156 -6.0970
v  0.1933 0.0156 -6.1134
v  0.6497 0.0156 -5.2149
v  0.1508 0.0156 -5.2476
v  0.5775 0.0156 -4.3347
v  0.0799 0.0156 -4.3837
v  0.1933 -0.0156 -6.1134
v  0.1508 -0.0156 -5.2476
v  0.0799 -0.0156 -4.3837
v  0.6930 -0.0156 -6.0970
v  0.6497 -0.0156 -5.2149
v  0.5775 -0.0156 -4.3347
# 130 vertices

vn -0.0000 0.0000 1.0000
vn -0.0000 0.0000 1.0000
vn -0.0000 0.0000 1.0000
vn -0.0000 0.0000 1.0000
vn -0.0000 0.0000 1.0000
vn -0.0000 0.0000 1.0000
vn -0.0000 0.0000 1.0000
vn -0.0000 0.0000 1.0000
vn -0.0000 0.0000 1.0000
vn -0.0000 0.0000 1.0000
vn -0.0000 0.0000 1.0000
vn -0.0000 0.0000 1.0000
vn 0.0000 1.0000 -0.0000
vn 0.0000 1.0000 -0.0000
vn 0.0000 1.0000 -0.0000
vn 0.0000 1.0000 -0.0000
vn 0.0000 1.0000 -0.0000
vn 0.0000 1.0000 -0.0000
vn 0.0000 1.0000 -0.0000
vn 0.0000 1.0000 -0.0000
vn 0.0000 1.0000 -0.0000
vn 0.0000 1.0000 -0.0000
vn 0.0000 1.0000 -0.0000
vn 0.0000 1.0000 -0.0000
vn 0.0000 1.0000 -0.0000
vn 0.0000 1.0000 -0.0000
vn 0.0000 1.0000 -0.0000
vn 0.0000 1.0000 -0.0000
vn 0.0000 1.0000 -0.0000
vn 0.0000 1.0000 -0.0000
vn 0.0000 1.0000 -0.0000
vn 0.0000 1.0000 -0.0000
vn 0.0000 1.0000 -0.0000
vn 0.0000 1.0000 -0.0000
vn 0.0000 1.0000 -0.0000
vn 0.0000 1.0000 -0.0000
vn 0.0000 1.0000 -0.0000
vn 0.0000 1.0000 -0.0000
vn 0.0000 1.0000 -0.0000
vn 0.0000 1.0000 -0.0000
vn 0.0000 1.0000 -0.0000
vn 0.0000 1.0000 -0.0000
vn 0.0000 1.0000 -0.0000
vn 0.0000 1.0000 -0.0000
vn 0.0000 1.0000 -0.0000
vn 0.0000 1.0000 -0.0000
vn 0.0000 1.0000 -0.0000
vn 0.0000 1.0000 -0.0000
vn 0.0000 1.0000 -0.0000
vn 0.0000 1.0000 -0.0000
vn 0.0000 1.0000 -0.0000
vn 0.0000 1.0000 -0.0000
vn 0.0000 1.0000 -0.0000
vn 0.0000 1.0000 -0.0000
vn 0.0000 1.0000 -0.0000
vn 0.0000 1.0000 -0.0000
vn 0.0000 1.0000 -0.0000
vn 0.0000 1.0000 -0.0000
vn 0.0000 1.0000 -0.0000
vn 0.0000 1.0000 -0.0000
vn 0.9995 0.0000 0.0327
vn 0.9995 0.0000 0.0327
vn 0.9999 0.0000 0.0164
vn 0.9999 0.0000 0.0164
vn 0.9999 0.0000 0.0164
vn 0.9995 0.0000 0.0327
vn 0.9979 0.0000 0.0654
vn 0.9979 0.0000 0.0654
vn 0.9995 0.0000 0.0327
vn 0.9995 0.0000 0.0327
vn 0.9995 0.0000 0.0327
vn 0.9979 0.0000 0.0654
vn 0.9952 0.0000 0.0980
vn 0.9952 0.0000 0.0980
vn 0.9979 0.0000 0.0654
vn 0.9979 0.0000 0.0654
vn 0.9979 0.0000 0.0654
vn 0.9952 0.0000 0.0980
vn 0.9934 0.0000 0.1143
vn 0.9934 0.0000 0.1143
vn 0.9952 0.0000 0.0980
vn 0.9952 0.0000 0.0980
vn 0.9952 0.0000 0.0980
vn 0.9934 0.0000 0.1143
vn 0.0000 -1.0000 0.0000
vn 0.0000 -1.0000 0.0000
vn 0.0000 -1.0000 0.0000
vn 0.0000 -1.0000 0.0000
vn 0.0000 -1.0000 0.0000
vn 0.0000 -1.0000 0.0000
vn 0.0000 -1.0000 0.0000
vn 0.0000 -1.0000 0.0000
vn 0.0000 -1.0000 0.0000
vn 0.0000 -1.0000 0.0000
vn 0.0000 -1.0000 0.0000
vn 0.0000 -1.0000 0.0000
vn 0.0000 -1.0000 0.0000
vn 0.0000 -1.0000 0.0000
vn 0.0000 -1.0000 0.0000
vn 0.0000 -1.0000 0.0000
vn 0.0000 -1.0000 0.0000
vn 0.0000 -1.0000 0.0000
vn 0.0000 -1.0000 0.0000
vn 0.0000 -1.0000 0.0000
vn 0.0000 -1.0000 0.0000
vn 0.0000 -1.0000 0.0000
vn 0.0000 -1.0000 0.0000
vn 0.0000 -1.0000 0.0000
vn 0.0000 -1.0000 0.0000
vn 0.0000 -1.0000 0.0000
vn 0.0000 -1.0000 0.0000
vn 0.0000 -1.0000 0.0000
vn 0.0000 -1.0000 0.0000
vn 0.0000 -1.0000 0.0000
vn 0.0000 -1.0000 0.0000
vn 0.0000 -1.0000 0.0000
vn 0.0000 -1.0000 0.0000
vn 0.0000 -1.0000 0.0000
vn 0.0000 -1.0000 0.0000
vn 0.0000 -1.0000 0.0000
vn 0.0000 -1.0000 0.0000
vn 0.0000 -1.0000 0.0000
vn 0.0000 -1.0000 0.0000
vn 0.0000 -1.0000 0.0000
vn 0.0000 -1.0000 0.0000
vn 0.0000 -1.0000 0.0000
vn 0.0000 -1.0000 0.0000
vn 0.0000 -1.0000 0.0000
vn 0.0000 -1.0000 0.0000
vn 0.0000 -1.0000 0.0000
vn 0.0000 -1.0000 0.0000
vn 0.0000 -1.0000 0.0000
vn -0.9995 -0.0000 -0.0327
vn -0.9995 -0.0000 -0.0327
vn -0.9999 -0.0000 -0.0164
vn -0.9999 -0.0000 -0.0164
vn -0.9999 -0.0000 -0.0164
vn -0.9995 -0.0000 -0.0327
vn -0.9979 -0.0000 -0.0654
vn -0.9979 -0.0000 -0.0654
vn -0.9995 -0.0000 -0.0327
vn -0.9995 -0.0000 -0.0327
vn -0.9995 -0.0000 -0.0327
vn -0.9979 -0.0000 -0.0654
vn -0.9952 -0.0000 -0.0980
vn -0.9952 -0.0000 -0.0980
vn -0.9979 -0.0000 -0.0654
vn -0.9979 -0.0000 -0.0654
vn -0.9979 -0.0000 -0.0654
vn -0.9952 -0.0000 -0.0980
vn -0.9934 -0.0000 -0.1143
vn -0.9934 -0.0000 -0.1143
vn -0.9952 -0.0000 -0.0980
vn -0.9952 -0.0000 -0.0980
vn -0.9952 -0.0000 -0.0980
vn -0.9934 -0.0000 -0.1143
vn 0.0000 -0.0000 -1.0000
vn 0.0000 -0.0000 -1.0000
vn 0.0000 -0.0000 -1.0000
vn 0.0000 -0.0000 -1.0000
vn 0.0000 -0.0000 -1.0000
vn 0.0000 -0.0000 -1.0000
vn 0.0000 -0.0000 -1.0000
vn 0.0000 -0.0000 -1.0000
vn 0.0000 -0.0000 -1.0000
vn 0.0000 -0.0000 -1.0000
vn 0.0000 -0.0000 -1.0000
vn 0.0000 -0.0000 -1.0000
vn 0.0000 1.0000 -0.0000
vn 0.0000 1.0000 -0.0000
vn 0.0000 1.0000 -0.0000
vn 0.0000 1.0000 -0.0000
vn 0.0000 1.0000 -0.0000
vn 0.0000 1.0000 -0.0000
vn 0.0000 1.0000 -0.0000
vn 0.0000 1.0000 -0.0000
vn 0.0000 1.0000 -0.0000
vn 0.0000 1.0000 -0.0000
vn 0.0000 1.0000 -0.0000
vn 0.0000 1.0000 -0.0000
vn 0.0000 1.0000 -0.0000
vn 0.0000 1.0000 -0.0000
vn 0.0000 1.0000 -0.0000
vn 0.0000 1.0000 -0.0000
vn 0.0000 1.0000 -0.0000
vn 0.0000 1.0000 -0.0000
vn 0.0000 1.0000 -0.0000
vn 0.0000 1.0000 -0.0000
vn 0.0000 1.0000 -0.0000
vn 0.0000 1.0000 -0.0000
vn 0.0000 1.0000 -0.0000
vn 0.0000 1.0000 -0.0000
vn 0.0000 1.0000 -0.0000
vn 0.0000 1.0000 -0.0000
vn 0.0000 1.0000 -0.0000
vn 0.0000 1.0000 -0.0000
vn 0.0000 1.0000 -0.0000
vn 0.0000 1.0000 -0.0000
vn 0.0000 1.0000 -0.0000
vn 0.0000 1.0000 -0.0000
vn 0.0000 1.0000 -0.0000
vn 0.0000 1.0000 -0.0000
vn 0.0000 1.0000 -0.0000
vn 0.0000 1.0000 -0.0000
vn 0.0000 1.0000 -0.0000
vn 0.0000 1.0000 -0.0000
vn 0.0000 1.0000 -0.0000
vn 0.0000 1.0000 -0.0000
vn 0.0000 1.0000 -0.0000
vn 0.0000 1.0000 -0.0000
vn 0.0000 1.0000 -0.0000
vn 0.0000 1.0000 -0.0000
vn 0.0000 1.0000 -0.0000
vn 0.0000 1.0000 -0.0000
vn 0.0000 1.0000 -0.0000
vn 0.0000 1.0000 -0.0000
vn -0.9995 -0.0000 -0.0327
vn -0.9995 -0.0000 -0.0327
vn -0.9999 -0.0000 -0.0164
vn -0.9999 -0.0000 -0.0164
vn -0.9999 -0.0000 -0.0164
vn -0.9995 -0.0000 -0.0327
vn -0.9979 -0.0000 -0.0654
vn -0.9979 -0.0000 -0.0654
vn -0.9995 -0.0000 -0.0327
vn -0.9995 -0.0000 -0.0327
vn -0.9995 -0.0000 -0.0327
vn -0.9979 -0.0000 -0.0654
vn -0.9952 -0.0000 -0.0980
vn -0.9952 -0.0000 -0.0980
vn -0.9979 -0.0000 -0.0654
vn -0.9979 -0.0000 -0.0654
vn -0.9979 -0.0000 -0.0654
vn -0.9952 -0.0000 -0.0980
vn -0.9934 -0.0000 -0.1143
vn -0.9934 -0.0000 -0.1143
vn -0.9952 -0.0000 -0.0980
vn -0.9952 -0.0000 -0.0980
vn -0.9952 -0.0000 -0.0980
vn -0.9934 -0.0000 -0.1143
vn 0.0000 -1.0000 0.0000
vn 0.0000 -1.0000 0.0000
vn 0.0000 -1.0000 0.0000
vn 0.0000 -1.0000 0.0000
vn 0.0000 -1.0000 0.0000
vn 0.0000 -1.0000 0.0000
vn 0.0000 -1.0000 0.0000
vn 0.0000 -1.0000 0.0000
vn 0.0000 -1.0000 0.0000
vn 0.0000 -1.0000 0.0000
vn 0.0000 -1.0000 0.0000
vn 0.0000 -1.0000 0.0000
vn 0.0000 -1.0000 0.0000
vn 0.0000 -1.0000 0.0000
vn 0.0000 -1.0000 0.0000
vn 0.0000 -1.0000 0.0000
vn 0.0000 -1.0000 0.0000
vn 0.0000 -1.0000 0.0000
vn 0.0000 -1.0000 0.0000
vn 0.0000 -1.0000 0.0000
vn 0.0000 -1.0000 0.0000
vn 0.0000 -1.0000 0.0000
vn 0.0000 -1.0000 0.0000
vn 0.0000 -1.0000 0.0000
vn 0.0000 -1.0000 0.0000
vn 0.0000 -1.0000 0.0000
vn 0.0000 -1.0000 0.0000
vn 0.0000 -1.0000 0.0000
vn 0.0000 -1.0000 0.0000
vn 0.0000 -1.0000 0.0000
vn 0.0000 -1.0000 0.0000
vn 0.0000 -1.0000 0.0000
vn 0.0000 -1.0000 0.0000
vn 0.0000 -1.0000 0.0000
vn 0.0000 -1.0000 0.0000
vn 0.0000 -1.0000 0.0000
vn 0.0000 -1.0000 0.0000
vn 0.0000 -1.0000 0.0000
vn 0.0000 -1.0000 0.0000
vn 0.0000 -1.0000 0.0000
vn 0.0000 -1.0000 0.0000
vn 0.0000 -1.0000 0.0000
vn 0.0000 -1.0000 0.0000
vn 0.0000 -1.0000 0.0000
vn 0.0000 -1.0000 0.0000
vn 0.0000 -1.0000 0.0000
vn 0.0000 -1.0000 0.0000
vn 0.0000 -1.0000 0.0000
vn 0.9995 0.0000 0.0327
vn 0.9995 0.0000 0.0327
vn 0.9999 0.0000 0.0164
vn 0.9999 0.0000 0.0164
vn 0.9999 0.0000 0.0164
vn 0.9995 0.0000 0.0327
vn 0.9979 0.0000 0.0654
vn 0.9979 0.0000 0.0654
vn 0.9995 0.0000 0.0327
vn 0.9995 0.0000 0.0327
vn 0.9995 0.0000 0.0327
vn 0.9979 0.0000 0.0654
vn 0.9952 0.0000 0.0980
vn 0.9952 0.0000 0.0980
vn 0.9979 0.0000 0.0654
vn 0.9979 0.0000 0.0654
vn 0.9979 0.0000 0.0654
vn 0.9952 0.0000 0.0980
vn 0.9934 0.0000 0.1143
vn 0.9934 0.0000 0.1143
vn 0.9952 0.0000 0.0980
vn 0.9952 0.0000 0.0980
vn 0.9952 0.0000 0.0980
vn 0.9934 0.0000 0.1143
vn 0.0000 -1.0000 0.0000
vn 0.0000 -1.0000 0.0000
vn 0.0000 -1.0000 0.0000
vn 0.0000 -1.0000 0.0000
vn 0.0000 -1.0000 0.0000
vn 0.0000 -1.0000 0.0000
vn -0.0000 1.0000 0.0000
vn 0.0000 1.0000 0.0000
vn -0.0000 1.0000 0.0000
vn -0.0000 1.0000 0.0000
vn -0.0000 1.0000 0.0000
vn -0.0000 1.0000 0.0000
vn 0.0000 0.0000 1.0000
vn 0.0000 0.0000 1.0000
vn 0.0000 0.0000 1.0000
vn 0.0000 0.0000 1.0000
vn 0.0000 0.0000 1.0000
vn 0.0000 0.0000 1.0000
vn 1.0000 0.0000 0.0000
vn 1.0000 0.0000 0.0000
vn 1.0000 0.0000 0.0000
vn 1.0000 0.0000 0.0000
vn 1.0000 0.0000 0.0000
vn 1.0000 0.0000 0.0000
vn 0.0000 -0.0000 -1.0000
vn 0.0000 -0.0000 -1.0000
vn 0.0000 -0.0000 -1.0000
vn 0.0000 -0.0000 -1.0000
vn 0.0000 -0.0000 -1.0000
vn 0.0000 -0.0000 -1.0000
vn -1.0000 -0.0000 -0.0000
vn -1.0000 -0.0000 -0.0000
vn -1.0000 -0.0000 -0.0000
vn -1.0000 -0.0000 -0.0000
vn -1.0000 -0.0000 -0.0000
vn -1.0000 -0.0000 -0.0000
# 348 vertex normals

vt 0.6375 0.4000 0.0000
vt 0.8625 0.4000 0.0000
vt 0.6375 0.4563 0.0000
vt 0.8625 0.4563 0.0000
vt 0.6375 0.5125 0.0000
vt 0.8625 0.5125 0.0000
vt 0.6375 0.5688 0.0000
vt 0.8625 0.5688 0.0000
vt 0.6375 0.6250 0.0000
vt 0.8625 0.6250 0.0000
vt 0.6375 0.4000 0.0000
vt 0.7500 0.4000 0.0000
vt 0.8625 0.4000 0.0000
vt 0.6375 0.4563 0.0000
vt 0.7500 0.4563 0.0000
vt 0.8625 0.4563 0.0000
vt 0.6375 0.5125 0.0000
vt 0.7500 0.5125 0.0000
vt 0.8625 0.5125 0.0000
vt 0.6375 0.5688 0.0000
vt 0.7500 0.5688 0.0000
vt 0.8625 0.5688 0.0000
vt 0.6375 0.6250 0.0000
vt 0.7500 0.6250 0.0000
vt 0.8625 0.6250 0.0000
vt 0.6375 0.4000 0.0000
vt 0.7500 0.4000 0.0000
vt 0.8625 0.4000 0.0000
vt 0.6375 0.8500 0.0000
vt 0.7500 0.8500 0.0000
vt 0.8625 0.8500 0.0000
vt 0.8625 0.4000 0.0000
vt 0.8625 0.8500 0.0000
vt 0.7500 0.8500 0.0000
vt 0.7500 0.4000 0.0000
vt 0.6375 0.8500 0.0000
vt 0.6375 0.4000 0.0000
vt 0.6375 0.4000 0.0000
vt 0.7500 0.4000 0.0000
vt 0.7500 0.4563 0.0000
vt 0.6375 0.4563 0.0000
vt 0.8625 0.4000 0.0000
vt 0.8625 0.4563 0.0000
vt 0.7500 0.5125 0.0000
vt 0.6375 0.5125 0.0000
vt 0.8625 0.5125 0.0000
vt 0.7500 0.5688 0.0000
vt 0.6375 0.5688 0.0000
vt 0.8625 0.5688 0.0000
vt 0.7500 0.6250 0.0000
vt 0.6375 0.6250 0.0000
vt 0.8625 0.6250 0.0000
vt 0.6375 0.4000 0.0000
vt 0.8625 0.4000 0.0000
vt 0.8625 0.4563 0.0000
vt 0.6375 0.4563 0.0000
vt 0.8625 0.5125 0.0000
vt 0.6375 0.5125 0.0000
vt 0.8625 0.5688 0.0000
vt 0.6375 0.5688 0.0000
vt 0.8625 0.6250 0.0000
vt 0.6375 0.6250 0.0000
vt 0.6375 0.0828 0.0000
vt 0.6375 0.1672 0.0000
vt 0.8625 0.1672 0.0000
vt 0.8625 0.0828 0.0000
vt 0.6375 0.0828 0.0000
vt 0.8625 0.0828 0.0000
vt 0.8625 0.1672 0.0000
vt 0.6375 0.1672 0.0000
# 70 texture coords

g Bank_7_15
usemtl Material__2
f 86/30/1 2/27/2 80/28/3 
f 80/28/4 85/31/5 86/30/6 
f 6/29/7 3/26/8 2/27/9 
f 2/27/10 86/30/11 6/29/12 
f 8/15/13 7/14/14 1/11/15 
f 1/11/16 81/12/17 8/15/18 
f 90/16/19 8/15/20 81/12/21 
f 81/12/22 83/13/23 90/16/24 
f 14/18/25 13/17/26 7/14/27 
f 7/14/28 8/15/29 14/18/30 
f 94/19/31 14/18/32 8/15/33 
f 8/15/34 90/16/35 94/19/36 
f 20/21/37 19/20/38 13/17/39 
f 13/17/40 14/18/41 20/21/42 
f 98/22/43 20/21/44 14/18/45 
f 14/18/46 94/19/47 98/22/48 
f 44/24/49 25/23/50 19/20/51 
f 19/20/52 20/21/53 44/24/54 
f 104/25/55 44/24/56 20/21/57 
f 20/21/58 98/22/59 104/25/60 
f 91/4/61 9/3/62 82/1/63 
f 82/1/64 88/2/65 91/4/66 
f 95/6/67 15/5/68 9/3/69 
f 9/3/70 91/4/71 95/6/72 
f 99/8/73 21/7/74 15/5/75 
f 15/5/76 95/6/77 99/8/78 
f 106/10/79 26/9/80 21/7/81 
f 21/7/82 99/8/83 106/10/84 
f 11/15/85 10/14/86 87/11/87 
f 87/11/88 5/12/89 11/15/90 
f 92/16/91 11/15/92 5/12/93 
f 5/12/94 84/13/95 92/16/96 
f 17/18/97 16/17/98 10/14/99 
f 10/14/100 11/15/101 17/18/102 
f 96/19/103 17/18/104 11/15/105 
f 11/15/106 92/16/107 96/19/108 
f 23/21/109 22/20/110 16/17/111 
f 16/17/112 17/18/113 23/21/114 
f 100/22/115 23/21/116 17/18/117 
f 17/18/118 96/19/119 100/22/120 
f 54/24/121 27/23/122 22/20/123 
f 22/20/124 23/21/125 54/24/126 
f 108/25/127 54/24/128 23/21/129 
f 23/21/130 100/22/131 108/25/132 
f 89/4/133 12/3/134 4/1/135 
f 4/1/136 79/2/137 89/4/138 
f 93/6/139 18/5/140 12/3/141 
f 12/3/142 89/4/143 93/6/144 
f 97/8/145 24/7/146 18/5/147 
f 18/5/148 93/6/149 97/8/150 
f 102/10/151 28/9/152 24/7/153 
f 24/7/154 97/8/155 102/10/156 
f 113/34/157 32/35/158 29/32/159 
f 29/32/160 112/33/161 113/34/162 
f 116/36/163 34/37/164 32/35/165 
f 32/35/166 113/34/167 116/36/168 
f 35/40/169 36/41/170 109/38/171 
f 109/38/172 114/39/173 35/40/174 
f 120/43/175 35/40/176 114/39/177 
f 114/39/178 118/42/179 120/43/180 
f 38/44/181 39/45/182 36/41/183 
f 36/41/184 35/40/185 38/44/186 
f 122/46/187 38/44/188 35/40/189 
f 35/40/190 120/43/191 122/46/192 
f 41/47/193 123/48/194 39/45/195 
f 39/45/196 38/44/197 41/47/198 
f 43/49/199 41/47/200 38/44/201 
f 38/44/202 122/46/203 43/49/204 
f 44/50/205 104/51/206 123/48/207 
f 123/48/208 41/47/209 44/50/210 
f 25/52/211 44/50/212 41/47/213 
f 41/47/214 43/49/215 25/52/216 
f 125/55/217 37/56/218 117/53/219 
f 117/53/220 115/54/221 125/55/222 
f 126/57/223 40/58/224 37/56/225 
f 37/56/226 125/55/227 126/57/228 
f 47/59/229 124/60/230 40/58/231 
f 40/58/232 126/57/233 47/59/234 
f 107/61/235 101/62/236 124/60/237 
f 124/60/238 47/59/239 107/61/240 
f 48/40/241 45/41/242 33/38/243 
f 33/38/244 31/39/245 48/40/246 
f 128/43/247 48/40/248 31/39/249 
f 31/39/250 111/42/251 128/43/252 
f 50/44/253 46/45/254 45/41/255 
f 45/41/256 48/40/257 50/44/258 
f 51/46/259 50/44/260 48/40/261 
f 48/40/262 128/43/263 51/46/264 
f 52/47/265 127/48/266 46/45/267 
f 46/45/268 50/44/269 52/47/270 
f 53/49/271 52/47/272 50/44/273 
f 50/44/274 51/46/275 53/49/276 
f 54/50/277 108/51/278 127/48/279 
f 127/48/280 52/47/281 54/50/282 
f 27/52/283 54/50/284 52/47/285 
f 52/47/286 53/49/287 27/52/288 
f 119/55/289 49/56/290 30/53/291 
f 30/53/292 110/54/293 119/55/294 
f 121/57/295 129/58/296 49/56/297 
f 49/56/298 119/55/299 121/57/300 
f 42/59/301 130/60/302 129/58/303 
f 129/58/304 121/57/305 42/59/306 
f 103/61/307 105/62/308 130/60/309 
f 130/60/310 42/59/311 103/61/312 
f 64/63/313 68/64/314 58/65/315 
f 58/65/316 56/66/317 64/63/318 
f 71/67/319 73/68/320 77/69/321 
f 77/69/322 75/70/323 71/67/324 
f 55/63/325 66/66/326 74/68/327 
f 74/68/328 59/67/329 55/63/330 
f 65/66/331 70/65/332 78/69/333 
f 78/69/334 60/68/335 65/66/336 
f 69/65/337 67/64/338 76/70/339 
f 76/70/340 62/69/341 69/65/342 
f 57/64/343 63/63/344 72/67/345 
f 72/67/346 61/70/347 57/64/348 
# 116 faces

