# 3ds Max Wavefront OBJ Exporter v0.97b - (c)2007 guruware
# File Created: 02.04.2017 21:53:25

mtllib Bank-7-75_MSH.mtl

#
# object Bank_7_75
#

v  -0.2500 0.0156 -0.0000
v  0.0000 0.0156 -0.0000
v  0.2500 0.0156 -0.0000
v  -0.2500 -0.0156 0.0000
v  0.0000 -0.0156 0.0000
v  0.2500 -0.0156 0.0000
v  -0.1752 0.0156 -0.9118
v  0.0714 0.0156 -0.8711
v  0.3181 0.0156 -0.8304
v  0.3181 -0.0156 -0.8304
v  0.0714 -0.0156 -0.8711
v  -0.1752 -0.0156 -0.9118
v  0.0471 0.0156 -1.7993
v  0.2838 0.0156 -1.7189
v  0.5205 0.0156 -1.6386
v  0.5205 -0.0156 -1.6386
v  0.2838 -0.0156 -1.7189
v  0.0471 -0.0156 -1.7993
v  0.4110 0.0156 -2.6387
v  0.6314 0.0156 -2.5208
v  0.8519 0.0156 -2.4030
v  0.8519 -0.0156 -2.4030
v  0.6314 -0.0156 -2.5208
v  0.4110 -0.0156 -2.6387
v  1.3034 0.0156 -3.1032
v  1.3034 -0.0156 -3.1032
v  2.4601 0.0156 -6.5108
v  2.4601 -0.0156 -6.5108
v  2.2101 -0.0156 -6.5108
v  2.2101 0.0156 -6.5108
v  1.9601 -0.0156 -6.5108
v  1.9601 0.0156 -6.5108
v  2.1387 0.0156 -5.6397
v  2.3854 0.0156 -5.5990
v  1.8920 0.0156 -5.6805
v  1.9263 0.0156 -4.7919
v  2.1631 0.0156 -4.7115
v  1.6896 0.0156 -4.8723
v  1.5787 0.0156 -3.9900
v  1.7992 0.0156 -3.8721
v  1.3582 0.0156 -4.1078
v  1.1051 0.0156 -3.2554
v  0.9067 0.0156 -3.4076
v  1.8920 -0.0156 -5.6805
v  1.6896 -0.0156 -4.8723
v  1.3582 -0.0156 -4.1078
v  0.9067 -0.0156 -3.4076
v  2.1387 -0.0156 -5.6397
v  2.3854 -0.0156 -5.5990
v  1.9263 -0.0156 -4.7919
v  2.1631 -0.0156 -4.7115
v  1.5787 -0.0156 -3.9900
v  1.7992 -0.0156 -3.8721
v  1.1051 -0.0156 -3.2554
v  -0.2500 -0.0313 0.7188
v  0.2500 -0.0313 0.7188
v  -0.2500 -0.0313 0.5312
v  0.2500 -0.0313 0.5313
v  -0.2500 0.0312 0.7188
v  0.2500 0.0312 0.7188
v  -0.2500 0.0312 0.5312
v  0.2500 0.0312 0.5313
v  -0.2500 -0.0313 0.7188
v  -0.2500 -0.0313 0.7188
v  0.2500 -0.0313 0.7188
v  0.2500 -0.0313 0.7188
v  -0.2500 -0.0313 0.5312
v  -0.2500 -0.0313 0.5312
v  0.2500 -0.0313 0.5313
v  0.2500 -0.0313 0.5313
v  -0.2500 0.0312 0.7188
v  -0.2500 0.0312 0.7188
v  0.2500 0.0312 0.7188
v  0.2500 0.0312 0.7188
v  -0.2500 0.0312 0.5312
v  -0.2500 0.0312 0.5312
v  0.2500 0.0312 0.5313
v  0.2500 0.0312 0.5313
v  -0.2500 0.0156 -0.0000
v  -0.2500 0.0156 -0.0000
v  0.0000 0.0156 -0.0000
v  0.2500 0.0156 -0.0000
v  0.2500 0.0156 -0.0000
v  -0.2500 -0.0156 0.0000
v  -0.2500 -0.0156 0.0000
v  0.0000 -0.0156 0.0000
v  0.2500 -0.0156 0.0000
v  0.2500 -0.0156 0.0000
v  -0.1752 0.0156 -0.9118
v  0.3181 0.0156 -0.8304
v  0.3181 -0.0156 -0.8304
v  -0.1752 -0.0156 -0.9118
v  0.0471 0.0156 -1.7993
v  0.5205 0.0156 -1.6386
v  0.5205 -0.0156 -1.6386
v  0.0471 -0.0156 -1.7993
v  0.4110 0.0156 -2.6387
v  0.8519 0.0156 -2.4030
v  0.8519 -0.0156 -2.4030
v  0.4110 -0.0156 -2.6387
v  1.3034 0.0156 -3.1032
v  1.3034 0.0156 -3.1032
v  1.3034 -0.0156 -3.1032
v  1.3034 -0.0156 -3.1032
v  2.4601 0.0156 -6.5108
v  2.4601 0.0156 -6.5108
v  2.4601 -0.0156 -6.5108
v  2.4601 -0.0156 -6.5108
v  2.2101 -0.0156 -6.5108
v  2.2101 0.0156 -6.5108
v  1.9601 -0.0156 -6.5108
v  1.9601 -0.0156 -6.5108
v  1.9601 0.0156 -6.5108
v  1.9601 0.0156 -6.5108
v  2.3854 0.0156 -5.5990
v  1.8920 0.0156 -5.6805
v  2.1631 0.0156 -4.7115
v  1.6896 0.0156 -4.8723
v  1.7992 0.0156 -3.8721
v  1.3582 0.0156 -4.1078
v  0.9067 0.0156 -3.4076
v  0.9067 0.0156 -3.4076
v  1.8920 -0.0156 -5.6805
v  1.6896 -0.0156 -4.8723
v  1.3582 -0.0156 -4.1078
v  0.9067 -0.0156 -3.4076
v  0.9067 -0.0156 -3.4076
v  2.3854 -0.0156 -5.5990
v  2.1631 -0.0156 -4.7115
v  1.7992 -0.0156 -3.8721
# 130 vertices

vn -0.0000 0.0000 1.0000
vn -0.0000 0.0000 1.0000
vn -0.0000 0.0000 1.0000
vn -0.0000 0.0000 1.0000
vn -0.0000 0.0000 1.0000
vn -0.0000 0.0000 1.0000
vn -0.0000 0.0000 1.0000
vn -0.0000 0.0000 1.0000
vn -0.0000 0.0000 1.0000
vn -0.0000 0.0000 1.0000
vn -0.0000 0.0000 1.0000
vn -0.0000 0.0000 1.0000
vn 0.0000 1.0000 -0.0000
vn 0.0000 1.0000 -0.0000
vn 0.0000 1.0000 -0.0000
vn 0.0000 1.0000 -0.0000
vn 0.0000 1.0000 -0.0000
vn 0.0000 1.0000 -0.0000
vn 0.0000 1.0000 -0.0000
vn 0.0000 1.0000 -0.0000
vn 0.0000 1.0000 -0.0000
vn 0.0000 1.0000 -0.0000
vn 0.0000 1.0000 -0.0000
vn 0.0000 1.0000 -0.0000
vn 0.0000 1.0000 -0.0000
vn 0.0000 1.0000 -0.0000
vn 0.0000 1.0000 -0.0000
vn 0.0000 1.0000 -0.0000
vn 0.0000 1.0000 -0.0000
vn 0.0000 1.0000 -0.0000
vn 0.0000 1.0000 -0.0000
vn 0.0000 1.0000 -0.0000
vn 0.0000 1.0000 -0.0000
vn 0.0000 1.0000 -0.0000
vn 0.0000 1.0000 -0.0000
vn 0.0000 1.0000 -0.0000
vn 0.0000 1.0000 -0.0000
vn 0.0000 1.0000 -0.0000
vn 0.0000 1.0000 -0.0000
vn 0.0000 1.0000 -0.0000
vn 0.0000 1.0000 -0.0000
vn 0.0000 1.0000 -0.0000
vn 0.0000 1.0000 -0.0000
vn 0.0000 1.0000 -0.0000
vn 0.0000 1.0000 -0.0000
vn 0.0000 1.0000 -0.0000
vn 0.0000 1.0000 -0.0000
vn 0.0000 1.0000 -0.0000
vn 0.0000 1.0000 -0.0000
vn 0.0000 1.0000 -0.0000
vn 0.0000 1.0000 -0.0000
vn 0.0000 1.0000 -0.0000
vn 0.0000 1.0000 -0.0000
vn 0.0000 1.0000 -0.0000
vn 0.0000 1.0000 -0.0000
vn 0.0000 1.0000 -0.0000
vn 0.0000 1.0000 -0.0000
vn 0.0000 1.0000 -0.0000
vn 0.0000 1.0000 -0.0000
vn 0.0000 1.0000 -0.0000
vn 0.9866 0.0000 0.1629
vn 0.9866 0.0000 0.1629
vn 0.9967 0.0000 0.0817
vn 0.9967 0.0000 0.0817
vn 0.9967 0.0000 0.0817
vn 0.9866 0.0000 0.1629
vn 0.9469 0.0000 0.3214
vn 0.9469 0.0000 0.3214
vn 0.9866 0.0000 0.1629
vn 0.9866 0.0000 0.1629
vn 0.9866 0.0000 0.1629
vn 0.9469 0.0000 0.3214
vn 0.8819 0.0000 0.4714
vn 0.8819 0.0000 0.4714
vn 0.9469 0.0000 0.3214
vn 0.9469 0.0000 0.3214
vn 0.9469 0.0000 0.3214
vn 0.8819 0.0000 0.4714
vn 0.8404 0.0000 0.5419
vn 0.8404 0.0000 0.5419
vn 0.8819 0.0000 0.4714
vn 0.8819 0.0000 0.4714
vn 0.8819 0.0000 0.4714
vn 0.8404 0.0000 0.5419
vn 0.0000 -1.0000 0.0000
vn 0.0000 -1.0000 0.0000
vn 0.0000 -1.0000 0.0000
vn 0.0000 -1.0000 0.0000
vn 0.0000 -1.0000 0.0000
vn 0.0000 -1.0000 0.0000
vn 0.0000 -1.0000 0.0000
vn 0.0000 -1.0000 0.0000
vn 0.0000 -1.0000 0.0000
vn 0.0000 -1.0000 0.0000
vn 0.0000 -1.0000 0.0000
vn 0.0000 -1.0000 0.0000
vn 0.0000 -1.0000 0.0000
vn 0.0000 -1.0000 0.0000
vn 0.0000 -1.0000 0.0000
vn 0.0000 -1.0000 0.0000
vn 0.0000 -1.0000 0.0000
vn 0.0000 -1.0000 0.0000
vn 0.0000 -1.0000 0.0000
vn 0.0000 -1.0000 0.0000
vn 0.0000 -1.0000 0.0000
vn 0.0000 -1.0000 0.0000
vn 0.0000 -1.0000 0.0000
vn 0.0000 -1.0000 0.0000
vn 0.0000 -1.0000 0.0000
vn 0.0000 -1.0000 0.0000
vn 0.0000 -1.0000 0.0000
vn 0.0000 -1.0000 0.0000
vn 0.0000 -1.0000 0.0000
vn 0.0000 -1.0000 0.0000
vn 0.0000 -1.0000 0.0000
vn 0.0000 -1.0000 0.0000
vn 0.0000 -1.0000 0.0000
vn 0.0000 -1.0000 0.0000
vn 0.0000 -1.0000 0.0000
vn 0.0000 -1.0000 0.0000
vn 0.0000 -1.0000 0.0000
vn 0.0000 -1.0000 0.0000
vn 0.0000 -1.0000 0.0000
vn 0.0000 -1.0000 0.0000
vn 0.0000 -1.0000 0.0000
vn 0.0000 -1.0000 0.0000
vn 0.0000 -1.0000 0.0000
vn 0.0000 -1.0000 0.0000
vn 0.0000 -1.0000 0.0000
vn 0.0000 -1.0000 0.0000
vn 0.0000 -1.0000 0.0000
vn 0.0000 -1.0000 0.0000
vn -0.9866 -0.0000 -0.1629
vn -0.9866 -0.0000 -0.1629
vn -0.9967 -0.0000 -0.0817
vn -0.9967 -0.0000 -0.0817
vn -0.9967 -0.0000 -0.0817
vn -0.9866 -0.0000 -0.1629
vn -0.9469 -0.0000 -0.3214
vn -0.9469 -0.0000 -0.3214
vn -0.9866 -0.0000 -0.1629
vn -0.9866 -0.0000 -0.1629
vn -0.9866 -0.0000 -0.1629
vn -0.9469 -0.0000 -0.3214
vn -0.8819 -0.0000 -0.4714
vn -0.8819 -0.0000 -0.4714
vn -0.9469 -0.0000 -0.3214
vn -0.9469 -0.0000 -0.3214
vn -0.9469 -0.0000 -0.3214
vn -0.8819 -0.0000 -0.4714
vn -0.8404 -0.0000 -0.5419
vn -0.8404 -0.0000 -0.5419
vn -0.8819 -0.0000 -0.4714
vn -0.8819 -0.0000 -0.4714
vn -0.8819 -0.0000 -0.4714
vn -0.8404 -0.0000 -0.5419
vn 0.0000 -0.0000 -1.0000
vn 0.0000 -0.0000 -1.0000
vn 0.0000 -0.0000 -1.0000
vn 0.0000 -0.0000 -1.0000
vn 0.0000 -0.0000 -1.0000
vn 0.0000 -0.0000 -1.0000
vn 0.0000 -0.0000 -1.0000
vn 0.0000 -0.0000 -1.0000
vn 0.0000 -0.0000 -1.0000
vn 0.0000 -0.0000 -1.0000
vn 0.0000 -0.0000 -1.0000
vn 0.0000 -0.0000 -1.0000
vn 0.0000 1.0000 -0.0000
vn 0.0000 1.0000 -0.0000
vn 0.0000 1.0000 -0.0000
vn 0.0000 1.0000 -0.0000
vn 0.0000 1.0000 -0.0000
vn 0.0000 1.0000 -0.0000
vn 0.0000 1.0000 -0.0000
vn 0.0000 1.0000 -0.0000
vn 0.0000 1.0000 -0.0000
vn 0.0000 1.0000 -0.0000
vn 0.0000 1.0000 -0.0000
vn 0.0000 1.0000 -0.0000
vn 0.0000 1.0000 -0.0000
vn 0.0000 1.0000 -0.0000
vn 0.0000 1.0000 -0.0000
vn 0.0000 1.0000 -0.0000
vn 0.0000 1.0000 -0.0000
vn 0.0000 1.0000 -0.0000
vn 0.0000 1.0000 -0.0000
vn 0.0000 1.0000 -0.0000
vn 0.0000 1.0000 -0.0000
vn 0.0000 1.0000 -0.0000
vn 0.0000 1.0000 -0.0000
vn 0.0000 1.0000 -0.0000
vn 0.0000 1.0000 -0.0000
vn 0.0000 1.0000 -0.0000
vn 0.0000 1.0000 -0.0000
vn 0.0000 1.0000 -0.0000
vn 0.0000 1.0000 -0.0000
vn 0.0000 1.0000 -0.0000
vn 0.0000 1.0000 -0.0000
vn 0.0000 1.0000 -0.0000
vn 0.0000 1.0000 -0.0000
vn 0.0000 1.0000 -0.0000
vn 0.0000 1.0000 -0.0000
vn 0.0000 1.0000 -0.0000
vn 0.0000 1.0000 -0.0000
vn 0.0000 1.0000 -0.0000
vn 0.0000 1.0000 -0.0000
vn 0.0000 1.0000 -0.0000
vn 0.0000 1.0000 -0.0000
vn 0.0000 1.0000 -0.0000
vn 0.0000 1.0000 -0.0000
vn 0.0000 1.0000 -0.0000
vn 0.0000 1.0000 -0.0000
vn 0.0000 1.0000 -0.0000
vn 0.0000 1.0000 -0.0000
vn 0.0000 1.0000 -0.0000
vn -0.9866 -0.0000 -0.1629
vn -0.9866 -0.0000 -0.1629
vn -0.9967 -0.0000 -0.0817
vn -0.9967 -0.0000 -0.0817
vn -0.9967 -0.0000 -0.0817
vn -0.9866 -0.0000 -0.1629
vn -0.9469 -0.0000 -0.3214
vn -0.9469 -0.0000 -0.3214
vn -0.9866 -0.0000 -0.1629
vn -0.9866 -0.0000 -0.1629
vn -0.9866 -0.0000 -0.1629
vn -0.9469 -0.0000 -0.3214
vn -0.8819 -0.0000 -0.4714
vn -0.8819 -0.0000 -0.4714
vn -0.9469 -0.0000 -0.3214
vn -0.9469 -0.0000 -0.3214
vn -0.9469 -0.0000 -0.3214
vn -0.8819 -0.0000 -0.4714
vn -0.8404 -0.0000 -0.5419
vn -0.8404 -0.0000 -0.5419
vn -0.8819 -0.0000 -0.4714
vn -0.8819 -0.0000 -0.4714
vn -0.8819 -0.0000 -0.4714
vn -0.8404 -0.0000 -0.5419
vn 0.0000 -1.0000 0.0000
vn 0.0000 -1.0000 0.0000
vn 0.0000 -1.0000 0.0000
vn 0.0000 -1.0000 0.0000
vn 0.0000 -1.0000 0.0000
vn 0.0000 -1.0000 0.0000
vn 0.0000 -1.0000 0.0000
vn 0.0000 -1.0000 0.0000
vn 0.0000 -1.0000 0.0000
vn 0.0000 -1.0000 0.0000
vn 0.0000 -1.0000 0.0000
vn 0.0000 -1.0000 0.0000
vn 0.0000 -1.0000 0.0000
vn 0.0000 -1.0000 0.0000
vn 0.0000 -1.0000 0.0000
vn 0.0000 -1.0000 0.0000
vn 0.0000 -1.0000 0.0000
vn 0.0000 -1.0000 0.0000
vn 0.0000 -1.0000 0.0000
vn 0.0000 -1.0000 0.0000
vn 0.0000 -1.0000 0.0000
vn 0.0000 -1.0000 0.0000
vn 0.0000 -1.0000 0.0000
vn 0.0000 -1.0000 0.0000
vn 0.0000 -1.0000 0.0000
vn 0.0000 -1.0000 0.0000
vn 0.0000 -1.0000 0.0000
vn 0.0000 -1.0000 0.0000
vn 0.0000 -1.0000 0.0000
vn 0.0000 -1.0000 0.0000
vn 0.0000 -1.0000 0.0000
vn 0.0000 -1.0000 0.0000
vn 0.0000 -1.0000 0.0000
vn 0.0000 -1.0000 0.0000
vn 0.0000 -1.0000 0.0000
vn 0.0000 -1.0000 0.0000
vn 0.0000 -1.0000 0.0000
vn 0.0000 -1.0000 0.0000
vn 0.0000 -1.0000 0.0000
vn 0.0000 -1.0000 0.0000
vn 0.0000 -1.0000 0.0000
vn 0.0000 -1.0000 0.0000
vn 0.0000 -1.0000 0.0000
vn 0.0000 -1.0000 0.0000
vn 0.0000 -1.0000 0.0000
vn 0.0000 -1.0000 0.0000
vn 0.0000 -1.0000 0.0000
vn 0.0000 -1.0000 0.0000
vn 0.9866 0.0000 0.1629
vn 0.9866 0.0000 0.1629
vn 0.9967 0.0000 0.0817
vn 0.9967 0.0000 0.0817
vn 0.9967 0.0000 0.0817
vn 0.9866 0.0000 0.1629
vn 0.9469 0.0000 0.3214
vn 0.9469 0.0000 0.3214
vn 0.9866 0.0000 0.1629
vn 0.9866 0.0000 0.1629
vn 0.9866 0.0000 0.1629
vn 0.9469 0.0000 0.3214
vn 0.8819 0.0000 0.4714
vn 0.8819 0.0000 0.4714
vn 0.9469 0.0000 0.3214
vn 0.9469 0.0000 0.3214
vn 0.9469 0.0000 0.3214
vn 0.8819 0.0000 0.4714
vn 0.8404 0.0000 0.5419
vn 0.8404 0.0000 0.5419
vn 0.8819 0.0000 0.4714
vn 0.8819 0.0000 0.4714
vn 0.8819 0.0000 0.4714
vn 0.8404 0.0000 0.5419
vn 0.0000 -1.0000 0.0000
vn 0.0000 -1.0000 0.0000
vn 0.0000 -1.0000 0.0000
vn 0.0000 -1.0000 0.0000
vn 0.0000 -1.0000 0.0000
vn 0.0000 -1.0000 0.0000
vn -0.0000 1.0000 0.0000
vn 0.0000 1.0000 0.0000
vn -0.0000 1.0000 0.0000
vn -0.0000 1.0000 0.0000
vn -0.0000 1.0000 0.0000
vn -0.0000 1.0000 0.0000
vn 0.0000 0.0000 1.0000
vn 0.0000 0.0000 1.0000
vn 0.0000 0.0000 1.0000
vn 0.0000 0.0000 1.0000
vn 0.0000 0.0000 1.0000
vn 0.0000 0.0000 1.0000
vn 1.0000 0.0000 0.0000
vn 1.0000 0.0000 0.0000
vn 1.0000 0.0000 0.0000
vn 1.0000 0.0000 0.0000
vn 1.0000 0.0000 0.0000
vn 1.0000 0.0000 0.0000
vn 0.0000 -0.0000 -1.0000
vn 0.0000 -0.0000 -1.0000
vn 0.0000 -0.0000 -1.0000
vn 0.0000 -0.0000 -1.0000
vn 0.0000 -0.0000 -1.0000
vn 0.0000 -0.0000 -1.0000
vn -1.0000 -0.0000 -0.0000
vn -1.0000 -0.0000 -0.0000
vn -1.0000 -0.0000 -0.0000
vn -1.0000 -0.0000 -0.0000
vn -1.0000 -0.0000 -0.0000
vn -1.0000 -0.0000 -0.0000
# 348 vertex normals

vt 0.6375 0.4000 0.0000
vt 0.8625 0.4000 0.0000
vt 0.6375 0.4563 0.0000
vt 0.8625 0.4563 0.0000
vt 0.6375 0.5125 0.0000
vt 0.8625 0.5125 0.0000
vt 0.6375 0.5688 0.0000
vt 0.8625 0.5688 0.0000
vt 0.6375 0.6250 0.0000
vt 0.8625 0.6250 0.0000
vt 0.6375 0.4000 0.0000
vt 0.7500 0.4000 0.0000
vt 0.8625 0.4000 0.0000
vt 0.6375 0.4563 0.0000
vt 0.7500 0.4563 0.0000
vt 0.8625 0.4563 0.0000
vt 0.6375 0.5125 0.0000
vt 0.7500 0.5125 0.0000
vt 0.8625 0.5125 0.0000
vt 0.6375 0.5688 0.0000
vt 0.7500 0.5688 0.0000
vt 0.8625 0.5688 0.0000
vt 0.6375 0.6250 0.0000
vt 0.7500 0.6250 0.0000
vt 0.8625 0.6250 0.0000
vt 0.6375 0.4000 0.0000
vt 0.7500 0.4000 0.0000
vt 0.8625 0.4000 0.0000
vt 0.6375 0.8500 0.0000
vt 0.7500 0.8500 0.0000
vt 0.8625 0.8500 0.0000
vt 0.8625 0.4000 0.0000
vt 0.8625 0.8500 0.0000
vt 0.7500 0.8500 0.0000
vt 0.7500 0.4000 0.0000
vt 0.6375 0.8500 0.0000
vt 0.6375 0.4000 0.0000
vt 0.6375 0.4000 0.0000
vt 0.7500 0.4000 0.0000
vt 0.7500 0.4563 0.0000
vt 0.6375 0.4563 0.0000
vt 0.8625 0.4000 0.0000
vt 0.8625 0.4563 0.0000
vt 0.7500 0.5125 0.0000
vt 0.6375 0.5125 0.0000
vt 0.8625 0.5125 0.0000
vt 0.7500 0.5688 0.0000
vt 0.6375 0.5688 0.0000
vt 0.8625 0.5688 0.0000
vt 0.7500 0.6250 0.0000
vt 0.6375 0.6250 0.0000
vt 0.8625 0.6250 0.0000
vt 0.6375 0.4000 0.0000
vt 0.8625 0.4000 0.0000
vt 0.8625 0.4563 0.0000
vt 0.6375 0.4563 0.0000
vt 0.8625 0.5125 0.0000
vt 0.6375 0.5125 0.0000
vt 0.8625 0.5688 0.0000
vt 0.6375 0.5688 0.0000
vt 0.8625 0.6250 0.0000
vt 0.6375 0.6250 0.0000
vt 0.6375 0.0828 0.0000
vt 0.6375 0.1672 0.0000
vt 0.8625 0.1672 0.0000
vt 0.8625 0.0828 0.0000
vt 0.6375 0.0828 0.0000
vt 0.8625 0.0828 0.0000
vt 0.8625 0.1672 0.0000
vt 0.6375 0.1672 0.0000
# 70 texture coords

g Bank_7_75
usemtl Material__2
f 86/30/1 2/27/2 80/28/3 
f 80/28/4 85/31/5 86/30/6 
f 6/29/7 3/26/8 2/27/9 
f 2/27/10 86/30/11 6/29/12 
f 8/15/13 7/14/14 1/11/15 
f 1/11/16 81/12/17 8/15/18 
f 90/16/19 8/15/20 81/12/21 
f 81/12/22 83/13/23 90/16/24 
f 14/18/25 13/17/26 7/14/27 
f 7/14/28 8/15/29 14/18/30 
f 94/19/31 14/18/32 8/15/33 
f 8/15/34 90/16/35 94/19/36 
f 20/21/37 19/20/38 13/17/39 
f 13/17/40 14/18/41 20/21/42 
f 98/22/43 20/21/44 14/18/45 
f 14/18/46 94/19/47 98/22/48 
f 42/24/49 43/23/50 19/20/51 
f 19/20/52 20/21/53 42/24/54 
f 102/25/55 42/24/56 20/21/57 
f 20/21/58 98/22/59 102/25/60 
f 91/4/61 9/3/62 82/1/63 
f 82/1/64 88/2/65 91/4/66 
f 95/6/67 15/5/68 9/3/69 
f 9/3/70 91/4/71 95/6/72 
f 99/8/73 21/7/74 15/5/75 
f 15/5/76 95/6/77 99/8/78 
f 104/10/79 25/9/80 21/7/81 
f 21/7/82 99/8/83 104/10/84 
f 11/15/85 10/14/86 87/11/87 
f 87/11/88 5/12/89 11/15/90 
f 92/16/91 11/15/92 5/12/93 
f 5/12/94 84/13/95 92/16/96 
f 17/18/97 16/17/98 10/14/99 
f 10/14/100 11/15/101 17/18/102 
f 96/19/103 17/18/104 11/15/105 
f 11/15/106 92/16/107 96/19/108 
f 23/21/109 22/20/110 16/17/111 
f 16/17/112 17/18/113 23/21/114 
f 100/22/115 23/21/116 17/18/117 
f 17/18/118 96/19/119 100/22/120 
f 54/24/121 26/23/122 22/20/123 
f 22/20/124 23/21/125 54/24/126 
f 127/25/127 54/24/128 23/21/129 
f 23/21/130 100/22/131 127/25/132 
f 89/4/133 12/3/134 4/1/135 
f 4/1/136 79/2/137 89/4/138 
f 93/6/139 18/5/140 12/3/141 
f 12/3/142 89/4/143 93/6/144 
f 97/8/145 24/7/146 18/5/147 
f 18/5/148 93/6/149 97/8/150 
f 122/10/151 47/9/152 24/7/153 
f 24/7/154 97/8/155 122/10/156 
f 109/34/157 30/35/158 27/32/159 
f 27/32/160 108/33/161 109/34/162 
f 112/36/163 32/37/164 30/35/165 
f 30/35/166 109/34/167 112/36/168 
f 33/40/169 34/41/170 105/38/171 
f 105/38/172 110/39/173 33/40/174 
f 116/43/175 33/40/176 110/39/177 
f 110/39/178 114/42/179 116/43/180 
f 36/44/181 37/45/182 34/41/183 
f 34/41/184 33/40/185 36/44/186 
f 118/46/187 36/44/188 33/40/189 
f 33/40/190 116/43/191 118/46/192 
f 39/47/193 119/48/194 37/45/195 
f 37/45/196 36/44/197 39/47/198 
f 120/49/199 39/47/200 36/44/201 
f 36/44/202 118/46/203 120/49/204 
f 42/50/205 102/51/206 119/48/207 
f 119/48/208 39/47/209 42/50/210 
f 43/52/211 42/50/212 39/47/213 
f 39/47/214 120/49/215 43/52/216 
f 123/55/217 35/56/218 113/53/219 
f 113/53/220 111/54/221 123/55/222 
f 124/57/223 38/58/224 35/56/225 
f 35/56/226 123/55/227 124/57/228 
f 125/59/229 41/60/230 38/58/231 
f 38/58/232 124/57/233 125/59/234 
f 126/61/235 121/62/236 41/60/237 
f 41/60/238 125/59/239 126/61/240 
f 48/40/241 44/41/242 31/38/243 
f 31/38/244 29/39/245 48/40/246 
f 128/43/247 48/40/248 29/39/249 
f 29/39/250 107/42/251 128/43/252 
f 50/44/253 45/45/254 44/41/255 
f 44/41/256 48/40/257 50/44/258 
f 51/46/259 50/44/260 48/40/261 
f 48/40/262 128/43/263 51/46/264 
f 52/47/265 46/48/266 45/45/267 
f 45/45/268 50/44/269 52/47/270 
f 53/49/271 52/47/272 50/44/273 
f 50/44/274 51/46/275 53/49/276 
f 54/50/277 127/51/278 46/48/279 
f 46/48/280 52/47/281 54/50/282 
f 26/52/283 54/50/284 52/47/285 
f 52/47/286 53/49/287 26/52/288 
f 115/55/289 49/56/290 28/53/291 
f 28/53/292 106/54/293 115/55/294 
f 117/57/295 129/58/296 49/56/297 
f 49/56/298 115/55/299 117/57/300 
f 40/59/301 130/60/302 129/58/303 
f 129/58/304 117/57/305 40/59/306 
f 101/61/307 103/62/308 130/60/309 
f 130/60/310 40/59/311 101/61/312 
f 64/63/313 68/64/314 58/65/315 
f 58/65/316 56/66/317 64/63/318 
f 71/67/319 73/68/320 77/69/321 
f 77/69/322 75/70/323 71/67/324 
f 55/63/325 66/66/326 74/68/327 
f 74/68/328 59/67/329 55/63/330 
f 65/66/331 70/65/332 78/69/333 
f 78/69/334 60/68/335 65/66/336 
f 69/65/337 67/64/338 76/70/339 
f 76/70/340 62/69/341 69/65/342 
f 57/64/343 63/63/344 72/67/345 
f 72/67/346 61/70/347 57/64/348 
# 116 faces

