# 3ds Max Wavefront OBJ Exporter v0.97b - (c)2007 guruware
# File Created: 15.04.2017 19:23:46

#
# object hex
#

v  -0.1890 0.0073 -0.3273
v  0.1890 0.0073 -0.3273
v  0.3780 0.0073 0.0000
v  -0.3780 0.0073 0.0000
v  0.0000 0.0879 -0.2708
v  0.1890 0.0073 0.3273
v  0.2346 0.0879 -0.1354
v  -0.1890 0.0073 0.3273
v  -0.2346 0.0879 -0.1354
v  0.0000 0.1441 -0.2142
v  0.1855 0.1441 -0.1071
v  0.2346 0.0879 0.1354
v  -0.0000 0.0879 0.2708
v  -0.2346 0.0879 0.1354
v  -0.1855 0.1441 -0.1071
v  -0.1336 0.0890 -0.2314
v  0.1336 0.0890 -0.2314
v  0.2672 0.0890 0.0000
v  0.1855 0.1441 0.1071
v  -0.0000 0.1441 0.2142
v  -0.1855 0.1441 0.1071
v  -0.2672 0.0890 0.0000
v  0.1336 0.0890 0.2314
v  -0.1336 0.0890 0.2314
v  -0.1890 0.0073 -0.3273
v  -0.1890 0.0073 -0.3273
v  -0.1890 0.0073 -0.3273
v  -0.1890 0.0073 -0.3273
v  -0.1890 0.0073 -0.3273
v  -0.1890 0.0073 -0.3273
v  0.1890 0.0073 -0.3273
v  0.1890 0.0073 -0.3273
v  0.1890 0.0073 -0.3273
v  0.1890 0.0073 -0.3273
v  0.1890 0.0073 -0.3273
v  0.1890 0.0073 -0.3273
v  0.3780 0.0073 0.0000
v  0.3780 0.0073 0.0000
v  0.3780 0.0073 0.0000
v  0.3780 0.0073 0.0000
v  0.3780 0.0073 0.0000
v  0.3780 0.0073 0.0000
v  -0.3780 0.0073 0.0000
v  -0.3780 0.0073 0.0000
v  -0.3780 0.0073 0.0000
v  -0.3780 0.0073 0.0000
v  -0.3780 0.0073 0.0000
v  -0.3780 0.0073 0.0000
v  0.0000 0.0879 -0.2708
v  0.0000 0.0879 -0.2708
v  0.1890 0.0073 0.3273
v  0.1890 0.0073 0.3273
v  0.1890 0.0073 0.3273
v  0.1890 0.0073 0.3273
v  0.1890 0.0073 0.3273
v  0.1890 0.0073 0.3273
v  0.2346 0.0879 -0.1354
v  0.2346 0.0879 -0.1354
v  -0.1890 0.0073 0.3273
v  -0.1890 0.0073 0.3273
v  -0.1890 0.0073 0.3273
v  -0.1890 0.0073 0.3273
v  -0.1890 0.0073 0.3273
v  -0.1890 0.0073 0.3273
v  -0.2346 0.0879 -0.1354
v  -0.2346 0.0879 -0.1354
v  0.0000 0.1441 -0.2142
v  0.0000 0.1441 -0.2142
v  0.0000 0.1441 -0.2142
v  0.0000 0.1441 -0.2142
v  0.1855 0.1441 -0.1071
v  0.1855 0.1441 -0.1071
v  0.1855 0.1441 -0.1071
v  0.1855 0.1441 -0.1071
v  0.2346 0.0879 0.1354
v  0.2346 0.0879 0.1354
v  -0.0000 0.0879 0.2708
v  -0.0000 0.0879 0.2708
v  -0.2346 0.0879 0.1354
v  -0.2346 0.0879 0.1354
v  -0.1855 0.1441 -0.1071
v  -0.1855 0.1441 -0.1071
v  -0.1855 0.1441 -0.1071
v  -0.1855 0.1441 -0.1071
v  0.1855 0.1441 0.1071
v  0.1855 0.1441 0.1071
v  0.1855 0.1441 0.1071
v  0.1855 0.1441 0.1071
v  -0.0000 0.1441 0.2142
v  -0.0000 0.1441 0.2142
v  -0.0000 0.1441 0.2142
v  -0.0000 0.1441 0.2142
v  -0.1855 0.1441 0.1071
v  -0.1855 0.1441 0.1071
v  -0.1855 0.1441 0.1071
v  -0.1855 0.1441 0.1071
v  -0.1890 0.0000 -0.3273
v  0.1890 0.0000 -0.3273
v  -0.1890 0.0000 0.3273
v  0.3780 0.0000 0.0000
v  -0.3780 0.0000 0.0000
v  0.1890 0.0000 0.3273
v  0.1890 -0.0073 -0.3273
v  -0.1890 -0.0073 -0.3273
v  0.0000 -0.0879 -0.2708
v  0.3780 -0.0073 0.0000
v  0.1890 -0.0073 -0.3273
v  0.2346 -0.0879 -0.1354
v  -0.2346 -0.0879 -0.1354
v  -0.1890 -0.0073 -0.3273
v  -0.3780 -0.0073 0.0000
v  0.0000 -0.1441 -0.2142
v  0.0000 -0.0879 -0.2708
v  -0.1890 -0.0073 -0.3273
v  0.1890 -0.0073 -0.3273
v  0.0000 -0.0879 -0.2708
v  0.0000 -0.1441 -0.2142
v  0.1855 -0.1441 -0.1071
v  0.2346 -0.0879 -0.1354
v  0.1890 -0.0073 -0.3273
v  0.1890 -0.0073 0.3273
v  0.3780 -0.0073 0.0000
v  0.2346 -0.0879 0.1354
v  0.3780 -0.0073 0.0000
v  0.2346 -0.0879 -0.1354
v  0.1855 -0.1441 -0.1071
v  -0.1890 -0.0073 0.3273
v  0.1890 -0.0073 0.3273
v  -0.0000 -0.0879 0.2708
v  -0.3780 -0.0073 0.0000
v  -0.1890 -0.0073 0.3273
v  -0.2346 -0.0879 0.1354
v  -0.1890 -0.0073 -0.3273
v  -0.2346 -0.0879 -0.1354
v  -0.1855 -0.1441 -0.1071
v  -0.1855 -0.1441 -0.1071
v  -0.2346 -0.0879 -0.1354
v  -0.3780 -0.0073 0.0000
v  0.0000 -0.1441 -0.2142
v  -0.1890 -0.0073 -0.3273
v  -0.1336 -0.0890 -0.2314
v  0.1336 -0.0890 -0.2314
v  0.1890 -0.0073 -0.3273
v  0.0000 -0.1441 -0.2142
v  0.1855 -0.1441 -0.1071
v  0.2672 -0.0890 0.0000
v  0.3780 -0.0073 0.0000
v  0.1855 -0.1441 -0.1071
v  0.1890 -0.0073 0.3273
v  0.2346 -0.0879 0.1354
v  0.1855 -0.1441 0.1071
v  0.1855 -0.1441 0.1071
v  0.2346 -0.0879 0.1354
v  0.3780 -0.0073 0.0000
v  -0.0000 -0.1441 0.2142
v  -0.0000 -0.0879 0.2708
v  0.1890 -0.0073 0.3273
v  -0.1890 -0.0073 0.3273
v  -0.0000 -0.0879 0.2708
v  -0.0000 -0.1441 0.2142
v  -0.1855 -0.1441 0.1071
v  -0.2346 -0.0879 0.1354
v  -0.1890 -0.0073 0.3273
v  -0.3780 -0.0073 0.0000
v  -0.2346 -0.0879 0.1354
v  -0.1855 -0.1441 0.1071
v  -0.1855 -0.1441 -0.1071
v  -0.3780 -0.0073 0.0000
v  -0.2672 -0.0890 0.0000
v  0.1336 -0.0890 0.2314
v  0.1890 -0.0073 0.3273
v  0.1855 -0.1441 0.1071
v  -0.1855 -0.1441 -0.1071
v  -0.1855 -0.1441 0.1071
v  -0.0000 -0.1441 0.2142
v  0.1855 -0.1441 0.1071
v  0.1855 -0.1441 -0.1071
v  0.0000 -0.1441 -0.2142
v  -0.1855 -0.1441 -0.1071
v  0.1855 -0.1441 0.1071
v  -0.0000 -0.1441 0.2142
v  -0.1855 -0.1441 0.1071
v  -0.1890 -0.0073 0.3273
v  -0.1336 -0.0890 0.2314
v  -0.0000 -0.1441 0.2142
v  -0.1855 -0.1441 0.1071
v  -0.1890 -0.0073 -0.3273
v  0.1890 -0.0073 -0.3273
v  0.1890 -0.0073 -0.3273
v  0.3780 -0.0073 0.0000
v  -0.3780 -0.0073 0.0000
v  -0.1890 -0.0073 -0.3273
v  0.3780 -0.0073 0.0000
v  0.1890 -0.0073 0.3273
v  0.1890 -0.0073 0.3273
v  -0.1890 -0.0073 0.3273
v  -0.1890 -0.0073 0.3273
v  -0.3780 -0.0073 0.0000
v  -0.1890 0.0000 -0.3273
v  0.1890 0.0000 -0.3273
v  -0.1890 0.0000 0.3273
v  0.3780 0.0000 0.0000
v  -0.3780 0.0000 0.0000
v  0.1890 0.0000 0.3273
# 204 vertices

vn 0.0000 0.5736 -0.8191
vn 0.0000 0.5736 -0.8191
vn 0.0000 0.5736 -0.8191
vn 0.7094 0.5736 -0.4096
vn 0.7094 0.5736 -0.4096
vn 0.7094 0.5736 -0.4096
vn -0.7094 0.5736 -0.4096
vn -0.7094 0.5736 -0.4096
vn -0.7094 0.5736 -0.4096
vn -0.0923 0.7071 -0.7011
vn -0.0923 0.7071 -0.7011
vn -0.0923 0.7071 -0.7011
vn 0.0923 0.7071 -0.7011
vn 0.0923 0.7071 -0.7011
vn 0.0923 0.7071 -0.7011
vn 0.5610 0.7071 -0.4305
vn 0.5610 0.7071 -0.4305
vn 0.5610 0.7071 -0.4305
vn 0.7094 0.5736 0.4096
vn 0.7094 0.5736 0.4096
vn 0.7094 0.5736 0.4096
vn 0.6533 0.7071 -0.2706
vn 0.6533 0.7071 -0.2706
vn 0.6533 0.7071 -0.2706
vn 0.0000 0.5736 0.8192
vn 0.0000 0.5736 0.8192
vn 0.0000 0.5736 0.8192
vn -0.7094 0.5736 0.4096
vn -0.7094 0.5736 0.4096
vn -0.7094 0.5736 0.4096
vn -0.5610 0.7071 -0.4305
vn -0.5610 0.7071 -0.4305
vn -0.5610 0.7071 -0.4305
vn -0.6533 0.7071 -0.2706
vn -0.6533 0.7071 -0.2706
vn -0.6533 0.7071 -0.2706
vn -0.2739 0.8206 -0.5016
vn -0.2969 0.8047 -0.5142
vn -0.2924 0.8112 -0.5064
vn 0.2924 0.8112 -0.5064
vn 0.2969 0.8047 -0.5142
vn 0.2739 0.8206 -0.5016
vn 0.2975 0.8206 -0.4880
vn 0.2969 0.8047 -0.5142
vn 0.2924 0.8112 -0.5064
vn 0.5847 0.8112 0.0000
vn 0.5937 0.8047 0.0000
vn 0.5713 0.8206 -0.0136
vn 0.5610 0.7071 0.4305
vn 0.5610 0.7071 0.4305
vn 0.5610 0.7071 0.4305
vn 0.6533 0.7071 0.2706
vn 0.6533 0.7071 0.2706
vn 0.6533 0.7071 0.2706
vn 0.0923 0.7071 0.7011
vn 0.0923 0.7071 0.7011
vn 0.0923 0.7071 0.7011
vn -0.0923 0.7071 0.7010
vn -0.0923 0.7071 0.7010
vn -0.0923 0.7071 0.7010
vn -0.5610 0.7071 0.4305
vn -0.5610 0.7071 0.4305
vn -0.5610 0.7071 0.4305
vn -0.6533 0.7071 0.2706
vn -0.6533 0.7071 0.2706
vn -0.6533 0.7071 0.2706
vn -0.5713 0.8206 -0.0136
vn -0.5937 0.8047 0.0000
vn -0.5847 0.8112 0.0000
vn 0.2924 0.8112 0.5064
vn 0.2969 0.8047 0.5142
vn 0.2975 0.8206 0.4880
vn -0.2924 0.8112 -0.5064
vn -0.2969 0.8047 -0.5142
vn -0.2975 0.8206 -0.4880
vn -0.2739 0.8206 -0.5016
vn -0.2924 0.8112 -0.5064
vn -0.2975 0.8206 -0.4880
vn -0.0000 1.0000 0.0000
vn -0.0000 1.0000 0.0000
vn -0.0000 1.0000 0.0000
vn -0.0000 1.0000 0.0000
vn 0.0000 1.0000 -0.0000
vn -0.0000 1.0000 0.0000
vn -0.0000 1.0000 0.0000
vn -0.0000 1.0000 0.0000
vn -0.0000 1.0000 0.0000
vn -0.0000 1.0000 0.0000
vn -0.0000 1.0000 0.0000
vn -0.0000 1.0000 0.0000
vn 0.2975 0.8206 -0.4880
vn 0.2924 0.8112 -0.5064
vn 0.2739 0.8206 -0.5016
vn 0.5713 0.8206 0.0136
vn 0.5937 0.8047 0.0000
vn 0.5847 0.8112 0.0000
vn 0.5847 0.8112 0.0000
vn 0.5713 0.8206 -0.0136
vn 0.5713 0.8206 0.0136
vn 0.2739 0.8206 0.5016
vn 0.2969 0.8047 0.5142
vn 0.2924 0.8112 0.5064
vn -0.2975 0.8206 0.4880
vn -0.2969 0.8047 0.5142
vn -0.2924 0.8112 0.5064
vn 0.2924 0.8112 0.5064
vn 0.2975 0.8206 0.4880
vn 0.2739 0.8206 0.5016
vn -0.2924 0.8112 0.5064
vn -0.2969 0.8047 0.5142
vn -0.2739 0.8206 0.5016
vn -0.2739 0.8206 0.5016
vn -0.2975 0.8206 0.4880
vn -0.2924 0.8112 0.5064
vn -0.5847 0.8112 0.0000
vn -0.5937 0.8047 0.0000
vn -0.5713 0.8206 0.0136
vn -0.5713 0.8206 0.0136
vn -0.5713 0.8206 -0.0136
vn -0.5847 0.8112 0.0000
vn 0.0000 0.0000 -1.0000
vn 0.0000 0.0000 -1.0000
vn 0.0000 -0.0000 -1.0000
vn 0.0000 0.0000 -1.0000
vn 0.0000 0.0000 -1.0000
vn 0.0000 -0.0000 -1.0000
vn 0.0000 -0.0000 -1.0000
vn 0.0000 -0.0000 -1.0000
vn 0.0000 -0.0000 -1.0000
vn 0.0000 0.0000 -1.0000
vn 0.0000 -0.0000 -1.0000
vn 0.0000 -0.0000 -1.0000
vn 0.8660 0.0000 0.5000
vn 0.8660 0.0000 0.5000
vn 0.8660 0.0000 0.5000
vn 0.8660 0.0000 0.5000
vn 0.8660 0.0000 0.5000
vn 0.8660 0.0000 0.5000
vn 0.8660 0.0000 0.5000
vn 0.8660 0.0000 0.5000
vn 0.8660 0.0000 0.5000
vn 0.8660 0.0000 0.5000
vn 0.8660 0.0000 0.5000
vn 0.8660 0.0000 0.5000
vn 0.0000 0.0000 1.0000
vn 0.0000 0.0000 1.0000
vn 0.0000 0.0000 1.0000
vn 0.0000 0.0000 1.0000
vn 0.0000 0.0000 1.0000
vn 0.0000 0.0000 1.0000
vn 0.0000 0.0000 1.0000
vn 0.0000 0.0000 1.0000
vn 0.0000 0.0000 1.0000
vn 0.0000 0.0000 1.0000
vn 0.0000 0.0000 1.0000
vn 0.0000 0.0000 1.0000
vn -0.8660 0.0000 0.5000
vn -0.8660 0.0000 0.5000
vn -0.8660 0.0000 0.5000
vn -0.8660 0.0000 0.5000
vn -0.8660 0.0000 0.5000
vn -0.8660 0.0000 0.5000
vn -0.8660 0.0000 0.5000
vn -0.8660 0.0000 0.5000
vn -0.8660 0.0000 0.5000
vn -0.8660 0.0000 0.5000
vn -0.8660 0.0000 0.5000
vn -0.8660 0.0000 0.5000
vn 0.0000 -0.5736 -0.8191
vn 0.0000 -0.5736 -0.8191
vn 0.0000 -0.5736 -0.8191
vn 0.7094 -0.5736 -0.4096
vn 0.7094 -0.5736 -0.4096
vn 0.7094 -0.5736 -0.4096
vn -0.7094 -0.5736 -0.4096
vn -0.7094 -0.5736 -0.4096
vn -0.7094 -0.5736 -0.4096
vn -0.0923 -0.7071 -0.7011
vn -0.0923 -0.7071 -0.7011
vn -0.0923 -0.7071 -0.7011
vn 0.0923 -0.7071 -0.7011
vn 0.0923 -0.7071 -0.7011
vn 0.0923 -0.7071 -0.7011
vn 0.5610 -0.7071 -0.4305
vn 0.5610 -0.7071 -0.4305
vn 0.5610 -0.7071 -0.4305
vn 0.7094 -0.5736 0.4096
vn 0.7094 -0.5736 0.4096
vn 0.7094 -0.5736 0.4096
vn 0.6533 -0.7071 -0.2706
vn 0.6533 -0.7071 -0.2706
vn 0.6533 -0.7071 -0.2706
vn 0.0000 -0.5736 0.8192
vn 0.0000 -0.5736 0.8192
vn 0.0000 -0.5736 0.8192
vn -0.7094 -0.5736 0.4096
vn -0.7094 -0.5736 0.4096
vn -0.7094 -0.5736 0.4096
vn -0.5610 -0.7071 -0.4305
vn -0.5610 -0.7071 -0.4305
vn -0.5610 -0.7071 -0.4305
vn -0.6533 -0.7071 -0.2706
vn -0.6533 -0.7071 -0.2706
vn -0.6533 -0.7071 -0.2706
vn -0.2739 -0.8206 -0.5016
vn -0.2924 -0.8112 -0.5064
vn -0.2969 -0.8047 -0.5142
vn 0.2924 -0.8112 -0.5064
vn 0.2739 -0.8206 -0.5016
vn 0.2969 -0.8047 -0.5142
vn 0.2975 -0.8206 -0.4880
vn 0.2924 -0.8112 -0.5064
vn 0.2969 -0.8047 -0.5142
vn 0.5847 -0.8112 0.0000
vn 0.5713 -0.8206 -0.0136
vn 0.5937 -0.8047 0.0000
vn 0.5610 -0.7071 0.4305
vn 0.5610 -0.7071 0.4305
vn 0.5610 -0.7071 0.4305
vn 0.6533 -0.7071 0.2706
vn 0.6533 -0.7071 0.2706
vn 0.6533 -0.7071 0.2706
vn 0.0923 -0.7071 0.7011
vn 0.0923 -0.7071 0.7011
vn 0.0923 -0.7071 0.7011
vn -0.0923 -0.7071 0.7010
vn -0.0923 -0.7071 0.7010
vn -0.0923 -0.7071 0.7010
vn -0.5610 -0.7071 0.4305
vn -0.5610 -0.7071 0.4305
vn -0.5610 -0.7071 0.4305
vn -0.6533 -0.7071 0.2706
vn -0.6533 -0.7071 0.2706
vn -0.6533 -0.7071 0.2706
vn -0.5713 -0.8206 -0.0136
vn -0.5847 -0.8112 0.0000
vn -0.5937 -0.8047 0.0000
vn 0.2924 -0.8112 0.5064
vn 0.2975 -0.8206 0.4880
vn 0.2969 -0.8047 0.5142
vn -0.2924 -0.8112 -0.5064
vn -0.2975 -0.8206 -0.4880
vn -0.2969 -0.8047 -0.5142
vn -0.2739 -0.8206 -0.5016
vn -0.2975 -0.8206 -0.4880
vn -0.2924 -0.8112 -0.5064
vn -0.0000 -1.0000 0.0000
vn 0.0000 -1.0000 -0.0000
vn -0.0000 -1.0000 0.0000
vn -0.0000 -1.0000 0.0000
vn -0.0000 -1.0000 0.0000
vn -0.0000 -1.0000 0.0000
vn -0.0000 -1.0000 0.0000
vn -0.0000 -1.0000 0.0000
vn -0.0000 -1.0000 0.0000
vn -0.0000 -1.0000 0.0000
vn -0.0000 -1.0000 0.0000
vn -0.0000 -1.0000 0.0000
vn 0.2975 -0.8206 -0.4880
vn 0.2739 -0.8206 -0.5016
vn 0.2924 -0.8112 -0.5064
vn 0.5713 -0.8206 0.0136
vn 0.5847 -0.8112 0.0000
vn 0.5937 -0.8047 0.0000
vn 0.5847 -0.8112 0.0000
vn 0.5713 -0.8206 0.0136
vn 0.5713 -0.8206 -0.0136
vn 0.2739 -0.8206 0.5016
vn 0.2924 -0.8112 0.5064
vn 0.2969 -0.8047 0.5142
vn -0.2975 -0.8206 0.4880
vn -0.2924 -0.8112 0.5064
vn -0.2969 -0.8047 0.5142
vn 0.2924 -0.8112 0.5064
vn 0.2739 -0.8206 0.5016
vn 0.2975 -0.8206 0.4880
vn -0.2924 -0.8112 0.5064
vn -0.2739 -0.8206 0.5016
vn -0.2969 -0.8047 0.5142
vn -0.2739 -0.8206 0.5016
vn -0.2924 -0.8112 0.5064
vn -0.2975 -0.8206 0.4880
vn -0.5847 -0.8112 0.0000
vn -0.5713 -0.8206 0.0136
vn -0.5937 -0.8047 0.0000
vn -0.5713 -0.8206 0.0136
vn -0.5847 -0.8112 0.0000
vn -0.5713 -0.8206 -0.0136
vn 0.8660 0.0000 -0.5000
vn 0.8660 0.0000 -0.5000
vn 0.8660 -0.0000 -0.5000
vn 0.8660 -0.0000 -0.5000
vn 0.8660 0.0000 -0.5000
vn 0.8660 -0.0000 -0.5000
vn 0.8660 -0.0000 -0.5000
vn 0.8660 0.0000 -0.5000
vn 0.8660 -0.0000 -0.5000
vn 0.8660 -0.0000 -0.5000
vn 0.8660 -0.0000 -0.5000
vn 0.8660 -0.0000 -0.5000
vn -0.8660 0.0000 -0.5000
vn -0.8660 0.0000 -0.5000
vn -0.8660 -0.0000 -0.5000
vn -0.8660 0.0000 -0.5000
vn -0.8660 0.0000 -0.5000
vn -0.8660 -0.0000 -0.5000
vn -0.8660 -0.0000 -0.5000
vn -0.8660 -0.0000 -0.5000
vn -0.8660 -0.0000 -0.5000
vn -0.8660 0.0000 -0.5000
vn -0.8660 -0.0000 -0.5000
vn -0.8660 -0.0000 -0.5000
# 312 vertex normals

vt 0.2910 0.6813 0.0000
vt 0.8475 0.6813 0.0000
vt 0.7090 0.6813 0.0000
vt 0.5000 0.6813 0.0000
vt 0.1525 0.6813 0.0000
vt 0.5000 0.6813 0.0000
vt 0.6438 0.8272 0.0000
vt 0.3562 0.8272 0.0000
vt 0.8475 0.6813 0.0000
vt 0.1525 0.6813 0.0000
vt 0.6438 0.8272 0.0000
vt 0.3562 0.8272 0.0000
vt 0.5000 0.8272 0.0000
vt 0.7090 0.6813 0.0000
vt 0.2910 0.6813 0.0000
vt 0.5000 0.8272 0.0000
vt 0.5000 0.7274 0.0000
vt 0.5000 0.7875 0.0000
vt 0.2910 0.8475 0.0000
vt 0.7090 0.8475 0.0000
vt 0.7052 0.6137 0.0000
vt 0.7594 0.6438 0.0000
vt 0.9181 0.5000 0.0000
vt 0.2406 0.6438 0.0000
vt 0.2948 0.6137 0.0000
vt 0.0819 0.5000 0.0000
vt 0.3522 0.7457 0.0000
vt 0.6478 0.7457 0.0000
vt 0.7956 0.5000 0.0000
vt 0.7090 0.1525 0.0000
vt 0.7594 0.3562 0.0000
vt 0.7052 0.3863 0.0000
vt 0.5000 0.2726 0.0000
vt 0.5000 0.2125 0.0000
vt 0.2910 0.1525 0.0000
vt 0.2948 0.3863 0.0000
vt 0.2406 0.3562 0.0000
vt 0.2044 0.5000 0.0000
vt 0.6478 0.2543 0.0000
vt 0.3522 0.2543 0.0000
vt 0.2910 0.6682 0.0000
vt 0.7090 0.6682 0.0000
vt 0.1525 0.6682 0.0000
vt 0.2910 0.6682 0.0000
vt 0.5000 0.6682 0.0000
vt 0.5000 0.6682 0.0000
vt 0.7090 0.6682 0.0000
vt 0.1525 0.6682 0.0000
vt 0.7090 0.6813 0.0000
vt 0.2910 0.6813 0.0000
vt 0.5000 0.8272 0.0000
vt 0.5000 0.6813 0.0000
vt 0.8475 0.6813 0.0000
vt 0.6438 0.8272 0.0000
vt 0.6438 0.8272 0.0000
vt 0.8475 0.6813 0.0000
vt 0.5000 0.6813 0.0000
vt 0.5000 0.7274 0.0000
vt 0.5000 0.7875 0.0000
vt 0.2910 0.8475 0.0000
vt 0.7090 0.8475 0.0000
vt 0.7052 0.6137 0.0000
vt 0.7594 0.6438 0.0000
vt 0.1525 0.6813 0.0000
vt 0.3562 0.8272 0.0000
vt 0.9181 0.5000 0.0000
vt 0.2910 0.6813 0.0000
vt 0.7090 0.6813 0.0000
vt 0.5000 0.8272 0.0000
vt 0.1525 0.6813 0.0000
vt 0.3562 0.8272 0.0000
vt 0.2406 0.6438 0.0000
vt 0.2948 0.6137 0.0000
vt 0.0819 0.5000 0.0000
vt 0.3522 0.7457 0.0000
vt 0.6478 0.7457 0.0000
vt 0.7956 0.5000 0.0000
vt 0.7090 0.1525 0.0000
vt 0.7594 0.3562 0.0000
vt 0.7052 0.3863 0.0000
vt 0.5000 0.2726 0.0000
vt 0.5000 0.2125 0.0000
vt 0.2910 0.1525 0.0000
vt 0.2948 0.3863 0.0000
vt 0.2406 0.3562 0.0000
vt 0.2044 0.5000 0.0000
vt 0.6478 0.2543 0.0000
vt 0.3522 0.2543 0.0000
vt 0.8475 0.6682 0.0000
vt 0.5000 0.6682 0.0000
vt 0.5000 0.6682 0.0000
vt 0.8475 0.6682 0.0000
# 92 texture coords

g hex
f 31/3/1 29/1/2 50/13/3 
f 3/4/4 35/2/5 58/7/6 
f 9/11/7 25/9/8 48/6/9 
f 70/17/10 5/18/11 28/19/12 
f 32/20/13 49/18/14 69/17/15 
f 74/21/16 7/22/17 34/20/18 
f 6/5/19 40/4/20 76/8/21 
f 37/23/22 57/22/23 73/21/24 
f 59/15/25 54/14/26 78/16/27 
f 44/6/28 63/10/29 14/12/30 
f 26/19/31 66/24/32 15/25/33 
f 81/25/34 65/24/35 47/26/36 
f 10/17/37 27/19/38 16/27/39 
f 17/28/40 33/20/41 68/17/42 
f 11/21/43 33/20/44 17/28/45 
f 18/29/46 38/23/47 72/21/48 
f 51/30/49 75/31/50 87/32/51 
f 88/32/52 12/31/53 39/23/54 
f 92/33/55 13/34/56 53/30/57 
f 60/35/58 77/34/59 91/33/60 
f 93/36/61 79/37/62 62/35/63 
f 45/26/64 80/37/65 21/36/66 
f 82/25/67 46/26/68 22/38/69 
f 23/39/70 52/30/71 86/32/72 
f 16/27/73 27/19/74 84/25/75 
f 10/17/76 16/27/77 84/25/78 
f 95/36/79 89/33/80 85/32/81 
f 71/21/82 67/17/83 83/25/84 
f 85/32/85 71/21/86 83/25/87 
f 95/36/88 85/32/89 83/25/90 
f 11/21/91 17/28/92 68/17/93 
f 19/32/94 38/23/95 18/29/96 
f 18/29/97 72/21/98 19/32/99 
f 20/33/100 52/30/101 23/39/102 
f 94/36/103 61/35/104 24/40/105 
f 23/39/106 86/32/107 20/33/108 
f 24/40/109 61/35/110 90/33/111 
f 90/33/112 94/36/113 24/40/114 
f 22/38/115 46/26/116 96/36/117 
f 96/36/118 82/25/119 22/38/120 
f 30/1/121 2/3/122 98/42/123 
f 97/41/124 30/1/125 98/42/126 
f 98/42/127 188/49/128 187/50/129 
f 97/41/130 98/42/131 187/50/132 
f 41/4/133 56/5/134 204/43/135 
f 100/45/136 41/4/137 204/43/138 
f 204/43/139 194/64/140 193/52/141 
f 100/45/142 204/43/143 193/52/144 
f 55/14/145 8/15/146 99/44/147 
f 102/47/148 55/14/149 99/44/150 
f 99/44/151 196/67/152 195/68/153 
f 102/47/154 99/44/155 195/68/156 
f 64/10/157 43/6/158 203/46/159 
f 201/48/160 64/10/161 203/46/162 
f 203/46/163 198/57/164 197/70/165 
f 201/48/166 203/46/167 197/70/168 
f 103/49/169 105/51/170 104/50/171 
f 106/52/172 108/54/173 107/53/174 
f 109/55/175 111/57/176 110/56/177 
f 112/58/178 114/60/179 113/59/180 
f 115/61/181 117/58/182 116/59/183 
f 118/62/184 120/61/185 119/63/186 
f 121/64/187 123/65/188 122/52/189 
f 124/66/190 126/62/191 125/63/192 
f 127/67/193 129/69/194 128/68/195 
f 130/57/196 132/71/197 131/70/198 
f 133/60/199 135/73/200 134/72/201 
f 136/73/202 138/74/203 137/72/204 
f 139/58/205 141/75/206 140/60/207 
f 142/76/208 144/58/209 143/61/210 
f 145/62/211 142/76/212 143/61/213 
f 146/77/214 148/62/215 147/66/216 
f 149/78/217 151/80/218 150/79/219 
f 152/80/220 154/66/221 153/79/222 
f 155/81/223 157/78/224 156/82/225 
f 158/83/226 160/81/227 159/82/228 
f 161/84/229 163/83/230 162/85/231 
f 164/74/232 166/84/233 165/85/234 
f 167/73/235 169/86/236 168/74/237 
f 170/87/238 172/80/239 171/78/240 
f 141/75/241 173/73/242 140/60/243 
f 139/58/244 173/73/245 141/75/246 
f 179/73/247 178/58/248 177/62/249 
f 179/73/250 177/62/251 176/80/252 
f 174/84/253 179/73/254 176/80/255 
f 174/84/256 176/80/257 175/81/258 
f 145/62/259 144/58/260 142/76/261 
f 180/80/262 146/77/263 147/66/264 
f 146/77/265 180/80/266 148/62/267 
f 181/81/268 170/87/269 171/78/270 
f 182/84/271 184/88/272 183/83/273 
f 170/87/274 181/81/275 172/80/276 
f 184/88/277 185/81/278 183/83/279 
f 185/81/280 184/88/281 182/84/282 
f 169/86/283 186/84/284 168/74/285 
f 186/84/286 169/86/287 167/73/288 
f 36/2/289 42/4/290 202/90/291 
f 200/89/292 36/2/293 202/90/294 
f 202/90/295 190/52/296 189/53/297 
f 200/89/298 202/90/299 189/53/300 
f 4/6/301 1/9/302 199/92/303 
f 101/91/304 4/6/305 199/92/306 
f 199/92/307 192/56/308 191/57/309 
f 101/91/310 199/92/311 191/57/312 
# 104 faces

