# 3ds Max Wavefront OBJ Exporter v0.97b - (c)2007 guruware
# File Created: 05.05.2019 11:43:46

#
# object raw
#

v  0.37331411 -0.06404750 0.19952090
v  0.04230552 -0.11804531 -0.39589921
v  0.32613888 0.05758720 -0.22325984
v  0.28980795 0.11672380 0.18179473
v  0.35614753 0.05833731 -0.05204849
v  0.08921565 0.23317717 0.27606231
v  -0.36261341 0.02758563 0.19053543
v  0.18723015 0.06376917 -0.33092922
v  0.31086436 0.06443771 -0.23665163
v  -0.21684813 0.22772826 0.25153667
v  -0.10536412 0.32682925 0.17057377
v  -0.34927475 0.09396038 0.18402679
v  -0.10536411 0.31415761 0.04134813
v  -0.36896184 0.02747450 0.15425546
v  -0.38088787 0.05108337 0.05630734
v  0.16389824 -0.23841445 -0.27273124
v  0.29009664 -0.23841439 -0.05975548
v  0.18338235 -0.23841433 0.21661901
v  0.03882151 -0.23841451 -0.28481516
v  0.26665464 -0.23841445 -0.19423439
v  -0.17947875 -0.23841447 -0.09937185
v  -0.18644345 -0.23841445 0.07190812
v  0.04001435 -0.11232928 -0.39908749
v  0.09556763 0.01574469 -0.38886964
v  0.07623740 0.08785485 -0.35723537
v  -0.16422072 0.23497181 -0.18989380
v  -0.36794987 0.04392989 -0.14332585
v  -0.33188573 -0.00753981 -0.17729260
v  0.00157624 0.08861195 0.40141317
v  0.10292121 0.00640438 0.36385131
v  -0.28823340 -0.05423822 0.26793990
v  -0.07890656 0.09117482 0.39126518
v  0.17874159 -0.23841435 0.21890828
v  -0.16942081 -0.23841441 0.16794254
v  0.37331411 -0.06404750 0.19952090
v  0.37331411 -0.06404750 0.19952090
v  0.37331411 -0.06404750 0.19952090
v  0.37331411 -0.06404750 0.19952090
v  0.04230552 -0.11804531 -0.39589921
v  0.04230552 -0.11804531 -0.39589921
v  0.32613888 0.05758720 -0.22325984
v  0.32613888 0.05758720 -0.22325984
v  0.28980795 0.11672380 0.18179473
v  0.28980795 0.11672380 0.18179473
v  0.35614753 0.05833731 -0.05204849
v  0.35614753 0.05833731 -0.05204849
v  0.08921565 0.23317717 0.27606231
v  0.08921565 0.23317717 0.27606231
v  -0.36261341 0.02758563 0.19053543
v  -0.36261341 0.02758563 0.19053543
v  0.18723015 0.06376917 -0.33092922
v  0.18723015 0.06376917 -0.33092922
v  0.31086436 0.06443771 -0.23665163
v  0.31086436 0.06443771 -0.23665163
v  -0.21684813 0.22772826 0.25153667
v  -0.21684813 0.22772826 0.25153667
v  -0.10536412 0.32682925 0.17057377
v  -0.10536412 0.32682925 0.17057377
v  -0.34927475 0.09396038 0.18402679
v  -0.34927475 0.09396038 0.18402679
v  -0.10536411 0.31415761 0.04134813
v  -0.10536411 0.31415761 0.04134813
v  -0.36896184 0.02747450 0.15425546
v  -0.36896184 0.02747450 0.15425546
v  -0.38088787 0.05108337 0.05630734
v  -0.38088787 0.05108337 0.05630734
v  0.16389824 -0.23841445 -0.27273124
v  0.16389824 -0.23841445 -0.27273124
v  0.29009664 -0.23841439 -0.05975548
v  0.29009664 -0.23841439 -0.05975548
v  0.18338235 -0.23841433 0.21661901
v  0.18338235 -0.23841433 0.21661901
v  0.03882151 -0.23841451 -0.28481516
v  0.03882151 -0.23841451 -0.28481516
v  0.26665464 -0.23841445 -0.19423439
v  0.26665464 -0.23841445 -0.19423439
v  -0.17947875 -0.23841447 -0.09937185
v  -0.17947875 -0.23841447 -0.09937185
v  -0.18644345 -0.23841445 0.07190812
v  -0.18644345 -0.23841445 0.07190812
v  0.04001435 -0.11232928 -0.39908749
v  0.04001435 -0.11232928 -0.39908749
v  0.09556763 0.01574469 -0.38886964
v  0.09556763 0.01574469 -0.38886964
v  0.07623740 0.08785485 -0.35723537
v  0.07623740 0.08785485 -0.35723537
v  -0.16422072 0.23497181 -0.18989380
v  -0.16422072 0.23497181 -0.18989380
v  -0.36794987 0.04392989 -0.14332585
v  -0.36794987 0.04392989 -0.14332585
v  -0.33188573 -0.00753981 -0.17729260
v  -0.33188573 -0.00753981 -0.17729260
v  0.00157624 0.08861195 0.40141317
v  0.00157624 0.08861195 0.40141317
v  0.10292121 0.00640438 0.36385131
v  0.10292121 0.00640438 0.36385131
v  -0.28823340 -0.05423822 0.26793990
v  -0.28823340 -0.05423822 0.26793990
v  -0.07890656 0.09117482 0.39126518
v  -0.07890656 0.09117482 0.39126518
v  0.17874159 -0.23841435 0.21890828
v  0.17874159 -0.23841435 0.21890828
v  -0.16942081 -0.23841441 0.16794254
v  -0.16942081 -0.23841441 0.16794254
# 104 vertices

vn 0.96317244 -0.21002211 -0.16789754
vn 0.96317244 -0.21002209 -0.16789752
vn 0.96317244 -0.21002206 -0.16789752
vn 0.96317244 -0.21002206 -0.16789755
vn 0.96317244 -0.21002211 -0.16789754
vn 0.96317244 -0.21002206 -0.16789752
vn 0.96317244 -0.21002206 -0.16789755
vn 0.96317244 -0.21002206 -0.16789752
vn 0.96317250 -0.21002193 -0.16789751
vn 0.07072239 -0.67760098 -0.73202133
vn 0.07072239 -0.67760098 -0.73202133
vn 0.07072239 -0.67760098 -0.73202133
vn 0.89245045 0.42664281 0.14665648
vn 0.89245045 0.42664281 0.14665647
vn 0.89245045 0.42664281 0.14665648
vn -0.96317238 0.21002261 0.16789709
vn -0.96317238 0.21002255 0.16789718
vn -0.96317238 0.21002261 0.16789709
vn -0.96317238 0.21002261 0.16789709
vn -0.96317238 0.21002270 0.16789694
vn -0.96317238 0.21002261 0.16789709
vn 0.46961245 0.87865841 -0.08615978
vn 0.46961254 0.87865841 -0.08615977
vn 0.46961239 0.87865847 -0.08615980
vn 0.46961239 0.87865847 -0.08615980
vn 0.46961138 0.87865901 -0.08615953
vn 0.46961206 0.87865865 -0.08615972
vn 0.46961239 0.87865847 -0.08615980
vn 0.46961206 0.87865865 -0.08615972
vn 0.46961242 0.87865847 -0.08615977
vn 0.46961245 0.87865841 -0.08615978
vn 0.46961239 0.87865847 -0.08615980
vn 0.46961242 0.87865847 -0.08615977
vn 0.46961236 0.87865847 -0.08615971
vn 0.46961245 0.87865841 -0.08615978
vn 0.46961242 0.87865847 -0.08615977
vn 0.28048378 0.88395995 -0.37409046
vn 0.28048369 0.88395995 -0.37409043
vn 0.28048378 0.88395995 -0.37409049
vn 0.28048378 0.88395995 -0.37409046
vn 0.28048378 0.88395995 -0.37409049
vn 0.28048381 0.88395995 -0.37409046
vn 0.28048381 0.88395995 -0.37409043
vn 0.28048378 0.88395995 -0.37409046
vn 0.28048381 0.88395995 -0.37409046
vn -0.69085783 0.71953958 -0.07055704
vn -0.69085795 0.71953940 -0.07055707
vn -0.69085789 0.71953952 -0.07055709
vn -0.69085789 0.71953952 -0.07055709
vn -0.69085836 0.71953905 -0.07055703
vn -0.69085789 0.71953952 -0.07055709
vn -0.69085783 0.71953958 -0.07055704
vn -0.69085789 0.71953952 -0.07055709
vn -0.69085789 0.71953952 -0.07055709
vn -0.69085783 0.71953958 -0.07055704
vn -0.69085789 0.71953952 -0.07055709
vn -0.69085783 0.71953958 -0.07055701
vn -0.69085765 0.71953970 -0.07055694
vn -0.69085783 0.71953958 -0.07055704
vn -0.69085783 0.71953958 -0.07055701
vn 0.66599530 -0.70022941 0.25715563
vn 0.66599530 -0.70022941 0.25715563
vn 0.66599530 -0.70022941 0.25715563
vn -0.82881874 -0.55850124 -0.03370200
vn -0.82881922 -0.55850053 -0.03370200
vn -0.82881880 -0.55850118 -0.03370203
vn -0.82881874 -0.55850124 -0.03370200
vn -0.82881880 -0.55850118 -0.03370203
vn -0.82881868 -0.55850136 -0.03370202
vn -0.82881874 -0.55850124 -0.03370200
vn -0.82881868 -0.55850136 -0.03370202
vn -0.82881862 -0.55850142 -0.03370200
vn -0.82881862 -0.55850142 -0.03370200
vn -0.82881874 -0.55850124 -0.03370200
vn -0.82881862 -0.55850142 -0.03370200
vn 0.00000132 -1.00000000 0.00000074
vn 0.00000011 -1.00000000 0.00000045
vn 0.00000010 -1.00000000 0.00000030
vn 0.00000010 -1.00000000 0.00000030
vn -0.00000014 -1.00000000 0.00000008
vn 0.00000017 -1.00000000 0.00000014
vn 0.00000132 -1.00000000 0.00000074
vn 0.00000010 -1.00000000 0.00000030
vn 0.00000017 -1.00000000 0.00000014
vn 0.00000017 -1.00000000 0.00000014
vn 0.00000055 -1.00000000 -0.00000071
vn 0.00000025 -1.00000000 0.00000018
vn 0.00000132 -1.00000000 0.00000074
vn 0.00000017 -1.00000000 0.00000014
vn 0.00000025 -1.00000000 0.00000018
vn 0.00000132 -1.00000000 0.00000074
vn 0.00000025 -1.00000000 0.00000018
vn 0.00000051 -1.00000000 0.00000036
vn 0.00000410 -1.00000000 0.00000180
vn 0.00000132 -1.00000000 0.00000074
vn 0.00000051 -1.00000000 0.00000036
vn 0.29717693 0.44927138 -0.84252071
vn 0.29717693 0.44927138 -0.84252071
vn 0.29717690 0.44927135 -0.84252071
vn 0.59527332 -0.19603707 -0.77924263
vn 0.59527385 -0.19603440 -0.77924293
vn 0.59527338 -0.19603662 -0.77924275
vn 0.59527338 -0.19603662 -0.77924275
vn 0.59527314 -0.19603691 -0.77924287
vn 0.59527326 -0.19603699 -0.77924275
vn 0.59527338 -0.19603662 -0.77924275
vn 0.59527326 -0.19603699 -0.77924275
vn 0.59527409 -0.19603801 -0.77924180
vn 0.59527332 -0.19603707 -0.77924263
vn 0.59527338 -0.19603662 -0.77924275
vn 0.59527409 -0.19603801 -0.77924180
vn 0.59527332 -0.19603707 -0.77924263
vn 0.59527409 -0.19603801 -0.77924180
vn 0.59527469 -0.19603866 -0.77924120
vn 0.59527296 -0.19603662 -0.77924305
vn 0.59527332 -0.19603707 -0.77924263
vn 0.59527469 -0.19603866 -0.77924120
vn -0.53422374 -0.56490612 -0.62887681
vn -0.53422415 -0.56490427 -0.62887812
vn -0.53422409 -0.56490439 -0.62887812
vn -0.53422374 -0.56490612 -0.62887681
vn -0.53422409 -0.56490439 -0.62887812
vn -0.53422403 -0.56490445 -0.62887806
vn -0.53422344 -0.56490797 -0.62887537
vn -0.53422374 -0.56490612 -0.62887681
vn -0.53422403 -0.56490445 -0.62887806
vn -0.43973690 0.25934076 -0.85986847
vn -0.43973702 0.25934076 -0.85986841
vn -0.43973705 0.25934073 -0.85986841
vn -0.43973690 0.25934076 -0.85986847
vn -0.43973705 0.25934073 -0.85986841
vn -0.43973702 0.25934073 -0.85986847
vn -0.43973690 0.25934076 -0.85986847
vn -0.43973702 0.25934073 -0.85986847
vn -0.43973681 0.25934079 -0.85986853
vn -0.43973655 0.25934082 -0.85986865
vn -0.43973690 0.25934076 -0.85986847
vn -0.43973681 0.25934079 -0.85986853
vn -0.07072211 0.67760110 0.73202127
vn -0.07072210 0.67760116 0.73202121
vn -0.07072215 0.67760104 0.73202127
vn -0.07072223 0.67760098 0.73202139
vn -0.07072211 0.67760110 0.73202127
vn -0.07072215 0.67760104 0.73202127
vn -0.07072223 0.67760098 0.73202139
vn -0.07072215 0.67760104 0.73202127
vn -0.07072245 0.67760080 0.73202151
vn 0.55156457 0.32991591 0.76611489
vn 0.55156457 0.32991588 0.76611489
vn 0.55156457 0.32991594 0.76611483
vn 0.55156457 0.32991597 0.76611483
vn 0.55156457 0.32991591 0.76611489
vn 0.55156457 0.32991594 0.76611483
vn 0.55156463 0.32991621 0.76611471
vn 0.55156457 0.32991597 0.76611483
vn 0.55156457 0.32991594 0.76611483
vn 0.41160840 -0.36653030 0.83440644
vn 0.41160959 -0.36653173 0.83440518
vn 0.41160768 -0.36652941 0.83440715
vn 0.41160768 -0.36652941 0.83440715
vn 0.41160765 -0.36652938 0.83440715
vn 0.41160840 -0.36653030 0.83440644
vn -0.59527302 0.19603707 0.77924293
vn -0.59527242 0.19603753 0.77924323
vn -0.59527308 0.19603699 0.77924287
vn -0.59527320 0.19603692 0.77924281
vn -0.59527302 0.19603707 0.77924293
vn -0.59527308 0.19603699 0.77924287
vn -0.59527320 0.19603691 0.77924281
vn -0.59527320 0.19603692 0.77924281
vn -0.59527308 0.19603699 0.77924287
vn -0.79530334 -0.58959264 0.14097181
vn -0.79530329 -0.58959264 0.14097224
vn -0.79530329 -0.58959264 0.14097232
vn -0.79530329 -0.58959270 0.14097205
vn -0.79530334 -0.58959264 0.14097181
vn -0.79530329 -0.58959264 0.14097232
vn -0.79530317 -0.58959270 0.14097278
vn -0.79530329 -0.58959270 0.14097205
vn -0.79530329 -0.58959264 0.14097232
vn -0.12251277 -0.53343493 0.83692157
vn -0.12251266 -0.53343487 0.83692169
vn -0.12251274 -0.53343505 0.83692157
vn -0.12251277 -0.53343493 0.83692157
vn -0.12251274 -0.53343505 0.83692157
vn -0.12251278 -0.53343505 0.83692151
vn -0.12251277 -0.53343493 0.83692157
vn -0.12251278 -0.53343505 0.83692151
vn -0.12251286 -0.53343487 0.83692163
vn -0.12251314 -0.53343451 0.83692181
vn -0.12251277 -0.53343493 0.83692157
vn -0.12251286 -0.53343487 0.83692163
# 192 vertex normals

vt 0.59202188 0.96803463 0.00000000
vt 0.64886659 0.52521098 0.00000000
vt 0.55632466 0.33480909 0.00000000
vt 0.56900537 0.24458136 0.00000000
vt 0.77034271 0.25301835 0.00000000
vt 0.75470173 0.36796230 0.00000000
vt 0.45213115 0.21398382 0.00000000
vt 0.89289790 0.76500297 0.00000000
vt 0.98907542 0.66784775 0.00000000
vt 0.07630406 0.32856002 0.00000000
vt 0.37586388 0.67553723 0.00000000
vt 0.01066804 0.18429276 0.00000000
vt 0.08802810 0.04570868 0.00000000
vt 0.28612146 0.67804694 0.00000000
vt 0.25838763 0.01000002 0.00000000
vt 0.78070682 0.92293882 0.00000000
vt 0.80963761 0.79533768 0.00000000
vt 0.33109555 0.68245709 0.00000000
vt 0.30204293 0.76899707 0.00000000
vt 0.98907554 0.76778674 0.00000000
vt 0.37919337 0.03998908 0.00000000
vt 0.76030844 0.33994064 0.00000000
vt 0.38799685 0.05156936 0.00000000
vt 0.96831620 0.84781027 0.00000000
vt 0.16861629 0.33501515 0.00000000
vt 0.40535000 0.20566235 0.00000000
vt 0.41868907 0.28682107 0.00000000
vt 0.28622800 0.45136264 0.00000000
vt 0.28604612 0.70262945 0.00000000
vt 0.65554768 0.22694500 0.00000000
vt 0.77768171 0.25988013 0.00000000
vt 0.01219123 0.91900063 0.00000000
vt 0.73300153 0.80553687 0.00000000
vt 0.78913122 0.96803463 0.00000000
vt 0.77560735 0.39173424 0.00000000
vt 0.98290581 0.54975998 0.00000000
vt 0.81232232 0.32599750 0.00000000
vt 0.45674005 0.21419539 0.00000000
vt 0.01066804 0.91591299 0.00000000
vt 0.94511646 0.57469857 0.00000000
vt 0.77560735 0.51748884 0.00000000
vt 0.55379361 0.26381072 0.00000000
vt 0.04457679 0.68427289 0.00000000
vt 0.76030844 0.55178869 0.00000000
vt 0.55379361 0.45438141 0.00000000
vt 0.76543528 0.54035795 0.00000000
vt 0.98694801 0.58487296 0.00000000
vt 0.89259219 0.75447917 0.00000000
vt 0.50264716 0.22616601 0.00000000
vt 0.40695262 0.19525300 0.00000000
vt 0.36254004 0.09068467 0.00000000
vt 0.36763966 0.49809751 0.00000000
vt 0.97710311 0.96291983 0.00000000
vt 0.82689196 0.96478200 0.00000000
vt 0.20567995 0.57748580 0.00000000
vt 0.02596682 0.47623873 0.00000000
vt 0.16301085 0.42306718 0.00000000
vt 0.56980222 0.45366475 0.00000000
vt 0.04491890 0.67588222 0.00000000
vt 0.04246411 0.67351162 0.00000000
vt 0.10847066 0.67294741 0.00000000
vt 0.22242700 0.67758107 0.00000000
vt 0.42883486 0.53020215 0.00000000
vt 0.91253650 0.32836086 0.00000000
vt 0.87481666 0.35479075 0.00000000
vt 0.73481059 0.20548677 0.00000000
vt 0.75559735 0.69263935 0.00000000
vt 0.72803414 0.73567688 0.00000000
vt 0.64473653 0.74110496 0.00000000
vt 0.48570922 0.94461536 0.00000000
vt 0.34580660 0.82282114 0.00000000
vt 0.33776686 0.90603745 0.00000000
vt 0.28554118 0.97440362 0.00000000
vt 0.19606924 0.99000001 0.00000000
vt 0.25034899 0.67027760 0.00000000
vt 0.35838407 0.50976026 0.00000000
vt 0.89686978 0.75276458 0.00000000
vt 0.98694801 0.66177070 0.00000000
vt 0.43021432 0.01000002 0.00000000
vt 0.63242978 0.51290977 0.00000000
vt 0.30165300 0.58580160 0.00000000
vt 0.56026953 0.69120979 0.00000000
vt 0.32924798 0.46409220 0.00000000
vt 0.98815781 0.40318841 0.00000000
vt 0.84262592 0.02926587 0.00000000
vt 0.34375590 0.11199191 0.00000000
vt 0.12285911 0.39739683 0.00000000
vt 0.52874273 0.01688984 0.00000000
vt 0.70191562 0.07409406 0.00000000
vt 0.97082418 0.33127448 0.00000000
vt 0.63234460 0.54067826 0.00000000
vt 0.76080871 0.64431024 0.00000000
vt 0.42883480 0.60370636 0.00000000
vt 0.79674804 0.71290600 0.00000000
vt 0.89547235 0.01509963 0.00000000
vt 0.98933196 0.05581212 0.00000000
vt 0.75383323 0.55055714 0.00000000
vt 0.60732061 0.55237341 0.00000000
vt 0.60298353 0.72990811 0.00000000
vt 0.21007822 0.58511412 0.00000000
vt 0.46721277 0.68314660 0.00000000
vt 0.03106641 0.48426232 0.00000000
vt 0.30644450 0.77150130 0.00000000
vt 0.63846099 0.90886140 0.00000000
# 104 texture coords

o raw
g raw
f 70/3/1 20/4/2 3/5/3 
f 37/2/4 70/3/5 3/5/6 
f 37/2/7 3/5/8 5/6/9 
f 2/8/10 68/9/11 19/20/12 
f 4/11/13 38/75/14 46/76/15 
f 60/18/16 66/19/17 14/29/18 
f 14/29/19 7/14/20 60/18/21 
f 6/12/22 43/13/23 45/15/24 
f 45/15/25 42/21/26 54/23/27 
f 45/15/28 54/23/29 62/25/30 
f 6/12/31 45/15/32 62/25/33 
f 11/10/34 6/12/35 62/25/36 
f 53/86/37 52/26/38 86/27/39 
f 53/86/40 86/27/41 26/28/42 
f 13/87/43 53/86/44 26/28/45 
f 61/88/46 88/89/47 27/30/48 
f 27/30/49 15/49/50 59/50/51 
f 61/88/52 27/30/53 59/50/54 
f 61/88/55 59/50/56 10/51/57 
f 57/79/58 61/88/59 10/51/60 
f 17/1/61 36/33/62 72/34/63 
f 63/90/64 65/84/65 90/36/66 
f 63/90/67 90/36/68 28/40/69 
f 63/90/70 28/40/71 77/41/72 
f 22/35/73 63/90/74 77/41/75 
f 102/39/76 34/43/77 79/61/78 
f 79/61/79 21/62/80 73/71/81 
f 102/39/82 79/61/83 73/71/84 
f 73/71/85 67/72/86 75/73/87 
f 102/39/88 73/71/89 75/73/90 
f 102/39/91 75/73/92 69/74/93 
f 71/32/94 102/39/95 69/74/96 
f 25/22/97 51/31/98 84/37/99 
f 8/92/100 9/44/101 41/46/102 
f 41/46/103 76/47/104 16/78/105 
f 41/46/106 16/78/107 40/77/108 
f 8/92/109 41/46/110 40/77/111 
f 8/92/112 40/77/113 82/48/114 
f 24/94/115 8/92/116 82/48/117 
f 39/38/118 74/42/119 78/45/120 
f 39/38/121 78/45/122 92/52/123 
f 23/7/124 39/38/125 92/52/126 
f 81/96/127 91/64/128 89/65/129 
f 81/96/130 89/65/131 87/66/132 
f 81/96/133 87/66/134 85/85/135 
f 83/95/136 81/96/137 85/85/138 
f 47/17/139 58/24/140 56/53/141 
f 29/16/142 47/17/143 56/53/144 
f 29/16/145 56/53/146 100/54/147 
f 44/57/148 48/83/149 94/81/150 
f 1/56/151 44/57/152 94/81/153 
f 30/55/154 1/56/155 94/81/156 
f 33/59/157 18/60/158 35/102/159 
f 35/102/160 96/100/161 33/59/162 
f 12/67/163 50/68/164 98/69/165 
f 55/97/166 12/67/167 98/69/168 
f 32/98/169 55/97/170 98/69/171 
f 64/91/172 80/93/173 104/63/174 
f 49/80/175 64/91/176 104/63/177 
f 31/58/178 49/80/179 104/63/180 
f 97/104/181 103/70/182 101/103/183 
f 97/104/184 101/103/185 95/101/186 
f 97/104/187 95/101/188 93/82/189 
f 99/99/190 97/104/191 93/82/192 
# 64 faces

