# 3ds Max Wavefront OBJ Exporter v0.97b - (c)2007 guruware
# File Created: 12.03.2017 15:02:27

mtllib Star_MSH.mtl

#
# object Star_BASE
#

v  0.3750 -0.0313 -0.0000
v  0.3465 -0.0313 -0.1435
v  0.2652 -0.0313 -0.2652
v  0.1435 -0.0313 -0.3465
v  -0.0000 -0.0313 -0.3750
v  -0.1435 -0.0313 -0.3465
v  -0.2652 -0.0313 -0.2652
v  -0.3465 -0.0313 -0.1435
v  -0.3750 -0.0313 -0.0000
v  -0.3465 -0.0313 0.1435
v  -0.2652 -0.0313 0.2652
v  -0.1435 -0.0313 0.3465
v  0.0000 -0.0313 0.3750
v  0.1435 -0.0313 0.3465
v  0.2652 -0.0313 0.2652
v  0.3465 -0.0313 0.1435
v  0.3750 0.0313 -0.0000
v  0.3465 0.0313 -0.1435
v  0.2652 0.0313 -0.2652
v  0.1435 0.0313 -0.3465
v  -0.0000 0.0313 -0.3750
v  -0.1435 0.0313 -0.3465
v  -0.2652 0.0313 -0.2652
v  -0.3465 0.0313 -0.1435
v  -0.3750 0.0313 -0.0000
v  -0.3465 0.0313 0.1435
v  -0.2652 0.0313 0.2652
v  -0.1435 0.0313 0.3465
v  0.0000 0.0313 0.3750
v  0.1435 0.0313 0.3465
v  0.2652 0.0313 0.2652
v  0.3465 0.0313 0.1435
v  0.3750 -0.0313 -0.0000
v  0.3465 -0.0313 -0.1435
v  0.2652 -0.0313 -0.2652
v  0.1435 -0.0313 -0.3465
v  -0.0000 -0.0313 -0.3750
v  -0.1435 -0.0313 -0.3465
v  -0.2652 -0.0313 -0.2652
v  -0.3465 -0.0313 -0.1435
v  -0.3750 -0.0313 -0.0000
v  -0.3465 -0.0313 0.1435
v  -0.2652 -0.0313 0.2652
v  -0.1435 -0.0313 0.3465
v  0.0000 -0.0313 0.3750
v  0.1435 -0.0313 0.3465
v  0.2652 -0.0313 0.2652
v  0.3465 -0.0313 0.1435
v  0.3750 0.0313 -0.0000
v  0.3465 0.0313 -0.1435
v  0.2652 0.0313 -0.2652
v  0.1435 0.0313 -0.3465
v  -0.0000 0.0313 -0.3750
v  -0.1435 0.0313 -0.3465
v  -0.2652 0.0313 -0.2652
v  -0.3465 0.0313 -0.1435
v  -0.3750 0.0313 -0.0000
v  -0.3465 0.0313 0.1435
v  -0.2652 0.0313 0.2652
v  -0.1435 0.0313 0.3465
v  0.0000 0.0313 0.3750
v  0.1435 0.0313 0.3465
v  0.2652 0.0313 0.2652
v  0.3465 0.0313 0.1435
# 64 vertices

vn 1.0000 0.0000 -0.0000
vn 0.9239 0.0000 -0.3827
vn 0.9239 0.0000 -0.3827
vn 0.9239 0.0000 -0.3827
vn 1.0000 0.0000 -0.0000
vn 1.0000 0.0000 -0.0000
vn 0.9239 0.0000 -0.3827
vn 0.7071 0.0000 -0.7071
vn 0.7071 0.0000 -0.7071
vn 0.7071 0.0000 -0.7071
vn 0.9239 0.0000 -0.3827
vn 0.9239 0.0000 -0.3827
vn 0.7071 0.0000 -0.7071
vn 0.3827 0.0000 -0.9239
vn 0.3827 0.0000 -0.9239
vn 0.3827 0.0000 -0.9239
vn 0.7071 0.0000 -0.7071
vn 0.7071 0.0000 -0.7071
vn 0.3827 0.0000 -0.9239
vn 0.0000 0.0000 -1.0000
vn 0.0000 0.0000 -1.0000
vn 0.0000 0.0000 -1.0000
vn 0.3827 0.0000 -0.9239
vn 0.3827 0.0000 -0.9239
vn 0.0000 0.0000 -1.0000
vn -0.3827 0.0000 -0.9239
vn -0.3827 0.0000 -0.9239
vn -0.3827 0.0000 -0.9239
vn 0.0000 0.0000 -1.0000
vn 0.0000 0.0000 -1.0000
vn -0.3827 0.0000 -0.9239
vn -0.7071 0.0000 -0.7071
vn -0.7071 0.0000 -0.7071
vn -0.7071 0.0000 -0.7071
vn -0.3827 0.0000 -0.9239
vn -0.3827 0.0000 -0.9239
vn -0.7071 0.0000 -0.7071
vn -0.9239 0.0000 -0.3827
vn -0.9239 0.0000 -0.3827
vn -0.9239 0.0000 -0.3827
vn -0.7071 0.0000 -0.7071
vn -0.7071 0.0000 -0.7071
vn -0.9239 0.0000 -0.3827
vn -1.0000 0.0000 -0.0000
vn -1.0000 0.0000 -0.0000
vn -1.0000 0.0000 -0.0000
vn -0.9239 0.0000 -0.3827
vn -0.9239 0.0000 -0.3827
vn -1.0000 0.0000 -0.0000
vn -0.9239 0.0000 0.3827
vn -0.9239 0.0000 0.3827
vn -0.9239 0.0000 0.3827
vn -1.0000 0.0000 -0.0000
vn -1.0000 0.0000 -0.0000
vn -0.9239 0.0000 0.3827
vn -0.7071 0.0000 0.7071
vn -0.7071 0.0000 0.7071
vn -0.7071 0.0000 0.7071
vn -0.9239 0.0000 0.3827
vn -0.9239 0.0000 0.3827
vn -0.7071 0.0000 0.7071
vn -0.3827 0.0000 0.9239
vn -0.3827 0.0000 0.9239
vn -0.3827 0.0000 0.9239
vn -0.7071 0.0000 0.7071
vn -0.7071 0.0000 0.7071
vn -0.3827 0.0000 0.9239
vn 0.0000 0.0000 1.0000
vn 0.0000 0.0000 1.0000
vn 0.0000 0.0000 1.0000
vn -0.3827 0.0000 0.9239
vn -0.3827 0.0000 0.9239
vn 0.0000 0.0000 1.0000
vn 0.3827 0.0000 0.9239
vn 0.3827 0.0000 0.9239
vn 0.3827 0.0000 0.9239
vn 0.0000 0.0000 1.0000
vn 0.0000 0.0000 1.0000
vn 0.3827 0.0000 0.9239
vn 0.7071 0.0000 0.7071
vn 0.7071 0.0000 0.7071
vn 0.7071 0.0000 0.7071
vn 0.3827 0.0000 0.9239
vn 0.3827 0.0000 0.9239
vn 0.7071 0.0000 0.7071
vn 0.9239 0.0000 0.3827
vn 0.9239 0.0000 0.3827
vn 0.9239 0.0000 0.3827
vn 0.7071 0.0000 0.7071
vn 0.7071 0.0000 0.7071
vn 0.9239 0.0000 0.3827
vn 1.0000 0.0000 -0.0000
vn 1.0000 0.0000 -0.0000
vn 1.0000 0.0000 -0.0000
vn 0.9239 0.0000 0.3827
vn 0.9239 0.0000 0.3827
vn 0.0000 -1.0000 -0.0000
vn 0.0000 -1.0000 -0.0000
vn 0.0000 -1.0000 -0.0000
vn 0.0000 -1.0000 -0.0000
vn 0.0000 -1.0000 -0.0000
vn 0.0000 -1.0000 -0.0000
vn 0.0000 -1.0000 -0.0000
vn 0.0000 -1.0000 -0.0000
vn 0.0000 -1.0000 -0.0000
vn 0.0000 -1.0000 -0.0000
vn 0.0000 -1.0000 -0.0000
vn 0.0000 -1.0000 -0.0000
vn 0.0000 -1.0000 -0.0000
vn 0.0000 -1.0000 -0.0000
vn 0.0000 -1.0000 -0.0000
vn 0.0000 -1.0000 -0.0000
vn 0.0000 -1.0000 -0.0000
vn 0.0000 -1.0000 -0.0000
vn 0.0000 -1.0000 -0.0000
vn 0.0000 -1.0000 -0.0000
vn 0.0000 -1.0000 -0.0000
vn 0.0000 -1.0000 -0.0000
vn 0.0000 -1.0000 -0.0000
vn 0.0000 -1.0000 -0.0000
vn 0.0000 -1.0000 -0.0000
vn 0.0000 -1.0000 -0.0000
vn 0.0000 -1.0000 -0.0000
vn 0.0000 -1.0000 -0.0000
vn 0.0000 -1.0000 -0.0000
vn 0.0000 -1.0000 -0.0000
vn 0.0000 -1.0000 -0.0000
vn 0.0000 -1.0000 -0.0000
vn 0.0000 -1.0000 -0.0000
vn 0.0000 -1.0000 -0.0000
vn 0.0000 -1.0000 -0.0000
vn 0.0000 -1.0000 -0.0000
vn 0.0000 -1.0000 -0.0000
vn 0.0000 -1.0000 -0.0000
vn 0.0000 -1.0000 -0.0000
vn 0.0000 -1.0000 -0.0000
vn 0.0000 -1.0000 -0.0000
vn 0.0000 -1.0000 -0.0000
vn 0.0000 1.0000 -0.0000
vn 0.0000 1.0000 -0.0000
vn 0.0000 1.0000 -0.0000
vn 0.0000 1.0000 -0.0000
vn 0.0000 1.0000 -0.0000
vn 0.0000 1.0000 -0.0000
vn 0.0000 1.0000 -0.0000
vn 0.0000 1.0000 -0.0000
vn 0.0000 1.0000 -0.0000
vn 0.0000 1.0000 -0.0000
vn 0.0000 1.0000 -0.0000
vn 0.0000 1.0000 -0.0000
vn 0.0000 1.0000 -0.0000
vn 0.0000 1.0000 -0.0000
vn 0.0000 1.0000 -0.0000
vn 0.0000 1.0000 -0.0000
vn 0.0000 1.0000 -0.0000
vn 0.0000 1.0000 -0.0000
vn 0.0000 1.0000 -0.0000
vn 0.0000 1.0000 -0.0000
vn 0.0000 1.0000 -0.0000
vn 0.0000 1.0000 -0.0000
vn 0.0000 1.0000 -0.0000
vn 0.0000 1.0000 -0.0000
vn 0.0000 1.0000 -0.0000
vn 0.0000 1.0000 -0.0000
vn 0.0000 1.0000 -0.0000
vn 0.0000 1.0000 -0.0000
vn 0.0000 1.0000 -0.0000
vn 0.0000 1.0000 -0.0000
vn 0.0000 1.0000 -0.0000
vn 0.0000 1.0000 -0.0000
vn 0.0000 1.0000 -0.0000
vn 0.0000 1.0000 -0.0000
vn 0.0000 1.0000 -0.0000
vn 0.0000 1.0000 -0.0000
vn 0.0000 1.0000 -0.0000
vn 0.0000 1.0000 -0.0000
vn 0.0000 1.0000 -0.0000
vn 0.0000 1.0000 -0.0000
vn 0.0000 1.0000 -0.0000
vn 0.0000 1.0000 -0.0000
# 180 vertex normals

vt 0.5625 0.2500 0.0000
vt 0.5768 0.3218 0.0000
vt 0.7500 0.0180 0.0000
vt 0.8125 0.0180 0.0000
vt 0.6174 0.3826 0.0000
vt 0.8125 0.0445 0.0000
vt 0.6782 0.4232 0.0000
vt 0.7500 0.0445 0.0000
vt 0.7500 0.4375 0.0000
vt 0.8750 0.0180 0.0000
vt 0.8218 0.4232 0.0000
vt 0.8750 0.0445 0.0000
vt 0.8826 0.3826 0.0000
vt 0.9375 0.0180 0.0000
vt 0.9232 0.3218 0.0000
vt 0.9375 0.0445 0.0000
vt 0.9375 0.2500 0.0000
vt 0.0000 0.0180 0.0000
vt 0.9232 0.1782 0.0000
vt 0.0000 0.0445 0.0000
vt 0.8826 0.1174 0.0000
vt 0.0625 0.0180 0.0000
vt 0.8218 0.0768 0.0000
vt 0.0625 0.0445 0.0000
vt 0.7500 0.0625 0.0000
vt 0.1250 0.0180 0.0000
vt 0.6782 0.0768 0.0000
vt 0.1250 0.0445 0.0000
vt 0.6174 0.1174 0.0000
vt 0.1875 0.0180 0.0000
vt 0.5768 0.1782 0.0000
vt 0.1875 0.0445 0.0000
vt 0.4232 0.3218 0.0000
vt 0.4375 0.2500 0.0000
vt 0.3826 0.3826 0.0000
vt 0.3218 0.4232 0.0000
vt 0.2500 0.4375 0.0000
vt 0.1782 0.4232 0.0000
vt 0.1174 0.3826 0.0000
vt 0.0768 0.3218 0.0000
vt 0.0625 0.2500 0.0000
vt 0.0768 0.1782 0.0000
vt 0.1174 0.1174 0.0000
vt 0.1782 0.0768 0.0000
vt 0.2500 0.0625 0.0000
vt 0.3218 0.0768 0.0000
vt 0.3826 0.1174 0.0000
vt 0.4232 0.1782 0.0000
vt 0.2500 0.0180 0.0000
vt 0.2500 0.0445 0.0000
vt 0.3125 0.0180 0.0000
vt 0.3125 0.0445 0.0000
vt 0.3750 0.0180 0.0000
vt 0.3750 0.0445 0.0000
vt 0.4375 0.0180 0.0000
vt 0.4375 0.0445 0.0000
vt 0.5000 0.0180 0.0000
vt 0.5000 0.0445 0.0000
vt 0.5625 0.0180 0.0000
vt 0.5625 0.0445 0.0000
vt 0.6250 0.0180 0.0000
vt 0.6250 0.0445 0.0000
vt 0.6875 0.0180 0.0000
vt 0.6875 0.0445 0.0000
vt 1.0000 0.0180 0.0000
vt 1.0000 0.0445 0.0000
# 66 texture coords

g Star_BASE
usemtl Material__2
f 1/3/1 34/4/2 50/6/3 
f 50/6/4 49/8/5 1/3/6 
f 34/4/7 35/10/8 51/12/9 
f 51/12/10 50/6/11 34/4/12 
f 35/10/13 36/14/14 52/16/15 
f 52/16/16 51/12/17 35/10/18 
f 36/14/19 37/65/20 53/66/21 
f 53/66/22 52/16/23 36/14/24 
f 37/18/25 38/22/26 54/24/27 
f 54/24/28 53/20/29 37/18/30 
f 38/22/31 39/26/32 55/28/33 
f 55/28/34 54/24/35 38/22/36 
f 39/26/37 40/30/38 56/32/39 
f 56/32/40 55/28/41 39/26/42 
f 40/30/43 41/49/44 57/50/45 
f 57/50/46 56/32/47 40/30/48 
f 41/49/49 42/51/50 58/52/51 
f 58/52/52 57/50/53 41/49/54 
f 42/51/55 43/53/56 59/54/57 
f 59/54/58 58/52/59 42/51/60 
f 43/53/61 44/55/62 60/56/63 
f 60/56/64 59/54/65 43/53/66 
f 44/55/67 45/57/68 61/58/69 
f 61/58/70 60/56/71 44/55/72 
f 45/57/73 46/59/74 62/60/75 
f 62/60/76 61/58/77 45/57/78 
f 46/59/79 47/61/80 63/62/81 
f 63/62/82 62/60/83 46/59/84 
f 47/61/85 16/63/86 64/64/87 
f 64/64/88 63/62/89 47/61/90 
f 16/63/91 1/3/92 49/8/93 
f 49/8/94 64/64/95 16/63/96 
f 15/29/97 14/27/98 13/25/99 
f 13/25/100 12/23/101 11/21/102 
f 11/21/103 10/19/104 9/17/105 
f 13/25/106 11/21/107 9/17/108 
f 9/17/109 8/15/110 7/13/111 
f 7/13/112 6/11/113 5/9/114 
f 9/17/115 7/13/116 5/9/117 
f 5/9/118 4/7/119 3/5/120 
f 3/5/121 2/2/122 33/1/123 
f 5/9/124 3/5/125 33/1/126 
f 9/17/127 5/9/128 33/1/129 
f 13/25/130 9/17/131 33/1/132 
f 15/29/133 13/25/134 33/1/135 
f 48/31/136 15/29/137 33/1/138 
f 18/33/139 19/35/140 20/36/141 
f 20/36/142 21/37/143 22/38/144 
f 22/38/145 23/39/146 24/40/147 
f 20/36/148 22/38/149 24/40/150 
f 24/40/151 25/41/152 26/42/153 
f 26/42/154 27/43/155 28/44/156 
f 24/40/157 26/42/158 28/44/159 
f 28/44/160 29/45/161 30/46/162 
f 30/46/163 31/47/164 32/48/165 
f 28/44/166 30/46/167 32/48/168 
f 24/40/169 28/44/170 32/48/171 
f 20/36/172 24/40/173 32/48/174 
f 18/33/175 20/36/176 32/48/177 
f 17/34/178 18/33/179 32/48/180 
# 60 faces

#
# object Star
#

v  0.0000 1.0313 -0.5020
v  -0.1483 1.0313 -0.2972
v  -0.4010 1.0313 -0.3089
v  -0.3333 1.0313 -0.0653
v  -0.5000 1.0313 0.1249
v  -0.2673 1.0313 0.2240
v  -0.2225 1.0313 0.4729
v  0.0000 1.0313 0.3527
v  0.2225 1.0313 0.4729
v  0.2673 1.0313 0.2240
v  0.5000 1.0313 0.1249
v  0.3333 1.0313 -0.0653
v  0.4010 1.0313 -0.3089
v  0.1483 1.0313 -0.2972
v  0.0000 0.9688 -0.5020
v  -0.1483 0.9688 -0.2972
v  -0.4010 0.9688 -0.3089
v  -0.3333 0.9688 -0.0653
v  -0.5000 0.9688 0.1249
v  -0.2673 0.9688 0.2240
v  -0.2225 0.9688 0.4729
v  0.0000 0.9688 0.3527
v  0.2225 0.9688 0.4729
v  0.2673 0.9688 0.2240
v  0.5000 0.9688 0.1249
v  0.3333 0.9688 -0.0653
v  0.4010 0.9688 -0.3089
v  0.1483 0.9688 -0.2972
v  0.0000 1.0313 -0.5020
v  -0.1483 1.0313 -0.2972
v  -0.1483 1.0313 -0.2972
v  -0.4010 1.0313 -0.3089
v  -0.4010 1.0313 -0.3089
v  -0.3333 1.0313 -0.0653
v  -0.3333 1.0313 -0.0653
v  -0.5000 1.0313 0.1249
v  -0.5000 1.0313 0.1249
v  -0.2673 1.0313 0.2240
v  -0.2673 1.0313 0.2240
v  -0.2225 1.0313 0.4729
v  -0.2225 1.0313 0.4729
v  0.0000 1.0313 0.3527
v  0.0000 1.0313 0.3527
v  0.2225 1.0313 0.4729
v  0.2225 1.0313 0.4729
v  0.2673 1.0313 0.2240
v  0.2673 1.0313 0.2240
v  0.5000 1.0313 0.1249
v  0.5000 1.0313 0.1249
v  0.3333 1.0313 -0.0653
v  0.3333 1.0313 -0.0653
v  0.4010 1.0313 -0.3089
v  0.4010 1.0313 -0.3089
v  0.1483 1.0313 -0.2972
v  0.1483 1.0313 -0.2972
v  0.0000 0.9688 -0.5020
v  -0.1483 0.9688 -0.2972
v  -0.1483 0.9688 -0.2972
v  -0.4010 0.9688 -0.3089
v  -0.4010 0.9688 -0.3089
v  -0.3333 0.9688 -0.0653
v  -0.3333 0.9688 -0.0653
v  -0.5000 0.9688 0.1249
v  -0.5000 0.9688 0.1249
v  -0.2673 0.9688 0.2240
v  -0.2673 0.9688 0.2240
v  -0.2225 0.9688 0.4729
v  -0.2225 0.9688 0.4729
v  0.0000 0.9688 0.3527
v  0.0000 0.9688 0.3527
v  0.2225 0.9688 0.4729
v  0.2225 0.9688 0.4729
v  0.2673 0.9688 0.2240
v  0.2673 0.9688 0.2240
v  0.5000 0.9688 0.1249
v  0.5000 0.9688 0.1249
v  0.3333 0.9688 -0.0653
v  0.3333 0.9688 -0.0653
v  0.4010 0.9688 -0.3089
v  0.4010 0.9688 -0.3089
v  0.1483 0.9688 -0.2972
v  0.1483 0.9688 -0.2972
# 82 vertices

vn -0.0000 1.0000 0.0000
vn 0.0000 1.0000 -0.0000
vn 0.0000 1.0000 -0.0000
vn 0.0000 1.0000 -0.0000
vn 0.0000 1.0000 -0.0000
vn 0.0000 1.0000 -0.0000
vn 0.0000 1.0000 -0.0000
vn 0.0000 1.0000 -0.0000
vn 0.0000 1.0000 -0.0000
vn 0.0000 1.0000 -0.0000
vn 0.0000 1.0000 -0.0000
vn 0.0000 1.0000 -0.0000
vn -0.0000 1.0000 0.0000
vn 0.0000 1.0000 -0.0000
vn 0.0000 1.0000 -0.0000
vn 0.0000 1.0000 -0.0000
vn -0.0000 1.0000 -0.0000
vn 0.0000 1.0000 -0.0000
vn 0.0000 1.0000 -0.0000
vn 0.0000 1.0000 0.0000
vn 0.0000 1.0000 -0.0000
vn 0.0000 1.0000 -0.0000
vn 0.0000 1.0000 -0.0000
vn 0.0000 1.0000 -0.0000
vn 0.0000 1.0000 -0.0000
vn 0.0000 1.0000 -0.0000
vn -0.0000 1.0000 0.0000
vn 0.0000 1.0000 -0.0000
vn 0.0000 1.0000 -0.0000
vn -0.0000 1.0000 0.0000
vn -0.0000 1.0000 0.0000
vn 0.0000 1.0000 -0.0000
vn -0.0000 1.0000 0.0000
vn -0.0000 1.0000 0.0000
vn -0.0000 1.0000 0.0000
vn -0.0000 1.0000 0.0000
vn 0.0000 -1.0000 -0.0000
vn 0.0000 -1.0000 -0.0000
vn 0.0000 -1.0000 -0.0000
vn 0.0000 -1.0000 -0.0000
vn 0.0000 -1.0000 -0.0000
vn 0.0000 -1.0000 -0.0000
vn 0.0000 -1.0000 -0.0000
vn 0.0000 -1.0000 -0.0000
vn 0.0000 -1.0000 -0.0000
vn 0.0000 -1.0000 -0.0000
vn 0.0000 -1.0000 -0.0000
vn 0.0000 -1.0000 -0.0000
vn 0.0000 -1.0000 -0.0000
vn 0.0000 -1.0000 -0.0000
vn 0.0000 -1.0000 -0.0000
vn 0.0000 -1.0000 -0.0000
vn 0.0000 -1.0000 -0.0000
vn 0.0000 -1.0000 -0.0000
vn 0.0000 -1.0000 -0.0000
vn 0.0000 -1.0000 -0.0000
vn 0.0000 -1.0000 -0.0000
vn 0.0000 -1.0000 -0.0000
vn 0.0000 -1.0000 -0.0000
vn 0.0000 -1.0000 -0.0000
vn 0.0000 -1.0000 -0.0000
vn 0.0000 -1.0000 -0.0000
vn 0.0000 -1.0000 -0.0000
vn 0.0000 -1.0000 -0.0000
vn 0.0000 -1.0000 -0.0000
vn 0.0000 -1.0000 -0.0000
vn 0.0000 -1.0000 -0.0000
vn 0.0000 -1.0000 -0.0000
vn 0.0000 -1.0000 -0.0000
vn 0.0000 -1.0000 -0.0000
vn 0.0000 -1.0000 -0.0000
vn 0.0000 -1.0000 -0.0000
vn 0.3917 0.0000 0.9201
vn 0.3917 0.0000 0.9201
vn 0.3917 0.0000 0.9201
vn 0.3917 0.0000 0.9201
vn 0.3917 0.0000 0.9201
vn 0.3917 0.0000 0.9201
vn 0.7521 0.0000 -0.6590
vn 0.7521 0.0000 -0.6590
vn 0.7521 0.0000 -0.6590
vn 0.7521 0.0000 -0.6590
vn 0.7521 0.0000 -0.6590
vn 0.7521 0.0000 -0.6590
vn 0.9636 0.0000 0.2674
vn 0.9636 0.0000 0.2674
vn 0.9636 0.0000 0.2674
vn 0.9636 0.0000 0.2674
vn 0.9636 0.0000 0.2674
vn 0.9636 0.0000 0.2674
vn -0.0463 0.0000 -0.9989
vn -0.0463 0.0000 -0.9989
vn -0.0463 0.0000 -0.9989
vn -0.0463 0.0000 -0.9989
vn -0.0463 0.0000 -0.9989
vn -0.0463 0.0000 -0.9989
vn 0.8099 0.0000 -0.5866
vn 0.8099 0.0000 -0.5866
vn 0.8099 0.0000 -0.5866
vn 0.8099 0.0000 -0.5866
vn 0.8099 0.0000 -0.5866
vn 0.8099 0.0000 -0.5866
vn -0.8099 0.0000 -0.5866
vn -0.8099 0.0000 -0.5866
vn -0.8099 0.0000 -0.5866
vn -0.8099 0.0000 -0.5866
vn -0.8099 0.0000 -0.5866
vn -0.8099 0.0000 -0.5866
vn 0.0463 0.0000 -0.9989
vn 0.0463 0.0000 -0.9989
vn 0.0463 0.0000 -0.9989
vn 0.0463 0.0000 -0.9989
vn 0.0463 0.0000 -0.9989
vn 0.0463 0.0000 -0.9989
vn -0.9636 0.0000 0.2674
vn -0.9636 0.0000 0.2674
vn -0.9636 0.0000 0.2674
vn -0.9636 0.0000 0.2674
vn -0.9636 0.0000 0.2674
vn -0.9636 0.0000 0.2674
vn -0.7521 0.0000 -0.6590
vn -0.7521 0.0000 -0.6590
vn -0.7521 0.0000 -0.6590
vn -0.7521 0.0000 -0.6590
vn -0.7521 0.0000 -0.6590
vn -0.7521 0.0000 -0.6590
vn -0.3917 0.0000 0.9201
vn -0.3917 0.0000 0.9201
vn -0.3917 0.0000 0.9201
vn -0.3917 0.0000 0.9201
vn -0.3917 0.0000 0.9201
vn -0.3917 0.0000 0.9201
vn -0.9842 0.0000 0.1771
vn -0.9842 0.0000 0.1771
vn -0.9842 0.0000 0.1771
vn -0.9842 0.0000 0.1771
vn -0.9842 0.0000 0.1771
vn -0.9842 0.0000 0.1771
vn 0.4752 0.0000 0.8799
vn 0.4752 0.0000 0.8799
vn 0.4752 0.0000 0.8799
vn 0.4752 0.0000 0.8799
vn 0.4752 0.0000 0.8799
vn 0.4752 0.0000 0.8799
vn -0.4752 0.0000 0.8799
vn -0.4752 0.0000 0.8799
vn -0.4752 0.0000 0.8799
vn -0.4752 0.0000 0.8799
vn -0.4752 0.0000 0.8799
vn -0.4752 0.0000 0.8799
vn 0.9842 0.0000 0.1771
vn 0.9842 0.0000 0.1771
vn 0.9842 0.0000 0.1771
vn 0.9842 0.0000 0.1771
vn 0.9842 0.0000 0.1771
vn 0.9842 0.0000 0.1771
# 156 vertex normals

vt 0.1498 0.6691 0.0000
vt 0.1666 0.5757 0.0000
vt 0.2500 0.6208 0.0000
vt 0.3334 0.5757 0.0000
vt 0.3502 0.6691 0.0000
vt 0.4375 0.7062 0.0000
vt 0.3750 0.7775 0.0000
vt 0.4004 0.8689 0.0000
vt 0.3056 0.8645 0.0000
vt 0.2500 0.9413 0.0000
vt 0.1944 0.8645 0.0000
vt 0.0996 0.8689 0.0000
vt 0.1250 0.7775 0.0000
vt 0.0625 0.7062 0.0000
vt 0.8566 0.5437 0.0000
vt 0.7835 0.5437 0.0000
vt 0.7835 0.5188 0.0000
vt 0.8566 0.5188 0.0000
vt 0.9125 0.5437 0.0000
vt 0.9125 0.5188 0.0000
vt 0.0000 0.5437 0.0000
vt 0.0000 0.5188 0.0000
vt 0.0723 0.5437 0.0000
vt 0.0723 0.5188 0.0000
vt 0.1659 0.5437 0.0000
vt 0.1659 0.5188 0.0000
vt 0.2595 0.5437 0.0000
vt 0.2595 0.5188 0.0000
vt 0.3318 0.5437 0.0000
vt 0.3318 0.5188 0.0000
vt 0.4193 0.5437 0.0000
vt 0.4193 0.5188 0.0000
vt 0.4752 0.5437 0.0000
vt 0.4752 0.5188 0.0000
vt 0.5483 0.5437 0.0000
vt 0.5483 0.5188 0.0000
vt 0.6037 0.5437 0.0000
vt 0.6037 0.5188 0.0000
vt 0.6659 0.5437 0.0000
vt 0.6659 0.5188 0.0000
vt 0.7282 0.5437 0.0000
vt 0.7282 0.5188 0.0000
vt 1.0000 0.5437 0.0000
vt 1.0000 0.5188 0.0000
vt 0.7500 0.6208 0.0000
vt 0.8334 0.5757 0.0000
vt 0.8502 0.6691 0.0000
vt 0.9375 0.7062 0.0000
vt 0.8750 0.7775 0.0000
vt 0.9004 0.8689 0.0000
vt 0.8056 0.8645 0.0000
vt 0.7500 0.9413 0.0000
vt 0.6944 0.8645 0.0000
vt 0.5996 0.8689 0.0000
vt 0.6250 0.7775 0.0000
vt 0.5625 0.7062 0.0000
vt 0.6498 0.6691 0.0000
vt 0.6666 0.5757 0.0000
# 58 texture coords

g Star
usemtl Material__2
f 103/67/181 105/68/182 107/69/183 
f 107/69/184 109/70/185 111/71/186 
f 111/71/187 113/72/188 115/73/189 
f 107/69/190 111/71/191 115/73/192 
f 103/67/193 107/69/194 115/73/195 
f 115/73/196 117/74/197 78/75/198 
f 78/75/199 65/76/200 95/77/201 
f 115/73/202 78/75/203 95/77/204 
f 95/77/205 97/78/206 99/79/207 
f 115/73/208 95/77/209 99/79/210 
f 103/67/211 115/73/212 99/79/213 
f 103/67/214 99/79/215 101/80/216 
f 133/111/217 131/112/218 129/113/219 
f 129/113/220 127/114/221 125/115/222 
f 125/115/223 123/116/224 121/117/225 
f 121/117/226 79/118/227 145/119/228 
f 145/119/229 143/120/230 141/121/231 
f 121/117/232 145/119/233 141/121/234 
f 125/115/235 121/117/236 141/121/237 
f 129/113/238 125/115/239 141/121/240 
f 133/111/241 129/113/242 141/121/243 
f 141/121/244 139/122/245 137/123/246 
f 133/111/247 141/121/248 137/123/249 
f 133/111/250 137/123/251 135/124/252 
f 138/83/253 89/84/254 75/81/255 
f 75/81/256 110/82/257 138/83/258 
f 140/84/259 90/86/260 76/85/261 
f 76/85/262 112/81/263 140/84/264 
f 142/86/265 91/110/266 77/109/267 
f 77/109/268 114/85/269 142/86/270 
f 144/88/271 92/90/272 118/89/273 
f 118/89/274 116/87/275 144/88/276 
f 146/90/277 120/92/278 93/91/279 
f 93/91/280 119/89/281 146/90/282 
f 120/92/283 80/94/284 66/93/285 
f 66/93/286 93/91/287 120/92/288 
f 122/94/289 81/96/290 67/95/291 
f 67/95/292 94/93/293 122/94/294 
f 124/96/295 82/98/296 68/97/297 
f 68/97/298 96/95/299 124/96/300 
f 126/98/301 83/100/302 69/99/303 
f 69/99/304 98/97/305 126/98/306 
f 128/100/307 84/102/308 70/101/309 
f 70/101/310 100/99/311 128/100/312 
f 130/102/313 85/104/314 71/103/315 
f 71/103/316 102/101/317 130/102/318 
f 132/104/319 86/106/320 72/105/321 
f 72/105/322 104/103/323 132/104/324 
f 134/106/325 87/108/326 73/107/327 
f 73/107/328 106/105/329 134/106/330 
f 136/108/331 88/83/332 74/82/333 
f 74/82/334 108/107/335 136/108/336 
# 52 faces

