# 3ds Max Wavefront OBJ Exporter v0.97b - (c)2007 guruware
# File Created: 12.03.2017 15:06:00

mtllib Tomb_MSH.mtl

#
# object Tomb_BASE
#

v  0.3750 -0.0313 -0.0000
v  0.3465 -0.0313 -0.1435
v  0.2652 -0.0313 -0.2652
v  0.1435 -0.0313 -0.3465
v  -0.0000 -0.0313 -0.3750
v  -0.1435 -0.0313 -0.3465
v  -0.2652 -0.0313 -0.2652
v  -0.3465 -0.0313 -0.1435
v  -0.3750 -0.0313 -0.0000
v  -0.3465 -0.0313 0.1435
v  -0.2652 -0.0313 0.2652
v  -0.1435 -0.0313 0.3465
v  0.0000 -0.0313 0.3750
v  0.1435 -0.0313 0.3465
v  0.2652 -0.0313 0.2652
v  0.3465 -0.0313 0.1435
v  0.3750 0.0313 -0.0000
v  0.3465 0.0313 -0.1435
v  0.2652 0.0313 -0.2652
v  0.1435 0.0313 -0.3465
v  -0.0000 0.0313 -0.3750
v  -0.1435 0.0313 -0.3465
v  -0.2652 0.0313 -0.2652
v  -0.3465 0.0313 -0.1435
v  -0.3750 0.0313 -0.0000
v  -0.3465 0.0313 0.1435
v  -0.2652 0.0313 0.2652
v  -0.1435 0.0313 0.3465
v  0.0000 0.0313 0.3750
v  0.1435 0.0313 0.3465
v  0.2652 0.0313 0.2652
v  0.3465 0.0313 0.1435
v  0.3750 -0.0313 -0.0000
v  0.3465 -0.0313 -0.1435
v  0.2652 -0.0313 -0.2652
v  0.1435 -0.0313 -0.3465
v  -0.0000 -0.0313 -0.3750
v  -0.1435 -0.0313 -0.3465
v  -0.2652 -0.0313 -0.2652
v  -0.3465 -0.0313 -0.1435
v  -0.3750 -0.0313 -0.0000
v  -0.3465 -0.0313 0.1435
v  -0.2652 -0.0313 0.2652
v  -0.1435 -0.0313 0.3465
v  0.0000 -0.0313 0.3750
v  0.1435 -0.0313 0.3465
v  0.2652 -0.0313 0.2652
v  0.3465 -0.0313 0.1435
v  0.3750 0.0313 -0.0000
v  0.3465 0.0313 -0.1435
v  0.2652 0.0313 -0.2652
v  0.1435 0.0313 -0.3465
v  -0.0000 0.0313 -0.3750
v  -0.1435 0.0313 -0.3465
v  -0.2652 0.0313 -0.2652
v  -0.3465 0.0313 -0.1435
v  -0.3750 0.0313 -0.0000
v  -0.3465 0.0313 0.1435
v  -0.2652 0.0313 0.2652
v  -0.1435 0.0313 0.3465
v  0.0000 0.0313 0.3750
v  0.1435 0.0313 0.3465
v  0.2652 0.0313 0.2652
v  0.3465 0.0313 0.1435
# 64 vertices

vn 1.0000 0.0000 -0.0000
vn 0.9239 0.0000 -0.3827
vn 0.9239 0.0000 -0.3827
vn 0.9239 0.0000 -0.3827
vn 1.0000 0.0000 -0.0000
vn 1.0000 0.0000 -0.0000
vn 0.9239 0.0000 -0.3827
vn 0.7071 0.0000 -0.7071
vn 0.7071 0.0000 -0.7071
vn 0.7071 0.0000 -0.7071
vn 0.9239 0.0000 -0.3827
vn 0.9239 0.0000 -0.3827
vn 0.7071 0.0000 -0.7071
vn 0.3827 0.0000 -0.9239
vn 0.3827 0.0000 -0.9239
vn 0.3827 0.0000 -0.9239
vn 0.7071 0.0000 -0.7071
vn 0.7071 0.0000 -0.7071
vn 0.3827 0.0000 -0.9239
vn 0.0000 0.0000 -1.0000
vn 0.0000 0.0000 -1.0000
vn 0.0000 0.0000 -1.0000
vn 0.3827 0.0000 -0.9239
vn 0.3827 0.0000 -0.9239
vn 0.0000 0.0000 -1.0000
vn -0.3827 0.0000 -0.9239
vn -0.3827 0.0000 -0.9239
vn -0.3827 0.0000 -0.9239
vn 0.0000 0.0000 -1.0000
vn 0.0000 0.0000 -1.0000
vn -0.3827 0.0000 -0.9239
vn -0.7071 0.0000 -0.7071
vn -0.7071 0.0000 -0.7071
vn -0.7071 0.0000 -0.7071
vn -0.3827 0.0000 -0.9239
vn -0.3827 0.0000 -0.9239
vn -0.7071 0.0000 -0.7071
vn -0.9239 0.0000 -0.3827
vn -0.9239 0.0000 -0.3827
vn -0.9239 0.0000 -0.3827
vn -0.7071 0.0000 -0.7071
vn -0.7071 0.0000 -0.7071
vn -0.9239 0.0000 -0.3827
vn -1.0000 0.0000 -0.0000
vn -1.0000 0.0000 -0.0000
vn -1.0000 0.0000 -0.0000
vn -0.9239 0.0000 -0.3827
vn -0.9239 0.0000 -0.3827
vn -1.0000 0.0000 -0.0000
vn -0.9239 0.0000 0.3827
vn -0.9239 0.0000 0.3827
vn -0.9239 0.0000 0.3827
vn -1.0000 0.0000 -0.0000
vn -1.0000 0.0000 -0.0000
vn -0.9239 0.0000 0.3827
vn -0.7071 0.0000 0.7071
vn -0.7071 0.0000 0.7071
vn -0.7071 0.0000 0.7071
vn -0.9239 0.0000 0.3827
vn -0.9239 0.0000 0.3827
vn -0.7071 0.0000 0.7071
vn -0.3827 0.0000 0.9239
vn -0.3827 0.0000 0.9239
vn -0.3827 0.0000 0.9239
vn -0.7071 0.0000 0.7071
vn -0.7071 0.0000 0.7071
vn -0.3827 0.0000 0.9239
vn 0.0000 0.0000 1.0000
vn 0.0000 0.0000 1.0000
vn 0.0000 0.0000 1.0000
vn -0.3827 0.0000 0.9239
vn -0.3827 0.0000 0.9239
vn 0.0000 0.0000 1.0000
vn 0.3827 0.0000 0.9239
vn 0.3827 0.0000 0.9239
vn 0.3827 0.0000 0.9239
vn 0.0000 0.0000 1.0000
vn 0.0000 0.0000 1.0000
vn 0.3827 0.0000 0.9239
vn 0.7071 0.0000 0.7071
vn 0.7071 0.0000 0.7071
vn 0.7071 0.0000 0.7071
vn 0.3827 0.0000 0.9239
vn 0.3827 0.0000 0.9239
vn 0.7071 0.0000 0.7071
vn 0.9239 0.0000 0.3827
vn 0.9239 0.0000 0.3827
vn 0.9239 0.0000 0.3827
vn 0.7071 0.0000 0.7071
vn 0.7071 0.0000 0.7071
vn 0.9239 0.0000 0.3827
vn 1.0000 0.0000 -0.0000
vn 1.0000 0.0000 -0.0000
vn 1.0000 0.0000 -0.0000
vn 0.9239 0.0000 0.3827
vn 0.9239 0.0000 0.3827
vn 0.0000 -1.0000 -0.0000
vn 0.0000 -1.0000 -0.0000
vn 0.0000 -1.0000 -0.0000
vn 0.0000 -1.0000 -0.0000
vn 0.0000 -1.0000 -0.0000
vn 0.0000 -1.0000 -0.0000
vn 0.0000 -1.0000 -0.0000
vn 0.0000 -1.0000 -0.0000
vn 0.0000 -1.0000 -0.0000
vn 0.0000 -1.0000 -0.0000
vn 0.0000 -1.0000 -0.0000
vn 0.0000 -1.0000 -0.0000
vn 0.0000 -1.0000 -0.0000
vn 0.0000 -1.0000 -0.0000
vn 0.0000 -1.0000 -0.0000
vn 0.0000 -1.0000 -0.0000
vn 0.0000 -1.0000 -0.0000
vn 0.0000 -1.0000 -0.0000
vn 0.0000 -1.0000 -0.0000
vn 0.0000 -1.0000 -0.0000
vn 0.0000 -1.0000 -0.0000
vn 0.0000 -1.0000 -0.0000
vn 0.0000 -1.0000 -0.0000
vn 0.0000 -1.0000 -0.0000
vn 0.0000 -1.0000 -0.0000
vn 0.0000 -1.0000 -0.0000
vn 0.0000 -1.0000 -0.0000
vn 0.0000 -1.0000 -0.0000
vn 0.0000 -1.0000 -0.0000
vn 0.0000 -1.0000 -0.0000
vn 0.0000 -1.0000 -0.0000
vn 0.0000 -1.0000 -0.0000
vn 0.0000 -1.0000 -0.0000
vn 0.0000 -1.0000 -0.0000
vn 0.0000 -1.0000 -0.0000
vn 0.0000 -1.0000 -0.0000
vn 0.0000 -1.0000 -0.0000
vn 0.0000 -1.0000 -0.0000
vn 0.0000 -1.0000 -0.0000
vn 0.0000 -1.0000 -0.0000
vn 0.0000 -1.0000 -0.0000
vn 0.0000 -1.0000 -0.0000
vn 0.0000 1.0000 -0.0000
vn 0.0000 1.0000 -0.0000
vn 0.0000 1.0000 -0.0000
vn 0.0000 1.0000 -0.0000
vn 0.0000 1.0000 -0.0000
vn 0.0000 1.0000 -0.0000
vn 0.0000 1.0000 -0.0000
vn 0.0000 1.0000 -0.0000
vn 0.0000 1.0000 -0.0000
vn 0.0000 1.0000 -0.0000
vn 0.0000 1.0000 -0.0000
vn 0.0000 1.0000 -0.0000
vn 0.0000 1.0000 -0.0000
vn 0.0000 1.0000 -0.0000
vn 0.0000 1.0000 -0.0000
vn 0.0000 1.0000 -0.0000
vn 0.0000 1.0000 -0.0000
vn 0.0000 1.0000 -0.0000
vn 0.0000 1.0000 -0.0000
vn 0.0000 1.0000 -0.0000
vn 0.0000 1.0000 -0.0000
vn 0.0000 1.0000 -0.0000
vn 0.0000 1.0000 -0.0000
vn 0.0000 1.0000 -0.0000
vn 0.0000 1.0000 -0.0000
vn 0.0000 1.0000 -0.0000
vn 0.0000 1.0000 -0.0000
vn 0.0000 1.0000 -0.0000
vn 0.0000 1.0000 -0.0000
vn 0.0000 1.0000 -0.0000
vn 0.0000 1.0000 -0.0000
vn 0.0000 1.0000 -0.0000
vn 0.0000 1.0000 -0.0000
vn 0.0000 1.0000 -0.0000
vn 0.0000 1.0000 -0.0000
vn 0.0000 1.0000 -0.0000
vn 0.0000 1.0000 -0.0000
vn 0.0000 1.0000 -0.0000
vn 0.0000 1.0000 -0.0000
vn 0.0000 1.0000 -0.0000
vn 0.0000 1.0000 -0.0000
vn 0.0000 1.0000 -0.0000
# 180 vertex normals

vt 0.5625 0.2500 0.0000
vt 0.5768 0.3218 0.0000
vt 0.7500 0.0180 0.0000
vt 0.8125 0.0180 0.0000
vt 0.6174 0.3826 0.0000
vt 0.8125 0.0445 0.0000
vt 0.6782 0.4232 0.0000
vt 0.7500 0.0445 0.0000
vt 0.7500 0.4375 0.0000
vt 0.8750 0.0180 0.0000
vt 0.8218 0.4232 0.0000
vt 0.8750 0.0445 0.0000
vt 0.8826 0.3826 0.0000
vt 0.9375 0.0180 0.0000
vt 0.9232 0.3218 0.0000
vt 0.9375 0.0445 0.0000
vt 0.9375 0.2500 0.0000
vt 0.0000 0.0180 0.0000
vt 0.9232 0.1782 0.0000
vt 0.0000 0.0445 0.0000
vt 0.8826 0.1174 0.0000
vt 0.0625 0.0180 0.0000
vt 0.8218 0.0768 0.0000
vt 0.0625 0.0445 0.0000
vt 0.7500 0.0625 0.0000
vt 0.1250 0.0180 0.0000
vt 0.6782 0.0768 0.0000
vt 0.1250 0.0445 0.0000
vt 0.6174 0.1174 0.0000
vt 0.1875 0.0180 0.0000
vt 0.5768 0.1782 0.0000
vt 0.1875 0.0445 0.0000
vt 0.4232 0.3218 0.0000
vt 0.4375 0.2500 0.0000
vt 0.3826 0.3826 0.0000
vt 0.3218 0.4232 0.0000
vt 0.2500 0.4375 0.0000
vt 0.1782 0.4232 0.0000
vt 0.1174 0.3826 0.0000
vt 0.0768 0.3218 0.0000
vt 0.0625 0.2500 0.0000
vt 0.0768 0.1782 0.0000
vt 0.1174 0.1174 0.0000
vt 0.1782 0.0768 0.0000
vt 0.2500 0.0625 0.0000
vt 0.3218 0.0768 0.0000
vt 0.3826 0.1174 0.0000
vt 0.4232 0.1782 0.0000
vt 0.2500 0.0180 0.0000
vt 0.2500 0.0445 0.0000
vt 0.3125 0.0180 0.0000
vt 0.3125 0.0445 0.0000
vt 0.3750 0.0180 0.0000
vt 0.3750 0.0445 0.0000
vt 0.4375 0.0180 0.0000
vt 0.4375 0.0445 0.0000
vt 0.5000 0.0180 0.0000
vt 0.5000 0.0445 0.0000
vt 0.5625 0.0180 0.0000
vt 0.5625 0.0445 0.0000
vt 0.6250 0.0180 0.0000
vt 0.6250 0.0445 0.0000
vt 0.6875 0.0180 0.0000
vt 0.6875 0.0445 0.0000
vt 1.0000 0.0180 0.0000
vt 1.0000 0.0445 0.0000
# 66 texture coords

g Tomb_BASE
usemtl Material__2
f 1/3/1 34/4/2 50/6/3 
f 50/6/4 49/8/5 1/3/6 
f 34/4/7 35/10/8 51/12/9 
f 51/12/10 50/6/11 34/4/12 
f 35/10/13 36/14/14 52/16/15 
f 52/16/16 51/12/17 35/10/18 
f 36/14/19 37/65/20 53/66/21 
f 53/66/22 52/16/23 36/14/24 
f 37/18/25 38/22/26 54/24/27 
f 54/24/28 53/20/29 37/18/30 
f 38/22/31 39/26/32 55/28/33 
f 55/28/34 54/24/35 38/22/36 
f 39/26/37 40/30/38 56/32/39 
f 56/32/40 55/28/41 39/26/42 
f 40/30/43 41/49/44 57/50/45 
f 57/50/46 56/32/47 40/30/48 
f 41/49/49 42/51/50 58/52/51 
f 58/52/52 57/50/53 41/49/54 
f 42/51/55 43/53/56 59/54/57 
f 59/54/58 58/52/59 42/51/60 
f 43/53/61 44/55/62 60/56/63 
f 60/56/64 59/54/65 43/53/66 
f 44/55/67 45/57/68 61/58/69 
f 61/58/70 60/56/71 44/55/72 
f 45/57/73 46/59/74 62/60/75 
f 62/60/76 61/58/77 45/57/78 
f 46/59/79 47/61/80 63/62/81 
f 63/62/82 62/60/83 46/59/84 
f 47/61/85 16/63/86 64/64/87 
f 64/64/88 63/62/89 47/61/90 
f 16/63/91 1/3/92 49/8/93 
f 49/8/94 64/64/95 16/63/96 
f 15/29/97 14/27/98 13/25/99 
f 13/25/100 12/23/101 11/21/102 
f 11/21/103 10/19/104 9/17/105 
f 13/25/106 11/21/107 9/17/108 
f 9/17/109 8/15/110 7/13/111 
f 7/13/112 6/11/113 5/9/114 
f 9/17/115 7/13/116 5/9/117 
f 5/9/118 4/7/119 3/5/120 
f 3/5/121 2/2/122 33/1/123 
f 5/9/124 3/5/125 33/1/126 
f 9/17/127 5/9/128 33/1/129 
f 13/25/130 9/17/131 33/1/132 
f 15/29/133 13/25/134 33/1/135 
f 48/31/136 15/29/137 33/1/138 
f 18/33/139 19/35/140 20/36/141 
f 20/36/142 21/37/143 22/38/144 
f 22/38/145 23/39/146 24/40/147 
f 20/36/148 22/38/149 24/40/150 
f 24/40/151 25/41/152 26/42/153 
f 26/42/154 27/43/155 28/44/156 
f 24/40/157 26/42/158 28/44/159 
f 28/44/160 29/45/161 30/46/162 
f 30/46/163 31/47/164 32/48/165 
f 28/44/166 30/46/167 32/48/168 
f 24/40/169 28/44/170 32/48/171 
f 20/36/172 24/40/173 32/48/174 
f 18/33/175 20/36/176 32/48/177 
f 17/34/178 18/33/179 32/48/180 
# 60 faces

#
# object Tomb
#

v  0.2948 2.0313 -0.2940
v  0.2262 2.0313 -0.3957
v  0.1245 2.0313 -0.4644
v  -0.0000 2.0313 -0.4895
v  -0.1245 2.0313 -0.4644
v  -0.2262 2.0313 -0.3957
v  -0.2948 2.0313 -0.2940
v  -0.3200 2.0313 -0.1695
v  -0.3200 2.0313 0.5105
v  0.3200 2.0313 0.5105
v  0.3200 2.0313 -0.1695
v  0.2948 1.9688 -0.2940
v  0.2262 1.9688 -0.3957
v  0.1245 1.9688 -0.4644
v  -0.0000 1.9688 -0.4895
v  -0.1245 1.9688 -0.4644
v  -0.2262 1.9688 -0.3957
v  -0.2948 1.9688 -0.2940
v  -0.3200 1.9688 -0.1695
v  -0.3200 1.9688 0.5105
v  0.3200 1.9688 0.5105
v  0.3200 1.9688 -0.1695
v  0.2948 2.0313 -0.2940
v  0.2262 2.0313 -0.3957
v  0.1245 2.0313 -0.4644
v  -0.0000 2.0313 -0.4895
v  -0.1245 2.0313 -0.4644
v  -0.2262 2.0313 -0.3957
v  -0.2948 2.0313 -0.2940
v  -0.3200 2.0313 -0.1695
v  -0.3200 2.0313 0.5105
v  -0.3200 2.0313 0.5105
v  0.3200 2.0313 0.5105
v  0.3200 2.0313 0.5105
v  0.3200 2.0313 -0.1695
v  0.2948 1.9688 -0.2940
v  0.2262 1.9688 -0.3957
v  0.1245 1.9688 -0.4644
v  -0.0000 1.9688 -0.4895
v  -0.1245 1.9688 -0.4644
v  -0.2262 1.9688 -0.3957
v  -0.2948 1.9688 -0.2940
v  -0.3200 1.9688 -0.1695
v  -0.3200 1.9688 0.5105
v  -0.3200 1.9688 0.5105
v  0.3200 1.9688 0.5105
v  0.3200 1.9688 0.5105
v  0.3200 1.9688 -0.1695
# 48 vertices

vn 0.0000 1.0000 -0.0000
vn 0.0000 1.0000 -0.0000
vn -0.0000 1.0000 -0.0000
vn 0.0000 1.0000 -0.0000
vn -0.0000 1.0000 -0.0000
vn -0.0000 1.0000 -0.0000
vn 0.0000 1.0000 -0.0000
vn -0.0000 1.0000 -0.0000
vn 0.0000 1.0000 -0.0000
vn 0.0000 1.0000 -0.0000
vn 0.0000 1.0000 -0.0000
vn -0.0000 1.0000 -0.0000
vn 0.0000 1.0000 0.0000
vn 0.0000 1.0000 0.0000
vn 0.0000 1.0000 0.0000
vn 0.0000 1.0000 0.0000
vn 0.0000 1.0000 0.0000
vn 0.0000 1.0000 0.0000
vn -0.0000 1.0000 -0.0000
vn 0.0000 1.0000 0.0000
vn 0.0000 1.0000 0.0000
vn -0.0000 1.0000 -0.0000
vn 0.0000 1.0000 0.0000
vn -0.0000 1.0000 -0.0000
vn 0.0000 1.0000 -0.0000
vn -0.0000 1.0000 -0.0000
vn -0.0000 1.0000 -0.0000
vn -0.0000 -1.0000 0.0000
vn 0.0000 -1.0000 0.0000
vn 0.0000 -1.0000 0.0000
vn 0.0000 -1.0000 -0.0000
vn 0.0000 -1.0000 -0.0000
vn 0.0000 -1.0000 -0.0000
vn 0.0000 -1.0000 -0.0000
vn 0.0000 -1.0000 -0.0000
vn 0.0000 -1.0000 -0.0000
vn 0.0000 -1.0000 -0.0000
vn 0.0000 -1.0000 -0.0000
vn 0.0000 -1.0000 0.0000
vn 0.0000 -1.0000 0.0000
vn 0.0000 -1.0000 -0.0000
vn 0.0000 -1.0000 0.0000
vn 0.0000 -1.0000 0.0000
vn 0.0000 -1.0000 0.0000
vn 0.0000 -1.0000 0.0000
vn 0.0000 -1.0000 0.0000
vn 0.0000 -1.0000 0.0000
vn 0.0000 -1.0000 0.0000
vn 0.0000 -1.0000 0.0000
vn 0.0000 -1.0000 0.0000
vn -0.0000 -1.0000 0.0000
vn -0.0000 -1.0000 0.0000
vn 0.0000 -1.0000 0.0000
vn -0.0000 -1.0000 0.0000
vn -0.9950 0.0000 -0.0996
vn -1.0000 0.0000 -0.0000
vn -1.0000 0.0000 -0.0000
vn -1.0000 0.0000 -0.0000
vn -0.9950 0.0000 -0.0996
vn -0.9950 0.0000 -0.0996
vn 0.0000 0.0000 1.0000
vn 0.0000 0.0000 1.0000
vn 0.0000 0.0000 1.0000
vn 0.0000 0.0000 1.0000
vn 0.0000 0.0000 1.0000
vn 0.0000 0.0000 1.0000
vn 1.0000 0.0000 0.0000
vn 0.9950 0.0000 -0.0996
vn 0.9950 0.0000 -0.0996
vn 0.9950 0.0000 -0.0996
vn 1.0000 0.0000 0.0000
vn 1.0000 0.0000 0.0000
vn 0.7071 0.0000 -0.7071
vn 0.3862 -0.0000 -0.9224
vn 0.3862 0.0000 -0.9224
vn 0.3862 0.0000 -0.9224
vn 0.7071 0.0000 -0.7071
vn 0.7071 0.0000 -0.7071
vn 0.3862 -0.0000 -0.9224
vn -0.0000 -0.0000 -1.0000
vn -0.0000 0.0000 -1.0000
vn -0.0000 0.0000 -1.0000
vn 0.3862 0.0000 -0.9224
vn 0.3862 -0.0000 -0.9224
vn -0.0000 -0.0000 -1.0000
vn -0.3862 0.0000 -0.9224
vn -0.3862 0.0000 -0.9224
vn -0.3862 0.0000 -0.9224
vn -0.0000 0.0000 -1.0000
vn -0.0000 -0.0000 -1.0000
vn -0.3862 0.0000 -0.9224
vn -0.7071 0.0000 -0.7071
vn -0.7071 0.0000 -0.7071
vn -0.7071 0.0000 -0.7071
vn -0.3862 0.0000 -0.9224
vn -0.3862 0.0000 -0.9224
vn -0.7071 0.0000 -0.7071
vn -0.9224 0.0000 -0.3862
vn -0.9224 0.0000 -0.3862
vn -0.9224 0.0000 -0.3862
vn -0.7071 0.0000 -0.7071
vn -0.7071 0.0000 -0.7071
vn 0.9224 0.0000 -0.3862
vn 0.7071 0.0000 -0.7071
vn 0.7071 0.0000 -0.7071
vn 0.7071 0.0000 -0.7071
vn 0.9224 0.0000 -0.3862
vn 0.9224 0.0000 -0.3862
vn 0.9950 0.0000 -0.0996
vn 0.9224 0.0000 -0.3862
vn 0.9224 0.0000 -0.3862
vn 0.9224 0.0000 -0.3862
vn 0.9950 0.0000 -0.0996
vn 0.9950 0.0000 -0.0996
vn -0.9224 0.0000 -0.3862
vn -0.9950 0.0000 -0.0996
vn -0.9950 0.0000 -0.0996
vn -0.9950 0.0000 -0.0996
vn -0.9224 0.0000 -0.3862
vn -0.9224 0.0000 -0.3862
# 120 vertex normals

vt 0.3348 0.9013 0.0000
vt 0.2967 0.9271 0.0000
vt 0.2500 0.9365 0.0000
vt 0.2033 0.9271 0.0000
vt 0.1652 0.9013 0.0000
vt 0.1394 0.8632 0.0000
vt 0.1300 0.8165 0.0000
vt 0.1300 0.5615 0.0000
vt 0.3700 0.5615 0.0000
vt 0.3700 0.8165 0.0000
vt 0.3606 0.8632 0.0000
vt 0.6232 0.5437 0.0000
vt 0.4075 0.5437 0.0000
vt 0.4075 0.5188 0.0000
vt 0.6232 0.5188 0.0000
vt 0.7843 0.5437 0.0000
vt 0.7843 0.5188 0.0000
vt 0.0000 0.5437 0.0000
vt 0.0000 0.5188 0.0000
vt 0.1543 0.5437 0.0000
vt 0.1057 0.5437 0.0000
vt 0.1057 0.5188 0.0000
vt 0.1543 0.5188 0.0000
vt 0.2038 0.5437 0.0000
vt 0.2038 0.5188 0.0000
vt 0.2532 0.5437 0.0000
vt 0.2532 0.5188 0.0000
vt 0.3018 0.5437 0.0000
vt 0.3018 0.5188 0.0000
vt 0.3521 0.5437 0.0000
vt 0.3521 0.5188 0.0000
vt 0.0554 0.5437 0.0000
vt 0.0554 0.5188 0.0000
vt 1.0000 0.5437 0.0000
vt 1.0000 0.5188 0.0000
vt 0.7500 0.9365 0.0000
vt 0.7033 0.9271 0.0000
vt 0.6652 0.9013 0.0000
vt 0.6394 0.8632 0.0000
vt 0.6300 0.8165 0.0000
vt 0.6300 0.5615 0.0000
vt 0.8700 0.5615 0.0000
vt 0.8700 0.8165 0.0000
vt 0.8606 0.8632 0.0000
vt 0.8348 0.9013 0.0000
vt 0.7967 0.9271 0.0000
# 46 texture coords

g Tomb
usemtl Material__2
f 88/67/181 89/68/182 90/69/183 
f 88/67/184 90/69/185 91/70/186 
f 88/67/187 91/70/188 92/71/189 
f 88/67/190 92/71/191 93/72/192 
f 94/73/193 96/74/194 98/75/195 
f 94/73/196 98/75/197 75/76/198 
f 93/72/199 94/73/200 75/76/201 
f 93/72/202 75/76/203 65/77/204 
f 88/67/205 93/72/206 65/77/207 
f 79/102/208 78/103/209 77/104/210 
f 110/107/211 108/108/212 83/109/213 
f 86/106/214 110/107/215 83/109/216 
f 86/106/217 83/109/218 82/110/219 
f 76/105/220 86/106/221 82/110/222 
f 77/104/223 76/105/224 82/110/225 
f 77/104/226 82/110/227 81/111/228 
f 77/104/229 81/111/230 80/112/231 
f 79/102/232 77/104/233 80/112/234 
f 107/80/235 84/81/236 73/78/237 
f 73/78/238 72/79/239 107/80/240 
f 109/81/241 85/83/242 74/82/243 
f 74/82/244 95/78/245 109/81/246 
f 111/83/247 112/101/248 99/100/249 
f 99/100/250 97/82/251 111/83/252 
f 101/88/253 102/89/254 67/86/255 
f 67/86/256 66/87/257 101/88/258 
f 102/89/259 103/91/260 68/90/261 
f 68/90/262 67/86/263 102/89/264 
f 103/91/265 104/93/266 69/92/267 
f 69/92/268 68/90/269 103/91/270 
f 104/93/271 105/95/272 70/94/273 
f 70/94/274 69/92/275 104/93/276 
f 105/95/277 106/97/278 71/96/279 
f 71/96/280 70/94/281 105/95/282 
f 100/99/283 101/88/284 66/87/285 
f 66/87/286 87/98/287 100/99/288 
f 112/85/289 100/99/290 87/98/291 
f 87/98/292 99/84/293 112/85/294 
f 106/97/295 107/80/296 72/79/297 
f 72/79/298 71/96/299 106/97/300 
# 40 faces

