# 3ds Max Wavefront OBJ Exporter v0.97b - (c)2007 guruware
# File Created: 02.04.2017 01:46:58

mtllib _DSP_COL.mtl

#
# object Cylinder001
#

v  0.2500 -0.0156 -0.0000
v  0.1768 -0.0156 -0.1768
v  -0.0000 -0.0156 -0.2500
v  -0.1768 -0.0156 -0.1768
v  -0.2500 -0.0156 0.0000
v  -0.1768 -0.0156 0.1768
v  0.0000 -0.0156 0.2500
v  0.1768 -0.0156 0.1768
v  0.2500 0.7500 -0.0000
v  0.1768 0.7500 -0.1768
v  -0.0000 0.7500 -0.2500
v  -0.1768 0.7500 -0.1768
v  -0.2500 0.7500 0.0000
v  -0.1768 0.7500 0.1768
v  0.0000 0.7500 0.2500
v  0.1768 0.7500 0.1768
# 16 vertices

vn 1.0000 0.0000 -0.0000
vn 0.7071 0.0000 -0.7071
vn 0.7071 0.0000 -0.7071
vn 0.7071 0.0000 -0.7071
vn 1.0000 0.0000 0.0000
vn 1.0000 0.0000 -0.0000
vn 0.7071 0.0000 -0.7071
vn -0.0000 0.0000 -1.0000
vn -0.0000 0.0000 -1.0000
vn -0.0000 0.0000 -1.0000
vn 0.7071 0.0000 -0.7071
vn 0.7071 0.0000 -0.7071
vn -0.0000 0.0000 -1.0000
vn -0.7071 0.0000 -0.7071
vn -0.7071 0.0000 -0.7071
vn -0.7071 0.0000 -0.7071
vn -0.0000 0.0000 -1.0000
vn -0.0000 0.0000 -1.0000
vn -0.7071 0.0000 -0.7071
vn -1.0000 0.0000 0.0000
vn -1.0000 0.0000 0.0000
vn -1.0000 0.0000 0.0000
vn -0.7071 0.0000 -0.7071
vn -0.7071 0.0000 -0.7071
vn -1.0000 0.0000 0.0000
vn -0.7071 0.0000 0.7071
vn -0.7071 0.0000 0.7071
vn -0.7071 0.0000 0.7071
vn -1.0000 0.0000 0.0000
vn -1.0000 0.0000 0.0000
vn -0.7071 0.0000 0.7071
vn 0.0000 0.0000 1.0000
vn 0.0000 0.0000 1.0000
vn 0.0000 0.0000 1.0000
vn -0.7071 0.0000 0.7071
vn -0.7071 0.0000 0.7071
vn 0.0000 0.0000 1.0000
vn 0.7071 0.0000 0.7071
vn 0.7071 0.0000 0.7071
vn 0.7071 0.0000 0.7071
vn 0.0000 0.0000 1.0000
vn 0.0000 0.0000 1.0000
vn 0.7071 0.0000 0.7071
vn 1.0000 0.0000 -0.0000
vn 1.0000 0.0000 0.0000
vn 1.0000 0.0000 0.0000
vn 0.7071 0.0000 0.7071
vn 0.7071 0.0000 0.7071
vn 0.0000 -1.0000 -0.0000
vn 0.0000 -1.0000 -0.0000
vn 0.0000 -1.0000 -0.0000
vn 0.0000 -1.0000 -0.0000
vn 0.0000 -1.0000 -0.0000
vn 0.0000 -1.0000 -0.0000
vn 0.0000 -1.0000 -0.0000
vn 0.0000 -1.0000 -0.0000
vn 0.0000 -1.0000 -0.0000
vn 0.0000 -1.0000 -0.0000
vn 0.0000 -1.0000 -0.0000
vn 0.0000 -1.0000 -0.0000
vn 0.0000 -1.0000 -0.0000
vn 0.0000 -1.0000 -0.0000
vn 0.0000 -1.0000 -0.0000
vn 0.0000 -1.0000 -0.0000
vn 0.0000 -1.0000 -0.0000
vn 0.0000 -1.0000 -0.0000
vn 0.0000 1.0000 -0.0000
vn 0.0000 1.0000 -0.0000
vn 0.0000 1.0000 -0.0000
vn 0.0000 1.0000 -0.0000
vn 0.0000 1.0000 -0.0000
vn 0.0000 1.0000 -0.0000
vn 0.0000 1.0000 -0.0000
vn 0.0000 1.0000 -0.0000
vn 0.0000 1.0000 -0.0000
vn 0.0000 1.0000 -0.0000
vn 0.0000 1.0000 -0.0000
vn 0.0000 1.0000 -0.0000
vn 0.0000 1.0000 -0.0000
vn 0.0000 1.0000 -0.0000
vn 0.0000 1.0000 -0.0000
vn 0.0000 1.0000 -0.0000
vn 0.0000 1.0000 -0.0000
vn 0.0000 1.0000 -0.0000
# 84 vertex normals

g Cylinder001
usemtl wire_006135113
f 1//1 2//2 10//3 
f 10//4 9//5 1//6 
f 2//7 3//8 11//9 
f 11//10 10//11 2//12 
f 3//13 4//14 12//15 
f 12//16 11//17 3//18 
f 4//19 5//20 13//21 
f 13//22 12//23 4//24 
f 5//25 6//26 14//27 
f 14//28 13//29 5//30 
f 6//31 7//32 15//33 
f 15//34 14//35 6//36 
f 7//37 8//38 16//39 
f 16//40 15//41 7//42 
f 8//43 1//44 9//45 
f 9//46 16//47 8//48 
f 7//49 6//50 5//51 
f 5//52 4//53 3//54 
f 3//55 2//56 1//57 
f 5//58 3//59 1//60 
f 7//61 5//62 1//63 
f 8//64 7//65 1//66 
f 10//67 11//68 12//69 
f 12//70 13//71 14//72 
f 14//73 15//74 16//75 
f 12//76 14//77 16//78 
f 10//79 12//80 16//81 
f 9//82 10//83 16//84 
# 28 faces

