# 3ds Max Wavefront OBJ Exporter v0.97b - (c)2007 guruware
# File Created: 01.04.2017 21:47:48

mtllib cmd4.mtl

#
# object NGon001
#

v  0.2500 0.0156 -0.0000
v  -0.0000 0.0156 -0.2500
v  -0.2500 0.0156 0.0000
v  0.0000 0.0156 0.2500
v  0.2500 -0.0156 -0.0000
v  -0.0000 -0.0156 -0.2500
v  -0.2500 -0.0156 0.0000
v  0.0000 -0.0156 0.2500
v  0.2500 0.0156 -0.0000
v  -0.0000 0.0156 -0.2500
v  -0.2500 0.0156 0.0000
v  -0.2500 0.0156 0.0000
v  0.0000 0.0156 0.2500
v  0.0000 0.0156 0.2500
v  0.2500 -0.0156 -0.0000
v  -0.0000 -0.0156 -0.2500
v  -0.2500 -0.0156 0.0000
v  -0.2500 -0.0156 0.0000
v  0.0000 -0.0156 0.2500
v  0.0000 -0.0156 0.2500
# 20 vertices

vn 0.0000 1.0000 -0.0000
vn 0.0000 1.0000 -0.0000
vn 0.0000 1.0000 -0.0000
vn 0.0000 1.0000 -0.0000
vn 0.0000 1.0000 -0.0000
vn 0.0000 1.0000 -0.0000
vn 0.0000 -1.0000 -0.0000
vn 0.0000 -1.0000 -0.0000
vn 0.0000 -1.0000 -0.0000
vn 0.0000 -1.0000 -0.0000
vn 0.0000 -1.0000 -0.0000
vn 0.0000 -1.0000 -0.0000
vn -0.7071 0.0000 0.7071
vn -0.7071 0.0000 0.7071
vn -0.7071 0.0000 0.7071
vn -0.7071 0.0000 0.7071
vn -0.7071 0.0000 0.7071
vn -0.7071 0.0000 0.7071
vn 0.7071 0.0000 0.7071
vn 0.7071 0.0000 0.7071
vn 0.7071 0.0000 0.7071
vn 0.7071 0.0000 0.7071
vn 0.7071 0.0000 0.7071
vn 0.7071 0.0000 0.7071
vn 0.7071 0.0000 -0.7071
vn 0.7071 0.0000 -0.7071
vn 0.7071 0.0000 -0.7071
vn 0.7071 0.0000 -0.7071
vn 0.7071 0.0000 -0.7071
vn 0.7071 0.0000 -0.7071
vn -0.7071 0.0000 -0.7071
vn -0.7071 0.0000 -0.7071
vn -0.7071 0.0000 -0.7071
vn -0.7071 0.0000 -0.7071
vn -0.7071 0.0000 -0.7071
vn -0.7071 0.0000 -0.7071
# 36 vertex normals

vt 0.6768 0.9688 0.0000
vt 0.3232 0.9688 0.0000
vt 0.6768 0.9688 0.0000
vt 0.6768 0.9688 0.0000
vt 0.3232 0.9063 0.0000
vt 0.6768 0.9063 0.0000
vt 0.3232 0.9688 0.0000
vt 0.3232 0.9688 0.0000
vt 0.4844 0.5000 0.0000
vt 0.2500 0.9688 0.0000
vt 0.0156 0.5000 0.0000
vt 0.2500 0.0313 0.0000
vt 0.5156 0.5000 0.0000
vt 0.7500 0.9688 0.0000
vt 0.9844 0.5000 0.0000
vt 0.7500 0.0313 0.0000
vt 0.6768 0.9688 0.0000
vt 0.3232 0.9688 0.0000
vt 0.3232 0.9063 0.0000
vt 0.6768 0.9063 0.0000
vt 0.3232 0.9063 0.0000
vt 0.6768 0.9063 0.0000
vt 0.3232 0.9063 0.0000
vt 0.6768 0.9063 0.0000
# 24 texture coords

g NGon001
usemtl Material__26
f 1/9/1 10/10/2 12/11/3 
f 12/11/4 4/12/5 1/9/6 
f 17/15/7 6/14/8 5/13/9 
f 5/13/10 19/16/11 17/15/12 
f 18/21/13 8/22/14 13/4/15 
f 13/4/16 11/8/17 18/21/18 
f 20/19/19 15/20/20 9/17/21 
f 9/17/22 14/18/23 20/19/24 
f 15/5/25 16/6/26 2/1/27 
f 2/1/28 9/2/29 15/5/30 
f 16/23/31 7/24/32 3/3/33 
f 3/3/34 2/7/35 16/23/36 
# 12 faces

