# 3ds Max Wavefront OBJ Exporter v0.97b - (c)2007 guruware
# File Created: 01.04.2017 20:40:24

mtllib cmd8.mtl

#
# object token_COL
#

v  0.1405 0.0156 0.3393
v  0.1405 -0.0156 0.3393
v  0.3393 0.0156 -0.1405
v  0.1405 0.0156 -0.3393
v  -0.1405 0.0156 -0.3393
v  -0.3393 0.0156 -0.1405
v  -0.3393 0.0156 0.1405
v  -0.1405 0.0156 0.3393
v  0.3393 0.0156 0.1405
v  0.3393 -0.0156 -0.1405
v  0.1405 -0.0156 -0.3393
v  -0.1405 -0.0156 -0.3393
v  -0.3393 -0.0156 -0.1405
v  -0.3393 -0.0156 0.1405
v  -0.1405 -0.0156 0.3393
v  0.3393 -0.0156 0.1405
# 16 vertices

vn 0.0000 1.0000 -0.0000
vn 0.0000 1.0000 -0.0000
vn 0.0000 1.0000 -0.0000
vn 0.0000 1.0000 -0.0000
vn 0.0000 1.0000 -0.0000
vn 0.0000 1.0000 -0.0000
vn 0.0000 1.0000 -0.0000
vn 0.0000 1.0000 -0.0000
vn 0.0000 1.0000 -0.0000
vn 0.0000 1.0000 -0.0000
vn 0.0000 1.0000 -0.0000
vn 0.0000 1.0000 -0.0000
vn 0.0000 1.0000 -0.0000
vn 0.0000 1.0000 -0.0000
vn 0.0000 1.0000 -0.0000
vn 0.0000 1.0000 -0.0000
vn 0.0000 1.0000 -0.0000
vn 0.0000 1.0000 -0.0000
vn 0.0000 -1.0000 -0.0000
vn 0.0000 -1.0000 -0.0000
vn 0.0000 -1.0000 -0.0000
vn 0.0000 -1.0000 -0.0000
vn 0.0000 -1.0000 -0.0000
vn 0.0000 -1.0000 -0.0000
vn 0.0000 -1.0000 -0.0000
vn 0.0000 -1.0000 -0.0000
vn 0.0000 -1.0000 -0.0000
vn 0.0000 -1.0000 -0.0000
vn 0.0000 -1.0000 -0.0000
vn 0.0000 -1.0000 -0.0000
vn 0.0000 -1.0000 -0.0000
vn 0.0000 -1.0000 -0.0000
vn 0.0000 -1.0000 -0.0000
vn 0.0000 -1.0000 -0.0000
vn 0.0000 -1.0000 -0.0000
vn 0.0000 -1.0000 -0.0000
vn 0.0000 0.0000 1.0000
vn 0.0000 0.0000 1.0000
vn 0.0000 0.0000 1.0000
vn 0.0000 0.0000 1.0000
vn 0.0000 0.0000 1.0000
vn 0.0000 0.0000 1.0000
vn 0.7071 0.0000 0.7071
vn 0.7071 0.0000 0.7071
vn 0.7071 0.0000 0.7071
vn 0.7071 0.0000 0.7071
vn 0.7071 0.0000 0.7071
vn 0.7071 0.0000 0.7071
vn 1.0000 0.0000 -0.0000
vn 1.0000 0.0000 -0.0000
vn 1.0000 0.0000 -0.0000
vn 1.0000 0.0000 -0.0000
vn 1.0000 0.0000 -0.0000
vn 1.0000 0.0000 -0.0000
vn 0.7071 0.0000 -0.7071
vn 0.7071 0.0000 -0.7071
vn 0.7071 0.0000 -0.7071
vn 0.7071 0.0000 -0.7071
vn 0.7071 0.0000 -0.7071
vn 0.7071 0.0000 -0.7071
vn -0.0000 0.0000 -1.0000
vn -0.0000 0.0000 -1.0000
vn -0.0000 0.0000 -1.0000
vn -0.0000 0.0000 -1.0000
vn -0.0000 0.0000 -1.0000
vn -0.0000 0.0000 -1.0000
vn -0.7071 0.0000 -0.7071
vn -0.7071 0.0000 -0.7071
vn -0.7071 0.0000 -0.7071
vn -0.7071 0.0000 -0.7071
vn -0.7071 0.0000 -0.7071
vn -0.7071 0.0000 -0.7071
vn -1.0000 0.0000 0.0000
vn -1.0000 0.0000 0.0000
vn -1.0000 0.0000 0.0000
vn -1.0000 0.0000 0.0000
vn -1.0000 0.0000 0.0000
vn -1.0000 0.0000 0.0000
vn -0.7071 0.0000 0.7071
vn -0.7071 0.0000 0.7071
vn -0.7071 0.0000 0.7071
vn -0.7071 0.0000 0.7071
vn -0.7071 0.0000 0.7071
vn -0.7071 0.0000 0.7071
# 84 vertex normals

vt 0.5686 0.9049 0.0000
vt 0.5686 0.9049 0.0000
vt 0.5686 0.9049 0.0000
vt 0.4314 0.9049 0.0000
vt 0.5686 0.9049 0.0000
vt 0.5686 0.9049 0.0000
vt 0.5686 0.9049 0.0000
vt 0.5686 0.9049 0.0000
vt 0.4314 0.9049 0.0000
vt 0.4314 0.9049 0.0000
vt 0.4314 0.8451 0.0000
vt 0.5686 0.8451 0.0000
vt 0.4314 0.9049 0.0000
vt 0.4314 0.9049 0.0000
vt 0.4314 0.9049 0.0000
vt 0.4314 0.9049 0.0000
vt 0.4844 0.3058 0.0000
vt 0.4844 0.6942 0.0000
vt 0.3471 0.9688 0.0000
vt 0.1529 0.9688 0.0000
vt 0.0156 0.6942 0.0000
vt 0.0156 0.3058 0.0000
vt 0.1529 0.0312 0.0000
vt 0.3471 0.0313 0.0000
vt 0.6529 0.9688 0.0000
vt 0.5156 0.6942 0.0000
vt 0.5156 0.3058 0.0000
vt 0.6529 0.0313 0.0000
vt 0.8471 0.0313 0.0000
vt 0.9844 0.3058 0.0000
vt 0.9844 0.6942 0.0000
vt 0.8471 0.9688 0.0000
vt 0.5686 0.9049 0.0000
vt 0.4314 0.9049 0.0000
vt 0.4314 0.8451 0.0000
vt 0.5686 0.8451 0.0000
vt 0.4314 0.8451 0.0000
vt 0.5686 0.8451 0.0000
vt 0.4314 0.8451 0.0000
vt 0.5686 0.8451 0.0000
vt 0.4314 0.8451 0.0000
vt 0.5686 0.8451 0.0000
vt 0.4314 0.8451 0.0000
vt 0.5686 0.8451 0.0000
vt 0.4314 0.8451 0.0000
vt 0.5686 0.8451 0.0000
vt 0.4314 0.8451 0.0000
vt 0.5686 0.8451 0.0000
# 48 texture coords

g token_COL
usemtl Material__25
f 9/17/1 3/18/2 4/19/3 
f 9/17/4 4/19/5 5/20/6 
f 9/17/7 5/20/8 6/21/9 
f 9/17/10 6/21/11 7/22/12 
f 9/17/13 7/22/14 8/23/15 
f 9/17/16 8/23/17 1/24/18 
f 11/25/19 10/26/20 16/27/21 
f 16/27/22 2/28/23 15/29/24 
f 16/27/25 15/29/26 14/30/27 
f 16/27/28 14/30/29 13/31/30 
f 16/27/31 13/31/32 12/32/33 
f 11/25/34 16/27/35 12/32/36 
f 15/39/37 2/40/38 1/6/39 
f 1/6/40 8/14/41 15/39/42 
f 2/41/43 16/42/44 9/7/45 
f 9/7/46 1/15/47 2/41/48 
f 16/43/49 10/44/50 3/8/51 
f 3/8/52 9/16/53 16/43/54 
f 10/45/55 11/46/56 4/1/57 
f 4/1/58 3/9/59 10/45/60 
f 11/47/61 12/48/62 5/2/63 
f 5/2/64 4/10/65 11/47/66 
f 12/11/67 13/12/68 6/3/69 
f 6/3/70 5/4/71 12/11/72 
f 13/35/73 14/36/74 7/33/75 
f 7/33/76 6/34/77 13/35/78 
f 14/37/79 15/38/80 8/5/81 
f 8/5/82 7/13/83 14/37/84 
# 28 faces

