# 3ds Max Wavefront OBJ Exporter v0.97b - (c)2007 guruware
# File Created: 01.04.2017 23:14:42

mtllib oth_COL.mtl

#
# object COL
#

v  0.2400 -0.0156 -0.0000
v  0.2354 -0.0156 -0.0468
v  0.2217 -0.0156 -0.0918
v  0.1996 -0.0156 -0.1333
v  0.1697 -0.0156 -0.1697
v  0.1333 -0.0156 -0.1996
v  0.0918 -0.0156 -0.2217
v  0.0468 -0.0156 -0.2354
v  0.0000 -0.0156 -0.2400
v  -0.0468 -0.0156 -0.2354
v  -0.0918 -0.0156 -0.2217
v  -0.1333 -0.0156 -0.1996
v  -0.1697 -0.0156 -0.1697
v  -0.1996 -0.0156 -0.1333
v  -0.2217 -0.0156 -0.0918
v  -0.2354 -0.0156 -0.0468
v  -0.2400 -0.0156 0.0000
v  -0.2354 -0.0156 0.0468
v  -0.2217 -0.0156 0.0918
v  -0.1996 -0.0156 0.1333
v  -0.1697 -0.0156 0.1697
v  -0.1333 -0.0156 0.1996
v  -0.0918 -0.0156 0.2217
v  -0.0468 -0.0156 0.2354
v  0.0000 -0.0156 0.2400
v  0.0468 -0.0156 0.2354
v  0.0918 -0.0156 0.2217
v  0.1333 -0.0156 0.1996
v  0.1697 -0.0156 0.1697
v  0.1996 -0.0156 0.1333
v  0.2217 -0.0156 0.0918
v  0.2354 -0.0156 0.0468
v  0.2400 0.0156 -0.0000
v  0.2354 0.0156 -0.0468
v  0.2217 0.0156 -0.0918
v  0.1996 0.0156 -0.1333
v  0.1697 0.0156 -0.1697
v  0.1333 0.0156 -0.1996
v  0.0918 0.0156 -0.2217
v  0.0468 0.0156 -0.2354
v  0.0000 0.0156 -0.2400
v  -0.0468 0.0156 -0.2354
v  -0.0918 0.0156 -0.2217
v  -0.1333 0.0156 -0.1996
v  -0.1697 0.0156 -0.1697
v  -0.1996 0.0156 -0.1333
v  -0.2217 0.0156 -0.0918
v  -0.2354 0.0156 -0.0468
v  -0.2400 0.0156 0.0000
v  -0.2354 0.0156 0.0468
v  -0.2217 0.0156 0.0918
v  -0.1996 0.0156 0.1333
v  -0.1697 0.0156 0.1697
v  -0.1333 0.0156 0.1996
v  -0.0918 0.0156 0.2217
v  -0.0468 0.0156 0.2354
v  0.0000 0.0156 0.2400
v  0.0468 0.0156 0.2354
v  0.0918 0.0156 0.2217
v  0.1333 0.0156 0.1996
v  0.1697 0.0156 0.1697
v  0.1996 0.0156 0.1333
v  0.2217 0.0156 0.0918
v  0.2354 0.0156 0.0468
# 64 vertices

vn 1.0000 0.0000 -0.0000
vn 0.9808 0.0000 -0.1951
vn 0.9808 0.0000 -0.1951
vn 0.9808 0.0000 -0.1951
vn 1.0000 0.0000 -0.0000
vn 1.0000 0.0000 -0.0000
vn 0.9808 0.0000 -0.1951
vn 0.9239 0.0000 -0.3827
vn 0.9239 0.0000 -0.3827
vn 0.9239 0.0000 -0.3827
vn 0.9808 0.0000 -0.1951
vn 0.9808 0.0000 -0.1951
vn 0.9239 0.0000 -0.3827
vn 0.8315 0.0000 -0.5556
vn 0.8315 0.0000 -0.5556
vn 0.8315 0.0000 -0.5556
vn 0.9239 0.0000 -0.3827
vn 0.9239 0.0000 -0.3827
vn 0.8315 0.0000 -0.5556
vn 0.7071 0.0000 -0.7071
vn 0.7071 0.0000 -0.7071
vn 0.7071 0.0000 -0.7071
vn 0.8315 0.0000 -0.5556
vn 0.8315 0.0000 -0.5556
vn 0.7071 0.0000 -0.7071
vn 0.5556 0.0000 -0.8315
vn 0.5556 0.0000 -0.8315
vn 0.5556 0.0000 -0.8315
vn 0.7071 0.0000 -0.7071
vn 0.7071 0.0000 -0.7071
vn 0.5556 0.0000 -0.8315
vn 0.3827 0.0000 -0.9239
vn 0.3827 0.0000 -0.9239
vn 0.3827 0.0000 -0.9239
vn 0.5556 0.0000 -0.8315
vn 0.5556 0.0000 -0.8315
vn 0.3827 0.0000 -0.9239
vn 0.1951 0.0000 -0.9808
vn 0.1951 0.0000 -0.9808
vn 0.1951 0.0000 -0.9808
vn 0.3827 0.0000 -0.9239
vn 0.3827 0.0000 -0.9239
vn 0.1951 0.0000 -0.9808
vn 0.0000 0.0000 -1.0000
vn 0.0000 0.0000 -1.0000
vn 0.0000 0.0000 -1.0000
vn 0.1951 0.0000 -0.9808
vn 0.1951 0.0000 -0.9808
vn 0.0000 0.0000 -1.0000
vn -0.1951 0.0000 -0.9808
vn -0.1951 0.0000 -0.9808
vn -0.1951 0.0000 -0.9808
vn 0.0000 0.0000 -1.0000
vn 0.0000 0.0000 -1.0000
vn -0.1951 0.0000 -0.9808
vn -0.3827 0.0000 -0.9239
vn -0.3827 0.0000 -0.9239
vn -0.3827 0.0000 -0.9239
vn -0.1951 0.0000 -0.9808
vn -0.1951 0.0000 -0.9808
vn -0.3827 0.0000 -0.9239
vn -0.5556 0.0000 -0.8315
vn -0.5556 0.0000 -0.8315
vn -0.5556 0.0000 -0.8315
vn -0.3827 0.0000 -0.9239
vn -0.3827 0.0000 -0.9239
vn -0.5556 0.0000 -0.8315
vn -0.7071 0.0000 -0.7071
vn -0.7071 0.0000 -0.7071
vn -0.7071 0.0000 -0.7071
vn -0.5556 0.0000 -0.8315
vn -0.5556 0.0000 -0.8315
vn -0.7071 0.0000 -0.7071
vn -0.8315 0.0000 -0.5556
vn -0.8315 0.0000 -0.5556
vn -0.8315 0.0000 -0.5556
vn -0.7071 0.0000 -0.7071
vn -0.7071 0.0000 -0.7071
vn -0.8315 0.0000 -0.5556
vn -0.9239 0.0000 -0.3827
vn -0.9239 0.0000 -0.3827
vn -0.9239 0.0000 -0.3827
vn -0.8315 0.0000 -0.5556
vn -0.8315 0.0000 -0.5556
vn -0.9239 0.0000 -0.3827
vn -0.9808 0.0000 -0.1951
vn -0.9808 0.0000 -0.1951
vn -0.9808 0.0000 -0.1951
vn -0.9239 0.0000 -0.3827
vn -0.9239 0.0000 -0.3827
vn -0.9808 0.0000 -0.1951
vn -1.0000 0.0000 0.0000
vn -1.0000 0.0000 0.0000
vn -1.0000 0.0000 0.0000
vn -0.9808 0.0000 -0.1951
vn -0.9808 0.0000 -0.1951
vn -1.0000 0.0000 0.0000
vn -0.9808 0.0000 0.1951
vn -0.9808 0.0000 0.1951
vn -0.9808 0.0000 0.1951
vn -1.0000 0.0000 0.0000
vn -1.0000 0.0000 0.0000
vn -0.9808 0.0000 0.1951
vn -0.9239 0.0000 0.3827
vn -0.9239 0.0000 0.3827
vn -0.9239 0.0000 0.3827
vn -0.9808 0.0000 0.1951
vn -0.9808 0.0000 0.1951
vn -0.9239 0.0000 0.3827
vn -0.8315 0.0000 0.5556
vn -0.8315 0.0000 0.5556
vn -0.8315 0.0000 0.5556
vn -0.9239 0.0000 0.3827
vn -0.9239 0.0000 0.3827
vn -0.8315 0.0000 0.5556
vn -0.7071 0.0000 0.7071
vn -0.7071 0.0000 0.7071
vn -0.7071 0.0000 0.7071
vn -0.8315 0.0000 0.5556
vn -0.8315 0.0000 0.5556
vn -0.7071 0.0000 0.7071
vn -0.5556 0.0000 0.8315
vn -0.5556 0.0000 0.8315
vn -0.5556 0.0000 0.8315
vn -0.7071 0.0000 0.7071
vn -0.7071 0.0000 0.7071
vn -0.5556 0.0000 0.8315
vn -0.3827 0.0000 0.9239
vn -0.3827 0.0000 0.9239
vn -0.3827 0.0000 0.9239
vn -0.5556 0.0000 0.8315
vn -0.5556 0.0000 0.8315
vn -0.3827 0.0000 0.9239
vn -0.1951 0.0000 0.9808
vn -0.1951 0.0000 0.9808
vn -0.1951 0.0000 0.9808
vn -0.3827 0.0000 0.9239
vn -0.3827 0.0000 0.9239
vn -0.1951 0.0000 0.9808
vn 0.0000 0.0000 1.0000
vn 0.0000 0.0000 1.0000
vn 0.0000 0.0000 1.0000
vn -0.1951 0.0000 0.9808
vn -0.1951 0.0000 0.9808
vn 0.0000 0.0000 1.0000
vn 0.1951 0.0000 0.9808
vn 0.1951 0.0000 0.9808
vn 0.1951 0.0000 0.9808
vn 0.0000 0.0000 1.0000
vn 0.0000 0.0000 1.0000
vn 0.1951 0.0000 0.9808
vn 0.3827 0.0000 0.9239
vn 0.3827 0.0000 0.9239
vn 0.3827 0.0000 0.9239
vn 0.1951 0.0000 0.9808
vn 0.1951 0.0000 0.9808
vn 0.3827 0.0000 0.9239
vn 0.5556 0.0000 0.8315
vn 0.5556 0.0000 0.8315
vn 0.5556 0.0000 0.8315
vn 0.3827 0.0000 0.9239
vn 0.3827 0.0000 0.9239
vn 0.5556 0.0000 0.8315
vn 0.7071 0.0000 0.7071
vn 0.7071 0.0000 0.7071
vn 0.7071 0.0000 0.7071
vn 0.5556 0.0000 0.8315
vn 0.5556 0.0000 0.8315
vn 0.7071 0.0000 0.7071
vn 0.8315 0.0000 0.5556
vn 0.8315 0.0000 0.5556
vn 0.8315 0.0000 0.5556
vn 0.7071 0.0000 0.7071
vn 0.7071 0.0000 0.7071
vn 0.8315 0.0000 0.5556
vn 0.9239 0.0000 0.3827
vn 0.9239 0.0000 0.3827
vn 0.9239 0.0000 0.3827
vn 0.8315 0.0000 0.5556
vn 0.8315 0.0000 0.5556
vn 0.9239 0.0000 0.3827
vn 0.9808 0.0000 0.1951
vn 0.9808 0.0000 0.1951
vn 0.9808 0.0000 0.1951
vn 0.9239 0.0000 0.3827
vn 0.9239 0.0000 0.3827
vn 0.9808 0.0000 0.1951
vn 1.0000 0.0000 -0.0000
vn 1.0000 0.0000 -0.0000
vn 1.0000 0.0000 -0.0000
vn 0.9808 0.0000 0.1951
vn 0.9808 0.0000 0.1951
vn 0.0000 -1.0000 -0.0000
vn 0.0000 -1.0000 -0.0000
vn 0.0000 -1.0000 -0.0000
vn 0.0000 -1.0000 -0.0000
vn 0.0000 -1.0000 -0.0000
vn 0.0000 -1.0000 -0.0000
vn 0.0000 -1.0000 -0.0000
vn 0.0000 -1.0000 -0.0000
vn 0.0000 -1.0000 -0.0000
vn 0.0000 -1.0000 -0.0000
vn 0.0000 -1.0000 -0.0000
vn 0.0000 -1.0000 -0.0000
vn 0.0000 -1.0000 -0.0000
vn 0.0000 -1.0000 -0.0000
vn 0.0000 -1.0000 -0.0000
vn 0.0000 -1.0000 -0.0000
vn 0.0000 -1.0000 -0.0000
vn 0.0000 -1.0000 -0.0000
vn 0.0000 -1.0000 -0.0000
vn 0.0000 -1.0000 -0.0000
vn 0.0000 -1.0000 -0.0000
vn 0.0000 -1.0000 -0.0000
vn 0.0000 -1.0000 -0.0000
vn 0.0000 -1.0000 -0.0000
vn 0.0000 -1.0000 -0.0000
vn 0.0000 -1.0000 -0.0000
vn 0.0000 -1.0000 -0.0000
vn 0.0000 -1.0000 -0.0000
vn 0.0000 -1.0000 -0.0000
vn 0.0000 -1.0000 -0.0000
vn 0.0000 -1.0000 -0.0000
vn 0.0000 -1.0000 -0.0000
vn 0.0000 -1.0000 -0.0000
vn 0.0000 -1.0000 -0.0000
vn 0.0000 -1.0000 -0.0000
vn 0.0000 -1.0000 -0.0000
vn 0.0000 -1.0000 -0.0000
vn 0.0000 -1.0000 -0.0000
vn 0.0000 -1.0000 -0.0000
vn 0.0000 -1.0000 -0.0000
vn 0.0000 -1.0000 -0.0000
vn 0.0000 -1.0000 -0.0000
vn 0.0000 -1.0000 -0.0000
vn 0.0000 -1.0000 -0.0000
vn 0.0000 -1.0000 -0.0000
vn 0.0000 -1.0000 -0.0000
vn 0.0000 -1.0000 -0.0000
vn 0.0000 -1.0000 -0.0000
vn 0.0000 -1.0000 -0.0000
vn 0.0000 -1.0000 -0.0000
vn 0.0000 -1.0000 -0.0000
vn 0.0000 -1.0000 -0.0000
vn 0.0000 -1.0000 -0.0000
vn 0.0000 -1.0000 -0.0000
vn 0.0000 -1.0000 -0.0000
vn 0.0000 -1.0000 -0.0000
vn 0.0000 -1.0000 -0.0000
vn 0.0000 -1.0000 -0.0000
vn 0.0000 -1.0000 -0.0000
vn 0.0000 -1.0000 -0.0000
vn 0.0000 -1.0000 -0.0000
vn 0.0000 -1.0000 -0.0000
vn 0.0000 -1.0000 -0.0000
vn 0.0000 -1.0000 -0.0000
vn 0.0000 -1.0000 -0.0000
vn 0.0000 -1.0000 -0.0000
vn 0.0000 -1.0000 -0.0000
vn 0.0000 -1.0000 -0.0000
vn 0.0000 -1.0000 -0.0000
vn 0.0000 -1.0000 -0.0000
vn 0.0000 -1.0000 -0.0000
vn 0.0000 -1.0000 -0.0000
vn 0.0000 -1.0000 -0.0000
vn 0.0000 -1.0000 -0.0000
vn 0.0000 -1.0000 -0.0000
vn 0.0000 -1.0000 -0.0000
vn 0.0000 -1.0000 -0.0000
vn 0.0000 -1.0000 -0.0000
vn 0.0000 -1.0000 -0.0000
vn 0.0000 -1.0000 -0.0000
vn 0.0000 -1.0000 -0.0000
vn 0.0000 -1.0000 -0.0000
vn 0.0000 -1.0000 -0.0000
vn 0.0000 -1.0000 -0.0000
vn 0.0000 -1.0000 -0.0000
vn 0.0000 -1.0000 -0.0000
vn 0.0000 -1.0000 -0.0000
vn 0.0000 -1.0000 -0.0000
vn 0.0000 -1.0000 -0.0000
vn 0.0000 -1.0000 -0.0000
vn 0.0000 1.0000 -0.0000
vn 0.0000 1.0000 -0.0000
vn 0.0000 1.0000 -0.0000
vn 0.0000 1.0000 -0.0000
vn 0.0000 1.0000 -0.0000
vn 0.0000 1.0000 -0.0000
vn 0.0000 1.0000 -0.0000
vn 0.0000 1.0000 -0.0000
vn 0.0000 1.0000 -0.0000
vn 0.0000 1.0000 -0.0000
vn 0.0000 1.0000 -0.0000
vn 0.0000 1.0000 -0.0000
vn 0.0000 1.0000 -0.0000
vn 0.0000 1.0000 -0.0000
vn 0.0000 1.0000 -0.0000
vn 0.0000 1.0000 -0.0000
vn 0.0000 1.0000 -0.0000
vn 0.0000 1.0000 -0.0000
vn 0.0000 1.0000 -0.0000
vn 0.0000 1.0000 -0.0000
vn 0.0000 1.0000 -0.0000
vn 0.0000 1.0000 -0.0000
vn 0.0000 1.0000 -0.0000
vn 0.0000 1.0000 -0.0000
vn 0.0000 1.0000 -0.0000
vn 0.0000 1.0000 -0.0000
vn 0.0000 1.0000 -0.0000
vn 0.0000 1.0000 -0.0000
vn 0.0000 1.0000 -0.0000
vn 0.0000 1.0000 -0.0000
vn 0.0000 1.0000 -0.0000
vn 0.0000 1.0000 -0.0000
vn 0.0000 1.0000 -0.0000
vn 0.0000 1.0000 -0.0000
vn 0.0000 1.0000 -0.0000
vn 0.0000 1.0000 -0.0000
vn 0.0000 1.0000 -0.0000
vn 0.0000 1.0000 -0.0000
vn 0.0000 1.0000 -0.0000
vn 0.0000 1.0000 -0.0000
vn 0.0000 1.0000 -0.0000
vn 0.0000 1.0000 -0.0000
vn 0.0000 1.0000 -0.0000
vn 0.0000 1.0000 -0.0000
vn 0.0000 1.0000 -0.0000
vn 0.0000 1.0000 -0.0000
vn 0.0000 1.0000 -0.0000
vn 0.0000 1.0000 -0.0000
vn 0.0000 1.0000 -0.0000
vn 0.0000 1.0000 -0.0000
vn 0.0000 1.0000 -0.0000
vn 0.0000 1.0000 -0.0000
vn 0.0000 1.0000 -0.0000
vn 0.0000 1.0000 -0.0000
vn 0.0000 1.0000 -0.0000
vn 0.0000 1.0000 -0.0000
vn 0.0000 1.0000 -0.0000
vn 0.0000 1.0000 -0.0000
vn 0.0000 1.0000 -0.0000
vn 0.0000 1.0000 -0.0000
vn 0.0000 1.0000 -0.0000
vn 0.0000 1.0000 -0.0000
vn 0.0000 1.0000 -0.0000
vn 0.0000 1.0000 -0.0000
vn 0.0000 1.0000 -0.0000
vn 0.0000 1.0000 -0.0000
vn 0.0000 1.0000 -0.0000
vn 0.0000 1.0000 -0.0000
vn 0.0000 1.0000 -0.0000
vn 0.0000 1.0000 -0.0000
vn 0.0000 1.0000 -0.0000
vn 0.0000 1.0000 -0.0000
vn 0.0000 1.0000 -0.0000
vn 0.0000 1.0000 -0.0000
vn 0.0000 1.0000 -0.0000
vn 0.0000 1.0000 -0.0000
vn 0.0000 1.0000 -0.0000
vn 0.0000 1.0000 -0.0000
vn 0.0000 1.0000 -0.0000
vn 0.0000 1.0000 -0.0000
vn 0.0000 1.0000 -0.0000
vn 0.0000 1.0000 -0.0000
vn 0.0000 1.0000 -0.0000
vn 0.0000 1.0000 -0.0000
vn 0.0000 1.0000 -0.0000
vn 0.0000 1.0000 -0.0000
vn 0.0000 1.0000 -0.0000
vn 0.0000 1.0000 -0.0000
vn 0.0000 1.0000 -0.0000
vn 0.0000 1.0000 -0.0000
# 372 vertex normals

g COL
usemtl wire_113135006
f 1//1 2//2 34//3 
f 34//4 33//5 1//6 
f 2//7 3//8 35//9 
f 35//10 34//11 2//12 
f 3//13 4//14 36//15 
f 36//16 35//17 3//18 
f 4//19 5//20 37//21 
f 37//22 36//23 4//24 
f 5//25 6//26 38//27 
f 38//28 37//29 5//30 
f 6//31 7//32 39//33 
f 39//34 38//35 6//36 
f 7//37 8//38 40//39 
f 40//40 39//41 7//42 
f 8//43 9//44 41//45 
f 41//46 40//47 8//48 
f 9//49 10//50 42//51 
f 42//52 41//53 9//54 
f 10//55 11//56 43//57 
f 43//58 42//59 10//60 
f 11//61 12//62 44//63 
f 44//64 43//65 11//66 
f 12//67 13//68 45//69 
f 45//70 44//71 12//72 
f 13//73 14//74 46//75 
f 46//76 45//77 13//78 
f 14//79 15//80 47//81 
f 47//82 46//83 14//84 
f 15//85 16//86 48//87 
f 48//88 47//89 15//90 
f 16//91 17//92 49//93 
f 49//94 48//95 16//96 
f 17//97 18//98 50//99 
f 50//100 49//101 17//102 
f 18//103 19//104 51//105 
f 51//106 50//107 18//108 
f 19//109 20//110 52//111 
f 52//112 51//113 19//114 
f 20//115 21//116 53//117 
f 53//118 52//119 20//120 
f 21//121 22//122 54//123 
f 54//124 53//125 21//126 
f 22//127 23//128 55//129 
f 55//130 54//131 22//132 
f 23//133 24//134 56//135 
f 56//136 55//137 23//138 
f 24//139 25//140 57//141 
f 57//142 56//143 24//144 
f 25//145 26//146 58//147 
f 58//148 57//149 25//150 
f 26//151 27//152 59//153 
f 59//154 58//155 26//156 
f 27//157 28//158 60//159 
f 60//160 59//161 27//162 
f 28//163 29//164 61//165 
f 61//166 60//167 28//168 
f 29//169 30//170 62//171 
f 62//172 61//173 29//174 
f 30//175 31//176 63//177 
f 63//178 62//179 30//180 
f 31//181 32//182 64//183 
f 64//184 63//185 31//186 
f 32//187 1//188 33//189 
f 33//190 64//191 32//192 
f 31//193 30//194 29//195 
f 29//196 28//197 27//198 
f 27//199 26//200 25//201 
f 29//202 27//203 25//204 
f 25//205 24//206 23//207 
f 23//208 22//209 21//210 
f 25//211 23//212 21//213 
f 21//214 20//215 19//216 
f 19//217 18//218 17//219 
f 21//220 19//221 17//222 
f 25//223 21//224 17//225 
f 17//226 16//227 15//228 
f 15//229 14//230 13//231 
f 17//232 15//233 13//234 
f 13//235 12//236 11//237 
f 11//238 10//239 9//240 
f 13//241 11//242 9//243 
f 17//244 13//245 9//246 
f 9//247 8//248 7//249 
f 7//250 6//251 5//252 
f 9//253 7//254 5//255 
f 5//256 4//257 3//258 
f 3//259 2//260 1//261 
f 5//262 3//263 1//264 
f 9//265 5//266 1//267 
f 17//268 9//269 1//270 
f 25//271 17//272 1//273 
f 29//274 25//275 1//276 
f 31//277 29//278 1//279 
f 32//280 31//281 1//282 
f 34//283 35//284 36//285 
f 36//286 37//287 38//288 
f 38//289 39//290 40//291 
f 36//292 38//293 40//294 
f 40//295 41//296 42//297 
f 42//298 43//299 44//300 
f 40//301 42//302 44//303 
f 44//304 45//305 46//306 
f 46//307 47//308 48//309 
f 44//310 46//311 48//312 
f 40//313 44//314 48//315 
f 48//316 49//317 50//318 
f 50//319 51//320 52//321 
f 48//322 50//323 52//324 
f 52//325 53//326 54//327 
f 54//328 55//329 56//330 
f 52//331 54//332 56//333 
f 48//334 52//335 56//336 
f 56//337 57//338 58//339 
f 58//340 59//341 60//342 
f 56//343 58//344 60//345 
f 60//346 61//347 62//348 
f 62//349 63//350 64//351 
f 60//352 62//353 64//354 
f 56//355 60//356 64//357 
f 48//358 56//359 64//360 
f 40//361 48//362 64//363 
f 36//364 40//365 64//366 
f 34//367 36//368 64//369 
f 33//370 34//371 64//372 
# 124 faces

