# 3ds Max Wavefront OBJ Exporter v0.97b - (c)2007 guruware
# File Created: 08.04.2017 12:34:59

mtllib marquise.mtl

#
# object marquise
#

v  0.1552 0.0561 -0.1447
v  0.1198 0.0559 -0.2647
v  0.1198 0.0697 -0.2647
v  0.1552 0.0699 -0.1447
v  -0.1164 0.1389 -0.1101
v  -0.0610 0.1780 -0.1743
v  -0.0554 0.1400 -0.3190
v  -0.1188 0.0699 -0.2646
v  -0.1188 0.0562 -0.2646
v  -0.1541 0.0562 -0.1447
v  -0.1541 0.0700 -0.1447
v  -0.1680 0.0563 -0.0000
v  -0.1542 0.0562 0.1490
v  -0.1542 0.0700 0.1490
v  -0.1680 0.0700 -0.0000
v  -0.0863 0.1780 -0.0000
v  -0.0610 0.1780 0.1743
v  -0.1163 0.1389 0.1133
v  0.0000 0.1780 0.2465
v  -0.0554 0.1399 0.3240
v  0.0610 0.1780 0.1743
v  0.0570 0.1401 0.3239
v  0.1680 0.0563 -0.0000
v  0.0885 -0.0649 0.0875
v  -0.0000 -0.1780 0.0000
v  0.0886 -0.0647 -0.0834
v  0.0863 0.1780 -0.0000
v  0.0610 0.1780 -0.1743
v  0.0000 0.1780 -0.2465
v  0.1174 0.1388 -0.1102
v  0.1172 0.1389 0.1134
v  0.1680 0.0700 -0.0000
v  0.1198 0.0559 0.2799
v  0.1551 0.0561 0.1488
v  0.1551 0.0699 0.1488
v  0.1198 0.0697 0.2799
v  0.0570 0.1402 -0.3188
v  0.0681 0.0561 -0.3771
v  0.0000 0.0563 -0.4709
v  0.0000 0.0700 -0.4709
v  0.0681 0.0699 -0.3771
v  -0.0657 0.0559 -0.3770
v  -0.0657 0.0697 -0.3770
v  -0.1188 0.0699 0.2798
v  -0.1188 0.0562 0.2798
v  -0.0658 0.0561 0.3883
v  0.0000 0.0563 0.4709
v  0.0000 0.0700 0.4709
v  -0.0658 0.0699 0.3883
v  0.0398 -0.0647 0.2299
v  0.0681 0.0561 0.3882
v  0.0681 0.0699 0.3882
v  -0.0387 -0.0646 0.2298
v  -0.0889 -0.0644 0.0877
v  -0.0880 -0.0647 -0.0835
v  -0.0387 -0.0647 -0.2253
v  0.0398 -0.0646 -0.2252
v  0.1552 0.0561 -0.1447
v  0.1552 0.0561 -0.1447
v  0.1552 0.0561 -0.1447
v  0.1198 0.0559 -0.2647
v  0.1198 0.0559 -0.2647
v  0.1198 0.0559 -0.2647
v  0.1198 0.0559 -0.2647
v  0.1198 0.0697 -0.2647
v  0.1198 0.0697 -0.2647
v  0.1198 0.0697 -0.2647
v  0.1552 0.0699 -0.1447
v  0.1552 0.0699 -0.1447
v  0.1552 0.0699 -0.1447
v  -0.1164 0.1389 -0.1101
v  -0.1164 0.1389 -0.1101
v  -0.1164 0.1389 -0.1101
v  -0.0610 0.1780 -0.1743
v  -0.0610 0.1780 -0.1743
v  -0.0610 0.1780 -0.1743
v  -0.0554 0.1400 -0.3190
v  -0.0554 0.1400 -0.3190
v  -0.0554 0.1400 -0.3190
v  -0.0554 0.1400 -0.3190
v  -0.1188 0.0699 -0.2646
v  -0.1188 0.0699 -0.2646
v  -0.1188 0.0699 -0.2646
v  -0.1188 0.0562 -0.2646
v  -0.1188 0.0562 -0.2646
v  -0.1188 0.0562 -0.2646
v  -0.1188 0.0562 -0.2646
v  -0.1541 0.0562 -0.1447
v  -0.1541 0.0562 -0.1447
v  -0.1541 0.0562 -0.1447
v  -0.1541 0.0700 -0.1447
v  -0.1541 0.0700 -0.1447
v  -0.1541 0.0700 -0.1447
v  -0.1680 0.0563 -0.0000
v  -0.1680 0.0563 -0.0000
v  -0.1680 0.0563 -0.0000
v  -0.1680 0.0563 -0.0000
v  -0.1542 0.0562 0.1490
v  -0.1542 0.0562 0.1490
v  -0.1542 0.0562 0.1490
v  -0.1542 0.0700 0.1490
v  -0.1542 0.0700 0.1490
v  -0.1542 0.0700 0.1490
v  -0.1680 0.0700 -0.0000
v  -0.1680 0.0700 -0.0000
v  -0.1680 0.0700 -0.0000
v  -0.1680 0.0700 -0.0000
v  -0.0863 0.1780 -0.0000
v  -0.0863 0.1780 -0.0000
v  -0.0863 0.1780 -0.0000
v  -0.0610 0.1780 0.1743
v  -0.0610 0.1780 0.1743
v  -0.0610 0.1780 0.1743
v  -0.1163 0.1389 0.1133
v  -0.1163 0.1389 0.1133
v  -0.1163 0.1389 0.1133
v  0.0000 0.1780 0.2465
v  0.0000 0.1780 0.2465
v  0.0000 0.1780 0.2465
v  -0.0554 0.1399 0.3240
v  -0.0554 0.1399 0.3240
v  -0.0554 0.1399 0.3240
v  -0.0554 0.1399 0.3240
v  0.0610 0.1780 0.1743
v  0.0610 0.1780 0.1743
v  0.0610 0.1780 0.1743
v  0.0570 0.1401 0.3239
v  0.0570 0.1401 0.3239
v  0.0570 0.1401 0.3239
v  0.0570 0.1401 0.3239
v  0.1680 0.0563 -0.0000
v  0.1680 0.0563 -0.0000
v  0.1680 0.0563 -0.0000
v  0.1680 0.0563 -0.0000
v  0.0885 -0.0649 0.0875
v  0.0885 -0.0649 0.0875
v  0.0885 -0.0649 0.0875
v  -0.0000 -0.1780 0.0000
v  -0.0000 -0.1780 0.0000
v  -0.0000 -0.1780 0.0000
v  -0.0000 -0.1780 0.0000
v  -0.0000 -0.1780 0.0000
v  -0.0000 -0.1780 0.0000
v  -0.0000 -0.1780 0.0000
v  0.0886 -0.0647 -0.0834
v  0.0886 -0.0647 -0.0834
v  0.0886 -0.0647 -0.0834
v  0.0863 0.1780 -0.0000
v  0.0863 0.1780 -0.0000
v  0.0863 0.1780 -0.0000
v  0.0610 0.1780 -0.1743
v  0.0610 0.1780 -0.1743
v  0.0610 0.1780 -0.1743
v  0.0000 0.1780 -0.2465
v  0.0000 0.1780 -0.2465
v  0.0000 0.1780 -0.2465
v  0.1174 0.1388 -0.1102
v  0.1174 0.1388 -0.1102
v  0.1174 0.1388 -0.1102
v  0.1172 0.1389 0.1134
v  0.1172 0.1389 0.1134
v  0.1172 0.1389 0.1134
v  0.1680 0.0700 -0.0000
v  0.1680 0.0700 -0.0000
v  0.1680 0.0700 -0.0000
v  0.1680 0.0700 -0.0000
v  0.1198 0.0559 0.2799
v  0.1198 0.0559 0.2799
v  0.1198 0.0559 0.2799
v  0.1198 0.0559 0.2799
v  0.1551 0.0561 0.1488
v  0.1551 0.0561 0.1488
v  0.1551 0.0561 0.1488
v  0.1551 0.0699 0.1488
v  0.1551 0.0699 0.1488
v  0.1551 0.0699 0.1488
v  0.1198 0.0697 0.2799
v  0.1198 0.0697 0.2799
v  0.1198 0.0697 0.2799
v  0.0570 0.1402 -0.3188
v  0.0570 0.1402 -0.3188
v  0.0570 0.1402 -0.3188
v  0.0570 0.1402 -0.3188
v  0.0681 0.0561 -0.3771
v  0.0681 0.0561 -0.3771
v  0.0681 0.0561 -0.3771
v  0.0000 0.0563 -0.4709
v  0.0000 0.0563 -0.4709
v  0.0000 0.0563 -0.4709
v  0.0000 0.0563 -0.4709
v  0.0000 0.0700 -0.4709
v  0.0000 0.0700 -0.4709
v  0.0000 0.0700 -0.4709
v  0.0000 0.0700 -0.4709
v  0.0681 0.0699 -0.3771
v  0.0681 0.0699 -0.3771
v  0.0681 0.0699 -0.3771
v  -0.0657 0.0559 -0.3770
v  -0.0657 0.0559 -0.3770
v  -0.0657 0.0559 -0.3770
v  -0.0657 0.0697 -0.3770
v  -0.0657 0.0697 -0.3770
v  -0.0657 0.0697 -0.3770
v  -0.1188 0.0699 0.2798
v  -0.1188 0.0699 0.2798
v  -0.1188 0.0699 0.2798
v  -0.1188 0.0562 0.2798
v  -0.1188 0.0562 0.2798
v  -0.1188 0.0562 0.2798
v  -0.1188 0.0562 0.2798
v  -0.0658 0.0561 0.3883
v  -0.0658 0.0561 0.3883
v  -0.0658 0.0561 0.3883
v  0.0000 0.0563 0.4709
v  0.0000 0.0563 0.4709
v  0.0000 0.0563 0.4709
v  0.0000 0.0563 0.4709
v  0.0000 0.0700 0.4709
v  0.0000 0.0700 0.4709
v  0.0000 0.0700 0.4709
v  0.0000 0.0700 0.4709
v  -0.0658 0.0699 0.3883
v  -0.0658 0.0699 0.3883
v  -0.0658 0.0699 0.3883
v  0.0398 -0.0647 0.2299
v  0.0398 -0.0647 0.2299
v  0.0398 -0.0647 0.2299
v  0.0681 0.0561 0.3882
v  0.0681 0.0561 0.3882
v  0.0681 0.0561 0.3882
v  0.0681 0.0699 0.3882
v  0.0681 0.0699 0.3882
v  0.0681 0.0699 0.3882
v  -0.0387 -0.0646 0.2298
v  -0.0387 -0.0646 0.2298
v  -0.0387 -0.0646 0.2298
v  -0.0889 -0.0644 0.0877
v  -0.0889 -0.0644 0.0877
v  -0.0889 -0.0644 0.0877
v  -0.0880 -0.0647 -0.0835
v  -0.0880 -0.0647 -0.0835
v  -0.0880 -0.0647 -0.0835
v  -0.0387 -0.0647 -0.2253
v  -0.0387 -0.0647 -0.2253
v  -0.0387 -0.0647 -0.2253
v  0.0398 -0.0646 -0.2252
v  0.0398 -0.0646 -0.2252
v  0.0398 -0.0646 -0.2252
# 248 vertices

vn 0.9593 0.0000 -0.2826
vn 0.9593 0.0000 -0.2826
vn 0.9593 0.0000 -0.2826
vn 0.9593 0.0000 -0.2826
vn 0.9593 0.0000 -0.2826
vn 0.9593 0.0000 -0.2826
vn -0.7789 0.5857 -0.2242
vn -0.8025 0.5496 -0.2325
vn -0.7743 0.5915 -0.2251
vn -0.7743 0.5915 -0.2251
vn -0.7113 0.6726 -0.2041
vn -0.7789 0.5857 -0.2242
vn -0.9593 0.0000 -0.2825
vn -0.9593 0.0000 -0.2825
vn -0.9593 0.0000 -0.2825
vn -0.9593 0.0000 -0.2825
vn -0.9593 0.0000 -0.2825
vn -0.9593 0.0000 -0.2825
vn -0.9958 0.0000 0.0918
vn -0.9958 0.0000 0.0918
vn -0.9958 0.0000 0.0918
vn -0.9958 0.0000 0.0918
vn -0.9958 0.0000 0.0918
vn -0.9958 0.0000 0.0918
vn -0.6402 0.7626 0.0928
vn -0.6402 0.7626 0.0928
vn -0.6402 0.7626 0.0928
vn -0.2907 0.9248 0.2456
vn -0.2907 0.9248 0.2456
vn -0.2907 0.9248 0.2456
vn 0.8126 -0.5829 -0.0002
vn 0.7873 -0.6165 -0.0003
vn 0.8126 -0.5828 -0.0002
vn 0.8126 -0.5828 -0.0002
vn 0.8363 -0.5482 -0.0001
vn 0.8126 -0.5829 -0.0002
vn 0.0000 1.0000 -0.0000
vn 0.0000 1.0000 -0.0000
vn 0.0000 1.0000 -0.0000
vn 0.0000 1.0000 -0.0000
vn 0.0000 1.0000 -0.0000
vn 0.0000 1.0000 -0.0000
vn 0.0000 1.0000 -0.0000
vn 0.0000 1.0000 -0.0000
vn 0.0000 1.0000 -0.0000
vn 0.0000 1.0000 -0.0000
vn 0.0000 1.0000 -0.0000
vn 0.0000 1.0000 -0.0000
vn 0.0000 1.0000 -0.0000
vn 0.0000 1.0000 -0.0000
vn 0.0000 1.0000 -0.0000
vn 0.0000 1.0000 -0.0000
vn 0.0000 1.0000 -0.0000
vn 0.0000 1.0000 -0.0000
vn 0.7968 0.6043 0.0005
vn 0.7835 0.6213 0.0005
vn 0.7968 0.6043 0.0005
vn 0.7968 0.6043 0.0005
vn 0.8051 0.5931 0.0006
vn 0.7968 0.6043 0.0005
vn 0.9656 0.0000 0.2600
vn 0.9656 0.0000 0.2600
vn 0.9656 0.0000 0.2600
vn 0.9656 0.0000 0.2600
vn 0.9656 0.0000 0.2600
vn 0.9656 0.0000 0.2600
vn 0.7758 0.5978 0.2020
vn 0.7585 0.6060 0.2396
vn 0.7435 0.6282 0.2295
vn 0.7435 0.6282 0.2295
vn 0.7860 0.5942 0.1710
vn 0.7758 0.5978 0.2020
vn 0.6337 0.7681 0.0919
vn 0.6337 0.7681 0.0919
vn 0.6337 0.7681 0.0919
vn -0.2996 0.9199 -0.2531
vn -0.2996 0.9199 -0.2531
vn -0.2996 0.9199 -0.2531
vn 0.7724 0.5947 -0.2231
vn 0.8054 0.5458 -0.2313
vn 0.7790 0.5867 -0.2214
vn 0.7790 0.5867 -0.2214
vn 0.7009 0.6852 -0.1982
vn 0.7724 0.5947 -0.2231
vn 0.9961 0.0000 -0.0880
vn 0.9961 0.0000 -0.0880
vn 0.9961 0.0000 -0.0880
vn 0.9961 0.0000 -0.0880
vn 0.9961 0.0000 -0.0880
vn 0.9961 0.0000 -0.0880
vn -0.6441 0.7592 -0.0934
vn -0.6441 0.7592 -0.0934
vn -0.6441 0.7592 -0.0934
vn 0.8097 0.0000 -0.5869
vn 0.8097 0.0000 -0.5869
vn 0.8097 0.0000 -0.5869
vn 0.8097 0.0000 -0.5869
vn 0.8097 0.0000 -0.5869
vn 0.8097 0.0000 -0.5869
vn 0.9082 0.0000 -0.4184
vn 0.9082 0.0000 -0.4184
vn 0.9082 0.0000 -0.4184
vn 0.9082 0.0000 -0.4184
vn 0.9082 0.0000 -0.4184
vn 0.9082 0.0000 -0.4184
vn -0.9043 0.0000 -0.4270
vn -0.9043 0.0000 -0.4270
vn -0.9043 0.0000 -0.4270
vn -0.9043 0.0000 -0.4270
vn -0.9043 0.0000 -0.4270
vn -0.9043 0.0000 -0.4270
vn -0.8193 0.0001 -0.5733
vn -0.8193 0.0000 -0.5733
vn -0.8193 0.0000 -0.5733
vn -0.8193 0.0000 -0.5733
vn -0.8193 0.0001 -0.5733
vn -0.8193 0.0001 -0.5733
vn -0.7690 0.6023 0.2144
vn -0.7922 0.5678 0.2237
vn -0.7672 0.6029 0.2188
vn -0.7672 0.6029 0.2188
vn -0.7021 0.6835 0.1996
vn -0.7690 0.6023 0.2144
vn -0.9955 0.0000 -0.0952
vn -0.9955 0.0000 -0.0952
vn -0.9955 0.0000 -0.0952
vn -0.9955 0.0000 -0.0952
vn -0.9955 0.0000 -0.0952
vn -0.9955 0.0000 -0.0952
vn -0.7971 0.6039 -0.0000
vn -0.8002 0.5998 -0.0000
vn -0.7971 0.6039 -0.0000
vn -0.7971 0.6039 -0.0000
vn -0.7922 0.6103 -0.0000
vn -0.7971 0.6039 -0.0000
vn -0.9652 0.0000 0.2616
vn -0.9652 0.0000 0.2616
vn -0.9652 0.0000 0.2616
vn -0.9652 0.0000 0.2616
vn -0.9652 0.0000 0.2616
vn -0.9652 0.0000 0.2616
vn -0.7826 0.0000 0.6225
vn -0.7826 0.0000 0.6225
vn -0.7826 0.0000 0.6225
vn -0.7826 0.0000 0.6225
vn -0.7826 0.0000 0.6225
vn -0.7826 0.0000 0.6225
vn 0.2864 0.9271 0.2420
vn 0.2864 0.9271 0.2420
vn 0.2864 0.9271 0.2420
vn -0.0011 0.9008 0.4342
vn -0.0011 0.9029 0.4299
vn -0.0011 0.9008 0.4342
vn -0.0011 0.9008 0.4342
vn -0.0011 0.8982 0.4396
vn -0.0011 0.9008 0.4342
vn 0.7309 -0.6346 0.2512
vn 0.6712 -0.7044 0.2309
vn 0.6947 -0.6785 0.2389
vn 0.6947 -0.6785 0.2389
vn 0.7522 -0.6062 0.2584
vn 0.7309 -0.6346 0.2512
vn 0.9963 0.0000 0.0860
vn 0.9963 0.0000 0.0860
vn 0.9963 0.0000 0.0860
vn 0.9963 0.0000 0.0860
vn 0.9963 0.0000 0.0860
vn 0.9963 0.0000 0.0860
vn -0.0012 0.8989 -0.4382
vn -0.0013 0.9083 -0.4183
vn -0.0012 0.8989 -0.4382
vn -0.0012 0.8989 -0.4382
vn -0.0011 0.8861 -0.4635
vn -0.0012 0.8989 -0.4382
vn 0.6364 0.7658 -0.0923
vn 0.6364 0.7658 -0.0923
vn 0.6364 0.7658 -0.0923
vn 0.2948 0.9225 -0.2491
vn 0.2948 0.9225 -0.2491
vn 0.2948 0.9225 -0.2491
vn -0.8985 0.0000 0.4391
vn -0.8985 0.0000 0.4391
vn -0.8985 0.0000 0.4391
vn -0.8985 0.0000 0.4391
vn -0.8985 0.0000 0.4391
vn -0.8985 0.0000 0.4391
vn 0.7724 0.0000 0.6352
vn 0.7724 0.0000 0.6352
vn 0.7724 0.0000 0.6352
vn 0.7724 0.0000 0.6352
vn 0.7724 0.0000 0.6352
vn 0.7724 0.0000 0.6352
vn 0.9022 0.0000 0.4313
vn 0.9022 0.0000 0.4313
vn 0.9022 0.0000 0.4313
vn 0.9022 0.0000 0.4313
vn 0.9022 0.0000 0.4313
vn 0.9022 0.0000 0.4313
vn 0.7956 0.4723 0.3795
vn 0.7956 0.4723 0.3795
vn 0.7956 0.4723 0.3795
vn 0.6326 0.5747 0.5192
vn 0.6326 0.5747 0.5192
vn 0.6326 0.5747 0.5192
vn -0.6460 0.5655 0.5127
vn -0.6460 0.5655 0.5127
vn -0.6460 0.5655 0.5127
vn -0.7920 0.4720 0.3873
vn -0.7920 0.4720 0.3873
vn -0.7920 0.4720 0.3873
vn -0.8033 0.5543 0.2179
vn -0.7922 0.5678 0.2237
vn -0.7690 0.6023 0.2144
vn -0.8558 0.5112 0.0791
vn -0.8558 0.5112 0.0791
vn -0.8558 0.5112 0.0791
vn -0.8560 0.5104 -0.0820
vn -0.8560 0.5104 -0.0820
vn -0.8560 0.5104 -0.0820
vn -0.8025 0.5496 -0.2325
vn -0.7977 0.5553 -0.2351
vn -0.7743 0.5915 -0.2251
vn -0.8129 0.4372 -0.3847
vn -0.8129 0.4372 -0.3847
vn -0.8129 0.4372 -0.3847
vn -0.7056 0.5101 -0.4919
vn -0.7056 0.5101 -0.4919
vn -0.7056 0.5101 -0.4919
vn 0.6906 0.5227 -0.4999
vn 0.6906 0.5227 -0.4999
vn 0.6906 0.5227 -0.4999
vn 0.8163 0.4391 -0.3753
vn 0.8163 0.4391 -0.3753
vn 0.8163 0.4391 -0.3753
vn 0.7976 0.5553 -0.2357
vn 0.8054 0.5458 -0.2313
vn 0.7724 0.5947 -0.2231
vn 0.8576 0.5086 -0.0764
vn 0.8576 0.5086 -0.0764
vn 0.8576 0.5086 -0.0764
vn 0.8572 0.5096 0.0746
vn 0.8572 0.5096 0.0746
vn 0.8572 0.5096 0.0746
vn 0.7758 0.5978 0.2020
vn 0.8041 0.5534 0.2171
vn 0.7585 0.6060 0.2396
vn -0.5544 -0.7050 0.4423
vn -0.5544 -0.7050 0.4423
vn -0.5544 -0.7050 0.4423
vn -0.7284 -0.6354 0.2564
vn -0.7499 -0.6066 0.2641
vn -0.6925 -0.6790 0.2437
vn -0.6925 -0.6790 0.2437
vn -0.6689 -0.7052 0.2353
vn -0.7284 -0.6354 0.2564
vn -0.8127 -0.5827 -0.0031
vn -0.8353 -0.5498 -0.0032
vn -0.8125 -0.5829 -0.0031
vn -0.8125 -0.5829 -0.0031
vn -0.7886 -0.6150 -0.0029
vn -0.8127 -0.5827 -0.0031
vn -0.6057 -0.6720 -0.4261
vn -0.6057 -0.6720 -0.4261
vn -0.6057 -0.6720 -0.4261
vn 0.7014 -0.6705 -0.2417
vn 0.6752 -0.7000 -0.2327
vn 0.7386 -0.6242 -0.2545
vn 0.7386 -0.6242 -0.2545
vn 0.7623 -0.5916 -0.2626
vn 0.7014 -0.6705 -0.2417
vn 0.8576 -0.5091 0.0733
vn 0.8576 -0.5091 0.0733
vn 0.8576 -0.5091 0.0733
vn 0.7119 -0.6138 0.3414
vn 0.7119 -0.6138 0.3414
vn 0.7119 -0.6138 0.3414
vn 0.7967 -0.5573 -0.2339
vn 0.7967 -0.5573 -0.2339
vn 0.7967 -0.5573 -0.2339
vn 0.8569 -0.5099 -0.0752
vn 0.8569 -0.5099 -0.0752
vn 0.8569 -0.5099 -0.0752
vn 0.0008 -0.8953 -0.4455
vn 0.0008 -0.8934 -0.4493
vn 0.0008 -0.8953 -0.4454
vn 0.0008 -0.8953 -0.4454
vn 0.0008 -0.8972 -0.4416
vn 0.0008 -0.8953 -0.4455
vn 0.7299 -0.5945 -0.3373
vn 0.7299 -0.5945 -0.3373
vn 0.7299 -0.5945 -0.3373
vn -0.7981 -0.5550 -0.2347
vn -0.7981 -0.5550 -0.2347
vn -0.7981 -0.5550 -0.2347
vn 0.5931 -0.6802 -0.4308
vn 0.5931 -0.6802 -0.4308
vn 0.5931 -0.6802 -0.4308
vn -0.8592 -0.5055 0.0790
vn -0.8592 -0.5055 0.0790
vn -0.8592 -0.5055 0.0790
vn -0.7278 -0.5941 -0.3425
vn -0.7278 -0.5941 -0.3425
vn -0.7278 -0.5941 -0.3425
vn -0.7094 -0.6138 0.3464
vn -0.7094 -0.6138 0.3464
vn -0.7094 -0.6138 0.3464
vn -0.8565 -0.5096 -0.0817
vn -0.8565 -0.5096 -0.0817
vn -0.8565 -0.5096 -0.0817
vn 0.5418 -0.7120 0.4467
vn 0.5418 -0.7120 0.4467
vn 0.5418 -0.7120 0.4467
vn -0.8072 -0.5483 0.2186
vn -0.8072 -0.5483 0.2186
vn -0.8072 -0.5483 0.2186
vn 0.8050 -0.5525 0.2161
vn 0.8050 -0.5525 0.2161
vn 0.8050 -0.5525 0.2161
vn -0.0017 -0.8954 0.4452
vn -0.0017 -0.8969 0.4422
vn -0.0017 -0.8954 0.4452
vn -0.0017 -0.8954 0.4452
vn -0.0017 -0.8939 0.4482
vn -0.0017 -0.8954 0.4452
vn -0.7401 -0.6328 -0.2276
vn -0.7993 -0.5806 -0.1548
vn -0.6947 -0.6643 -0.2758
vn -0.6947 -0.6643 -0.2758
vn -0.5665 -0.7267 -0.3886
vn -0.7401 -0.6328 -0.2276
# 330 vertex normals

vt 0.6536 0.6015 0.0000
vt 0.7810 0.6012 0.0000
vt 0.7810 0.6261 0.0000
vt 0.6536 0.6264 0.0000
vt 0.6169 0.7512 0.0000
vt 0.6850 0.8219 0.0000
vt 0.8387 0.7531 0.0000
vt 0.7809 0.6265 0.0000
vt 0.7809 0.6016 0.0000
vt 0.6536 0.6017 0.0000
vt 0.6536 0.6266 0.0000
vt 0.5000 0.6017 0.0000
vt 0.3418 0.6016 0.0000
vt 0.3418 0.6266 0.0000
vt 0.5000 0.6267 0.0000
vt 0.9003 0.6012 0.0000
vt 0.4325 0.3150 0.0000
vt 0.4046 0.5000 0.0000
vt 0.3713 0.3797 0.0000
vt 0.5000 0.2383 0.0000
vt 0.4387 0.1560 0.0000
vt 0.5675 0.3150 0.0000
vt 0.5886 0.3830 0.0000
vt 0.5000 0.6017 0.0000
vt 0.4071 0.3825 0.0000
vt 0.5954 0.5000 0.0000
vt 0.5675 0.6850 0.0000
vt 0.5000 0.7617 0.0000
vt 0.5000 0.1781 0.0000
vt 0.4325 0.6850 0.0000
vt 0.3796 0.7512 0.0000
vt 0.6296 0.3796 0.0000
vt 0.5000 0.6267 0.0000
vt 0.6170 0.7511 0.0000
vt 0.4387 0.8387 0.0000
vt 0.3713 0.6169 0.0000
vt 0.5000 0.8219 0.0000
vt 0.2029 0.6012 0.0000
vt 0.5631 0.1561 0.0000
vt 0.3420 0.6014 0.0000
vt 0.3420 0.6264 0.0000
vt 0.2029 0.6261 0.0000
vt 0.3150 0.8219 0.0000
vt 0.1561 0.7534 0.0000
vt 0.8385 0.7536 0.0000
vt 0.6850 0.8219 0.0000
vt 0.9003 0.6015 0.0000
vt 1.0000 0.6017 0.0000
vt 1.0000 0.6267 0.0000
vt 0.9003 0.6265 0.0000
vt 0.2559 0.3830 0.0000
vt 0.5000 0.0000 0.0000
vt 0.5631 0.8385 0.0000
vt 0.5000 1.0000 0.0000
vt 0.6298 0.6170 0.0000
vt 0.4572 0.2560 0.0000
vt 0.5000 0.0000 0.0000
vt 0.0000 0.6017 0.0000
vt 0.0879 0.6015 0.0000
vt 0.0879 0.6264 0.0000
vt 0.0000 0.6267 0.0000
vt 0.7391 0.3831 0.0000
vt 0.9003 0.6261 0.0000
vt 1.0000 0.6017 0.0000
vt 0.4273 0.0878 0.0000
vt 0.4016 0.4068 0.0000
vt 0.5000 0.5000 0.0000
vt 1.0000 0.6267 0.0000
vt 0.1560 0.7531 0.0000
vt 0.3150 0.8219 0.0000
vt 0.3797 0.7512 0.0000
vt 0.2029 0.6265 0.0000
vt 0.5000 0.8219 0.0000
vt 0.2029 0.6016 0.0000
vt 0.0878 0.6015 0.0000
vt 0.0000 0.6017 0.0000
vt 0.0000 0.6267 0.0000
vt 0.0878 0.6264 0.0000
vt 0.5886 0.3830 0.0000
vt 0.5000 0.1781 0.0000
vt 0.4068 0.3836 0.0000
vt 0.7392 0.3831 0.0000
vt 0.2560 0.3832 0.0000
vt 0.3686 0.2029 0.0000
vt 0.4572 0.7392 0.0000
vt 0.4273 0.9003 0.0000
vt 0.5000 1.0000 0.0000
vt 0.5441 0.7391 0.0000
vt 0.5753 0.9003 0.0000
vt 0.5440 0.2559 0.0000
vt 0.5753 0.0879 0.0000
vt 0.4026 0.5886 0.0000
vt 0.3686 0.7809 0.0000
# 93 texture coords

g marquise
usemtl Material__25
f 67/3/1 4/4/2 1/1/3 
f 1/1/4 64/2/5 67/3/6 
f 80/7/7 83/8/8 5/5/9 
f 5/5/10 76/6/11 80/7/12 
f 91/11/13 82/8/14 87/9/15 
f 87/9/16 90/10/17 91/11/18 
f 103/14/19 105/15/20 96/12/21 
f 96/12/22 100/13/23 103/14/24 
f 17/17/25 108/18/26 114/19/27 
f 19/20/28 112/17/29 123/21/30 
f 137/25/31 144/29/32 145/23/33 
f 145/23/34 133/24/35 137/25/36 
f 113/17/37 119/20/38 126/22/39 
f 153/27/40 29/28/41 74/30/42 
f 153/27/43 74/30/44 109/18/45 
f 150/26/46 153/27/47 109/18/48 
f 126/22/49 150/26/50 109/18/51 
f 113/17/52 126/22/53 109/18/54 
f 157/34/55 148/37/56 161/31/57 
f 161/31/58 163/33/59 157/34/60 
f 174/41/61 178/42/62 167/38/63 
f 167/38/64 171/40/65 174/41/66 
f 179/42/67 31/31/68 124/43/69 
f 124/43/70 129/44/71 179/42/72 
f 162/32/73 27/26/74 125/22/75 
f 7/35/76 75/30/77 156/28/78 
f 159/34/79 66/3/80 183/45/81 
f 183/45/82 151/46/83 159/34/84 
f 70/4/85 166/33/86 23/24/87 
f 23/24/88 58/1/89 70/4/90 
f 73/36/91 110/18/92 6/30/93 
f 192/49/94 195/50/95 185/47/96 
f 185/47/97 190/48/98 192/49/99 
f 41/50/100 3/3/101 63/2/102 
f 63/2/103 186/47/104 41/50/105 
f 81/8/106 202/63/107 42/16/108 
f 42/16/109 9/9/110 81/8/111 
f 201/63/112 193/68/113 189/64/114 
f 189/64/115 198/16/116 201/63/117 
f 18/71/118 206/72/119 20/69/120 
f 20/69/121 111/70/122 18/71/123 
f 104/15/124 92/11/125 89/10/126 
f 89/10/127 97/12/128 104/15/129 
f 72/5/130 107/15/131 115/71/132 
f 115/71/133 16/73/134 72/5/135 
f 99/13/136 210/74/137 44/72/138 
f 44/72/139 14/14/140 99/13/141 
f 218/77/142 223/78/143 212/75/144 
f 212/75/145 217/76/146 218/77/147 
f 130/39/148 21/22/149 118/20/150 
f 122/21/151 221/52/152 22/39/153 
f 22/39/154 117/20/155 122/21/156 
f 50/51/157 25/29/158 136/25/159 
f 136/25/160 170/38/161 50/51/162 
f 165/33/163 175/41/164 34/40/165 
f 34/40/166 131/24/167 165/33/168 
f 181/53/169 40/54/170 77/35/171 
f 77/35/172 155/28/173 181/53/174 
f 28/27/175 149/26/176 30/55/177 
f 152/27/178 182/53/179 154/28/180 
f 222/78/181 204/72/182 209/74/183 
f 209/74/184 213/75/185 222/78/186 
f 231/60/187 219/61/188 216/58/189 
f 216/58/190 228/59/191 231/60/192 
f 177/42/193 232/60/194 51/59/195 
f 51/59/196 168/38/197 177/42/198 
f 233/60/199 36/42/200 128/44/201 
f 220/61/202 52/60/203 127/44/204 
f 224/78/205 48/77/206 121/69/207 
f 205/72/208 49/78/209 120/69/210 
f 101/14/211 206/72/212 18/71/213 
f 106/15/214 102/14/215 116/71/216 
f 93/11/217 15/15/218 71/5/219 
f 83/8/220 11/11/221 5/5/222 
f 203/63/223 8/8/224 79/7/225 
f 194/68/226 43/63/227 78/7/228 
f 196/50/229 191/49/230 180/45/231 
f 65/3/232 197/50/233 37/45/234 
f 68/4/235 66/3/236 159/34/237 
f 32/33/238 69/4/239 158/34/240 
f 176/41/241 164/33/242 160/31/243 
f 179/42/244 35/41/245 31/31/246 
f 234/56/247 47/57/248 211/65/249 
f 236/56/250 207/84/251 237/66/252 
f 237/66/253 139/67/254 236/56/255 
f 54/81/256 94/12/257 240/79/258 
f 240/79/259 140/80/260 54/81/261 
f 243/85/262 199/86/263 188/87/264 
f 146/23/265 143/29/266 57/62/267 
f 57/62/268 61/2/269 146/23/270 
f 24/25/271 132/24/272 173/40/273 
f 225/51/274 169/38/275 230/59/276 
f 147/23/277 2/2/278 60/1/279 
f 26/23/280 59/1/281 134/24/282 
f 246/88/283 142/67/284 244/85/285 
f 244/85/286 187/87/287 246/88/288 
f 248/62/289 38/47/290 62/2/291 
f 242/79/292 10/10/293 86/9/294 
f 247/88/295 39/87/296 184/89/297 
f 239/81/298 13/13/299 95/12/300 
f 56/82/301 84/9/302 200/16/303 
f 235/83/304 46/75/305 208/74/306 
f 241/79/307 12/12/308 88/10/309 
f 226/90/310 229/91/311 215/57/312 
f 238/81/313 45/74/314 98/13/315 
f 135/25/316 172/40/317 33/38/318 
f 53/56/319 138/67/320 227/90/321 
f 227/90/322 214/57/323 53/56/324 
f 85/93/325 245/85/326 141/67/327 
f 141/67/328 55/92/329 85/93/330 
# 110 faces

