# 3ds Max Wavefront OBJ Exporter v0.97b - (c)2007 guruware
# File Created: 08.04.2017 12:35:02

mtllib pear.mtl

#
# object pear
#

v  0.2401 0.0487 0.0175
v  0.1855 0.0487 -0.1582
v  0.1855 0.0628 -0.1582
v  0.2401 0.0627 0.0175
v  -0.1977 0.1341 0.0459
v  -0.1002 0.1729 -0.0423
v  -0.0867 0.1337 -0.2302
v  -0.1838 0.0627 -0.1582
v  -0.1838 0.0487 -0.1582
v  -0.2387 0.0487 0.0175
v  -0.2387 0.0627 0.0175
v  -0.2600 0.0489 0.1769
v  -0.2387 0.0483 0.2752
v  -0.2387 0.0623 0.2752
v  -0.2600 0.0629 0.1769
v  -0.1335 0.1729 0.1769
v  -0.0944 0.1729 0.2700
v  -0.1801 0.1344 0.2503
v  0.0000 0.1729 0.3082
v  -0.0758 0.1334 0.3518
v  0.0944 0.1729 0.2700
v  0.0774 0.1335 0.3518
v  0.2600 0.0489 0.1769
v  0.1234 -0.0733 0.2278
v  -0.0000 -0.1729 0.1760
v  0.1327 -0.0745 0.0859
v  0.1335 0.1729 0.1769
v  0.0915 0.1729 -0.0425
v  0.0000 0.1729 -0.1392
v  0.1961 0.1340 0.0459
v  0.1803 0.1344 0.2503
v  0.2600 0.0629 0.1769
v  0.1855 0.0482 0.3553
v  0.2401 0.0483 0.2750
v  0.2401 0.0623 0.2750
v  0.1855 0.0623 0.3553
v  0.0879 0.1337 -0.2303
v  0.1053 0.0487 -0.2982
v  0.0000 0.0489 -0.4271
v  0.0000 0.0629 -0.4271
v  0.1053 0.0627 -0.2982
v  -0.1018 0.0487 -0.2982
v  -0.1018 0.0627 -0.2982
v  -0.1838 0.0623 0.3556
v  -0.1838 0.0483 0.3556
v  -0.1018 0.0485 0.4102
v  0.0000 0.0485 0.4271
v  0.0000 0.0625 0.4271
v  -0.1018 0.0625 0.4102
v  0.0511 -0.0757 0.2960
v  0.1054 0.0485 0.4101
v  0.1054 0.0626 0.4101
v  -0.0515 -0.0753 0.2964
v  -0.1227 -0.0734 0.2278
v  -0.1323 -0.0744 0.0859
v  -0.0603 -0.0744 -0.1162
v  0.0591 -0.0743 -0.1161
v  0.2401 0.0487 0.0175
v  0.2401 0.0487 0.0175
v  0.2401 0.0487 0.0175
v  0.1855 0.0487 -0.1582
v  0.1855 0.0487 -0.1582
v  0.1855 0.0487 -0.1582
v  0.1855 0.0487 -0.1582
v  0.1855 0.0628 -0.1582
v  0.1855 0.0628 -0.1582
v  0.1855 0.0628 -0.1582
v  0.1855 0.0628 -0.1582
v  0.2401 0.0627 0.0175
v  0.2401 0.0627 0.0175
v  0.2401 0.0627 0.0175
v  -0.1977 0.1341 0.0459
v  -0.1977 0.1341 0.0459
v  -0.1977 0.1341 0.0459
v  -0.1977 0.1341 0.0459
v  -0.1002 0.1729 -0.0423
v  -0.1002 0.1729 -0.0423
v  -0.1002 0.1729 -0.0423
v  -0.0867 0.1337 -0.2302
v  -0.0867 0.1337 -0.2302
v  -0.0867 0.1337 -0.2302
v  -0.0867 0.1337 -0.2302
v  -0.1838 0.0627 -0.1582
v  -0.1838 0.0627 -0.1582
v  -0.1838 0.0627 -0.1582
v  -0.1838 0.0627 -0.1582
v  -0.1838 0.0487 -0.1582
v  -0.1838 0.0487 -0.1582
v  -0.1838 0.0487 -0.1582
v  -0.1838 0.0487 -0.1582
v  -0.2387 0.0487 0.0175
v  -0.2387 0.0487 0.0175
v  -0.2387 0.0487 0.0175
v  -0.2387 0.0627 0.0175
v  -0.2387 0.0627 0.0175
v  -0.2387 0.0627 0.0175
v  -0.2600 0.0489 0.1769
v  -0.2600 0.0489 0.1769
v  -0.2600 0.0489 0.1769
v  -0.2600 0.0489 0.1769
v  -0.2387 0.0483 0.2752
v  -0.2387 0.0483 0.2752
v  -0.2387 0.0483 0.2752
v  -0.2387 0.0623 0.2752
v  -0.2387 0.0623 0.2752
v  -0.2387 0.0623 0.2752
v  -0.2600 0.0629 0.1769
v  -0.2600 0.0629 0.1769
v  -0.2600 0.0629 0.1769
v  -0.2600 0.0629 0.1769
v  -0.1335 0.1729 0.1769
v  -0.1335 0.1729 0.1769
v  -0.1335 0.1729 0.1769
v  -0.0944 0.1729 0.2700
v  -0.0944 0.1729 0.2700
v  -0.0944 0.1729 0.2700
v  -0.1801 0.1344 0.2503
v  -0.1801 0.1344 0.2503
v  -0.1801 0.1344 0.2503
v  -0.1801 0.1344 0.2503
v  0.0000 0.1729 0.3082
v  0.0000 0.1729 0.3082
v  0.0000 0.1729 0.3082
v  -0.0758 0.1334 0.3518
v  -0.0758 0.1334 0.3518
v  -0.0758 0.1334 0.3518
v  -0.0758 0.1334 0.3518
v  0.0944 0.1729 0.2700
v  0.0944 0.1729 0.2700
v  0.0944 0.1729 0.2700
v  0.0774 0.1335 0.3518
v  0.0774 0.1335 0.3518
v  0.0774 0.1335 0.3518
v  0.0774 0.1335 0.3518
v  0.2600 0.0489 0.1769
v  0.2600 0.0489 0.1769
v  0.2600 0.0489 0.1769
v  0.2600 0.0489 0.1769
v  0.1234 -0.0733 0.2278
v  0.1234 -0.0733 0.2278
v  0.1234 -0.0733 0.2278
v  -0.0000 -0.1729 0.1760
v  -0.0000 -0.1729 0.1760
v  -0.0000 -0.1729 0.1760
v  -0.0000 -0.1729 0.1760
v  -0.0000 -0.1729 0.1760
v  -0.0000 -0.1729 0.1760
v  -0.0000 -0.1729 0.1760
v  0.1327 -0.0745 0.0859
v  0.1327 -0.0745 0.0859
v  0.1327 -0.0745 0.0859
v  0.1335 0.1729 0.1769
v  0.1335 0.1729 0.1769
v  0.1335 0.1729 0.1769
v  0.0915 0.1729 -0.0425
v  0.0915 0.1729 -0.0425
v  0.0915 0.1729 -0.0425
v  0.0000 0.1729 -0.1392
v  0.0000 0.1729 -0.1392
v  0.0000 0.1729 -0.1392
v  0.1961 0.1340 0.0459
v  0.1961 0.1340 0.0459
v  0.1961 0.1340 0.0459
v  0.1961 0.1340 0.0459
v  0.1803 0.1344 0.2503
v  0.1803 0.1344 0.2503
v  0.1803 0.1344 0.2503
v  0.1803 0.1344 0.2503
v  0.2600 0.0629 0.1769
v  0.2600 0.0629 0.1769
v  0.2600 0.0629 0.1769
v  0.2600 0.0629 0.1769
v  0.1855 0.0482 0.3553
v  0.1855 0.0482 0.3553
v  0.1855 0.0482 0.3553
v  0.1855 0.0482 0.3553
v  0.2401 0.0483 0.2750
v  0.2401 0.0483 0.2750
v  0.2401 0.0483 0.2750
v  0.2401 0.0623 0.2750
v  0.2401 0.0623 0.2750
v  0.2401 0.0623 0.2750
v  0.1855 0.0623 0.3553
v  0.1855 0.0623 0.3553
v  0.1855 0.0623 0.3553
v  0.1855 0.0623 0.3553
v  0.0879 0.1337 -0.2303
v  0.0879 0.1337 -0.2303
v  0.0879 0.1337 -0.2303
v  0.0879 0.1337 -0.2303
v  0.1053 0.0487 -0.2982
v  0.1053 0.0487 -0.2982
v  0.1053 0.0487 -0.2982
v  0.0000 0.0489 -0.4271
v  0.0000 0.0489 -0.4271
v  0.0000 0.0489 -0.4271
v  0.0000 0.0489 -0.4271
v  0.0000 0.0629 -0.4271
v  0.0000 0.0629 -0.4271
v  0.0000 0.0629 -0.4271
v  0.0000 0.0629 -0.4271
v  0.1053 0.0627 -0.2982
v  0.1053 0.0627 -0.2982
v  0.1053 0.0627 -0.2982
v  -0.1018 0.0487 -0.2982
v  -0.1018 0.0487 -0.2982
v  -0.1018 0.0487 -0.2982
v  -0.1018 0.0627 -0.2982
v  -0.1018 0.0627 -0.2982
v  -0.1018 0.0627 -0.2982
v  -0.1838 0.0623 0.3556
v  -0.1838 0.0623 0.3556
v  -0.1838 0.0623 0.3556
v  -0.1838 0.0623 0.3556
v  -0.1838 0.0483 0.3556
v  -0.1838 0.0483 0.3556
v  -0.1838 0.0483 0.3556
v  -0.1838 0.0483 0.3556
v  -0.1018 0.0485 0.4102
v  -0.1018 0.0485 0.4102
v  -0.1018 0.0485 0.4102
v  0.0000 0.0485 0.4271
v  0.0000 0.0485 0.4271
v  0.0000 0.0485 0.4271
v  0.0000 0.0485 0.4271
v  0.0000 0.0625 0.4271
v  0.0000 0.0625 0.4271
v  0.0000 0.0625 0.4271
v  0.0000 0.0625 0.4271
v  -0.1018 0.0625 0.4102
v  -0.1018 0.0625 0.4102
v  -0.1018 0.0625 0.4102
v  0.0511 -0.0757 0.2960
v  0.0511 -0.0757 0.2960
v  0.0511 -0.0757 0.2960
v  0.1054 0.0485 0.4101
v  0.1054 0.0485 0.4101
v  0.1054 0.0485 0.4101
v  0.1054 0.0626 0.4101
v  0.1054 0.0626 0.4101
v  0.1054 0.0626 0.4101
v  -0.0515 -0.0753 0.2964
v  -0.0515 -0.0753 0.2964
v  -0.0515 -0.0753 0.2964
v  -0.1227 -0.0734 0.2278
v  -0.1227 -0.0734 0.2278
v  -0.1227 -0.0734 0.2278
v  -0.1323 -0.0744 0.0859
v  -0.1323 -0.0744 0.0859
v  -0.1323 -0.0744 0.0859
v  -0.0603 -0.0744 -0.1162
v  -0.0603 -0.0744 -0.1162
v  -0.0603 -0.0744 -0.1162
v  0.0591 -0.0743 -0.1161
v  0.0591 -0.0743 -0.1161
v  0.0591 -0.0743 -0.1161
# 256 vertices

vn 0.9549 -0.0000 -0.2970
vn 0.9549 -0.0001 -0.2971
vn 0.9549 -0.0001 -0.2971
vn 0.9549 -0.0001 -0.2971
vn 0.9549 0.0000 -0.2970
vn 0.9549 -0.0000 -0.2970
vn -0.6399 0.7237 -0.2584
vn -0.6930 0.6644 -0.2797
vn -0.6041 0.7586 -0.2441
vn -0.6041 0.7586 -0.2441
vn -0.5193 0.8284 -0.2101
vn -0.6399 0.7237 -0.2584
vn -0.9545 0.0000 -0.2982
vn -0.9545 0.0000 -0.2982
vn -0.9545 0.0000 -0.2982
vn -0.9545 0.0000 -0.2982
vn -0.9545 0.0000 -0.2982
vn -0.9545 0.0000 -0.2982
vn -0.9774 0.0000 0.2114
vn -0.9774 0.0000 0.2114
vn -0.9774 0.0000 0.2114
vn -0.9774 0.0000 0.2114
vn -0.9774 0.0000 0.2114
vn -0.9774 0.0000 0.2114
vn -0.4178 0.9063 -0.0635
vn -0.4178 0.9063 -0.0635
vn -0.4178 0.9063 -0.0635
vn -0.4380 0.8800 0.1840
vn -0.4380 0.8800 0.1840
vn -0.4380 0.8800 0.1840
vn -0.1870 0.8670 0.4619
vn -0.1870 0.8670 0.4619
vn -0.1870 0.8670 0.4619
vn 0.1853 0.8696 0.4576
vn 0.1853 0.8696 0.4576
vn 0.1853 0.8696 0.4576
vn 0.6483 -0.7601 0.0443
vn 0.6438 -0.7552 0.1230
vn 0.6481 -0.7600 0.0478
vn 0.6481 -0.7600 0.0478
vn 0.6469 -0.7580 -0.0831
vn 0.6483 -0.7601 0.0443
vn 0.0000 1.0000 -0.0000
vn 0.0000 1.0000 -0.0000
vn 0.0000 1.0000 -0.0000
vn 0.0000 1.0000 -0.0000
vn 0.0000 1.0000 -0.0000
vn 0.0000 1.0000 -0.0000
vn 0.0000 1.0000 -0.0000
vn 0.0000 1.0000 -0.0000
vn 0.0000 1.0000 -0.0000
vn 0.0000 1.0000 -0.0000
vn 0.0000 1.0000 -0.0000
vn 0.0000 1.0000 -0.0000
vn 0.0000 1.0000 -0.0000
vn 0.0000 1.0000 -0.0000
vn 0.0000 1.0000 -0.0000
vn 0.0000 1.0000 -0.0000
vn 0.0000 1.0000 -0.0000
vn 0.0000 1.0000 -0.0000
vn 0.4042 0.9114 -0.0774
vn 0.4042 0.9114 -0.0774
vn 0.4042 0.9114 -0.0774
vn 0.6548 0.7542 0.0492
vn 0.5922 0.8046 0.0442
vn 0.6490 0.7592 0.0487
vn 0.6490 0.7592 0.0487
vn 0.6933 0.7188 0.0522
vn 0.6548 0.7542 0.0492
vn 0.8268 0.0000 0.5625
vn 0.8268 0.0000 0.5625
vn 0.8268 0.0000 0.5625
vn 0.8268 0.0000 0.5625
vn 0.8268 0.0000 0.5625
vn 0.8268 0.0000 0.5625
vn 0.4625 0.7479 0.4762
vn 0.4473 0.7472 0.4915
vn 0.4630 0.7479 0.4757
vn 0.4630 0.7479 0.4757
vn 0.4782 0.7482 0.4599
vn 0.4625 0.7479 0.4762
vn 0.4365 0.8808 0.1833
vn 0.4365 0.8808 0.1833
vn 0.4365 0.8808 0.1833
vn 0.5791 0.7828 -0.2277
vn 0.6893 0.6720 -0.2707
vn 0.6212 0.7447 -0.2441
vn 0.6212 0.7447 -0.2441
vn 0.4779 0.8581 -0.1881
vn 0.5791 0.7828 -0.2277
vn 0.9923 -0.0001 -0.1237
vn 0.9923 0.0000 -0.1237
vn 0.9923 -0.0000 -0.1237
vn 0.9923 -0.0000 -0.1237
vn 0.9923 -0.0001 -0.1237
vn 0.9923 -0.0001 -0.1237
vn 0.7745 0.0000 -0.6325
vn 0.7745 0.0000 -0.6325
vn 0.7745 0.0000 -0.6325
vn 0.7745 0.0000 -0.6325
vn 0.7745 0.0000 -0.6325
vn 0.7745 0.0000 -0.6325
vn 0.8678 0.0000 -0.4970
vn 0.8678 0.0000 -0.4970
vn 0.8678 0.0000 -0.4970
vn 0.8678 0.0000 -0.4970
vn 0.8678 0.0000 -0.4970
vn 0.8678 0.0000 -0.4970
vn -0.8627 0.0000 -0.5057
vn -0.8627 0.0000 -0.5057
vn -0.8627 0.0000 -0.5057
vn -0.8627 0.0000 -0.5057
vn -0.8627 0.0000 -0.5057
vn -0.8627 0.0000 -0.5057
vn -0.7849 0.0000 -0.6196
vn -0.7849 0.0000 -0.6196
vn -0.7849 0.0000 -0.6196
vn -0.7849 0.0000 -0.6196
vn -0.7849 0.0001 -0.6197
vn -0.7849 0.0000 -0.6196
vn -0.4601 0.7466 0.4805
vn -0.4673 0.7373 0.4879
vn -0.4599 0.7469 0.4803
vn -0.4599 0.7469 0.4803
vn -0.4495 0.7597 0.4698
vn -0.4601 0.7466 0.4805
vn -0.9912 0.0000 -0.1323
vn -0.9912 0.0000 -0.1323
vn -0.9912 0.0000 -0.1323
vn -0.9912 0.0000 -0.1323
vn -0.9912 0.0000 -0.1323
vn -0.9912 0.0000 -0.1323
vn -0.6547 0.7538 0.0556
vn -0.6951 0.7165 0.0591
vn -0.6483 0.7594 0.0550
vn -0.6483 0.7594 0.0550
vn -0.5889 0.8067 0.0498
vn -0.6547 0.7538 0.0556
vn -0.8259 0.0000 0.5638
vn -0.8259 0.0000 0.5638
vn -0.8259 0.0000 0.5638
vn -0.8259 0.0000 0.5638
vn -0.8259 0.0000 0.5638
vn -0.8259 0.0000 0.5638
vn -0.1637 -0.0001 0.9865
vn -0.1638 0.0000 0.9865
vn -0.1638 -0.0000 0.9865
vn -0.1638 -0.0000 0.9865
vn -0.1637 -0.0001 0.9865
vn -0.1637 -0.0001 0.9865
vn -0.0007 0.7335 0.6797
vn -0.0007 0.7281 0.6855
vn -0.0007 0.7334 0.6797
vn -0.0007 0.7334 0.6797
vn -0.0007 0.7411 0.6714
vn -0.0007 0.7335 0.6797
vn 0.4611 -0.7592 0.4593
vn 0.3863 -0.7544 0.5307
vn 0.4591 -0.7592 0.4613
vn 0.4591 -0.7592 0.4613
vn 0.5264 -0.7564 0.3882
vn 0.4611 -0.7592 0.4593
vn 0.9801 0.0000 0.1984
vn 0.9801 0.0000 0.1984
vn 0.9801 0.0000 0.1984
vn 0.9801 0.0000 0.1984
vn 0.9801 0.0000 0.1984
vn 0.9801 0.0000 0.1984
vn -0.0003 0.9320 -0.3624
vn -0.0003 0.9409 -0.3386
vn -0.0003 0.9320 -0.3625
vn -0.0003 0.9320 -0.3625
vn -0.0003 0.9186 -0.3952
vn -0.0003 0.9320 -0.3624
vn 0.2148 0.9553 -0.2033
vn 0.2148 0.9553 -0.2033
vn 0.2148 0.9553 -0.2033
vn -0.2069 0.9547 -0.2139
vn -0.2069 0.9547 -0.2139
vn -0.2069 0.9547 -0.2139
vn -0.5539 0.0000 0.8326
vn -0.5539 0.0000 0.8326
vn -0.5539 0.0000 0.8326
vn -0.5539 0.0000 0.8326
vn -0.5539 0.0000 0.8326
vn -0.5539 0.0000 0.8326
vn 0.1588 -0.0000 0.9873
vn 0.1588 -0.0001 0.9873
vn 0.1588 -0.0001 0.9873
vn 0.1588 -0.0001 0.9873
vn 0.1588 0.0000 0.9873
vn 0.1588 -0.0000 0.9873
vn 0.5648 0.0000 0.8252
vn 0.5648 0.0000 0.8252
vn 0.5648 0.0000 0.8252
vn 0.5648 0.0000 0.8252
vn 0.5648 0.0000 0.8252
vn 0.5648 0.0000 0.8252
vn 0.4214 0.6695 0.6118
vn 0.4214 0.6695 0.6118
vn 0.4214 0.6695 0.6118
vn 0.1192 0.6584 0.7432
vn 0.1192 0.6584 0.7432
vn 0.1192 0.6584 0.7432
vn -0.1233 0.6579 0.7429
vn -0.1233 0.6579 0.7429
vn -0.1233 0.6579 0.7429
vn -0.4149 0.6647 0.6213
vn -0.4149 0.6647 0.6213
vn -0.4149 0.6647 0.6213
vn -0.6240 0.6551 0.4260
vn -0.6240 0.6551 0.4260
vn -0.6240 0.6551 0.4260
vn -0.7368 0.6560 0.1633
vn -0.7368 0.6560 0.1633
vn -0.7368 0.6560 0.1633
vn -0.8417 0.5280 -0.1130
vn -0.8417 0.5280 -0.1130
vn -0.8417 0.5280 -0.1130
vn -0.7943 0.5546 -0.2482
vn -0.7943 0.5546 -0.2482
vn -0.7943 0.5546 -0.2482
vn -0.7176 0.5551 -0.4206
vn -0.7176 0.5551 -0.4206
vn -0.7176 0.5551 -0.4206
vn -0.6255 0.6048 -0.4929
vn -0.6255 0.6048 -0.4929
vn -0.6255 0.6048 -0.4929
vn 0.6074 0.6213 -0.4951
vn 0.6074 0.6213 -0.4951
vn 0.6074 0.6213 -0.4951
vn 0.7152 0.5662 -0.4098
vn 0.7152 0.5662 -0.4098
vn 0.7152 0.5662 -0.4098
vn 0.7798 0.5773 -0.2424
vn 0.7798 0.5773 -0.2424
vn 0.7798 0.5773 -0.2424
vn 0.8275 0.5517 -0.1039
vn 0.8275 0.5517 -0.1039
vn 0.8275 0.5517 -0.1039
vn 0.7344 0.6614 0.1527
vn 0.7344 0.6614 0.1527
vn 0.7344 0.6614 0.1527
vn 0.6209 0.6600 0.4230
vn 0.6209 0.6600 0.4230
vn 0.6209 0.6600 0.4230
vn -0.1173 -0.6976 0.7068
vn -0.1173 -0.6976 0.7068
vn -0.1173 -0.6976 0.7068
vn -0.4623 -0.7579 0.4602
vn -0.3861 -0.7533 0.5325
vn -0.4637 -0.7580 0.4588
vn -0.4637 -0.7580 0.4588
vn -0.5329 -0.7543 0.3835
vn -0.4623 -0.7579 0.4602
vn -0.6481 -0.7600 0.0484
vn -0.6441 -0.7555 0.1197
vn -0.6482 -0.7601 0.0448
vn -0.6482 -0.7601 0.0448
vn -0.6473 -0.7585 -0.0759
vn -0.6481 -0.7600 0.0484
vn -0.6084 -0.7635 -0.2168
vn -0.5055 -0.8438 -0.1801
vn -0.5472 -0.8140 -0.1950
vn -0.5472 -0.8140 -0.1950
vn -0.6464 -0.7274 -0.2303
vn -0.6084 -0.7635 -0.2168
vn -0.5063 -0.7635 -0.4009
vn -0.5063 -0.7635 -0.4009
vn -0.5063 -0.7635 -0.4009
vn 0.5422 -0.8164 -0.1986
vn 0.5019 -0.8451 -0.1839
vn 0.6003 -0.7690 -0.2197
vn 0.6003 -0.7690 -0.2197
vn 0.6371 -0.7347 -0.2331
vn 0.5422 -0.8164 -0.1986
vn 0.6880 -0.7131 0.1349
vn 0.6880 -0.7131 0.1349
vn 0.6880 -0.7131 0.1349
vn 0.3964 -0.7089 0.5834
vn 0.3964 -0.7089 0.5834
vn 0.3964 -0.7089 0.5834
vn 0.6758 -0.7064 -0.2105
vn 0.6758 -0.7064 -0.2105
vn 0.6758 -0.7064 -0.2105
vn 0.7254 -0.6825 -0.0896
vn 0.7254 -0.6825 -0.0896
vn 0.7254 -0.6825 -0.0896
vn 0.0015 -0.9389 -0.3443
vn 0.0014 -0.9475 -0.3197
vn 0.0015 -0.9389 -0.3443
vn 0.0015 -0.9389 -0.3443
vn 0.0015 -0.9297 -0.3683
vn 0.0015 -0.9389 -0.3443
vn 0.5950 -0.7281 -0.3405
vn 0.5950 -0.7281 -0.3405
vn 0.5950 -0.7281 -0.3405
vn -0.6779 -0.7040 -0.2118
vn -0.6779 -0.7040 -0.2118
vn -0.6779 -0.7040 -0.2118
vn 0.4881 -0.7758 -0.3998
vn 0.4881 -0.7758 -0.3998
vn 0.4881 -0.7758 -0.3998
vn -0.6874 -0.7118 0.1443
vn -0.6874 -0.7118 0.1443
vn -0.6874 -0.7118 0.1443
vn -0.5984 -0.7203 -0.3508
vn -0.5984 -0.7203 -0.3508
vn -0.5984 -0.7203 -0.3508
vn -0.3923 -0.7039 0.5922
vn -0.3923 -0.7039 0.5922
vn -0.3923 -0.7039 0.5922
vn -0.7259 -0.6811 -0.0960
vn -0.7259 -0.6811 -0.0960
vn -0.7259 -0.6811 -0.0960
vn 0.1140 -0.6986 0.7064
vn 0.1140 -0.6986 0.7064
vn 0.1140 -0.6986 0.7064
vn -0.5819 -0.7097 0.3972
vn -0.5819 -0.7097 0.3972
vn -0.5819 -0.7097 0.3972
vn 0.5812 -0.7115 0.3949
vn 0.5812 -0.7115 0.3949
vn 0.5812 -0.7115 0.3949
vn -0.0006 -0.7501 0.6614
vn 0.1231 -0.7444 0.6563
vn -0.0010 -0.7501 0.6614
vn -0.0010 -0.7501 0.6614
vn -0.1255 -0.7441 0.6561
vn -0.0006 -0.7501 0.6614
# 330 vertex normals

vt 0.7876 0.3122 0.0000
vt 0.4814 0.5880 0.0000
vt 0.6679 0.5881 0.0000
vt 0.6679 0.6135 0.0000
vt 0.2813 0.4513 0.0000
vt 0.3892 0.5449 0.0000
vt 0.4041 0.7444 0.0000
vt 0.2967 0.6679 0.0000
vt 0.6679 0.5880 0.0000
vt 0.4815 0.5880 0.0000
vt 0.4815 0.6134 0.0000
vt 0.6679 0.6134 0.0000
vt 0.3122 0.5884 0.0000
vt 0.2078 0.5873 0.0000
vt 0.2078 0.6127 0.0000
vt 0.3122 0.6138 0.0000
vt 0.3523 0.3122 0.0000
vt 0.3008 0.2343 0.0000
vt 0.3956 0.2134 0.0000
vt 0.4162 0.1265 0.0000
vt 0.5000 0.1728 0.0000
vt 0.5856 0.1265 0.0000
vt 0.6044 0.2134 0.0000
vt 0.6477 0.3122 0.0000
vt 0.6365 0.2581 0.0000
vt 0.5000 0.3131 0.0000
vt 0.6468 0.4089 0.0000
vt 0.7052 0.1228 0.0000
vt 0.6012 0.5451 0.0000
vt 0.5000 0.6478 0.0000
vt 0.7169 0.4513 0.0000
vt 0.4814 0.6134 0.0000
vt 0.6994 0.2343 0.0000
vt 0.1228 0.5872 0.0000
vt 0.7876 0.3122 0.0000
vt 0.2080 0.5873 0.0000
vt 0.2080 0.6127 0.0000
vt 0.7052 0.1228 0.0000
vt 0.5973 0.7446 0.0000
vt 0.1228 0.6126 0.0000
vt 0.3122 0.5884 0.0000
vt 0.7051 0.6679 0.0000
vt 0.2967 0.1225 0.0000
vt 0.2124 0.3122 0.0000
vt 0.5000 0.0466 0.0000
vt 0.5000 0.9534 0.0000
vt 0.6165 0.0646 0.0000
vt 0.3874 0.0645 0.0000
vt 0.3122 0.6138 0.0000
vt 0.8166 0.5880 0.0000
vt 0.9534 0.5884 0.0000
vt 0.9534 0.6138 0.0000
vt 0.2360 0.2078 0.0000
vt 0.6165 0.8166 0.0000
vt 0.7656 0.2080 0.0000
vt 0.5566 0.1857 0.0000
vt 0.4430 0.1854 0.0000
vt 0.2967 0.1225 0.0000
vt 0.3643 0.2581 0.0000
vt 0.2124 0.3122 0.0000
vt 0.3537 0.4088 0.0000
vt 0.2967 0.6679 0.0000
vt 0.8166 0.6134 0.0000
vt 0.7446 0.7419 0.0000
vt 0.4513 0.7424 0.0000
vt 0.4333 0.6234 0.0000
vt 0.2343 0.7432 0.0000
vt 0.4089 0.3653 0.0000
vt 0.8166 0.5880 0.0000
vt 0.8166 0.6134 0.0000
vt 0.9534 0.5884 0.0000
vt 0.9534 0.6138 0.0000
vt 0.1225 0.6127 0.0000
vt 0.1225 0.5873 0.0000
vt 0.3874 0.8166 0.0000
vt 0.2343 0.7431 0.0000
vt 0.4513 0.7426 0.0000
vt 0.7444 0.7419 0.0000
vt 0.4088 0.3654 0.0000
vt 0.3874 0.5876 0.0000
vt 0.5000 0.5876 0.0000
vt 0.5000 0.6131 0.0000
vt 0.3874 0.6131 0.0000
vt 0.5000 0.9534 0.0000
vt 0.5653 0.6232 0.0000
vt 0.7051 0.6679 0.0000
vt 0.7656 0.2080 0.0000
vt 0.2967 0.5873 0.0000
vt 0.2967 0.6127 0.0000
vt 0.6165 0.5877 0.0000
vt 0.6165 0.6132 0.0000
vt 0.6165 0.0646 0.0000
vt 0.7656 0.4814 0.0000
vt 0.6165 0.8166 0.0000
vt 0.2360 0.4815 0.0000
vt 0.2360 0.2078 0.0000
vt 0.7052 0.5872 0.0000
vt 0.7052 0.6126 0.0000
vt 0.5856 0.7414 0.0000
vt 0.4162 0.7412 0.0000
vt 0.4430 0.3638 0.0000
vt 0.5566 0.3630 0.0000
vt 0.3874 0.0645 0.0000
vt 0.5000 0.0466 0.0000
# 104 texture coords

g pear
usemtl Material__25
f 68/4/1 4/32/2 1/2/3 
f 1/2/4 64/3/5 68/4/6 
f 82/7/7 8/8/8 5/5/9 
f 5/5/10 78/6/11 82/7/12 
f 94/11/13 85/12/14 90/9/15 
f 90/9/16 93/10/17 94/11/18 
f 106/15/19 108/16/20 99/13/21 
f 99/13/22 103/14/23 106/15/24 
f 75/5/25 113/17/26 6/6/27 
f 118/18/28 17/19/29 111/17/30 
f 127/20/31 19/21/32 115/19/33 
f 134/22/34 21/23/35 122/21/36 
f 148/26/37 149/27/38 137/1/39 
f 137/1/40 141/25/41 148/26/42 
f 116/19/43 123/21/44 130/23/45 
f 157/29/46 29/30/47 76/6/48 
f 157/29/49 76/6/50 112/17/51 
f 154/24/52 157/29/53 112/17/54 
f 130/23/55 154/24/56 112/17/57 
f 116/19/58 130/23/59 112/17/60 
f 28/29/61 153/24/62 161/31/63 
f 162/31/64 152/24/65 167/33/66 
f 167/33/67 169/35/68 162/31/69 
f 180/37/70 184/40/71 173/34/72 
f 173/34/73 177/36/74 180/37/75 
f 186/38/76 31/33/77 128/23/78 
f 128/23/79 133/22/80 186/38/81 
f 27/24/82 129/23/83 168/33/84 
f 30/31/85 66/42/86 190/39/87 
f 190/39/88 155/29/89 30/31/90 
f 71/32/91 172/49/92 23/41/93 
f 23/41/94 58/2/95 71/32/96 
f 199/52/97 202/63/98 192/50/99 
f 192/50/100 197/51/101 199/52/102 
f 41/63/103 3/4/104 63/3/105 
f 63/3/106 193/50/107 41/63/108 
f 84/12/109 209/70/110 42/69/111 
f 42/69/112 9/9/113 84/12/114 
f 208/70/115 200/72/116 196/71/117 
f 196/71/118 205/69/119 208/70/120 
f 117/18/121 213/43/122 20/20/123 
f 20/20/124 114/19/125 117/18/126 
f 107/16/127 95/11/128 92/10/129 
f 92/10/130 100/13/131 107/16/132 
f 74/5/133 110/44/134 119/18/135 
f 119/18/136 16/17/137 74/5/138 
f 102/14/139 218/74/140 44/73/141 
f 44/73/142 14/15/143 102/14/144 
f 226/82/145 231/83/146 220/80/147 
f 220/80/148 225/81/149 226/82/150 
f 126/20/151 229/45/152 22/22/153 
f 22/22/154 121/21/155 126/20/156 
f 25/26/157 140/25/158 176/28/159 
f 176/28/160 50/56/161 25/26/162 
f 171/49/163 181/37/164 34/36/165 
f 34/36/166 135/41/167 171/49/168 
f 188/39/169 40/46/170 79/7/171 
f 79/7/172 159/30/173 188/39/174 
f 189/39/175 158/30/176 156/29/177 
f 77/6/178 160/30/179 7/7/180 
f 230/83/181 211/89/182 217/88/183 
f 217/88/184 221/80/185 230/83/186 
f 239/91/187 227/82/188 224/81/189 
f 224/81/190 236/90/191 239/91/192 
f 183/98/193 240/91/194 51/90/195 
f 51/90/196 174/97/197 183/98/198 
f 241/47/199 36/38/200 132/22/201 
f 228/82/202 52/91/203 131/99/204 
f 232/83/205 48/82/206 125/100/207 
f 212/43/208 49/48/209 124/20/210 
f 104/53/211 214/43/212 18/18/213 
f 109/16/214 105/15/215 120/76/216 
f 96/11/217 15/16/218 73/77/219 
f 86/12/220 11/11/221 72/77/222 
f 210/70/223 83/12/224 81/78/225 
f 201/72/226 43/70/227 80/78/228 
f 203/54/229 198/46/230 187/39/231 
f 65/4/232 204/63/233 37/64/234 
f 69/32/235 67/4/236 164/65/237 
f 32/49/238 70/32/239 163/65/240 
f 182/37/241 170/49/242 166/67/243 
f 185/38/244 35/55/245 165/33/246 
f 242/101/247 47/81/248 219/80/249 
f 215/58/250 245/59/251 143/26/252 
f 143/26/253 244/57/254 215/58/255 
f 97/60/256 248/61/257 144/26/258 
f 144/26/259 54/59/260 97/60/261 
f 253/66/262 145/26/263 55/61/264 
f 55/61/265 88/62/266 253/66/267 
f 251/66/268 206/75/269 195/84/270 
f 150/27/271 147/26/272 57/85/273 
f 57/85/274 61/86/275 150/27/276 
f 24/25/277 136/1/278 179/87/279 
f 233/56/280 175/28/281 238/92/282 
f 151/27/283 2/86/284 60/93/285 
f 26/68/286 59/2/287 138/41/288 
f 254/85/289 146/26/290 252/66/291 
f 252/66/292 194/84/293 254/85/294 
f 256/85/295 38/94/296 62/86/297 
f 250/61/298 10/95/299 89/62/300 
f 255/85/301 39/84/302 191/94/303 
f 247/59/304 13/96/305 98/60/306 
f 56/66/307 87/62/308 207/75/309 
f 243/57/310 46/103/311 216/58/312 
f 249/79/313 12/13/314 91/10/315 
f 234/102/316 237/90/317 223/81/318 
f 246/59/319 45/58/320 101/96/321 
f 139/25/322 178/87/323 33/28/324 
f 222/104/325 53/57/326 142/26/327 
f 142/26/328 235/56/329 222/104/330 
# 110 faces

