# 3ds Max Wavefront OBJ Exporter v0.97b - (c)2007 guruware
# File Created: 15.04.2017 19:24:29

#
# object pillow
#

v  -0.3124 0.0061 -0.3124
v  -0.3536 0.0061 -0.0000
v  0.0000 0.0061 -0.3536
v  0.3124 0.0061 -0.3124
v  0.3536 0.0061 -0.0000
v  -0.1104 0.0698 -0.2659
v  0.1104 0.0698 -0.2659
v  0.3124 0.0061 0.3124
v  0.0000 0.0061 0.3536
v  -0.3124 0.0061 0.3124
v  -0.2659 0.0698 0.1104
v  -0.0000 0.1022 -0.2213
v  0.2659 0.0698 0.1104
v  -0.2659 0.0698 -0.1104
v  -0.1565 0.1022 -0.1565
v  0.1565 0.1022 -0.1565
v  0.2659 0.0698 -0.1104
v  0.1104 0.0698 0.2659
v  -0.1104 0.0698 0.2659
v  -0.2213 0.1022 -0.0000
v  0.2213 0.1022 -0.0000
v  0.1565 0.1022 0.1565
v  -0.1565 0.1022 0.1565
v  0.0000 0.1022 0.2213
v  -0.3124 0.0061 -0.3124
v  -0.3124 0.0061 -0.3124
v  -0.3124 0.0061 -0.3124
v  -0.3124 0.0061 -0.3124
v  -0.3124 0.0061 -0.3124
v  -0.3536 0.0061 -0.0000
v  -0.3536 0.0061 -0.0000
v  -0.3536 0.0061 -0.0000
v  -0.3536 0.0061 -0.0000
v  0.0000 0.0061 -0.3536
v  0.0000 0.0061 -0.3536
v  0.0000 0.0061 -0.3536
v  0.3124 0.0061 -0.3124
v  0.3124 0.0061 -0.3124
v  0.3124 0.0061 -0.3124
v  0.3124 0.0061 -0.3124
v  0.3124 0.0061 -0.3124
v  0.3536 0.0061 -0.0000
v  0.3536 0.0061 -0.0000
v  0.3536 0.0061 -0.0000
v  0.3536 0.0061 -0.0000
v  -0.1104 0.0698 -0.2659
v  -0.1104 0.0698 -0.2659
v  0.1104 0.0698 -0.2659
v  0.1104 0.0698 -0.2659
v  0.3124 0.0061 0.3124
v  0.3124 0.0061 0.3124
v  0.3124 0.0061 0.3124
v  0.3124 0.0061 0.3124
v  0.3124 0.0061 0.3124
v  0.0000 0.0061 0.3536
v  0.0000 0.0061 0.3536
v  0.0000 0.0061 0.3536
v  -0.3124 0.0061 0.3124
v  -0.3124 0.0061 0.3124
v  -0.3124 0.0061 0.3124
v  -0.3124 0.0061 0.3124
v  -0.3124 0.0061 0.3124
v  -0.2659 0.0698 0.1104
v  -0.2659 0.0698 0.1104
v  -0.0000 0.1022 -0.2213
v  -0.0000 0.1022 -0.2213
v  -0.0000 0.1022 -0.2213
v  0.2659 0.0698 0.1104
v  0.2659 0.0698 0.1104
v  -0.2659 0.0698 -0.1104
v  -0.2659 0.0698 -0.1104
v  -0.1565 0.1022 -0.1565
v  -0.1565 0.1022 -0.1565
v  0.1565 0.1022 -0.1565
v  0.1565 0.1022 -0.1565
v  0.2659 0.0698 -0.1104
v  0.2659 0.0698 -0.1104
v  0.1104 0.0698 0.2659
v  0.1104 0.0698 0.2659
v  -0.1104 0.0698 0.2659
v  -0.1104 0.0698 0.2659
v  -0.2213 0.1022 -0.0000
v  -0.2213 0.1022 -0.0000
v  -0.2213 0.1022 -0.0000
v  0.2213 0.1022 -0.0000
v  0.2213 0.1022 -0.0000
v  0.2213 0.1022 -0.0000
v  0.1565 0.1022 0.1565
v  0.1565 0.1022 0.1565
v  -0.1565 0.1022 0.1565
v  -0.1565 0.1022 0.1565
v  0.0000 0.1022 0.2213
v  0.0000 0.1022 0.2213
v  0.0000 0.1022 0.2213
v  0.3124 0.0000 -0.3124
v  -0.3124 -0.0061 -0.3124
v  -0.3124 0.0000 -0.3124
v  -0.3536 0.0000 -0.0000
v  -0.3536 -0.0061 -0.0000
v  0.0000 -0.0061 -0.3536
v  -0.3124 -0.0061 -0.3124
v  0.3124 -0.0061 -0.3124
v  0.3536 -0.0061 -0.0000
v  0.3536 0.0000 -0.0000
v  0.3124 -0.0061 -0.3124
v  -0.3124 -0.0061 -0.3124
v  -0.1104 -0.0698 -0.2659
v  0.0000 -0.0061 -0.3536
v  0.1104 -0.0698 -0.2659
v  0.3124 -0.0061 -0.3124
v  0.0000 -0.0061 -0.3536
v  0.3124 -0.0061 0.3124
v  0.3536 -0.0061 -0.0000
v  0.0000 -0.0061 0.3536
v  0.3124 0.0000 0.3124
v  0.3124 -0.0061 0.3124
v  -0.3124 -0.0061 0.3124
v  -0.3536 -0.0061 -0.0000
v  -0.3124 0.0000 0.3124
v  -0.3124 -0.0061 0.3124
v  -0.3124 -0.0061 0.3124
v  -0.2659 -0.0698 0.1104
v  -0.3536 -0.0061 -0.0000
v  0.0000 -0.0061 -0.3536
v  -0.1104 -0.0698 -0.2659
v  -0.0000 -0.1022 -0.2213
v  0.1104 -0.0698 -0.2659
v  0.2659 -0.0698 0.1104
v  0.3124 -0.0061 0.3124
v  0.3536 -0.0061 -0.0000
v  -0.2659 -0.0698 -0.1104
v  -0.3124 -0.0061 -0.3124
v  -0.3536 -0.0061 -0.0000
v  -0.1104 -0.0698 -0.2659
v  -0.3124 -0.0061 -0.3124
v  -0.1565 -0.1022 -0.1565
v  -0.0000 -0.1022 -0.2213
v  -0.1565 -0.1022 -0.1565
v  -0.3124 -0.0061 -0.3124
v  -0.2659 -0.0698 -0.1104
v  -0.2213 -0.1022 -0.0000
v  0.1565 -0.1022 -0.1565
v  0.3124 -0.0061 -0.3124
v  0.1104 -0.0698 -0.2659
v  -0.0000 -0.1022 -0.2213
v  0.3124 -0.0061 -0.3124
v  0.2659 -0.0698 -0.1104
v  0.3536 -0.0061 -0.0000
v  0.3124 -0.0061 0.3124
v  0.1104 -0.0698 0.2659
v  0.0000 -0.0061 0.3536
v  -0.1104 -0.0698 0.2659
v  -0.3124 -0.0061 0.3124
v  0.0000 -0.0061 0.3536
v  -0.2659 -0.0698 -0.1104
v  -0.3536 -0.0061 -0.0000
v  -0.2659 -0.0698 0.1104
v  -0.2213 -0.1022 -0.0000
v  0.2659 -0.0698 -0.1104
v  0.3124 -0.0061 -0.3124
v  0.1565 -0.1022 -0.1565
v  0.2213 -0.1022 -0.0000
v  0.3536 -0.0061 -0.0000
v  0.2659 -0.0698 -0.1104
v  0.2213 -0.1022 -0.0000
v  0.2659 -0.0698 0.1104
v  0.1565 -0.1022 0.1565
v  0.3124 -0.0061 0.3124
v  0.2659 -0.0698 0.1104
v  0.2213 -0.1022 -0.0000
v  0.1104 -0.0698 0.2659
v  0.3124 -0.0061 0.3124
v  0.1565 -0.1022 0.1565
v  0.0000 -0.1022 0.2213
v  -0.1565 -0.1022 0.1565
v  -0.3124 -0.0061 0.3124
v  -0.1104 -0.0698 0.2659
v  0.0000 -0.1022 0.2213
v  0.0000 -0.0061 0.3536
v  0.1104 -0.0698 0.2659
v  0.0000 -0.1022 0.2213
v  -0.1104 -0.0698 0.2659
v  -0.2659 -0.0698 0.1104
v  -0.3124 -0.0061 0.3124
v  -0.1565 -0.1022 0.1565
v  -0.2213 -0.1022 -0.0000
v  0.1565 -0.1022 -0.1565
v  -0.0000 -0.1022 -0.2213
v  -0.1565 -0.1022 -0.1565
v  -0.2213 -0.1022 -0.0000
v  -0.1565 -0.1022 0.1565
v  0.0000 -0.1022 0.2213
v  0.1565 -0.1022 0.1565
v  0.2213 -0.1022 -0.0000
v  0.3124 0.0000 -0.3124
v  -0.3124 0.0000 -0.3124
v  -0.3536 0.0000 -0.0000
v  0.3536 0.0000 -0.0000
v  0.3124 0.0000 0.3124
v  -0.3124 0.0000 0.3124
v  0.0000 0.0061 -0.3536
v  0.0000 -0.0061 -0.3536
# 202 vertices

vn 0.1305 0.0000 -0.9914
vn 0.1305 0.0000 -0.9914
vn 0.1305 0.0000 -0.9914
vn 0.1305 0.0000 -0.9914
vn 0.1305 0.0000 -0.9914
vn 0.1305 0.0000 -0.9914
vn 0.1305 0.0000 -0.9914
vn 0.1305 0.0000 -0.9914
vn 0.1305 0.0000 -0.9914
vn 0.9914 0.0000 -0.1305
vn 0.9914 0.0000 -0.1305
vn 0.9914 0.0000 -0.1305
vn 0.9914 0.0000 -0.1305
vn 0.9914 0.0000 -0.1305
vn 0.9914 0.0000 -0.1305
vn 0.9914 0.0000 -0.1305
vn 0.9914 0.0000 -0.1305
vn 0.9914 0.0000 -0.1305
vn 0.9914 0.0000 -0.1305
vn 0.9914 0.0000 -0.1305
vn 0.9914 0.0000 -0.1305
vn -0.0862 0.7510 -0.6546
vn -0.0862 0.7510 -0.6546
vn -0.0862 0.7510 -0.6546
vn 0.0862 0.7510 -0.6546
vn 0.0862 0.7510 -0.6546
vn 0.0862 0.7510 -0.6546
vn 0.9914 0.0000 0.1305
vn 0.9914 0.0000 0.1305
vn 0.9914 0.0000 0.1305
vn 0.9914 0.0000 0.1305
vn 0.9914 0.0000 0.1305
vn 0.9914 0.0000 0.1305
vn 0.9914 0.0000 0.1305
vn 0.9914 0.0000 0.1305
vn 0.9914 0.0000 0.1305
vn 0.9914 0.0000 0.1305
vn 0.9914 0.0000 0.1305
vn 0.9914 0.0000 0.1305
vn -0.6546 0.7510 0.0862
vn -0.6546 0.7510 0.0862
vn -0.6546 0.7510 0.0862
vn 0.0000 0.8088 -0.5880
vn -0.0001 0.8088 -0.5880
vn -0.0000 0.8089 -0.5880
vn -0.0000 0.8089 -0.5880
vn 0.0001 0.8089 -0.5880
vn 0.0000 0.8088 -0.5880
vn 0.6546 0.7510 0.0862
vn 0.6546 0.7510 0.0862
vn 0.6546 0.7510 0.0862
vn -0.6546 0.7510 -0.0862
vn -0.6546 0.7510 -0.0862
vn -0.6546 0.7510 -0.0862
vn -0.1774 0.9208 -0.3474
vn -0.1386 0.9322 -0.3344
vn -0.1719 0.9225 -0.3456
vn -0.1719 0.9225 -0.3456
vn -0.2055 0.9114 -0.3565
vn -0.1774 0.9208 -0.3474
vn -0.3456 0.9225 -0.1719
vn -0.3344 0.9322 -0.1386
vn -0.3474 0.9208 -0.1774
vn -0.3474 0.9208 -0.1774
vn -0.3565 0.9114 -0.2055
vn -0.3456 0.9225 -0.1719
vn 0.1719 0.9225 -0.3456
vn 0.1385 0.9322 -0.3344
vn 0.1774 0.9208 -0.3474
vn 0.1774 0.9208 -0.3474
vn 0.2055 0.9114 -0.3565
vn 0.1719 0.9225 -0.3456
vn 0.6546 0.7510 -0.0862
vn 0.6546 0.7510 -0.0862
vn 0.6546 0.7510 -0.0862
vn 0.0862 0.7510 0.6546
vn 0.0862 0.7510 0.6546
vn 0.0862 0.7510 0.6546
vn -0.0862 0.7510 0.6546
vn -0.0862 0.7510 0.6546
vn -0.0862 0.7510 0.6546
vn -0.5880 0.8089 -0.0000
vn -0.5879 0.8089 -0.0000
vn -0.5880 0.8089 -0.0000
vn -0.5880 0.8089 -0.0000
vn -0.5881 0.8088 -0.0000
vn -0.5880 0.8089 -0.0000
vn 0.3474 0.9208 -0.1774
vn 0.3344 0.9322 -0.1386
vn 0.3456 0.9225 -0.1719
vn 0.3456 0.9225 -0.1719
vn 0.3565 0.9114 -0.2055
vn 0.3474 0.9208 -0.1774
vn 0.5880 0.8089 0.0000
vn 0.5880 0.8089 -0.0001
vn 0.5880 0.8089 -0.0000
vn 0.5880 0.8089 -0.0000
vn 0.5880 0.8089 0.0001
vn 0.5880 0.8089 0.0000
vn 0.3456 0.9225 0.1719
vn 0.3344 0.9322 0.1385
vn 0.3474 0.9208 0.1774
vn 0.3474 0.9208 0.1774
vn 0.3565 0.9114 0.2055
vn 0.3456 0.9225 0.1719
vn 0.1774 0.9208 0.3474
vn 0.1386 0.9322 0.3344
vn 0.1719 0.9225 0.3456
vn 0.1719 0.9225 0.3456
vn 0.2055 0.9114 0.3565
vn 0.1774 0.9208 0.3474
vn -0.1719 0.9225 0.3456
vn -0.1385 0.9322 0.3344
vn -0.1774 0.9208 0.3474
vn -0.1774 0.9208 0.3474
vn -0.2055 0.9114 0.3565
vn -0.1719 0.9225 0.3456
vn -0.0000 0.8089 0.5880
vn 0.0001 0.8089 0.5880
vn 0.0000 0.8089 0.5880
vn 0.0000 0.8089 0.5880
vn -0.0001 0.8089 0.5880
vn -0.0000 0.8089 0.5880
vn -0.3474 0.9208 0.1774
vn -0.3344 0.9322 0.1385
vn -0.3456 0.9225 0.1719
vn -0.3456 0.9225 0.1719
vn -0.3565 0.9114 0.2055
vn -0.3474 0.9208 0.1774
vn -0.0001 1.0000 -0.0000
vn 0.0004 1.0000 -0.0001
vn 0.0000 1.0000 -0.0001
vn -0.0001 1.0000 -0.0000
vn 0.0000 1.0000 -0.0001
vn -0.0001 1.0000 -0.0000
vn -0.0001 1.0000 -0.0000
vn -0.0001 1.0000 -0.0000
vn -0.0001 1.0000 -0.0000
vn -0.0001 1.0000 -0.0000
vn -0.0001 1.0000 -0.0000
vn -0.0000 1.0000 -0.0000
vn 0.0002 1.0000 -0.0001
vn -0.0001 1.0000 -0.0000
vn -0.0000 1.0000 -0.0000
vn 0.0002 1.0000 -0.0001
vn -0.0000 1.0000 -0.0000
vn -0.0002 1.0000 -0.0001
vn -0.9914 0.0000 -0.1305
vn -0.9914 0.0000 -0.1305
vn -0.9914 0.0000 -0.1305
vn -0.9914 0.0000 -0.1305
vn -0.9914 0.0000 -0.1305
vn -0.9914 0.0000 -0.1305
vn -0.9914 0.0000 -0.1305
vn -0.9914 0.0000 -0.1305
vn -0.9914 0.0000 -0.1305
vn -0.9914 0.0000 -0.1305
vn -0.9914 0.0000 -0.1305
vn -0.9914 0.0000 -0.1305
vn -0.1305 0.0000 -0.9914
vn -0.1305 0.0000 -0.9914
vn -0.1305 0.0000 -0.9914
vn -0.1305 0.0000 -0.9914
vn -0.1305 0.0000 -0.9914
vn -0.1305 0.0000 -0.9914
vn -0.1305 0.0000 -0.9914
vn -0.1305 0.0000 -0.9914
vn -0.1305 0.0000 -0.9914
vn -0.0862 -0.7510 -0.6546
vn -0.0862 -0.7510 -0.6546
vn -0.0862 -0.7510 -0.6546
vn 0.0862 -0.7510 -0.6546
vn 0.0862 -0.7510 -0.6546
vn 0.0862 -0.7510 -0.6546
vn 0.1305 0.0000 0.9914
vn 0.1305 0.0000 0.9914
vn 0.1305 0.0000 0.9914
vn 0.1305 0.0000 0.9914
vn 0.1305 0.0000 0.9914
vn 0.1305 0.0000 0.9914
vn 0.1305 0.0000 0.9914
vn 0.1305 0.0000 0.9914
vn 0.1305 0.0000 0.9914
vn -0.1305 0.0000 0.9914
vn -0.1305 0.0000 0.9914
vn -0.1305 0.0000 0.9914
vn -0.1305 0.0000 0.9914
vn -0.1305 0.0000 0.9914
vn -0.1305 0.0000 0.9914
vn -0.1305 0.0000 0.9914
vn -0.1305 0.0000 0.9914
vn -0.1305 0.0000 0.9914
vn -0.9914 0.0000 0.1305
vn -0.9914 0.0000 0.1305
vn -0.9914 0.0000 0.1305
vn -0.9914 0.0000 0.1305
vn -0.9914 0.0000 0.1305
vn -0.9914 0.0000 0.1305
vn -0.9914 0.0000 0.1305
vn -0.9914 0.0000 0.1305
vn -0.9914 0.0000 0.1305
vn -0.9914 0.0000 0.1305
vn -0.9914 0.0000 0.1305
vn -0.9914 0.0000 0.1305
vn -0.6546 -0.7510 0.0862
vn -0.6546 -0.7510 0.0862
vn -0.6546 -0.7510 0.0862
vn 0.0000 -0.8088 -0.5880
vn 0.0001 -0.8089 -0.5880
vn -0.0000 -0.8088 -0.5880
vn -0.0000 -0.8088 -0.5880
vn -0.0001 -0.8088 -0.5880
vn 0.0000 -0.8088 -0.5880
vn 0.6546 -0.7510 0.0862
vn 0.6546 -0.7510 0.0862
vn 0.6546 -0.7510 0.0862
vn -0.6546 -0.7510 -0.0862
vn -0.6546 -0.7510 -0.0862
vn -0.6546 -0.7510 -0.0862
vn -0.1774 -0.9208 -0.3474
vn -0.2055 -0.9114 -0.3565
vn -0.1719 -0.9225 -0.3456
vn -0.1719 -0.9225 -0.3456
vn -0.1386 -0.9322 -0.3344
vn -0.1774 -0.9208 -0.3474
vn -0.3456 -0.9225 -0.1719
vn -0.3565 -0.9114 -0.2055
vn -0.3474 -0.9208 -0.1774
vn -0.3474 -0.9208 -0.1774
vn -0.3344 -0.9322 -0.1386
vn -0.3456 -0.9225 -0.1719
vn 0.1719 -0.9225 -0.3456
vn 0.2055 -0.9114 -0.3565
vn 0.1774 -0.9208 -0.3474
vn 0.1774 -0.9208 -0.3474
vn 0.1385 -0.9322 -0.3344
vn 0.1719 -0.9225 -0.3456
vn 0.6546 -0.7510 -0.0862
vn 0.6546 -0.7510 -0.0862
vn 0.6546 -0.7510 -0.0862
vn 0.0862 -0.7510 0.6546
vn 0.0862 -0.7510 0.6546
vn 0.0862 -0.7510 0.6546
vn -0.0862 -0.7510 0.6546
vn -0.0862 -0.7510 0.6546
vn -0.0862 -0.7510 0.6546
vn -0.5880 -0.8089 -0.0000
vn -0.5881 -0.8088 -0.0000
vn -0.5880 -0.8089 -0.0000
vn -0.5880 -0.8089 -0.0000
vn -0.5879 -0.8089 -0.0000
vn -0.5880 -0.8089 -0.0000
vn 0.3474 -0.9208 -0.1774
vn 0.3565 -0.9114 -0.2055
vn 0.3456 -0.9225 -0.1719
vn 0.3456 -0.9225 -0.1719
vn 0.3344 -0.9322 -0.1386
vn 0.3474 -0.9208 -0.1774
vn 0.5880 -0.8089 0.0000
vn 0.5880 -0.8089 0.0001
vn 0.5880 -0.8089 -0.0000
vn 0.5880 -0.8089 -0.0000
vn 0.5880 -0.8089 -0.0001
vn 0.5880 -0.8089 0.0000
vn 0.3456 -0.9225 0.1719
vn 0.3565 -0.9114 0.2055
vn 0.3474 -0.9208 0.1774
vn 0.3474 -0.9208 0.1774
vn 0.3344 -0.9322 0.1385
vn 0.3456 -0.9225 0.1719
vn 0.1774 -0.9208 0.3474
vn 0.2055 -0.9114 0.3565
vn 0.1719 -0.9225 0.3456
vn 0.1719 -0.9225 0.3456
vn 0.1386 -0.9322 0.3344
vn 0.1774 -0.9208 0.3474
vn -0.1719 -0.9225 0.3456
vn -0.2055 -0.9114 0.3565
vn -0.1774 -0.9208 0.3474
vn -0.1774 -0.9208 0.3474
vn -0.1385 -0.9322 0.3344
vn -0.1719 -0.9225 0.3456
vn -0.0000 -0.8089 0.5880
vn -0.0001 -0.8089 0.5880
vn 0.0000 -0.8089 0.5880
vn 0.0000 -0.8089 0.5880
vn 0.0001 -0.8089 0.5880
vn -0.0000 -0.8089 0.5880
vn -0.3474 -0.9208 0.1774
vn -0.3565 -0.9114 0.2055
vn -0.3456 -0.9225 0.1719
vn -0.3456 -0.9225 0.1719
vn -0.3344 -0.9322 0.1385
vn -0.3474 -0.9208 0.1774
vn 0.0002 -1.0000 -0.0001
vn -0.0002 -1.0000 -0.0001
vn -0.0000 -1.0000 -0.0000
vn 0.0000 -1.0000 -0.0001
vn 0.0004 -1.0000 -0.0001
vn -0.0001 -1.0000 -0.0000
vn -0.0001 -1.0000 -0.0000
vn 0.0000 -1.0000 -0.0001
vn -0.0001 -1.0000 -0.0000
vn -0.0001 -1.0000 -0.0000
vn -0.0001 -1.0000 -0.0000
vn -0.0001 -1.0000 -0.0000
vn -0.0000 -1.0000 -0.0000
vn -0.0001 -1.0000 -0.0000
vn -0.0001 -1.0000 -0.0000
vn 0.0002 -1.0000 -0.0001
vn -0.0000 -1.0000 -0.0000
vn -0.0001 -1.0000 -0.0000
# 312 vertex normals

vt 0.1544 0.8317 0.0000
vt 0.8317 0.7014 0.0000
vt 0.5000 0.7014 0.0000
vt 0.1544 0.7014 0.0000
vt 0.8456 0.7014 0.0000
vt 0.5000 0.7014 0.0000
vt 0.5000 0.7014 0.0000
vt 0.8317 0.7014 0.0000
vt 0.1683 0.7014 0.0000
vt 0.5000 0.7014 0.0000
vt 0.1683 0.7014 0.0000
vt 0.8456 0.7014 0.0000
vt 0.1544 0.7014 0.0000
vt 0.3778 0.7823 0.0000
vt 0.5000 0.8754 0.0000
vt 0.6222 0.7823 0.0000
vt 0.8456 0.8317 0.0000
vt 0.1544 0.1683 0.0000
vt 0.2059 0.3827 0.0000
vt 0.1089 0.5000 0.0000
vt 0.5000 0.7349 0.0000
vt 0.7941 0.3827 0.0000
vt 0.8456 0.1683 0.0000
vt 0.8911 0.5000 0.0000
vt 0.2059 0.6173 0.0000
vt 0.3269 0.6662 0.0000
vt 0.2553 0.5000 0.0000
vt 0.6731 0.6662 0.0000
vt 0.7941 0.6173 0.0000
vt 0.6222 0.2177 0.0000
vt 0.5000 0.1246 0.0000
vt 0.3778 0.2177 0.0000
vt 0.7447 0.5000 0.0000
vt 0.6731 0.3339 0.0000
vt 0.5000 0.2651 0.0000
vt 0.3269 0.3339 0.0000
vt 0.8456 0.6904 0.0000
vt 0.5000 0.6904 0.0000
vt 0.1683 0.6904 0.0000
vt 0.8317 0.6904 0.0000
vt 0.5000 0.6904 0.0000
vt 0.8317 0.7014 0.0000
vt 0.8317 0.6904 0.0000
vt 0.5000 0.6904 0.0000
vt 0.5000 0.7014 0.0000
vt 0.5000 0.7014 0.0000
vt 0.1544 0.6904 0.0000
vt 0.1544 0.7014 0.0000
vt 0.8456 0.7014 0.0000
vt 0.5000 0.7014 0.0000
vt 0.8317 0.7014 0.0000
vt 0.1544 0.8317 0.0000
vt 0.3778 0.7823 0.0000
vt 0.5000 0.8754 0.0000
vt 0.6222 0.7823 0.0000
vt 0.8456 0.8317 0.0000
vt 0.1683 0.7014 0.0000
vt 0.5000 0.7014 0.0000
vt 0.8456 0.6904 0.0000
vt 0.8456 0.7014 0.0000
vt 0.1544 0.7014 0.0000
vt 0.1544 0.6904 0.0000
vt 0.5000 0.6904 0.0000
vt 0.1683 0.6904 0.0000
vt 0.1683 0.7014 0.0000
vt 0.1544 0.1683 0.0000
vt 0.2059 0.3827 0.0000
vt 0.1089 0.5000 0.0000
vt 0.5000 0.7349 0.0000
vt 0.7941 0.3827 0.0000
vt 0.8456 0.1683 0.0000
vt 0.8911 0.5000 0.0000
vt 0.2059 0.6173 0.0000
vt 0.3269 0.6662 0.0000
vt 0.2553 0.5000 0.0000
vt 0.6731 0.6662 0.0000
vt 0.7941 0.6173 0.0000
vt 0.6222 0.2177 0.0000
vt 0.5000 0.1246 0.0000
vt 0.3778 0.2177 0.0000
vt 0.7447 0.5000 0.0000
vt 0.6731 0.3339 0.0000
vt 0.5000 0.2651 0.0000
vt 0.3269 0.3339 0.0000
# 84 texture coords

g pillow
f 195/37/1 102/49/2 202/46/3 
f 195/37/4 202/46/5 36/3/6 
f 41/5/7 195/37/8 36/3/9 
f 104/38/10 103/50/11 105/51/12 
f 104/38/13 105/51/14 95/40/15 
f 104/38/16 95/40/17 40/8/18 
f 45/7/19 104/38/20 40/8/21 
f 28/1/22 47/14/23 3/15/24 
f 49/16/25 4/17/26 35/15/27 
f 115/39/28 112/57/29 113/50/30 
f 115/39/31 113/50/32 198/41/33 
f 115/39/34 198/41/35 44/7/36 
f 8/9/37 115/39/38 44/7/39 
f 62/18/40 11/19/41 31/20/42 
f 67/21/43 7/16/44 34/15/45 
f 34/15/46 46/14/47 67/21/48 
f 69/22/49 50/23/50 43/24/51 
f 14/25/52 25/1/53 33/20/54 
f 73/26/55 12/21/56 6/14/57 
f 6/14/58 27/1/59 73/26/60 
f 71/25/61 83/27/62 15/26/63 
f 15/26/64 26/1/65 71/25/66 
f 48/16/67 66/21/68 16/28/69 
f 16/28/70 37/17/71 48/16/72 
f 39/17/73 77/29/74 5/24/75 
f 53/23/76 79/30/77 9/31/78 
f 81/32/79 59/18/80 56/31/81 
f 64/19/82 84/27/83 70/25/84 
f 70/25/85 32/20/86 64/19/87 
f 75/28/88 85/33/89 17/29/90 
f 17/29/91 38/17/92 75/28/93 
f 21/33/94 13/22/95 42/24/96 
f 42/24/97 76/29/98 21/33/99 
f 68/22/100 87/33/101 22/34/102 
f 22/34/103 51/23/104 68/22/105 
f 89/34/106 24/35/107 18/30/108 
f 18/30/109 52/23/110 89/34/111 
f 80/32/112 93/35/113 23/36/114 
f 23/36/115 60/18/116 80/32/117 
f 94/35/118 19/32/119 55/31/120 
f 55/31/121 78/30/122 94/35/123 
f 91/36/124 20/27/125 63/19/126 
f 63/19/127 61/18/128 91/36/129 
f 72/26/130 82/27/131 90/36/132 
f 72/26/133 90/36/134 92/35/135 
f 65/21/136 72/26/137 92/35/138 
f 65/21/139 92/35/140 88/34/141 
f 74/28/142 65/21/143 88/34/144 
f 74/28/145 88/34/146 86/33/147 
f 2/10/148 1/2/149 97/43/150 
f 197/44/151 2/10/152 97/43/153 
f 99/45/154 197/44/155 97/43/156 
f 96/42/157 99/45/158 97/43/159 
f 196/47/160 29/4/161 201/3/162 
f 101/48/163 196/47/164 201/3/165 
f 100/46/166 101/48/167 201/3/168 
f 106/52/169 108/54/170 107/53/171 
f 109/55/172 111/54/173 110/56/174 
f 199/59/175 54/12/176 57/6/177 
f 116/60/178 199/59/179 57/6/180 
f 114/58/181 116/60/182 57/6/183 
f 57/6/184 58/13/185 200/62/186 
f 114/58/187 57/6/188 200/62/189 
f 117/61/190 114/58/191 200/62/192 
f 10/11/193 30/10/194 98/63/195 
f 119/64/196 10/11/197 98/63/198 
f 120/65/199 119/64/200 98/63/201 
f 118/45/202 120/65/203 98/63/204 
f 121/66/205 123/68/206 122/67/207 
f 126/69/208 125/53/209 124/54/210 
f 124/54/211 127/55/212 126/69/213 
f 128/70/214 130/72/215 129/71/216 
f 131/73/217 133/68/218 132/52/219 
f 136/74/220 135/52/221 134/53/222 
f 134/53/223 137/69/224 136/74/225 
f 140/73/226 139/52/227 138/74/228 
f 138/74/229 141/75/230 140/73/231 
f 144/55/232 143/56/233 142/76/234 
f 142/76/235 145/69/236 144/55/237 
f 146/56/238 148/72/239 147/77/240 
f 149/71/241 151/79/242 150/78/243 
f 152/80/244 154/79/245 153/66/246 
f 157/67/247 156/68/248 155/73/249 
f 155/73/250 158/75/251 157/67/252 
f 161/76/253 160/56/254 159/77/255 
f 159/77/256 162/81/257 161/76/258 
f 165/81/259 164/77/260 163/72/261 
f 163/72/262 166/70/263 165/81/264 
f 169/70/265 168/71/266 167/82/267 
f 167/82/268 170/81/269 169/70/270 
f 173/82/271 172/71/272 171/78/273 
f 171/78/274 174/83/275 173/82/276 
f 177/80/277 176/66/278 175/84/279 
f 175/84/280 178/83/281 177/80/282 
f 181/83/283 180/78/284 179/79/285 
f 179/79/286 182/80/287 181/83/288 
f 185/84/289 184/66/290 183/67/291 
f 183/67/292 186/75/293 185/84/294 
f 187/76/295 194/81/296 193/82/297 
f 191/84/298 190/75/299 189/74/300 
f 192/83/301 191/84/302 189/74/303 
f 192/83/304 189/74/305 188/69/306 
f 193/82/307 192/83/308 188/69/309 
f 187/76/310 193/82/311 188/69/312 
# 104 faces

