# 3ds Max Wavefront OBJ Exporter v0.97b - (c)2007 guruware
# File Created: 08.04.2017 12:28:26

mtllib raw.mtl

#
# object raw
#

v  0.0320 0.0697 0.0046
v  0.0600 0.1297 -0.0694
v  -0.0049 0.1108 -0.0222
v  0.0491 0.0217 -0.0222
v  0.0792 0.0507 -0.0834
v  0.0792 0.0507 0.0390
v  -0.0290 0.1255 0.0518
v  0.0243 0.0453 0.0679
v  -0.0370 0.0507 0.0767
v  -0.0739 0.1102 -0.0222
v  -0.1186 0.0716 0.0602
v  -0.1091 0.0507 -0.0222
v  -0.0168 0.0574 -0.0589
v  0.0409 0.0763 -0.1634
v  -0.0370 0.0507 -0.1212
v  -0.1225 0.0745 -0.1076
v  0.1288 -0.0094 -0.0657
v  0.1889 -0.0094 0.0408
v  0.0992 -0.0694 -0.0222
v  0.0952 -0.0094 0.1155
v  -0.0049 -0.0094 0.1638
v  0.0272 -0.0694 0.0767
v  -0.0191 -0.0094 -0.0026
v  -0.1602 -0.0094 0.0281
v  -0.0891 -0.0694 0.0390
v  -0.0049 -0.0094 -0.0322
v  0.0356 -0.0094 -0.0780
v  0.0272 -0.0694 -0.1212
v  -0.1889 -0.0094 -0.0820
v  -0.0268 -0.0094 -0.0524
v  -0.0891 -0.0694 -0.0834
v  0.0911 -0.0780 0.0475
v  -0.0384 -0.0718 0.0806
v  -0.1770 -0.1088 -0.0222
v  0.0708 -0.0635 -0.0773
v  -0.0509 -0.0954 -0.1638
v  0.0594 -0.1208 -0.0222
v  0.0144 -0.1181 0.0374
v  -0.0049 -0.1297 -0.0222
v  -0.0432 -0.0914 0.0055
v  -0.0470 -0.0995 -0.0528
v  0.0097 -0.0916 -0.0673
v  0.0320 0.0697 0.0046
v  0.0320 0.0697 0.0046
v  0.0320 0.0697 0.0046
v  0.0320 0.0697 0.0046
v  0.0320 0.0697 0.0046
v  0.0600 0.1297 -0.0694
v  0.0600 0.1297 -0.0694
v  0.0600 0.1297 -0.0694
v  0.0600 0.1297 -0.0694
v  0.0600 0.1297 -0.0694
v  -0.0049 0.1108 -0.0222
v  -0.0049 0.1108 -0.0222
v  -0.0049 0.1108 -0.0222
v  -0.0049 0.1108 -0.0222
v  0.0491 0.0217 -0.0222
v  0.0491 0.0217 -0.0222
v  0.0491 0.0217 -0.0222
v  0.0491 0.0217 -0.0222
v  0.0491 0.0217 -0.0222
v  0.0792 0.0507 -0.0834
v  0.0792 0.0507 -0.0834
v  0.0792 0.0507 -0.0834
v  0.0792 0.0507 -0.0834
v  0.0792 0.0507 0.0390
v  0.0792 0.0507 0.0390
v  0.0792 0.0507 0.0390
v  0.0792 0.0507 0.0390
v  -0.0290 0.1255 0.0518
v  -0.0290 0.1255 0.0518
v  -0.0290 0.1255 0.0518
v  -0.0290 0.1255 0.0518
v  -0.0290 0.1255 0.0518
v  0.0243 0.0453 0.0679
v  0.0243 0.0453 0.0679
v  0.0243 0.0453 0.0679
v  0.0243 0.0453 0.0679
v  0.0243 0.0453 0.0679
v  -0.0370 0.0507 0.0767
v  -0.0370 0.0507 0.0767
v  -0.0370 0.0507 0.0767
v  -0.0370 0.0507 0.0767
v  -0.0739 0.1102 -0.0222
v  -0.0739 0.1102 -0.0222
v  -0.0739 0.1102 -0.0222
v  -0.0739 0.1102 -0.0222
v  -0.0739 0.1102 -0.0222
v  -0.1186 0.0716 0.0602
v  -0.1186 0.0716 0.0602
v  -0.1186 0.0716 0.0602
v  -0.1186 0.0716 0.0602
v  -0.1186 0.0716 0.0602
v  -0.1091 0.0507 -0.0222
v  -0.1091 0.0507 -0.0222
v  -0.1091 0.0507 -0.0222
v  -0.1091 0.0507 -0.0222
v  -0.0168 0.0574 -0.0589
v  -0.0168 0.0574 -0.0589
v  -0.0168 0.0574 -0.0589
v  -0.0168 0.0574 -0.0589
v  -0.0168 0.0574 -0.0589
v  0.0409 0.0763 -0.1634
v  0.0409 0.0763 -0.1634
v  0.0409 0.0763 -0.1634
v  0.0409 0.0763 -0.1634
v  0.0409 0.0763 -0.1634
v  -0.0370 0.0507 -0.1212
v  -0.0370 0.0507 -0.1212
v  -0.0370 0.0507 -0.1212
v  -0.0370 0.0507 -0.1212
v  -0.1225 0.0745 -0.1076
v  -0.1225 0.0745 -0.1076
v  -0.1225 0.0745 -0.1076
v  -0.1225 0.0745 -0.1076
v  -0.1225 0.0745 -0.1076
v  0.1288 -0.0094 -0.0657
v  0.1288 -0.0094 -0.0657
v  0.1288 -0.0094 -0.0657
v  0.1288 -0.0094 -0.0657
v  0.1288 -0.0094 -0.0657
v  0.1889 -0.0094 0.0408
v  0.1889 -0.0094 0.0408
v  0.1889 -0.0094 0.0408
v  0.1889 -0.0094 0.0408
v  0.1889 -0.0094 0.0408
v  0.0992 -0.0694 -0.0222
v  0.0992 -0.0694 -0.0222
v  0.0992 -0.0694 -0.0222
v  0.0992 -0.0694 -0.0222
v  0.0952 -0.0094 0.1155
v  0.0952 -0.0094 0.1155
v  0.0952 -0.0094 0.1155
v  0.0952 -0.0094 0.1155
v  0.0952 -0.0094 0.1155
v  -0.0049 -0.0094 0.1638
v  -0.0049 -0.0094 0.1638
v  -0.0049 -0.0094 0.1638
v  -0.0049 -0.0094 0.1638
v  -0.0049 -0.0094 0.1638
v  0.0272 -0.0694 0.0767
v  0.0272 -0.0694 0.0767
v  0.0272 -0.0694 0.0767
v  0.0272 -0.0694 0.0767
v  -0.0191 -0.0094 -0.0026
v  -0.0191 -0.0094 -0.0026
v  -0.0191 -0.0094 -0.0026
v  -0.0191 -0.0094 -0.0026
v  -0.0191 -0.0094 -0.0026
v  -0.1602 -0.0094 0.0281
v  -0.1602 -0.0094 0.0281
v  -0.1602 -0.0094 0.0281
v  -0.1602 -0.0094 0.0281
v  -0.1602 -0.0094 0.0281
v  -0.0891 -0.0694 0.0390
v  -0.0891 -0.0694 0.0390
v  -0.0891 -0.0694 0.0390
v  -0.0891 -0.0694 0.0390
v  -0.0049 -0.0094 -0.0322
v  -0.0049 -0.0094 -0.0322
v  -0.0049 -0.0094 -0.0322
v  -0.0049 -0.0094 -0.0322
v  -0.0049 -0.0094 -0.0322
v  0.0356 -0.0094 -0.0780
v  0.0356 -0.0094 -0.0780
v  0.0356 -0.0094 -0.0780
v  0.0356 -0.0094 -0.0780
v  0.0356 -0.0094 -0.0780
v  0.0272 -0.0694 -0.1212
v  0.0272 -0.0694 -0.1212
v  0.0272 -0.0694 -0.1212
v  0.0272 -0.0694 -0.1212
v  -0.1889 -0.0094 -0.0820
v  -0.1889 -0.0094 -0.0820
v  -0.1889 -0.0094 -0.0820
v  -0.1889 -0.0094 -0.0820
v  -0.1889 -0.0094 -0.0820
v  -0.0268 -0.0094 -0.0524
v  -0.0268 -0.0094 -0.0524
v  -0.0268 -0.0094 -0.0524
v  -0.0268 -0.0094 -0.0524
v  -0.0268 -0.0094 -0.0524
v  -0.0891 -0.0694 -0.0834
v  -0.0891 -0.0694 -0.0834
v  -0.0891 -0.0694 -0.0834
v  -0.0891 -0.0694 -0.0834
v  0.0911 -0.0780 0.0475
v  0.0911 -0.0780 0.0475
v  0.0911 -0.0780 0.0475
v  0.0911 -0.0780 0.0475
v  0.0911 -0.0780 0.0475
v  -0.0384 -0.0718 0.0806
v  -0.0384 -0.0718 0.0806
v  -0.0384 -0.0718 0.0806
v  -0.0384 -0.0718 0.0806
v  -0.0384 -0.0718 0.0806
v  -0.1770 -0.1088 -0.0222
v  -0.1770 -0.1088 -0.0222
v  -0.1770 -0.1088 -0.0222
v  -0.1770 -0.1088 -0.0222
v  -0.1770 -0.1088 -0.0222
v  0.0708 -0.0635 -0.0773
v  0.0708 -0.0635 -0.0773
v  0.0708 -0.0635 -0.0773
v  0.0708 -0.0635 -0.0773
v  0.0708 -0.0635 -0.0773
v  -0.0509 -0.0954 -0.1638
v  -0.0509 -0.0954 -0.1638
v  -0.0509 -0.0954 -0.1638
v  -0.0509 -0.0954 -0.1638
v  -0.0509 -0.0954 -0.1638
v  0.0594 -0.1208 -0.0222
v  0.0594 -0.1208 -0.0222
v  0.0594 -0.1208 -0.0222
v  0.0594 -0.1208 -0.0222
v  0.0594 -0.1208 -0.0222
v  0.0144 -0.1181 0.0374
v  0.0144 -0.1181 0.0374
v  0.0144 -0.1181 0.0374
v  0.0144 -0.1181 0.0374
v  0.0144 -0.1181 0.0374
v  -0.0049 -0.1297 -0.0222
v  -0.0049 -0.1297 -0.0222
v  -0.0049 -0.1297 -0.0222
v  -0.0049 -0.1297 -0.0222
v  -0.0432 -0.0914 0.0055
v  -0.0432 -0.0914 0.0055
v  -0.0432 -0.0914 0.0055
v  -0.0432 -0.0914 0.0055
v  -0.0432 -0.0914 0.0055
v  -0.0470 -0.0995 -0.0528
v  -0.0470 -0.0995 -0.0528
v  -0.0470 -0.0995 -0.0528
v  -0.0470 -0.0995 -0.0528
v  -0.0470 -0.0995 -0.0528
v  0.0097 -0.0916 -0.0673
v  0.0097 -0.0916 -0.0673
v  0.0097 -0.0916 -0.0673
v  0.0097 -0.0916 -0.0673
v  0.0097 -0.0916 -0.0673
# 240 vertices

vn 0.2836 0.6893 0.6667
vn 0.2836 0.6893 0.6667
vn 0.2836 0.6893 0.6667
vn 0.9051 0.0898 0.4157
vn 0.9051 0.0898 0.4157
vn 0.9051 0.0898 0.4157
vn 0.8653 0.1243 0.4856
vn 0.8653 0.1243 0.4856
vn 0.8653 0.1243 0.4856
vn 0.6266 0.5381 -0.5638
vn 0.6266 0.5381 -0.5638
vn 0.6266 0.5381 -0.5638
vn 0.7103 0.6978 0.0924
vn 0.7103 0.6978 0.0924
vn 0.7103 0.6978 0.0924
vn 0.7616 0.5684 0.3114
vn 0.7616 0.5684 0.3114
vn 0.7616 0.5684 0.3114
vn 0.1033 0.9239 0.3684
vn 0.1033 0.9239 0.3684
vn 0.1033 0.9239 0.3684
vn 0.1609 0.2960 0.9415
vn 0.1609 0.2960 0.9415
vn 0.1609 0.2960 0.9415
vn -0.0085 0.9804 -0.1969
vn -0.0085 0.9804 -0.1969
vn -0.0085 0.9804 -0.1969
vn -0.5022 0.8552 0.1286
vn -0.5022 0.8552 0.1286
vn -0.5022 0.8552 0.1286
vn -0.1067 0.3243 0.9399
vn -0.1067 0.3243 0.9399
vn -0.1067 0.3243 0.9399
vn -0.8397 0.4954 -0.2223
vn -0.8397 0.4954 -0.2223
vn -0.8397 0.4954 -0.2223
vn -0.5912 0.5421 -0.5972
vn -0.5912 0.5421 -0.5972
vn -0.5912 0.5421 -0.5972
vn -0.6810 0.6876 -0.2519
vn -0.6810 0.6876 -0.2519
vn -0.6810 0.6876 -0.2519
vn -0.3129 0.9498 -0.0012
vn -0.3129 0.9498 -0.0012
vn -0.3129 0.9498 -0.0012
vn 0.8976 0.2793 -0.3411
vn 0.8976 0.2793 -0.3411
vn 0.8976 0.2793 -0.3411
vn -0.0049 0.5670 -0.8237
vn -0.0049 0.5670 -0.8237
vn -0.0049 0.5670 -0.8237
vn 0.3673 0.7650 -0.5290
vn 0.3673 0.7650 -0.5290
vn 0.3673 0.7650 -0.5290
vn -0.8299 0.4896 0.2674
vn -0.8299 0.4896 0.2674
vn -0.8299 0.4896 0.2674
vn 0.2372 0.9546 -0.1801
vn 0.2372 0.9546 -0.1801
vn 0.2372 0.9546 -0.1801
vn 0.6848 -0.6175 -0.3869
vn 0.6848 -0.6175 -0.3869
vn 0.6848 -0.6175 -0.3869
vn 0.2826 0.9459 -0.1596
vn 0.2826 0.9459 -0.1596
vn 0.2826 0.9459 -0.1596
vn 0.4092 0.7300 -0.5474
vn 0.4092 0.7300 -0.5474
vn 0.4092 0.7300 -0.5474
vn 0.5482 0.6184 0.5631
vn 0.5482 0.6184 0.5631
vn 0.5482 0.6184 0.5631
vn 0.2954 -0.7323 0.6136
vn 0.2954 -0.7323 0.6136
vn 0.2954 -0.7323 0.6136
vn 0.2586 0.8028 0.5372
vn 0.2586 0.8028 0.5372
vn 0.2586 0.8028 0.5372
vn 0.1490 0.8385 0.5241
vn 0.1490 0.8385 0.5241
vn 0.1490 0.8385 0.5241
vn 0.2241 0.7888 0.5723
vn 0.2241 0.7888 0.5723
vn 0.2241 0.7888 0.5723
vn 0.1960 0.3941 0.8980
vn 0.1960 0.3941 0.8980
vn 0.1960 0.3941 0.8980
vn 0.1910 -0.4447 0.8751
vn 0.1910 -0.4447 0.8751
vn 0.1910 -0.4447 0.8751
vn -0.8274 0.5142 -0.2257
vn -0.8274 0.5142 -0.2257
vn -0.8274 0.5142 -0.2257
vn -0.3096 -0.7903 0.5288
vn -0.3096 -0.7903 0.5288
vn -0.3096 -0.7903 0.5288
vn -0.6475 0.5028 -0.5727
vn -0.6475 0.5028 -0.5727
vn -0.6475 0.5028 -0.5727
vn -0.6385 -0.5229 -0.5647
vn -0.6385 -0.5229 -0.5647
vn -0.6385 -0.5229 -0.5647
vn 0.6796 -0.5382 -0.4984
vn 0.6796 -0.5382 -0.4984
vn 0.6796 -0.5382 -0.4984
vn -0.0260 -0.8326 -0.5532
vn -0.0260 -0.8326 -0.5532
vn -0.0260 -0.8326 -0.5532
vn 0.1709 0.3067 -0.9363
vn 0.1709 0.3067 -0.9363
vn 0.1709 0.3067 -0.9363
vn 0.1642 -0.4044 -0.8997
vn 0.1642 -0.4044 -0.8997
vn 0.1642 -0.4044 -0.8997
vn -0.3016 -0.7396 -0.6017
vn -0.3016 -0.7396 -0.6017
vn -0.3016 -0.7396 -0.6017
vn -0.7050 0.6465 0.2915
vn -0.7050 0.6465 0.2915
vn -0.7050 0.6465 0.2915
vn 0.4071 0.7578 0.5099
vn 0.4071 0.7578 0.5099
vn 0.4071 0.7578 0.5099
vn 0.4841 -0.6309 0.6063
vn 0.4841 -0.6309 0.6063
vn 0.4841 -0.6309 0.6063
vn 0.5722 -0.8194 -0.0342
vn 0.5722 -0.8194 -0.0342
vn 0.5722 -0.8194 -0.0342
vn 0.2205 -0.6939 0.6855
vn 0.2205 -0.6939 0.6855
vn 0.2205 -0.6939 0.6855
vn -0.9222 -0.3786 0.0786
vn -0.9222 -0.3786 0.0786
vn -0.9222 -0.3786 0.0786
vn -0.9185 0.3876 0.0783
vn -0.9185 0.3876 0.0783
vn -0.9185 0.3876 0.0783
vn 0.0639 -0.8105 0.5822
vn 0.0639 -0.8105 0.5822
vn 0.0639 -0.8105 0.5822
vn -0.3729 0.7816 0.5000
vn -0.3729 0.7816 0.5000
vn -0.3729 0.7816 0.5000
vn -0.6727 0.7188 0.1755
vn -0.6727 0.7188 0.1755
vn -0.6727 0.7188 0.1755
vn -0.9670 0.0359 0.2523
vn -0.9670 0.0359 0.2523
vn -0.9670 0.0359 0.2523
vn -0.4239 -0.3515 0.8347
vn -0.4239 -0.3515 0.8347
vn -0.4239 -0.3515 0.8347
vn -0.3218 -0.5162 -0.7937
vn -0.3218 -0.5162 -0.7937
vn -0.3218 -0.5162 -0.7937
vn 0.1295 -0.1818 -0.9748
vn 0.1295 -0.1818 -0.9748
vn 0.1295 -0.1818 -0.9748
vn 0.1314 0.0724 -0.9887
vn 0.1314 0.0724 -0.9887
vn 0.1314 0.0724 -0.9887
vn 0.6236 0.3970 -0.6734
vn 0.6236 0.3970 -0.6734
vn 0.6236 0.3970 -0.6734
vn 0.6652 -0.6243 -0.4096
vn 0.6652 -0.6243 -0.4096
vn 0.6652 -0.6243 -0.4096
vn 0.5491 -0.5871 -0.5948
vn 0.5491 -0.5871 -0.5948
vn 0.5491 -0.5871 -0.5948
vn 0.5395 0.6060 -0.5845
vn 0.5395 0.6060 -0.5845
vn 0.5395 0.6060 -0.5845
vn -0.4807 0.7412 -0.4685
vn -0.4807 0.7412 -0.4685
vn -0.4807 0.7412 -0.4685
vn 0.0244 0.8329 -0.5529
vn 0.0244 0.8329 -0.5529
vn 0.0244 0.8329 -0.5529
vn 0.1355 -0.9800 0.1457
vn 0.1355 -0.9800 0.1457
vn 0.1355 -0.9800 0.1457
vn 0.4007 -0.8508 0.3399
vn 0.4007 -0.8508 0.3399
vn 0.4007 -0.8508 0.3399
vn 0.2436 -0.6471 0.7224
vn 0.2436 -0.6471 0.7224
vn 0.2436 -0.6471 0.7224
vn 0.7902 -0.6126 0.0163
vn 0.7902 -0.6126 0.0163
vn 0.7902 -0.6126 0.0163
vn -0.5399 -0.7763 0.3255
vn -0.5399 -0.7763 0.3255
vn -0.5399 -0.7763 0.3255
vn -0.5167 -0.8197 0.2472
vn -0.5167 -0.8197 0.2472
vn -0.5167 -0.8197 0.2472
vn -0.2570 -0.9309 0.2596
vn -0.2570 -0.9309 0.2596
vn -0.2570 -0.9309 0.2596
vn 0.0685 -0.6375 0.7674
vn 0.0685 -0.6375 0.7674
vn 0.0685 -0.6375 0.7674
vn -0.6444 -0.7506 0.1462
vn -0.6444 -0.7506 0.1462
vn -0.6444 -0.7506 0.1462
vn 0.1007 -0.9864 0.1296
vn 0.1007 -0.9864 0.1296
vn 0.1007 -0.9864 0.1296
vn -0.0929 -0.7717 -0.6291
vn -0.0929 -0.7717 -0.6291
vn -0.0929 -0.7717 -0.6291
vn -0.0047 -0.8382 0.5453
vn -0.0047 -0.8382 0.5453
vn -0.0047 -0.8382 0.5453
vn 0.1074 -0.7762 -0.6212
vn 0.1074 -0.7762 -0.6212
vn 0.1074 -0.7762 -0.6212
vn 0.2091 -0.6994 -0.6835
vn 0.2091 -0.6994 -0.6835
vn 0.2091 -0.6994 -0.6835
vn 0.7145 -0.5539 -0.4274
vn 0.7145 -0.5539 -0.4274
vn 0.7145 -0.5539 -0.4274
vn 0.3701 -0.8953 -0.2479
vn 0.3701 -0.8953 -0.2479
vn 0.3701 -0.8953 -0.2479
vn -0.0631 -0.7520 -0.6562
vn -0.0631 -0.7520 -0.6562
vn -0.0631 -0.7520 -0.6562
vn 0.1281 -0.9909 -0.0409
vn 0.1281 -0.9909 -0.0409
vn 0.1281 -0.9909 -0.0409
vn 0.4167 -0.8803 -0.2267
vn 0.4167 -0.8803 -0.2267
vn 0.4167 -0.8803 -0.2267
vn -0.5763 -0.8172 -0.0101
vn -0.5763 -0.8172 -0.0101
vn -0.5763 -0.8172 -0.0101
# 240 vertex normals

vt 0.5708 0.4903 0.0000
vt 0.6327 0.6473 0.0000
vt 0.4891 0.5472 0.0000
vt 0.6473 0.9691 0.0000
vt 0.4903 0.7520 0.0000
vt 0.5472 0.5785 0.0000
vt 0.6772 0.6833 0.0000
vt 0.4173 0.6833 0.0000
vt 0.3900 0.9538 0.0000
vt 0.5472 0.9008 0.0000
vt 0.3557 0.6637 0.0000
vt 0.8470 0.7760 0.0000
vt 0.6394 0.4659 0.0000
vt 0.4134 0.4659 0.0000
vt 0.5537 0.3557 0.0000
vt 0.6753 0.4173 0.0000
vt 0.4181 0.6833 0.0000
vt 0.5537 0.6637 0.0000
vt 0.4359 0.9538 0.0000
vt 0.3364 0.5472 0.0000
vt 0.4359 0.3900 0.0000
vt 0.2377 0.3721 0.0000
vt 0.4628 0.6251 0.0000
vt 0.5904 0.8470 0.0000
vt 0.4181 0.7574 0.0000
vt 0.2377 0.7590 0.0000
vt 0.4577 0.4659 0.0000
vt 0.1457 0.4659 0.0000
vt 0.5472 0.6833 0.0000
vt 0.3721 0.7590 0.0000
vt 0.5472 0.8986 0.0000
vt 0.6327 0.9691 0.0000
vt 0.4628 0.7077 0.0000
vt 0.4891 0.9008 0.0000
vt 0.2290 0.7285 0.0000
vt 0.9179 0.4134 0.0000
vt 0.7849 0.6394 0.0000
vt 0.6085 0.5472 0.0000
vt 0.6753 0.6772 0.0000
vt 0.4891 0.1523 0.0000
vt 0.5472 0.2488 0.0000
vt 0.6657 0.4659 0.0000
vt 0.6642 0.2701 0.0000
vt 0.3364 0.8986 0.0000
vt 0.0821 0.4659 0.0000
vt 0.4407 0.4659 0.0000
vt 0.7107 0.2546 0.0000
vt 0.4181 0.3371 0.0000
vt 0.3029 0.4173 0.0000
vt 0.7285 0.7694 0.0000
vt 0.4403 0.4659 0.0000
vt 0.5684 0.4659 0.0000
vt 0.4151 0.3289 0.0000
vt 0.4577 0.5056 0.0000
vt 0.0821 0.6741 0.0000
vt 0.3992 0.2180 0.0000
vt 0.5472 0.0631 0.0000
vt 0.6657 0.4659 0.0000
vt 0.1457 0.4403 0.0000
vt 0.2587 0.5472 0.0000
vt 0.4407 0.6113 0.0000
vt 0.4891 0.5684 0.0000
vt 0.3875 0.8477 0.0000
vt 0.3029 0.6772 0.0000
vt 0.5601 0.7574 0.0000
vt 0.7107 0.2546 0.0000
vt 0.4891 0.1523 0.0000
vt 0.5601 0.3371 0.0000
vt 0.4181 0.3371 0.0000
vt 0.2377 0.3721 0.0000
vt 0.4577 0.5056 0.0000
vt 0.4181 0.7574 0.0000
vt 0.5904 0.8470 0.0000
vt 0.4891 0.5684 0.0000
vt 0.2290 0.7285 0.0000
vt 0.4407 0.6113 0.0000
vt 0.9179 0.4134 0.0000
vt 0.7016 0.3992 0.0000
vt 0.7194 0.5472 0.0000
vt 0.3029 0.2488 0.0000
vt 0.1085 0.1066 0.0000
vt 0.7016 0.2180 0.0000
vt 0.5601 0.2488 0.0000
vt 0.5319 0.0727 0.0000
vt 0.4151 0.2401 0.0000
vt 0.7574 0.2488 0.0000
vt 0.8470 0.7760 0.0000
vt 0.6741 0.4659 0.0000
vt 0.4151 0.3289 0.0000
vt 0.6314 0.5472 0.0000
vt 0.5319 0.4206 0.0000
vt 0.5056 0.4659 0.0000
vt 0.1523 0.4659 0.0000
vt 0.3371 0.6833 0.0000
vt 0.3289 0.2401 0.0000
vt 0.5472 0.1066 0.0000
vt 0.3029 0.2488 0.0000
vt 0.2290 0.7694 0.0000
vt 0.1085 0.1066 0.0000
vt 0.7849 0.4659 0.0000
vt 0.4891 0.5472 0.0000
vt 0.4045 0.4883 0.0000
vt 0.3029 0.4173 0.0000
vt 0.5787 0.4659 0.0000
vt 0.6753 0.6833 0.0000
vt 0.6567 0.2701 0.0000
vt 0.5601 0.2488 0.0000
vt 0.4891 0.4659 0.0000
vt 0.4181 0.6833 0.0000
vt 0.3960 0.6121 0.0000
vt 0.1085 0.5472 0.0000
vt 0.3029 0.6772 0.0000
vt 0.5215 0.6430 0.0000
vt 0.6567 0.6642 0.0000
vt 0.5601 0.7574 0.0000
vt 0.3875 0.8477 0.0000
# 116 texture coords

g raw
usemtl Material__25
f 1/1/1 52/2/2 3/3/3 
f 2/4/4 47/5/5 61/6/6 
f 60/6/7 5/7/8 48/4/9 
f 69/8/10 4/6/11 46/5/12 
f 7/9/13 43/5/14 56/10/15 
f 44/5/16 74/9/17 8/11/18 
f 79/15/19 6/16/20 45/1/21 
f 83/17/22 75/18/23 73/19/24 
f 88/20/25 70/21/26 55/3/27 
f 71/21/28 87/20/29 11/22/30 
f 93/26/31 9/17/32 72/19/33 
f 97/29/34 89/30/35 86/31/36 
f 51/32/37 102/33/38 53/34/39 
f 13/23/40 50/2/41 107/24/42 
f 106/24/43 15/25/44 98/23/45 
f 65/7/46 14/12/47 49/4/48 
f 101/33/49 10/44/50 54/34/51 
f 84/20/52 100/23/53 16/35/54 
f 116/50/55 12/29/56 85/31/57 
f 111/25/58 112/35/59 99/23/60 
f 117/13/61 125/14/62 19/41/63 
f 126/36/64 17/37/65 58/38/66 
f 57/38/67 68/16/68 18/36/69 
f 62/39/70 59/38/71 121/37/72 
f 132/66/73 139/67/74 22/68/75 
f 140/40/76 131/47/77 77/15/78 
f 76/15/79 82/48/80 21/40/81 
f 66/16/82 78/15/83 20/47/84 
f 146/27/85 153/28/86 25/80/87 
f 154/28/88 145/27/89 91/26/90 
f 90/30/91 96/29/92 24/51/93 
f 80/69/94 92/70/95 23/71/96 
f 159/52/97 166/58/98 28/86/99 
f 167/58/100 26/52/101 104/87/102 
f 103/12/103 64/7/104 168/42/105 
f 108/72/106 105/73/107 163/74/108 
f 174/45/109 180/46/110 31/97/111 
f 181/46/112 173/45/113 114/98/114 
f 113/75/115 110/72/116 182/76/117 
f 94/29/118 115/50/119 29/88/120 
f 135/47/121 122/36/122 67/16/123 
f 123/77/124 134/66/125 32/78/126 
f 191/78/127 127/79/128 124/77/129 
f 144/68/130 187/78/131 133/66/132 
f 149/92/133 136/93/134 81/94/135 
f 137/93/136 148/92/137 33/95/138 
f 196/89/139 141/68/140 138/67/141 
f 158/49/142 192/53/143 147/54/144 
f 177/55/145 150/59/146 95/60/147 
f 151/51/148 176/88/149 34/96/150 
f 201/81/151 155/80/152 152/28/153 
f 186/97/154 197/99/155 175/45/156 
f 120/100/157 27/104/158 63/105/159 
f 164/104/160 119/100/161 206/106/162 
f 205/106/163 169/107/164 165/104/165 
f 130/41/166 35/43/167 118/13/168 
f 162/108/169 30/46/170 109/109/171 
f 178/61/172 161/62/173 211/63/174 
f 210/63/175 183/64/176 179/61/177 
f 172/65/178 36/63/179 160/62/180 
f 213/90/181 219/91/182 39/101/183 
f 220/91/184 212/90/185 189/78/186 
f 188/82/187 143/83/188 221/84/189 
f 128/41/190 190/56/191 37/57/192 
f 218/91/193 228/102/194 222/101/195 
f 229/102/196 217/91/197 194/89/198 
f 193/89/199 157/103/200 230/102/201 
f 142/83/202 195/85/203 38/84/204 
f 227/102/205 233/110/206 223/101/207 
f 234/110/208 226/102/209 199/111/210 
f 198/111/211 185/112/212 235/110/213 
f 156/103/214 200/111/215 40/102/216 
f 237/113/217 214/90/218 225/101/219 
f 215/90/220 236/113/221 203/114/222 
f 202/43/223 129/41/224 216/57/225 
f 170/115/226 204/114/227 42/113/228 
f 232/110/229 238/113/230 224/101/231 
f 239/113/232 231/110/233 208/116/234 
f 207/116/235 171/115/236 240/113/237 
f 184/112/238 209/116/239 41/110/240 
# 80 faces

