# 3ds Max Wavefront OBJ Exporter v0.97b - (c)2007 guruware
# File Created: 08.04.2017 12:35:01

mtllib round.mtl

#
# object round
#

v  -0.0947 0.1022 -0.3536
v  -0.0947 0.0939 -0.3536
v  -0.2588 0.0939 -0.2588
v  -0.2588 0.1022 -0.2588
v  0.0947 0.1022 -0.3536
v  0.0947 0.0939 -0.3536
v  0.2588 0.1022 -0.2588
v  0.2588 0.0939 -0.2588
v  0.3536 0.1022 -0.0947
v  0.3536 0.0939 -0.0947
v  0.2588 0.1022 0.2588
v  0.2588 0.0939 0.2588
v  0.3536 0.0939 0.0947
v  0.3536 0.1022 0.0947
v  -0.2588 0.0939 0.2588
v  -0.0622 -0.1197 0.1078
v  -0.0947 0.0939 0.3536
v  -0.0622 -0.1197 -0.1077
v  -0.0000 -0.1197 -0.1244
v  0.0000 -0.2242 0.0000
v  0.0622 -0.1197 -0.1078
v  0.1077 -0.1197 -0.0622
v  0.1244 -0.1197 -0.0000
v  0.1077 -0.1197 0.0622
v  0.0947 0.0939 0.3536
v  0.0622 -0.1197 0.1077
v  0.0000 -0.1197 0.1244
v  -0.3536 0.0939 0.0947
v  -0.1077 -0.1197 0.0622
v  -0.3536 0.0939 -0.0947
v  -0.1244 -0.1197 0.0000
v  -0.1077 -0.1197 -0.0622
v  -0.3536 0.1022 -0.0947
v  -0.0000 0.1737 -0.2770
v  0.1385 0.1737 -0.2399
v  0.2399 0.1737 -0.1385
v  0.0947 0.1022 0.3536
v  -0.0947 0.1022 0.3536
v  -0.2588 0.1022 0.2588
v  -0.3536 0.1022 0.0947
v  -0.2399 0.1737 -0.1385
v  -0.1385 0.1737 -0.2399
v  -0.0512 0.2242 -0.1913
v  0.0513 0.2242 -0.1913
v  0.1401 0.2242 -0.1400
v  0.2770 0.1737 -0.0000
v  0.2399 0.1737 0.1385
v  0.1385 0.1737 0.2399
v  0.0000 0.1737 0.2770
v  -0.1385 0.1737 0.2399
v  -0.2399 0.1737 0.1385
v  -0.2770 0.1737 0.0000
v  -0.1913 0.2242 -0.0512
v  -0.1400 0.2242 -0.1401
v  0.1913 0.2242 -0.0512
v  0.1913 0.2242 0.0513
v  0.1400 0.2242 0.1401
v  0.0512 0.2242 0.1913
v  -0.0513 0.2242 0.1913
v  -0.1401 0.2242 0.1400
v  -0.1913 0.2242 0.0512
v  -0.0947 0.1022 -0.3536
v  -0.0947 0.1022 -0.3536
v  -0.0947 0.1022 -0.3536
v  -0.0947 0.1022 -0.3536
v  -0.0947 0.0939 -0.3536
v  -0.0947 0.0939 -0.3536
v  -0.0947 0.0939 -0.3536
v  -0.0947 0.0939 -0.3536
v  -0.2588 0.0939 -0.2588
v  -0.2588 0.0939 -0.2588
v  -0.2588 0.0939 -0.2588
v  -0.2588 0.0939 -0.2588
v  -0.2588 0.1022 -0.2588
v  -0.2588 0.1022 -0.2588
v  -0.2588 0.1022 -0.2588
v  -0.2588 0.1022 -0.2588
v  0.0947 0.1022 -0.3536
v  0.0947 0.1022 -0.3536
v  0.0947 0.1022 -0.3536
v  0.0947 0.1022 -0.3536
v  0.0947 0.0939 -0.3536
v  0.0947 0.0939 -0.3536
v  0.0947 0.0939 -0.3536
v  0.0947 0.0939 -0.3536
v  0.2588 0.1022 -0.2588
v  0.2588 0.1022 -0.2588
v  0.2588 0.1022 -0.2588
v  0.2588 0.1022 -0.2588
v  0.2588 0.0939 -0.2588
v  0.2588 0.0939 -0.2588
v  0.2588 0.0939 -0.2588
v  0.2588 0.0939 -0.2588
v  0.3536 0.1022 -0.0947
v  0.3536 0.1022 -0.0947
v  0.3536 0.1022 -0.0947
v  0.3536 0.1022 -0.0947
v  0.3536 0.0939 -0.0947
v  0.3536 0.0939 -0.0947
v  0.3536 0.0939 -0.0947
v  0.3536 0.0939 -0.0947
v  0.2588 0.1022 0.2588
v  0.2588 0.1022 0.2588
v  0.2588 0.1022 0.2588
v  0.2588 0.1022 0.2588
v  0.2588 0.0939 0.2588
v  0.2588 0.0939 0.2588
v  0.2588 0.0939 0.2588
v  0.2588 0.0939 0.2588
v  0.3536 0.0939 0.0947
v  0.3536 0.0939 0.0947
v  0.3536 0.0939 0.0947
v  0.3536 0.0939 0.0947
v  0.3536 0.1022 0.0947
v  0.3536 0.1022 0.0947
v  0.3536 0.1022 0.0947
v  0.3536 0.1022 0.0947
v  -0.2588 0.0939 0.2588
v  -0.2588 0.0939 0.2588
v  -0.2588 0.0939 0.2588
v  -0.2588 0.0939 0.2588
v  -0.0622 -0.1197 0.1078
v  -0.0622 -0.1197 0.1078
v  -0.0947 0.0939 0.3536
v  -0.0947 0.0939 0.3536
v  -0.0947 0.0939 0.3536
v  -0.0947 0.0939 0.3536
v  -0.0622 -0.1197 -0.1077
v  -0.0622 -0.1197 -0.1077
v  -0.0000 -0.1197 -0.1244
v  -0.0000 -0.1197 -0.1244
v  0.0000 -0.2242 0.0000
v  0.0000 -0.2242 0.0000
v  0.0000 -0.2242 0.0000
v  0.0000 -0.2242 0.0000
v  0.0000 -0.2242 0.0000
v  0.0000 -0.2242 0.0000
v  0.0000 -0.2242 0.0000
v  0.0000 -0.2242 0.0000
v  0.0000 -0.2242 0.0000
v  0.0000 -0.2242 0.0000
v  0.0000 -0.2242 0.0000
v  0.0622 -0.1197 -0.1078
v  0.0622 -0.1197 -0.1078
v  0.1077 -0.1197 -0.0622
v  0.1077 -0.1197 -0.0622
v  0.1244 -0.1197 -0.0000
v  0.1244 -0.1197 -0.0000
v  0.1077 -0.1197 0.0622
v  0.1077 -0.1197 0.0622
v  0.0947 0.0939 0.3536
v  0.0947 0.0939 0.3536
v  0.0947 0.0939 0.3536
v  0.0947 0.0939 0.3536
v  0.0622 -0.1197 0.1077
v  0.0622 -0.1197 0.1077
v  0.0000 -0.1197 0.1244
v  0.0000 -0.1197 0.1244
v  -0.3536 0.0939 0.0947
v  -0.3536 0.0939 0.0947
v  -0.3536 0.0939 0.0947
v  -0.3536 0.0939 0.0947
v  -0.1077 -0.1197 0.0622
v  -0.1077 -0.1197 0.0622
v  -0.3536 0.0939 -0.0947
v  -0.3536 0.0939 -0.0947
v  -0.3536 0.0939 -0.0947
v  -0.3536 0.0939 -0.0947
v  -0.1244 -0.1197 0.0000
v  -0.1244 -0.1197 0.0000
v  -0.1077 -0.1197 -0.0622
v  -0.1077 -0.1197 -0.0622
v  -0.3536 0.1022 -0.0947
v  -0.3536 0.1022 -0.0947
v  -0.3536 0.1022 -0.0947
v  -0.3536 0.1022 -0.0947
v  -0.0000 0.1737 -0.2770
v  -0.0000 0.1737 -0.2770
v  -0.0000 0.1737 -0.2770
v  0.1385 0.1737 -0.2399
v  0.1385 0.1737 -0.2399
v  0.1385 0.1737 -0.2399
v  0.2399 0.1737 -0.1385
v  0.2399 0.1737 -0.1385
v  0.2399 0.1737 -0.1385
v  0.0947 0.1022 0.3536
v  0.0947 0.1022 0.3536
v  0.0947 0.1022 0.3536
v  0.0947 0.1022 0.3536
v  -0.0947 0.1022 0.3536
v  -0.0947 0.1022 0.3536
v  -0.0947 0.1022 0.3536
v  -0.0947 0.1022 0.3536
v  -0.2588 0.1022 0.2588
v  -0.2588 0.1022 0.2588
v  -0.2588 0.1022 0.2588
v  -0.2588 0.1022 0.2588
v  -0.3536 0.1022 0.0947
v  -0.3536 0.1022 0.0947
v  -0.3536 0.1022 0.0947
v  -0.3536 0.1022 0.0947
v  -0.2399 0.1737 -0.1385
v  -0.2399 0.1737 -0.1385
v  -0.2399 0.1737 -0.1385
v  -0.1385 0.1737 -0.2399
v  -0.1385 0.1737 -0.2399
v  -0.1385 0.1737 -0.2399
v  -0.0512 0.2242 -0.1913
v  -0.0512 0.2242 -0.1913
v  -0.0512 0.2242 -0.1913
v  0.0513 0.2242 -0.1913
v  0.0513 0.2242 -0.1913
v  0.0513 0.2242 -0.1913
v  0.1401 0.2242 -0.1400
v  0.1401 0.2242 -0.1400
v  0.1401 0.2242 -0.1400
v  0.2770 0.1737 -0.0000
v  0.2770 0.1737 -0.0000
v  0.2770 0.1737 -0.0000
v  0.2399 0.1737 0.1385
v  0.2399 0.1737 0.1385
v  0.2399 0.1737 0.1385
v  0.1385 0.1737 0.2399
v  0.1385 0.1737 0.2399
v  0.1385 0.1737 0.2399
v  0.0000 0.1737 0.2770
v  0.0000 0.1737 0.2770
v  0.0000 0.1737 0.2770
v  -0.1385 0.1737 0.2399
v  -0.1385 0.1737 0.2399
v  -0.1385 0.1737 0.2399
v  -0.2399 0.1737 0.1385
v  -0.2399 0.1737 0.1385
v  -0.2399 0.1737 0.1385
v  -0.2770 0.1737 0.0000
v  -0.2770 0.1737 0.0000
v  -0.2770 0.1737 0.0000
v  -0.1913 0.2242 -0.0512
v  -0.1913 0.2242 -0.0512
v  -0.1913 0.2242 -0.0512
v  -0.1400 0.2242 -0.1401
v  -0.1400 0.2242 -0.1401
v  -0.1400 0.2242 -0.1401
v  0.1913 0.2242 -0.0512
v  0.1913 0.2242 -0.0512
v  0.1913 0.2242 -0.0512
v  0.1913 0.2242 0.0513
v  0.1913 0.2242 0.0513
v  0.1913 0.2242 0.0513
v  0.1400 0.2242 0.1401
v  0.1400 0.2242 0.1401
v  0.1400 0.2242 0.1401
v  0.0512 0.2242 0.1913
v  0.0512 0.2242 0.1913
v  0.0512 0.2242 0.1913
v  -0.0513 0.2242 0.1913
v  -0.0513 0.2242 0.1913
v  -0.0513 0.2242 0.1913
v  -0.1401 0.2242 0.1400
v  -0.1401 0.2242 0.1400
v  -0.1401 0.2242 0.1400
v  -0.1913 0.2242 0.0512
v  -0.1913 0.2242 0.0512
v  -0.1913 0.2242 0.0512
# 264 vertices

vn -0.5000 0.0000 -0.8660
vn -0.5000 0.0000 -0.8660
vn -0.5000 0.0000 -0.8660
vn -0.5000 0.0000 -0.8660
vn -0.5000 0.0000 -0.8660
vn -0.5000 0.0000 -0.8660
vn 0.0000 0.0000 -1.0000
vn 0.0000 0.0000 -1.0000
vn 0.0000 0.0000 -1.0000
vn 0.0000 0.0000 -1.0000
vn 0.0000 0.0000 -1.0000
vn 0.0000 0.0000 -1.0000
vn 0.5000 0.0000 -0.8660
vn 0.5000 0.0000 -0.8660
vn 0.5000 0.0000 -0.8660
vn 0.5000 0.0000 -0.8660
vn 0.5000 0.0000 -0.8660
vn 0.5000 0.0000 -0.8660
vn 0.8660 0.0000 -0.5000
vn 0.8660 0.0000 -0.5000
vn 0.8660 0.0000 -0.5000
vn 0.8660 0.0000 -0.5000
vn 0.8660 0.0000 -0.5000
vn 0.8660 0.0000 -0.5000
vn 0.8660 0.0000 0.5000
vn 0.8660 0.0000 0.5000
vn 0.8660 0.0000 0.5000
vn 0.8660 0.0000 0.5000
vn 0.8660 0.0000 0.5000
vn 0.8660 0.0000 0.5000
vn -0.3410 -0.7314 0.5906
vn -0.3410 -0.7314 0.5906
vn -0.3410 -0.7314 0.5906
vn -0.3410 -0.7314 -0.5906
vn -0.3410 -0.7314 -0.5906
vn -0.3410 -0.7314 -0.5906
vn 0.0000 -0.7314 -0.6820
vn 0.0000 -0.7314 -0.6820
vn 0.0000 -0.7314 -0.6820
vn -0.1699 -0.7548 -0.6336
vn -0.1696 -0.7548 -0.6337
vn -0.1699 -0.7548 -0.6336
vn -0.1699 -0.7548 -0.6336
vn -0.1701 -0.7548 -0.6336
vn -0.1699 -0.7548 -0.6336
vn 0.1697 -0.7548 -0.6337
vn 0.1700 -0.7548 -0.6336
vn 0.1697 -0.7548 -0.6337
vn 0.1697 -0.7548 -0.6337
vn 0.1695 -0.7548 -0.6337
vn 0.1697 -0.7548 -0.6337
vn 0.3410 -0.7314 -0.5906
vn 0.3410 -0.7314 -0.5906
vn 0.3410 -0.7314 -0.5906
vn 0.4638 -0.7548 -0.4639
vn 0.4640 -0.7548 -0.4638
vn 0.4638 -0.7548 -0.4639
vn 0.4638 -0.7548 -0.4639
vn 0.4636 -0.7548 -0.4641
vn 0.4638 -0.7548 -0.4639
vn 0.5906 -0.7314 -0.3410
vn 0.5906 -0.7314 -0.3410
vn 0.5906 -0.7314 -0.3410
vn 0.6820 -0.7314 -0.0000
vn 0.6820 -0.7314 -0.0000
vn 0.6820 -0.7314 -0.0000
vn 0.6336 -0.7548 -0.1699
vn 0.6337 -0.7548 -0.1696
vn 0.6336 -0.7548 -0.1699
vn 0.6336 -0.7548 -0.1699
vn 0.6336 -0.7548 -0.1701
vn 0.6336 -0.7548 -0.1699
vn 0.5906 -0.7314 0.3410
vn 0.5906 -0.7314 0.3410
vn 0.5906 -0.7314 0.3410
vn 0.6337 -0.7548 0.1697
vn 0.6336 -0.7548 0.1700
vn 0.6337 -0.7548 0.1697
vn 0.6337 -0.7548 0.1697
vn 0.6337 -0.7548 0.1695
vn 0.6337 -0.7548 0.1697
vn 0.3410 -0.7314 0.5906
vn 0.3410 -0.7314 0.5906
vn 0.3410 -0.7314 0.5906
vn 0.4639 -0.7548 0.4638
vn 0.4637 -0.7548 0.4640
vn 0.4639 -0.7548 0.4638
vn 0.4639 -0.7548 0.4638
vn 0.4641 -0.7548 0.4636
vn 0.4639 -0.7548 0.4638
vn 0.1699 -0.7548 0.6336
vn 0.1696 -0.7548 0.6337
vn 0.1699 -0.7548 0.6336
vn 0.1699 -0.7548 0.6336
vn 0.1701 -0.7548 0.6336
vn 0.1699 -0.7548 0.6336
vn 0.0000 -0.7314 0.6820
vn 0.0000 -0.7314 0.6820
vn 0.0000 -0.7314 0.6820
vn -0.5906 -0.7314 0.3410
vn -0.5906 -0.7314 0.3410
vn -0.5906 -0.7314 0.3410
vn -0.1697 -0.7548 0.6337
vn -0.1700 -0.7548 0.6336
vn -0.1697 -0.7548 0.6337
vn -0.1697 -0.7548 0.6337
vn -0.1694 -0.7548 0.6338
vn -0.1697 -0.7548 0.6337
vn -0.6820 -0.7314 -0.0000
vn -0.6820 -0.7314 -0.0000
vn -0.6820 -0.7314 -0.0000
vn -0.4638 -0.7548 0.4639
vn -0.4640 -0.7548 0.4637
vn -0.4638 -0.7548 0.4639
vn -0.4638 -0.7548 0.4639
vn -0.4636 -0.7548 0.4641
vn -0.4638 -0.7548 0.4639
vn -0.5906 -0.7314 -0.3410
vn -0.5906 -0.7314 -0.3410
vn -0.5906 -0.7314 -0.3410
vn -0.6336 -0.7548 0.1699
vn -0.6337 -0.7548 0.1696
vn -0.6336 -0.7548 0.1699
vn -0.6336 -0.7548 0.1699
vn -0.6336 -0.7548 0.1701
vn -0.6336 -0.7548 0.1699
vn -0.4639 -0.7547 -0.4639
vn -0.4639 -0.7547 -0.4639
vn -0.4639 -0.7547 -0.4639
vn -0.4639 -0.7547 -0.4639
vn -0.4639 -0.7548 -0.4639
vn -0.4639 -0.7547 -0.4639
vn 1.0000 0.0000 -0.0000
vn 1.0000 0.0000 -0.0000
vn 1.0000 0.0000 -0.0000
vn 1.0000 0.0000 -0.0000
vn 1.0000 0.0000 -0.0000
vn 1.0000 0.0000 -0.0000
vn -0.6337 -0.7548 -0.1698
vn -0.6336 -0.7548 -0.1701
vn -0.6337 -0.7548 -0.1698
vn -0.6337 -0.7548 -0.1698
vn -0.6337 -0.7548 -0.1695
vn -0.6337 -0.7548 -0.1698
vn -0.8660 0.0000 -0.5000
vn -0.8660 0.0000 -0.5000
vn -0.8660 0.0000 -0.5000
vn -0.8660 0.0000 -0.5000
vn -0.8660 0.0000 -0.5000
vn -0.8660 0.0000 -0.5000
vn 0.0000 0.7306 -0.6828
vn 0.0000 0.7306 -0.6828
vn 0.0000 0.7306 -0.6828
vn 0.3414 0.7306 -0.5913
vn 0.3414 0.7306 -0.5913
vn 0.3414 0.7306 -0.5913
vn 0.5913 0.7306 -0.3414
vn 0.5913 0.7306 -0.3414
vn 0.5913 0.7306 -0.3414
vn 0.5000 0.0000 0.8660
vn 0.5000 0.0000 0.8660
vn 0.5000 0.0000 0.8660
vn 0.5000 0.0000 0.8660
vn 0.5000 0.0000 0.8660
vn 0.5000 0.0000 0.8660
vn 0.0000 0.0000 1.0000
vn 0.0000 0.0000 1.0000
vn 0.0000 0.0000 1.0000
vn 0.0000 0.0000 1.0000
vn 0.0000 0.0000 1.0000
vn 0.0000 0.0000 1.0000
vn -0.5000 0.0000 0.8660
vn -0.5000 0.0000 0.8660
vn -0.5000 0.0000 0.8660
vn -0.5000 0.0000 0.8660
vn -0.5000 0.0000 0.8660
vn -0.5000 0.0000 0.8660
vn -0.8660 0.0000 0.5000
vn -0.8660 0.0000 0.5000
vn -0.8660 0.0000 0.5000
vn -0.8660 0.0000 0.5000
vn -0.8660 0.0000 0.5000
vn -0.8660 0.0000 0.5000
vn -1.0000 0.0000 -0.0000
vn -1.0000 0.0000 -0.0000
vn -1.0000 0.0000 -0.0000
vn -1.0000 0.0000 -0.0000
vn -1.0000 0.0000 -0.0000
vn -1.0000 0.0000 -0.0000
vn -0.5913 0.7306 -0.3414
vn -0.5913 0.7306 -0.3414
vn -0.5913 0.7306 -0.3414
vn -0.3414 0.7306 -0.5913
vn -0.3414 0.7306 -0.5913
vn -0.3414 0.7306 -0.5913
vn -0.1521 0.8090 -0.5677
vn -0.1521 0.8090 -0.5677
vn -0.1521 0.8090 -0.5677
vn -0.1521 0.8090 -0.5677
vn -0.1522 0.8090 -0.5677
vn -0.1521 0.8090 -0.5677
vn 0.1521 0.8090 -0.5677
vn 0.1521 0.8090 -0.5677
vn 0.1521 0.8090 -0.5677
vn 0.1521 0.8090 -0.5677
vn 0.1521 0.8090 -0.5677
vn 0.1521 0.8090 -0.5677
vn 0.4156 0.8090 -0.4156
vn 0.4156 0.8090 -0.4156
vn 0.4156 0.8090 -0.4156
vn 0.4156 0.8090 -0.4156
vn 0.4156 0.8090 -0.4156
vn 0.4156 0.8090 -0.4156
vn 0.6828 0.7306 -0.0000
vn 0.6828 0.7306 -0.0000
vn 0.6828 0.7306 -0.0000
vn 0.5913 0.7306 0.3414
vn 0.5913 0.7306 0.3414
vn 0.5913 0.7306 0.3414
vn 0.3414 0.7306 0.5913
vn 0.3414 0.7306 0.5913
vn 0.3414 0.7306 0.5913
vn 0.0000 0.7306 0.6828
vn 0.0000 0.7306 0.6828
vn 0.0000 0.7306 0.6828
vn -0.3414 0.7306 0.5913
vn -0.3414 0.7306 0.5913
vn -0.3414 0.7306 0.5913
vn -0.5913 0.7306 0.3414
vn -0.5913 0.7306 0.3414
vn -0.5913 0.7306 0.3414
vn -0.6828 0.7306 -0.0000
vn -0.6828 0.7306 -0.0000
vn -0.6828 0.7306 -0.0000
vn -0.5677 0.8090 -0.1521
vn -0.5678 0.8090 -0.1521
vn -0.5677 0.8090 -0.1521
vn -0.5677 0.8090 -0.1521
vn -0.5677 0.8090 -0.1521
vn -0.5677 0.8090 -0.1521
vn -0.4156 0.8090 -0.4156
vn -0.4156 0.8090 -0.4156
vn -0.4156 0.8090 -0.4156
vn -0.4156 0.8090 -0.4156
vn -0.4156 0.8090 -0.4156
vn -0.4156 0.8090 -0.4156
vn -0.2537 0.8615 -0.4398
vn -0.2537 0.8615 -0.4398
vn -0.2537 0.8615 -0.4398
vn 0.0002 0.8615 -0.5077
vn 0.0002 0.8615 -0.5077
vn 0.0002 0.8615 -0.5077
vn 0.5677 0.8090 -0.1521
vn 0.5677 0.8090 -0.1521
vn 0.5677 0.8090 -0.1521
vn 0.5677 0.8090 -0.1521
vn 0.5677 0.8090 -0.1522
vn 0.5677 0.8090 -0.1521
vn 0.2540 0.8615 -0.4396
vn 0.2540 0.8615 -0.4396
vn 0.2540 0.8615 -0.4396
vn 0.4398 0.8615 -0.2537
vn 0.4398 0.8615 -0.2537
vn 0.4398 0.8615 -0.2537
vn 0.5677 0.8090 0.1521
vn 0.5677 0.8090 0.1521
vn 0.5677 0.8090 0.1521
vn 0.5677 0.8090 0.1521
vn 0.5677 0.8090 0.1521
vn 0.5677 0.8090 0.1521
vn 0.5077 0.8615 0.0002
vn 0.5077 0.8615 0.0002
vn 0.5077 0.8615 0.0002
vn 0.4156 0.8090 0.4156
vn 0.4156 0.8090 0.4156
vn 0.4156 0.8090 0.4156
vn 0.4156 0.8090 0.4156
vn 0.4157 0.8090 0.4156
vn 0.4156 0.8090 0.4156
vn 0.1521 0.8090 0.5677
vn 0.1521 0.8090 0.5677
vn 0.1521 0.8090 0.5677
vn 0.1521 0.8090 0.5677
vn 0.1522 0.8090 0.5677
vn 0.1521 0.8090 0.5677
vn -0.1521 0.8090 0.5677
vn -0.1521 0.8090 0.5677
vn -0.1521 0.8090 0.5677
vn -0.1521 0.8090 0.5677
vn -0.1521 0.8090 0.5678
vn -0.1521 0.8090 0.5677
vn -0.4156 0.8090 0.4156
vn -0.4156 0.8090 0.4156
vn -0.4156 0.8090 0.4156
vn -0.4156 0.8090 0.4156
vn -0.4156 0.8090 0.4156
vn -0.4156 0.8090 0.4156
vn -0.5677 0.8090 0.1521
vn -0.5677 0.8090 0.1521
vn -0.5677 0.8090 0.1521
vn -0.5677 0.8090 0.1521
vn -0.5677 0.8090 0.1522
vn -0.5677 0.8090 0.1521
vn -0.4396 0.8616 -0.2538
vn -0.4396 0.8616 -0.2538
vn -0.4396 0.8616 -0.2538
vn -0.5078 0.8615 -0.0000
vn -0.5078 0.8615 -0.0000
vn -0.5078 0.8615 -0.0000
vn -0.4398 0.8615 0.2537
vn -0.4398 0.8615 0.2537
vn -0.4398 0.8615 0.2537
vn -0.2540 0.8615 0.4396
vn -0.2540 0.8615 0.4396
vn -0.2540 0.8615 0.4396
vn -0.0002 0.8615 0.5077
vn -0.0002 0.8615 0.5077
vn -0.0002 0.8615 0.5077
vn 0.4396 0.8615 0.2540
vn 0.4396 0.8615 0.2540
vn 0.4396 0.8615 0.2540
vn 0.2537 0.8615 0.4398
vn 0.2537 0.8615 0.4398
vn 0.2537 0.8615 0.4398
vn -0.0000 1.0000 0.0001
vn -0.0000 1.0000 0.0000
vn 0.0000 1.0000 0.0000
vn 0.0000 1.0000 -0.0000
vn -0.0000 1.0000 0.0000
vn -0.0000 1.0000 0.0000
vn -0.0000 1.0000 0.0000
vn 0.0000 1.0000 -0.0000
vn -0.0000 1.0000 0.0000
vn -0.0000 1.0000 0.0000
vn -0.0000 1.0000 0.0000
vn 0.0000 1.0000 -0.0000
vn 0.0000 1.0000 0.0000
vn -0.0000 1.0000 0.0000
vn 0.0000 1.0000 -0.0000
vn 0.0000 1.0000 0.0000
vn 0.0000 1.0000 -0.0000
vn 0.0000 1.0000 -0.0000
vn 0.0000 1.0000 0.0000
vn 0.0000 1.0000 0.0000
vn 0.0000 1.0000 -0.0000
vn 0.0000 1.0000 0.0000
vn 0.0000 1.0000 -0.0000
vn 0.0000 1.0000 0.0000
vn 0.0000 1.0000 0.0000
vn 0.0000 1.0000 0.0000
vn 0.0000 1.0000 0.0000
vn -0.0000 1.0000 0.0001
vn 0.0000 1.0000 0.0000
vn 0.0000 1.0000 0.0000
# 354 vertex normals

vt 0.5000 0.7941 0.0000
vt 0.3952 0.6848 0.0000
vt 0.3952 0.6699 0.0000
vt 0.2137 0.6699 0.0000
vt 0.2137 0.6848 0.0000
vt 0.6048 0.6848 0.0000
vt 0.6048 0.6699 0.0000
vt 0.7863 0.6848 0.0000
vt 0.7863 0.6699 0.0000
vt 0.6048 0.6848 0.0000
vt 0.6048 0.6699 0.0000
vt 0.6006 0.6848 0.0000
vt 0.6006 0.6699 0.0000
vt 0.7748 0.6699 0.0000
vt 0.7748 0.6848 0.0000
vt 0.2252 0.6848 0.0000
vt 0.2252 0.6699 0.0000
vt 0.3994 0.6699 0.0000
vt 0.3994 0.6848 0.0000
vt 0.2137 0.2252 0.0000
vt 0.4312 0.3856 0.0000
vt 0.3952 0.1246 0.0000
vt 0.3952 0.8754 0.0000
vt 0.4312 0.6144 0.0000
vt 0.2137 0.7748 0.0000
vt 0.6048 0.8754 0.0000
vt 0.5000 0.6321 0.0000
vt 0.5000 0.5000 0.0000
vt 0.5688 0.6144 0.0000
vt 0.7863 0.7748 0.0000
vt 0.6192 0.5661 0.0000
vt 0.8911 0.6006 0.0000
vt 0.8911 0.3994 0.0000
vt 0.6376 0.5000 0.0000
vt 0.7863 0.2252 0.0000
vt 0.6192 0.4340 0.0000
vt 0.6048 0.1246 0.0000
vt 0.5688 0.3856 0.0000
vt 0.5000 0.3679 0.0000
vt 0.1089 0.3994 0.0000
vt 0.3808 0.4339 0.0000
vt 0.1089 0.6006 0.0000
vt 0.3624 0.5000 0.0000
vt 0.3808 0.5661 0.0000
vt 0.7748 0.6848 0.0000
vt 0.7748 0.6699 0.0000
vt 0.6006 0.6699 0.0000
vt 0.6006 0.6848 0.0000
vt 0.3994 0.6848 0.0000
vt 0.3994 0.6699 0.0000
vt 0.2252 0.6699 0.0000
vt 0.2252 0.6848 0.0000
vt 0.7863 0.6699 0.0000
vt 0.7863 0.6848 0.0000
vt 0.3952 0.6848 0.0000
vt 0.3952 0.6699 0.0000
vt 0.2137 0.6848 0.0000
vt 0.2137 0.6699 0.0000
vt 0.6048 0.8754 0.0000
vt 0.3952 0.8754 0.0000
vt 0.6532 0.7547 0.0000
vt 0.7863 0.7748 0.0000
vt 0.7654 0.6471 0.0000
vt 0.8911 0.6006 0.0000
vt 0.1089 0.6006 0.0000
vt 0.2346 0.6471 0.0000
vt 0.2137 0.7748 0.0000
vt 0.3468 0.7547 0.0000
vt 0.4434 0.7031 0.0000
vt 0.5568 0.7031 0.0000
vt 0.6550 0.6486 0.0000
vt 0.8064 0.5000 0.0000
vt 0.8911 0.3994 0.0000
vt 0.7654 0.3530 0.0000
vt 0.7863 0.2252 0.0000
vt 0.6532 0.2453 0.0000
vt 0.6048 0.1246 0.0000
vt 0.5000 0.2059 0.0000
vt 0.3952 0.1246 0.0000
vt 0.3468 0.2453 0.0000
vt 0.2137 0.2252 0.0000
vt 0.2346 0.3529 0.0000
vt 0.1089 0.3994 0.0000
vt 0.1936 0.5000 0.0000
vt 0.2884 0.5544 0.0000
vt 0.3451 0.6487 0.0000
vt 0.7116 0.5544 0.0000
vt 0.7116 0.4455 0.0000
vt 0.6549 0.3513 0.0000
vt 0.5566 0.2969 0.0000
vt 0.4432 0.2969 0.0000
vt 0.3450 0.3514 0.0000
vt 0.2884 0.4456 0.0000
# 93 texture coords

g round
usemtl Material__25
f 73/4/1 4/5/2 1/2/3 
f 1/2/4 69/3/5 73/4/6 
f 2/3/7 65/2/8 81/6/9 
f 81/6/10 6/7/11 2/3/12 
f 82/7/13 80/6/14 89/8/15 
f 89/8/16 8/9/17 82/7/18 
f 90/14/19 88/15/20 97/12/21 
f 97/12/22 10/13/23 90/14/24 
f 110/18/25 116/19/26 11/16/27 
f 11/16/28 109/17/29 110/18/30 
f 15/20/31 123/21/32 17/22/33 
f 68/23/34 129/24/35 3/25/36 
f 85/26/37 19/27/38 66/23/39 
f 67/23/40 131/27/41 135/28/42 
f 135/28/43 18/24/44 67/23/45 
f 84/26/46 144/29/47 136/28/48 
f 136/28/49 130/27/50 84/26/51 
f 93/30/52 21/29/53 83/26/54 
f 92/30/55 146/31/56 137/28/57 
f 137/28/58 143/29/59 92/30/60 
f 101/32/61 22/31/62 91/30/63 
f 113/33/64 23/34/65 99/32/66 
f 100/32/67 148/34/68 138/28/69 
f 138/28/70 145/31/71 100/32/72 
f 108/35/73 150/36/74 111/33/75 
f 112/33/76 149/36/77 139/28/78 
f 139/28/79 147/34/80 112/33/81 
f 154/37/82 26/38/83 106/35/84 
f 107/35/85 156/38/86 140/28/87 
f 140/28/88 24/36/89 107/35/90 
f 153/37/91 157/39/92 141/28/93 
f 141/28/94 155/38/95 153/37/96 
f 125/22/97 158/39/98 152/37/99 
f 162/40/100 29/41/101 120/20/102 
f 124/22/103 122/21/104 142/28/105 
f 142/28/106 27/39/107 124/22/108 
f 166/42/109 169/43/110 160/40/111 
f 121/20/112 164/41/113 20/28/114 
f 20/28/115 16/21/116 121/20/117 
f 172/44/118 30/42/119 71/25/120 
f 161/40/121 31/43/122 132/28/123 
f 132/28/124 163/41/125 161/40/126 
f 128/24/127 134/28/128 32/44/129 
f 32/44/130 70/25/131 128/24/132 
f 98/13/133 96/12/134 117/19/135 
f 117/19/136 13/18/137 98/13/138 
f 165/42/139 171/44/140 133/28/141 
f 133/28/142 170/43/143 165/42/144 
f 168/47/145 33/48/146 74/45/147 
f 74/45/148 72/46/149 168/47/150 
f 179/1/151 5/59/152 64/60/153 
f 182/61/154 7/62/155 79/59/156 
f 185/63/157 9/64/158 87/62/159 
f 12/53/160 105/54/161 189/10/162 
f 189/10/163 25/11/164 12/53/165 
f 151/11/166 188/10/167 38/55/168 
f 38/55/169 126/56/170 151/11/171 
f 127/56/172 193/55/173 39/57/174 
f 39/57/175 118/58/176 127/56/177 
f 119/51/178 197/52/179 40/49/180 
f 40/49/181 28/50/182 119/51/183 
f 159/50/184 201/49/185 173/48/186 
f 173/48/187 167/47/188 159/50/189 
f 176/65/190 41/66/191 75/67/192 
f 42/68/193 62/60/194 77/67/195 
f 43/69/196 34/1/197 63/60/198 
f 63/60/199 207/68/200 43/69/201 
f 213/70/202 35/61/203 78/59/204 
f 78/59/205 178/1/206 213/70/207 
f 216/71/208 36/63/209 86/62/210 
f 86/62/211 181/61/212 216/71/213 
f 219/72/214 14/73/215 95/64/216 
f 47/74/217 102/75/218 115/73/219 
f 225/76/220 37/77/221 104/75/222 
f 228/78/223 190/79/224 187/77/225 
f 231/80/226 194/81/227 192/79/228 
f 234/82/229 198/83/230 196/81/231 
f 52/84/232 174/65/233 200/83/234 
f 237/84/235 53/85/236 202/66/237 
f 202/66/238 175/65/239 237/84/240 
f 243/86/241 205/68/242 76/67/243 
f 76/67/244 204/66/245 243/86/246 
f 208/69/247 206/68/248 242/86/249 
f 44/70/250 177/1/251 210/69/252 
f 246/87/253 46/72/254 94/64/255 
f 94/64/256 184/63/257 246/87/258 
f 45/71/259 180/61/260 212/70/261 
f 55/87/262 183/63/263 215/71/264 
f 249/88/265 220/74/266 114/73/267 
f 114/73/268 218/72/269 249/88/270 
f 56/88/271 217/72/272 245/87/273 
f 252/89/274 48/76/275 103/75/276 
f 103/75/277 222/74/278 252/89/279 
f 255/90/280 49/78/281 186/77/282 
f 186/77/283 224/76/284 255/90/285 
f 258/91/286 50/80/287 191/79/288 
f 191/79/289 227/78/290 258/91/291 
f 261/92/292 51/82/293 195/81/294 
f 195/81/295 230/80/296 261/92/297 
f 264/93/298 235/84/299 199/83/300 
f 199/83/301 233/82/302 264/93/303 
f 54/86/304 203/66/305 240/85/306 
f 238/85/307 236/84/308 263/93/309 
f 61/93/310 232/82/311 260/92/312 
f 60/92/313 229/80/314 257/91/315 
f 59/91/316 226/78/317 254/90/318 
f 57/89/319 221/74/320 248/88/321 
f 58/90/322 223/76/323 251/89/324 
f 259/92/325 256/91/326 253/90/327 
f 214/71/328 211/70/329 209/69/330 
f 244/87/331 214/71/332 209/69/333 
f 244/87/334 209/69/335 241/86/336 
f 247/88/337 244/87/338 241/86/339 
f 247/88/340 241/86/341 239/85/342 
f 250/89/343 247/88/344 239/85/345 
f 250/89/346 239/85/347 262/93/348 
f 253/90/349 250/89/350 262/93/351 
f 259/92/352 253/90/353 262/93/354 
# 118 faces

