# 3ds Max Wavefront OBJ Exporter v0.97b - (c)2007 guruware
# File Created: 21.03.2017 21:32:42

mtllib b10.mtl

#
# object D10
#

v  0.0158 0.5796 0.0490
v  -0.0423 0.5796 0.0316
v  -0.0014 0.6110 0.0007
v  -0.1650 -0.0667 0.5379
v  0.1899 0.0614 0.5290
v  -0.4511 0.0614 0.3399
v  0.0499 0.5796 0.0004
v  0.4460 -0.0683 -0.3363
v  0.5642 0.0614 0.0007
v  0.1634 0.0614 -0.5379
v  0.0136 0.5796 -0.0483
v  -0.0014 0.6110 0.0007
v  0.0158 0.5796 0.0490
v  0.4587 -0.0659 0.3238
v  0.1899 0.0614 0.5290
v  0.5642 0.0614 0.0007
v  0.0499 0.5796 0.0004
v  -0.0014 0.6110 0.0007
v  -0.0434 0.5797 -0.0288
v  -0.5642 -0.0653 0.0100
v  -0.4623 0.0615 -0.3230
v  -0.4511 0.0614 0.3399
v  -0.0423 0.5796 0.0316
v  -0.0014 0.6110 0.0007
v  0.0136 0.5796 -0.0483
v  -0.1844 -0.0654 -0.5317
v  0.1634 0.0614 -0.5379
v  -0.4623 0.0615 -0.3230
v  -0.0434 0.5797 -0.0288
v  -0.0014 0.6110 0.0007
v  -0.0529 -0.5797 0.0016
v  -0.0162 -0.5797 0.0500
v  -0.0013 -0.6110 0.0008
v  -0.4511 0.0614 0.3399
v  -0.1650 -0.0667 0.5379
v  -0.5642 -0.0653 0.0100
v  -0.0529 -0.5797 0.0016
v  -0.4623 0.0615 -0.3230
v  -0.5642 -0.0653 0.0100
v  -0.0181 -0.5797 -0.0479
v  -0.1844 -0.0654 -0.5317
v  -0.0013 -0.6110 0.0008
v  -0.0181 -0.5797 -0.0479
v  0.1634 0.0614 -0.5379
v  -0.1844 -0.0654 -0.5317
v  0.0398 -0.5798 -0.0300
v  0.4460 -0.0683 -0.3363
v  -0.0013 -0.6110 0.0008
v  0.5642 0.0614 0.0007
v  0.0410 -0.5797 0.0305
v  0.4587 -0.0659 0.3238
v  0.0398 -0.5798 -0.0300
v  0.4460 -0.0683 -0.3363
v  -0.0013 -0.6110 0.0008
v  -0.1650 -0.0667 0.5379
v  0.0410 -0.5797 0.0305
v  -0.0162 -0.5797 0.0500
v  0.1899 0.0614 0.5290
v  0.4587 -0.0659 0.3238
v  -0.0013 -0.6110 0.0008
# 60 vertices

vn -0.1733 0.7969 0.5787
vn -0.2094 0.6898 0.6931
vn -0.2054 0.6897 0.6944
vn -0.2054 0.6897 0.6944
vn -0.2094 0.6898 0.6931
vn -0.2207 0.6266 0.7474
vn -0.2073 0.6264 0.7515
vn -0.2054 0.6897 0.6944
vn -0.2207 0.6266 0.7474
vn -0.2094 0.6898 0.6931
vn -0.2338 0.6267 0.7434
vn -0.2207 0.6266 0.7474
vn 0.6299 0.6247 -0.4614
vn 0.6262 0.6249 -0.4662
vn 0.5818 0.6878 -0.4340
vn 0.6262 0.6249 -0.4662
vn 0.6228 0.6250 -0.4706
vn 0.5818 0.6878 -0.4340
vn 0.6228 0.6250 -0.4706
vn 0.5819 0.6874 -0.4346
vn 0.5818 0.6878 -0.4340
vn 0.5819 0.6874 -0.4346
vn 0.4839 0.7969 -0.3615
vn 0.5818 0.6878 -0.4340
vn 0.6380 0.6277 0.4461
vn 0.6353 0.6275 0.4501
vn 0.5891 0.6932 0.4153
vn 0.6353 0.6275 0.4501
vn 0.6329 0.6275 0.4534
vn 0.5891 0.6932 0.4153
vn 0.6329 0.6275 0.4534
vn 0.5889 0.6939 0.4143
vn 0.5891 0.6932 0.4153
vn 0.5889 0.6939 0.4143
vn 0.4905 0.8002 0.3452
vn 0.5891 0.6932 0.4153
vn -0.7780 0.6283 0.0012
vn -0.7775 0.6287 0.0133
vn -0.7236 0.6902 0.0126
vn -0.7775 0.6287 0.0133
vn -0.7772 0.6288 0.0242
vn -0.7236 0.6902 0.0126
vn -0.7772 0.6288 0.0242
vn -0.7247 0.6890 0.0128
vn -0.7236 0.6902 0.0126
vn -0.7236 0.6902 0.0126
vn -0.7247 0.6890 0.0128
vn -0.6022 0.7983 0.0107
vn -0.2422 0.6283 -0.7393
vn -0.2526 0.6287 -0.7355
vn -0.2345 0.6903 -0.6845
vn -0.2526 0.6287 -0.7355
vn -0.2620 0.6288 -0.7321
vn -0.2345 0.6903 -0.6845
vn -0.2620 0.6288 -0.7321
vn -0.2347 0.6890 -0.6857
vn -0.2345 0.6903 -0.6845
vn -0.2345 0.6903 -0.6845
vn -0.2347 0.6890 -0.6857
vn -0.1948 0.7985 -0.5696
vn -0.4785 -0.7996 0.3630
vn -0.5730 -0.6936 0.4365
vn -0.5755 -0.6933 0.4337
vn -0.5730 -0.6936 0.4365
vn -0.6197 -0.6308 0.4669
vn -0.5755 -0.6933 0.4337
vn -0.6123 -0.6308 0.4766
vn -0.6197 -0.6308 0.4669
vn -0.5730 -0.6936 0.4365
vn -0.5755 -0.6933 0.4337
vn -0.6197 -0.6308 0.4669
vn -0.6271 -0.6307 0.4572
vn -0.6417 -0.6307 -0.4364
vn -0.6354 -0.6308 -0.4454
vn -0.5906 -0.6940 -0.4118
vn -0.5906 -0.6940 -0.4118
vn -0.6354 -0.6308 -0.4454
vn -0.5886 -0.6940 -0.4146
vn -0.5886 -0.6940 -0.4146
vn -0.6354 -0.6308 -0.4454
vn -0.6290 -0.6307 -0.4545
vn -0.5886 -0.6940 -0.4146
vn -0.4905 -0.8008 -0.3437
vn -0.5906 -0.6940 -0.4118
vn 0.2166 -0.6307 -0.7452
vn 0.2270 -0.6308 -0.7420
vn 0.2111 -0.6935 -0.6888
vn 0.2111 -0.6935 -0.6888
vn 0.2270 -0.6308 -0.7420
vn 0.2142 -0.6938 -0.6876
vn 0.2142 -0.6938 -0.6876
vn 0.2270 -0.6308 -0.7420
vn 0.2373 -0.6309 -0.7387
vn 0.2142 -0.6938 -0.6876
vn 0.1774 -0.8000 -0.5732
vn 0.2111 -0.6935 -0.6888
vn 0.7748 -0.6321 0.0039
vn 0.7191 -0.6948 -0.0113
vn 0.7747 -0.6322 -0.0122
vn 0.7191 -0.6948 -0.0113
vn 0.7187 -0.6952 -0.0162
vn 0.7747 -0.6322 -0.0122
vn 0.7187 -0.6952 -0.0162
vn 0.7744 -0.6321 -0.0283
vn 0.7747 -0.6322 -0.0122
vn 0.7187 -0.6952 -0.0162
vn 0.7191 -0.6948 -0.0113
vn 0.5987 -0.8009 -0.0117
vn 0.2321 -0.6924 0.6831
vn 0.2330 -0.6925 0.6827
vn 0.2459 -0.6298 0.7368
vn 0.2459 -0.6298 0.7368
vn 0.2330 -0.6925 0.6827
vn 0.2529 -0.6298 0.7344
vn 0.2330 -0.6925 0.6827
vn 0.2605 -0.6296 0.7319
vn 0.2529 -0.6298 0.7344
vn 0.2330 -0.6925 0.6827
vn 0.2321 -0.6924 0.6831
vn 0.1927 -0.8007 0.5672
# 120 vertex normals

vt 0.7268 0.3684 0.0000
vt 0.7020 0.3676 0.0000
vt 0.7137 0.3899 0.0000
vt 0.7257 0.0106 0.0000
vt 0.8608 0.0880 0.0000
vt 0.5884 0.0779 0.0000
vt 0.1299 0.3636 0.0000
vt 0.1469 0.0060 0.0000
vt 0.0072 0.0769 0.0000
vt 0.2810 0.0794 0.0000
vt 0.1547 0.3638 0.0000
vt 0.1421 0.3856 0.0000
vt 0.1283 0.7975 0.0000
vt 0.1402 0.4402 0.0000
vt 0.0088 0.5105 0.0000
vt 0.2728 0.5098 0.0000
vt 0.1526 0.7975 0.0000
vt 0.1404 0.8195 0.0000
vt 0.4171 0.3644 0.0000
vt 0.4307 0.0071 0.0000
vt 0.2954 0.0780 0.0000
vt 0.5657 0.0790 0.0000
vt 0.4417 0.3644 0.0000
vt 0.4293 0.3863 0.0000
vt 0.4145 0.7907 0.0000
vt 0.4287 0.4334 0.0000
vt 0.2934 0.5040 0.0000
vt 0.5632 0.5054 0.0000
vt 0.4391 0.7908 0.0000
vt 0.4266 0.8127 0.0000
vt 0.5630 0.5612 0.0000
vt 0.5878 0.5609 0.0000
vt 0.5752 0.5391 0.0000
vt 0.5786 0.9171 0.0000
vt 0.7127 0.8435 0.0000
vt 0.4428 0.8467 0.0000
vt 0.2995 0.1336 0.0000
vt 0.2846 0.4896 0.0000
vt 0.4201 0.4189 0.0000
vt 0.2748 0.1335 0.0000
vt 0.1504 0.4172 0.0000
vt 0.2873 0.1116 0.0000
vt 0.8811 0.1429 0.0000
vt 0.8566 0.4983 0.0000
vt 0.9938 0.4315 0.0000
vt 0.8563 0.1420 0.0000
vt 0.7249 0.4206 0.0000
vt 0.8694 0.1206 0.0000
vt 0.5683 0.4902 0.0000
vt 0.5617 0.1336 0.0000
vt 0.4376 0.4169 0.0000
vt 0.5864 0.1337 0.0000
vt 0.7069 0.4172 0.0000
vt 0.5743 0.1117 0.0000
vt 0.1520 0.8453 0.0000
vt 0.2980 0.5611 0.0000
vt 0.2733 0.5611 0.0000
vt 0.2903 0.9167 0.0000
vt 0.4209 0.8449 0.0000
vt 0.2855 0.5391 0.0000
# 60 texture coords

g D10
usemtl wire_134110008
f 3/3/1 2/2/2 1/1/3 
f 1/1/4 2/2/5 4/4/6 
f 5/5/7 1/1/8 4/4/9 
f 2/2/10 6/6/11 4/4/12 
f 9/9/13 8/8/14 7/7/15 
f 8/8/16 10/10/17 7/7/18 
f 10/10/19 11/11/20 7/7/21 
f 11/11/22 12/12/23 7/7/24 
f 15/15/25 14/14/26 13/13/27 
f 14/14/28 16/16/29 13/13/30 
f 16/16/31 17/17/32 13/13/33 
f 17/17/34 18/18/35 13/13/36 
f 21/21/37 20/20/38 19/19/39 
f 20/20/40 22/22/41 19/19/42 
f 22/22/43 23/23/44 19/19/45 
f 19/19/46 23/23/47 24/24/48 
f 27/27/49 26/26/50 25/25/51 
f 26/26/52 28/28/53 25/25/54 
f 28/28/55 29/29/56 25/25/57 
f 25/25/58 29/29/59 30/30/60 
f 33/33/61 32/32/62 31/31/63 
f 32/32/64 34/34/65 31/31/66 
f 35/35/67 34/34/68 32/32/69 
f 31/31/70 34/34/71 36/36/72 
f 39/39/73 38/38/74 37/37/75 
f 37/37/76 38/38/77 40/40/78 
f 40/40/79 38/38/80 41/41/81 
f 40/40/82 42/42/83 37/37/84 
f 45/45/85 44/44/86 43/43/87 
f 43/43/88 44/44/89 46/46/90 
f 46/46/91 44/44/92 47/47/93 
f 46/46/94 48/48/95 43/43/96 
f 51/51/97 50/50/98 49/49/99 
f 50/50/100 52/52/101 49/49/102 
f 52/52/103 53/53/104 49/49/105 
f 52/52/106 50/50/107 54/54/108 
f 57/57/109 56/56/110 55/55/111 
f 55/55/112 56/56/113 58/58/114 
f 56/56/115 59/59/116 58/58/117 
f 56/56/118 57/57/119 60/60/120 
# 40 faces

