# 3ds Max Wavefront OBJ Exporter v0.97b - (c)2007 guruware
# File Created: 21.03.2017 21:33:04

mtllib b8.mtl

#
# object d8
#

v  0.0000 0.5196 0.0739
v  0.3118 0.0502 0.3858
v  -0.3118 0.0502 0.3858
v  -0.0334 0.5528 0.0334
v  -0.3691 0.0475 0.3691
v  0.3691 0.0475 0.3691
v  0.3325 0.0000 0.4024
v  0.3877 0.0000 0.3877
v  0.0334 0.5528 0.0334
v  0.0000 0.5861 -0.0000
v  -0.3325 0.0000 0.4024
v  -0.3877 0.0000 0.3877
v  0.0739 0.5196 -0.0000
v  0.3858 0.0502 -0.3118
v  0.3858 0.0502 0.3118
v  0.3691 0.0475 -0.3691
v  0.4024 0.0000 -0.3325
v  0.3877 0.0000 -0.3877
v  0.0334 0.5528 -0.0334
v  0.0000 0.5861 -0.0000
v  0.0334 0.5528 0.0334
v  0.3691 0.0475 0.3691
v  0.4024 0.0000 0.3325
v  0.3877 0.0000 0.3877
v  0.0000 0.5196 -0.0739
v  -0.3118 0.0502 -0.3858
v  0.3118 0.0502 -0.3858
v  -0.3691 0.0475 -0.3691
v  -0.3325 0.0000 -0.4024
v  -0.3877 0.0000 -0.3877
v  -0.0334 0.5528 -0.0334
v  0.0334 0.5528 -0.0334
v  0.0000 0.5861 -0.0000
v  0.3691 0.0475 -0.3691
v  0.3325 0.0000 -0.4024
v  0.3877 0.0000 -0.3877
v  -0.0739 0.5196 -0.0000
v  -0.3858 0.0502 0.3118
v  -0.3858 0.0502 -0.3118
v  -0.4024 0.0000 -0.3325
v  -0.4024 0.0000 0.3325
v  -0.3691 0.0475 0.3691
v  -0.3877 0.0000 0.3877
v  -0.3691 0.0475 -0.3691
v  -0.3877 0.0000 -0.3877
v  -0.0334 0.5528 0.0334
v  -0.0334 0.5528 -0.0334
v  0.0000 0.5861 -0.0000
v  0.0000 -0.5195 0.0739
v  -0.3118 -0.0502 0.3858
v  0.3118 -0.0502 0.3858
v  -0.3691 -0.0475 0.3691
v  -0.0334 -0.5528 0.0334
v  0.3325 0.0000 0.4024
v  -0.3325 0.0000 0.4024
v  0.0334 -0.5528 0.0334
v  0.3691 -0.0475 0.3691
v  0.0000 -0.5861 -0.0000
v  -0.3877 0.0000 0.3877
v  0.3877 0.0000 0.3877
v  0.0739 -0.5195 -0.0000
v  0.3858 -0.0502 0.3118
v  0.3858 -0.0502 -0.3118
v  0.4024 0.0000 -0.3325
v  0.4024 0.0000 0.3325
v  0.0334 -0.5528 -0.0334
v  0.3691 -0.0475 -0.3691
v  0.0000 -0.5861 -0.0000
v  0.0334 -0.5528 0.0334
v  0.3877 0.0000 0.3877
v  0.3691 -0.0475 0.3691
v  0.3877 0.0000 -0.3877
v  0.0000 -0.5195 -0.0739
v  0.3118 -0.0502 -0.3858
v  -0.3118 -0.0502 -0.3858
v  -0.3325 0.0000 -0.4024
v  0.3325 0.0000 -0.4024
v  -0.0334 -0.5528 -0.0334
v  0.0334 -0.5528 -0.0334
v  0.0000 -0.5861 -0.0000
v  -0.3691 -0.0475 -0.3691
v  -0.3877 0.0000 -0.3877
v  0.3877 0.0000 -0.3877
v  0.3691 -0.0475 -0.3691
v  -0.0739 -0.5195 -0.0000
v  -0.3858 -0.0502 -0.3118
v  -0.3858 -0.0502 0.3118
v  -0.4024 0.0000 0.3325
v  -0.3877 0.0000 0.3877
v  -0.3691 -0.0475 0.3691
v  -0.4024 0.0000 -0.3325
v  -0.3877 0.0000 -0.3877
v  -0.3691 -0.0475 -0.3691
v  -0.0334 -0.5528 0.0334
v  -0.0334 -0.5528 -0.0334
v  0.0000 -0.5861 -0.0000
# 96 vertices

vn -0.1341 0.4871 0.8630
vn 0.1341 0.4871 0.8630
vn 0.0000 0.6616 0.7498
vn 0.0000 0.6616 0.7498
vn -0.1343 0.7094 0.6919
vn -0.1341 0.4871 0.8630
vn -0.2505 0.5114 0.8220
vn -0.1341 0.4871 0.8630
vn -0.1343 0.7094 0.6919
vn 0.1341 0.4871 0.8630
vn 0.2505 0.5114 0.8220
vn 0.0000 0.6616 0.7498
vn 0.1341 0.4871 0.8630
vn 0.1557 0.3808 0.9114
vn 0.2505 0.5114 0.8220
vn 0.2319 0.4332 0.8710
vn 0.2505 0.5114 0.8220
vn 0.1557 0.3808 0.9114
vn 0.1343 0.7094 0.6919
vn 0.0000 0.6616 0.7498
vn 0.2505 0.5114 0.8220
vn 0.1343 0.7094 0.6919
vn 0.0000 0.7434 0.6688
vn 0.0000 0.6616 0.7498
vn -0.1343 0.7094 0.6919
vn 0.0000 0.6616 0.7498
vn 0.0000 0.7434 0.6688
vn -0.1341 0.4871 0.8630
vn -0.2505 0.5114 0.8220
vn -0.1557 0.3808 0.9114
vn -0.1341 0.4871 0.8630
vn -0.1557 0.3808 0.9114
vn 0.1341 0.4871 0.8630
vn 0.1557 0.3808 0.9114
vn 0.1341 0.4871 0.8630
vn -0.1557 0.3808 0.9114
vn -0.2319 0.4332 0.8710
vn -0.1557 0.3808 0.9114
vn -0.2505 0.5114 0.8220
vn 0.8630 0.4871 0.1341
vn 0.8630 0.4871 -0.1341
vn 0.7498 0.6617 -0.0000
vn 0.8630 0.4871 -0.1341
vn 0.8220 0.5114 -0.2506
vn 0.7498 0.6617 -0.0000
vn 0.8630 0.4871 -0.1341
vn 0.9114 0.3808 -0.1557
vn 0.8220 0.5114 -0.2506
vn 0.8710 0.4332 -0.2319
vn 0.8220 0.5114 -0.2506
vn 0.9114 0.3808 -0.1557
vn 0.6918 0.7094 -0.1343
vn 0.7498 0.6617 -0.0000
vn 0.8220 0.5114 -0.2506
vn 0.6918 0.7094 -0.1343
vn 0.6688 0.7434 -0.0000
vn 0.7498 0.6617 -0.0000
vn 0.6918 0.7094 0.1343
vn 0.7498 0.6617 -0.0000
vn 0.6688 0.7434 -0.0000
vn 0.7498 0.6617 -0.0000
vn 0.6918 0.7094 0.1343
vn 0.8630 0.4871 0.1341
vn 0.8220 0.5114 0.2505
vn 0.8630 0.4871 0.1341
vn 0.6918 0.7094 0.1343
vn 0.8630 0.4871 0.1341
vn 0.8220 0.5114 0.2505
vn 0.9114 0.3808 0.1557
vn 0.8630 0.4871 0.1341
vn 0.9114 0.3808 0.1557
vn 0.8630 0.4871 -0.1341
vn 0.9114 0.3808 -0.1557
vn 0.8630 0.4871 -0.1341
vn 0.9114 0.3808 0.1557
vn 0.8710 0.4332 0.2319
vn 0.9114 0.3808 0.1557
vn 0.8220 0.5114 0.2505
vn 0.1341 0.4871 -0.8630
vn -0.1341 0.4871 -0.8630
vn -0.0000 0.6680 -0.7442
vn -0.1341 0.4871 -0.8630
vn -0.2506 0.5114 -0.8220
vn -0.0000 0.6680 -0.7442
vn -0.1341 0.4871 -0.8630
vn -0.1557 0.3809 -0.9114
vn -0.2506 0.5114 -0.8220
vn -0.2319 0.4332 -0.8710
vn -0.2506 0.5114 -0.8220
vn -0.1557 0.3809 -0.9114
vn -0.0883 0.7126 -0.6960
vn -0.0000 0.6680 -0.7442
vn -0.2506 0.5114 -0.8220
vn -0.0000 0.6680 -0.7442
vn -0.0883 0.7126 -0.6960
vn 0.0883 0.7126 -0.6960
vn -0.0000 0.6680 -0.7442
vn 0.0883 0.7126 -0.6960
vn 0.1341 0.4871 -0.8630
vn 0.0000 0.7082 -0.7060
vn 0.0883 0.7126 -0.6960
vn -0.0883 0.7126 -0.6960
vn 0.2506 0.5114 -0.8220
vn 0.1341 0.4871 -0.8630
vn 0.0883 0.7126 -0.6960
vn 0.1341 0.4871 -0.8630
vn 0.2506 0.5114 -0.8220
vn 0.1557 0.3809 -0.9114
vn 0.1341 0.4871 -0.8630
vn 0.1557 0.3809 -0.9114
vn -0.1341 0.4871 -0.8630
vn -0.1557 0.3809 -0.9114
vn -0.1341 0.4871 -0.8630
vn 0.1557 0.3809 -0.9114
vn 0.2319 0.4332 -0.8710
vn 0.1557 0.3809 -0.9114
vn 0.2506 0.5114 -0.8220
vn -0.8630 0.4871 -0.1341
vn -0.8630 0.4871 0.1341
vn -0.7442 0.6680 -0.0000
vn -0.8630 0.4871 -0.1341
vn -0.9114 0.3808 -0.1557
vn -0.8630 0.4871 0.1341
vn -0.9114 0.3808 0.1557
vn -0.8630 0.4871 0.1341
vn -0.9114 0.3808 -0.1557
vn -0.8630 0.4871 0.1341
vn -0.9114 0.3808 0.1557
vn -0.8220 0.5114 0.2505
vn -0.8630 0.4871 0.1341
vn -0.8220 0.5114 0.2505
vn -0.7442 0.6680 -0.0000
vn -0.8710 0.4332 0.2319
vn -0.8220 0.5114 0.2505
vn -0.9114 0.3808 0.1557
vn -0.8630 0.4871 -0.1341
vn -0.8220 0.5114 -0.2506
vn -0.9114 0.3808 -0.1557
vn -0.8710 0.4332 -0.2319
vn -0.9114 0.3808 -0.1557
vn -0.8220 0.5114 -0.2506
vn -0.6960 0.7126 0.0883
vn -0.7442 0.6680 -0.0000
vn -0.8220 0.5114 0.2505
vn -0.7442 0.6680 -0.0000
vn -0.6960 0.7126 0.0883
vn -0.6960 0.7126 -0.0883
vn -0.7442 0.6680 -0.0000
vn -0.6960 0.7126 -0.0883
vn -0.8630 0.4871 -0.1341
vn -0.8220 0.5114 -0.2506
vn -0.8630 0.4871 -0.1341
vn -0.6960 0.7126 -0.0883
vn -0.7060 0.7082 -0.0000
vn -0.6960 0.7126 -0.0883
vn -0.6960 0.7126 0.0883
vn 0.1298 -0.4896 0.8622
vn -0.1298 -0.4896 0.8622
vn -0.0000 -0.6616 0.7498
vn -0.1298 -0.4896 0.8622
vn -0.2610 -0.5250 0.8101
vn -0.0000 -0.6616 0.7498
vn -0.1343 -0.7094 0.6919
vn -0.0000 -0.6616 0.7498
vn -0.2610 -0.5250 0.8101
vn 0.1298 -0.4896 0.8622
vn 0.1447 -0.3650 0.9197
vn -0.1298 -0.4896 0.8622
vn -0.1447 -0.3650 0.9197
vn -0.1298 -0.4896 0.8622
vn 0.1447 -0.3650 0.9197
vn -0.0000 -0.6616 0.7498
vn 0.1343 -0.7094 0.6919
vn 0.1298 -0.4896 0.8622
vn 0.2610 -0.5250 0.8101
vn 0.1298 -0.4896 0.8622
vn 0.1343 -0.7094 0.6919
vn -0.1343 -0.7094 0.6919
vn -0.0000 -0.7434 0.6688
vn -0.0000 -0.6616 0.7498
vn 0.1343 -0.7094 0.6919
vn -0.0000 -0.6616 0.7498
vn -0.0000 -0.7434 0.6688
vn -0.1447 -0.3650 0.9197
vn -0.2541 -0.4183 0.8720
vn -0.1298 -0.4896 0.8622
vn -0.2610 -0.5250 0.8101
vn -0.1298 -0.4896 0.8622
vn -0.2541 -0.4183 0.8720
vn 0.2610 -0.5250 0.8101
vn 0.2541 -0.4183 0.8720
vn 0.1298 -0.4896 0.8622
vn 0.1447 -0.3650 0.9197
vn 0.1298 -0.4896 0.8622
vn 0.2541 -0.4183 0.8720
vn 0.8622 -0.4896 -0.1298
vn 0.8622 -0.4896 0.1298
vn 0.7498 -0.6617 -0.0000
vn 0.8622 -0.4896 -0.1298
vn 0.9197 -0.3650 -0.1447
vn 0.8622 -0.4896 0.1298
vn 0.9197 -0.3650 0.1447
vn 0.8622 -0.4896 0.1298
vn 0.9197 -0.3650 -0.1447
vn 0.7498 -0.6617 -0.0000
vn 0.6918 -0.7094 -0.1343
vn 0.8622 -0.4896 -0.1298
vn 0.8101 -0.5250 -0.2610
vn 0.8622 -0.4896 -0.1298
vn 0.6918 -0.7094 -0.1343
vn 0.6918 -0.7094 -0.1343
vn 0.7498 -0.6617 -0.0000
vn 0.6688 -0.7434 -0.0000
vn 0.6918 -0.7094 0.1343
vn 0.6688 -0.7434 -0.0000
vn 0.7498 -0.6617 -0.0000
vn 0.9197 -0.3650 0.1447
vn 0.8720 -0.4183 0.2541
vn 0.8622 -0.4896 0.1298
vn 0.8101 -0.5250 0.2610
vn 0.8622 -0.4896 0.1298
vn 0.8720 -0.4183 0.2541
vn 0.8622 -0.4896 0.1298
vn 0.8101 -0.5250 0.2610
vn 0.7498 -0.6617 -0.0000
vn 0.6918 -0.7094 0.1343
vn 0.7498 -0.6617 -0.0000
vn 0.8101 -0.5250 0.2610
vn 0.8101 -0.5250 -0.2610
vn 0.8720 -0.4183 -0.2541
vn 0.8622 -0.4896 -0.1298
vn 0.9197 -0.3650 -0.1447
vn 0.8622 -0.4896 -0.1298
vn 0.8720 -0.4183 -0.2541
vn -0.1298 -0.4896 -0.8622
vn 0.1298 -0.4896 -0.8622
vn 0.0000 -0.6680 -0.7442
vn -0.1298 -0.4896 -0.8622
vn -0.1447 -0.3650 -0.9197
vn 0.1298 -0.4896 -0.8622
vn 0.1447 -0.3650 -0.9197
vn 0.1298 -0.4896 -0.8622
vn -0.1447 -0.3650 -0.9197
vn 0.0000 -0.6680 -0.7442
vn -0.0883 -0.7126 -0.6960
vn -0.1298 -0.4896 -0.8622
vn 0.0000 -0.6680 -0.7442
vn 0.0883 -0.7126 -0.6960
vn -0.0883 -0.7126 -0.6960
vn 0.0000 -0.7082 -0.7060
vn -0.0883 -0.7126 -0.6960
vn 0.0883 -0.7126 -0.6960
vn -0.2610 -0.5250 -0.8101
vn -0.1298 -0.4896 -0.8622
vn -0.0883 -0.7126 -0.6960
vn -0.2610 -0.5250 -0.8101
vn -0.2541 -0.4183 -0.8720
vn -0.1298 -0.4896 -0.8622
vn -0.1447 -0.3650 -0.9197
vn -0.1298 -0.4896 -0.8622
vn -0.2541 -0.4183 -0.8720
vn 0.1447 -0.3650 -0.9197
vn 0.2541 -0.4183 -0.8720
vn 0.1298 -0.4896 -0.8622
vn 0.2610 -0.5250 -0.8101
vn 0.1298 -0.4896 -0.8622
vn 0.2541 -0.4183 -0.8720
vn 0.1298 -0.4896 -0.8622
vn 0.2610 -0.5250 -0.8101
vn 0.0000 -0.6680 -0.7442
vn 0.0883 -0.7126 -0.6960
vn 0.0000 -0.6680 -0.7442
vn 0.2610 -0.5250 -0.8101
vn -0.8622 -0.4896 0.1298
vn -0.8622 -0.4896 -0.1298
vn -0.7442 -0.6680 -0.0000
vn -0.8622 -0.4896 0.1298
vn -0.9197 -0.3650 0.1447
vn -0.8622 -0.4896 -0.1298
vn -0.9197 -0.3650 0.1447
vn -0.8622 -0.4896 0.1298
vn -0.8720 -0.4183 0.2541
vn -0.8101 -0.5250 0.2610
vn -0.8720 -0.4183 0.2541
vn -0.8622 -0.4896 0.1298
vn -0.9197 -0.3650 -0.1447
vn -0.8622 -0.4896 -0.1298
vn -0.9197 -0.3650 0.1447
vn -0.9197 -0.3650 -0.1447
vn -0.8720 -0.4183 -0.2541
vn -0.8622 -0.4896 -0.1298
vn -0.8101 -0.5250 -0.2610
vn -0.8622 -0.4896 -0.1298
vn -0.8720 -0.4183 -0.2541
vn -0.8622 -0.4896 -0.1298
vn -0.8101 -0.5250 -0.2610
vn -0.7442 -0.6680 -0.0000
vn -0.7442 -0.6680 -0.0000
vn -0.6960 -0.7126 0.0883
vn -0.8622 -0.4896 0.1298
vn -0.8101 -0.5250 0.2610
vn -0.8622 -0.4896 0.1298
vn -0.6960 -0.7126 0.0883
vn -0.7442 -0.6680 -0.0000
vn -0.6960 -0.7126 -0.0883
vn -0.6960 -0.7126 0.0883
vn -0.6960 -0.7126 -0.0883
vn -0.7442 -0.6680 -0.0000
vn -0.8101 -0.5250 -0.2610
vn -0.7060 -0.7082 -0.0000
vn -0.6960 -0.7126 0.0883
vn -0.6960 -0.7126 -0.0883
# 312 vertex normals

vt 0.5693 0.6432 0.0000
vt 0.7150 0.3800 0.0000
vt 0.4237 0.3800 0.0000
vt 0.5534 0.6673 0.0000
vt 0.3961 0.3832 0.0000
vt 0.7425 0.3832 0.0000
vt 0.7251 0.3556 0.0000
vt 0.7518 0.3593 0.0000
vt 0.5852 0.6673 0.0000
vt 0.5693 0.6895 0.0000
vt 0.4136 0.3556 0.0000
vt 0.3868 0.3593 0.0000
vt 0.6062 0.2979 0.0000
vt 0.7519 0.0347 0.0000
vt 0.4606 0.0347 0.0000
vt 0.7794 0.0379 0.0000
vt 0.7620 0.0103 0.0000
vt 0.7888 0.0140 0.0000
vt 0.6222 0.3220 0.0000
vt 0.6062 0.3442 0.0000
vt 0.5903 0.3220 0.0000
vt 0.4330 0.0379 0.0000
vt 0.4505 0.0103 0.0000
vt 0.4237 0.0140 0.0000
vt 0.1845 0.6432 0.0000
vt 0.3302 0.3800 0.0000
vt 0.0389 0.3800 0.0000
vt 0.3577 0.3832 0.0000
vt 0.3403 0.3556 0.0000
vt 0.3670 0.3593 0.0000
vt 0.2004 0.6673 0.0000
vt 0.1686 0.6673 0.0000
vt 0.1845 0.6895 0.0000
vt 0.0113 0.3832 0.0000
vt 0.0288 0.3556 0.0000
vt 0.0020 0.3593 0.0000
vt 0.1845 0.2896 0.0000
vt 0.3302 0.0264 0.0000
vt 0.0389 0.0264 0.0000
vt 0.0288 0.0020 0.0000
vt 0.3403 0.0020 0.0000
vt 0.3577 0.0296 0.0000
vt 0.3670 0.0057 0.0000
vt 0.0113 0.0296 0.0000
vt 0.0020 0.0057 0.0000
vt 0.2004 0.3137 0.0000
vt 0.1686 0.3137 0.0000
vt 0.1845 0.3359 0.0000
vt 0.3776 0.4351 0.0000
vt 0.2320 0.6984 0.0000
vt 0.5233 0.6984 0.0000
vt 0.2044 0.6952 0.0000
vt 0.3617 0.4110 0.0000
vt 0.5334 0.7228 0.0000
vt 0.2219 0.7228 0.0000
vt 0.3935 0.4110 0.0000
vt 0.5508 0.6952 0.0000
vt 0.3776 0.3889 0.0000
vt 0.1951 0.7191 0.0000
vt 0.5601 0.7191 0.0000
vt 0.7569 0.4325 0.0000
vt 0.6113 0.6958 0.0000
vt 0.9026 0.6958 0.0000
vt 0.9127 0.7201 0.0000
vt 0.6012 0.7201 0.0000
vt 0.7728 0.4084 0.0000
vt 0.9301 0.6925 0.0000
vt 0.7569 0.3863 0.0000
vt 0.7410 0.4084 0.0000
vt 0.5744 0.7164 0.0000
vt 0.5837 0.6925 0.0000
vt 0.9394 0.7164 0.0000
vt 0.3936 0.0566 0.0000
vt 0.2479 0.3198 0.0000
vt 0.5393 0.3198 0.0000
vt 0.5493 0.3442 0.0000
vt 0.2379 0.3442 0.0000
vt 0.4095 0.0324 0.0000
vt 0.3777 0.0324 0.0000
vt 0.3936 0.0103 0.0000
vt 0.5668 0.3166 0.0000
vt 0.5761 0.3405 0.0000
vt 0.2111 0.3405 0.0000
vt 0.2204 0.3166 0.0000
vt 0.8143 0.0578 0.0000
vt 0.6686 0.3211 0.0000
vt 0.9599 0.3211 0.0000
vt 0.9700 0.3454 0.0000
vt 0.9968 0.3417 0.0000
vt 0.9875 0.3178 0.0000
vt 0.6585 0.3454 0.0000
vt 0.6317 0.3417 0.0000
vt 0.6411 0.3178 0.0000
vt 0.8302 0.0337 0.0000
vt 0.7983 0.0337 0.0000
vt 0.8143 0.0116 0.0000
# 96 texture coords

g d8
usemtl wire_087224198
f 3/3/1 2/2/2 1/1/3 
f 1/1/4 4/4/5 3/3/6 
f 5/5/7 3/3/8 4/4/9 
f 2/2/10 6/6/11 1/1/12 
f 2/2/13 7/7/14 6/6/15 
f 8/8/16 6/6/17 7/7/18 
f 9/9/19 1/1/20 6/6/21 
f 9/9/22 10/10/23 1/1/24 
f 4/4/25 1/1/26 10/10/27 
f 3/3/28 5/5/29 11/11/30 
f 3/3/31 11/11/32 2/2/33 
f 7/7/34 2/2/35 11/11/36 
f 12/12/37 11/11/38 5/5/39 
f 15/15/40 14/14/41 13/13/42 
f 14/14/43 16/16/44 13/13/45 
f 14/14/46 17/17/47 16/16/48 
f 18/18/49 16/16/50 17/17/51 
f 19/19/52 13/13/53 16/16/54 
f 19/19/55 20/20/56 13/13/57 
f 21/21/58 13/13/59 20/20/60 
f 13/13/61 21/21/62 15/15/63 
f 22/22/64 15/15/65 21/21/66 
f 15/15/67 22/22/68 23/23/69 
f 15/15/70 23/23/71 14/14/72 
f 17/17/73 14/14/74 23/23/75 
f 24/24/76 23/23/77 22/22/78 
f 27/27/79 26/26/80 25/25/81 
f 26/26/82 28/28/83 25/25/84 
f 26/26/85 29/29/86 28/28/87 
f 30/30/88 28/28/89 29/29/90 
f 31/31/91 25/25/92 28/28/93 
f 25/25/94 31/31/95 32/32/96 
f 25/25/97 32/32/98 27/27/99 
f 33/33/100 32/32/101 31/31/102 
f 34/34/103 27/27/104 32/32/105 
f 27/27/106 34/34/107 35/35/108 
f 27/27/109 35/35/110 26/26/111 
f 29/29/112 26/26/113 35/35/114 
f 36/36/115 35/35/116 34/34/117 
f 39/39/118 38/38/119 37/37/120 
f 39/39/121 40/40/122 38/38/123 
f 41/41/124 38/38/125 40/40/126 
f 38/38/127 41/41/128 42/42/129 
f 38/38/130 42/42/131 37/37/132 
f 43/43/133 42/42/134 41/41/135 
f 39/39/136 44/44/137 40/40/138 
f 45/45/139 40/40/140 44/44/141 
f 46/46/142 37/37/143 42/42/144 
f 37/37/145 46/46/146 47/47/147 
f 37/37/148 47/47/149 39/39/150 
f 44/44/151 39/39/152 47/47/153 
f 48/48/154 47/47/155 46/46/156 
f 51/51/157 50/50/158 49/49/159 
f 50/50/160 52/52/161 49/49/162 
f 53/53/163 49/49/164 52/52/165 
f 51/51/166 54/54/167 50/50/168 
f 55/55/169 50/50/170 54/54/171 
f 49/49/172 56/56/173 51/51/174 
f 57/57/175 51/51/176 56/56/177 
f 53/53/178 58/58/179 49/49/180 
f 56/56/181 49/49/182 58/58/183 
f 55/55/184 59/59/185 50/50/186 
f 52/52/187 50/50/188 59/59/189 
f 57/57/190 60/60/191 51/51/192 
f 54/54/193 51/51/194 60/60/195 
f 63/63/196 62/62/197 61/61/198 
f 63/63/199 64/64/200 62/62/201 
f 65/65/202 62/62/203 64/64/204 
f 61/61/205 66/66/206 63/63/207 
f 67/67/208 63/63/209 66/66/210 
f 66/66/211 61/61/212 68/68/213 
f 69/69/214 68/68/215 61/61/216 
f 65/65/217 70/70/218 62/62/219 
f 71/71/220 62/62/221 70/70/222 
f 62/62/223 71/71/224 61/61/225 
f 69/69/226 61/61/227 71/71/228 
f 67/67/229 72/72/230 63/63/231 
f 64/64/232 63/63/233 72/72/234 
f 75/75/235 74/74/236 73/73/237 
f 75/75/238 76/76/239 74/74/240 
f 77/77/241 74/74/242 76/76/243 
f 73/73/244 78/78/245 75/75/246 
f 73/73/247 79/79/248 78/78/249 
f 80/80/250 78/78/251 79/79/252 
f 81/81/253 75/75/254 78/78/255 
f 81/81/256 82/82/257 75/75/258 
f 76/76/259 75/75/260 82/82/261 
f 77/77/262 83/83/263 74/74/264 
f 84/84/265 74/74/266 83/83/267 
f 74/74/268 84/84/269 73/73/270 
f 79/79/271 73/73/272 84/84/273 
f 87/87/274 86/86/275 85/85/276 
f 87/87/277 88/88/278 86/86/279 
f 88/88/280 87/87/281 89/89/282 
f 90/90/283 89/89/284 87/87/285 
f 91/91/286 86/86/287 88/88/288 
f 91/91/289 92/92/290 86/86/291 
f 93/93/292 86/86/293 92/92/294 
f 86/86/295 93/93/296 85/85/297 
f 85/85/298 94/94/299 87/87/300 
f 90/90/301 87/87/302 94/94/303 
f 85/85/304 95/95/305 94/94/306 
f 95/95/307 85/85/308 93/93/309 
f 96/96/310 94/94/311 95/95/312 
# 104 faces

