# 3ds Max Wavefront OBJ Exporter v0.97b - (c)2007 guruware
# File Created: 14.03.2017 23:03:59

mtllib banner_MSH.mtl

#
# object TournamentCollider002
#

v  13.0000 0.2500 -2.5000
v  -13.0000 0.2500 -2.5000
v  -13.0000 0.2500 2.5000
v  13.0000 0.2500 2.5000
v  -13.0000 -0.2500 2.5000
v  13.0000 -0.2500 2.5000
v  -13.0000 -0.2500 -2.5000
v  13.0000 -0.2500 -2.5000
v  -12.5000 -35.0000 2.5000
v  0.0000 -35.0000 2.5000
v  12.5000 -35.0000 2.5000
v  -12.5000 -17.5000 2.5000
v  0.0000 -17.5000 2.5000
v  12.5000 -17.5000 2.5000
v  -12.5000 0.0000 2.5000
v  0.0000 0.0000 2.5000
v  12.5000 0.0000 2.5000
v  -12.5000 -17.5000 2.5000
v  -12.5000 -35.0000 2.5000
v  0.0000 -35.0000 2.5000
v  0.0000 -17.5000 2.5000
v  12.5000 -35.0000 2.5000
v  12.5000 -17.5000 2.5000
v  -12.5000 0.0000 2.5000
v  0.0000 0.0000 2.5000
v  12.5000 0.0000 2.5000
v  13.0000 0.2500 -2.5000
v  13.0000 0.2500 -2.5000
v  -13.0000 0.2500 -2.5000
v  -13.0000 0.2500 -2.5000
v  -13.0000 0.2500 2.5000
v  -13.0000 0.2500 2.5000
v  13.0000 0.2500 2.5000
v  13.0000 0.2500 2.5000
v  -13.0000 -0.2500 2.5000
v  -13.0000 -0.2500 2.5000
v  13.0000 -0.2500 2.5000
v  13.0000 -0.2500 2.5000
v  -13.0000 -0.2500 -2.5000
v  -13.0000 -0.2500 -2.5000
v  13.0000 -0.2500 -2.5000
v  13.0000 -0.2500 -2.5000
# 42 vertices

vn 0.0000 1.0000 -0.0000
vn 0.0000 1.0000 -0.0000
vn 0.0000 1.0000 -0.0000
vn 0.0000 1.0000 -0.0000
vn 0.0000 1.0000 -0.0000
vn 0.0000 1.0000 -0.0000
vn 0.0000 0.0000 1.0000
vn 0.0000 0.0000 1.0000
vn 0.0000 0.0000 1.0000
vn 0.0000 0.0000 1.0000
vn 0.0000 0.0000 1.0000
vn 0.0000 0.0000 1.0000
vn 0.0000 -1.0000 -0.0000
vn 0.0000 -1.0000 -0.0000
vn 0.0000 -1.0000 -0.0000
vn 0.0000 -1.0000 -0.0000
vn 0.0000 -1.0000 -0.0000
vn 0.0000 -1.0000 -0.0000
vn -0.0000 0.0000 -1.0000
vn -0.0000 0.0000 -1.0000
vn -0.0000 0.0000 -1.0000
vn -0.0000 0.0000 -1.0000
vn -0.0000 0.0000 -1.0000
vn -0.0000 0.0000 -1.0000
vn 1.0000 0.0000 -0.0000
vn 1.0000 0.0000 -0.0000
vn 1.0000 0.0000 -0.0000
vn 1.0000 0.0000 -0.0000
vn 1.0000 0.0000 -0.0000
vn 1.0000 0.0000 -0.0000
vn -1.0000 0.0000 0.0000
vn -1.0000 0.0000 0.0000
vn -1.0000 0.0000 0.0000
vn -1.0000 0.0000 0.0000
vn -1.0000 0.0000 0.0000
vn -1.0000 0.0000 0.0000
vn 0.0000 0.0000 -1.0000
vn 0.0000 0.0000 -1.0000
vn 0.0000 0.0000 -1.0000
vn 0.0000 0.0000 -1.0000
vn 0.0000 0.0000 -1.0000
vn 0.0000 0.0000 -1.0000
vn 0.0000 0.0000 -1.0000
vn 0.0000 0.0000 -1.0000
vn 0.0000 0.0000 -1.0000
vn 0.0000 0.0000 -1.0000
vn 0.0000 0.0000 -1.0000
vn 0.0000 0.0000 -1.0000
vn 0.0000 0.0000 -1.0000
vn 0.0000 0.0000 -1.0000
vn 0.0000 0.0000 -1.0000
vn 0.0000 0.0000 -1.0000
vn 0.0000 0.0000 -1.0000
vn 0.0000 0.0000 -1.0000
vn 0.0000 0.0000 -1.0000
vn 0.0000 0.0000 -1.0000
vn 0.0000 0.0000 -1.0000
vn 0.0000 0.0000 -1.0000
vn 0.0000 0.0000 -1.0000
vn 0.0000 0.0000 -1.0000
vn 0.0000 0.0000 1.0000
vn 0.0000 0.0000 1.0000
vn 0.0000 0.0000 1.0000
vn 0.0000 0.0000 1.0000
vn 0.0000 0.0000 1.0000
vn 0.0000 0.0000 1.0000
vn 0.0000 0.0000 1.0000
vn 0.0000 0.0000 1.0000
vn 0.0000 0.0000 1.0000
vn 0.0000 0.0000 1.0000
vn 0.0000 0.0000 1.0000
vn 0.0000 0.0000 1.0000
vn 0.0000 0.0000 1.0000
vn 0.0000 0.0000 1.0000
vn 0.0000 0.0000 1.0000
vn 0.0000 0.0000 1.0000
vn 0.0000 0.0000 1.0000
vn 0.0000 0.0000 1.0000
vn 0.0000 0.0000 1.0000
vn 0.0000 0.0000 1.0000
vn 0.0000 0.0000 1.0000
vn 0.0000 0.0000 1.0000
vn 0.0000 0.0000 1.0000
vn 0.0000 0.0000 1.0000
# 84 vertex normals

vt 0.0268 0.7001 0.0000
vt 0.0268 0.2999 0.0000
vt 0.0982 0.2999 0.0000
vt 0.0982 0.7001 0.0000
vt 0.0982 0.7001 0.0000
vt 0.0982 0.2999 0.0000
vt 0.1054 0.2999 0.0000
vt 0.1054 0.7001 0.0000
vt 0.0982 0.2999 0.0000
vt 0.0982 0.7001 0.0000
vt 0.0268 0.7001 0.0000
vt 0.0268 0.2999 0.0000
vt 0.0196 0.7001 0.0000
vt 0.0196 0.2999 0.0000
vt 0.0268 0.2999 0.0000
vt 0.0268 0.7001 0.0000
vt 0.0982 0.7072 0.0000
vt 0.0268 0.7072 0.0000
vt 0.0268 0.7001 0.0000
vt 0.0982 0.7001 0.0000
vt 0.0982 0.2928 0.0000
vt 0.0982 0.2999 0.0000
vt 0.0268 0.2999 0.0000
vt 0.0268 0.2928 0.0000
vt 0.1875 0.5000 0.0000
vt 0.1875 0.0625 0.0000
vt 0.5000 0.0625 0.0000
vt 0.5000 0.5000 0.0000
vt 0.8125 0.0625 0.0000
vt 0.8125 0.5000 0.0000
vt 0.1875 0.9375 0.0000
vt 0.5000 0.9375 0.0000
vt 0.8125 0.9375 0.0000
vt 0.1875 0.5000 0.0000
vt 0.5000 0.5000 0.0000
vt 0.5000 0.0625 0.0000
vt 0.1875 0.0625 0.0000
vt 0.8125 0.5000 0.0000
vt 0.8125 0.0625 0.0000
vt 0.1875 0.9375 0.0000
vt 0.5000 0.9375 0.0000
vt 0.8125 0.9375 0.0000
# 42 texture coords

g TournamentCollider002
usemtl Material__25
f 30/2/1 32/3/2 4/4/3 
f 4/4/4 1/1/5 30/2/6 
f 33/5/7 31/6/8 36/7/9 
f 36/7/10 6/8/11 33/5/12 
f 35/10/13 39/11/14 41/12/15 
f 41/12/16 37/9/17 35/10/18 
f 42/13/19 7/14/20 2/15/21 
f 2/15/22 28/16/23 42/13/24 
f 8/18/25 27/19/26 34/20/27 
f 34/20/28 38/17/29 8/18/30 
f 3/22/31 29/23/32 40/24/33 
f 40/24/34 5/21/35 3/22/36 
f 9/26/37 12/25/38 13/28/39 
f 13/28/40 10/27/41 9/26/42 
f 10/27/43 13/28/44 14/30/45 
f 14/30/46 11/29/47 10/27/48 
f 12/25/49 15/31/50 16/32/51 
f 16/32/52 13/28/53 12/25/54 
f 13/28/55 16/32/56 17/33/57 
f 17/33/58 14/30/59 13/28/60 
f 19/37/61 20/36/62 21/35/63 
f 21/35/64 18/34/65 19/37/66 
f 20/36/67 22/39/68 23/38/69 
f 23/38/70 21/35/71 20/36/72 
f 18/34/73 21/35/74 25/41/75 
f 25/41/76 24/40/77 18/34/78 
f 21/35/79 23/38/80 26/42/81 
f 26/42/82 25/41/83 21/35/84 
# 28 faces

