# 3ds Max Wavefront OBJ Exporter v0.97b - (c)2007 guruware
# File Created: 14.03.2017 23:03:14

mtllib banner_COL.mtl

#
# object TournamentCollider001
#

v  13.0000 0.2500 -2.5000
v  -13.0000 0.2500 -2.5000
v  -13.0000 0.2500 2.5000
v  13.0000 0.2500 2.5000
v  -13.0000 -0.2500 2.5000
v  13.0000 -0.2500 2.5000
v  -13.0000 -0.2500 -2.5000
v  13.0000 -0.2500 -2.5000
# 8 vertices

vn 0.0000 1.0000 -0.0000
vn 0.0000 1.0000 -0.0000
vn 0.0000 1.0000 -0.0000
vn 0.0000 1.0000 -0.0000
vn 0.0000 1.0000 -0.0000
vn 0.0000 1.0000 -0.0000
vn 0.0000 0.0000 1.0000
vn 0.0000 0.0000 1.0000
vn 0.0000 0.0000 1.0000
vn 0.0000 0.0000 1.0000
vn 0.0000 0.0000 1.0000
vn 0.0000 0.0000 1.0000
vn 0.0000 -1.0000 -0.0000
vn 0.0000 -1.0000 -0.0000
vn 0.0000 -1.0000 -0.0000
vn 0.0000 -1.0000 -0.0000
vn 0.0000 -1.0000 -0.0000
vn 0.0000 -1.0000 -0.0000
vn -0.0000 0.0000 -1.0000
vn -0.0000 0.0000 -1.0000
vn -0.0000 0.0000 -1.0000
vn -0.0000 0.0000 -1.0000
vn -0.0000 0.0000 -1.0000
vn -0.0000 0.0000 -1.0000
vn 1.0000 0.0000 -0.0000
vn 1.0000 0.0000 -0.0000
vn 1.0000 0.0000 -0.0000
vn 1.0000 0.0000 -0.0000
vn 1.0000 0.0000 -0.0000
vn 1.0000 0.0000 -0.0000
vn -1.0000 0.0000 0.0000
vn -1.0000 0.0000 0.0000
vn -1.0000 0.0000 0.0000
vn -1.0000 0.0000 0.0000
vn -1.0000 0.0000 0.0000
vn -1.0000 0.0000 0.0000
# 36 vertex normals

vt 0.0268 0.7001 0.0000
vt 0.0268 0.2999 0.0000
vt 0.0982 0.2999 0.0000
vt 0.0982 0.7001 0.0000
vt 0.0982 0.7001 0.0000
vt 0.0982 0.2999 0.0000
vt 0.1054 0.2999 0.0000
vt 0.1054 0.7001 0.0000
vt 0.0982 0.2999 0.0000
vt 0.0982 0.7001 0.0000
vt 0.0268 0.7001 0.0000
vt 0.0268 0.2999 0.0000
vt 0.0196 0.7001 0.0000
vt 0.0196 0.2999 0.0000
vt 0.0268 0.2999 0.0000
vt 0.0268 0.7001 0.0000
vt 0.0982 0.7072 0.0000
vt 0.0268 0.7072 0.0000
vt 0.0268 0.7001 0.0000
vt 0.0982 0.7001 0.0000
vt 0.0982 0.2928 0.0000
vt 0.0982 0.2999 0.0000
vt 0.0268 0.2999 0.0000
vt 0.0268 0.2928 0.0000
# 24 texture coords

g TournamentCollider001
usemtl Material__25
f 2/2/1 3/3/2 4/4/3 
f 4/4/4 1/1/5 2/2/6 
f 4/5/7 3/6/8 5/7/9 
f 5/7/10 6/8/11 4/5/12 
f 5/10/13 7/11/14 8/12/15 
f 8/12/16 6/9/17 5/10/18 
f 8/13/19 7/14/20 2/15/21 
f 2/15/22 1/16/23 8/13/24 
f 8/18/25 1/19/26 4/20/27 
f 4/20/28 6/17/29 8/18/30 
f 3/22/31 2/23/32 7/24/33 
f 7/24/34 5/21/35 3/22/36 
# 12 faces

