# 3ds Max Wavefront OBJ Exporter v0.97b - (c)2007 guruware
# File Created: 14.03.2017 23:08:08

mtllib banner_MSH.mtl

#
# object Banner
#

v  -13.0000 0.2500 2.5000
v  13.0000 0.2500 2.5000
v  -13.0000 -0.2500 2.5000
v  13.0000 -0.2500 2.5000
v  -12.5000 -35.0000 2.6250
v  -0.0000 -35.0000 2.6250
v  12.5000 -35.0000 2.6250
v  -12.5000 -17.5000 2.6250
v  -0.0000 -17.5000 2.6250
v  12.5000 -17.5000 2.6250
v  -12.5000 0.0000 2.6250
v  -0.0000 0.0000 2.6250
v  12.5000 0.0000 2.6250
v  -12.5000 -17.5000 2.6250
v  -12.5000 -35.0000 2.6250
v  -0.0000 -35.0000 2.6250
v  -0.0000 -17.5000 2.6250
v  12.5000 -35.0000 2.6250
v  12.5000 -17.5000 2.6250
v  -12.5000 0.0000 2.6250
v  -0.0000 0.0000 2.6250
v  12.5000 0.0000 2.6250
v  -13.0000 0.2500 2.5000
v  -13.0000 0.2500 2.5000
v  13.0000 0.2500 2.5000
v  13.0000 0.2500 2.5000
v  -13.0000 -0.2500 2.5000
v  -13.0000 -0.2500 2.5000
v  13.0000 -0.2500 2.5000
v  13.0000 -0.2500 2.5000
v  13.0000 0.2500 -2.5000
v  -13.0000 0.2500 -2.5000
v  -13.0000 -0.2500 -2.5000
v  13.0000 -0.2500 -2.5000
v  13.0000 -0.2500 -2.5000
v  -13.0000 -0.2500 -2.5000
v  13.0000 -0.2500 -2.5000
v  13.0000 0.2500 -2.5000
v  -13.0000 -0.2500 -2.5000
v  -13.0000 0.2500 -2.5000
v  -12.5000 -17.5000 -2.6250
v  -0.0000 -17.5000 -2.6250
v  -0.0000 -35.0000 -2.6250
v  -12.5000 -35.0000 -2.6250
v  12.5000 -17.5000 -2.6250
v  12.5000 -35.0000 -2.6250
v  -12.5000 0.0000 -2.6250
v  -0.0000 0.0000 -2.6250
v  12.5000 0.0000 -2.6250
v  -12.5000 -17.5000 -2.6250
v  -12.5000 -35.0000 -2.6250
v  -0.0000 -35.0000 -2.6250
v  -0.0000 -17.5000 -2.6250
v  12.5000 -35.0000 -2.6250
v  12.5000 -17.5000 -2.6250
v  -12.5000 0.0000 -2.6250
v  -0.0000 0.0000 -2.6250
v  12.5000 0.0000 -2.6250
v  -13.0000 0.2500 -2.5000
v  13.0000 0.2500 -2.5000
# 60 vertices

vn 0.0000 0.0000 1.0000
vn 0.0000 0.0000 1.0000
vn 0.0000 0.0000 1.0000
vn 0.0000 0.0000 1.0000
vn 0.0000 0.0000 1.0000
vn 0.0000 0.0000 1.0000
vn 1.0000 0.0000 -0.0000
vn 1.0000 0.0000 -0.0000
vn 1.0000 0.0000 -0.0000
vn 1.0000 0.0000 -0.0000
vn 1.0000 0.0000 -0.0000
vn 1.0000 0.0000 -0.0000
vn 0.0000 0.0000 -1.0000
vn 0.0000 0.0000 -1.0000
vn 0.0000 0.0000 -1.0000
vn 0.0000 0.0000 -1.0000
vn 0.0000 0.0000 -1.0000
vn 0.0000 0.0000 -1.0000
vn 0.0000 0.0000 -1.0000
vn 0.0000 0.0000 -1.0000
vn 0.0000 0.0000 -1.0000
vn 0.0000 0.0000 -1.0000
vn 0.0000 0.0000 -1.0000
vn 0.0000 0.0000 -1.0000
vn 0.0000 0.0000 -1.0000
vn 0.0000 0.0000 -1.0000
vn 0.0000 0.0000 -1.0000
vn 0.0000 0.0000 -1.0000
vn 0.0000 0.0000 -1.0000
vn 0.0000 0.0000 -1.0000
vn 0.0000 0.0000 -1.0000
vn 0.0000 0.0000 -1.0000
vn 0.0000 0.0000 -1.0000
vn 0.0000 0.0000 -1.0000
vn 0.0000 0.0000 -1.0000
vn 0.0000 0.0000 -1.0000
vn 0.0000 0.0000 1.0000
vn 0.0000 0.0000 1.0000
vn 0.0000 0.0000 1.0000
vn 0.0000 0.0000 1.0000
vn 0.0000 0.0000 1.0000
vn 0.0000 0.0000 1.0000
vn 0.0000 0.0000 1.0000
vn 0.0000 0.0000 1.0000
vn 0.0000 0.0000 1.0000
vn 0.0000 0.0000 1.0000
vn 0.0000 0.0000 1.0000
vn 0.0000 0.0000 1.0000
vn 0.0000 0.0000 1.0000
vn 0.0000 0.0000 1.0000
vn 0.0000 0.0000 1.0000
vn 0.0000 0.0000 1.0000
vn 0.0000 0.0000 1.0000
vn 0.0000 0.0000 1.0000
vn 0.0000 0.0000 1.0000
vn 0.0000 0.0000 1.0000
vn 0.0000 0.0000 1.0000
vn 0.0000 0.0000 1.0000
vn 0.0000 0.0000 1.0000
vn 0.0000 0.0000 1.0000
vn 0.0000 1.0000 -0.0000
vn 0.0000 1.0000 -0.0000
vn 0.0000 1.0000 -0.0000
vn 0.0000 1.0000 -0.0000
vn 0.0000 1.0000 -0.0000
vn 0.0000 1.0000 -0.0000
vn 0.0000 0.0000 -1.0000
vn 0.0000 0.0000 -1.0000
vn 0.0000 0.0000 -1.0000
vn 0.0000 0.0000 -1.0000
vn 0.0000 0.0000 -1.0000
vn 0.0000 0.0000 -1.0000
vn 0.0000 -1.0000 -0.0000
vn 0.0000 -1.0000 -0.0000
vn 0.0000 -1.0000 -0.0000
vn 0.0000 -1.0000 -0.0000
vn 0.0000 -1.0000 -0.0000
vn 0.0000 -1.0000 -0.0000
vn -1.0000 0.0000 -0.0000
vn -1.0000 0.0000 -0.0000
vn -1.0000 0.0000 -0.0000
vn -1.0000 0.0000 -0.0000
vn -1.0000 0.0000 -0.0000
vn -1.0000 0.0000 -0.0000
vn 0.0000 0.0000 1.0000
vn 0.0000 0.0000 1.0000
vn 0.0000 0.0000 1.0000
vn 0.0000 0.0000 1.0000
vn 0.0000 0.0000 1.0000
vn 0.0000 0.0000 1.0000
vn 0.0000 0.0000 1.0000
vn 0.0000 0.0000 1.0000
vn 0.0000 0.0000 1.0000
vn 0.0000 0.0000 1.0000
vn 0.0000 0.0000 1.0000
vn 0.0000 0.0000 1.0000
vn 0.0000 0.0000 1.0000
vn 0.0000 0.0000 1.0000
vn 0.0000 0.0000 1.0000
vn 0.0000 0.0000 1.0000
vn 0.0000 0.0000 1.0000
vn 0.0000 0.0000 1.0000
vn 0.0000 0.0000 1.0000
vn 0.0000 0.0000 1.0000
vn 0.0000 0.0000 1.0000
vn 0.0000 0.0000 1.0000
vn 0.0000 0.0000 1.0000
vn 0.0000 0.0000 1.0000
vn 0.0000 0.0000 -1.0000
vn 0.0000 0.0000 -1.0000
vn 0.0000 0.0000 -1.0000
vn 0.0000 0.0000 -1.0000
vn 0.0000 0.0000 -1.0000
vn 0.0000 0.0000 -1.0000
vn 0.0000 0.0000 -1.0000
vn 0.0000 0.0000 -1.0000
vn 0.0000 0.0000 -1.0000
vn 0.0000 0.0000 -1.0000
vn 0.0000 0.0000 -1.0000
vn 0.0000 0.0000 -1.0000
vn 0.0000 0.0000 -1.0000
vn 0.0000 0.0000 -1.0000
vn 0.0000 0.0000 -1.0000
vn 0.0000 0.0000 -1.0000
vn 0.0000 0.0000 -1.0000
vn 0.0000 0.0000 -1.0000
vn 0.0000 0.0000 -1.0000
vn 0.0000 0.0000 -1.0000
vn 0.0000 0.0000 -1.0000
vn 0.0000 0.0000 -1.0000
vn 0.0000 0.0000 -1.0000
vn 0.0000 0.0000 -1.0000
# 132 vertex normals

vt 0.0982 0.2999 0.0000
vt 0.0982 0.7001 0.0000
vt 0.0982 0.7001 0.0000
vt 0.0982 0.2999 0.0000
vt 0.1054 0.2999 0.0000
vt 0.1054 0.7001 0.0000
vt 0.0982 0.2999 0.0000
vt 0.0982 0.7001 0.0000
vt 0.0982 0.7072 0.0000
vt 0.0982 0.7001 0.0000
vt 0.0982 0.2928 0.0000
vt 0.0982 0.2999 0.0000
vt 0.1875 0.5000 0.0000
vt 0.1875 0.0625 0.0000
vt 0.5000 0.0625 0.0000
vt 0.5000 0.5000 0.0000
vt 0.8125 0.0625 0.0000
vt 0.8125 0.5000 0.0000
vt 0.1875 0.9375 0.0000
vt 0.5000 0.9375 0.0000
vt 0.8125 0.9375 0.0000
vt 0.1875 0.5000 0.0000
vt 0.5000 0.5000 0.0000
vt 0.5000 0.0625 0.0000
vt 0.1875 0.0625 0.0000
vt 0.8125 0.5000 0.0000
vt 0.8125 0.0625 0.0000
vt 0.1875 0.9375 0.0000
vt 0.5000 0.9375 0.0000
vt 0.8125 0.9375 0.0000
vt 0.0982 0.7001 0.0000
vt 0.0982 0.2999 0.0000
vt 0.1054 0.2999 0.0000
vt 0.1054 0.7001 0.0000
vt 0.0982 0.2999 0.0000
vt 0.0982 0.7001 0.0000
vt 0.0982 0.7072 0.0000
vt 0.0982 0.7001 0.0000
vt 0.0982 0.2928 0.0000
vt 0.0982 0.2999 0.0000
vt 0.1875 0.5000 0.0000
vt 0.5000 0.5000 0.0000
vt 0.5000 0.0625 0.0000
vt 0.1875 0.0625 0.0000
vt 0.8125 0.5000 0.0000
vt 0.8125 0.0625 0.0000
vt 0.1875 0.9375 0.0000
vt 0.5000 0.9375 0.0000
vt 0.8125 0.9375 0.0000
vt 0.1875 0.5000 0.0000
vt 0.1875 0.0625 0.0000
vt 0.5000 0.0625 0.0000
vt 0.5000 0.5000 0.0000
vt 0.8125 0.0625 0.0000
vt 0.8125 0.5000 0.0000
vt 0.1875 0.9375 0.0000
vt 0.5000 0.9375 0.0000
vt 0.8125 0.9375 0.0000
vt 0.0982 0.2999 0.0000
vt 0.0982 0.7001 0.0000
# 60 texture coords

g Banner
usemtl Material__25
f 25/3/1 23/4/2 28/5/3 
f 28/5/4 4/6/5 25/3/6 
f 37/37/7 38/38/8 26/10/9 
f 26/10/10 30/9/11 37/37/12 
f 5/14/13 8/13/14 9/16/15 
f 9/16/16 6/15/17 5/14/18 
f 6/15/19 9/16/20 10/18/21 
f 10/18/22 7/17/23 6/15/24 
f 8/13/25 11/19/26 12/20/27 
f 12/20/28 9/16/29 8/13/30 
f 9/16/31 12/20/32 13/21/33 
f 13/21/34 10/18/35 9/16/36 
f 15/25/37 16/24/38 17/23/39 
f 17/23/40 14/22/41 15/25/42 
f 16/24/43 18/27/44 19/26/45 
f 19/26/46 17/23/47 16/24/48 
f 14/22/49 17/23/50 21/29/51 
f 21/29/52 20/28/53 14/22/54 
f 17/23/55 19/26/56 22/30/57 
f 22/30/58 21/29/59 17/23/60 
f 24/1/61 2/2/62 60/60/63 
f 60/60/64 59/59/65 24/1/66 
f 31/31/67 34/34/68 33/33/69 
f 33/33/70 32/32/71 31/31/72 
f 29/7/73 27/8/74 36/36/75 
f 36/36/76 35/35/77 29/7/78 
f 3/11/79 1/12/80 40/40/81 
f 40/40/82 39/39/83 3/11/84 
f 44/44/85 43/43/86 42/42/87 
f 42/42/88 41/41/89 44/44/90 
f 43/43/91 46/46/92 45/45/93 
f 45/45/94 42/42/95 43/43/96 
f 41/41/97 42/42/98 48/48/99 
f 48/48/100 47/47/101 41/41/102 
f 42/42/103 45/45/104 49/49/105 
f 49/49/106 48/48/107 42/42/108 
f 51/51/109 50/50/110 53/53/111 
f 53/53/112 52/52/113 51/51/114 
f 52/52/115 53/53/116 55/55/117 
f 55/55/118 54/54/119 52/52/120 
f 50/50/121 56/56/122 57/57/123 
f 57/57/124 53/53/125 50/50/126 
f 53/53/127 57/57/128 58/58/129 
f 58/58/130 55/55/131 53/53/132 
# 44 faces

