# 3ds Max Wavefront OBJ Exporter v0.97b - (c)2007 guruware
# File Created: 05.03.2017 17:33:08

mtllib base-circle_COL.mtl

#
# object base_circle
#

v  0.5000 -0.0313 -0.0000
v  0.4904 -0.0313 -0.0975
v  0.4619 -0.0313 -0.1913
v  0.4157 -0.0313 -0.2778
v  0.3536 -0.0313 -0.3536
v  0.2778 -0.0313 -0.4157
v  0.1913 -0.0313 -0.4619
v  0.0975 -0.0313 -0.4904
v  0.0000 -0.0313 -0.5000
v  -0.0975 -0.0313 -0.4904
v  -0.1913 -0.0313 -0.4619
v  -0.2778 -0.0313 -0.4157
v  -0.3536 -0.0313 -0.3536
v  -0.4157 -0.0313 -0.2778
v  -0.4619 -0.0313 -0.1913
v  -0.4904 -0.0313 -0.0975
v  -0.5000 -0.0313 0.0000
v  -0.4904 -0.0313 0.0975
v  -0.4619 -0.0313 0.1913
v  -0.4157 -0.0313 0.2778
v  -0.3536 -0.0313 0.3536
v  -0.2778 -0.0313 0.4157
v  -0.1913 -0.0313 0.4619
v  -0.0975 -0.0313 0.4904
v  0.0000 -0.0313 0.5000
v  0.0975 -0.0313 0.4904
v  0.1913 -0.0313 0.4619
v  0.2778 -0.0313 0.4157
v  0.3536 -0.0313 0.3536
v  0.4157 -0.0313 0.2778
v  0.4619 -0.0313 0.1913
v  0.4904 -0.0313 0.0975
v  0.5000 0.0313 -0.0000
v  0.4904 0.0313 -0.0975
v  0.4619 0.0313 -0.1913
v  0.4157 0.0313 -0.2778
v  0.3536 0.0313 -0.3536
v  0.2778 0.0313 -0.4157
v  0.1913 0.0313 -0.4619
v  0.0975 0.0313 -0.4904
v  0.0000 0.0313 -0.5000
v  -0.0975 0.0313 -0.4904
v  -0.1913 0.0313 -0.4619
v  -0.2778 0.0313 -0.4157
v  -0.3536 0.0313 -0.3536
v  -0.4157 0.0313 -0.2778
v  -0.4619 0.0313 -0.1913
v  -0.4904 0.0313 -0.0975
v  -0.5000 0.0313 0.0000
v  -0.4904 0.0313 0.0975
v  -0.4619 0.0313 0.1913
v  -0.4157 0.0313 0.2778
v  -0.3536 0.0313 0.3536
v  -0.2778 0.0313 0.4157
v  -0.1913 0.0313 0.4619
v  -0.0975 0.0313 0.4904
v  0.0000 0.0313 0.5000
v  0.0975 0.0313 0.4904
v  0.1913 0.0313 0.4619
v  0.2778 0.0313 0.4157
v  0.3536 0.0313 0.3536
v  0.4157 0.0313 0.2778
v  0.4619 0.0313 0.1913
v  0.4904 0.0313 0.0975
# 64 vertices

vn 0.0000 -1.0000 -0.0000
vn 0.0000 -1.0000 -0.0000
vn 0.0000 -1.0000 -0.0000
vn 0.0000 -1.0000 -0.0000
vn 0.0000 -1.0000 -0.0000
vn 0.0000 -1.0000 -0.0000
vn 0.0000 -1.0000 -0.0000
vn 0.0000 -1.0000 -0.0000
vn 0.0000 -1.0000 -0.0000
vn 0.0000 -1.0000 -0.0000
vn 0.0000 -1.0000 -0.0000
vn 0.0000 -1.0000 -0.0000
vn 0.0000 -1.0000 -0.0000
vn 0.0000 -1.0000 -0.0000
vn 0.0000 -1.0000 -0.0000
vn 0.0000 -1.0000 -0.0000
vn 0.0000 -1.0000 -0.0000
vn 0.0000 -1.0000 -0.0000
vn 0.0000 -1.0000 -0.0000
vn 0.0000 -1.0000 -0.0000
vn 0.0000 -1.0000 -0.0000
vn 0.0000 -1.0000 -0.0000
vn 0.0000 -1.0000 -0.0000
vn 0.0000 -1.0000 -0.0000
vn 0.0000 -1.0000 -0.0000
vn 0.0000 -1.0000 -0.0000
vn 0.0000 -1.0000 -0.0000
vn 0.0000 -1.0000 -0.0000
vn 0.0000 -1.0000 -0.0000
vn 0.0000 -1.0000 -0.0000
vn 0.0000 -1.0000 -0.0000
vn 0.0000 -1.0000 -0.0000
vn 0.0000 -1.0000 -0.0000
vn 0.0000 -1.0000 -0.0000
vn 0.0000 -1.0000 -0.0000
vn 0.0000 -1.0000 -0.0000
vn 0.0000 -1.0000 -0.0000
vn 0.0000 -1.0000 -0.0000
vn 0.0000 -1.0000 -0.0000
vn 0.0000 -1.0000 -0.0000
vn 0.0000 -1.0000 -0.0000
vn 0.0000 -1.0000 -0.0000
vn 0.0000 -1.0000 -0.0000
vn 0.0000 -1.0000 -0.0000
vn 0.0000 -1.0000 -0.0000
vn 0.0000 -1.0000 -0.0000
vn 0.0000 -1.0000 -0.0000
vn 0.0000 -1.0000 -0.0000
vn 0.0000 -1.0000 -0.0000
vn 0.0000 -1.0000 -0.0000
vn 0.0000 -1.0000 -0.0000
vn 0.0000 -1.0000 -0.0000
vn 0.0000 -1.0000 -0.0000
vn 0.0000 -1.0000 -0.0000
vn 0.0000 -1.0000 -0.0000
vn 0.0000 -1.0000 -0.0000
vn 0.0000 -1.0000 -0.0000
vn 0.0000 -1.0000 -0.0000
vn 0.0000 -1.0000 -0.0000
vn 0.0000 -1.0000 -0.0000
vn 0.0000 -1.0000 -0.0000
vn 0.0000 -1.0000 -0.0000
vn 0.0000 -1.0000 -0.0000
vn 0.0000 -1.0000 -0.0000
vn 0.0000 -1.0000 -0.0000
vn 0.0000 -1.0000 -0.0000
vn 0.0000 -1.0000 -0.0000
vn 0.0000 -1.0000 -0.0000
vn 0.0000 -1.0000 -0.0000
vn 0.0000 -1.0000 -0.0000
vn 0.0000 -1.0000 -0.0000
vn 0.0000 -1.0000 -0.0000
vn 0.0000 -1.0000 -0.0000
vn 0.0000 -1.0000 -0.0000
vn 0.0000 -1.0000 -0.0000
vn 0.0000 -1.0000 -0.0000
vn 0.0000 -1.0000 -0.0000
vn 0.0000 -1.0000 -0.0000
vn 0.0000 -1.0000 -0.0000
vn 0.0000 -1.0000 -0.0000
vn 0.0000 -1.0000 -0.0000
vn 0.0000 -1.0000 -0.0000
vn 0.0000 -1.0000 -0.0000
vn 0.0000 -1.0000 -0.0000
vn 0.0000 -1.0000 -0.0000
vn 0.0000 -1.0000 -0.0000
vn 0.0000 -1.0000 -0.0000
vn 0.0000 -1.0000 -0.0000
vn 0.0000 -1.0000 -0.0000
vn 0.0000 -1.0000 -0.0000
vn 1.0000 0.0000 -0.0000
vn 0.9808 0.0000 -0.1951
vn 0.9808 0.0000 -0.1951
vn 0.9808 0.0000 -0.1951
vn 1.0000 0.0000 -0.0000
vn 1.0000 0.0000 -0.0000
vn 0.9808 0.0000 -0.1951
vn 0.9239 0.0000 -0.3827
vn 0.9239 0.0000 -0.3827
vn 0.9239 0.0000 -0.3827
vn 0.9808 0.0000 -0.1951
vn 0.9808 0.0000 -0.1951
vn 0.9239 0.0000 -0.3827
vn 0.8315 0.0000 -0.5556
vn 0.8315 0.0000 -0.5556
vn 0.8315 0.0000 -0.5556
vn 0.9239 0.0000 -0.3827
vn 0.9239 0.0000 -0.3827
vn 0.8315 0.0000 -0.5556
vn 0.7071 0.0000 -0.7071
vn 0.7071 0.0000 -0.7071
vn 0.7071 0.0000 -0.7071
vn 0.8315 0.0000 -0.5556
vn 0.8315 0.0000 -0.5556
vn 0.7071 0.0000 -0.7071
vn 0.5556 0.0000 -0.8315
vn 0.5556 0.0000 -0.8315
vn 0.5556 0.0000 -0.8315
vn 0.7071 0.0000 -0.7071
vn 0.7071 0.0000 -0.7071
vn 0.5556 0.0000 -0.8315
vn 0.3827 0.0000 -0.9239
vn 0.3827 0.0000 -0.9239
vn 0.3827 0.0000 -0.9239
vn 0.5556 0.0000 -0.8315
vn 0.5556 0.0000 -0.8315
vn 0.3827 0.0000 -0.9239
vn 0.1951 0.0000 -0.9808
vn 0.1951 0.0000 -0.9808
vn 0.1951 0.0000 -0.9808
vn 0.3827 0.0000 -0.9239
vn 0.3827 0.0000 -0.9239
vn 0.1951 0.0000 -0.9808
vn 0.0000 0.0000 -1.0000
vn 0.0000 0.0000 -1.0000
vn 0.0000 0.0000 -1.0000
vn 0.1951 0.0000 -0.9808
vn 0.1951 0.0000 -0.9808
vn 0.0000 0.0000 -1.0000
vn -0.1951 0.0000 -0.9808
vn -0.1951 0.0000 -0.9808
vn -0.1951 0.0000 -0.9808
vn 0.0000 0.0000 -1.0000
vn 0.0000 0.0000 -1.0000
vn -0.1951 0.0000 -0.9808
vn -0.3827 0.0000 -0.9239
vn -0.3827 0.0000 -0.9239
vn -0.3827 0.0000 -0.9239
vn -0.1951 0.0000 -0.9808
vn -0.1951 0.0000 -0.9808
vn -0.3827 0.0000 -0.9239
vn -0.5556 0.0000 -0.8315
vn -0.5556 0.0000 -0.8315
vn -0.5556 0.0000 -0.8315
vn -0.3827 0.0000 -0.9239
vn -0.3827 0.0000 -0.9239
vn -0.5556 0.0000 -0.8315
vn -0.7071 0.0000 -0.7071
vn -0.7071 0.0000 -0.7071
vn -0.7071 0.0000 -0.7071
vn -0.5556 0.0000 -0.8315
vn -0.5556 0.0000 -0.8315
vn -0.7071 0.0000 -0.7071
vn -0.8315 0.0000 -0.5556
vn -0.8315 0.0000 -0.5556
vn -0.8315 0.0000 -0.5556
vn -0.7071 0.0000 -0.7071
vn -0.7071 0.0000 -0.7071
vn -0.8315 0.0000 -0.5556
vn -0.9239 0.0000 -0.3827
vn -0.9239 0.0000 -0.3827
vn -0.9239 0.0000 -0.3827
vn -0.8315 0.0000 -0.5556
vn -0.8315 0.0000 -0.5556
vn -0.9239 0.0000 -0.3827
vn -0.9808 0.0000 -0.1951
vn -0.9808 0.0000 -0.1951
vn -0.9808 0.0000 -0.1951
vn -0.9239 0.0000 -0.3827
vn -0.9239 0.0000 -0.3827
vn -0.9808 0.0000 -0.1951
vn -1.0000 0.0000 0.0000
vn -1.0000 0.0000 0.0000
vn -1.0000 0.0000 0.0000
vn -0.9808 0.0000 -0.1951
vn -0.9808 0.0000 -0.1951
vn -1.0000 0.0000 0.0000
vn -0.9808 0.0000 0.1951
vn -0.9808 0.0000 0.1951
vn -0.9808 0.0000 0.1951
vn -1.0000 0.0000 0.0000
vn -1.0000 0.0000 0.0000
vn -0.9808 0.0000 0.1951
vn -0.9239 0.0000 0.3827
vn -0.9239 0.0000 0.3827
vn -0.9239 0.0000 0.3827
vn -0.9808 0.0000 0.1951
vn -0.9808 0.0000 0.1951
vn -0.9239 0.0000 0.3827
vn -0.8315 0.0000 0.5556
vn -0.8315 0.0000 0.5556
vn -0.8315 0.0000 0.5556
vn -0.9239 0.0000 0.3827
vn -0.9239 0.0000 0.3827
vn -0.8315 0.0000 0.5556
vn -0.7071 0.0000 0.7071
vn -0.7071 0.0000 0.7071
vn -0.7071 0.0000 0.7071
vn -0.8315 0.0000 0.5556
vn -0.8315 0.0000 0.5556
vn -0.7071 0.0000 0.7071
vn -0.5556 0.0000 0.8315
vn -0.5556 0.0000 0.8315
vn -0.5556 0.0000 0.8315
vn -0.7071 0.0000 0.7071
vn -0.7071 0.0000 0.7071
vn -0.5556 0.0000 0.8315
vn -0.3827 0.0000 0.9239
vn -0.3827 0.0000 0.9239
vn -0.3827 0.0000 0.9239
vn -0.5556 0.0000 0.8315
vn -0.5556 0.0000 0.8315
vn -0.3827 0.0000 0.9239
vn -0.1951 0.0000 0.9808
vn -0.1951 0.0000 0.9808
vn -0.1951 0.0000 0.9808
vn -0.3827 0.0000 0.9239
vn -0.3827 0.0000 0.9239
vn -0.1951 0.0000 0.9808
vn 0.0000 0.0000 1.0000
vn 0.0000 0.0000 1.0000
vn 0.0000 0.0000 1.0000
vn -0.1951 0.0000 0.9808
vn -0.1951 0.0000 0.9808
vn 0.0000 0.0000 1.0000
vn 0.1951 0.0000 0.9808
vn 0.1951 0.0000 0.9808
vn 0.1951 0.0000 0.9808
vn 0.0000 0.0000 1.0000
vn 0.0000 0.0000 1.0000
vn 0.1951 0.0000 0.9808
vn 0.3827 0.0000 0.9239
vn 0.3827 0.0000 0.9239
vn 0.3827 0.0000 0.9239
vn 0.1951 0.0000 0.9808
vn 0.1951 0.0000 0.9808
vn 0.3827 0.0000 0.9239
vn 0.5556 0.0000 0.8315
vn 0.5556 0.0000 0.8315
vn 0.5556 0.0000 0.8315
vn 0.3827 0.0000 0.9239
vn 0.3827 0.0000 0.9239
vn 0.5556 0.0000 0.8315
vn 0.7071 0.0000 0.7071
vn 0.7071 0.0000 0.7071
vn 0.7071 0.0000 0.7071
vn 0.5556 0.0000 0.8315
vn 0.5556 0.0000 0.8315
vn 0.7071 0.0000 0.7071
vn 0.8315 0.0000 0.5556
vn 0.8315 0.0000 0.5556
vn 0.8315 0.0000 0.5556
vn 0.7071 0.0000 0.7071
vn 0.7071 0.0000 0.7071
vn 0.8315 0.0000 0.5556
vn 0.9239 0.0000 0.3827
vn 0.9239 0.0000 0.3827
vn 0.9239 0.0000 0.3827
vn 0.8315 0.0000 0.5556
vn 0.8315 0.0000 0.5556
vn 0.9239 0.0000 0.3827
vn 0.9808 0.0000 0.1951
vn 0.9808 0.0000 0.1951
vn 0.9808 0.0000 0.1951
vn 0.9239 0.0000 0.3827
vn 0.9239 0.0000 0.3827
vn 0.9808 0.0000 0.1951
vn 1.0000 0.0000 -0.0000
vn 1.0000 0.0000 -0.0000
vn 1.0000 0.0000 -0.0000
vn 0.9808 0.0000 0.1951
vn 0.9808 0.0000 0.1951
vn 0.0000 1.0000 -0.0000
vn 0.0000 1.0000 -0.0000
vn 0.0000 1.0000 -0.0000
vn 0.0000 1.0000 -0.0000
vn 0.0000 1.0000 -0.0000
vn 0.0000 1.0000 -0.0000
vn 0.0000 1.0000 -0.0000
vn 0.0000 1.0000 -0.0000
vn 0.0000 1.0000 -0.0000
vn 0.0000 1.0000 -0.0000
vn 0.0000 1.0000 -0.0000
vn 0.0000 1.0000 -0.0000
vn 0.0000 1.0000 -0.0000
vn 0.0000 1.0000 -0.0000
vn 0.0000 1.0000 -0.0000
vn 0.0000 1.0000 -0.0000
vn 0.0000 1.0000 -0.0000
vn 0.0000 1.0000 -0.0000
vn 0.0000 1.0000 -0.0000
vn 0.0000 1.0000 -0.0000
vn 0.0000 1.0000 -0.0000
vn 0.0000 1.0000 -0.0000
vn 0.0000 1.0000 -0.0000
vn 0.0000 1.0000 -0.0000
vn 0.0000 1.0000 -0.0000
vn 0.0000 1.0000 -0.0000
vn 0.0000 1.0000 -0.0000
vn 0.0000 1.0000 -0.0000
vn 0.0000 1.0000 -0.0000
vn 0.0000 1.0000 -0.0000
vn 0.0000 1.0000 -0.0000
vn 0.0000 1.0000 -0.0000
vn 0.0000 1.0000 -0.0000
vn 0.0000 1.0000 -0.0000
vn 0.0000 1.0000 -0.0000
vn 0.0000 1.0000 -0.0000
vn 0.0000 1.0000 -0.0000
vn 0.0000 1.0000 -0.0000
vn 0.0000 1.0000 -0.0000
vn 0.0000 1.0000 -0.0000
vn 0.0000 1.0000 -0.0000
vn 0.0000 1.0000 -0.0000
vn 0.0000 1.0000 -0.0000
vn 0.0000 1.0000 -0.0000
vn 0.0000 1.0000 -0.0000
vn 0.0000 1.0000 -0.0000
vn 0.0000 1.0000 -0.0000
vn 0.0000 1.0000 -0.0000
vn 0.0000 1.0000 -0.0000
vn 0.0000 1.0000 -0.0000
vn 0.0000 1.0000 -0.0000
vn 0.0000 1.0000 -0.0000
vn 0.0000 1.0000 -0.0000
vn 0.0000 1.0000 -0.0000
vn 0.0000 1.0000 -0.0000
vn 0.0000 1.0000 -0.0000
vn 0.0000 1.0000 -0.0000
vn 0.0000 1.0000 -0.0000
vn 0.0000 1.0000 -0.0000
vn 0.0000 1.0000 -0.0000
vn 0.0000 1.0000 -0.0000
vn 0.0000 1.0000 -0.0000
vn 0.0000 1.0000 -0.0000
vn 0.0000 1.0000 -0.0000
vn 0.0000 1.0000 -0.0000
vn 0.0000 1.0000 -0.0000
vn 0.0000 1.0000 -0.0000
vn 0.0000 1.0000 -0.0000
vn 0.0000 1.0000 -0.0000
vn 0.0000 1.0000 -0.0000
vn 0.0000 1.0000 -0.0000
vn 0.0000 1.0000 -0.0000
vn 0.0000 1.0000 -0.0000
vn 0.0000 1.0000 -0.0000
vn 0.0000 1.0000 -0.0000
vn 0.0000 1.0000 -0.0000
vn 0.0000 1.0000 -0.0000
vn 0.0000 1.0000 -0.0000
vn 0.0000 1.0000 -0.0000
vn 0.0000 1.0000 -0.0000
vn 0.0000 1.0000 -0.0000
vn 0.0000 1.0000 -0.0000
vn 0.0000 1.0000 -0.0000
vn 0.0000 1.0000 -0.0000
vn 0.0000 1.0000 -0.0000
vn 0.0000 1.0000 -0.0000
vn 0.0000 1.0000 -0.0000
vn 0.0000 1.0000 -0.0000
vn 0.0000 1.0000 -0.0000
vn 0.0000 1.0000 -0.0000
# 372 vertex normals

vt 0.9462 0.2890 0.0000
vt 0.9500 0.2500 0.0000
vt 0.9348 0.3265 0.0000
vt 0.9163 0.3611 0.0000
vt 0.8914 0.3914 0.0000
vt 0.8611 0.4163 0.0000
vt 0.8265 0.4348 0.0000
vt 0.7890 0.4462 0.0000
vt 0.7500 0.4500 0.0000
vt 0.7110 0.4462 0.0000
vt 0.6735 0.4348 0.0000
vt 0.6389 0.4163 0.0000
vt 0.6086 0.3914 0.0000
vt 0.5837 0.3611 0.0000
vt 0.5652 0.3265 0.0000
vt 0.5538 0.2890 0.0000
vt 0.5500 0.2500 0.0000
vt 0.5538 0.2110 0.0000
vt 0.5652 0.1735 0.0000
vt 0.5837 0.1389 0.0000
vt 0.6086 0.1086 0.0000
vt 0.6389 0.0837 0.0000
vt 0.6735 0.0652 0.0000
vt 0.7110 0.0538 0.0000
vt 0.7500 0.0500 0.0000
vt 0.7890 0.0538 0.0000
vt 0.8265 0.0652 0.0000
vt 0.8611 0.0837 0.0000
vt 0.8914 0.1086 0.0000
vt 0.9163 0.1389 0.0000
vt 0.9348 0.1735 0.0000
vt 0.9462 0.2110 0.0000
vt 0.9462 0.2890 0.0000
vt 0.9500 0.2500 0.0000
vt 0.9348 0.3265 0.0000
vt 0.9163 0.3611 0.0000
vt 0.8914 0.3914 0.0000
vt 0.8611 0.4163 0.0000
vt 0.8265 0.4348 0.0000
vt 0.7890 0.4462 0.0000
vt 0.7500 0.4500 0.0000
vt 0.7110 0.4462 0.0000
vt 0.6735 0.4348 0.0000
vt 0.6389 0.4163 0.0000
vt 0.6086 0.3914 0.0000
vt 0.5837 0.3611 0.0000
vt 0.5652 0.3265 0.0000
vt 0.5538 0.2890 0.0000
vt 0.5500 0.2500 0.0000
vt 0.5538 0.2110 0.0000
vt 0.5652 0.1735 0.0000
vt 0.5837 0.1389 0.0000
vt 0.6086 0.1086 0.0000
vt 0.6389 0.0837 0.0000
vt 0.6735 0.0652 0.0000
vt 0.7110 0.0538 0.0000
vt 0.7500 0.0500 0.0000
vt 0.7890 0.0538 0.0000
vt 0.8265 0.0652 0.0000
vt 0.8611 0.0837 0.0000
vt 0.8914 0.1086 0.0000
vt 0.9163 0.1389 0.0000
vt 0.9348 0.1735 0.0000
vt 0.9462 0.2110 0.0000
# 64 texture coords

g base_circle
usemtl Material__25
f 31/31/1 30/30/2 29/29/3 
f 29/29/4 28/28/5 27/27/6 
f 27/27/7 26/26/8 25/25/9 
f 29/29/10 27/27/11 25/25/12 
f 25/25/13 24/24/14 23/23/15 
f 23/23/16 22/22/17 21/21/18 
f 25/25/19 23/23/20 21/21/21 
f 21/21/22 20/20/23 19/19/24 
f 19/19/25 18/18/26 17/17/27 
f 21/21/28 19/19/29 17/17/30 
f 25/25/31 21/21/32 17/17/33 
f 17/17/34 16/16/35 15/15/36 
f 15/15/37 14/14/38 13/13/39 
f 17/17/40 15/15/41 13/13/42 
f 13/13/43 12/12/44 11/11/45 
f 11/11/46 10/10/47 9/9/48 
f 13/13/49 11/11/50 9/9/51 
f 17/17/52 13/13/53 9/9/54 
f 9/9/55 8/8/56 7/7/57 
f 7/7/58 6/6/59 5/5/60 
f 9/9/61 7/7/62 5/5/63 
f 5/5/64 4/4/65 3/3/66 
f 3/3/67 2/1/68 1/2/69 
f 5/5/70 3/3/71 1/2/72 
f 9/9/73 5/5/74 1/2/75 
f 17/17/76 9/9/77 1/2/78 
f 25/25/79 17/17/80 1/2/81 
f 29/29/82 25/25/83 1/2/84 
f 31/31/85 29/29/86 1/2/87 
f 32/32/88 31/31/89 1/2/90 
f 1/2/91 2/1/92 34/33/93 
f 34/33/94 33/34/95 1/2/96 
f 2/1/97 3/3/98 35/35/99 
f 35/35/100 34/33/101 2/1/102 
f 3/3/103 4/4/104 36/36/105 
f 36/36/106 35/35/107 3/3/108 
f 4/4/109 5/5/110 37/37/111 
f 37/37/112 36/36/113 4/4/114 
f 5/5/115 6/6/116 38/38/117 
f 38/38/118 37/37/119 5/5/120 
f 6/6/121 7/7/122 39/39/123 
f 39/39/124 38/38/125 6/6/126 
f 7/7/127 8/8/128 40/40/129 
f 40/40/130 39/39/131 7/7/132 
f 8/8/133 9/9/134 41/41/135 
f 41/41/136 40/40/137 8/8/138 
f 9/9/139 10/10/140 42/42/141 
f 42/42/142 41/41/143 9/9/144 
f 10/10/145 11/11/146 43/43/147 
f 43/43/148 42/42/149 10/10/150 
f 11/11/151 12/12/152 44/44/153 
f 44/44/154 43/43/155 11/11/156 
f 12/12/157 13/13/158 45/45/159 
f 45/45/160 44/44/161 12/12/162 
f 13/13/163 14/14/164 46/46/165 
f 46/46/166 45/45/167 13/13/168 
f 14/14/169 15/15/170 47/47/171 
f 47/47/172 46/46/173 14/14/174 
f 15/15/175 16/16/176 48/48/177 
f 48/48/178 47/47/179 15/15/180 
f 16/16/181 17/17/182 49/49/183 
f 49/49/184 48/48/185 16/16/186 
f 17/17/187 18/18/188 50/50/189 
f 50/50/190 49/49/191 17/17/192 
f 18/18/193 19/19/194 51/51/195 
f 51/51/196 50/50/197 18/18/198 
f 19/19/199 20/20/200 52/52/201 
f 52/52/202 51/51/203 19/19/204 
f 20/20/205 21/21/206 53/53/207 
f 53/53/208 52/52/209 20/20/210 
f 21/21/211 22/22/212 54/54/213 
f 54/54/214 53/53/215 21/21/216 
f 22/22/217 23/23/218 55/55/219 
f 55/55/220 54/54/221 22/22/222 
f 23/23/223 24/24/224 56/56/225 
f 56/56/226 55/55/227 23/23/228 
f 24/24/229 25/25/230 57/57/231 
f 57/57/232 56/56/233 24/24/234 
f 25/25/235 26/26/236 58/58/237 
f 58/58/238 57/57/239 25/25/240 
f 26/26/241 27/27/242 59/59/243 
f 59/59/244 58/58/245 26/26/246 
f 27/27/247 28/28/248 60/60/249 
f 60/60/250 59/59/251 27/27/252 
f 28/28/253 29/29/254 61/61/255 
f 61/61/256 60/60/257 28/28/258 
f 29/29/259 30/30/260 62/62/261 
f 62/62/262 61/61/263 29/29/264 
f 30/30/265 31/31/266 63/63/267 
f 63/63/268 62/62/269 30/30/270 
f 31/31/271 32/32/272 64/64/273 
f 64/64/274 63/63/275 31/31/276 
f 32/32/277 1/2/278 33/34/279 
f 33/34/280 64/64/281 32/32/282 
f 33/34/283 34/33/284 35/35/285 
f 35/35/286 36/36/287 37/37/288 
f 37/37/289 38/38/290 39/39/291 
f 35/35/292 37/37/293 39/39/294 
f 39/39/295 40/40/296 41/41/297 
f 41/41/298 42/42/299 43/43/300 
f 39/39/301 41/41/302 43/43/303 
f 43/43/304 44/44/305 45/45/306 
f 45/45/307 46/46/308 47/47/309 
f 43/43/310 45/45/311 47/47/312 
f 39/39/313 43/43/314 47/47/315 
f 47/47/316 48/48/317 49/49/318 
f 49/49/319 50/50/320 51/51/321 
f 47/47/322 49/49/323 51/51/324 
f 51/51/325 52/52/326 53/53/327 
f 53/53/328 54/54/329 55/55/330 
f 51/51/331 53/53/332 55/55/333 
f 47/47/334 51/51/335 55/55/336 
f 55/55/337 56/56/338 57/57/339 
f 57/57/340 58/58/341 59/59/342 
f 55/55/343 57/57/344 59/59/345 
f 59/59/346 60/60/347 61/61/348 
f 61/61/349 62/62/350 63/63/351 
f 59/59/352 61/61/353 63/63/354 
f 55/55/355 59/59/356 63/63/357 
f 47/47/358 55/55/359 63/63/360 
f 39/39/361 47/47/362 63/63/363 
f 35/35/364 39/39/365 63/63/366 
f 33/34/367 35/35/368 63/63/369 
f 64/64/370 33/34/371 63/63/372 
# 124 faces

