# 3ds Max Wavefront OBJ Exporter v0.97b - (c)2007 guruware
# File Created: 05.03.2017 19:42:03

mtllib base-square-75_COL.mtl

#
# object base_square_75
#

v  -0.3750 -0.0313 0.3750
v  0.3750 -0.0313 0.3750
v  -0.3750 -0.0313 -0.3750
v  0.3750 -0.0313 -0.3750
v  -0.3750 0.0313 0.3750
v  0.3750 0.0313 0.3750
v  -0.3750 0.0313 -0.3750
v  0.3750 0.0313 -0.3750
# 8 vertices

vn 0.0000 -1.0000 -0.0000
vn 0.0000 -1.0000 -0.0000
vn 0.0000 -1.0000 -0.0000
vn 0.0000 -1.0000 -0.0000
vn 0.0000 -1.0000 -0.0000
vn 0.0000 -1.0000 -0.0000
vn 0.0000 1.0000 -0.0000
vn 0.0000 1.0000 -0.0000
vn 0.0000 1.0000 -0.0000
vn 0.0000 1.0000 -0.0000
vn 0.0000 1.0000 -0.0000
vn 0.0000 1.0000 -0.0000
vn 0.0000 0.0000 1.0000
vn 0.0000 0.0000 1.0000
vn 0.0000 0.0000 1.0000
vn 0.0000 0.0000 1.0000
vn 0.0000 0.0000 1.0000
vn 0.0000 0.0000 1.0000
vn 1.0000 0.0000 -0.0000
vn 1.0000 0.0000 -0.0000
vn 1.0000 0.0000 -0.0000
vn 1.0000 0.0000 -0.0000
vn 1.0000 0.0000 -0.0000
vn 1.0000 0.0000 -0.0000
vn 0.0000 0.0000 -1.0000
vn 0.0000 0.0000 -1.0000
vn 0.0000 0.0000 -1.0000
vn 0.0000 0.0000 -1.0000
vn 0.0000 0.0000 -1.0000
vn 0.0000 0.0000 -1.0000
vn -1.0000 0.0000 -0.0000
vn -1.0000 0.0000 -0.0000
vn -1.0000 0.0000 -0.0000
vn -1.0000 0.0000 -0.0000
vn -1.0000 0.0000 -0.0000
vn -1.0000 0.0000 -0.0000
# 36 vertex normals

vt 0.0500 0.0500 0.0000
vt 0.0500 0.4500 0.0000
vt 0.4500 0.4500 0.0000
vt 0.4500 0.0500 0.0000
vt 0.0500 0.0500 0.0000
vt 0.4500 0.0500 0.0000
vt 0.4500 0.4500 0.0000
vt 0.0500 0.4500 0.0000
# 8 texture coords

g base_square_75
usemtl Material__25
f 1/1/1 3/2/2 4/3/3 
f 4/3/4 2/4/5 1/1/6 
f 5/5/7 6/6/8 8/7/9 
f 8/7/10 7/8/11 5/5/12 
f 1/1/13 2/4/14 6/6/15 
f 6/6/16 5/5/17 1/1/18 
f 2/4/19 4/3/20 8/7/21 
f 8/7/22 6/6/23 2/4/24 
f 4/3/25 3/2/26 7/8/27 
f 7/8/28 8/7/29 4/3/30 
f 3/2/31 1/1/32 5/5/33 
f 5/5/34 7/8/35 3/2/36 
# 12 faces

