# 3ds Max Wavefront OBJ Exporter v0.97b - (c)2007 guruware
# File Created: 19.03.2017 22:26:27

mtllib dieroller_COL.mtl

#
# object COL
#

v  3.0000 0.0000 -0.0000
v  1.5000 0.0000 -2.5981
v  -1.5000 0.0000 -2.5981
v  -3.0000 0.0000 0.0000
v  -1.5000 0.0000 2.5981
v  1.5000 0.0000 2.5981
v  2.7113 0.2500 -0.0000
v  1.3557 0.2500 -2.3481
v  -1.3557 0.2500 -2.3481
v  -2.7113 0.2500 0.0000
v  -1.3557 0.2500 2.3481
v  1.3557 0.2500 2.3481
v  2.5670 0.2500 -0.0000
v  1.2835 0.2500 -2.2231
v  -1.2835 0.2500 -2.2231
v  -2.5670 0.2500 0.0000
v  -1.2835 0.2500 2.2231
v  1.2835 0.2500 2.2231
# 18 vertices

vn 0.6124 0.7071 -0.3536
vn 0.6124 0.7071 -0.3536
vn 0.6124 0.7071 -0.3536
vn 0.6124 0.7071 -0.3536
vn 0.6124 0.7071 -0.3536
vn 0.6124 0.7071 -0.3536
vn -0.0000 0.7071 -0.7071
vn -0.0000 0.7071 -0.7071
vn -0.0000 0.7071 -0.7071
vn -0.0000 0.7071 -0.7071
vn -0.0000 0.7071 -0.7071
vn -0.0000 0.7071 -0.7071
vn -0.6124 0.7071 -0.3536
vn -0.6124 0.7071 -0.3536
vn -0.6124 0.7071 -0.3536
vn -0.6124 0.7071 -0.3536
vn -0.6124 0.7071 -0.3536
vn -0.6124 0.7071 -0.3536
vn -0.6124 0.7071 0.3536
vn -0.6124 0.7071 0.3536
vn -0.6124 0.7071 0.3536
vn -0.6124 0.7071 0.3536
vn -0.6124 0.7071 0.3536
vn -0.6124 0.7071 0.3536
vn 0.0000 0.7071 0.7071
vn 0.0000 0.7071 0.7071
vn 0.0000 0.7071 0.7071
vn 0.0000 0.7071 0.7071
vn 0.0000 0.7071 0.7071
vn 0.0000 0.7071 0.7071
vn 0.6124 0.7071 0.3536
vn 0.6124 0.7071 0.3536
vn 0.6124 0.7071 0.3536
vn 0.6124 0.7071 0.3536
vn 0.6124 0.7071 0.3536
vn 0.6124 0.7071 0.3536
vn 0.0000 -1.0000 -0.0000
vn 0.0000 -1.0000 -0.0000
vn 0.0000 -1.0000 -0.0000
vn 0.0000 -1.0000 -0.0000
vn 0.0000 -1.0000 -0.0000
vn 0.0000 -1.0000 -0.0000
vn 0.0000 -1.0000 -0.0000
vn 0.0000 -1.0000 -0.0000
vn 0.0000 -1.0000 -0.0000
vn 0.0000 -1.0000 -0.0000
vn 0.0000 -1.0000 -0.0000
vn 0.0000 -1.0000 -0.0000
vn 0.0000 1.0000 -0.0000
vn 0.0000 1.0000 -0.0000
vn 0.0000 1.0000 -0.0000
vn 0.0000 1.0000 -0.0000
vn 0.0000 1.0000 -0.0000
vn 0.0000 1.0000 -0.0000
vn 0.0000 1.0000 -0.0000
vn 0.0000 1.0000 -0.0000
vn 0.0000 1.0000 -0.0000
vn 0.0000 1.0000 -0.0000
vn 0.0000 1.0000 -0.0000
vn 0.0000 1.0000 -0.0000
vn 0.0000 1.0000 -0.0000
vn 0.0000 1.0000 -0.0000
vn 0.0000 1.0000 -0.0000
vn 0.0000 1.0000 -0.0000
vn 0.0000 1.0000 -0.0000
vn 0.0000 1.0000 -0.0000
vn 0.0000 1.0000 -0.0000
vn 0.0000 1.0000 -0.0000
vn 0.0000 1.0000 -0.0000
vn 0.0000 1.0000 -0.0000
vn 0.0000 1.0000 -0.0000
vn 0.0000 1.0000 -0.0000
vn 0.0000 1.0000 -0.0000
vn 0.0000 1.0000 -0.0000
vn 0.0000 1.0000 -0.0000
vn 0.0000 1.0000 -0.0000
vn 0.0000 1.0000 -0.0000
vn 0.0000 1.0000 -0.0000
vn 0.0000 1.0000 -0.0000
vn 0.0000 1.0000 -0.0000
vn 0.0000 1.0000 -0.0000
vn 0.0000 1.0000 -0.0000
vn 0.0000 1.0000 -0.0000
vn 0.0000 1.0000 -0.0000
vn 0.0000 1.0000 -0.0000
vn 0.0000 1.0000 -0.0000
vn 0.0000 1.0000 -0.0000
vn 0.0000 1.0000 -0.0000
vn 0.0000 1.0000 -0.0000
vn 0.0000 1.0000 -0.0000
vn 0.0000 1.0000 -0.0000
vn 0.0000 1.0000 -0.0000
vn 0.0000 1.0000 -0.0000
vn 0.0000 1.0000 -0.0000
vn 0.0000 1.0000 -0.0000
vn 0.0000 1.0000 -0.0000
# 96 vertex normals

vt 0.4688 0.7500 0.0000
vt 0.3594 0.9394 0.0000
vt 0.3489 0.9212 0.0000
vt 0.4477 0.7500 0.0000
vt 0.1406 0.9394 0.0000
vt 0.1511 0.9212 0.0000
vt 0.0313 0.7500 0.0000
vt 0.0523 0.7500 0.0000
vt 0.1406 0.5606 0.0000
vt 0.1511 0.5788 0.0000
vt 0.3594 0.5606 0.0000
vt 0.3489 0.5788 0.0000
vt 0.4372 0.7500 0.0000
vt 0.3436 0.9121 0.0000
vt 0.1564 0.9121 0.0000
vt 0.0628 0.7500 0.0000
vt 0.1564 0.5879 0.0000
vt 0.3436 0.5879 0.0000
vt 0.4372 0.2500 0.0000
vt 0.3436 0.4121 0.0000
vt 0.1564 0.4121 0.0000
vt 0.0628 0.2500 0.0000
vt 0.1564 0.0879 0.0000
vt 0.3436 0.0879 0.0000
# 24 texture coords

g COL
usemtl Material__25
f 1/1/1 2/2/2 8/3/3 
f 8/3/4 7/4/5 1/1/6 
f 2/2/7 3/5/8 9/6/9 
f 9/6/10 8/3/11 2/2/12 
f 3/5/13 4/7/14 10/8/15 
f 10/8/16 9/6/17 3/5/18 
f 4/7/19 5/9/20 11/10/21 
f 11/10/22 10/8/23 4/7/24 
f 5/9/25 6/11/26 12/12/27 
f 12/12/28 11/10/29 5/9/30 
f 6/11/31 1/1/32 7/4/33 
f 7/4/34 12/12/35 6/11/36 
f 5/9/37 4/7/38 3/5/39 
f 3/5/40 2/2/41 1/1/42 
f 5/9/43 3/5/44 1/1/45 
f 6/11/46 5/9/47 1/1/48 
f 14/20/49 15/21/50 16/22/51 
f 16/22/52 17/23/53 18/24/54 
f 14/20/55 16/22/56 18/24/57 
f 13/19/58 14/20/59 18/24/60 
f 7/4/61 8/3/62 14/14/63 
f 14/14/64 13/13/65 7/4/66 
f 8/3/67 9/6/68 15/15/69 
f 15/15/70 14/14/71 8/3/72 
f 9/6/73 10/8/74 16/16/75 
f 16/16/76 15/15/77 9/6/78 
f 10/8/79 11/10/80 17/17/81 
f 17/17/82 16/16/83 10/8/84 
f 11/10/85 12/12/86 18/18/87 
f 18/18/88 17/17/89 11/10/90 
f 12/12/91 7/4/92 13/13/93 
f 13/13/94 18/18/95 12/12/96 
# 32 faces

#
# object COL_1
#

v  1.2835 0.2500 -2.2231
v  -1.2835 0.2500 -2.2231
v  1.2835 3.2500 -2.2231
v  -1.2835 3.2500 -2.2231
# 4 vertices

vn 0.0000 0.0000 1.0000
vn 0.0000 0.0000 1.0000
vn 0.0000 0.0000 1.0000
vn 0.0000 0.0000 1.0000
vn 0.0000 0.0000 1.0000
vn 0.0000 0.0000 1.0000
# 6 vertex normals

g COL_1
usemtl Material__25
f 22//97 20//98 19//99 
f 19//100 21//101 22//102 
# 2 faces

#
# object COL_2
#

v  1.2835 0.2500 -2.2231
v  1.2835 3.2500 -2.2231
v  2.5670 0.2500 -0.0000
v  2.5670 3.2500 -0.0000
# 4 vertices

vn -0.8660 0.0000 0.5000
vn -0.8660 0.0000 0.5000
vn -0.8660 0.0000 0.5000
vn -0.8660 0.0000 0.5000
vn -0.8660 0.0000 0.5000
vn -0.8660 0.0000 0.5000
# 6 vertex normals

g COL_2
usemtl Material__25
f 24//103 23//104 25//105 
f 25//106 26//107 24//108 
# 2 faces

#
# object COL_3
#

v  2.5670 0.2500 -0.0000
v  2.5670 3.2500 -0.0000
v  1.2835 0.2500 2.2231
v  1.2835 3.2500 2.2231
# 4 vertices

vn -0.8660 0.0000 -0.5000
vn -0.8660 0.0000 -0.5000
vn -0.8660 0.0000 -0.5000
vn -0.8660 0.0000 -0.5000
vn -0.8660 0.0000 -0.5000
vn -0.8660 0.0000 -0.5000
# 6 vertex normals

g COL_3
usemtl Material__25
f 28//109 27//110 29//111 
f 29//112 30//113 28//114 
# 2 faces

#
# object COL_4
#

v  1.2835 0.2500 2.2231
v  1.2835 3.2500 2.2231
v  -1.2835 0.2500 2.2231
v  -1.2835 3.2500 2.2231
# 4 vertices

vn 0.0000 0.0000 -1.0000
vn 0.0000 0.0000 -1.0000
vn 0.0000 0.0000 -1.0000
vn 0.0000 0.0000 -1.0000
vn 0.0000 0.0000 -1.0000
vn 0.0000 0.0000 -1.0000
# 6 vertex normals

g COL_4
usemtl Material__25
f 32//115 31//116 33//117 
f 33//118 34//119 32//120 
# 2 faces

#
# object COL_5
#

v  -1.2835 0.2500 2.2231
v  -1.2835 3.2500 2.2231
v  -2.5670 0.2500 0.0000
v  -2.5670 3.2500 0.0000
# 4 vertices

vn 0.8660 0.0000 -0.5000
vn 0.8660 0.0000 -0.5000
vn 0.8660 0.0000 -0.5000
vn 0.8660 0.0000 -0.5000
vn 0.8660 0.0000 -0.5000
vn 0.8660 0.0000 -0.5000
# 6 vertex normals

g COL_5
usemtl Material__25
f 36//121 35//122 37//123 
f 37//124 38//125 36//126 
# 2 faces

#
# object COL_6
#

v  -1.2835 0.2500 -2.2231
v  -2.5670 0.2500 0.0000
v  -1.2835 3.2500 -2.2231
v  -2.5670 3.2500 0.0000
# 4 vertices

vn 0.8660 0.0000 0.5000
vn 0.8660 0.0000 0.5000
vn 0.8660 0.0000 0.5000
vn 0.8660 0.0000 0.5000
vn 0.8660 0.0000 0.5000
vn 0.8660 0.0000 0.5000
# 6 vertex normals

g COL_6
usemtl Material__25
f 42//127 40//128 39//129 
f 39//130 41//131 42//132 
# 2 faces

