# 3ds Max Wavefront OBJ Exporter v0.97b - (c)2007 guruware
# File Created: 19.03.2017 22:31:04

mtllib dieroller_COL.mtl

#
# object COL
#

v  3.0000 0.0000 -0.0000
v  1.5000 0.0000 -2.5981
v  -1.5000 0.0000 -2.5981
v  -3.0000 0.0000 0.0000
v  -1.5000 0.0000 2.5981
v  1.5000 0.0000 2.5981
v  2.7113 0.2500 -0.0000
v  1.3557 0.2500 -2.3481
v  -1.3557 0.2500 -2.3481
v  -2.7113 0.2500 0.0000
v  -1.3557 0.2500 2.3481
v  1.3557 0.2500 2.3481
v  2.5670 0.2500 -0.0000
v  1.2835 0.2500 -2.2231
v  -1.2835 0.2500 -2.2231
v  -2.5670 0.2500 0.0000
v  -1.2835 0.2500 2.2231
v  1.2835 0.2500 2.2231
# 18 vertices

vn 0.6124 0.7071 -0.3536
vn 0.6124 0.7071 -0.3536
vn 0.6124 0.7071 -0.3536
vn 0.6124 0.7071 -0.3536
vn 0.6124 0.7071 -0.3536
vn 0.6124 0.7071 -0.3536
vn -0.0000 0.7071 -0.7071
vn -0.0000 0.7071 -0.7071
vn -0.0000 0.7071 -0.7071
vn -0.0000 0.7071 -0.7071
vn -0.0000 0.7071 -0.7071
vn -0.0000 0.7071 -0.7071
vn -0.6124 0.7071 -0.3536
vn -0.6124 0.7071 -0.3536
vn -0.6124 0.7071 -0.3536
vn -0.6124 0.7071 -0.3536
vn -0.6124 0.7071 -0.3536
vn -0.6124 0.7071 -0.3536
vn -0.6124 0.7071 0.3536
vn -0.6124 0.7071 0.3536
vn -0.6124 0.7071 0.3536
vn -0.6124 0.7071 0.3536
vn -0.6124 0.7071 0.3536
vn -0.6124 0.7071 0.3536
vn 0.0000 0.7071 0.7071
vn 0.0000 0.7071 0.7071
vn 0.0000 0.7071 0.7071
vn 0.0000 0.7071 0.7071
vn 0.0000 0.7071 0.7071
vn 0.0000 0.7071 0.7071
vn 0.6124 0.7071 0.3536
vn 0.6124 0.7071 0.3536
vn 0.6124 0.7071 0.3536
vn 0.6124 0.7071 0.3536
vn 0.6124 0.7071 0.3536
vn 0.6124 0.7071 0.3536
vn 0.0000 -1.0000 -0.0000
vn 0.0000 -1.0000 -0.0000
vn 0.0000 -1.0000 -0.0000
vn 0.0000 -1.0000 -0.0000
vn 0.0000 -1.0000 -0.0000
vn 0.0000 -1.0000 -0.0000
vn 0.0000 -1.0000 -0.0000
vn 0.0000 -1.0000 -0.0000
vn 0.0000 -1.0000 -0.0000
vn 0.0000 -1.0000 -0.0000
vn 0.0000 -1.0000 -0.0000
vn 0.0000 -1.0000 -0.0000
vn 0.0000 1.0000 -0.0000
vn 0.0000 1.0000 -0.0000
vn 0.0000 1.0000 -0.0000
vn 0.0000 1.0000 -0.0000
vn 0.0000 1.0000 -0.0000
vn 0.0000 1.0000 -0.0000
vn 0.0000 1.0000 -0.0000
vn 0.0000 1.0000 -0.0000
vn 0.0000 1.0000 -0.0000
vn 0.0000 1.0000 -0.0000
vn 0.0000 1.0000 -0.0000
vn 0.0000 1.0000 -0.0000
vn 0.0000 1.0000 -0.0000
vn 0.0000 1.0000 -0.0000
vn 0.0000 1.0000 -0.0000
vn 0.0000 1.0000 -0.0000
vn 0.0000 1.0000 -0.0000
vn 0.0000 1.0000 -0.0000
vn 0.0000 1.0000 -0.0000
vn 0.0000 1.0000 -0.0000
vn 0.0000 1.0000 -0.0000
vn 0.0000 1.0000 -0.0000
vn 0.0000 1.0000 -0.0000
vn 0.0000 1.0000 -0.0000
vn 0.0000 1.0000 -0.0000
vn 0.0000 1.0000 -0.0000
vn 0.0000 1.0000 -0.0000
vn 0.0000 1.0000 -0.0000
vn 0.0000 1.0000 -0.0000
vn 0.0000 1.0000 -0.0000
vn 0.0000 1.0000 -0.0000
vn 0.0000 1.0000 -0.0000
vn 0.0000 1.0000 -0.0000
vn 0.0000 1.0000 -0.0000
vn 0.0000 1.0000 -0.0000
vn 0.0000 1.0000 -0.0000
vn 0.0000 1.0000 -0.0000
vn 0.0000 1.0000 -0.0000
vn 0.0000 1.0000 -0.0000
vn 0.0000 1.0000 -0.0000
vn 0.0000 1.0000 -0.0000
vn 0.0000 1.0000 -0.0000
vn 0.0000 1.0000 -0.0000
vn 0.0000 1.0000 -0.0000
vn 0.0000 1.0000 -0.0000
vn 0.0000 1.0000 -0.0000
vn 0.0000 1.0000 -0.0000
vn 0.0000 1.0000 -0.0000
# 96 vertex normals

vt 0.4688 0.7500 0.0000
vt 0.3594 0.9394 0.0000
vt 0.3489 0.9212 0.0000
vt 0.4477 0.7500 0.0000
vt 0.1406 0.9394 0.0000
vt 0.1511 0.9212 0.0000
vt 0.0313 0.7500 0.0000
vt 0.0523 0.7500 0.0000
vt 0.1406 0.5606 0.0000
vt 0.1511 0.5788 0.0000
vt 0.3594 0.5606 0.0000
vt 0.3489 0.5788 0.0000
vt 0.4372 0.7500 0.0000
vt 0.3436 0.9121 0.0000
vt 0.1564 0.9121 0.0000
vt 0.0628 0.7500 0.0000
vt 0.1564 0.5879 0.0000
vt 0.3436 0.5879 0.0000
vt 0.4372 0.2500 0.0000
vt 0.3436 0.4121 0.0000
vt 0.1564 0.4121 0.0000
vt 0.0628 0.2500 0.0000
vt 0.1564 0.0879 0.0000
vt 0.3436 0.0879 0.0000
# 24 texture coords

g COL
usemtl Material__25
f 1/1/1 2/2/2 8/3/3 
f 8/3/4 7/4/5 1/1/6 
f 2/2/7 3/5/8 9/6/9 
f 9/6/10 8/3/11 2/2/12 
f 3/5/13 4/7/14 10/8/15 
f 10/8/16 9/6/17 3/5/18 
f 4/7/19 5/9/20 11/10/21 
f 11/10/22 10/8/23 4/7/24 
f 5/9/25 6/11/26 12/12/27 
f 12/12/28 11/10/29 5/9/30 
f 6/11/31 1/1/32 7/4/33 
f 7/4/34 12/12/35 6/11/36 
f 5/9/37 4/7/38 3/5/39 
f 3/5/40 2/2/41 1/1/42 
f 5/9/43 3/5/44 1/1/45 
f 6/11/46 5/9/47 1/1/48 
f 14/20/49 15/21/50 16/22/51 
f 16/22/52 17/23/53 18/24/54 
f 14/20/55 16/22/56 18/24/57 
f 13/19/58 14/20/59 18/24/60 
f 7/4/61 8/3/62 14/14/63 
f 14/14/64 13/13/65 7/4/66 
f 8/3/67 9/6/68 15/15/69 
f 15/15/70 14/14/71 8/3/72 
f 9/6/73 10/8/74 16/16/75 
f 16/16/76 15/15/77 9/6/78 
f 10/8/79 11/10/80 17/17/81 
f 17/17/82 16/16/83 10/8/84 
f 11/10/85 12/12/86 18/18/87 
f 18/18/88 17/17/89 11/10/90 
f 12/12/91 7/4/92 13/13/93 
f 13/13/94 18/18/95 12/12/96 
# 32 faces

#
# object COL_1
#

v  1.2835 0.2500 -2.0981
v  -1.2835 0.2500 -2.0981
v  1.2835 3.2500 -2.0981
v  -1.2835 3.2500 -2.0981
v  1.2835 0.2500 -2.2231
v  -1.2835 0.2500 -2.2231
v  1.2835 3.2500 -2.2231
v  -1.2835 3.2500 -2.2231
# 8 vertices

vn 0.0000 0.0000 1.0000
vn 0.0000 0.0000 1.0000
vn 0.0000 0.0000 1.0000
vn 0.0000 0.0000 1.0000
vn 0.0000 0.0000 1.0000
vn 0.0000 0.0000 1.0000
vn -1.0000 0.0000 -0.0000
vn -1.0000 0.0000 -0.0000
vn -1.0000 0.0000 -0.0000
vn -1.0000 0.0000 -0.0000
vn -1.0000 0.0000 -0.0000
vn -1.0000 0.0000 -0.0000
vn 0.0000 -1.0000 -0.0000
vn 0.0000 -1.0000 -0.0000
vn 0.0000 -1.0000 -0.0000
vn 0.0000 -1.0000 -0.0000
vn 0.0000 -1.0000 -0.0000
vn 0.0000 -1.0000 -0.0000
vn 1.0000 0.0000 -0.0000
vn 1.0000 0.0000 -0.0000
vn 1.0000 0.0000 -0.0000
vn 1.0000 0.0000 -0.0000
vn 1.0000 0.0000 -0.0000
vn 1.0000 0.0000 -0.0000
vn 0.0000 1.0000 -0.0000
vn 0.0000 1.0000 -0.0000
vn 0.0000 1.0000 -0.0000
vn 0.0000 1.0000 -0.0000
vn 0.0000 1.0000 -0.0000
vn 0.0000 1.0000 -0.0000
# 30 vertex normals

g COL_1
usemtl Material__25
f 19//97 21//98 22//99 
f 22//100 20//101 19//102 
f 26//103 24//104 20//105 
f 20//106 22//107 26//108 
f 24//109 23//110 19//111 
f 19//112 20//113 24//114 
f 23//115 25//116 21//117 
f 21//118 19//119 23//120 
f 25//121 26//122 22//123 
f 22//124 21//125 25//126 
# 10 faces

#
# object COL_2
#

v  1.1752 0.2500 -2.1606
v  1.1752 3.2500 -2.1606
v  2.4587 0.2500 0.0625
v  2.4587 3.2500 0.0625
v  1.2835 0.2500 -2.2231
v  1.2835 3.2500 -2.2231
v  2.5670 0.2500 -0.0000
v  2.5670 3.2500 -0.0000
# 8 vertices

vn -0.8660 -0.0000 0.5000
vn -0.8660 0.0000 0.5000
vn -0.8660 -0.0000 0.5000
vn -0.8660 -0.0000 0.5000
vn -0.8660 -0.0000 0.5000
vn -0.8660 -0.0000 0.5000
vn -0.5000 -0.0000 -0.8660
vn -0.5000 0.0000 -0.8660
vn -0.5000 -0.0000 -0.8660
vn -0.5000 -0.0000 -0.8660
vn -0.5000 -0.0000 -0.8660
vn -0.5000 -0.0000 -0.8660
vn 0.0000 -1.0000 -0.0000
vn 0.0000 -1.0000 -0.0000
vn 0.0000 -1.0000 -0.0000
vn 0.0000 -1.0000 -0.0000
vn 0.0000 -1.0000 -0.0000
vn 0.0000 -1.0000 -0.0000
vn 0.5000 0.0000 0.8660
vn 0.5000 0.0000 0.8660
vn 0.5000 0.0000 0.8660
vn 0.5000 0.0000 0.8660
vn 0.5000 0.0000 0.8660
vn 0.5000 0.0000 0.8660
vn 0.0000 1.0000 -0.0000
vn 0.0000 1.0000 -0.0000
vn 0.0000 1.0000 -0.0000
vn 0.0000 1.0000 -0.0000
vn 0.0000 1.0000 -0.0000
vn 0.0000 1.0000 -0.0000
# 30 vertex normals

g COL_2
usemtl Material__25
f 29//127 30//128 28//129 
f 28//130 27//131 29//132 
f 32//133 31//134 27//135 
f 27//136 28//137 32//138 
f 31//139 33//140 29//141 
f 29//142 27//143 31//144 
f 33//145 34//146 30//147 
f 30//148 29//149 33//150 
f 34//151 32//152 28//153 
f 28//154 30//155 34//156 
# 10 faces

#
# object COL_3
#

v  2.4587 0.2500 -0.0625
v  2.4587 3.2500 -0.0625
v  1.1752 0.2500 2.1606
v  1.1752 3.2500 2.1606
v  2.5670 0.2500 -0.0000
v  2.5670 3.2500 -0.0000
v  1.2835 0.2500 2.2231
v  1.2835 3.2500 2.2231
# 8 vertices

vn -0.8660 0.0000 -0.5000
vn -0.8660 0.0000 -0.5000
vn -0.8660 0.0000 -0.5000
vn -0.8660 0.0000 -0.5000
vn -0.8660 0.0000 -0.5000
vn -0.8660 0.0000 -0.5000
vn 0.5000 0.0000 -0.8660
vn 0.5000 0.0000 -0.8660
vn 0.5000 0.0000 -0.8660
vn 0.5000 0.0000 -0.8660
vn 0.5000 0.0000 -0.8660
vn 0.5000 0.0000 -0.8660
vn 0.0000 -1.0000 -0.0000
vn 0.0000 -1.0000 -0.0000
vn 0.0000 -1.0000 -0.0000
vn 0.0000 -1.0000 -0.0000
vn 0.0000 -1.0000 -0.0000
vn 0.0000 -1.0000 -0.0000
vn -0.5000 0.0000 0.8660
vn -0.5000 0.0000 0.8660
vn -0.5000 0.0000 0.8660
vn -0.5000 0.0000 0.8660
vn -0.5000 0.0000 0.8660
vn -0.5000 0.0000 0.8660
vn 0.0000 1.0000 -0.0000
vn 0.0000 1.0000 -0.0000
vn 0.0000 1.0000 -0.0000
vn 0.0000 1.0000 -0.0000
vn 0.0000 1.0000 -0.0000
vn 0.0000 1.0000 -0.0000
# 30 vertex normals

g COL_3
usemtl Material__25
f 37//157 38//158 36//159 
f 36//160 35//161 37//162 
f 40//163 39//164 35//165 
f 35//166 36//167 40//168 
f 39//169 41//170 37//171 
f 37//172 35//173 39//174 
f 41//175 42//176 38//177 
f 38//178 37//179 41//180 
f 42//181 40//182 36//183 
f 36//184 38//185 42//186 
# 10 faces

#
# object COL_4
#

v  1.2835 0.2500 2.0981
v  1.2835 3.2500 2.0981
v  -1.2835 0.2500 2.0981
v  -1.2835 3.2500 2.0981
v  1.2835 0.2500 2.2231
v  1.2835 3.2500 2.2231
v  -1.2835 0.2500 2.2231
v  -1.2835 3.2500 2.2231
# 8 vertices

vn 0.0000 0.0000 -1.0000
vn 0.0000 0.0000 -1.0000
vn 0.0000 0.0000 -1.0000
vn 0.0000 0.0000 -1.0000
vn 0.0000 0.0000 -1.0000
vn 0.0000 0.0000 -1.0000
vn 1.0000 0.0000 -0.0000
vn 1.0000 0.0000 -0.0000
vn 1.0000 0.0000 -0.0000
vn 1.0000 0.0000 -0.0000
vn 1.0000 0.0000 -0.0000
vn 1.0000 0.0000 -0.0000
vn 0.0000 -1.0000 -0.0000
vn 0.0000 -1.0000 -0.0000
vn 0.0000 -1.0000 -0.0000
vn 0.0000 -1.0000 -0.0000
vn 0.0000 -1.0000 -0.0000
vn 0.0000 -1.0000 -0.0000
vn -1.0000 0.0000 -0.0000
vn -1.0000 0.0000 -0.0000
vn -1.0000 0.0000 -0.0000
vn -1.0000 0.0000 -0.0000
vn -1.0000 0.0000 -0.0000
vn -1.0000 0.0000 -0.0000
vn 0.0000 1.0000 -0.0000
vn 0.0000 1.0000 -0.0000
vn 0.0000 1.0000 -0.0000
vn 0.0000 1.0000 -0.0000
vn 0.0000 1.0000 -0.0000
vn 0.0000 1.0000 -0.0000
# 30 vertex normals

g COL_4
usemtl Material__25
f 45//187 46//188 44//189 
f 44//190 43//191 45//192 
f 48//193 47//194 43//195 
f 43//196 44//197 48//198 
f 47//199 49//200 45//201 
f 45//202 43//203 47//204 
f 49//205 50//206 46//207 
f 46//208 45//209 49//210 
f 50//211 48//212 44//213 
f 44//214 46//215 50//216 
# 10 faces

#
# object COL_5
#

v  -1.1752 0.2500 2.1606
v  -1.1752 3.2500 2.1606
v  -2.4587 0.2500 -0.0625
v  -2.4587 3.2500 -0.0625
v  -1.2835 0.2500 2.2231
v  -1.2835 3.2500 2.2231
v  -2.5670 0.2500 0.0000
v  -2.5670 3.2500 0.0000
# 8 vertices

vn 0.8660 0.0000 -0.5000
vn 0.8660 0.0000 -0.5000
vn 0.8660 0.0000 -0.5000
vn 0.8660 0.0000 -0.5000
vn 0.8660 0.0000 -0.5000
vn 0.8660 0.0000 -0.5000
vn 0.5000 0.0000 0.8660
vn 0.5000 0.0000 0.8660
vn 0.5000 0.0000 0.8660
vn 0.5000 0.0000 0.8660
vn 0.5000 0.0000 0.8660
vn 0.5000 0.0000 0.8660
vn 0.0000 -1.0000 -0.0000
vn 0.0000 -1.0000 -0.0000
vn 0.0000 -1.0000 -0.0000
vn 0.0000 -1.0000 -0.0000
vn 0.0000 -1.0000 -0.0000
vn 0.0000 -1.0000 -0.0000
vn -0.5000 0.0000 -0.8660
vn -0.5000 0.0000 -0.8660
vn -0.5000 0.0000 -0.8660
vn -0.5000 0.0000 -0.8660
vn -0.5000 0.0000 -0.8660
vn -0.5000 0.0000 -0.8660
vn 0.0000 1.0000 -0.0000
vn 0.0000 1.0000 -0.0000
vn 0.0000 1.0000 -0.0000
vn 0.0000 1.0000 -0.0000
vn 0.0000 1.0000 -0.0000
vn 0.0000 1.0000 -0.0000
# 30 vertex normals

g COL_5
usemtl Material__25
f 53//217 54//218 52//219 
f 52//220 51//221 53//222 
f 56//223 55//224 51//225 
f 51//226 52//227 56//228 
f 55//229 57//230 53//231 
f 53//232 51//233 55//234 
f 57//235 58//236 54//237 
f 54//238 53//239 57//240 
f 58//241 56//242 52//243 
f 52//244 54//245 58//246 
# 10 faces

#
# object COL_6
#

v  -1.1752 0.2500 -2.1606
v  -2.4587 0.2500 0.0625
v  -1.1752 3.2500 -2.1606
v  -2.4587 3.2500 0.0625
v  -1.2835 0.2500 -2.2231
v  -2.5670 0.2500 0.0000
v  -1.2835 3.2500 -2.2231
v  -2.5670 3.2500 0.0000
# 8 vertices

vn 0.8660 0.0000 0.5000
vn 0.8660 0.0000 0.5000
vn 0.8660 0.0000 0.5000
vn 0.8660 0.0000 0.5000
vn 0.8660 0.0000 0.5000
vn 0.8660 0.0000 0.5000
vn -0.5000 0.0000 0.8660
vn -0.5000 0.0000 0.8660
vn -0.5000 0.0000 0.8660
vn -0.5000 0.0000 0.8660
vn -0.5000 0.0000 0.8660
vn -0.5000 0.0000 0.8660
vn 0.0000 -1.0000 -0.0000
vn 0.0000 -1.0000 -0.0000
vn 0.0000 -1.0000 -0.0000
vn 0.0000 -1.0000 -0.0000
vn 0.0000 -1.0000 -0.0000
vn 0.0000 -1.0000 -0.0000
vn 0.5000 0.0000 -0.8660
vn 0.5000 0.0000 -0.8660
vn 0.5000 0.0000 -0.8660
vn 0.5000 0.0000 -0.8660
vn 0.5000 0.0000 -0.8660
vn 0.5000 0.0000 -0.8660
vn 0.0000 1.0000 -0.0000
vn 0.0000 1.0000 -0.0000
vn 0.0000 1.0000 -0.0000
vn 0.0000 1.0000 -0.0000
vn 0.0000 1.0000 -0.0000
vn 0.0000 1.0000 -0.0000
# 30 vertex normals

g COL_6
usemtl Material__25
f 59//247 61//248 62//249 
f 62//250 60//251 59//252 
f 66//253 64//254 60//255 
f 60//256 62//257 66//258 
f 64//259 63//260 59//261 
f 59//262 60//263 64//264 
f 63//265 65//266 61//267 
f 61//268 59//269 63//270 
f 65//271 66//272 62//273 
f 62//274 61//275 65//276 
# 10 faces

