# 3ds Max Wavefront OBJ Exporter v0.97b - (c)2007 guruware
# File Created: 06.04.2020 14:10:56

#
# object Console_S
#

v  -13.000000 1.248700 4.495149
v  13.000000 3.748700 8.495148
v  -13.000000 1.248700 -0.504852
v  -13.000000 0.248700 -8.504852
v  13.000000 3.248700 4.495149
v  -13.000000 1.748700 4.495149
v  13.000000 1.248700 -0.504852
v  -13.250000 3.925500 8.671947
v  13.250000 3.925500 8.671947
v  12.750000 2.907200 4.301849
v  13.250000 -0.000100 -0.480251
v  12.750000 -0.000100 -0.480251
v  -13.000000 3.248700 4.495149
v  13.000000 0.248700 -8.504852
v  -12.750000 1.995500 -0.544853
v  -12.750000 0.000000 4.550049
v  -12.750000 -0.000050 8.671924
v  13.250000 -0.000050 8.672027
v  13.250000 1.995500 -0.544853
v  12.750000 1.995500 -0.544853
v  -13.000000 3.748700 4.495149
v  13.250000 2.907200 4.301849
v  13.000000 3.248700 8.495148
v  -13.000000 0.748700 -0.504852
v  13.000000 1.748700 4.495149
v  13.000000 1.248700 4.495149
v  13.000000 1.748700 -0.504852
v  13.000000 0.748700 -0.504852
v  -12.750000 2.907200 4.301849
v  -13.250000 3.925500 4.318348
v  -13.250000 0.000000 4.550049
v  -13.250000 -0.000100 -0.480251
v  -13.250000 -0.000050 -8.681652
v  -13.250000 1.995500 -0.544853
v  13.250000 0.000000 4.550049
v  12.750000 0.000000 4.549946
v  13.250000 -0.000050 -8.681652
v  12.750000 0.914100 -8.692253
v  -13.000000 1.748700 -0.504852
v  13.000000 3.748700 4.495149
v  -13.000000 0.748700 -8.504852
v  13.000000 0.248700 -0.504852
v  -13.000000 0.248700 -0.504852
v  -13.250000 0.914100 -8.692253
v  -12.750000 0.914100 -8.692253
v  -12.750000 -0.000100 -0.480251
v  -12.750000 3.925500 8.671947
v  12.750000 3.925500 8.671947
v  12.750000 -0.000050 8.671923
v  13.250000 0.914100 -8.692253
v  12.750000 -0.000050 -8.681652
v  -13.000000 3.248700 8.495148
v  -13.000000 3.748700 8.495148
v  13.000000 0.748700 -8.504852
v  -13.250000 2.907200 4.301849
v  -13.250000 -0.000050 8.672027
v  -12.750000 3.925500 4.318348
v  -12.750000 -0.000050 -8.681652
v  13.250000 3.925500 4.318348
v  12.750000 3.925500 4.318348
v  -13.000000 1.248700 4.495149
v  -13.000000 1.248700 4.495149
v  13.000000 3.748700 8.495148
v  13.000000 3.748700 8.495148
v  -13.000000 1.248700 -0.504852
v  -13.000000 1.248700 -0.504852
v  -13.000000 0.248700 -8.504852
v  -13.000000 0.248700 -8.504852
v  13.000000 3.248700 4.495149
v  13.000000 3.248700 4.495149
v  -13.000000 1.748700 4.495149
v  -13.000000 1.748700 4.495149
v  13.000000 1.248700 -0.504852
v  13.000000 1.248700 -0.504852
v  -13.250000 3.925500 8.671947
v  -13.250000 3.925500 8.671947
v  13.250000 3.925500 8.671947
v  13.250000 3.925500 8.671947
v  12.750000 2.907200 4.301849
v  12.750000 2.907200 4.301849
v  13.250000 -0.000100 -0.480251
v  12.750000 -0.000100 -0.480251
v  -13.000000 3.248700 4.495149
v  -13.000000 3.248700 4.495149
v  13.000000 0.248700 -8.504852
v  13.000000 0.248700 -8.504852
v  -12.750000 1.995500 -0.544853
v  -12.750000 0.000000 4.550049
v  -12.750000 -0.000050 8.671924
v  -12.750000 -0.000050 8.671924
v  13.250000 -0.000050 8.672027
v  13.250000 -0.000050 8.672027
v  13.250000 1.995500 -0.544853
v  12.750000 1.995500 -0.544853
v  -13.000000 3.748700 4.495149
v  -13.000000 3.748700 4.495149
v  13.250000 2.907200 4.301849
v  13.250000 2.907200 4.301849
v  13.000000 3.248700 8.495148
v  13.000000 3.248700 8.495148
v  -13.000000 0.748700 -0.504852
v  -13.000000 0.748700 -0.504852
v  13.000000 1.748700 4.495149
v  13.000000 1.748700 4.495149
v  13.000000 1.248700 4.495149
v  13.000000 1.248700 4.495149
v  13.000000 1.748700 -0.504852
v  13.000000 1.748700 -0.504852
v  13.000000 0.748700 -0.504852
v  13.000000 0.748700 -0.504852
v  -12.750000 2.907200 4.301849
v  -12.750000 2.907200 4.301849
v  -13.250000 3.925500 4.318348
v  -13.250000 3.925500 4.318348
v  -13.250000 0.000000 4.550049
v  -13.250000 -0.000100 -0.480251
v  -13.250000 -0.000050 -8.681652
v  -13.250000 -0.000050 -8.681652
v  -13.250000 1.995500 -0.544853
v  13.250000 0.000000 4.550049
v  12.750000 0.000000 4.549946
v  13.250000 -0.000050 -8.681652
v  13.250000 -0.000050 -8.681652
v  12.750000 0.914100 -8.692253
v  12.750000 0.914100 -8.692253
v  -13.000000 1.748700 -0.504852
v  -13.000000 1.748700 -0.504852
v  13.000000 3.748700 4.495149
v  13.000000 3.748700 4.495149
v  -13.000000 0.748700 -8.504852
v  -13.000000 0.748700 -8.504852
v  13.000000 0.248700 -0.504852
v  13.000000 0.248700 -0.504852
v  -13.000000 0.248700 -0.504852
v  -13.000000 0.248700 -0.504852
v  -13.250000 0.914100 -8.692253
v  -13.250000 0.914100 -8.692253
v  -12.750000 0.914100 -8.692253
v  -12.750000 0.914100 -8.692253
v  -12.750000 -0.000100 -0.480251
v  -12.750000 3.925500 8.671947
v  -12.750000 3.925500 8.671947
v  12.750000 3.925500 8.671947
v  12.750000 3.925500 8.671947
v  12.750000 -0.000050 8.671923
v  12.750000 -0.000050 8.671923
v  13.250000 0.914100 -8.692253
v  13.250000 0.914100 -8.692253
v  12.750000 -0.000050 -8.681652
v  12.750000 -0.000050 -8.681652
v  -13.000000 3.248700 8.495148
v  -13.000000 3.248700 8.495148
v  -13.000000 3.748700 8.495148
v  -13.000000 3.748700 8.495148
v  13.000000 0.748700 -8.504852
v  13.000000 0.748700 -8.504852
v  -13.250000 2.907200 4.301849
v  -13.250000 2.907200 4.301849
v  -13.250000 -0.000050 8.672027
v  -13.250000 -0.000050 8.672027
v  -12.750000 3.925500 4.318348
v  -12.750000 3.925500 4.318348
v  -12.750000 -0.000050 -8.681652
v  -12.750000 -0.000050 -8.681652
v  13.250000 3.925500 4.318348
v  13.250000 3.925500 4.318348
v  12.750000 3.925500 4.318348
v  12.750000 3.925500 4.318348
# 168 vertices

vn 0.000000 1.000000 -0.000000
vn 0.000000 1.000000 -0.000000
vn 0.000000 1.000000 -0.000000
vn 0.000000 1.000000 -0.000000
vn 0.000000 1.000000 -0.000000
vn 0.000000 1.000000 -0.000000
vn 0.000000 0.000000 1.000000
vn 0.000000 0.000000 1.000000
vn 0.000000 0.000000 1.000000
vn 0.000000 0.000000 1.000000
vn 0.000000 0.000000 1.000000
vn 0.000000 0.000000 1.000000
vn 0.000000 -1.000000 -0.000000
vn 0.000000 -1.000000 -0.000000
vn 0.000000 -1.000000 -0.000000
vn 0.000000 -1.000000 -0.000000
vn 0.000000 -1.000000 -0.000000
vn 0.000000 -1.000000 -0.000000
vn 0.000000 0.000000 -1.000000
vn 0.000000 0.000000 -1.000000
vn 0.000000 0.000000 -1.000000
vn 0.000000 0.000000 -1.000000
vn 0.000000 0.000000 -1.000000
vn 0.000000 0.000000 -1.000000
vn 1.000000 0.000000 -0.000000
vn 1.000000 0.000000 -0.000000
vn 1.000000 0.000000 -0.000000
vn 1.000000 0.000000 -0.000000
vn 1.000000 0.000000 -0.000000
vn 1.000000 0.000000 -0.000000
vn -1.000000 0.000000 -0.000000
vn -1.000000 0.000000 -0.000000
vn -1.000000 0.000000 -0.000000
vn -1.000000 0.000000 -0.000000
vn -1.000000 0.000000 -0.000000
vn -1.000000 0.000000 -0.000000
vn 0.000000 1.000000 -0.000000
vn 0.000000 1.000000 -0.000000
vn 0.000000 1.000000 -0.000000
vn 0.000000 1.000000 -0.000000
vn 0.000000 1.000000 -0.000000
vn 0.000000 1.000000 -0.000000
vn 0.000000 0.000000 1.000000
vn 0.000000 0.000000 1.000000
vn 0.000000 0.000000 1.000000
vn 0.000000 0.000000 1.000000
vn 0.000000 0.000000 1.000000
vn 0.000000 0.000000 1.000000
vn 0.000000 -1.000000 -0.000000
vn 0.000000 -1.000000 -0.000000
vn 0.000000 -1.000000 -0.000000
vn 0.000000 -1.000000 -0.000000
vn 0.000000 -1.000000 -0.000000
vn 0.000000 -1.000000 -0.000000
vn 0.000000 0.000000 -1.000000
vn 0.000000 0.000000 -1.000000
vn 0.000000 0.000000 -1.000000
vn 0.000000 0.000000 -1.000000
vn 0.000000 0.000000 -1.000000
vn 0.000000 0.000000 -1.000000
vn 1.000000 0.000000 -0.000000
vn 1.000000 0.000000 -0.000000
vn 1.000000 0.000000 -0.000000
vn 1.000000 0.000000 -0.000000
vn 1.000000 0.000000 -0.000000
vn 1.000000 0.000000 -0.000000
vn -1.000000 0.000000 -0.000000
vn -1.000000 0.000000 -0.000000
vn -1.000000 0.000000 -0.000000
vn -1.000000 0.000000 -0.000000
vn -1.000000 0.000000 -0.000000
vn -1.000000 0.000000 -0.000000
vn 0.000000 1.000000 -0.000000
vn 0.000000 1.000000 -0.000000
vn 0.000000 1.000000 -0.000000
vn 0.000000 1.000000 -0.000000
vn 0.000000 1.000000 -0.000000
vn 0.000000 1.000000 -0.000000
vn 0.000000 0.000000 1.000000
vn 0.000000 0.000000 1.000000
vn 0.000000 0.000000 1.000000
vn 0.000000 0.000000 1.000000
vn 0.000000 0.000000 1.000000
vn 0.000000 0.000000 1.000000
vn 0.000000 -1.000000 -0.000000
vn 0.000000 -1.000000 -0.000000
vn 0.000000 -1.000000 -0.000000
vn 0.000000 -1.000000 -0.000000
vn 0.000000 -1.000000 -0.000000
vn 0.000000 -1.000000 -0.000000
vn 0.000000 0.000000 -1.000000
vn 0.000000 0.000000 -1.000000
vn 0.000000 0.000000 -1.000000
vn 0.000000 0.000000 -1.000000
vn 0.000000 0.000000 -1.000000
vn 0.000000 0.000000 -1.000000
vn 1.000000 0.000000 -0.000000
vn 1.000000 0.000000 -0.000000
vn 1.000000 0.000000 -0.000000
vn 1.000000 0.000000 -0.000000
vn 1.000000 0.000000 -0.000000
vn 1.000000 0.000000 -0.000000
vn -1.000000 0.000000 -0.000000
vn -1.000000 0.000000 -0.000000
vn -1.000000 0.000000 -0.000000
vn -1.000000 0.000000 -0.000000
vn -1.000000 0.000000 -0.000000
vn -1.000000 0.000000 -0.000000
vn 0.000000 1.000000 -0.000000
vn 0.000000 1.000000 -0.000000
vn 0.000000 1.000000 -0.000000
vn 0.000000 1.000000 -0.000000
vn 0.000000 1.000000 -0.000000
vn 0.000000 1.000000 -0.000000
vn 0.000000 0.016200 -0.999869
vn 0.000000 0.016200 -0.999869
vn 0.000000 0.016200 -0.999869
vn 0.000000 0.016200 -0.999869
vn 0.000000 0.016200 -0.999869
vn 0.000000 0.016200 -0.999869
vn 0.000017 -0.000004 1.000000
vn 0.000206 0.000020 1.000000
vn 0.000189 0.000018 1.000000
vn 0.000189 0.000018 1.000000
vn 0.000000 -0.000006 1.000000
vn 0.000017 -0.000004 1.000000
vn -0.000000 -1.000000 -0.000012
vn 0.000000 -1.000000 0.000004
vn -0.000000 -1.000000 0.000004
vn -0.000000 -1.000000 0.000004
vn -0.000000 -1.000000 -0.000012
vn -0.000000 -1.000000 -0.000012
vn 0.000000 -0.011596 -0.999933
vn 0.000000 -0.011596 -0.999933
vn 0.000000 -0.011596 -0.999933
vn 0.000000 -0.011596 -0.999933
vn 0.000000 -0.011596 -0.999933
vn 0.000000 -0.011596 -0.999933
vn 0.000000 -1.000000 0.000007
vn 0.000000 -1.000000 -0.000006
vn 0.000000 -1.000000 -0.000006
vn 0.000000 -1.000000 -0.000006
vn 0.000000 -1.000000 0.000007
vn 0.000000 -1.000000 0.000007
vn 0.000000 0.991306 -0.131576
vn 0.000000 0.987395 -0.158278
vn 0.000000 0.987395 -0.158278
vn 0.000000 0.987395 -0.158278
vn 0.000000 0.991306 -0.131576
vn 0.000000 0.991306 -0.131576
vn 0.000000 -1.000000 0.000004
vn 0.000000 -1.000000 0.000007
vn 0.000000 -1.000000 0.000007
vn 0.000000 -1.000000 0.000007
vn -0.000000 -1.000000 0.000004
vn 0.000000 -1.000000 0.000004
vn 0.000000 0.987395 -0.158278
vn 0.000000 0.982764 -0.184865
vn 0.000000 0.982764 -0.184865
vn 0.000000 0.982764 -0.184865
vn 0.000000 0.987395 -0.158278
vn 0.000000 0.987395 -0.158278
vn -1.000000 0.000000 -0.000000
vn -1.000000 0.000000 -0.000000
vn -1.000000 0.000000 -0.000000
vn -1.000000 0.000000 -0.000000
vn -1.000000 0.000000 -0.000000
vn -1.000000 0.000000 -0.000000
vn -1.000000 0.000000 -0.000000
vn -1.000000 0.000000 -0.000000
vn -1.000000 0.000000 -0.000000
vn -1.000000 0.000000 -0.000000
vn -1.000000 0.000000 -0.000000
vn -1.000000 0.000000 -0.000000
vn -1.000000 0.000000 -0.000000
vn -1.000000 0.000000 -0.000000
vn -1.000000 0.000000 -0.000000
vn -1.000000 0.000000 -0.000000
vn -1.000000 0.000000 -0.000000
vn -1.000000 0.000000 -0.000000
vn -1.000000 0.000000 -0.000000
vn -1.000000 0.000000 -0.000000
vn -1.000000 0.000000 -0.000000
vn 1.000000 0.000000 -0.000000
vn 1.000000 0.000000 -0.000000
vn 1.000000 0.000000 -0.000000
vn 1.000000 0.000000 -0.000000
vn 1.000000 0.000000 -0.000000
vn 1.000000 0.000000 -0.000000
vn 1.000000 0.000000 -0.000000
vn 1.000000 0.000000 -0.000000
vn 1.000000 0.000000 -0.000000
vn 1.000000 0.000000 -0.000000
vn 1.000000 0.000000 -0.000000
vn 1.000000 0.000000 -0.000000
vn 1.000000 0.000000 -0.000000
vn 1.000000 0.000000 -0.000000
vn 1.000000 0.000000 -0.000000
vn 1.000000 0.000000 -0.000000
vn 1.000000 0.000000 -0.000000
vn 1.000000 0.000000 -0.000000
vn 1.000000 0.000000 -0.000000
vn 1.000000 0.000000 -0.000000
vn 1.000000 0.000000 -0.000000
vn 0.000000 1.000000 -0.000000
vn 0.000000 1.000000 -0.000000
vn 0.000000 1.000000 -0.000000
vn 0.000000 1.000000 -0.000000
vn 0.000000 1.000000 -0.000000
vn 0.000000 1.000000 -0.000000
vn 0.000000 0.016200 -0.999869
vn 0.000000 0.016200 -0.999869
vn 0.000000 0.016200 -0.999869
vn 0.000000 0.016200 -0.999869
vn 0.000000 0.016200 -0.999869
vn 0.000000 0.016200 -0.999869
vn -0.000017 -0.000004 1.000000
vn 0.000000 -0.000006 1.000000
vn -0.000191 0.000018 1.000000
vn -0.000191 0.000018 1.000000
vn -0.000208 0.000020 1.000000
vn -0.000017 -0.000004 1.000000
vn 0.000000 -1.000000 -0.000012
vn 0.000000 -1.000000 -0.000012
vn -0.000000 -1.000000 0.000004
vn -0.000000 -1.000000 0.000004
vn -0.000000 -1.000000 0.000004
vn 0.000000 -1.000000 -0.000012
vn 0.000000 -0.011596 -0.999933
vn 0.000000 -0.011596 -0.999933
vn 0.000000 -0.011596 -0.999933
vn 0.000000 -0.011596 -0.999933
vn 0.000000 -0.011596 -0.999933
vn 0.000000 -0.011596 -0.999933
vn 0.000000 -1.000000 0.000007
vn -0.000000 -1.000000 0.000007
vn 0.000000 -1.000000 -0.000006
vn 0.000000 -1.000000 -0.000006
vn 0.000000 -1.000000 -0.000006
vn 0.000000 -1.000000 0.000007
vn 0.000000 0.991306 -0.131576
vn 0.000000 0.991306 -0.131576
vn 0.000000 0.987395 -0.158278
vn 0.000000 0.987395 -0.158278
vn 0.000000 0.987395 -0.158278
vn 0.000000 0.991306 -0.131576
vn -0.000000 -1.000000 0.000004
vn -0.000000 -1.000000 0.000004
vn -0.000000 -1.000000 0.000007
vn -0.000000 -1.000000 0.000007
vn 0.000000 -1.000000 0.000007
vn -0.000000 -1.000000 0.000004
vn 0.000000 0.987395 -0.158278
vn 0.000000 0.987395 -0.158278
vn 0.000000 0.982764 -0.184865
vn 0.000000 0.982764 -0.184865
vn 0.000000 0.982764 -0.184865
vn 0.000000 0.987395 -0.158278
vn 1.000000 0.000000 -0.000000
vn 1.000000 0.000000 -0.000000
vn 1.000000 0.000000 -0.000000
vn 1.000000 0.000000 -0.000000
vn 1.000000 0.000000 -0.000000
vn 1.000000 0.000000 -0.000000
vn 1.000000 0.000000 -0.000000
vn 1.000000 0.000000 -0.000000
vn 1.000000 0.000000 -0.000000
vn 1.000000 0.000000 -0.000000
vn 1.000000 0.000000 -0.000000
vn 1.000000 0.000000 -0.000000
vn 1.000000 0.000000 -0.000000
vn 1.000000 0.000000 -0.000000
vn 1.000000 0.000000 -0.000000
vn 1.000000 0.000000 -0.000000
vn 1.000000 0.000000 -0.000000
vn 1.000000 0.000000 -0.000000
vn 1.000000 0.000000 -0.000000
vn 1.000000 0.000000 -0.000000
vn 1.000000 0.000000 -0.000000
vn -1.000000 0.000000 -0.000000
vn -1.000000 0.000000 -0.000000
vn -1.000000 0.000000 -0.000000
vn -1.000000 0.000000 -0.000000
vn -1.000000 0.000000 -0.000000
vn -1.000000 0.000000 -0.000000
vn -1.000000 0.000000 -0.000000
vn -1.000000 0.000000 -0.000000
vn -1.000000 0.000000 -0.000000
vn -1.000000 0.000000 -0.000000
vn -1.000000 0.000000 -0.000000
vn -1.000000 0.000000 -0.000000
vn -1.000000 0.000000 -0.000000
vn -1.000000 0.000000 -0.000000
vn -1.000000 0.000000 -0.000000
vn -1.000000 0.000000 -0.000000
vn -1.000000 0.000000 -0.000000
vn -1.000000 0.000000 -0.000000
vn -1.000000 0.000000 -0.000000
vn -1.000000 0.000000 -0.000000
vn -1.000000 0.000000 -0.000000
# 300 vertex normals

vt 0.177500 0.950100 0.000000
vt 0.177500 0.549900 0.000000
vt 0.249000 0.549900 0.000000
vt 0.249000 0.950100 0.000000
vt 0.249000 0.957200 0.000000
vt 0.249000 0.542800 0.000000
vt 0.292300 0.950100 0.000000
vt 0.292300 0.549900 0.000000
vt 0.406600 0.549900 0.000000
vt 0.406600 0.950100 0.000000
vt 0.177500 0.542800 0.000000
vt 0.177500 0.957200 0.000000
vt 0.069300 0.921500 0.000000
vt 0.069300 0.578500 0.000000
vt 0.126500 0.578500 0.000000
vt 0.126500 0.921500 0.000000
vt 0.406600 0.957200 0.000000
vt 0.406600 0.542800 0.000000
vt 0.292300 0.542800 0.000000
vt 0.292300 0.957200 0.000000
vt 0.126500 0.928600 0.000000
vt 0.126500 0.571400 0.000000
vt 0.069300 0.571400 0.000000
vt 0.069300 0.928600 0.000000
vt 0.329100 0.118700 0.000000
vt 0.428100 0.118700 0.000000
vt 0.428100 0.118700 0.000000
vt 0.329100 0.118700 0.000000
vt 0.328700 0.101500 0.000000
vt 0.328700 0.101500 0.000000
vt 0.428600 0.087700 0.000000
vt 0.428600 0.087700 0.000000
vt 0.334400 0.069200 0.000000
vt 0.334400 0.069200 0.000000
vt 0.033500 0.053500 0.000000
vt 0.033200 0.067700 0.000000
vt 0.033200 0.067700 0.000000
vt 0.033500 0.053500 0.000000
vt 0.220000 0.052200 0.000000
vt 0.220000 0.052200 0.000000
vt 0.218500 0.086000 0.000000
vt 0.218500 0.086000 0.000000
vt 0.329100 0.118700 0.000000
vt 0.329100 0.118700 0.000000
vt 0.428100 0.118700 0.000000
vt 0.428100 0.118700 0.000000
vt 0.328700 0.101500 0.000000
vt 0.328700 0.101500 0.000000
vt 0.428600 0.087700 0.000000
vt 0.428600 0.087700 0.000000
vt 0.334400 0.069200 0.000000
vt 0.334400 0.069200 0.000000
vt 0.033500 0.053500 0.000000
vt 0.033500 0.053500 0.000000
vt 0.033200 0.067700 0.000000
vt 0.033200 0.067700 0.000000
vt 0.220000 0.052200 0.000000
vt 0.220000 0.052200 0.000000
vt 0.218500 0.086000 0.000000
vt 0.218500 0.086000 0.000000
vt 0.126500 0.921500 0.000000
vt 0.126500 0.578500 0.000000
vt 0.177500 0.549900 0.000000
vt 0.249000 0.950100 0.000000
vt 0.069300 0.578500 0.000000
vt 0.126500 0.578500 0.000000
vt 0.126500 0.921500 0.000000
vt 0.069300 0.921500 0.000000
vt 0.292300 0.950100 0.000000
vt 0.406600 0.549900 0.000000
vt 0.069300 0.921500 0.000000
vt 0.292300 0.549900 0.000000
vt 0.177500 0.950100 0.000000
vt 0.292300 0.549900 0.000000
vt 0.292300 0.950100 0.000000
vt 0.069300 0.578500 0.000000
vt 0.406600 0.549900 0.000000
vt 0.249000 0.549900 0.000000
vt 0.249000 0.950100 0.000000
vt 0.249000 0.549900 0.000000
vt 0.177500 0.950100 0.000000
vt 0.177500 0.549900 0.000000
vt 0.406600 0.950100 0.000000
vt 0.406600 0.950100 0.000000
vt 0.328700 0.101500 0.000000
vt 0.328700 0.101500 0.000000
vt 0.329100 0.118700 0.000000
vt 0.428100 0.118700 0.000000
vt 0.428600 0.087700 0.000000
vt 0.334400 0.069200 0.000000
vt 0.220000 0.052200 0.000000
vt 0.033500 0.053500 0.000000
vt 0.033200 0.067700 0.000000
vt 0.218500 0.086000 0.000000
vt 0.329100 0.118700 0.000000
vt 0.218500 0.086000 0.000000
vt 0.033200 0.067700 0.000000
vt 0.033500 0.053500 0.000000
vt 0.220000 0.052200 0.000000
vt 0.334400 0.069200 0.000000
vt 0.428600 0.087700 0.000000
vt 0.428100 0.118700 0.000000
vt 0.329100 0.118700 0.000000
vt 0.428100 0.118700 0.000000
vt 0.428100 0.118700 0.000000
vt 0.329100 0.118700 0.000000
vt 0.328700 0.101500 0.000000
vt 0.328700 0.101500 0.000000
vt 0.428600 0.087700 0.000000
vt 0.428600 0.087700 0.000000
vt 0.334400 0.069200 0.000000
vt 0.334400 0.069200 0.000000
vt 0.033500 0.053500 0.000000
vt 0.033200 0.067700 0.000000
vt 0.033200 0.067700 0.000000
vt 0.033500 0.053500 0.000000
vt 0.220000 0.052200 0.000000
vt 0.220000 0.052200 0.000000
vt 0.218500 0.086000 0.000000
vt 0.218500 0.086000 0.000000
vt 0.133600 0.578500 0.000000
vt 0.133600 0.921500 0.000000
vt 0.177500 0.549900 0.000000
vt 0.256100 0.549900 0.000000
vt 0.069300 0.578500 0.000000
vt 0.126500 0.578500 0.000000
vt 0.126500 0.921500 0.000000
vt 0.062100 0.578500 0.000000
vt 0.292300 0.950100 0.000000
vt 0.406600 0.549900 0.000000
vt 0.069300 0.921500 0.000000
vt 0.292300 0.549900 0.000000
vt 0.170400 0.549900 0.000000
vt 0.285200 0.950100 0.000000
vt 0.285200 0.549900 0.000000
vt 0.062100 0.921500 0.000000
vt 0.413800 0.950100 0.000000
vt 0.249000 0.549900 0.000000
vt 0.249000 0.950100 0.000000
vt 0.256100 0.950100 0.000000
vt 0.177500 0.950100 0.000000
vt 0.170400 0.950100 0.000000
vt 0.406600 0.950100 0.000000
vt 0.413800 0.549900 0.000000
vt 0.328700 0.101500 0.000000
vt 0.328700 0.101500 0.000000
vt 0.329100 0.118700 0.000000
vt 0.428100 0.118700 0.000000
vt 0.428600 0.087700 0.000000
vt 0.033500 0.053500 0.000000
vt 0.033200 0.067700 0.000000
vt 0.329100 0.118700 0.000000
vt 0.033200 0.067700 0.000000
vt 0.033500 0.053500 0.000000
vt 0.428600 0.087700 0.000000
vt 0.428100 0.118700 0.000000
vt 0.329100 0.118700 0.000000
vt 0.428100 0.118700 0.000000
vt 0.428100 0.118700 0.000000
vt 0.329100 0.118700 0.000000
vt 0.328700 0.101500 0.000000
vt 0.328700 0.101500 0.000000
vt 0.428600 0.087700 0.000000
vt 0.428600 0.087700 0.000000
vt 0.033500 0.053500 0.000000
vt 0.033200 0.067700 0.000000
vt 0.033200 0.067700 0.000000
vt 0.033500 0.053500 0.000000
# 168 texture coords

o Console_S
g Console_S
f 104/79/1 107/81/2 126/63/3 
f 126/63/4 71/78/5 104/79/6 
f 61/124/7 106/140/8 25/139/9 
f 25/139/10 6/138/11 61/124/12 
f 74/82/13 26/80/14 1/64/15 
f 1/64/16 66/73/17 74/82/18 
f 127/123/19 27/141/20 7/142/21 
f 7/142/22 65/133/23 127/123/24 
f 103/4/25 105/5/26 73/12/27 
f 73/12/28 108/1/29 103/4/30 
f 3/11/31 62/6/32 72/3/33 
f 72/3/34 39/2/35 3/11/36 
f 110/83/37 155/69/38 130/72/39 
f 130/72/40 24/70/41 110/83/42 
f 134/144/43 132/137/44 28/143/45 
f 28/143/46 102/130/47 134/144/48 
f 86/74/49 133/77/50 43/84/51 
f 43/84/52 4/75/53 86/74/54 
f 54/129/55 14/134/56 68/135/57 
f 68/135/58 131/132/59 54/129/60 
f 109/10/61 42/17/62 85/20/63 
f 85/20/64 156/7/65 109/10/66 
f 67/19/67 135/18/68 101/9/69 
f 101/9/70 41/8/71 67/19/72 
f 63/67/73 129/71/74 95/65/75 
f 95/65/76 53/66/77 63/67/78 
f 151/121/79 23/122/80 64/127/81 
f 64/127/82 154/126/83 151/121/84 
f 70/76/85 99/62/86 52/61/87 
f 52/61/88 13/68/89 70/76/90 
f 96/125/91 128/131/92 5/136/93 
f 5/136/94 84/128/95 96/125/96 
f 2/16/97 100/21/98 69/24/99 
f 69/24/100 40/13/101 2/16/102 
f 83/23/103 152/22/104 153/15/105 
f 153/15/106 21/14/107 83/23/108 
f 30/87/109 76/88/110 142/102/111 
f 142/102/112 161/95/113 30/87/114 
f 158/145/115 113/147/116 57/152/117 
f 57/152/118 111/146/119 158/145/120 
f 75/148/121 160/149/122 89/155/123 
f 89/155/124 47/156/125 75/148/126 
f 159/89/127 115/90/128 16/100/129 
f 16/100/130 90/101/131 159/89/132 
f 117/150/133 137/151/134 138/153/135 
f 138/153/136 58/154/137 117/150/138 
f 116/91/139 118/92/140 164/98/141 
f 164/98/142 46/99/143 116/91/144 
f 136/93/145 119/94/146 87/96/147 
f 87/96/148 139/97/149 136/93/150 
f 115/90/151 116/91/152 46/99/153 
f 46/99/154 16/100/155 115/90/156 
f 119/94/157 55/85/158 29/86/159 
f 29/86/160 87/96/161 119/94/162 
f 157/29/163 56/31/164 8/26/165 
f 8/26/166 114/25/167 157/29/168 
f 157/29/169 31/33/170 56/31/171 
f 32/39/172 34/41/173 44/36/174 
f 44/36/175 33/35/176 32/39/177 
f 34/41/178 32/39/179 31/33/180 
f 31/33/181 157/29/182 34/41/183 
f 15/42/184 112/30/185 88/34/186 
f 88/34/187 140/40/188 15/42/189 
f 45/37/190 15/42/191 140/40/192 
f 140/40/193 163/38/194 45/37/195 
f 112/30/196 17/32/197 88/34/198 
f 141/27/199 17/32/200 112/30/201 
f 112/30/202 162/28/203 141/27/204 
f 166/103/205 167/106/206 48/105/207 
f 48/105/208 77/104/209 166/103/210 
f 22/161/211 79/162/212 168/160/213 
f 168/160/214 165/157/215 22/161/216 
f 78/158/217 144/159/218 145/164/219 
f 145/164/220 18/163/221 78/158/222 
f 91/109/223 49/110/224 36/112/225 
f 36/112/226 120/111/227 91/109/228 
f 122/165/229 149/168/230 124/167/231 
f 124/167/232 147/166/233 122/165/234 
f 81/117/235 82/118/236 150/116/237 
f 150/116/238 37/113/239 81/117/240 
f 148/114/241 38/115/242 20/120/243 
f 20/120/244 19/119/245 148/114/246 
f 120/111/247 36/112/248 82/118/249 
f 82/118/250 81/117/251 120/111/252 
f 19/119/253 20/120/254 80/108/255 
f 80/108/256 98/107/257 19/119/258 
f 97/47/259 59/43/260 9/46/261 
f 9/46/262 92/50/263 97/47/264 
f 97/47/265 92/50/266 35/52/267 
f 11/57/268 123/53/269 50/56/270 
f 50/56/271 93/60/272 11/57/273 
f 93/60/274 97/47/275 35/52/276 
f 35/52/277 11/57/278 93/60/279 
f 94/59/280 12/58/281 121/51/282 
f 121/51/283 10/48/284 94/59/285 
f 125/55/286 51/54/287 12/58/288 
f 12/58/289 94/59/290 125/55/291 
f 10/48/292 121/51/293 146/49/294 
f 143/45/295 60/44/296 10/48/297 
f 10/48/298 146/49/299 143/45/300 
# 100 faces

