# 3ds Max Wavefront OBJ Exporter v0.97b - (c)2007 guruware
# File Created: 06.04.2020 14:15:56

#
# object Plinth_S
#

v  -4.000000 0.000000 4.000000
v  4.000000 0.000000 4.000000
v  -4.000000 0.000000 -4.000000
v  4.000000 0.000000 -4.000000
v  -4.000000 -0.500000 4.000000
v  4.000000 -0.500000 4.000000
v  -4.000000 -0.500000 -4.000000
v  4.000000 -0.500000 -4.000000
v  -2.786465 -7.652393 -3.140018
v  -2.190939 -7.652393 -2.544493
v  -2.544494 -7.652393 -2.190941
v  -3.140020 -7.652393 -2.786466
v  -2.847136 0.261005 -3.200689
v  -3.200689 0.261005 -2.847136
v  -4.258238 0.261005 -4.611792
v  -4.611791 0.261005 -4.258238
v  -2.786468 -7.652392 3.140022
v  -2.190942 -7.652392 2.544496
v  -2.544495 -7.652392 2.190942
v  -3.140020 -7.652392 2.786468
v  -2.847136 0.261005 3.200691
v  -3.200688 0.261006 2.847137
v  -4.258240 0.261005 4.611794
v  -4.611793 0.261006 4.258240
v  2.786467 -7.652392 -3.140018
v  2.190943 -7.652392 -2.544493
v  2.544497 -7.652392 -2.190941
v  3.140022 -7.652392 -2.786464
v  2.847138 0.261006 -3.200689
v  3.200690 0.261006 -2.847136
v  4.258241 0.261006 -4.611792
v  4.611793 0.261006 -4.258237
v  2.786470 -7.652391 3.140021
v  3.140024 -7.652391 2.786469
v  2.544498 -7.652391 2.190943
v  2.190943 -7.652391 2.544498
v  3.200692 0.261006 2.847141
v  2.847138 0.261006 3.200693
v  4.258241 0.261006 4.611795
v  4.611796 0.261007 4.258242
v  -4.000000 0.000000 4.000000
v  -4.000000 0.000000 4.000000
v  4.000000 0.000000 4.000000
v  4.000000 0.000000 4.000000
v  -4.000000 0.000000 -4.000000
v  -4.000000 0.000000 -4.000000
v  4.000000 0.000000 -4.000000
v  4.000000 0.000000 -4.000000
v  -4.000000 -0.500000 4.000000
v  -4.000000 -0.500000 4.000000
v  4.000000 -0.500000 4.000000
v  4.000000 -0.500000 4.000000
v  -4.000000 -0.500000 -4.000000
v  -4.000000 -0.500000 -4.000000
v  4.000000 -0.500000 -4.000000
v  4.000000 -0.500000 -4.000000
v  -2.786465 -7.652393 -3.140018
v  -2.786465 -7.652393 -3.140018
v  -2.190939 -7.652393 -2.544493
v  -2.190939 -7.652393 -2.544493
v  -2.544494 -7.652393 -2.190941
v  -2.544494 -7.652393 -2.190941
v  -3.140020 -7.652393 -2.786466
v  -3.140020 -7.652393 -2.786466
v  -2.847136 0.261005 -3.200689
v  -2.847136 0.261005 -3.200689
v  -3.200689 0.261005 -2.847136
v  -3.200689 0.261005 -2.847136
v  -4.258238 0.261005 -4.611792
v  -4.258238 0.261005 -4.611792
v  -4.611791 0.261005 -4.258238
v  -4.611791 0.261005 -4.258238
v  -2.786468 -7.652392 3.140022
v  -2.786468 -7.652392 3.140022
v  -2.190942 -7.652392 2.544496
v  -2.190942 -7.652392 2.544496
v  -2.544495 -7.652392 2.190942
v  -2.544495 -7.652392 2.190942
v  -3.140020 -7.652392 2.786468
v  -3.140020 -7.652392 2.786468
v  -2.847136 0.261005 3.200691
v  -2.847136 0.261005 3.200691
v  -3.200688 0.261006 2.847137
v  -3.200688 0.261006 2.847137
v  -4.258240 0.261005 4.611794
v  -4.258240 0.261005 4.611794
v  -4.611793 0.261006 4.258240
v  -4.611793 0.261006 4.258240
v  2.786467 -7.652392 -3.140018
v  2.786467 -7.652392 -3.140018
v  2.190943 -7.652392 -2.544493
v  2.190943 -7.652392 -2.544493
v  2.544497 -7.652392 -2.190941
v  2.544497 -7.652392 -2.190941
v  3.140022 -7.652392 -2.786464
v  3.140022 -7.652392 -2.786464
v  2.847138 0.261006 -3.200689
v  2.847138 0.261006 -3.200689
v  3.200690 0.261006 -2.847136
v  3.200690 0.261006 -2.847136
v  4.258241 0.261006 -4.611792
v  4.258241 0.261006 -4.611792
v  4.611793 0.261006 -4.258237
v  4.611793 0.261006 -4.258237
v  2.786470 -7.652391 3.140021
v  2.786470 -7.652391 3.140021
v  3.140024 -7.652391 2.786469
v  3.140024 -7.652391 2.786469
v  2.544498 -7.652391 2.190943
v  2.544498 -7.652391 2.190943
v  2.190943 -7.652391 2.544498
v  2.190943 -7.652391 2.544498
v  3.200692 0.261006 2.847141
v  3.200692 0.261006 2.847141
v  2.847138 0.261006 3.200693
v  2.847138 0.261006 3.200693
v  4.258241 0.261006 4.611795
v  4.258241 0.261006 4.611795
v  4.611796 0.261007 4.258242
v  4.611796 0.261007 4.258242
# 120 vertices

vn 0.000000 1.000000 -0.000000
vn 0.000000 1.000000 -0.000000
vn 0.000000 1.000000 -0.000000
vn 0.000000 1.000000 -0.000000
vn 0.000000 1.000000 -0.000000
vn 0.000000 1.000000 -0.000000
vn 0.000000 -1.000000 -0.000000
vn 0.000000 -1.000000 -0.000000
vn 0.000000 -1.000000 -0.000000
vn 0.000000 -1.000000 -0.000000
vn 0.000000 -1.000000 -0.000000
vn 0.000000 -1.000000 -0.000000
vn -1.000000 0.000000 -0.000000
vn -1.000000 0.000000 -0.000000
vn -1.000000 0.000000 -0.000000
vn -1.000000 0.000000 -0.000000
vn -1.000000 0.000000 -0.000000
vn -1.000000 0.000000 -0.000000
vn 0.000000 0.000000 -1.000000
vn 0.000000 0.000000 -1.000000
vn 0.000000 0.000000 -1.000000
vn 0.000000 0.000000 -1.000000
vn 0.000000 0.000000 -1.000000
vn 0.000000 0.000000 -1.000000
vn 1.000000 0.000000 -0.000000
vn 1.000000 0.000000 -0.000000
vn 1.000000 0.000000 -0.000000
vn 1.000000 0.000000 -0.000000
vn 1.000000 0.000000 -0.000000
vn 1.000000 0.000000 -0.000000
vn 0.000000 0.000000 1.000000
vn 0.000000 0.000000 1.000000
vn 0.000000 0.000000 1.000000
vn 0.000000 0.000000 1.000000
vn 0.000000 0.000000 1.000000
vn 0.000000 0.000000 1.000000
vn 0.000000 -1.000000 -0.000000
vn 0.000000 -1.000000 -0.000000
vn 0.000000 -1.000000 -0.000000
vn 0.000000 -1.000000 -0.000000
vn 0.000000 -1.000000 -0.000000
vn 0.000000 -1.000000 -0.000000
vn 0.702294 0.116472 0.702294
vn 0.702291 0.116471 0.702297
vn 0.702292 0.116471 0.702297
vn 0.702292 0.116471 0.702297
vn 0.702294 0.116472 0.702294
vn 0.702294 0.116472 0.702294
vn -0.683845 -0.254371 -0.683850
vn -0.683849 -0.254370 -0.683847
vn -0.683849 -0.254371 -0.683847
vn -0.683849 -0.254371 -0.683847
vn -0.683845 -0.254371 -0.683851
vn -0.683845 -0.254371 -0.683850
vn -0.707107 0.000000 0.707107
vn -0.707107 0.000000 0.707107
vn -0.707106 0.000000 0.707107
vn -0.707106 0.000000 0.707107
vn -0.707106 0.000000 0.707107
vn -0.707107 0.000000 0.707107
vn 0.707107 -0.000000 -0.707107
vn 0.707107 -0.000000 -0.707107
vn 0.707107 -0.000000 -0.707107
vn 0.707107 -0.000000 -0.707107
vn 0.707106 -0.000000 -0.707107
vn 0.707107 -0.000000 -0.707107
vn 0.000000 1.000000 -0.000000
vn 0.000000 1.000000 -0.000000
vn 0.000000 1.000000 -0.000000
vn 0.000000 1.000000 -0.000000
vn 0.000000 1.000000 -0.000000
vn 0.000000 1.000000 -0.000000
vn 0.000000 -1.000000 -0.000000
vn 0.000000 -1.000000 -0.000000
vn 0.000000 -1.000000 -0.000000
vn 0.000000 -1.000000 -0.000000
vn 0.000000 -1.000000 -0.000000
vn 0.000000 -1.000000 -0.000000
vn 0.702295 0.116471 -0.702293
vn 0.702295 0.116471 -0.702293
vn 0.702295 0.116471 -0.702294
vn 0.702295 0.116471 -0.702294
vn 0.702295 0.116471 -0.702294
vn 0.702295 0.116471 -0.702293
vn -0.683849 -0.254371 0.683846
vn -0.683849 -0.254371 0.683846
vn -0.683849 -0.254371 0.683847
vn -0.683849 -0.254371 0.683847
vn -0.683849 -0.254371 0.683847
vn -0.683849 -0.254371 0.683846
vn -0.707106 0.000000 -0.707107
vn -0.707107 0.000000 -0.707107
vn -0.707107 0.000000 -0.707107
vn -0.707107 0.000000 -0.707107
vn -0.707106 0.000000 -0.707107
vn -0.707106 0.000000 -0.707107
vn 0.707107 -0.000000 0.707107
vn 0.707107 -0.000000 0.707107
vn 0.707106 -0.000000 0.707107
vn 0.707106 -0.000000 0.707107
vn 0.707106 -0.000000 0.707107
vn 0.707107 -0.000000 0.707107
vn 0.000000 1.000000 0.000000
vn 0.000000 1.000000 0.000000
vn 0.000000 1.000000 0.000000
vn 0.000000 1.000000 0.000000
vn 0.000000 1.000000 0.000000
vn 0.000000 1.000000 0.000000
vn 0.000000 -1.000000 -0.000000
vn 0.000000 -1.000000 -0.000000
vn 0.000000 -1.000000 -0.000000
vn 0.000000 -1.000000 -0.000000
vn 0.000000 -1.000000 -0.000000
vn 0.000000 -1.000000 -0.000000
vn -0.702296 0.116471 0.702292
vn -0.702296 0.116471 0.702292
vn -0.702294 0.116471 0.702295
vn -0.702294 0.116471 0.702295
vn -0.702294 0.116471 0.702295
vn -0.702296 0.116471 0.702292
vn 0.683846 -0.254371 -0.683849
vn 0.683846 -0.254371 -0.683850
vn 0.683850 -0.254371 -0.683845
vn 0.683850 -0.254371 -0.683845
vn 0.683851 -0.254371 -0.683845
vn 0.683846 -0.254371 -0.683849
vn 0.707106 0.000000 0.707107
vn 0.707106 0.000000 0.707108
vn 0.707106 0.000000 0.707108
vn 0.707106 0.000000 0.707108
vn 0.707107 0.000000 0.707107
vn 0.707106 0.000000 0.707107
vn -0.707107 0.000000 -0.707106
vn -0.707107 0.000000 -0.707106
vn -0.707107 0.000000 -0.707107
vn -0.707107 0.000000 -0.707107
vn -0.707107 0.000000 -0.707107
vn -0.707107 0.000000 -0.707106
vn -0.000000 1.000000 -0.000000
vn -0.000000 1.000000 -0.000000
vn -0.000000 1.000000 -0.000000
vn -0.000000 1.000000 -0.000000
vn -0.000000 1.000000 -0.000000
vn -0.000000 1.000000 -0.000000
vn 0.000000 -1.000000 -0.000000
vn 0.000000 -1.000000 -0.000000
vn 0.000000 -1.000000 -0.000000
vn 0.000000 -1.000000 -0.000000
vn 0.000000 -1.000000 -0.000000
vn 0.000000 -1.000000 -0.000000
vn -0.702292 0.116471 -0.702296
vn -0.702293 0.116471 -0.702295
vn -0.702293 0.116471 -0.702295
vn -0.702293 0.116471 -0.702295
vn -0.702292 0.116471 -0.702296
vn -0.702292 0.116471 -0.702296
vn 0.683846 -0.254371 0.683849
vn 0.683846 -0.254371 0.683850
vn 0.683846 -0.254371 0.683850
vn 0.683846 -0.254371 0.683850
vn 0.683846 -0.254371 0.683849
vn 0.683846 -0.254371 0.683849
vn 0.707106 0.000000 -0.707108
vn 0.707106 0.000000 -0.707108
vn 0.707107 0.000000 -0.707107
vn 0.707107 0.000000 -0.707107
vn 0.707107 0.000000 -0.707106
vn 0.707106 0.000000 -0.707108
vn -0.707105 -0.000000 0.707109
vn -0.707107 -0.000000 0.707107
vn -0.707107 -0.000000 0.707107
vn -0.707107 -0.000000 0.707107
vn -0.707104 -0.000000 0.707109
vn -0.707105 -0.000000 0.707109
vn -0.000000 1.000000 0.000000
vn -0.000000 1.000000 0.000000
vn -0.000000 1.000000 0.000000
vn -0.000000 1.000000 0.000000
vn -0.000000 1.000000 0.000000
vn -0.000000 1.000000 0.000000
# 180 vertex normals

vt 0.034400 0.910192 0.000000
vt 0.034400 0.589808 0.000000
vt 0.465600 0.589808 0.000000
vt 0.465600 0.910192 0.000000
vt 0.465600 0.910192 0.000000
vt 0.465600 0.589808 0.000000
vt 0.034400 0.589808 0.000000
vt 0.034400 0.910192 0.000000
vt 0.033200 0.067700 0.000000
vt 0.033500 0.053500 0.000000
vt 0.033500 0.053500 0.000000
vt 0.033200 0.067700 0.000000
vt 0.033500 0.053500 0.000000
vt 0.220000 0.052200 0.000000
vt 0.220000 0.052200 0.000000
vt 0.033500 0.053500 0.000000
vt 0.218500 0.086000 0.000000
vt 0.033200 0.067700 0.000000
vt 0.033200 0.067700 0.000000
vt 0.218500 0.086000 0.000000
vt 0.033200 0.067700 0.000000
vt 0.033500 0.053500 0.000000
vt 0.220000 0.052200 0.000000
vt 0.218500 0.086000 0.000000
vt 0.220000 0.052200 0.000000
vt 0.033500 0.053500 0.000000
vt 0.033200 0.067700 0.000000
vt 0.218500 0.086000 0.000000
vt 0.033200 0.067700 0.000000
vt 0.033500 0.053500 0.000000
vt 0.033500 0.053500 0.000000
vt 0.033200 0.067700 0.000000
vt 0.033500 0.053500 0.000000
vt 0.220000 0.052200 0.000000
vt 0.220000 0.052200 0.000000
vt 0.033500 0.053500 0.000000
vt 0.218500 0.086000 0.000000
vt 0.033200 0.067700 0.000000
vt 0.033200 0.067700 0.000000
vt 0.218500 0.086000 0.000000
vt 0.033200 0.067700 0.000000
vt 0.033500 0.053500 0.000000
vt 0.220000 0.052200 0.000000
vt 0.218500 0.086000 0.000000
vt 0.220000 0.052200 0.000000
vt 0.033500 0.053500 0.000000
vt 0.033200 0.067700 0.000000
vt 0.218500 0.086000 0.000000
vt 0.033200 0.067700 0.000000
vt 0.033500 0.053500 0.000000
vt 0.033500 0.053500 0.000000
vt 0.033200 0.067700 0.000000
vt 0.033500 0.053500 0.000000
vt 0.220000 0.052200 0.000000
vt 0.220000 0.052200 0.000000
vt 0.033500 0.053500 0.000000
vt 0.218500 0.086000 0.000000
vt 0.033200 0.067700 0.000000
vt 0.033200 0.067700 0.000000
vt 0.218500 0.086000 0.000000
vt 0.033200 0.067700 0.000000
vt 0.033500 0.053500 0.000000
vt 0.220000 0.052200 0.000000
vt 0.218500 0.086000 0.000000
vt 0.220000 0.052200 0.000000
vt 0.033500 0.053500 0.000000
vt 0.033200 0.067700 0.000000
vt 0.218500 0.086000 0.000000
vt 0.033200 0.067700 0.000000
vt 0.033200 0.067700 0.000000
vt 0.033500 0.053500 0.000000
vt 0.033500 0.053500 0.000000
vt 0.033500 0.053500 0.000000
vt 0.033500 0.053500 0.000000
vt 0.220000 0.052200 0.000000
vt 0.220000 0.052200 0.000000
vt 0.218500 0.086000 0.000000
vt 0.218500 0.086000 0.000000
vt 0.033200 0.067700 0.000000
vt 0.033200 0.067700 0.000000
vt 0.033200 0.067700 0.000000
vt 0.218500 0.086000 0.000000
vt 0.220000 0.052200 0.000000
vt 0.033500 0.053500 0.000000
vt 0.220000 0.052200 0.000000
vt 0.218500 0.086000 0.000000
vt 0.033200 0.067700 0.000000
vt 0.033500 0.053500 0.000000
# 88 texture coords

o Plinth_S
g Plinth_S
f 1/2/1 44/3/2 48/4/3 
f 48/4/4 3/1/5 1/2/6 
f 55/5/7 51/6/8 49/7/9 
f 49/7/10 53/8/11 55/5/12 
f 54/8/13 5/7/14 41/2/15 
f 41/2/16 46/1/17 54/8/18 
f 56/5/19 7/8/20 45/1/21 
f 45/1/22 47/4/23 56/5/24 
f 52/6/25 8/5/26 4/4/27 
f 4/4/28 43/3/29 52/6/30 
f 50/7/31 6/6/32 2/3/33 
f 2/3/34 42/2/35 50/7/36 
f 62/11/37 12/12/38 9/9/39 
f 9/9/40 60/10/41 62/11/42 
f 14/15/43 11/16/44 59/13/45 
f 59/13/46 66/14/47 14/15/48 
f 64/19/49 72/20/50 15/17/51 
f 15/17/52 57/18/53 64/19/54 
f 68/23/55 16/24/56 63/21/57 
f 63/21/58 61/22/59 68/23/60 
f 58/27/61 70/28/62 13/25/63 
f 13/25/64 10/26/65 58/27/66 
f 69/28/67 71/20/68 67/23/69 
f 67/23/70 65/14/71 69/28/72 
f 19/31/73 18/30/74 74/29/75 
f 74/29/76 80/32/77 19/31/78 
f 84/35/79 21/34/80 75/33/81 
f 75/33/82 78/36/83 84/35/84 
f 20/39/85 73/38/86 86/37/87 
f 86/37/88 24/40/89 20/39/90 
f 22/43/91 77/42/92 79/41/93 
f 79/41/94 88/44/95 22/43/96 
f 17/47/97 76/46/98 82/45/99 
f 82/45/100 23/48/101 17/47/102 
f 85/48/103 81/34/104 83/43/105 
f 83/43/106 87/40/107 85/48/108 
f 27/51/109 26/50/110 90/49/111 
f 90/49/112 96/52/113 27/51/114 
f 100/55/115 29/54/116 91/53/117 
f 91/53/118 94/56/119 100/55/120 
f 28/59/121 89/58/122 102/57/123 
f 102/57/124 32/60/125 28/59/126 
f 30/63/127 93/62/128 95/61/129 
f 95/61/130 104/64/131 30/63/132 
f 25/67/133 92/66/134 98/65/135 
f 98/65/136 31/68/137 25/67/138 
f 101/68/139 97/54/140 99/63/141 
f 99/63/142 103/60/143 101/68/144 
f 35/71/145 34/70/146 106/69/147 
f 106/69/148 112/72/149 35/71/150 
f 37/75/151 109/74/152 111/73/153 
f 111/73/154 116/76/155 37/75/156 
f 108/79/157 120/78/158 39/77/159 
f 39/77/160 33/80/161 108/79/162 
f 114/83/163 40/82/164 107/81/165 
f 107/81/166 110/84/167 114/83/168 
f 105/87/169 118/86/170 38/85/171 
f 38/85/172 36/88/173 105/87/174 
f 117/86/175 119/78/176 113/83/177 
f 113/83/178 115/76/179 117/86/180 
# 60 faces

