# 3ds Max Wavefront OBJ Exporter v0.97b - (c)2007 guruware
# File Created: 06.04.2020 13:56:56

#
# object Stand_L
#

v  -24.000000 0.000000 10.000000
v  24.000000 0.000000 10.000000
v  -24.000000 0.000000 -10.000000
v  24.000000 0.000000 -10.000000
v  -24.000000 -0.500000 10.000000
v  24.000000 -0.500000 10.000000
v  -24.000000 -0.500000 -10.000000
v  24.000000 -0.500000 -10.000000
v  -23.493572 -3.826196 -9.847125
v  -22.898046 -3.826196 -9.251599
v  -23.251602 -3.826196 -8.898047
v  -23.847126 -3.826196 -9.493572
v  -22.847136 0.261005 -9.200689
v  -23.200689 0.261005 -8.847136
v  -24.258238 0.261005 -10.611792
v  -24.611790 0.261005 -10.258238
v  -23.493574 -3.826195 9.847128
v  -22.898048 -3.826195 9.251602
v  -23.251602 -3.826195 8.898048
v  -23.847126 -3.826195 9.493574
v  -22.847136 0.261005 9.200691
v  -23.200687 0.261006 8.847137
v  -24.258240 0.261005 10.611794
v  -24.611794 0.261006 10.258240
v  23.493572 -3.826195 -9.847125
v  22.898048 -3.826195 -9.251600
v  23.251602 -3.826195 -8.898047
v  23.847130 -3.826195 -9.493571
v  22.847137 0.261006 -9.200689
v  23.200691 0.261006 -8.847136
v  24.258240 0.261006 -10.611792
v  24.611794 0.261006 -10.258237
v  23.493576 -3.826194 9.847128
v  23.847130 -3.826194 9.493576
v  23.251606 -3.826194 8.898050
v  22.898048 -3.826194 9.251604
v  23.200691 0.261006 8.847141
v  22.847137 0.261006 9.200693
v  24.258240 0.261006 10.611795
v  24.611797 0.261007 10.258242
v  -24.000000 0.000000 10.000000
v  -24.000000 0.000000 10.000000
v  24.000000 0.000000 10.000000
v  24.000000 0.000000 10.000000
v  -24.000000 0.000000 -10.000000
v  -24.000000 0.000000 -10.000000
v  24.000000 0.000000 -10.000000
v  24.000000 0.000000 -10.000000
v  -24.000000 -0.500000 10.000000
v  -24.000000 -0.500000 10.000000
v  24.000000 -0.500000 10.000000
v  24.000000 -0.500000 10.000000
v  -24.000000 -0.500000 -10.000000
v  -24.000000 -0.500000 -10.000000
v  24.000000 -0.500000 -10.000000
v  24.000000 -0.500000 -10.000000
v  -23.493572 -3.826196 -9.847125
v  -23.493572 -3.826196 -9.847125
v  -22.898046 -3.826196 -9.251599
v  -22.898046 -3.826196 -9.251599
v  -23.251602 -3.826196 -8.898047
v  -23.251602 -3.826196 -8.898047
v  -23.847126 -3.826196 -9.493572
v  -23.847126 -3.826196 -9.493572
v  -22.847136 0.261005 -9.200689
v  -22.847136 0.261005 -9.200689
v  -23.200689 0.261005 -8.847136
v  -23.200689 0.261005 -8.847136
v  -24.258238 0.261005 -10.611792
v  -24.258238 0.261005 -10.611792
v  -24.611790 0.261005 -10.258238
v  -24.611790 0.261005 -10.258238
v  -23.493574 -3.826195 9.847128
v  -23.493574 -3.826195 9.847128
v  -22.898048 -3.826195 9.251602
v  -22.898048 -3.826195 9.251602
v  -23.251602 -3.826195 8.898048
v  -23.251602 -3.826195 8.898048
v  -23.847126 -3.826195 9.493574
v  -23.847126 -3.826195 9.493574
v  -22.847136 0.261005 9.200691
v  -22.847136 0.261005 9.200691
v  -23.200687 0.261006 8.847137
v  -23.200687 0.261006 8.847137
v  -24.258240 0.261005 10.611794
v  -24.258240 0.261005 10.611794
v  -24.611794 0.261006 10.258240
v  -24.611794 0.261006 10.258240
v  23.493572 -3.826195 -9.847125
v  23.493572 -3.826195 -9.847125
v  22.898048 -3.826195 -9.251600
v  22.898048 -3.826195 -9.251600
v  23.251602 -3.826195 -8.898047
v  23.251602 -3.826195 -8.898047
v  23.847130 -3.826195 -9.493571
v  23.847130 -3.826195 -9.493571
v  22.847137 0.261006 -9.200689
v  22.847137 0.261006 -9.200689
v  23.200691 0.261006 -8.847136
v  23.200691 0.261006 -8.847136
v  24.258240 0.261006 -10.611792
v  24.258240 0.261006 -10.611792
v  24.611794 0.261006 -10.258237
v  24.611794 0.261006 -10.258237
v  23.493576 -3.826194 9.847128
v  23.493576 -3.826194 9.847128
v  23.847130 -3.826194 9.493576
v  23.847130 -3.826194 9.493576
v  23.251606 -3.826194 8.898050
v  23.251606 -3.826194 8.898050
v  22.898048 -3.826194 9.251604
v  22.898048 -3.826194 9.251604
v  23.200691 0.261006 8.847141
v  23.200691 0.261006 8.847141
v  22.847137 0.261006 9.200693
v  22.847137 0.261006 9.200693
v  24.258240 0.261006 10.611795
v  24.258240 0.261006 10.611795
v  24.611797 0.261007 10.258242
v  24.611797 0.261007 10.258242
# 120 vertices

vn 0.000000 1.000000 -0.000000
vn 0.000000 1.000000 -0.000000
vn 0.000000 1.000000 -0.000000
vn 0.000000 1.000000 -0.000000
vn 0.000000 1.000000 -0.000000
vn 0.000000 1.000000 -0.000000
vn 0.000000 -1.000000 -0.000000
vn 0.000000 -1.000000 -0.000000
vn 0.000000 -1.000000 -0.000000
vn 0.000000 -1.000000 -0.000000
vn 0.000000 -1.000000 -0.000000
vn 0.000000 -1.000000 -0.000000
vn -1.000000 0.000000 -0.000000
vn -1.000000 0.000000 -0.000000
vn -1.000000 0.000000 -0.000000
vn -1.000000 0.000000 -0.000000
vn -1.000000 0.000000 -0.000000
vn -1.000000 0.000000 -0.000000
vn 0.000000 0.000000 -1.000000
vn 0.000000 0.000000 -1.000000
vn 0.000000 0.000000 -1.000000
vn 0.000000 0.000000 -1.000000
vn 0.000000 0.000000 -1.000000
vn 0.000000 0.000000 -1.000000
vn 1.000000 0.000000 -0.000000
vn 1.000000 0.000000 -0.000000
vn 1.000000 0.000000 -0.000000
vn 1.000000 0.000000 -0.000000
vn 1.000000 0.000000 -0.000000
vn 1.000000 0.000000 -0.000000
vn 0.000000 0.000000 1.000000
vn 0.000000 0.000000 1.000000
vn 0.000000 0.000000 1.000000
vn 0.000000 0.000000 1.000000
vn 0.000000 0.000000 1.000000
vn 0.000000 0.000000 1.000000
vn 0.000000 -1.000000 -0.000000
vn 0.000000 -1.000000 -0.000000
vn 0.000000 -1.000000 -0.000000
vn 0.000000 -1.000000 -0.000000
vn 0.000000 -1.000000 -0.000000
vn 0.000000 -1.000000 -0.000000
vn 0.706997 -0.017613 0.706997
vn 0.706993 -0.017613 0.707001
vn 0.706994 -0.017613 0.707001
vn 0.706994 -0.017613 0.707001
vn 0.706997 -0.017613 0.706997
vn 0.706997 -0.017613 0.706997
vn -0.683584 -0.255781 -0.683585
vn -0.683587 -0.255780 -0.683583
vn -0.683586 -0.255781 -0.683583
vn -0.683586 -0.255781 -0.683583
vn -0.683584 -0.255781 -0.683586
vn -0.683584 -0.255781 -0.683585
vn -0.707107 0.000000 0.707106
vn -0.707107 0.000000 0.707106
vn -0.707107 0.000000 0.707106
vn -0.707107 0.000000 0.707106
vn -0.707107 0.000000 0.707106
vn -0.707107 0.000000 0.707106
vn 0.707107 -0.000000 -0.707107
vn 0.707107 -0.000000 -0.707107
vn 0.707107 -0.000000 -0.707107
vn 0.707107 -0.000000 -0.707107
vn 0.707107 -0.000000 -0.707107
vn 0.707107 -0.000000 -0.707107
vn 0.000000 1.000000 -0.000000
vn 0.000000 1.000000 -0.000000
vn 0.000000 1.000000 -0.000000
vn 0.000000 1.000000 -0.000000
vn 0.000000 1.000000 -0.000000
vn 0.000000 1.000000 -0.000000
vn 0.000000 -1.000000 -0.000000
vn 0.000000 -1.000000 -0.000000
vn 0.000000 -1.000000 -0.000000
vn 0.000000 -1.000000 -0.000000
vn 0.000000 -1.000000 -0.000000
vn 0.000000 -1.000000 -0.000000
vn 0.706999 -0.017613 -0.706995
vn 0.706999 -0.017613 -0.706995
vn 0.706997 -0.017614 -0.706997
vn 0.706997 -0.017614 -0.706997
vn 0.706997 -0.017614 -0.706997
vn 0.706999 -0.017613 -0.706995
vn -0.683586 -0.255781 0.683583
vn -0.683587 -0.255781 0.683583
vn -0.683585 -0.255781 0.683584
vn -0.683585 -0.255781 0.683584
vn -0.683585 -0.255781 0.683585
vn -0.683586 -0.255781 0.683583
vn -0.707106 0.000000 -0.707107
vn -0.707108 0.000001 -0.707106
vn -0.707107 0.000001 -0.707106
vn -0.707107 0.000001 -0.707106
vn -0.707106 0.000000 -0.707108
vn -0.707106 0.000000 -0.707107
vn 0.707107 -0.000000 0.707107
vn 0.707107 -0.000000 0.707107
vn 0.707106 -0.000000 0.707107
vn 0.707106 -0.000000 0.707107
vn 0.707106 -0.000000 0.707107
vn 0.707107 -0.000000 0.707107
vn 0.000000 1.000000 0.000000
vn 0.000000 1.000000 0.000000
vn 0.000000 1.000000 0.000000
vn 0.000000 1.000000 0.000000
vn 0.000000 1.000000 0.000000
vn 0.000000 1.000000 0.000000
vn 0.000000 -1.000000 -0.000000
vn 0.000000 -1.000000 -0.000000
vn 0.000000 -1.000000 -0.000000
vn 0.000000 -1.000000 -0.000000
vn 0.000000 -1.000000 -0.000000
vn 0.000000 -1.000000 -0.000000
vn -0.706997 -0.017613 0.706997
vn -0.706997 -0.017613 0.706997
vn -0.706996 -0.017613 0.706998
vn -0.706996 -0.017613 0.706998
vn -0.706996 -0.017613 0.706998
vn -0.706997 -0.017613 0.706997
vn 0.683581 -0.255781 -0.683588
vn 0.683581 -0.255781 -0.683588
vn 0.683586 -0.255781 -0.683584
vn 0.683586 -0.255781 -0.683584
vn 0.683586 -0.255780 -0.683584
vn 0.683581 -0.255781 -0.683588
vn 0.707106 0.000000 0.707107
vn 0.707105 -0.000000 0.707109
vn 0.707105 -0.000000 0.707108
vn 0.707105 -0.000000 0.707108
vn 0.707107 0.000000 0.707107
vn 0.707106 0.000000 0.707107
vn -0.707107 0.000000 -0.707106
vn -0.707107 -0.000000 -0.707106
vn -0.707107 0.000000 -0.707107
vn -0.707107 0.000000 -0.707107
vn -0.707107 0.000000 -0.707107
vn -0.707107 0.000000 -0.707106
vn -0.000000 1.000000 -0.000000
vn -0.000000 1.000000 -0.000000
vn -0.000000 1.000000 -0.000000
vn -0.000000 1.000000 -0.000000
vn -0.000000 1.000000 -0.000000
vn -0.000000 1.000000 -0.000000
vn 0.000000 -1.000000 -0.000000
vn 0.000000 -1.000000 -0.000000
vn 0.000000 -1.000000 -0.000000
vn 0.000000 -1.000000 -0.000000
vn 0.000000 -1.000000 -0.000000
vn 0.000000 -1.000000 -0.000000
vn -0.706995 -0.017613 -0.706999
vn -0.706993 -0.017613 -0.707001
vn -0.706993 -0.017613 -0.707001
vn -0.706993 -0.017613 -0.707001
vn -0.706995 -0.017613 -0.706999
vn -0.706995 -0.017613 -0.706999
vn 0.683583 -0.255781 0.683587
vn 0.683581 -0.255781 0.683588
vn 0.683581 -0.255781 0.683588
vn 0.683581 -0.255781 0.683588
vn 0.683583 -0.255781 0.683587
vn 0.683583 -0.255781 0.683587
vn 0.707106 0.000000 -0.707108
vn 0.707105 0.000000 -0.707108
vn 0.707107 0.000001 -0.707106
vn 0.707107 0.000001 -0.707106
vn 0.707108 0.000001 -0.707106
vn 0.707106 0.000000 -0.707108
vn -0.707105 -0.000000 0.707108
vn -0.707107 -0.000001 0.707107
vn -0.707106 -0.000001 0.707107
vn -0.707106 -0.000001 0.707107
vn -0.707105 0.000000 0.707109
vn -0.707105 -0.000000 0.707108
vn -0.000000 1.000000 0.000000
vn -0.000000 1.000000 0.000000
vn -0.000000 1.000000 0.000000
vn -0.000000 1.000000 0.000000
vn -0.000000 1.000000 0.000000
vn -0.000000 1.000000 0.000000
# 180 vertex normals

vt 0.034400 0.910192 0.000000
vt 0.034400 0.589808 0.000000
vt 0.465600 0.589808 0.000000
vt 0.465600 0.910192 0.000000
vt 0.465600 0.910192 0.000000
vt 0.465600 0.589808 0.000000
vt 0.034400 0.589808 0.000000
vt 0.034400 0.910192 0.000000
vt 0.033200 0.067700 0.000000
vt 0.033500 0.053500 0.000000
vt 0.033500 0.053500 0.000000
vt 0.033200 0.067700 0.000000
vt 0.033500 0.053500 0.000000
vt 0.220000 0.052200 0.000000
vt 0.220000 0.052200 0.000000
vt 0.033500 0.053500 0.000000
vt 0.218500 0.086000 0.000000
vt 0.033200 0.067700 0.000000
vt 0.033200 0.067700 0.000000
vt 0.218500 0.086000 0.000000
vt 0.033200 0.067700 0.000000
vt 0.033500 0.053500 0.000000
vt 0.220000 0.052200 0.000000
vt 0.218500 0.086000 0.000000
vt 0.220000 0.052200 0.000000
vt 0.033500 0.053500 0.000000
vt 0.033200 0.067700 0.000000
vt 0.218500 0.086000 0.000000
vt 0.033200 0.067700 0.000000
vt 0.033500 0.053500 0.000000
vt 0.033500 0.053500 0.000000
vt 0.033200 0.067700 0.000000
vt 0.033500 0.053500 0.000000
vt 0.220000 0.052200 0.000000
vt 0.220000 0.052200 0.000000
vt 0.033500 0.053500 0.000000
vt 0.218500 0.086000 0.000000
vt 0.033200 0.067700 0.000000
vt 0.033200 0.067700 0.000000
vt 0.218500 0.086000 0.000000
vt 0.033200 0.067700 0.000000
vt 0.033500 0.053500 0.000000
vt 0.220000 0.052200 0.000000
vt 0.218500 0.086000 0.000000
vt 0.220000 0.052200 0.000000
vt 0.033500 0.053500 0.000000
vt 0.033200 0.067700 0.000000
vt 0.218500 0.086000 0.000000
vt 0.033200 0.067700 0.000000
vt 0.033500 0.053500 0.000000
vt 0.033500 0.053500 0.000000
vt 0.033200 0.067700 0.000000
vt 0.033500 0.053500 0.000000
vt 0.220000 0.052200 0.000000
vt 0.220000 0.052200 0.000000
vt 0.033500 0.053500 0.000000
vt 0.218500 0.086000 0.000000
vt 0.033200 0.067700 0.000000
vt 0.033200 0.067700 0.000000
vt 0.218500 0.086000 0.000000
vt 0.033200 0.067700 0.000000
vt 0.033500 0.053500 0.000000
vt 0.220000 0.052200 0.000000
vt 0.218500 0.086000 0.000000
vt 0.220000 0.052200 0.000000
vt 0.033500 0.053500 0.000000
vt 0.033200 0.067700 0.000000
vt 0.218500 0.086000 0.000000
vt 0.033200 0.067700 0.000000
vt 0.033200 0.067700 0.000000
vt 0.033500 0.053500 0.000000
vt 0.033500 0.053500 0.000000
vt 0.033500 0.053500 0.000000
vt 0.033500 0.053500 0.000000
vt 0.220000 0.052200 0.000000
vt 0.220000 0.052200 0.000000
vt 0.218500 0.086000 0.000000
vt 0.218500 0.086000 0.000000
vt 0.033200 0.067700 0.000000
vt 0.033200 0.067700 0.000000
vt 0.033200 0.067700 0.000000
vt 0.218500 0.086000 0.000000
vt 0.220000 0.052200 0.000000
vt 0.033500 0.053500 0.000000
vt 0.220000 0.052200 0.000000
vt 0.218500 0.086000 0.000000
vt 0.033200 0.067700 0.000000
vt 0.033500 0.053500 0.000000
# 88 texture coords

o Stand_L
g Stand_L
f 1/2/1 44/3/2 48/4/3 
f 48/4/4 3/1/5 1/2/6 
f 55/5/7 51/6/8 49/7/9 
f 49/7/10 53/8/11 55/5/12 
f 54/8/13 5/7/14 41/2/15 
f 41/2/16 46/1/17 54/8/18 
f 56/5/19 7/8/20 45/1/21 
f 45/1/22 47/4/23 56/5/24 
f 52/6/25 8/5/26 4/4/27 
f 4/4/28 43/3/29 52/6/30 
f 50/7/31 6/6/32 2/3/33 
f 2/3/34 42/2/35 50/7/36 
f 62/11/37 12/12/38 9/9/39 
f 9/9/40 60/10/41 62/11/42 
f 14/15/43 11/16/44 59/13/45 
f 59/13/46 66/14/47 14/15/48 
f 64/19/49 72/20/50 15/17/51 
f 15/17/52 57/18/53 64/19/54 
f 68/23/55 16/24/56 63/21/57 
f 63/21/58 61/22/59 68/23/60 
f 58/27/61 70/28/62 13/25/63 
f 13/25/64 10/26/65 58/27/66 
f 69/28/67 71/20/68 67/23/69 
f 67/23/70 65/14/71 69/28/72 
f 19/31/73 18/30/74 74/29/75 
f 74/29/76 80/32/77 19/31/78 
f 84/35/79 21/34/80 75/33/81 
f 75/33/82 78/36/83 84/35/84 
f 20/39/85 73/38/86 86/37/87 
f 86/37/88 24/40/89 20/39/90 
f 22/43/91 77/42/92 79/41/93 
f 79/41/94 88/44/95 22/43/96 
f 17/47/97 76/46/98 82/45/99 
f 82/45/100 23/48/101 17/47/102 
f 85/48/103 81/34/104 83/43/105 
f 83/43/106 87/40/107 85/48/108 
f 27/51/109 26/50/110 90/49/111 
f 90/49/112 96/52/113 27/51/114 
f 100/55/115 29/54/116 91/53/117 
f 91/53/118 94/56/119 100/55/120 
f 28/59/121 89/58/122 102/57/123 
f 102/57/124 32/60/125 28/59/126 
f 30/63/127 93/62/128 95/61/129 
f 95/61/130 104/64/131 30/63/132 
f 25/67/133 92/66/134 98/65/135 
f 98/65/136 31/68/137 25/67/138 
f 101/68/139 97/54/140 99/63/141 
f 99/63/142 103/60/143 101/68/144 
f 35/71/145 34/70/146 106/69/147 
f 106/69/148 112/72/149 35/71/150 
f 37/75/151 109/74/152 111/73/153 
f 111/73/154 116/76/155 37/75/156 
f 108/79/157 120/78/158 39/77/159 
f 39/77/160 33/80/161 108/79/162 
f 114/83/163 40/82/164 107/81/165 
f 107/81/166 110/84/167 114/83/168 
f 105/87/169 118/86/170 38/85/171 
f 38/85/172 36/88/173 105/87/174 
f 117/86/175 119/78/176 113/83/177 
f 113/83/178 115/76/179 117/86/180 
# 60 faces

