# 3ds Max Wavefront OBJ Exporter v0.97b - (c)2007 guruware
# File Created: 06.04.2020 11:48:17

#
# object Table
#

v  55.425629 0.250000 -0.000000
v  27.712812 0.250000 -48.000004
v  -27.712818 0.250000 -48.000000
v  -55.425629 0.250000 0.000005
v  -27.712809 0.250000 48.000004
v  27.712833 0.250000 47.999992
v  55.425629 -0.250000 -0.000000
v  27.712812 -0.250000 -48.000004
v  -27.712818 -0.250000 -48.000000
v  -55.425629 -0.250000 0.000005
v  -27.712809 -0.250000 48.000004
v  27.712833 -0.250000 47.999992
v  0.000003 0.250000 -0.000001
v  0.000003 -0.250000 0.000001
v  55.425629 0.250000 -0.000000
v  55.425629 0.250000 -0.000000
v  55.425629 0.250000 -0.000000
v  27.712812 0.250000 -48.000004
v  27.712812 0.250000 -48.000004
v  27.712812 0.250000 -48.000004
v  -27.712818 0.250000 -48.000000
v  -27.712818 0.250000 -48.000000
v  -27.712818 0.250000 -48.000000
v  -55.425629 0.250000 0.000005
v  -55.425629 0.250000 0.000005
v  -55.425629 0.250000 0.000005
v  -27.712809 0.250000 48.000004
v  -27.712809 0.250000 48.000004
v  -27.712809 0.250000 48.000004
v  27.712833 0.250000 47.999992
v  27.712833 0.250000 47.999992
v  27.712833 0.250000 47.999992
v  55.425629 -0.250000 -0.000000
v  55.425629 -0.250000 -0.000000
v  55.425629 -0.250000 -0.000000
v  27.712812 -0.250000 -48.000004
v  27.712812 -0.250000 -48.000004
v  27.712812 -0.250000 -48.000004
v  -27.712818 -0.250000 -48.000000
v  -27.712818 -0.250000 -48.000000
v  -27.712818 -0.250000 -48.000000
v  -55.425629 -0.250000 0.000005
v  -55.425629 -0.250000 0.000005
v  -55.425629 -0.250000 0.000005
v  -27.712809 -0.250000 48.000004
v  -27.712809 -0.250000 48.000004
v  -27.712809 -0.250000 48.000004
v  27.712833 -0.250000 47.999992
v  27.712833 -0.250000 47.999992
v  27.712833 -0.250000 47.999992
v  0.000003 0.250000 -0.000001
v  0.000003 0.250000 -0.000001
v  0.000003 0.250000 -0.000001
v  0.000003 0.250000 -0.000001
v  0.000003 0.250000 -0.000001
v  0.000003 -0.250000 0.000001
v  0.000003 -0.250000 0.000001
v  0.000003 -0.250000 0.000001
v  0.000003 -0.250000 0.000001
v  0.000003 -0.250000 0.000001
# 60 vertices

vn -0.866025 0.000000 0.500000
vn -0.866025 0.000000 0.500000
vn -0.866025 0.000000 0.500000
vn -0.866025 0.000000 0.500000
vn -0.866025 0.000000 0.500000
vn -0.866025 0.000000 0.500000
vn 0.000000 0.000000 1.000000
vn 0.000000 0.000000 1.000000
vn 0.000000 0.000000 1.000000
vn 0.000000 0.000000 1.000000
vn 0.000000 0.000000 1.000000
vn 0.000000 0.000000 1.000000
vn 0.866026 0.000000 0.500000
vn 0.866026 0.000000 0.500000
vn 0.866026 0.000000 0.500000
vn 0.866026 0.000000 0.500000
vn 0.866026 0.000000 0.500000
vn 0.866026 0.000000 0.500000
vn 0.866025 0.000000 -0.500000
vn 0.866025 0.000000 -0.500000
vn 0.866025 0.000000 -0.500000
vn 0.866025 0.000000 -0.500000
vn 0.866025 0.000000 -0.500000
vn 0.866025 0.000000 -0.500000
vn -0.000000 0.000000 -1.000000
vn -0.000000 0.000000 -1.000000
vn -0.000000 0.000000 -1.000000
vn -0.000000 0.000000 -1.000000
vn -0.000000 0.000000 -1.000000
vn -0.000000 0.000000 -1.000000
vn -0.866025 0.000000 -0.500000
vn -0.866025 0.000000 -0.500000
vn -0.866025 0.000000 -0.500000
vn -0.866025 0.000000 -0.500000
vn -0.866025 0.000000 -0.500000
vn -0.866025 0.000000 -0.500000
vn 0.000000 1.000000 -0.000000
vn 0.000000 1.000000 -0.000000
vn 0.000000 1.000000 -0.000000
vn 0.000000 1.000000 -0.000000
vn 0.000000 1.000000 -0.000000
vn 0.000000 1.000000 -0.000000
vn 0.000000 1.000000 -0.000000
vn 0.000000 1.000000 -0.000000
vn 0.000000 1.000000 -0.000000
vn 0.000000 1.000000 -0.000000
vn 0.000000 1.000000 -0.000000
vn 0.000000 1.000000 -0.000000
vn 0.000000 1.000000 -0.000000
vn 0.000000 1.000000 -0.000000
vn 0.000000 1.000000 -0.000000
vn 0.000000 1.000000 -0.000000
vn 0.000000 1.000000 -0.000000
vn 0.000000 1.000000 -0.000000
vn 0.000000 -1.000000 -0.000000
vn 0.000000 -1.000000 -0.000000
vn 0.000000 -1.000000 -0.000000
vn 0.000000 -1.000000 -0.000000
vn 0.000000 -1.000000 -0.000000
vn 0.000000 -1.000000 -0.000000
vn 0.000000 -1.000000 -0.000000
vn 0.000000 -1.000000 -0.000000
vn 0.000000 -1.000000 -0.000000
vn 0.000000 -1.000000 -0.000000
vn 0.000000 -1.000000 -0.000000
vn 0.000000 -1.000000 -0.000000
vn 0.000000 -1.000000 -0.000000
vn 0.000000 -1.000000 -0.000000
vn 0.000000 -1.000000 -0.000000
vn 0.000000 -1.000000 -0.000000
vn 0.000000 -1.000000 -0.000000
vn 0.000000 -1.000000 -0.000000
# 72 vertex normals

vt 0.627500 0.075648 0.000000
vt 0.505000 0.500000 0.000000
vt 0.505000 0.500000 0.000000
vt 0.627500 0.075648 0.000000
vt 0.872500 0.075648 0.000000
vt 0.872500 0.075648 0.000000
vt 0.995000 0.500000 0.000000
vt 0.995000 0.500000 0.000000
vt 0.872500 0.924353 0.000000
vt 0.872500 0.924353 0.000000
vt 0.627500 0.924352 0.000000
vt 0.627500 0.924352 0.000000
vt 0.750000 0.500000 0.000000
vt 0.750000 0.500000 0.000000
# 14 texture coords

o Table
g Table
f 44/3/1 11/4/2 5/1/3 
f 5/1/4 24/2/5 44/3/6 
f 47/4/7 12/6/8 31/5/9 
f 31/5/10 27/1/11 47/4/12 
f 50/6/13 7/8/14 16/7/15 
f 16/7/16 32/5/17 50/6/18 
f 35/8/19 8/10/20 2/9/21 
f 2/9/22 17/7/23 35/8/24 
f 38/10/25 9/12/26 3/11/27 
f 3/11/28 18/9/29 38/10/30 
f 41/12/31 10/3/32 4/2/33 
f 4/2/34 21/11/35 41/12/36 
f 25/2/37 29/1/38 53/13/39 
f 28/1/40 30/5/41 54/13/42 
f 6/5/43 15/7/44 55/13/45 
f 1/7/46 20/9/47 13/13/48 
f 19/9/49 23/11/50 51/13/51 
f 22/11/52 26/2/53 52/13/54 
f 48/6/55 46/4/56 56/14/57 
f 45/4/58 43/3/59 57/14/60 
f 42/3/61 40/12/62 58/14/63 
f 39/12/64 37/10/65 59/14/66 
f 36/10/67 34/8/68 60/14/69 
f 33/8/70 49/6/71 14/14/72 
# 24 faces

