# 3ds Max Wavefront OBJ Exporter v0.97b - (c)2007 guruware
# File Created: 02.03.2017 23:01:13

mtllib coinsrect.mtl

#
# object rect
#

v  0.262500 -0.025000 -0.418750
v  0.262500 0.025000 -0.418750
v  -0.300000 -0.025000 -0.456250
v  -0.312500 -0.025000 -0.418750
v  -0.309375 -0.025000 -0.440625
v  -0.262500 -0.025000 -0.418750
v  -0.262500 -0.025000 -0.468750
v  -0.284375 -0.025000 -0.465625
v  -0.300000 0.025000 -0.456250
v  -0.262500 0.025000 -0.468750
v  -0.284375 0.025000 -0.465625
v  -0.262500 0.025000 -0.418750
v  -0.312500 0.025000 -0.418750
v  -0.309375 0.025000 -0.440625
v  0.300000 0.025000 -0.456250
v  0.312500 0.025000 -0.418750
v  0.309375 0.025000 -0.440625
v  0.262500 0.025000 -0.468750
v  0.284375 0.025000 -0.465625
v  0.300000 -0.025000 -0.456250
v  0.262500 -0.025000 -0.468750
v  0.284375 -0.025000 -0.465625
v  0.312500 -0.025000 -0.418750
v  0.309375 -0.025000 -0.440625
v  -0.300000 -0.025000 0.456250
v  -0.262500 -0.025000 0.468750
v  -0.284375 -0.025000 0.465625
v  -0.262500 -0.025000 0.418750
v  -0.312500 -0.025000 0.418750
v  -0.309375 -0.025000 0.440625
v  -0.300000 0.025000 0.456250
v  -0.312500 0.025000 0.418750
v  -0.309375 0.025000 0.440625
v  -0.262500 0.025000 0.418750
v  -0.262500 0.025000 0.468750
v  -0.284375 0.025000 0.465625
v  0.300000 -0.025000 0.456250
v  0.312500 -0.025000 0.418750
v  0.309375 -0.025000 0.440625
v  0.262500 -0.025000 0.418750
v  0.262500 -0.025000 0.468750
v  0.284375 -0.025000 0.465625
v  0.300000 0.025000 0.456250
v  0.262500 0.025000 0.468750
v  0.284375 0.025000 0.465625
v  0.262500 0.025000 0.418750
v  0.312500 0.025000 0.418750
v  0.309375 0.025000 0.440625
v  -0.300000 -0.025000 -0.456250
v  -0.312500 -0.025000 -0.418750
v  -0.309375 -0.025000 -0.440625
v  -0.262500 -0.025000 -0.468750
v  -0.284375 -0.025000 -0.465625
v  -0.300000 0.025000 -0.456250
v  -0.262500 0.025000 -0.468750
v  -0.284375 0.025000 -0.465625
v  -0.312500 0.025000 -0.418750
v  -0.309375 0.025000 -0.440625
v  0.300000 0.025000 -0.456250
v  0.312500 0.025000 -0.418750
v  0.309375 0.025000 -0.440625
v  0.262500 0.025000 -0.468750
v  0.284375 0.025000 -0.465625
v  0.300000 -0.025000 -0.456250
v  0.262500 -0.025000 -0.468750
v  0.284375 -0.025000 -0.465625
v  0.312500 -0.025000 -0.418750
v  0.309375 -0.025000 -0.440625
v  -0.300000 -0.025000 0.456250
v  -0.262500 -0.025000 0.468750
v  -0.284375 -0.025000 0.465625
v  -0.312500 -0.025000 0.418750
v  -0.309375 -0.025000 0.440625
v  -0.300000 0.025000 0.456250
v  -0.312500 0.025000 0.418750
v  -0.309375 0.025000 0.440625
v  -0.262500 0.025000 0.468750
v  -0.284375 0.025000 0.465625
v  0.300000 -0.025000 0.456250
v  0.312500 -0.025000 0.418750
v  0.309375 -0.025000 0.440625
v  0.262500 -0.025000 0.468750
v  0.284375 -0.025000 0.465625
v  0.300000 0.025000 0.456250
v  0.262500 0.025000 0.468750
v  0.284375 0.025000 0.465625
v  0.312500 0.025000 0.418750
v  0.309375 0.025000 0.440625
# 88 vertices

vn 0.000000 -1.000000 -0.000000
vn 0.000000 -1.000000 -0.000000
vn 0.000000 -1.000000 -0.000000
vn 0.000000 -1.000000 -0.000000
vn 0.000000 -1.000000 -0.000000
vn 0.000000 -1.000000 -0.000000
vn 0.000000 1.000000 -0.000000
vn 0.000000 1.000000 -0.000000
vn 0.000000 1.000000 -0.000000
vn 0.000000 1.000000 -0.000000
vn 0.000000 1.000000 -0.000000
vn 0.000000 1.000000 -0.000000
vn -0.070889 0.000000 -0.997484
vn -0.070889 0.000000 -0.997484
vn 0.070889 0.000000 -0.997484
vn 0.070889 0.000000 -0.997484
vn 0.070889 0.000000 -0.997484
vn -0.070889 0.000000 -0.997484
vn -0.997484 0.000000 0.070889
vn -0.997484 0.000000 0.070889
vn -0.997484 0.000000 -0.070889
vn -0.997484 0.000000 -0.070889
vn -0.997484 0.000000 -0.070889
vn -0.997484 0.000000 0.070889
vn 0.070889 0.000000 0.997484
vn 0.070889 0.000000 0.997484
vn -0.070889 0.000000 0.997484
vn -0.070889 0.000000 0.997484
vn -0.070889 0.000000 0.997484
vn 0.070889 0.000000 0.997484
vn 0.997484 0.000000 -0.070889
vn 0.997484 0.000000 -0.070889
vn 0.997484 0.000000 0.070889
vn 0.997484 0.000000 0.070889
vn 0.997484 0.000000 0.070889
vn 0.997484 0.000000 -0.070889
vn 0.000000 -1.000000 -0.000000
vn 0.000000 -1.000000 -0.000000
vn 0.000000 -1.000000 -0.000000
vn 0.000000 -1.000000 -0.000000
vn 0.000000 -1.000000 -0.000000
vn 0.000000 -1.000000 -0.000000
vn 0.000000 -1.000000 -0.000000
vn 0.000000 -1.000000 -0.000000
vn 0.000000 -1.000000 -0.000000
vn 0.000000 -1.000000 -0.000000
vn 0.000000 -1.000000 -0.000000
vn 0.000000 -1.000000 -0.000000
vn 0.000000 -1.000000 -0.000000
vn 0.000000 -1.000000 -0.000000
vn 0.000000 -1.000000 -0.000000
vn 0.000000 -1.000000 -0.000000
vn 0.000000 -1.000000 -0.000000
vn 0.000000 -1.000000 -0.000000
vn 0.000000 -1.000000 -0.000000
vn 0.000000 -1.000000 -0.000000
vn 0.000000 -1.000000 -0.000000
vn 0.000000 -1.000000 -0.000000
vn 0.000000 -1.000000 -0.000000
vn 0.000000 -1.000000 -0.000000
vn 0.000000 1.000000 -0.000000
vn 0.000000 1.000000 -0.000000
vn 0.000000 1.000000 -0.000000
vn 0.000000 1.000000 -0.000000
vn 0.000000 1.000000 -0.000000
vn 0.000000 1.000000 -0.000000
vn 0.000000 1.000000 -0.000000
vn 0.000000 1.000000 -0.000000
vn 0.000000 1.000000 -0.000000
vn 0.000000 1.000000 -0.000000
vn 0.000000 1.000000 -0.000000
vn 0.000000 1.000000 -0.000000
vn 0.000000 1.000000 -0.000000
vn 0.000000 1.000000 -0.000000
vn 0.000000 1.000000 -0.000000
vn 0.000000 1.000000 -0.000000
vn 0.000000 1.000000 -0.000000
vn 0.000000 1.000000 -0.000000
vn 0.000000 1.000000 -0.000000
vn 0.000000 1.000000 -0.000000
vn 0.000000 1.000000 -0.000000
vn 0.000000 1.000000 -0.000000
vn 0.000000 1.000000 -0.000000
vn 0.000000 1.000000 -0.000000
vn 0.000000 -1.000000 -0.000000
vn 0.000000 -1.000000 -0.000000
vn 0.000000 -1.000000 -0.000000
vn 0.000000 -1.000000 -0.000000
vn 0.000000 -1.000000 -0.000000
vn 0.000000 -1.000000 -0.000000
vn 0.000000 -1.000000 -0.000000
vn 0.000000 -1.000000 -0.000000
vn 0.000000 -1.000000 -0.000000
vn 0.000000 -1.000000 -0.000000
vn 0.000000 -1.000000 -0.000000
vn 0.000000 -1.000000 -0.000000
vn 0.000000 -1.000000 -0.000000
vn 0.000000 -1.000000 -0.000000
vn 0.000000 -1.000000 -0.000000
vn 0.000000 -1.000000 -0.000000
vn 0.000000 -1.000000 -0.000000
vn 0.000000 -1.000000 -0.000000
vn 0.000000 -1.000000 -0.000000
vn 0.000000 -1.000000 -0.000000
vn 0.000000 -1.000000 -0.000000
vn 0.000000 -1.000000 -0.000000
vn 0.000000 -1.000000 -0.000000
vn 0.000000 -1.000000 -0.000000
vn 0.000000 -1.000000 -0.000000
vn 0.000000 -1.000000 -0.000000
vn 0.000000 -1.000000 -0.000000
vn 0.000000 -1.000000 -0.000000
vn 0.000000 -1.000000 -0.000000
vn 0.000000 -1.000000 -0.000000
vn 0.000000 -1.000000 -0.000000
vn 0.000000 -1.000000 -0.000000
vn 0.000000 -1.000000 -0.000000
vn 0.000000 -1.000000 -0.000000
vn 0.000000 -1.000000 -0.000000
vn 0.000000 -1.000000 -0.000000
vn 0.000000 -1.000000 -0.000000
vn 0.000000 -1.000000 -0.000000
vn 0.000000 -1.000000 -0.000000
vn 0.000000 -1.000000 -0.000000
vn 0.000000 -1.000000 -0.000000
vn 0.000000 -1.000000 -0.000000
vn 0.000000 -1.000000 -0.000000
vn 0.000000 -1.000000 -0.000000
vn 0.000000 -1.000000 -0.000000
vn 0.000000 -1.000000 -0.000000
vn 0.000000 -1.000000 -0.000000
vn 0.000000 -1.000000 -0.000000
vn 0.000000 1.000000 -0.000000
vn 0.000000 1.000000 -0.000000
vn 0.000000 1.000000 -0.000000
vn 0.000000 1.000000 -0.000000
vn 0.000000 1.000000 -0.000000
vn 0.000000 1.000000 -0.000000
vn 0.000000 1.000000 -0.000000
vn 0.000000 1.000000 -0.000000
vn 0.000000 1.000000 -0.000000
vn 0.000000 1.000000 -0.000000
vn 0.000000 1.000000 -0.000000
vn 0.000000 1.000000 -0.000000
vn 0.000000 1.000000 -0.000000
vn 0.000000 1.000000 -0.000000
vn 0.000000 1.000000 -0.000000
vn 0.000000 1.000000 -0.000000
vn 0.000000 1.000000 -0.000000
vn 0.000000 1.000000 -0.000000
vn 0.000000 1.000000 -0.000000
vn 0.000000 1.000000 -0.000000
vn 0.000000 1.000000 -0.000000
vn 0.000000 1.000000 -0.000000
vn 0.000000 1.000000 -0.000000
vn 0.000000 1.000000 -0.000000
vn 0.000000 1.000000 -0.000000
vn 0.000000 1.000000 -0.000000
vn 0.000000 1.000000 -0.000000
vn 0.000000 1.000000 -0.000000
vn 0.000000 1.000000 -0.000000
vn 0.000000 1.000000 -0.000000
vn 0.000000 1.000000 -0.000000
vn 0.000000 1.000000 -0.000000
vn 0.000000 1.000000 -0.000000
vn 0.000000 1.000000 -0.000000
vn 0.000000 1.000000 -0.000000
vn 0.000000 1.000000 -0.000000
vn 0.000000 1.000000 -0.000000
vn 0.000000 1.000000 -0.000000
vn 0.000000 1.000000 -0.000000
vn 0.000000 1.000000 -0.000000
vn 0.000000 1.000000 -0.000000
vn 0.000000 1.000000 -0.000000
vn 0.000000 1.000000 -0.000000
vn 0.000000 1.000000 -0.000000
vn 0.000000 1.000000 -0.000000
vn 0.000000 1.000000 -0.000000
vn 0.000000 1.000000 -0.000000
vn 0.000000 1.000000 -0.000000
vn -0.070889 0.000000 -0.997484
vn -0.070889 0.000000 -0.997484
vn -0.334579 0.000000 -0.942368
vn -0.334579 0.000000 -0.942368
vn -0.334579 0.000000 -0.942368
vn -0.070889 0.000000 -0.997484
vn -0.334579 0.000000 -0.942368
vn -0.334579 0.000000 -0.942368
vn -0.707107 0.000000 -0.707107
vn -0.707107 0.000000 -0.707107
vn -0.707107 0.000000 -0.707107
vn -0.334579 0.000000 -0.942368
vn 0.070889 0.000000 -0.997484
vn 0.070889 0.000000 -0.997484
vn 0.334578 0.000000 -0.942368
vn 0.334578 0.000000 -0.942368
vn 0.334578 0.000000 -0.942368
vn 0.070889 0.000000 -0.997484
vn 0.334578 0.000000 -0.942368
vn 0.334578 0.000000 -0.942368
vn 0.707107 0.000000 -0.707107
vn 0.707107 0.000000 -0.707107
vn 0.707107 0.000000 -0.707107
vn 0.334578 0.000000 -0.942368
vn -0.997484 0.000000 0.070889
vn -0.997484 0.000000 0.070889
vn -0.942368 0.000000 0.334579
vn -0.942368 0.000000 0.334579
vn -0.942368 0.000000 0.334579
vn -0.997484 0.000000 0.070889
vn -0.942368 0.000000 0.334579
vn -0.942368 0.000000 0.334579
vn -0.707107 0.000000 0.707107
vn -0.707107 0.000000 0.707107
vn -0.707107 0.000000 0.707107
vn -0.942368 0.000000 0.334579
vn -0.997484 0.000000 -0.070889
vn -0.997484 0.000000 -0.070889
vn -0.942368 0.000000 -0.334578
vn -0.942368 0.000000 -0.334578
vn -0.942368 0.000000 -0.334578
vn -0.997484 0.000000 -0.070889
vn -0.942368 0.000000 -0.334578
vn -0.942368 0.000000 -0.334578
vn -0.707107 0.000000 -0.707107
vn -0.707107 0.000000 -0.707107
vn -0.707107 0.000000 -0.707107
vn -0.942368 0.000000 -0.334578
vn 0.070889 0.000000 0.997484
vn 0.070889 0.000000 0.997484
vn 0.334579 0.000000 0.942368
vn 0.334579 0.000000 0.942368
vn 0.334579 0.000000 0.942368
vn 0.070889 0.000000 0.997484
vn 0.334579 0.000000 0.942368
vn 0.334579 0.000000 0.942368
vn 0.707107 0.000000 0.707107
vn 0.707107 0.000000 0.707107
vn 0.707107 0.000000 0.707107
vn 0.334579 0.000000 0.942368
vn -0.070889 0.000000 0.997484
vn -0.070889 0.000000 0.997484
vn -0.334578 0.000000 0.942368
vn -0.334578 0.000000 0.942368
vn -0.334578 0.000000 0.942368
vn -0.070889 0.000000 0.997484
vn -0.334578 0.000000 0.942368
vn -0.334578 0.000000 0.942368
vn -0.707107 0.000000 0.707107
vn -0.707107 0.000000 0.707107
vn -0.707107 0.000000 0.707107
vn -0.334578 0.000000 0.942368
vn 0.997484 0.000000 -0.070889
vn 0.997484 0.000000 -0.070889
vn 0.942368 0.000000 -0.334579
vn 0.942368 0.000000 -0.334579
vn 0.942368 0.000000 -0.334579
vn 0.997484 0.000000 -0.070889
vn 0.942368 0.000000 -0.334579
vn 0.942368 0.000000 -0.334579
vn 0.707107 0.000000 -0.707107
vn 0.707107 0.000000 -0.707107
vn 0.707107 0.000000 -0.707107
vn 0.942368 0.000000 -0.334579
vn 0.997484 0.000000 0.070889
vn 0.997484 0.000000 0.070889
vn 0.942368 0.000000 0.334578
vn 0.942368 0.000000 0.334578
vn 0.942368 0.000000 0.334578
vn 0.997484 0.000000 0.070889
vn 0.942368 0.000000 0.334578
vn 0.942368 0.000000 0.334578
vn 0.707107 0.000000 0.707107
vn 0.707107 0.000000 0.707107
vn 0.707107 0.000000 0.707107
vn 0.942368 0.000000 0.334578
# 276 vertex normals

vt 0.190625 0.520313 0.000000
vt 0.190625 0.729688 0.000000
vt 0.059375 0.729688 0.000000
vt 0.059375 0.520313 0.000000
vt 0.059375 0.520313 0.000000
vt 0.190625 0.520313 0.000000
vt 0.190625 0.729688 0.000000
vt 0.059375 0.729688 0.000000
vt 0.589341 0.009417 0.000000
vt 1.170703 0.009417 0.000000
vt 1.170703 0.048173 0.000000
vt 0.589341 0.048173 0.000000
vt 1.260053 0.009417 0.000000
vt -1.187422 0.009417 0.000000
vt -1.187422 0.048173 0.000000
vt 1.260053 0.048173 0.000000
vt -1.098123 0.009417 0.000000
vt -0.516784 0.009417 0.000000
vt -0.516784 0.048173 0.000000
vt -1.098123 0.048173 0.000000
vt -0.427447 0.009417 0.000000
vt 0.499936 0.009417 0.000000
vt 0.499936 0.048173 0.000000
vt -0.427447 0.048173 0.000000
vt 0.203125 0.520313 0.000000
vt 1.195194 0.009417 0.000000
vt 1.195194 0.048173 0.000000
vt 1.215388 0.009417 0.000000
vt 0.203125 0.729688 0.000000
vt 1.215388 0.048173 0.000000
vt 0.564841 0.048173 0.000000
vt 0.564841 0.009417 0.000000
vt 0.190625 0.742188 0.000000
vt 0.059375 0.742188 0.000000
vt 0.544631 0.048173 0.000000
vt 0.544631 0.009417 0.000000
vt 0.046875 0.729688 0.000000
vt -1.162953 0.009417 0.000000
vt -1.162953 0.048173 0.000000
vt 0.046875 0.520313 0.000000
vt 0.059375 0.507813 0.000000
vt 0.190625 0.507813 0.000000
vt 0.059375 0.507813 0.000000
vt -1.142775 0.009417 0.000000
vt -1.142775 0.048173 0.000000
vt 0.190625 0.507813 0.000000
vt 1.235578 0.048173 0.000000
vt 1.235578 0.009417 0.000000
vt 0.203125 0.520313 0.000000
vt 0.203125 0.729688 0.000000
vt 0.190625 0.742188 0.000000
vt 0.059375 0.742188 0.000000
vt -0.492308 0.009417 0.000000
vt -0.492308 0.048173 0.000000
vt -0.472120 0.009417 0.000000
vt -0.472120 0.048173 0.000000
vt -1.122595 0.048173 0.000000
vt 0.046875 0.729688 0.000000
vt 0.046875 0.520313 0.000000
vt 0.200000 0.510938 0.000000
vt 0.202344 0.514844 0.000000
vt -1.122595 0.009417 0.000000
vt 0.524427 0.009417 0.000000
vt 0.524427 0.048173 0.000000
vt -0.451931 0.048173 0.000000
vt -0.451931 0.009417 0.000000
vt 0.202344 0.735156 0.000000
vt 0.200000 0.739063 0.000000
vt 0.196094 0.741406 0.000000
vt 0.053906 0.741406 0.000000
vt 0.050000 0.739063 0.000000
vt 0.047656 0.735156 0.000000
vt 0.047656 0.514844 0.000000
vt 0.050000 0.510938 0.000000
vt 0.053906 0.508594 0.000000
vt 0.196094 0.508594 0.000000
vt 0.050000 0.510938 0.000000
vt 0.053906 0.508594 0.000000
vt 0.196094 0.508594 0.000000
vt 0.200000 0.510938 0.000000
vt 0.202344 0.514844 0.000000
vt 0.202344 0.735156 0.000000
vt 0.200000 0.739063 0.000000
vt 0.196094 0.741406 0.000000
vt 0.053906 0.741406 0.000000
vt 0.050000 0.739063 0.000000
vt 0.047656 0.735156 0.000000
vt 0.047656 0.514844 0.000000
vt 0.440625 0.270313 0.000000
vt 0.440625 0.479688 0.000000
vt 0.309375 0.479688 0.000000
vt 0.309375 0.270313 0.000000
vt 0.559375 0.770313 0.000000
vt 0.690625 0.770313 0.000000
vt 0.690625 0.979688 0.000000
vt 0.559375 0.979688 0.000000
vt 2.187422 0.009417 0.000000
vt 2.187422 0.048173 0.000000
# 98 texture coords

g rect
usemtl Material__101
s 1
f -88/-10/-276 -49/-9/-275 -61/-8/-274 
f -61/-8/-273 -83/-7/-272 -88/-10/-271 
f -87/-6/-270 -77/-5/-269 -55/-4/-268 
f -55/-4/-267 -43/-3/-266 -87/-6/-265 
s 2
f -82/-89/-264 -34/-88/-263 -71/-87/-262 
f -71/-87/-261 -68/-90/-260 -82/-89/-259 
f -17/-2/-258 -57/-1/-257 -32/-83/-256 
f -32/-83/-255 -39/-86/-254 -17/-2/-253 
f -7/-81/-252 -45/-80/-251 -12/-79/-250 
f -12/-79/-249 -19/-82/-248 -7/-81/-247 
f -66/-77/-246 -73/-76/-245 -2/-75/-244 
f -2/-75/-243 -51/-78/-242 -66/-77/-241 
s 1
f -22/-74/-240 -9/-70/-239 -49/-97/-238 
f -49/-97/-237 -88/-98/-236 -22/-74/-235 
f -48/-66/-234 -63/-65/-233 -61/-96/-232 
f -61/-96/-231 -49/-97/-230 -48/-66/-229 
f -60/-62/-228 -85/-59/-227 -83/-95/-226 
f -83/-95/-225 -61/-96/-224 -60/-62/-223 
f -37/-58/-222 -24/-57/-221 -88/-98/-220 
f -88/-98/-219 -83/-95/-218 -37/-58/-217 
f -27/-56/-216 -79/-53/-215 -77/-93/-214 
f -77/-93/-213 -87/-94/-212 -27/-56/-211 
f -76/-50/-210 -14/-49/-209 -55/-92/-208 
f -55/-92/-207 -77/-93/-206 -76/-50/-205 
f -54/-48/-204 -4/-47/-203 -43/-91/-202 
f -43/-91/-201 -55/-92/-200 -54/-48/-199 
f -42/-41/-198 -29/-40/-197 -87/-94/-196 
f -87/-94/-195 -43/-91/-194 -42/-41/-193 
f -88/-98/-192 -25/-39/-191 -65/-38/-190 
f -65/-38/-189 -22/-74/-188 -88/-98/-187 
f -50/-32/-186 -10/-31/-185 -49/-97/-184 
f -49/-97/-183 -9/-70/-182 -50/-32/-181 
f -49/-97/-180 -10/-31/-179 -6/-30/-178 
f -6/-30/-177 -48/-66/-176 -49/-97/-175 
f -62/-29/-174 -20/-28/-173 -61/-96/-172 
f -61/-96/-171 -63/-65/-170 -62/-29/-169 
f -61/-96/-168 -20/-28/-167 -16/-27/-166 
f -16/-27/-165 -60/-62/-164 -61/-96/-163 
f -84/-26/-162 -40/-25/-161 -83/-95/-160 
f -83/-95/-159 -85/-59/-158 -84/-26/-157 
f -83/-95/-156 -40/-25/-155 -36/-24/-154 
f -36/-24/-153 -37/-58/-152 -83/-95/-151 
f -67/-23/-150 -25/-39/-149 -88/-98/-148 
f -88/-98/-147 -24/-57/-146 -67/-23/-145 
f -87/-94/-144 -30/-22/-143 -26/-21/-142 
f -26/-21/-141 -27/-56/-140 -87/-94/-139 
f -78/-20/-138 -80/-19/-137 -77/-93/-136 
f -77/-93/-135 -79/-53/-134 -78/-20/-133 
f -77/-93/-132 -80/-19/-131 -75/-18/-130 
f -75/-18/-129 -76/-50/-128 -77/-93/-127 
f -56/-17/-126 -58/-16/-125 -55/-92/-124 
f -55/-92/-123 -14/-49/-122 -56/-17/-121 
f -55/-92/-120 -58/-16/-119 -53/-15/-118 
f -53/-15/-117 -54/-48/-116 -55/-92/-115 
f -44/-14/-114 -46/-13/-113 -43/-91/-112 
f -43/-91/-111 -4/-47/-110 -44/-14/-109 
f -43/-91/-108 -46/-13/-107 -41/-12/-106 
f -41/-12/-105 -42/-41/-104 -43/-91/-103 
f -72/-11/-102 -30/-22/-101 -87/-94/-100 
f -87/-94/-99 -29/-40/-98 -72/-11/-97 
s 2
f -34/-88/-96 -82/-89/-95 -81/-73/-94 
f -81/-73/-93 -33/-72/-92 -34/-88/-91 
f -33/-72/-90 -81/-73/-89 -86/-71/-88 
f -86/-71/-87 -35/-69/-86 -33/-72/-85 
f -68/-90/-84 -71/-87/-83 -70/-68/-82 
f -70/-68/-81 -23/-67/-80 -68/-90/-79 
f -23/-67/-78 -70/-68/-77 -74/-64/-76 
f -74/-64/-75 -69/-63/-74 -23/-67/-73 
f -57/-84/-72 -17/-85/-71 -59/-61/-70 
f -59/-61/-69 -13/-60/-68 -57/-84/-67 
f -13/-60/-66 -59/-61/-65 -64/-55/-64 
f -64/-55/-63 -15/-54/-62 -13/-60/-61 
f -39/-86/-60 -32/-83/-59 -31/-52/-58 
f -31/-52/-57 -38/-51/-56 -39/-86/-55 
f -38/-51/-54 -31/-52/-53 -35/-69/-52 
f -35/-69/-51 -86/-71/-50 -38/-51/-49 
f -45/-80/-48 -7/-81/-47 -47/-46/-46 
f -47/-46/-45 -3/-45/-44 -45/-80/-43 
f -3/-45/-42 -47/-46/-41 -52/-44/-40 
f -52/-44/-39 -5/-43/-38 -3/-45/-37 
f -19/-82/-36 -12/-79/-35 -11/-42/-34 
f -11/-42/-33 -18/-37/-32 -19/-82/-31 
f -18/-37/-30 -11/-42/-29 -15/-54/-28 
f -15/-54/-27 -64/-55/-26 -18/-37/-25 
f -73/-76/-24 -66/-77/-23 -21/-36/-22 
f -21/-36/-21 -28/-35/-20 -73/-76/-19 
f -28/-35/-18 -21/-36/-17 -69/-63/-16 
f -69/-63/-15 -74/-64/-14 -28/-35/-13 
f -51/-78/-12 -2/-75/-11 -1/-34/-10 
f -1/-34/-9 -8/-33/-8 -51/-78/-7 
f -8/-33/-6 -1/-34/-5 -5/-43/-4 
f -5/-43/-3 -52/-44/-2 -8/-33/-1 
# 92 faces

