# 3ds Max Wavefront OBJ Exporter v0.97b - (c)2007 guruware
# File Created: 11.03.2017 21:00:18

mtllib Diamond.mtl

#
# object Diamond
#

v  -0.2734 0.0313 0.2898
v  -0.3126 0.0313 0.3124
v  -0.3234 0.0313 0.2686
v  -0.3207 0.0313 0.2921
v  -0.2801 0.0313 0.3436
v  -0.2991 0.0313 0.3296
v  -0.0000 0.0313 0.4929
v  -0.0433 0.0313 0.4804
v  -0.0217 0.0313 0.4897
v  -0.0000 0.0313 0.4476
v  0.0433 0.0313 0.4804
v  0.0217 0.0313 0.4897
v  0.3126 0.0313 0.3124
v  0.2801 0.0313 0.3436
v  0.2991 0.0313 0.3296
v  0.2734 0.0313 0.2898
v  0.3234 0.0313 0.2686
v  0.3207 0.0313 0.2921
v  0.3126 0.0313 -0.3124
v  0.3234 0.0313 -0.2686
v  0.3207 0.0313 -0.2921
v  0.2734 0.0313 -0.2898
v  0.2801 0.0313 -0.3436
v  0.2991 0.0313 -0.3296
v  0.0000 0.0313 -0.4929
v  0.0433 0.0313 -0.4804
v  0.0217 0.0313 -0.4897
v  0.0000 0.0313 -0.4476
v  -0.0433 0.0313 -0.4804
v  -0.0217 0.0313 -0.4897
v  -0.3126 0.0313 -0.3124
v  -0.2801 0.0313 -0.3436
v  -0.2991 0.0313 -0.3296
v  -0.2734 0.0313 -0.2898
v  -0.3234 0.0313 -0.2686
v  -0.3207 0.0313 -0.2921
v  -0.2734 -0.0313 0.2898
v  -0.2801 -0.0313 0.3436
v  -0.0433 -0.0313 0.4804
v  -0.0000 -0.0313 0.4476
v  0.0433 -0.0313 0.4804
v  0.2801 -0.0313 0.3436
v  0.2734 -0.0313 0.2898
v  0.3234 -0.0313 0.2686
v  0.3234 -0.0313 -0.2686
v  0.2734 -0.0313 -0.2898
v  0.2801 -0.0313 -0.3436
v  0.0433 -0.0313 -0.4804
v  0.0000 -0.0313 -0.4476
v  -0.0433 -0.0313 -0.4804
v  -0.2801 -0.0313 -0.3436
v  -0.2734 -0.0313 -0.2898
v  -0.3234 -0.0313 -0.2686
v  -0.3234 -0.0313 0.2686
v  -0.3126 -0.0313 0.3124
v  -0.2991 -0.0313 0.3296
v  -0.0217 -0.0313 0.4897
v  -0.0000 -0.0313 0.4929
v  0.0217 -0.0313 0.4897
v  0.2991 -0.0313 0.3296
v  0.3126 -0.0313 0.3124
v  0.3207 -0.0313 0.2921
v  0.3207 -0.0313 -0.2921
v  0.3126 -0.0313 -0.3124
v  0.2991 -0.0313 -0.3296
v  0.0217 -0.0313 -0.4897
v  0.0000 -0.0313 -0.4929
v  -0.0217 -0.0313 -0.4897
v  -0.2991 -0.0313 -0.3296
v  -0.3126 -0.0313 -0.3124
v  -0.3207 -0.0313 -0.2921
v  -0.3207 -0.0313 0.2921
v  -0.3126 0.0313 0.3124
v  -0.3234 0.0313 0.2686
v  -0.3207 0.0313 0.2921
v  -0.2801 0.0313 0.3436
v  -0.2991 0.0313 0.3296
v  -0.0000 0.0313 0.4929
v  -0.0433 0.0313 0.4804
v  -0.0217 0.0313 0.4897
v  0.0433 0.0313 0.4804
v  0.0217 0.0313 0.4897
v  0.3126 0.0313 0.3124
v  0.2801 0.0313 0.3436
v  0.2991 0.0313 0.3296
v  0.3234 0.0313 0.2686
v  0.3207 0.0313 0.2921
v  0.3126 0.0313 -0.3124
v  0.3234 0.0313 -0.2686
v  0.3207 0.0313 -0.2921
v  0.2801 0.0313 -0.3436
v  0.2991 0.0313 -0.3296
v  0.0000 0.0313 -0.4929
v  0.0433 0.0313 -0.4804
v  0.0217 0.0313 -0.4897
v  -0.0433 0.0313 -0.4804
v  -0.0217 0.0313 -0.4897
v  -0.3126 0.0313 -0.3124
v  -0.2801 0.0313 -0.3436
v  -0.2991 0.0313 -0.3296
v  -0.3234 0.0313 -0.2686
v  -0.3207 0.0313 -0.2921
v  -0.2801 -0.0313 0.3436
v  -0.0433 -0.0313 0.4804
v  0.0433 -0.0313 0.4804
v  0.2801 -0.0313 0.3436
v  0.3234 -0.0313 0.2686
v  0.3234 -0.0313 -0.2686
v  0.2801 -0.0313 -0.3436
v  0.0433 -0.0313 -0.4804
v  -0.0433 -0.0313 -0.4804
v  -0.2801 -0.0313 -0.3436
v  -0.3234 -0.0313 -0.2686
v  -0.3234 -0.0313 0.2686
v  -0.3126 -0.0313 0.3124
v  -0.2991 -0.0313 0.3296
v  -0.0217 -0.0313 0.4897
v  -0.0000 -0.0313 0.4929
v  0.0217 -0.0313 0.4897
v  0.2991 -0.0313 0.3296
v  0.3126 -0.0313 0.3124
v  0.3207 -0.0313 0.2921
v  0.3207 -0.0313 -0.2921
v  0.3126 -0.0313 -0.3124
v  0.2991 -0.0313 -0.3296
v  0.0217 -0.0313 -0.4897
v  0.0000 -0.0313 -0.4929
v  -0.0217 -0.0313 -0.4897
v  -0.2991 -0.0313 -0.3296
v  -0.3126 -0.0313 -0.3124
v  -0.3207 -0.0313 -0.2921
v  -0.3207 -0.0313 0.2921
# 132 vertices

vn 0.0000 1.0000 -0.0000
vn 0.0000 1.0000 -0.0000
vn 0.0000 1.0000 -0.0000
vn 0.0000 1.0000 -0.0000
vn 0.0000 1.0000 -0.0000
vn 0.0000 1.0000 -0.0000
vn 0.0000 1.0000 -0.0000
vn 0.0000 1.0000 -0.0000
vn 0.0000 1.0000 -0.0000
vn 0.0000 1.0000 -0.0000
vn 0.0000 1.0000 -0.0000
vn 0.0000 1.0000 -0.0000
vn 0.0000 1.0000 -0.0000
vn 0.0000 1.0000 -0.0000
vn 0.0000 1.0000 -0.0000
vn 0.0000 1.0000 -0.0000
vn 0.0000 1.0000 -0.0000
vn 0.0000 1.0000 -0.0000
vn 0.0000 1.0000 -0.0000
vn 0.0000 1.0000 -0.0000
vn 0.0000 1.0000 -0.0000
vn 0.0000 1.0000 -0.0000
vn 0.0000 1.0000 -0.0000
vn 0.0000 1.0000 -0.0000
vn 0.0000 1.0000 -0.0000
vn 0.0000 1.0000 -0.0000
vn 0.0000 1.0000 -0.0000
vn 0.0000 1.0000 -0.0000
vn 0.0000 1.0000 -0.0000
vn 0.0000 1.0000 -0.0000
vn 0.0000 1.0000 -0.0000
vn 0.0000 1.0000 -0.0000
vn 0.0000 1.0000 -0.0000
vn 0.0000 1.0000 -0.0000
vn 0.0000 1.0000 -0.0000
vn 0.0000 1.0000 -0.0000
vn 0.0000 1.0000 -0.0000
vn 0.0000 1.0000 -0.0000
vn 0.0000 1.0000 -0.0000
vn 0.0000 1.0000 -0.0000
vn 0.0000 1.0000 -0.0000
vn 0.0000 1.0000 -0.0000
vn 0.0000 1.0000 -0.0000
vn 0.0000 1.0000 -0.0000
vn 0.0000 1.0000 -0.0000
vn 0.0000 1.0000 -0.0000
vn 0.0000 1.0000 -0.0000
vn 0.0000 1.0000 -0.0000
vn 0.4494 0.0000 0.8933
vn 0.4494 0.0000 0.8933
vn 0.5489 0.0000 0.8359
vn 0.5489 0.0000 0.8359
vn 0.5489 0.0000 0.8359
vn 0.4494 0.0000 0.8933
vn -0.5489 0.0000 -0.8359
vn -0.4494 0.0000 -0.8933
vn -0.4494 0.0000 -0.8933
vn -0.4494 0.0000 -0.8933
vn -0.5489 0.0000 -0.8359
vn -0.5489 0.0000 -0.8359
vn 0.0000 1.0000 -0.0000
vn 0.0000 1.0000 -0.0000
vn 0.0000 1.0000 -0.0000
vn 0.0000 1.0000 -0.0000
vn 0.0000 1.0000 -0.0000
vn 0.0000 1.0000 -0.0000
vn 0.0000 1.0000 -0.0000
vn 0.0000 1.0000 -0.0000
vn 0.0000 1.0000 -0.0000
vn 0.0000 1.0000 -0.0000
vn 0.0000 1.0000 -0.0000
vn 0.0000 1.0000 -0.0000
vn 0.0000 1.0000 -0.0000
vn 0.0000 1.0000 -0.0000
vn 0.0000 1.0000 -0.0000
vn 0.0000 1.0000 -0.0000
vn 0.0000 1.0000 -0.0000
vn 0.0000 1.0000 -0.0000
vn 0.0000 1.0000 -0.0000
vn 0.0000 1.0000 -0.0000
vn 0.0000 1.0000 -0.0000
vn 0.0000 1.0000 -0.0000
vn 0.0000 1.0000 -0.0000
vn 0.0000 1.0000 -0.0000
vn 0.0000 1.0000 -0.0000
vn 0.0000 1.0000 -0.0000
vn 0.0000 1.0000 -0.0000
vn 0.0000 1.0000 -0.0000
vn 0.0000 1.0000 -0.0000
vn 0.0000 1.0000 -0.0000
vn 0.0000 1.0000 -0.0000
vn 0.0000 1.0000 -0.0000
vn 0.0000 1.0000 -0.0000
vn 0.0000 1.0000 -0.0000
vn 0.0000 1.0000 -0.0000
vn 0.0000 1.0000 -0.0000
vn 0.0000 1.0000 -0.0000
vn 0.0000 1.0000 -0.0000
vn 0.0000 1.0000 -0.0000
vn 0.0000 1.0000 -0.0000
vn 0.0000 1.0000 -0.0000
vn 0.0000 1.0000 -0.0000
vn 0.0000 1.0000 -0.0000
vn 0.0000 1.0000 -0.0000
vn 0.0000 1.0000 -0.0000
vn 0.0000 1.0000 -0.0000
vn 0.0000 1.0000 -0.0000
vn 0.0000 1.0000 -0.0000
vn 0.0000 1.0000 -0.0000
vn 0.0000 1.0000 -0.0000
vn 0.0000 1.0000 -0.0000
vn 0.0000 1.0000 -0.0000
vn 0.0000 1.0000 -0.0000
vn 0.0000 1.0000 -0.0000
vn 0.0000 1.0000 -0.0000
vn 0.0000 1.0000 -0.0000
vn 0.0000 1.0000 -0.0000
vn 0.0000 1.0000 -0.0000
vn 0.0000 1.0000 -0.0000
vn 0.0000 1.0000 -0.0000
vn 0.0000 1.0000 -0.0000
vn 0.0000 1.0000 -0.0000
vn 0.0000 1.0000 -0.0000
vn 0.0000 1.0000 -0.0000
vn 0.0000 1.0000 -0.0000
vn 0.0000 1.0000 -0.0000
vn 0.0000 1.0000 -0.0000
vn 0.0000 1.0000 -0.0000
vn 0.0000 1.0000 -0.0000
vn 0.0000 1.0000 -0.0000
vn 0.0000 1.0000 -0.0000
vn 0.0000 1.0000 -0.0000
vn -0.4494 0.0000 0.8933
vn -0.4494 0.0000 0.8933
vn -0.2725 0.0000 0.9622
vn -0.2725 0.0000 0.9622
vn -0.2725 0.0000 0.9622
vn -0.4494 0.0000 0.8933
vn -0.2725 0.0000 0.9622
vn 0.0000 0.0000 1.0000
vn 0.0000 0.0000 1.0000
vn 0.0000 0.0000 1.0000
vn -0.2725 0.0000 0.9622
vn -0.2725 0.0000 0.9622
vn 0.5489 0.0000 0.8359
vn 0.6970 0.0000 0.7171
vn 0.6970 0.0000 0.7171
vn 0.6970 0.0000 0.7171
vn 0.5489 0.0000 0.8359
vn 0.5489 0.0000 0.8359
vn 0.9695 0.0000 -0.2451
vn 0.9695 0.0000 -0.2451
vn 0.8660 0.0000 -0.5000
vn 0.8660 0.0000 -0.5000
vn 0.8660 0.0000 -0.5000
vn 0.9695 0.0000 -0.2451
vn -0.6970 0.0000 -0.7171
vn -0.8660 0.0000 -0.5000
vn -0.8660 0.0000 -0.5000
vn -0.8660 0.0000 -0.5000
vn -0.6970 0.0000 -0.7171
vn -0.6970 0.0000 -0.7171
vn -0.9695 0.0000 0.2451
vn -0.8660 0.0000 0.5000
vn -0.8660 0.0000 0.5000
vn -0.8660 0.0000 0.5000
vn -0.9695 0.0000 0.2451
vn -0.9695 0.0000 0.2451
vn -0.6970 0.0000 0.7171
vn -0.8660 0.0000 0.5000
vn -0.8660 0.0000 0.5000
vn -0.8660 0.0000 0.5000
vn -0.6970 0.0000 0.7171
vn -0.6970 0.0000 0.7171
vn 0.2725 0.0000 0.9622
vn 0.0000 0.0000 1.0000
vn 0.0000 0.0000 1.0000
vn 0.0000 0.0000 1.0000
vn 0.2725 0.0000 0.9622
vn 0.2725 0.0000 0.9622
vn 0.9695 0.0000 0.2451
vn 0.9695 0.0000 0.2451
vn 0.9983 0.0000 0.0574
vn 0.9983 0.0000 0.0574
vn 0.9983 0.0000 0.0574
vn 0.9695 0.0000 0.2451
vn -0.4494 0.0000 -0.8933
vn -0.2725 0.0000 -0.9622
vn -0.2725 0.0000 -0.9622
vn -0.2725 0.0000 -0.9622
vn -0.4494 0.0000 -0.8933
vn -0.4494 0.0000 -0.8933
vn -0.2725 0.0000 -0.9622
vn 0.0000 0.0000 -1.0000
vn 0.0000 0.0000 -1.0000
vn 0.0000 0.0000 -1.0000
vn -0.2725 0.0000 -0.9622
vn -0.2725 0.0000 -0.9622
vn 0.0000 -1.0000 -0.0000
vn 0.0000 -1.0000 -0.0000
vn 0.0000 -1.0000 -0.0000
vn 0.0000 -1.0000 -0.0000
vn 0.0000 -1.0000 -0.0000
vn 0.0000 -1.0000 -0.0000
vn 0.0000 -1.0000 -0.0000
vn 0.0000 -1.0000 -0.0000
vn 0.0000 -1.0000 -0.0000
vn 0.0000 -1.0000 -0.0000
vn 0.0000 -1.0000 -0.0000
vn 0.0000 -1.0000 -0.0000
vn 0.0000 -1.0000 -0.0000
vn 0.0000 -1.0000 -0.0000
vn 0.0000 -1.0000 -0.0000
vn 0.0000 -1.0000 -0.0000
vn 0.0000 -1.0000 -0.0000
vn 0.0000 -1.0000 -0.0000
vn 0.0000 -1.0000 -0.0000
vn 0.0000 -1.0000 -0.0000
vn 0.0000 -1.0000 -0.0000
vn 0.0000 -1.0000 -0.0000
vn 0.0000 -1.0000 -0.0000
vn 0.0000 -1.0000 -0.0000
vn 0.0000 -1.0000 -0.0000
vn 0.0000 -1.0000 -0.0000
vn 0.0000 -1.0000 -0.0000
vn 0.0000 -1.0000 -0.0000
vn 0.0000 -1.0000 -0.0000
vn 0.0000 -1.0000 -0.0000
vn 0.0000 -1.0000 -0.0000
vn 0.0000 -1.0000 -0.0000
vn 0.0000 -1.0000 -0.0000
vn 0.0000 -1.0000 -0.0000
vn 0.0000 -1.0000 -0.0000
vn 0.0000 -1.0000 -0.0000
vn 0.0000 -1.0000 -0.0000
vn 0.0000 -1.0000 -0.0000
vn 0.0000 -1.0000 -0.0000
vn 0.0000 -1.0000 -0.0000
vn 0.0000 -1.0000 -0.0000
vn 0.0000 -1.0000 -0.0000
vn 0.0000 -1.0000 -0.0000
vn 0.0000 -1.0000 -0.0000
vn 0.0000 -1.0000 -0.0000
vn 0.0000 -1.0000 -0.0000
vn 0.0000 -1.0000 -0.0000
vn 0.0000 -1.0000 -0.0000
vn -0.4494 0.0000 0.8933
vn -0.5489 0.0000 0.8359
vn -0.5489 0.0000 0.8359
vn -0.5489 0.0000 0.8359
vn -0.4494 0.0000 0.8933
vn -0.4494 0.0000 0.8933
vn 0.9983 0.0000 -0.0574
vn 0.9983 0.0000 0.0574
vn 0.9983 0.0000 0.0574
vn 0.9983 0.0000 0.0574
vn 0.9983 0.0000 -0.0574
vn 0.9983 0.0000 -0.0574
vn 0.4494 0.0000 -0.8933
vn 0.5489 0.0000 -0.8359
vn 0.5489 0.0000 -0.8359
vn 0.5489 0.0000 -0.8359
vn 0.4494 0.0000 -0.8933
vn 0.4494 0.0000 -0.8933
vn -0.9983 0.0000 0.0574
vn -0.9983 0.0000 -0.0574
vn -0.9983 0.0000 -0.0574
vn -0.9983 0.0000 -0.0574
vn -0.9983 0.0000 0.0574
vn -0.9983 0.0000 0.0574
vn 0.0000 -1.0000 -0.0000
vn 0.0000 -1.0000 -0.0000
vn 0.0000 -1.0000 -0.0000
vn 0.0000 -1.0000 -0.0000
vn 0.0000 -1.0000 -0.0000
vn 0.0000 -1.0000 -0.0000
vn 0.0000 -1.0000 -0.0000
vn 0.0000 -1.0000 -0.0000
vn 0.0000 -1.0000 -0.0000
vn 0.0000 -1.0000 -0.0000
vn 0.0000 -1.0000 -0.0000
vn 0.0000 -1.0000 -0.0000
vn 0.0000 -1.0000 -0.0000
vn 0.0000 -1.0000 -0.0000
vn 0.0000 -1.0000 -0.0000
vn 0.0000 -1.0000 -0.0000
vn 0.0000 -1.0000 -0.0000
vn 0.0000 -1.0000 -0.0000
vn 0.0000 -1.0000 -0.0000
vn 0.0000 -1.0000 -0.0000
vn 0.0000 -1.0000 -0.0000
vn 0.0000 -1.0000 -0.0000
vn 0.0000 -1.0000 -0.0000
vn 0.0000 -1.0000 -0.0000
vn 0.0000 -1.0000 -0.0000
vn 0.0000 -1.0000 -0.0000
vn 0.0000 -1.0000 -0.0000
vn 0.0000 -1.0000 -0.0000
vn 0.0000 -1.0000 -0.0000
vn 0.0000 -1.0000 -0.0000
vn 0.0000 -1.0000 -0.0000
vn 0.0000 -1.0000 -0.0000
vn 0.0000 -1.0000 -0.0000
vn 0.0000 -1.0000 -0.0000
vn 0.0000 -1.0000 -0.0000
vn 0.0000 -1.0000 -0.0000
vn 0.0000 -1.0000 -0.0000
vn 0.0000 -1.0000 -0.0000
vn 0.0000 -1.0000 -0.0000
vn 0.0000 -1.0000 -0.0000
vn 0.0000 -1.0000 -0.0000
vn 0.0000 -1.0000 -0.0000
vn 0.0000 -1.0000 -0.0000
vn 0.0000 -1.0000 -0.0000
vn 0.0000 -1.0000 -0.0000
vn 0.0000 -1.0000 -0.0000
vn 0.0000 -1.0000 -0.0000
vn 0.0000 -1.0000 -0.0000
vn 0.0000 -1.0000 -0.0000
vn 0.0000 -1.0000 -0.0000
vn 0.0000 -1.0000 -0.0000
vn 0.0000 -1.0000 -0.0000
vn 0.0000 -1.0000 -0.0000
vn 0.0000 -1.0000 -0.0000
vn 0.0000 -1.0000 -0.0000
vn 0.0000 -1.0000 -0.0000
vn 0.0000 -1.0000 -0.0000
vn 0.0000 -1.0000 -0.0000
vn 0.0000 -1.0000 -0.0000
vn 0.0000 -1.0000 -0.0000
vn 0.0000 -1.0000 -0.0000
vn 0.0000 -1.0000 -0.0000
vn 0.0000 -1.0000 -0.0000
vn 0.0000 -1.0000 -0.0000
vn 0.0000 -1.0000 -0.0000
vn 0.0000 -1.0000 -0.0000
vn 0.0000 -1.0000 -0.0000
vn 0.0000 -1.0000 -0.0000
vn 0.0000 -1.0000 -0.0000
vn 0.0000 -1.0000 -0.0000
vn 0.0000 -1.0000 -0.0000
vn 0.0000 -1.0000 -0.0000
vn 0.6970 0.0000 0.7171
vn 0.8660 0.0000 0.5000
vn 0.8660 0.0000 0.5000
vn 0.8660 0.0000 0.5000
vn 0.6970 0.0000 0.7171
vn 0.6970 0.0000 0.7171
vn 0.9695 0.0000 -0.2451
vn 0.9695 0.0000 -0.2451
vn 0.9983 0.0000 -0.0574
vn 0.9983 0.0000 -0.0574
vn 0.9983 0.0000 -0.0574
vn 0.9695 0.0000 -0.2451
vn 0.2725 0.0000 -0.9622
vn 0.2725 0.0000 -0.9622
vn 0.4494 0.0000 -0.8933
vn 0.4494 0.0000 -0.8933
vn 0.4494 0.0000 -0.8933
vn 0.2725 0.0000 -0.9622
vn 0.0000 0.0000 -1.0000
vn 0.0000 0.0000 -1.0000
vn 0.2725 0.0000 -0.9622
vn 0.2725 0.0000 -0.9622
vn 0.2725 0.0000 -0.9622
vn 0.0000 0.0000 -1.0000
vn -0.6970 0.0000 -0.7171
vn -0.6970 0.0000 -0.7171
vn -0.5489 0.0000 -0.8359
vn -0.5489 0.0000 -0.8359
vn -0.5489 0.0000 -0.8359
vn -0.6970 0.0000 -0.7171
vn -0.9695 0.0000 0.2451
vn -0.9695 0.0000 0.2451
vn -0.9983 0.0000 0.0574
vn -0.9983 0.0000 0.0574
vn -0.9983 0.0000 0.0574
vn -0.9695 0.0000 0.2451
vn -0.6970 0.0000 0.7171
vn -0.6970 0.0000 0.7171
vn -0.5489 0.0000 0.8359
vn -0.5489 0.0000 0.8359
vn -0.5489 0.0000 0.8359
vn -0.6970 0.0000 0.7171
vn 0.4494 0.0000 0.8933
vn 0.2725 0.0000 0.9622
vn 0.2725 0.0000 0.9622
vn 0.2725 0.0000 0.9622
vn 0.4494 0.0000 0.8933
vn 0.4494 0.0000 0.8933
vn 0.8660 0.0000 0.5000
vn 0.8660 0.0000 0.5000
vn 0.9695 0.0000 0.2451
vn 0.9695 0.0000 0.2451
vn 0.9695 0.0000 0.2451
vn 0.8660 0.0000 0.5000
vn 0.6970 0.0000 -0.7171
vn 0.6970 0.0000 -0.7171
vn 0.5489 0.0000 -0.8359
vn 0.5489 0.0000 -0.8359
vn 0.5489 0.0000 -0.8359
vn 0.6970 0.0000 -0.7171
vn 0.6970 0.0000 -0.7171
vn 0.8660 0.0000 -0.5000
vn 0.8660 0.0000 -0.5000
vn 0.8660 0.0000 -0.5000
vn 0.6970 0.0000 -0.7171
vn 0.6970 0.0000 -0.7171
vn -0.9695 0.0000 -0.2451
vn -0.9695 0.0000 -0.2451
vn -0.9983 0.0000 -0.0574
vn -0.9983 0.0000 -0.0574
vn -0.9983 0.0000 -0.0574
vn -0.9695 0.0000 -0.2451
vn -0.8660 0.0000 -0.5000
vn -0.8660 0.0000 -0.5000
vn -0.9695 0.0000 -0.2451
vn -0.9695 0.0000 -0.2451
vn -0.9695 0.0000 -0.2451
vn -0.8660 0.0000 -0.5000
# 420 vertex normals

vt 0.1029 0.5941 0.0000
vt 1.4041 0.0951 0.0000
vt 1.0647 0.0951 0.0000
vt 0.2500 0.5092 0.0000
vt 1.0647 0.0299 0.0000
vt 1.4041 0.0299 0.0000
vt 0.3971 0.5941 0.0000
vt -0.2793 0.0951 0.0000
vt -0.6186 0.0951 0.0000
vt 0.3971 0.9059 0.0000
vt -0.6186 0.0299 0.0000
vt -0.2793 0.0299 0.0000
vt 0.2500 0.9908 0.0000
vt 0.9520 0.0951 0.0000
vt 0.9520 0.0299 0.0000
vt 0.1029 0.9059 0.0000
vt 0.9813 0.0299 0.0000
vt 0.9813 0.0951 0.0000
vt 1.0084 0.0299 0.0000
vt 1.0084 0.0951 0.0000
vt 1.4333 0.0299 0.0000
vt 1.4333 0.0951 0.0000
vt -1.1543 0.0951 0.0000
vt -1.1543 0.0299 0.0000
vt -1.1271 0.0299 0.0000
vt -1.1271 0.0951 0.0000
vt -0.2500 0.0951 0.0000
vt -0.2500 0.0299 0.0000
vt -0.2229 0.0299 0.0000
vt -0.2229 0.0951 0.0000
vt 0.5293 0.0951 0.0000
vt 0.5293 0.0299 0.0000
vt 0.5564 0.0299 0.0000
vt 0.5564 0.0951 0.0000
vt 0.5835 0.0951 0.0000
vt 0.5835 0.0299 0.0000
vt 1.0355 0.0951 0.0000
vt 1.0355 0.0299 0.0000
vt 1.5168 0.0951 0.0000
vt 1.4876 0.0951 0.0000
vt 1.4876 0.0299 0.0000
vt 1.5168 0.0299 0.0000
vt -0.6479 0.0951 0.0000
vt -0.6479 0.0299 0.0000
vt -0.6750 0.0951 0.0000
vt -0.6750 0.0299 0.0000
vt 0.6128 0.0951 0.0000
vt 0.6128 0.0299 0.0000
vt -1.1835 0.0299 0.0000
vt -1.1835 0.0951 0.0000
vt -0.7314 0.0299 0.0000
vt -0.7314 0.0951 0.0000
vt -1.0707 0.0951 0.0000
vt -1.0707 0.0299 0.0000
vt 0.5001 0.0299 0.0000
vt 0.5001 0.0951 0.0000
vt 0.8971 0.5941 0.0000
vt 0.7500 0.5092 0.0000
vt -0.1666 0.0951 0.0000
vt 0.6029 0.5941 0.0000
vt 0.6029 0.9059 0.0000
vt -0.1666 0.0299 0.0000
vt 0.7500 0.9908 0.0000
vt 1.4604 0.0299 0.0000
vt 1.4604 0.0951 0.0000
vt 0.8971 0.9059 0.0000
vt -0.7021 0.0299 0.0000
vt -0.7021 0.0951 0.0000
vt -1.1000 0.0951 0.0000
vt -1.1000 0.0299 0.0000
vt -0.1958 0.0951 0.0000
vt -0.1958 0.0299 0.0000
vt 0.5571 0.1667 0.0000
vt 0.6145 0.1336 0.0000
vt 0.6355 0.1336 0.0000
vt 0.6929 0.1667 0.0000
vt 0.7034 0.1849 0.0000
vt 0.7034 0.3151 0.0000
vt 0.6929 0.3333 0.0000
vt 0.6355 0.3664 0.0000
vt 0.6145 0.3664 0.0000
vt 0.5571 0.3333 0.0000
vt 0.5466 0.3151 0.0000
vt 0.5466 0.1849 0.0000
vt 0.8645 0.1336 0.0000
vt 0.8071 0.1667 0.0000
vt 0.8855 0.3664 0.0000
vt 0.9429 0.3333 0.0000
vt 0.5492 0.1743 0.0000
vt 0.5525 0.1701 0.0000
vt 0.6198 0.1313 0.0000
vt 0.6250 0.1305 0.0000
vt 0.6302 0.1313 0.0000
vt 0.6975 0.1701 0.0000
vt 0.7008 0.1743 0.0000
vt 0.7027 0.1792 0.0000
vt 0.7027 0.3208 0.0000
vt 0.7008 0.3257 0.0000
vt 0.6975 0.3299 0.0000
vt 0.6302 0.3687 0.0000
vt 0.6250 0.3695 0.0000
vt 0.6198 0.3687 0.0000
vt 0.5525 0.3299 0.0000
vt 0.5492 0.3257 0.0000
vt 0.5473 0.3208 0.0000
vt 0.5473 0.1792 0.0000
vt 0.8855 0.1336 0.0000
vt 0.8802 0.1313 0.0000
vt 0.8750 0.1305 0.0000
vt 0.8025 0.1701 0.0000
vt 0.7973 0.3208 0.0000
vt 0.7992 0.3257 0.0000
vt 0.9475 0.3299 0.0000
vt 0.9508 0.3257 0.0000
vt 0.9527 0.1792 0.0000
vt 0.9508 0.1743 0.0000
vt 0.9475 0.1701 0.0000
vt 0.8698 0.1313 0.0000
vt 0.7973 0.1792 0.0000
vt 0.7966 0.1849 0.0000
vt 0.8802 0.3687 0.0000
vt 0.8750 0.3695 0.0000
vt 0.9429 0.1667 0.0000
vt 0.7966 0.3151 0.0000
vt 0.8645 0.3664 0.0000
vt 0.8071 0.3333 0.0000
vt 0.9534 0.1849 0.0000
vt 0.9534 0.3151 0.0000
vt 0.7992 0.1743 0.0000
vt 0.8025 0.3299 0.0000
vt 0.8698 0.3687 0.0000
vt 0.9527 0.3208 0.0000
vt 0.5587 0.1798 0.0000
vt 0.6250 0.1415 0.0000
vt 0.6913 0.1798 0.0000
vt 0.6913 0.3202 0.0000
vt 0.6250 0.3585 0.0000
vt 0.5587 0.3202 0.0000
vt 0.9413 0.1798 0.0000
vt 0.8750 0.1415 0.0000
vt 0.8087 0.1798 0.0000
vt 0.8087 0.3202 0.0000
vt 0.8750 0.3585 0.0000
vt 0.9413 0.3202 0.0000
vt 2.1835 0.0299 0.0000
vt 2.1835 0.0951 0.0000
# 146 texture coords

g Diamond
usemtl Material__2
f 1/133/1 76/73/2 79/74/3 
f 79/74/4 10/134/5 1/133/6 
f 10/134/7 81/75/8 84/76/9 
f 84/76/10 16/135/11 10/134/12 
f 16/135/13 86/77/14 89/78/15 
f 89/78/16 22/136/17 16/135/18 
f 22/136/19 91/79/20 94/80/21 
f 94/80/22 28/137/23 22/136/24 
f 28/137/25 96/81/26 99/82/27 
f 99/82/28 34/138/29 28/137/30 
f 34/138/31 35/83/32 74/84/33 
f 74/84/34 1/133/35 34/138/36 
f 28/13/37 34/16/38 1/1/39 
f 1/1/40 10/4/41 16/7/42 
f 28/13/43 1/1/44 16/7/45 
f 28/13/46 16/7/47 22/10/48 
f 11/3/49 105/5/50 106/6/51 
f 106/6/52 14/2/53 11/3/54 
f 32/8/55 29/9/56 111/11/57 
f 111/11/58 112/12/59 32/8/60 
f 1/133/61 73/89/62 77/90/63 
f 77/90/64 76/73/65 1/133/66 
f 9/91/67 78/92/68 10/134/69 
f 10/134/70 79/74/71 9/91/72 
f 10/134/73 78/92/74 82/93/75 
f 82/93/76 81/75/77 10/134/78 
f 15/94/79 83/95/80 16/135/81 
f 16/135/82 84/76/83 15/94/84 
f 16/135/85 83/95/86 87/96/87 
f 87/96/88 86/77/89 16/135/90 
f 21/97/91 88/98/92 22/136/93 
f 22/136/94 89/78/95 21/97/96 
f 22/136/97 88/98/98 92/99/99 
f 92/99/100 91/79/101 22/136/102 
f 27/100/103 93/101/104 28/137/105 
f 28/137/106 94/80/107 27/100/108 
f 28/137/109 93/101/110 97/102/111 
f 97/102/112 96/81/113 28/137/114 
f 33/103/115 98/104/116 34/138/117 
f 34/138/118 99/82/119 33/103/120 
f 34/138/121 98/104/122 102/105/123 
f 102/105/124 35/83/125 34/138/126 
f 4/106/127 73/89/128 1/133/129 
f 1/133/130 74/84/131 4/106/132 
f 8/14/133 104/15/134 117/17/135 
f 117/17/136 80/18/137 8/14/138 
f 117/17/139 118/19/140 7/20/141 
f 7/20/142 80/18/143 117/17/144 
f 106/6/145 120/21/146 85/22/147 
f 85/22/148 14/2/149 106/6/150 
f 90/23/151 123/24/152 124/25/153 
f 124/25/154 19/26/155 90/23/156 
f 129/28/157 130/29/158 31/30/159 
f 31/30/160 100/27/161 129/28/162 
f 132/32/163 115/33/164 2/34/165 
f 2/34/166 75/31/167 132/32/168 
f 6/35/169 2/34/170 115/33/171 
f 115/33/172 116/36/173 6/35/174 
f 12/37/175 7/20/176 118/19/177 
f 118/19/178 119/38/179 12/37/180 
f 18/40/181 122/41/182 107/42/183 
f 107/42/184 17/39/185 18/40/186 
f 29/9/187 30/43/188 128/44/189 
f 128/44/190 111/11/191 29/9/192 
f 30/43/193 25/45/194 127/46/195 
f 127/46/196 128/44/197 30/43/198 
f 37/139/199 40/140/200 39/107/201 
f 39/107/202 38/123/203 37/139/204 
f 40/140/205 43/141/206 42/86/207 
f 42/86/208 41/85/209 40/140/210 
f 43/141/211 46/142/212 45/124/213 
f 45/124/214 44/120/215 43/141/216 
f 46/142/217 49/143/218 48/125/219 
f 48/125/220 47/126/221 46/142/222 
f 49/143/223 52/144/224 51/88/225 
f 51/88/226 50/87/227 49/143/228 
f 52/144/229 37/139/230 54/127/231 
f 54/127/232 53/128/233 52/144/234 
f 49/63/235 46/61/236 43/60/237 
f 43/60/238 40/58/239 37/57/240 
f 49/63/241 43/60/242 37/57/243 
f 49/63/244 37/57/245 52/66/246 
f 8/14/247 5/47/248 103/48/249 
f 103/48/250 104/15/251 8/14/252 
f 20/146/253 17/39/254 107/42/255 
f 107/42/256 108/145/257 20/146/258 
f 26/52/259 23/53/260 109/54/261 
f 109/54/262 110/51/263 26/52/264 
f 3/56/265 101/59/266 113/62/267 
f 113/62/268 114/55/269 3/56/270 
f 37/139/271 38/123/272 56/117/273 
f 56/117/274 55/116/275 37/139/276 
f 57/108/277 39/107/278 40/140/279 
f 40/140/280 58/109/281 57/108/282 
f 40/140/283 41/85/284 59/118/285 
f 59/118/286 58/109/287 40/140/288 
f 60/110/289 42/86/290 43/141/291 
f 43/141/292 61/129/293 60/110/294 
f 43/141/295 44/120/296 62/119/297 
f 62/119/298 61/129/299 43/141/300 
f 63/111/301 45/124/302 46/142/303 
f 46/142/304 64/112/305 63/111/306 
f 46/142/307 47/126/308 65/130/309 
f 65/130/310 64/112/311 46/142/312 
f 66/131/313 48/125/314 49/143/315 
f 49/143/316 67/122/317 66/131/318 
f 49/143/319 50/87/320 68/121/321 
f 68/121/322 67/122/323 49/143/324 
f 69/113/325 51/88/326 52/144/327 
f 52/144/328 70/114/329 69/113/330 
f 52/144/331 53/128/332 71/132/333 
f 71/132/334 70/114/335 52/144/336 
f 72/115/337 54/127/338 37/139/339 
f 37/139/340 55/116/341 72/115/342 
f 120/21/343 121/64/344 13/65/345 
f 13/65/346 85/22/347 120/21/348 
f 123/24/349 90/23/350 20/50/351 
f 20/50/352 108/49/353 123/24/354 
f 126/67/355 95/68/356 26/52/357 
f 26/52/358 110/51/359 126/67/360 
f 127/46/361 25/45/362 95/68/363 
f 95/68/364 126/67/365 127/46/366 
f 129/28/367 100/27/368 32/8/369 
f 32/8/370 112/12/371 129/28/372 
f 132/32/373 75/31/374 3/56/375 
f 3/56/376 114/55/377 132/32/378 
f 6/35/379 116/36/380 103/48/381 
f 103/48/382 5/47/383 6/35/384 
f 11/3/385 12/37/386 119/38/387 
f 119/38/388 105/5/389 11/3/390 
f 13/65/391 121/64/392 122/41/393 
f 122/41/394 18/40/395 13/65/396 
f 24/69/397 125/70/398 109/54/399 
f 109/54/400 23/53/401 24/69/402 
f 24/69/403 19/26/404 124/25/405 
f 124/25/406 125/70/407 24/69/408 
f 36/71/409 131/72/410 113/62/411 
f 113/62/412 101/59/413 36/71/414 
f 31/30/415 130/29/416 131/72/417 
f 131/72/418 36/71/419 31/30/420 
# 140 faces

