# 3ds Max Wavefront OBJ Exporter v0.97b - (c)2007 guruware
# File Created: 11.03.2017 21:15:54

mtllib Diamond.mtl

#
# object Diamond
#

v  -0.2734 0.0313 0.2898
v  -0.3234 0.0313 0.2686
v  -0.3207 0.0313 0.2921
v  -0.2991 0.0313 0.3296
v  -0.0217 0.0313 0.4897
v  -0.0000 0.0313 0.4476
v  0.2991 0.0313 0.3296
v  0.2734 0.0313 0.2898
v  0.2734 0.0313 -0.2898
v  0.0433 0.0313 -0.4804
v  0.0217 0.0313 -0.4897
v  0.0000 0.0313 -0.4476
v  -0.0433 0.0313 -0.4804
v  -0.3126 0.0313 -0.3124
v  -0.2801 0.0313 -0.3436
v  -0.2734 0.0313 -0.2898
v  -0.3207 0.0313 -0.2921
v  -0.2734 -0.0313 0.2898
v  -0.0000 -0.0313 0.4476
v  0.2734 -0.0313 0.2898
v  0.3234 -0.0313 -0.2686
v  0.2734 -0.0313 -0.2898
v  0.0433 -0.0313 -0.4804
v  0.0000 -0.0313 -0.4476
v  -0.0433 -0.0313 -0.4804
v  -0.2734 -0.0313 -0.2898
v  -0.3234 -0.0313 -0.2686
v  -0.3126 -0.0313 0.3124
v  -0.0000 -0.0313 0.4929
v  0.0217 -0.0313 0.4897
v  0.3207 -0.0313 0.2921
v  0.2991 -0.0313 -0.3296
v  -0.0217 -0.0313 -0.4897
v  -0.2991 -0.0313 -0.3296
v  -0.3126 -0.0313 -0.3124
v  -0.3207 -0.0313 -0.2921
v  -0.3126 0.0313 0.3124
v  -0.2801 0.0313 0.3436
v  -0.0000 0.0313 0.4929
v  -0.0433 0.0313 0.4804
v  0.0433 0.0313 0.4804
v  0.0217 0.0313 0.4897
v  0.3126 0.0313 0.3124
v  0.2801 0.0313 0.3436
v  0.3234 0.0313 0.2686
v  0.3207 0.0313 0.2921
v  0.3126 0.0313 -0.3124
v  0.3234 0.0313 -0.2686
v  0.3207 0.0313 -0.2921
v  0.2801 0.0313 -0.3436
v  0.2991 0.0313 -0.3296
v  0.0000 0.0313 -0.4929
v  -0.0217 0.0313 -0.4897
v  -0.2991 0.0313 -0.3296
v  -0.3234 0.0313 -0.2686
v  -0.2801 -0.0313 0.3436
v  -0.0433 -0.0313 0.4804
v  0.0433 -0.0313 0.4804
v  0.2801 -0.0313 0.3436
v  0.3234 -0.0313 0.2686
v  0.2801 -0.0313 -0.3436
v  -0.2801 -0.0313 -0.3436
v  -0.3234 -0.0313 0.2686
v  -0.2991 -0.0313 0.3296
v  -0.0217 -0.0313 0.4897
v  0.2991 -0.0313 0.3296
v  0.3126 -0.0313 0.3124
v  0.3207 -0.0313 -0.2921
v  0.3126 -0.0313 -0.3124
v  0.0217 -0.0313 -0.4897
v  0.0000 -0.0313 -0.4929
v  -0.3207 -0.0313 0.2921
v  -0.3234 0.0313 0.2686
v  -0.3207 0.0313 0.2921
v  -0.2991 0.0313 0.3296
v  -0.0217 0.0313 0.4897
v  0.2991 0.0313 0.3296
v  0.0433 0.0313 -0.4804
v  0.0217 0.0313 -0.4897
v  -0.0433 0.0313 -0.4804
v  -0.3126 0.0313 -0.3124
v  -0.2801 0.0313 -0.3436
v  -0.3207 0.0313 -0.2921
v  0.3234 -0.0313 -0.2686
v  0.0433 -0.0313 -0.4804
v  -0.0433 -0.0313 -0.4804
v  -0.3234 -0.0313 -0.2686
v  -0.3126 -0.0313 0.3124
v  -0.0000 -0.0313 0.4929
v  0.0217 -0.0313 0.4897
v  0.3207 -0.0313 0.2921
v  0.2991 -0.0313 -0.3296
v  -0.0217 -0.0313 -0.4897
v  -0.2991 -0.0313 -0.3296
v  -0.3126 -0.0313 -0.3124
v  -0.3207 -0.0313 -0.2921
v  -0.3126 0.0313 0.3124
v  -0.2801 0.0313 0.3436
v  -0.0000 0.0313 0.4929
v  -0.0433 0.0313 0.4804
v  0.0433 0.0313 0.4804
v  0.0217 0.0313 0.4897
v  0.3126 0.0313 0.3124
v  0.2801 0.0313 0.3436
v  0.3234 0.0313 0.2686
v  0.3207 0.0313 0.2921
v  0.3126 0.0313 -0.3124
v  0.3234 0.0313 -0.2686
v  0.3207 0.0313 -0.2921
v  0.2801 0.0313 -0.3436
v  0.2991 0.0313 -0.3296
v  0.0000 0.0313 -0.4929
v  -0.0217 0.0313 -0.4897
v  -0.2991 0.0313 -0.3296
v  -0.3234 0.0313 -0.2686
v  -0.2801 -0.0313 0.3436
v  -0.0433 -0.0313 0.4804
v  0.0433 -0.0313 0.4804
v  0.2801 -0.0313 0.3436
v  0.3234 -0.0313 0.2686
v  0.2801 -0.0313 -0.3436
v  -0.2801 -0.0313 -0.3436
v  -0.3234 -0.0313 0.2686
v  -0.2991 -0.0313 0.3296
v  -0.0217 -0.0313 0.4897
v  0.2991 -0.0313 0.3296
v  0.3126 -0.0313 0.3124
v  0.3207 -0.0313 -0.2921
v  0.3126 -0.0313 -0.3124
v  0.0217 -0.0313 -0.4897
v  0.0000 -0.0313 -0.4929
v  -0.3207 -0.0313 0.2921
# 132 vertices

vn 0.0000 1.0000 -0.0000
vn 0.0000 1.0000 -0.0000
vn 0.0000 1.0000 -0.0000
vn 0.0000 1.0000 -0.0000
vn 0.0000 1.0000 -0.0000
vn 0.0000 1.0000 -0.0000
vn 0.0000 1.0000 -0.0000
vn 0.0000 1.0000 -0.0000
vn 0.0000 1.0000 -0.0000
vn 0.0000 1.0000 -0.0000
vn 0.0000 1.0000 -0.0000
vn 0.0000 1.0000 -0.0000
vn 0.0000 1.0000 -0.0000
vn 0.0000 1.0000 -0.0000
vn 0.0000 1.0000 -0.0000
vn 0.0000 1.0000 -0.0000
vn 0.0000 1.0000 -0.0000
vn 0.0000 1.0000 -0.0000
vn 0.0000 1.0000 -0.0000
vn 0.0000 1.0000 -0.0000
vn 0.0000 1.0000 -0.0000
vn 0.0000 1.0000 -0.0000
vn 0.0000 1.0000 -0.0000
vn 0.0000 1.0000 -0.0000
vn 0.0000 1.0000 -0.0000
vn 0.0000 1.0000 -0.0000
vn 0.0000 1.0000 -0.0000
vn 0.0000 1.0000 -0.0000
vn 0.0000 1.0000 -0.0000
vn 0.0000 1.0000 -0.0000
vn 0.0000 1.0000 -0.0000
vn 0.0000 1.0000 -0.0000
vn 0.0000 1.0000 -0.0000
vn 0.0000 1.0000 -0.0000
vn 0.0000 1.0000 -0.0000
vn 0.0000 1.0000 -0.0000
vn 0.0000 1.0000 -0.0000
vn 0.0000 1.0000 -0.0000
vn 0.0000 1.0000 -0.0000
vn 0.0000 1.0000 -0.0000
vn 0.0000 1.0000 -0.0000
vn 0.0000 1.0000 -0.0000
vn 0.0000 1.0000 -0.0000
vn 0.0000 1.0000 -0.0000
vn 0.0000 1.0000 -0.0000
vn 0.0000 1.0000 -0.0000
vn 0.0000 1.0000 -0.0000
vn 0.0000 1.0000 -0.0000
vn 0.5489 0.0000 0.8359
vn 0.5489 0.0000 0.8359
vn 0.4494 0.0000 0.8933
vn 0.4494 0.0000 0.8933
vn 0.4494 0.0000 0.8933
vn 0.5489 0.0000 0.8359
vn -0.4494 0.0000 -0.8933
vn -0.5489 0.0000 -0.8359
vn -0.5489 0.0000 -0.8359
vn -0.5489 0.0000 -0.8359
vn -0.4494 0.0000 -0.8933
vn -0.4494 0.0000 -0.8933
vn 0.0000 1.0000 -0.0000
vn 0.0000 1.0000 -0.0000
vn 0.0000 1.0000 -0.0000
vn 0.0000 1.0000 -0.0000
vn 0.0000 1.0000 -0.0000
vn 0.0000 1.0000 -0.0000
vn 0.0000 1.0000 -0.0000
vn 0.0000 1.0000 -0.0000
vn 0.0000 1.0000 -0.0000
vn 0.0000 1.0000 -0.0000
vn 0.0000 1.0000 -0.0000
vn 0.0000 1.0000 -0.0000
vn 0.0000 1.0000 -0.0000
vn 0.0000 1.0000 -0.0000
vn 0.0000 1.0000 -0.0000
vn 0.0000 1.0000 -0.0000
vn 0.0000 1.0000 -0.0000
vn 0.0000 1.0000 -0.0000
vn 0.0000 1.0000 -0.0000
vn 0.0000 1.0000 -0.0000
vn 0.0000 1.0000 -0.0000
vn 0.0000 1.0000 -0.0000
vn 0.0000 1.0000 -0.0000
vn 0.0000 1.0000 -0.0000
vn 0.0000 1.0000 -0.0000
vn 0.0000 1.0000 -0.0000
vn 0.0000 1.0000 -0.0000
vn 0.0000 1.0000 -0.0000
vn 0.0000 1.0000 -0.0000
vn 0.0000 1.0000 -0.0000
vn 0.0000 1.0000 -0.0000
vn 0.0000 1.0000 -0.0000
vn 0.0000 1.0000 -0.0000
vn 0.0000 1.0000 -0.0000
vn 0.0000 1.0000 -0.0000
vn 0.0000 1.0000 -0.0000
vn 0.0000 1.0000 -0.0000
vn 0.0000 1.0000 -0.0000
vn 0.0000 1.0000 -0.0000
vn 0.0000 1.0000 -0.0000
vn 0.0000 1.0000 -0.0000
vn 0.0000 1.0000 -0.0000
vn 0.0000 1.0000 -0.0000
vn 0.0000 1.0000 -0.0000
vn 0.0000 1.0000 -0.0000
vn 0.0000 1.0000 -0.0000
vn 0.0000 1.0000 -0.0000
vn 0.0000 1.0000 -0.0000
vn 0.0000 1.0000 -0.0000
vn 0.0000 1.0000 -0.0000
vn 0.0000 1.0000 -0.0000
vn 0.0000 1.0000 -0.0000
vn 0.0000 1.0000 -0.0000
vn 0.0000 1.0000 -0.0000
vn 0.0000 1.0000 -0.0000
vn 0.0000 1.0000 -0.0000
vn 0.0000 1.0000 -0.0000
vn 0.0000 1.0000 -0.0000
vn 0.0000 1.0000 -0.0000
vn 0.0000 1.0000 -0.0000
vn 0.0000 1.0000 -0.0000
vn 0.0000 1.0000 -0.0000
vn 0.0000 1.0000 -0.0000
vn 0.0000 1.0000 -0.0000
vn 0.0000 1.0000 -0.0000
vn 0.0000 1.0000 -0.0000
vn 0.0000 1.0000 -0.0000
vn 0.0000 1.0000 -0.0000
vn 0.0000 1.0000 -0.0000
vn 0.0000 1.0000 -0.0000
vn 0.0000 1.0000 -0.0000
vn 0.0000 1.0000 -0.0000
vn -0.2725 0.0000 0.9622
vn -0.2725 0.0000 0.9622
vn -0.4494 0.0000 0.8933
vn -0.4494 0.0000 0.8933
vn -0.4494 0.0000 0.8933
vn -0.2725 0.0000 0.9622
vn 0.0000 0.0000 1.0000
vn -0.2725 0.0000 0.9622
vn -0.2725 0.0000 0.9622
vn -0.2725 0.0000 0.9622
vn 0.0000 0.0000 1.0000
vn 0.0000 0.0000 1.0000
vn 0.6970 0.0000 0.7171
vn 0.5489 0.0000 0.8359
vn 0.5489 0.0000 0.8359
vn 0.5489 0.0000 0.8359
vn 0.6970 0.0000 0.7171
vn 0.6970 0.0000 0.7171
vn 0.8660 0.0000 -0.5000
vn 0.8660 0.0000 -0.5000
vn 0.9695 0.0000 -0.2451
vn 0.9695 0.0000 -0.2451
vn 0.9695 0.0000 -0.2451
vn 0.8660 0.0000 -0.5000
vn -0.8660 0.0000 -0.5000
vn -0.6970 0.0000 -0.7171
vn -0.6970 0.0000 -0.7171
vn -0.6970 0.0000 -0.7171
vn -0.8660 0.0000 -0.5000
vn -0.8660 0.0000 -0.5000
vn -0.8660 0.0000 0.5000
vn -0.9695 0.0000 0.2451
vn -0.9695 0.0000 0.2451
vn -0.9695 0.0000 0.2451
vn -0.8660 0.0000 0.5000
vn -0.8660 0.0000 0.5000
vn -0.8660 0.0000 0.5000
vn -0.6970 0.0000 0.7171
vn -0.6970 0.0000 0.7171
vn -0.6970 0.0000 0.7171
vn -0.8660 0.0000 0.5000
vn -0.8660 0.0000 0.5000
vn 0.0000 0.0000 1.0000
vn 0.2725 0.0000 0.9622
vn 0.2725 0.0000 0.9622
vn 0.2725 0.0000 0.9622
vn 0.0000 0.0000 1.0000
vn 0.0000 0.0000 1.0000
vn 0.9983 0.0000 0.0574
vn 0.9983 0.0000 0.0574
vn 0.9695 0.0000 0.2451
vn 0.9695 0.0000 0.2451
vn 0.9695 0.0000 0.2451
vn 0.9983 0.0000 0.0574
vn -0.2725 0.0000 -0.9622
vn -0.4494 0.0000 -0.8933
vn -0.4494 0.0000 -0.8933
vn -0.4494 0.0000 -0.8933
vn -0.2725 0.0000 -0.9622
vn -0.2725 0.0000 -0.9622
vn 0.0000 0.0000 -1.0000
vn -0.2725 0.0000 -0.9622
vn -0.2725 0.0000 -0.9622
vn -0.2725 0.0000 -0.9622
vn 0.0000 0.0000 -1.0000
vn 0.0000 0.0000 -1.0000
vn 0.0000 -1.0000 -0.0000
vn 0.0000 -1.0000 -0.0000
vn 0.0000 -1.0000 -0.0000
vn 0.0000 -1.0000 -0.0000
vn 0.0000 -1.0000 -0.0000
vn 0.0000 -1.0000 -0.0000
vn 0.0000 -1.0000 -0.0000
vn 0.0000 -1.0000 -0.0000
vn 0.0000 -1.0000 -0.0000
vn 0.0000 -1.0000 -0.0000
vn 0.0000 -1.0000 -0.0000
vn 0.0000 -1.0000 -0.0000
vn 0.0000 -1.0000 -0.0000
vn 0.0000 -1.0000 -0.0000
vn 0.0000 -1.0000 -0.0000
vn 0.0000 -1.0000 -0.0000
vn 0.0000 -1.0000 -0.0000
vn 0.0000 -1.0000 -0.0000
vn 0.0000 -1.0000 -0.0000
vn 0.0000 -1.0000 -0.0000
vn 0.0000 -1.0000 -0.0000
vn 0.0000 -1.0000 -0.0000
vn 0.0000 -1.0000 -0.0000
vn 0.0000 -1.0000 -0.0000
vn 0.0000 -1.0000 -0.0000
vn 0.0000 -1.0000 -0.0000
vn 0.0000 -1.0000 -0.0000
vn 0.0000 -1.0000 -0.0000
vn 0.0000 -1.0000 -0.0000
vn 0.0000 -1.0000 -0.0000
vn 0.0000 -1.0000 -0.0000
vn 0.0000 -1.0000 -0.0000
vn 0.0000 -1.0000 -0.0000
vn 0.0000 -1.0000 -0.0000
vn 0.0000 -1.0000 -0.0000
vn 0.0000 -1.0000 -0.0000
vn 0.0000 -1.0000 -0.0000
vn 0.0000 -1.0000 -0.0000
vn 0.0000 -1.0000 -0.0000
vn 0.0000 -1.0000 -0.0000
vn 0.0000 -1.0000 -0.0000
vn 0.0000 -1.0000 -0.0000
vn 0.0000 -1.0000 -0.0000
vn 0.0000 -1.0000 -0.0000
vn 0.0000 -1.0000 -0.0000
vn 0.0000 -1.0000 -0.0000
vn 0.0000 -1.0000 -0.0000
vn 0.0000 -1.0000 -0.0000
vn -0.5489 0.0000 0.8359
vn -0.4494 0.0000 0.8933
vn -0.4494 0.0000 0.8933
vn -0.4494 0.0000 0.8933
vn -0.5489 0.0000 0.8359
vn -0.5489 0.0000 0.8359
vn 0.9983 0.0000 0.0574
vn 0.9983 0.0000 -0.0574
vn 0.9983 0.0000 -0.0574
vn 0.9983 0.0000 -0.0574
vn 0.9983 0.0000 0.0574
vn 0.9983 0.0000 0.0574
vn 0.5489 0.0000 -0.8359
vn 0.4494 0.0000 -0.8933
vn 0.4494 0.0000 -0.8933
vn 0.4494 0.0000 -0.8933
vn 0.5489 0.0000 -0.8359
vn 0.5489 0.0000 -0.8359
vn -0.9983 0.0000 -0.0574
vn -0.9983 0.0000 0.0574
vn -0.9983 0.0000 0.0574
vn -0.9983 0.0000 0.0574
vn -0.9983 0.0000 -0.0574
vn -0.9983 0.0000 -0.0574
vn 0.0000 -1.0000 -0.0000
vn 0.0000 -1.0000 -0.0000
vn 0.0000 -1.0000 -0.0000
vn 0.0000 -1.0000 -0.0000
vn 0.0000 -1.0000 -0.0000
vn 0.0000 -1.0000 -0.0000
vn 0.0000 -1.0000 -0.0000
vn 0.0000 -1.0000 -0.0000
vn 0.0000 -1.0000 -0.0000
vn 0.0000 -1.0000 -0.0000
vn 0.0000 -1.0000 -0.0000
vn 0.0000 -1.0000 -0.0000
vn 0.0000 -1.0000 -0.0000
vn 0.0000 -1.0000 -0.0000
vn 0.0000 -1.0000 -0.0000
vn 0.0000 -1.0000 -0.0000
vn 0.0000 -1.0000 -0.0000
vn 0.0000 -1.0000 -0.0000
vn 0.0000 -1.0000 -0.0000
vn 0.0000 -1.0000 -0.0000
vn 0.0000 -1.0000 -0.0000
vn 0.0000 -1.0000 -0.0000
vn 0.0000 -1.0000 -0.0000
vn 0.0000 -1.0000 -0.0000
vn 0.0000 -1.0000 -0.0000
vn 0.0000 -1.0000 -0.0000
vn 0.0000 -1.0000 -0.0000
vn 0.0000 -1.0000 -0.0000
vn 0.0000 -1.0000 -0.0000
vn 0.0000 -1.0000 -0.0000
vn 0.0000 -1.0000 -0.0000
vn 0.0000 -1.0000 -0.0000
vn 0.0000 -1.0000 -0.0000
vn 0.0000 -1.0000 -0.0000
vn 0.0000 -1.0000 -0.0000
vn 0.0000 -1.0000 -0.0000
vn 0.0000 -1.0000 -0.0000
vn 0.0000 -1.0000 -0.0000
vn 0.0000 -1.0000 -0.0000
vn 0.0000 -1.0000 -0.0000
vn 0.0000 -1.0000 -0.0000
vn 0.0000 -1.0000 -0.0000
vn 0.0000 -1.0000 -0.0000
vn 0.0000 -1.0000 -0.0000
vn 0.0000 -1.0000 -0.0000
vn 0.0000 -1.0000 -0.0000
vn 0.0000 -1.0000 -0.0000
vn 0.0000 -1.0000 -0.0000
vn 0.0000 -1.0000 -0.0000
vn 0.0000 -1.0000 -0.0000
vn 0.0000 -1.0000 -0.0000
vn 0.0000 -1.0000 -0.0000
vn 0.0000 -1.0000 -0.0000
vn 0.0000 -1.0000 -0.0000
vn 0.0000 -1.0000 -0.0000
vn 0.0000 -1.0000 -0.0000
vn 0.0000 -1.0000 -0.0000
vn 0.0000 -1.0000 -0.0000
vn 0.0000 -1.0000 -0.0000
vn 0.0000 -1.0000 -0.0000
vn 0.0000 -1.0000 -0.0000
vn 0.0000 -1.0000 -0.0000
vn 0.0000 -1.0000 -0.0000
vn 0.0000 -1.0000 -0.0000
vn 0.0000 -1.0000 -0.0000
vn 0.0000 -1.0000 -0.0000
vn 0.0000 -1.0000 -0.0000
vn 0.0000 -1.0000 -0.0000
vn 0.0000 -1.0000 -0.0000
vn 0.0000 -1.0000 -0.0000
vn 0.0000 -1.0000 -0.0000
vn 0.0000 -1.0000 -0.0000
vn 0.8660 0.0000 0.5000
vn 0.6970 0.0000 0.7171
vn 0.6970 0.0000 0.7171
vn 0.6970 0.0000 0.7171
vn 0.8660 0.0000 0.5000
vn 0.8660 0.0000 0.5000
vn 0.9983 0.0000 -0.0574
vn 0.9983 0.0000 -0.0574
vn 0.9695 0.0000 -0.2451
vn 0.9695 0.0000 -0.2451
vn 0.9695 0.0000 -0.2451
vn 0.9983 0.0000 -0.0574
vn 0.4494 0.0000 -0.8933
vn 0.4494 0.0000 -0.8933
vn 0.2725 0.0000 -0.9622
vn 0.2725 0.0000 -0.9622
vn 0.2725 0.0000 -0.9622
vn 0.4494 0.0000 -0.8933
vn 0.2725 0.0000 -0.9622
vn 0.2725 0.0000 -0.9622
vn 0.0000 0.0000 -1.0000
vn 0.0000 0.0000 -1.0000
vn 0.0000 0.0000 -1.0000
vn 0.2725 0.0000 -0.9622
vn -0.5489 0.0000 -0.8359
vn -0.5489 0.0000 -0.8359
vn -0.6970 0.0000 -0.7171
vn -0.6970 0.0000 -0.7171
vn -0.6970 0.0000 -0.7171
vn -0.5489 0.0000 -0.8359
vn -0.9983 0.0000 0.0574
vn -0.9983 0.0000 0.0574
vn -0.9695 0.0000 0.2451
vn -0.9695 0.0000 0.2451
vn -0.9695 0.0000 0.2451
vn -0.9983 0.0000 0.0574
vn -0.5489 0.0000 0.8359
vn -0.5489 0.0000 0.8359
vn -0.6970 0.0000 0.7171
vn -0.6970 0.0000 0.7171
vn -0.6970 0.0000 0.7171
vn -0.5489 0.0000 0.8359
vn 0.2725 0.0000 0.9622
vn 0.4494 0.0000 0.8933
vn 0.4494 0.0000 0.8933
vn 0.4494 0.0000 0.8933
vn 0.2725 0.0000 0.9622
vn 0.2725 0.0000 0.9622
vn 0.9695 0.0000 0.2451
vn 0.9695 0.0000 0.2451
vn 0.8660 0.0000 0.5000
vn 0.8660 0.0000 0.5000
vn 0.8660 0.0000 0.5000
vn 0.9695 0.0000 0.2451
vn 0.5489 0.0000 -0.8359
vn 0.5489 0.0000 -0.8359
vn 0.6970 0.0000 -0.7171
vn 0.6970 0.0000 -0.7171
vn 0.6970 0.0000 -0.7171
vn 0.5489 0.0000 -0.8359
vn 0.8660 0.0000 -0.5000
vn 0.6970 0.0000 -0.7171
vn 0.6970 0.0000 -0.7171
vn 0.6970 0.0000 -0.7171
vn 0.8660 0.0000 -0.5000
vn 0.8660 0.0000 -0.5000
vn -0.9983 0.0000 -0.0574
vn -0.9983 0.0000 -0.0574
vn -0.9695 0.0000 -0.2451
vn -0.9695 0.0000 -0.2451
vn -0.9695 0.0000 -0.2451
vn -0.9983 0.0000 -0.0574
vn -0.9695 0.0000 -0.2451
vn -0.9695 0.0000 -0.2451
vn -0.8660 0.0000 -0.5000
vn -0.8660 0.0000 -0.5000
vn -0.8660 0.0000 -0.5000
vn -0.9695 0.0000 -0.2451
# 420 vertex normals

vt 0.5587 0.1798 0.0000
vt 1.4041 0.0951 0.0000
vt 1.0647 0.0951 0.0000
vt 0.5571 0.1667 0.0000
vt 1.0647 0.0299 0.0000
vt 1.4041 0.0299 0.0000
vt 0.6145 0.1336 0.0000
vt -0.2793 0.0951 0.0000
vt -0.6186 0.0951 0.0000
vt 0.6250 0.1415 0.0000
vt -0.6186 0.0299 0.0000
vt -0.2793 0.0299 0.0000
vt 0.6355 0.1336 0.0000
vt 0.9520 0.0951 0.0000
vt 0.9520 0.0299 0.0000
vt 0.6929 0.1667 0.0000
vt 0.9813 0.0299 0.0000
vt 0.9813 0.0951 0.0000
vt 1.0084 0.0299 0.0000
vt 1.0084 0.0951 0.0000
vt 1.4333 0.0299 0.0000
vt 1.4333 0.0951 0.0000
vt -1.1543 0.0951 0.0000
vt -1.1543 0.0299 0.0000
vt -1.1271 0.0299 0.0000
vt -1.1271 0.0951 0.0000
vt -0.2500 0.0951 0.0000
vt -0.2500 0.0299 0.0000
vt -0.2229 0.0299 0.0000
vt -0.2229 0.0951 0.0000
vt 0.5293 0.0951 0.0000
vt 0.5293 0.0299 0.0000
vt 0.5564 0.0299 0.0000
vt 0.5564 0.0951 0.0000
vt 0.5835 0.0951 0.0000
vt 0.5835 0.0299 0.0000
vt 1.0355 0.0951 0.0000
vt 1.0355 0.0299 0.0000
vt 1.5168 0.0951 0.0000
vt 1.4876 0.0951 0.0000
vt 1.4876 0.0299 0.0000
vt 1.5168 0.0299 0.0000
vt -0.6479 0.0951 0.0000
vt -0.6479 0.0299 0.0000
vt -0.6750 0.0951 0.0000
vt -0.6750 0.0299 0.0000
vt 0.6128 0.0951 0.0000
vt 0.6128 0.0299 0.0000
vt -1.1835 0.0299 0.0000
vt -1.1835 0.0951 0.0000
vt -0.7314 0.0299 0.0000
vt -0.7314 0.0951 0.0000
vt -1.0707 0.0951 0.0000
vt -1.0707 0.0299 0.0000
vt 0.5001 0.0299 0.0000
vt 0.5001 0.0951 0.0000
vt 0.6913 0.1798 0.0000
vt 0.7034 0.1849 0.0000
vt -0.1666 0.0951 0.0000
vt 0.7034 0.3151 0.0000
vt 0.6913 0.3202 0.0000
vt -0.1666 0.0299 0.0000
vt 0.6929 0.3333 0.0000
vt 1.4604 0.0299 0.0000
vt 1.4604 0.0951 0.0000
vt 0.6355 0.3664 0.0000
vt -0.7021 0.0299 0.0000
vt -0.7021 0.0951 0.0000
vt -1.1000 0.0951 0.0000
vt -1.1000 0.0299 0.0000
vt -0.1958 0.0951 0.0000
vt -0.1958 0.0299 0.0000
vt 0.6250 0.3585 0.0000
vt 0.6145 0.3664 0.0000
vt 0.5571 0.3333 0.0000
vt 0.5587 0.3202 0.0000
vt 0.5466 0.3151 0.0000
vt 0.5466 0.1849 0.0000
vt 0.5492 0.1743 0.0000
vt 0.5525 0.1701 0.0000
vt 0.6198 0.1313 0.0000
vt 0.6250 0.1305 0.0000
vt 0.6302 0.1313 0.0000
vt 0.6975 0.1701 0.0000
vt 0.7008 0.1743 0.0000
vt 0.7027 0.1792 0.0000
vt 0.7027 0.3208 0.0000
vt 0.7008 0.3257 0.0000
vt 0.6975 0.3299 0.0000
vt 0.6302 0.3687 0.0000
vt 0.6250 0.3695 0.0000
vt 0.6198 0.3687 0.0000
vt 0.5525 0.3299 0.0000
vt 0.5492 0.3257 0.0000
vt 0.5473 0.3208 0.0000
vt 0.5473 0.1792 0.0000
vt 0.9413 0.1798 0.0000
vt 0.8750 0.1415 0.0000
vt 0.8855 0.1336 0.0000
vt 0.9429 0.1667 0.0000
vt 0.8087 0.1798 0.0000
vt 0.8071 0.1667 0.0000
vt 0.8645 0.1336 0.0000
vt 0.8087 0.3202 0.0000
vt 0.7966 0.3151 0.0000
vt 0.7966 0.1849 0.0000
vt 0.8750 0.3585 0.0000
vt 0.8645 0.3664 0.0000
vt 0.8071 0.3333 0.0000
vt 0.9413 0.3202 0.0000
vt 0.9429 0.3333 0.0000
vt 0.8855 0.3664 0.0000
vt 0.9534 0.1849 0.0000
vt 0.9534 0.3151 0.0000
vt 0.9475 0.1701 0.0000
vt 0.9508 0.1743 0.0000
vt 0.8750 0.1305 0.0000
vt 0.8802 0.1313 0.0000
vt 0.8698 0.1313 0.0000
vt 0.7992 0.1743 0.0000
vt 0.8025 0.1701 0.0000
vt 0.7973 0.1792 0.0000
vt 0.7992 0.3257 0.0000
vt 0.7973 0.3208 0.0000
vt 0.8025 0.3299 0.0000
vt 0.8750 0.3695 0.0000
vt 0.8698 0.3687 0.0000
vt 0.8802 0.3687 0.0000
vt 0.9508 0.3257 0.0000
vt 0.9475 0.3299 0.0000
vt 0.9527 0.3208 0.0000
vt 0.9527 0.1792 0.0000
vt 2.1835 0.0299 0.0000
vt 2.1835 0.0951 0.0000
vt 0.1029 0.5941 0.0000
vt 0.2500 0.5092 0.0000
vt 0.3971 0.5941 0.0000
vt 0.3971 0.9059 0.0000
vt 0.2500 0.9908 0.0000
vt 0.1029 0.9059 0.0000
vt 0.8971 0.5941 0.0000
vt 0.7500 0.5092 0.0000
vt 0.6029 0.5941 0.0000
vt 0.6029 0.9059 0.0000
vt 0.7500 0.9908 0.0000
vt 0.8971 0.9059 0.0000
# 146 texture coords

g Diamond
usemtl Material__2
f 40/7/1 6/10/2 1/1/3 
f 1/1/4 98/4/5 40/7/6 
f 44/16/7 8/57/8 6/10/9 
f 6/10/10 101/13/11 44/16/12 
f 108/60/13 9/61/14 8/57/15 
f 8/57/16 105/58/17 108/60/18 
f 10/66/19 12/73/20 9/61/21 
f 9/61/22 110/63/23 10/66/24 
f 82/75/25 16/76/26 12/73/27 
f 12/73/28 80/74/29 82/75/30 
f 73/78/31 1/1/32 16/76/33 
f 16/76/34 55/77/35 73/78/36 
f 1/135/37 6/136/38 8/137/39 
f 8/137/40 9/138/41 12/139/42 
f 1/135/43 8/137/44 12/139/45 
f 1/135/46 12/139/47 16/140/48 
f 59/6/49 104/2/50 41/3/51 
f 41/3/52 58/5/53 59/6/54 
f 86/11/55 122/12/56 15/8/57 
f 15/8/58 13/9/59 86/11/60 
f 75/80/61 98/4/62 1/1/63 
f 1/1/64 97/79/65 75/80/66 
f 6/10/67 40/7/68 5/81/69 
f 5/81/70 99/82/71 6/10/72 
f 42/83/73 101/13/74 6/10/75 
f 6/10/76 99/82/77 42/83/78 
f 8/57/79 44/16/80 7/84/81 
f 7/84/82 103/85/83 8/57/84 
f 46/86/85 105/58/86 8/57/87 
f 8/57/88 103/85/89 46/86/90 
f 9/61/91 108/60/92 49/87/93 
f 49/87/94 107/88/95 9/61/96 
f 51/89/97 110/63/98 9/61/99 
f 9/61/100 107/88/101 51/89/102 
f 12/73/103 10/66/104 79/90/105 
f 79/90/106 112/91/107 12/73/108 
f 53/92/109 80/74/110 12/73/111 
f 12/73/112 112/91/113 53/92/114 
f 16/76/115 82/75/116 54/93/117 
f 54/93/118 81/94/119 16/76/120 
f 83/95/121 55/77/122 16/76/123 
f 16/76/124 81/94/125 83/95/126 
f 1/1/127 73/78/128 74/96/129 
f 74/96/130 97/79/131 1/1/132 
f 125/17/133 76/18/134 100/14/135 
f 100/14/136 57/15/137 125/17/138 
f 39/20/139 76/18/140 125/17/141 
f 125/17/142 29/19/143 39/20/144 
f 77/22/145 104/2/146 59/6/147 
f 59/6/148 126/21/149 77/22/150 
f 69/25/151 47/26/152 109/23/153 
f 109/23/154 128/24/155 69/25/156 
f 14/30/157 114/27/158 34/28/159 
f 34/28/160 95/29/161 14/30/162 
f 37/34/163 3/31/164 132/32/165 
f 132/32/166 28/33/167 37/34/168 
f 28/33/169 124/36/170 4/35/171 
f 4/35/172 37/34/173 28/33/174 
f 29/19/175 90/38/176 102/37/177 
f 102/37/178 39/20/179 29/19/180 
f 60/42/181 45/39/182 106/40/183 
f 106/40/184 91/41/185 60/42/186 
f 33/44/187 86/11/188 13/9/189 
f 13/9/190 113/43/191 33/44/192 
f 71/46/193 33/44/194 113/43/195 
f 113/43/196 52/45/197 71/46/198 
f 117/99/199 116/100/200 18/97/201 
f 18/97/202 19/98/203 117/99/204 
f 119/102/205 118/103/206 19/98/207 
f 19/98/208 20/101/209 119/102/210 
f 84/105/211 120/106/212 20/101/213 
f 20/101/214 22/104/215 84/105/216 
f 23/108/217 121/109/218 22/104/219 
f 22/104/220 24/107/221 23/108/222 
f 62/111/223 25/112/224 24/107/225 
f 24/107/226 26/110/227 62/111/228 
f 63/113/229 87/114/230 26/110/231 
f 26/110/232 18/97/233 63/113/234 
f 20/143/235 19/142/236 18/141/237 
f 18/141/238 26/146/239 24/145/240 
f 20/143/241 18/141/242 24/145/243 
f 20/143/244 24/145/245 22/144/246 
f 56/48/247 57/15/248 100/14/249 
f 100/14/250 38/47/251 56/48/252 
f 60/42/253 21/133/254 48/134/255 
f 48/134/256 45/39/257 60/42/258 
f 61/54/259 85/51/260 78/52/261 
f 78/52/262 50/53/263 61/54/264 
f 27/62/265 123/55/266 2/56/267 
f 2/56/268 115/59/269 27/62/270 
f 64/115/271 88/116/272 18/97/273 
f 18/97/274 116/100/275 64/115/276 
f 19/98/277 89/117/278 65/118/279 
f 65/118/280 117/99/281 19/98/282 
f 30/119/283 89/117/284 19/98/285 
f 19/98/286 118/103/287 30/119/288 
f 20/101/289 127/120/290 66/121/291 
f 66/121/292 119/102/293 20/101/294 
f 31/122/295 127/120/296 20/101/297 
f 20/101/298 120/106/299 31/122/300 
f 22/104/301 129/123/302 68/124/303 
f 68/124/304 84/105/305 22/104/306 
f 32/125/307 129/123/308 22/104/309 
f 22/104/310 121/109/311 32/125/312 
f 24/107/313 131/126/314 70/127/315 
f 70/127/316 23/108/317 24/107/318 
f 93/128/319 131/126/320 24/107/321 
f 24/107/322 25/112/323 93/128/324 
f 26/110/325 35/129/326 94/130/327 
f 94/130/328 62/111/329 26/110/330 
f 36/131/331 35/129/332 26/110/333 
f 26/110/334 87/114/335 36/131/336 
f 18/97/337 88/116/338 72/132/339 
f 72/132/340 63/113/341 18/97/342 
f 43/65/343 77/22/344 126/21/345 
f 126/21/346 67/64/347 43/65/348 
f 48/50/349 21/49/350 128/24/351 
f 128/24/352 109/23/353 48/50/354 
f 78/52/355 85/51/356 130/67/357 
f 130/67/358 11/68/359 78/52/360 
f 11/68/361 130/67/362 71/46/363 
f 71/46/364 52/45/365 11/68/366 
f 15/8/367 122/12/368 34/28/369 
f 34/28/370 114/27/371 15/8/372 
f 2/56/373 123/55/374 132/32/375 
f 132/32/376 3/31/377 2/56/378 
f 56/48/379 38/47/380 4/35/381 
f 4/35/382 124/36/383 56/48/384 
f 90/38/385 58/5/386 41/3/387 
f 41/3/388 102/37/389 90/38/390 
f 91/41/391 106/40/392 43/65/393 
f 43/65/394 67/64/395 91/41/396 
f 61/54/397 50/53/398 111/69/399 
f 111/69/400 92/70/401 61/54/402 
f 69/25/403 92/70/404 111/69/405 
f 111/69/406 47/26/407 69/25/408 
f 27/62/409 115/59/410 17/71/411 
f 17/71/412 96/72/413 27/62/414 
f 96/72/415 17/71/416 14/30/417 
f 14/30/418 95/29/419 96/72/420 
# 140 faces

