# 3ds Max Wavefront OBJ Exporter v0.97b - (c)2007 guruware
# File Created: 11.03.2017 21:15:55

mtllib Fan.mtl

#
# object Fan
#

v  -0.0000 0.0313 -0.3618
v  -0.4064 0.0313 -0.1249
v  -0.2910 0.0313 -0.2261
v  -0.1548 0.0313 -0.2868
v  -0.0000 0.0313 -0.3118
v  0.1548 0.0313 -0.2868
v  0.2910 0.0313 -0.2261
v  0.4064 0.0313 -0.1249
v  -0.0000 0.0313 0.2925
v  0.4373 0.0313 -0.1566
v  0.4513 0.0313 -0.1396
v  -0.0174 0.0313 0.3418
v  0.0349 0.0313 0.3283
v  0.0174 0.0313 0.3418
v  -0.4563 0.0313 -0.1223
v  -0.4513 0.0313 -0.1396
v  0.3314 -0.0313 -0.2531
v  0.2910 -0.0313 -0.2261
v  0.4064 -0.0313 -0.1249
v  0.4373 -0.0313 -0.1566
v  -0.0000 -0.0313 0.2925
v  0.0349 -0.0313 0.3283
v  -0.4064 -0.0313 -0.1249
v  -0.4393 -0.0313 -0.0870
v  -0.2910 -0.0313 -0.2261
v  -0.3314 -0.0313 -0.2531
v  -0.1548 -0.0313 -0.2868
v  -0.1704 -0.0313 -0.3343
v  -0.0000 -0.0313 -0.3118
v  -0.0000 -0.0313 -0.3618
v  0.1548 -0.0313 -0.2868
v  0.4523 -0.0313 -0.1048
v  -0.0000 -0.0313 0.3462
v  0.0174 -0.0313 0.3418
v  -0.0174 -0.0313 0.3418
v  -0.4513 -0.0313 -0.1396
v  0.3314 0.0313 -0.2531
v  0.1704 0.0313 -0.3343
v  -0.1704 0.0313 -0.3343
v  -0.3314 0.0313 -0.2531
v  0.4563 0.0313 -0.1223
v  0.4393 0.0313 -0.0870
v  0.4523 0.0313 -0.1048
v  -0.0000 0.0313 0.3462
v  -0.0349 0.0313 0.3283
v  -0.4373 0.0313 -0.1566
v  -0.4393 0.0313 -0.0870
v  -0.4523 0.0313 -0.1048
v  0.4393 -0.0313 -0.0870
v  -0.0349 -0.0313 0.3283
v  -0.4373 -0.0313 -0.1566
v  0.1704 -0.0313 -0.3343
v  0.4563 -0.0313 -0.1223
v  0.4513 -0.0313 -0.1396
v  -0.4563 -0.0313 -0.1223
v  -0.4523 -0.0313 -0.1048
v  -0.0000 0.0313 -0.3618
v  0.4373 0.0313 -0.1566
v  0.4513 0.0313 -0.1396
v  -0.0174 0.0313 0.3418
v  0.0349 0.0313 0.3283
v  0.0174 0.0313 0.3418
v  -0.4563 0.0313 -0.1223
v  -0.4513 0.0313 -0.1396
v  0.3314 -0.0313 -0.2531
v  0.4373 -0.0313 -0.1566
v  0.0349 -0.0313 0.3283
v  -0.4393 -0.0313 -0.0870
v  -0.3314 -0.0313 -0.2531
v  -0.1704 -0.0313 -0.3343
v  -0.0000 -0.0313 -0.3618
v  0.4523 -0.0313 -0.1048
v  -0.0000 -0.0313 0.3462
v  0.0174 -0.0313 0.3418
v  -0.0174 -0.0313 0.3418
v  -0.4513 -0.0313 -0.1396
v  0.3314 0.0313 -0.2531
v  0.1704 0.0313 -0.3343
v  -0.1704 0.0313 -0.3343
v  -0.3314 0.0313 -0.2531
v  0.4563 0.0313 -0.1223
v  0.4393 0.0313 -0.0870
v  0.4523 0.0313 -0.1048
v  -0.0000 0.0313 0.3462
v  -0.0349 0.0313 0.3283
v  -0.4373 0.0313 -0.1566
v  -0.4393 0.0313 -0.0870
v  -0.4523 0.0313 -0.1048
v  0.4393 -0.0313 -0.0870
v  -0.0349 -0.0313 0.3283
v  -0.4373 -0.0313 -0.1566
v  0.1704 -0.0313 -0.3343
v  0.4563 -0.0313 -0.1223
v  0.4513 -0.0313 -0.1396
v  -0.4563 -0.0313 -0.1223
v  -0.4523 -0.0313 -0.1048
# 96 vertices

vn 0.0000 1.0000 -0.0000
vn 0.0000 1.0000 0.0000
vn 0.0000 1.0000 0.0000
vn 0.0000 1.0000 0.0000
vn 0.0000 1.0000 -0.0000
vn 0.0000 1.0000 -0.0000
vn 0.0000 1.0000 0.0000
vn 0.0000 1.0000 0.0000
vn 0.0000 1.0000 -0.0000
vn 0.0000 1.0000 -0.0000
vn -0.0000 1.0000 -0.0000
vn 0.0000 1.0000 0.0000
vn -0.0000 1.0000 0.0000
vn -0.0000 1.0000 -0.0000
vn -0.0000 1.0000 -0.0000
vn -0.0000 1.0000 -0.0000
vn -0.0000 1.0000 0.0000
vn -0.0000 1.0000 0.0000
vn -0.0000 1.0000 -0.0000
vn -0.0000 1.0000 -0.0000
vn -0.0000 1.0000 0.0000
vn -0.0000 1.0000 0.0000
vn 0.0000 1.0000 -0.0000
vn -0.0000 1.0000 -0.0000
vn -0.0000 1.0000 -0.0000
vn 0.0000 1.0000 -0.0000
vn -0.0000 1.0000 -0.0000
vn -0.0000 1.0000 -0.0000
vn -0.0000 1.0000 -0.0000
vn -0.0000 1.0000 -0.0000
vn -0.0000 1.0000 -0.0000
vn -0.0000 1.0000 -0.0000
vn -0.0000 1.0000 -0.0000
vn -0.0000 1.0000 -0.0000
vn -0.0000 1.0000 -0.0000
vn -0.0000 1.0000 -0.0000
vn -0.0000 1.0000 -0.0000
vn -0.0000 1.0000 -0.0000
vn 0.0000 1.0000 -0.0000
vn 0.0000 1.0000 -0.0000
vn 0.0000 1.0000 -0.0000
vn -0.0000 1.0000 -0.0000
vn 0.0000 1.0000 -0.0000
vn 0.0000 1.0000 -0.0000
vn 0.0000 1.0000 0.0000
vn 0.0000 1.0000 0.0000
vn 0.0000 1.0000 0.0000
vn 0.0000 1.0000 -0.0000
vn 0.0000 1.0000 -0.0000
vn 0.0000 1.0000 0.0000
vn 0.0000 1.0000 -0.0000
vn 0.0000 1.0000 -0.0000
vn -0.0000 1.0000 -0.0000
vn -0.0000 1.0000 -0.0000
vn -0.0000 1.0000 -0.0000
vn 0.0000 1.0000 -0.0000
vn -0.0000 1.0000 0.0000
vn 0.0000 1.0000 -0.0000
vn -0.0000 1.0000 -0.0000
vn -0.0000 1.0000 0.0000
vn 0.0000 1.0000 -0.0000
vn 0.0000 1.0000 -0.0000
vn -0.0000 1.0000 0.0000
vn 0.0000 1.0000 -0.0000
vn -0.0000 1.0000 0.0000
vn -0.0000 1.0000 -0.0000
vn -0.6650 0.0000 0.7468
vn -0.6650 0.0000 0.7468
vn -0.7643 0.0000 0.6449
vn -0.7643 0.0000 0.6449
vn -0.7643 0.0000 0.6449
vn -0.6650 0.0000 0.7468
vn -0.7249 0.0000 -0.6889
vn -0.7249 0.0000 -0.6889
vn -0.5673 0.0000 -0.8235
vn -0.5673 0.0000 -0.8235
vn -0.5673 0.0000 -0.8235
vn -0.7249 0.0000 -0.6889
vn -0.5673 0.0000 -0.8235
vn -0.5673 0.0000 -0.8235
vn -0.3085 0.0000 -0.9512
vn -0.3085 0.0000 -0.9512
vn -0.3085 0.0000 -0.9512
vn -0.5673 0.0000 -0.8235
vn -0.3085 0.0000 -0.9512
vn -0.3085 0.0000 -0.9512
vn 0.0000 0.0000 -1.0000
vn 0.0000 0.0000 -1.0000
vn 0.0000 0.0000 -1.0000
vn -0.3085 0.0000 -0.9512
vn 0.0000 1.0000 -0.0000
vn 0.0000 1.0000 -0.0000
vn 0.0000 1.0000 -0.0000
vn 0.0000 1.0000 -0.0000
vn 0.0000 1.0000 -0.0000
vn 0.0000 1.0000 -0.0000
vn 0.0000 1.0000 -0.0000
vn 0.0000 1.0000 0.0000
vn 0.0000 1.0000 0.0000
vn 0.0000 1.0000 0.0000
vn 0.0000 1.0000 -0.0000
vn 0.0000 1.0000 -0.0000
vn 0.0000 1.0000 -0.0000
vn 0.0000 1.0000 0.0000
vn -0.0000 1.0000 -0.0000
vn -0.0000 1.0000 -0.0000
vn 0.0000 1.0000 -0.0000
vn 0.0000 1.0000 -0.0000
vn -0.0000 1.0000 -0.0000
vn -0.0000 1.0000 -0.0000
vn 0.0000 1.0000 -0.0000
vn 0.0000 1.0000 -0.0000
vn 0.0000 1.0000 -0.0000
vn -0.0000 1.0000 -0.0000
vn -0.0000 1.0000 0.0000
vn -0.0000 1.0000 0.0000
vn -0.0000 1.0000 0.0000
vn -0.0000 1.0000 0.0000
vn -0.0000 1.0000 -0.0000
vn -0.0000 1.0000 0.0000
vn -0.0000 1.0000 0.0000
vn -0.0000 1.0000 -0.0000
vn -0.0000 1.0000 -0.0000
vn -0.0000 1.0000 -0.0000
vn -0.0000 1.0000 -0.0000
vn -0.0000 1.0000 0.0000
vn -0.8844 0.0000 -0.4666
vn -0.7249 0.0000 -0.6889
vn -0.7249 0.0000 -0.6889
vn -0.7249 0.0000 -0.6889
vn -0.8844 0.0000 -0.4666
vn -0.8844 0.0000 -0.4666
vn 0.0000 -1.0000 -0.0000
vn 0.0000 -1.0000 -0.0000
vn 0.0000 -1.0000 0.0000
vn 0.0000 -1.0000 0.0000
vn 0.0000 -1.0000 0.0000
vn 0.0000 -1.0000 -0.0000
vn 0.0000 -1.0000 0.0000
vn -0.0000 -1.0000 -0.0000
vn 0.0000 -1.0000 -0.0000
vn 0.0000 -1.0000 -0.0000
vn 0.0000 -1.0000 0.0000
vn 0.0000 -1.0000 0.0000
vn -0.0000 -1.0000 0.0000
vn -0.0000 -1.0000 0.0000
vn -0.0000 -1.0000 -0.0000
vn -0.0000 -1.0000 -0.0000
vn -0.0000 -1.0000 -0.0000
vn -0.0000 -1.0000 0.0000
vn -0.0000 -1.0000 -0.0000
vn 0.0000 -1.0000 -0.0000
vn -0.0000 -1.0000 0.0000
vn -0.0000 -1.0000 0.0000
vn -0.0000 -1.0000 -0.0000
vn -0.0000 -1.0000 -0.0000
vn -0.0000 -1.0000 -0.0000
vn -0.0000 -1.0000 -0.0000
vn -0.0000 -1.0000 -0.0000
vn -0.0000 -1.0000 -0.0000
vn 0.0000 -1.0000 -0.0000
vn -0.0000 -1.0000 -0.0000
vn -0.0000 -1.0000 -0.0000
vn -0.0000 -1.0000 -0.0000
vn -0.0000 -1.0000 -0.0000
vn -0.0000 -1.0000 -0.0000
vn -0.0000 -1.0000 -0.0000
vn -0.0000 -1.0000 -0.0000
vn -0.0000 -1.0000 -0.0000
vn 0.0000 -1.0000 -0.0000
vn 0.0000 -1.0000 -0.0000
vn 0.0000 -1.0000 -0.0000
vn -0.0000 -1.0000 -0.0000
vn -0.0000 -1.0000 -0.0000
vn 0.0000 -1.0000 -0.0000
vn 0.0000 -1.0000 0.0000
vn 0.0000 -1.0000 0.0000
vn 0.0000 -1.0000 0.0000
vn 0.0000 -1.0000 -0.0000
vn 0.0000 -1.0000 -0.0000
vn 0.0000 -1.0000 -0.0000
vn -0.0000 -1.0000 -0.0000
vn -0.0000 -1.0000 0.0000
vn -0.0000 -1.0000 0.0000
vn 0.0000 -1.0000 -0.0000
vn -0.0000 -1.0000 -0.0000
vn -0.0000 -1.0000 -0.0000
vn -0.0000 -1.0000 -0.0000
vn 0.0000 -1.0000 -0.0000
vn -0.0000 -1.0000 0.0000
vn -0.0000 -1.0000 -0.0000
vn 0.0000 -1.0000 -0.0000
vn 0.0000 -1.0000 -0.0000
vn -0.0000 -1.0000 0.0000
vn 0.0000 -1.0000 -0.0000
vn 0.0000 -1.0000 -0.0000
vn 0.0000 -1.0000 -0.0000
vn 0.0000 -1.0000 0.0000
vn 0.7249 0.0000 -0.6889
vn 0.5673 0.0000 -0.8235
vn 0.5673 0.0000 -0.8235
vn 0.5673 0.0000 -0.8235
vn 0.7249 0.0000 -0.6889
vn 0.7249 0.0000 -0.6889
vn 0.6650 0.0000 0.7468
vn 0.7643 0.0000 0.6449
vn 0.7643 0.0000 0.6449
vn 0.7643 0.0000 0.6449
vn 0.6650 0.0000 0.7468
vn 0.6650 0.0000 0.7468
vn 0.3085 0.0000 -0.9512
vn 0.3085 0.0000 -0.9512
vn 0.0000 0.0000 -1.0000
vn 0.0000 0.0000 -1.0000
vn 0.0000 0.0000 -1.0000
vn 0.3085 0.0000 -0.9512
vn 0.5673 0.0000 -0.8235
vn 0.3085 0.0000 -0.9512
vn 0.3085 0.0000 -0.9512
vn 0.3085 0.0000 -0.9512
vn 0.5673 0.0000 -0.8235
vn 0.5673 0.0000 -0.8235
vn 0.0000 -1.0000 -0.0000
vn 0.0000 -1.0000 -0.0000
vn 0.0000 -1.0000 -0.0000
vn 0.0000 -1.0000 -0.0000
vn 0.0000 -1.0000 -0.0000
vn 0.0000 -1.0000 -0.0000
vn 0.0000 -1.0000 -0.0000
vn 0.0000 -1.0000 -0.0000
vn 0.0000 -1.0000 0.0000
vn 0.0000 -1.0000 0.0000
vn 0.0000 -1.0000 0.0000
vn 0.0000 -1.0000 -0.0000
vn 0.0000 -1.0000 -0.0000
vn 0.0000 -1.0000 -0.0000
vn -0.0000 -1.0000 -0.0000
vn -0.0000 -1.0000 -0.0000
vn 0.0000 -1.0000 0.0000
vn 0.0000 -1.0000 -0.0000
vn -0.0000 -1.0000 -0.0000
vn 0.0000 -1.0000 -0.0000
vn 0.0000 -1.0000 -0.0000
vn 0.0000 -1.0000 -0.0000
vn -0.0000 -1.0000 -0.0000
vn -0.0000 -1.0000 -0.0000
vn -0.0000 -1.0000 0.0000
vn -0.0000 -1.0000 -0.0000
vn -0.0000 -1.0000 0.0000
vn -0.0000 -1.0000 0.0000
vn -0.0000 -1.0000 0.0000
vn -0.0000 -1.0000 0.0000
vn -0.0000 -1.0000 0.0000
vn -0.0000 -1.0000 -0.0000
vn -0.0000 -1.0000 -0.0000
vn -0.0000 -1.0000 -0.0000
vn -0.0000 -1.0000 -0.0000
vn -0.0000 -1.0000 0.0000
vn 0.7643 0.0000 0.6449
vn 0.7643 0.0000 0.6449
vn 0.9105 0.0000 0.4136
vn 0.9105 0.0000 0.4136
vn 0.9105 0.0000 0.4136
vn 0.7643 0.0000 0.6449
vn 0.9105 0.0000 0.4136
vn 0.9105 0.0000 0.4136
vn 0.9996 0.0000 -0.0295
vn 0.9996 0.0000 -0.0295
vn 0.9996 0.0000 -0.0295
vn 0.9105 0.0000 0.4136
vn -0.4384 0.0000 0.8988
vn -0.6650 0.0000 0.7468
vn -0.6650 0.0000 0.7468
vn -0.6650 0.0000 0.7468
vn -0.4384 0.0000 0.8988
vn -0.4384 0.0000 0.8988
vn -0.4384 0.0000 0.8988
vn -0.4384 0.0000 0.8988
vn 0.0000 0.0000 1.0000
vn 0.0000 0.0000 1.0000
vn 0.0000 0.0000 1.0000
vn -0.4384 0.0000 0.8988
vn -0.8844 0.0000 -0.4666
vn -0.8844 0.0000 -0.4666
vn -0.9996 0.0000 -0.0295
vn -0.9996 0.0000 -0.0295
vn -0.9996 0.0000 -0.0295
vn -0.8844 0.0000 -0.4666
vn 0.7249 0.0000 -0.6889
vn 0.7249 0.0000 -0.6889
vn 0.8844 0.0000 -0.4666
vn 0.8844 0.0000 -0.4666
vn 0.8844 0.0000 -0.4666
vn 0.7249 0.0000 -0.6889
vn 0.8844 0.0000 -0.4666
vn 0.8844 0.0000 -0.4666
vn 0.9996 0.0000 -0.0295
vn 0.9996 0.0000 -0.0295
vn 0.9996 0.0000 -0.0295
vn 0.8844 0.0000 -0.4666
vn 0.6650 0.0000 0.7468
vn 0.6650 0.0000 0.7468
vn 0.4384 0.0000 0.8988
vn 0.4384 0.0000 0.8988
vn 0.4384 0.0000 0.8988
vn 0.6650 0.0000 0.7468
vn 0.4384 0.0000 0.8988
vn 0.4384 0.0000 0.8988
vn 0.0000 0.0000 1.0000
vn 0.0000 0.0000 1.0000
vn 0.0000 0.0000 1.0000
vn 0.4384 0.0000 0.8988
vn -0.7643 0.0000 0.6449
vn -0.7643 0.0000 0.6449
vn -0.9105 0.0000 0.4136
vn -0.9105 0.0000 0.4136
vn -0.9105 0.0000 0.4136
vn -0.7643 0.0000 0.6449
vn -0.9105 0.0000 0.4136
vn -0.9105 0.0000 0.4136
vn -0.9996 0.0000 -0.0295
vn -0.9996 0.0000 -0.0295
vn -0.9996 0.0000 -0.0295
vn -0.9105 0.0000 0.4136
# 324 vertex normals

vt 1.1652 0.0951 0.0000
vt 0.7053 0.3114 0.0000
vt 0.6955 0.3048 0.0000
vt 0.4458 0.0951 0.0000
vt 0.4458 0.0299 0.0000
vt 0.7235 0.2803 0.0000
vt 1.1652 0.0299 0.0000
vt 0.3467 0.0951 0.0000
vt 0.7310 0.2879 0.0000
vt 0.1689 0.0951 0.0000
vt 0.1689 0.0299 0.0000
vt 0.7315 0.2711 0.0000
vt 0.3467 0.0299 0.0000
vt 0.6250 0.1791 0.0000
vt -0.0548 0.0951 0.0000
vt 0.6335 0.1704 0.0000
vt -0.0548 0.0299 0.0000
vt 0.6165 0.1704 0.0000
vt -0.2690 0.0951 0.0000
vt -0.2690 0.0299 0.0000
vt 0.3740 0.0299 0.0000
vt 0.3740 0.0951 0.0000
vt -0.7069 0.0299 0.0000
vt -0.7069 0.0951 0.0000
vt -0.8847 0.0951 0.0000
vt -0.8847 0.0299 0.0000
vt -0.9839 0.0299 0.0000
vt -0.9839 0.0951 0.0000
vt 1.2644 0.0951 0.0000
vt 1.2644 0.0299 0.0000
vt -0.4832 0.0951 0.0000
vt -0.4832 0.0299 0.0000
vt -0.9566 0.0299 0.0000
vt -0.9566 0.0951 0.0000
vt -0.9343 0.0299 0.0000
vt -0.9343 0.0951 0.0000
vt 1.1925 0.0299 0.0000
vt 0.5265 0.2803 0.0000
vt 0.5185 0.2711 0.0000
vt 1.1925 0.0951 0.0000
vt 1.2148 0.0299 0.0000
vt 0.5190 0.2879 0.0000
vt 0.5545 0.3048 0.0000
vt 0.5447 0.3114 0.0000
vt 0.5875 0.3195 0.0000
vt 0.5837 0.3310 0.0000
vt 1.2148 0.0951 0.0000
vt 0.6250 0.3256 0.0000
vt 0.3963 0.0299 0.0000
vt 0.3963 0.0951 0.0000
vt -0.9120 0.0951 0.0000
vt -0.9120 0.0299 0.0000
vt 1.2371 0.0951 0.0000
vt 1.2371 0.0299 0.0000
vt 0.4185 0.0951 0.0000
vt 0.4185 0.0299 0.0000
vt 0.6250 0.3377 0.0000
vt 0.6625 0.3195 0.0000
vt 0.6663 0.3310 0.0000
vt 0.7356 0.2797 0.0000
vt 0.7344 0.2838 0.0000
vt 0.7346 0.2754 0.0000
vt 0.6250 0.1661 0.0000
vt 0.6292 0.1672 0.0000
vt 0.6208 0.1672 0.0000
vt 0.5144 0.2797 0.0000
vt 0.5154 0.2754 0.0000
vt 0.5156 0.2838 0.0000
vt 0.7947 0.3114 0.0000
vt 0.7690 0.2879 0.0000
vt 0.7765 0.2803 0.0000
vt 0.8045 0.3048 0.0000
vt 0.7685 0.2711 0.0000
vt 0.8665 0.1704 0.0000
vt 0.8750 0.1791 0.0000
vt 0.8835 0.1704 0.0000
vt 0.9815 0.2711 0.0000
vt 0.9735 0.2803 0.0000
vt 0.9810 0.2879 0.0000
vt 0.9553 0.3114 0.0000
vt 0.9455 0.3048 0.0000
vt 0.9163 0.3310 0.0000
vt 0.9125 0.3195 0.0000
vt 0.8750 0.3377 0.0000
vt 0.8750 0.3256 0.0000
vt 0.8337 0.3310 0.0000
vt 0.8375 0.3195 0.0000
vt 0.7656 0.2838 0.0000
vt 0.7644 0.2797 0.0000
vt 0.7654 0.2754 0.0000
vt 0.8708 0.1672 0.0000
vt 0.8750 0.1661 0.0000
vt 0.8792 0.1672 0.0000
vt 0.9846 0.2754 0.0000
vt 0.9856 0.2797 0.0000
vt 0.9844 0.2838 0.0000
vt 1.9839 0.0299 0.0000
vt 1.9839 0.0951 0.0000
vt 0.4066 0.8716 0.0000
vt 0.4687 0.8172 0.0000
vt 0.2500 0.5926 0.0000
vt 0.0313 0.8172 0.0000
vt 0.0934 0.8716 0.0000
vt 0.1667 0.9043 0.0000
vt 0.2500 0.9178 0.0000
vt 0.3333 0.9043 0.0000
vt 0.5313 0.8172 0.0000
vt 0.5934 0.8716 0.0000
vt 0.7500 0.5926 0.0000
vt 0.9687 0.8172 0.0000
vt 0.9066 0.8716 0.0000
vt 0.8333 0.9043 0.0000
vt 0.7500 0.9178 0.0000
vt 0.6667 0.9043 0.0000
# 114 texture coords

g Fan
usemtl Material__2
f 58/9/1 77/2/2 7/3/3 
f 7/3/4 8/6/5 58/9/6 
f 61/16/7 82/12/8 8/6/9 
f 8/6/10 9/14/11 61/16/12 
f 87/39/13 85/18/14 9/14/15 
f 9/14/16 2/38/17 87/39/18 
f 80/44/19 86/42/20 2/38/21 
f 2/38/22 3/43/23 80/44/24 
f 80/44/25 3/43/26 4/45/27 
f 4/45/28 79/46/29 80/44/30 
f 79/46/31 4/45/32 5/48/33 
f 5/48/34 57/57/35 79/46/36 
f 57/57/37 5/48/38 6/58/39 
f 6/58/40 38/59/41 57/57/42 
f 38/59/43 6/58/44 7/3/45 
f 7/3/46 77/2/47 38/59/48 
f 8/100/49 7/99/50 6/106/51 
f 6/106/52 5/105/53 4/104/54 
f 4/104/55 3/103/56 2/102/57 
f 6/106/58 4/104/59 2/102/60 
f 8/100/61 6/106/62 2/102/63 
f 8/100/64 2/102/65 9/101/66 
f 50/7/67 45/1/68 47/4/69 
f 47/4/70 24/5/71 50/7/72 
f 51/13/73 46/8/74 40/10/75 
f 40/10/76 26/11/77 51/13/78 
f 26/11/79 40/10/80 39/15/81 
f 39/15/82 28/17/83 26/11/84 
f 28/17/85 39/15/86 1/19/87 
f 1/19/88 71/20/89 28/17/90 
f 11/61/91 58/9/92 8/6/93 
f 8/6/94 81/60/95 11/61/96 
f 8/6/97 82/12/98 43/62/99 
f 43/62/100 81/60/101 8/6/102 
f 14/64/103 61/16/104 9/14/105 
f 9/14/106 84/63/107 14/64/108 
f 9/14/109 85/18/110 12/65/111 
f 12/65/112 84/63/113 9/14/114 
f 88/67/115 87/39/116 2/38/117 
f 2/38/118 63/66/119 88/67/120 
f 2/38/121 86/42/122 16/68/123 
f 16/68/124 63/66/125 2/38/126 
f 64/22/127 46/8/128 51/13/129 
f 51/13/130 76/21/131 64/22/132 
f 20/70/133 19/71/134 18/72/135 
f 18/72/136 65/69/137 20/70/138 
f 22/74/139 21/75/140 19/71/141 
f 19/71/142 89/73/143 22/74/144 
f 68/77/145 23/78/146 21/75/147 
f 21/75/148 90/76/149 68/77/150 
f 69/80/151 25/81/152 23/78/153 
f 23/78/154 91/79/155 69/80/156 
f 69/80/157 70/82/158 27/83/159 
f 27/83/160 25/81/161 69/80/162 
f 70/82/163 30/84/164 29/85/165 
f 29/85/166 27/83/167 70/82/168 
f 30/84/169 52/86/170 31/87/171 
f 31/87/172 29/85/173 30/84/174 
f 52/86/175 65/69/176 18/72/177 
f 18/72/178 31/87/179 52/86/180 
f 19/107/181 21/109/182 23/110/183 
f 23/110/184 25/111/185 27/112/186 
f 27/112/187 29/113/188 31/114/189 
f 23/110/190 27/112/191 31/114/192 
f 19/107/193 23/110/194 31/114/195 
f 19/107/196 31/114/197 18/108/198 
f 66/26/199 17/23/200 37/24/201 
f 37/24/202 10/25/203 66/26/204 
f 67/30/205 49/97/206 42/98/207 
f 42/98/208 13/29/209 67/30/210 
f 78/31/211 92/32/212 71/20/213 
f 71/20/214 1/19/215 78/31/216 
f 17/23/217 92/32/218 78/31/219 
f 78/31/220 37/24/221 17/23/222 
f 54/88/223 93/89/224 19/71/225 
f 19/71/226 20/70/227 54/88/228 
f 19/71/229 93/89/230 32/90/231 
f 32/90/232 89/73/233 19/71/234 
f 34/91/235 73/92/236 21/75/237 
f 21/75/238 22/74/239 34/91/240 
f 21/75/241 73/92/242 35/93/243 
f 35/93/244 90/76/245 21/75/246 
f 96/94/247 55/95/248 23/78/249 
f 23/78/250 68/77/251 96/94/252 
f 23/78/253 55/95/254 36/96/255 
f 36/96/256 91/79/257 23/78/258 
f 42/28/259 49/27/260 72/33/261 
f 72/33/262 83/34/263 42/28/264 
f 83/34/265 72/33/266 53/35/267 
f 53/35/268 41/36/269 83/34/270 
f 60/40/271 45/1/272 50/7/273 
f 50/7/274 75/37/275 60/40/276 
f 60/40/277 75/37/278 33/41/279 
f 33/41/280 44/47/281 60/40/282 
f 64/22/283 76/21/284 95/49/285 
f 95/49/286 15/50/287 64/22/288 
f 66/26/289 10/25/290 59/51/291 
f 59/51/292 94/52/293 66/26/294 
f 94/52/295 59/51/296 41/36/297 
f 41/36/298 53/35/299 94/52/300 
f 67/30/301 13/29/302 62/53/303 
f 62/53/304 74/54/305 67/30/306 
f 74/54/307 62/53/308 44/47/309 
f 44/47/310 33/41/311 74/54/312 
f 24/5/313 47/4/314 48/55/315 
f 48/55/316 56/56/317 24/5/318 
f 56/56/319 48/55/320 15/50/321 
f 15/50/322 95/49/323 56/56/324 
# 108 faces

