# 3ds Max Wavefront OBJ Exporter v0.97b - (c)2007 guruware
# File Created: 11.03.2017 21:00:17

mtllib Fan.mtl

#
# object Fan
#

v  0.3314 0.0313 -0.2531
v  0.1704 0.0313 -0.3343
v  -0.0000 0.0313 -0.3618
v  -0.1704 0.0313 -0.3343
v  -0.3314 0.0313 -0.2531
v  -0.4064 0.0313 -0.1249
v  -0.2910 0.0313 -0.2261
v  -0.1548 0.0313 -0.2868
v  -0.0000 0.0313 -0.3118
v  0.1548 0.0313 -0.2868
v  0.2910 0.0313 -0.2261
v  0.4064 0.0313 -0.1249
v  -0.0000 0.0313 0.2925
v  0.4563 0.0313 -0.1223
v  0.4393 0.0313 -0.0870
v  0.4523 0.0313 -0.1048
v  0.4373 0.0313 -0.1566
v  0.4513 0.0313 -0.1396
v  -0.0000 0.0313 0.3462
v  -0.0349 0.0313 0.3283
v  -0.0174 0.0313 0.3418
v  0.0349 0.0313 0.3283
v  0.0174 0.0313 0.3418
v  -0.4563 0.0313 -0.1223
v  -0.4373 0.0313 -0.1566
v  -0.4513 0.0313 -0.1396
v  -0.4393 0.0313 -0.0870
v  -0.4523 0.0313 -0.1048
v  0.3314 -0.0313 -0.2531
v  0.2910 -0.0313 -0.2261
v  0.4064 -0.0313 -0.1249
v  0.4373 -0.0313 -0.1566
v  0.4393 -0.0313 -0.0870
v  -0.0000 -0.0313 0.2925
v  0.0349 -0.0313 0.3283
v  -0.0349 -0.0313 0.3283
v  -0.4064 -0.0313 -0.1249
v  -0.4393 -0.0313 -0.0870
v  -0.4373 -0.0313 -0.1566
v  -0.2910 -0.0313 -0.2261
v  -0.3314 -0.0313 -0.2531
v  -0.1548 -0.0313 -0.2868
v  -0.1704 -0.0313 -0.3343
v  -0.0000 -0.0313 -0.3118
v  -0.0000 -0.0313 -0.3618
v  0.1548 -0.0313 -0.2868
v  0.1704 -0.0313 -0.3343
v  0.4563 -0.0313 -0.1223
v  0.4513 -0.0313 -0.1396
v  0.4523 -0.0313 -0.1048
v  -0.0000 -0.0313 0.3462
v  0.0174 -0.0313 0.3418
v  -0.0174 -0.0313 0.3418
v  -0.4563 -0.0313 -0.1223
v  -0.4523 -0.0313 -0.1048
v  -0.4513 -0.0313 -0.1396
v  0.3314 0.0313 -0.2531
v  0.1704 0.0313 -0.3343
v  -0.0000 0.0313 -0.3618
v  -0.1704 0.0313 -0.3343
v  -0.3314 0.0313 -0.2531
v  0.4563 0.0313 -0.1223
v  0.4393 0.0313 -0.0870
v  0.4523 0.0313 -0.1048
v  0.4373 0.0313 -0.1566
v  0.4513 0.0313 -0.1396
v  -0.0000 0.0313 0.3462
v  -0.0349 0.0313 0.3283
v  -0.0174 0.0313 0.3418
v  0.0349 0.0313 0.3283
v  0.0174 0.0313 0.3418
v  -0.4563 0.0313 -0.1223
v  -0.4373 0.0313 -0.1566
v  -0.4513 0.0313 -0.1396
v  -0.4393 0.0313 -0.0870
v  -0.4523 0.0313 -0.1048
v  0.3314 -0.0313 -0.2531
v  0.4373 -0.0313 -0.1566
v  0.4393 -0.0313 -0.0870
v  0.0349 -0.0313 0.3283
v  -0.0349 -0.0313 0.3283
v  -0.4393 -0.0313 -0.0870
v  -0.4373 -0.0313 -0.1566
v  -0.3314 -0.0313 -0.2531
v  -0.1704 -0.0313 -0.3343
v  -0.0000 -0.0313 -0.3618
v  0.1704 -0.0313 -0.3343
v  0.4563 -0.0313 -0.1223
v  0.4513 -0.0313 -0.1396
v  0.4523 -0.0313 -0.1048
v  -0.0000 -0.0313 0.3462
v  0.0174 -0.0313 0.3418
v  -0.0174 -0.0313 0.3418
v  -0.4563 -0.0313 -0.1223
v  -0.4523 -0.0313 -0.1048
v  -0.4513 -0.0313 -0.1396
# 96 vertices

vn 0.0000 1.0000 0.0000
vn 0.0000 1.0000 -0.0000
vn 0.0000 1.0000 -0.0000
vn 0.0000 1.0000 -0.0000
vn 0.0000 1.0000 0.0000
vn 0.0000 1.0000 0.0000
vn 0.0000 1.0000 -0.0000
vn -0.0000 1.0000 -0.0000
vn 0.0000 1.0000 0.0000
vn 0.0000 1.0000 0.0000
vn 0.0000 1.0000 0.0000
vn 0.0000 1.0000 -0.0000
vn -0.0000 1.0000 -0.0000
vn -0.0000 1.0000 0.0000
vn -0.0000 1.0000 0.0000
vn -0.0000 1.0000 0.0000
vn -0.0000 1.0000 -0.0000
vn -0.0000 1.0000 -0.0000
vn -0.0000 1.0000 0.0000
vn 0.0000 1.0000 -0.0000
vn -0.0000 1.0000 -0.0000
vn -0.0000 1.0000 -0.0000
vn -0.0000 1.0000 -0.0000
vn -0.0000 1.0000 0.0000
vn -0.0000 1.0000 -0.0000
vn -0.0000 1.0000 -0.0000
vn -0.0000 1.0000 -0.0000
vn -0.0000 1.0000 -0.0000
vn 0.0000 1.0000 -0.0000
vn -0.0000 1.0000 -0.0000
vn -0.0000 1.0000 -0.0000
vn -0.0000 1.0000 -0.0000
vn -0.0000 1.0000 -0.0000
vn -0.0000 1.0000 -0.0000
vn -0.0000 1.0000 -0.0000
vn -0.0000 1.0000 -0.0000
vn 0.0000 1.0000 -0.0000
vn 0.0000 1.0000 -0.0000
vn -0.0000 1.0000 -0.0000
vn -0.0000 1.0000 -0.0000
vn -0.0000 1.0000 -0.0000
vn 0.0000 1.0000 -0.0000
vn 0.0000 1.0000 0.0000
vn 0.0000 1.0000 0.0000
vn 0.0000 1.0000 -0.0000
vn 0.0000 1.0000 -0.0000
vn 0.0000 1.0000 -0.0000
vn 0.0000 1.0000 0.0000
vn -0.0000 1.0000 -0.0000
vn 0.0000 1.0000 -0.0000
vn -0.0000 1.0000 0.0000
vn -0.0000 1.0000 0.0000
vn -0.0000 1.0000 -0.0000
vn 0.0000 1.0000 -0.0000
vn 0.0000 1.0000 -0.0000
vn 0.0000 1.0000 0.0000
vn 0.0000 1.0000 -0.0000
vn -0.0000 1.0000 0.0000
vn 0.0000 1.0000 -0.0000
vn 0.0000 1.0000 -0.0000
vn -0.0000 1.0000 -0.0000
vn -0.0000 1.0000 0.0000
vn 0.0000 1.0000 -0.0000
vn -0.0000 1.0000 -0.0000
vn 0.0000 1.0000 -0.0000
vn -0.0000 1.0000 -0.0000
vn -0.7643 0.0000 0.6449
vn -0.7643 0.0000 0.6449
vn -0.6650 0.0000 0.7468
vn -0.6650 0.0000 0.7468
vn -0.6650 0.0000 0.7468
vn -0.7643 0.0000 0.6449
vn -0.5673 0.0000 -0.8235
vn -0.5673 0.0000 -0.8235
vn -0.7249 0.0000 -0.6889
vn -0.7249 0.0000 -0.6889
vn -0.7249 0.0000 -0.6889
vn -0.5673 0.0000 -0.8235
vn -0.3085 0.0000 -0.9512
vn -0.3085 0.0000 -0.9512
vn -0.5673 0.0000 -0.8235
vn -0.5673 0.0000 -0.8235
vn -0.5673 0.0000 -0.8235
vn -0.3085 0.0000 -0.9512
vn 0.0000 0.0000 -1.0000
vn 0.0000 0.0000 -1.0000
vn -0.3085 0.0000 -0.9512
vn -0.3085 0.0000 -0.9512
vn -0.3085 0.0000 -0.9512
vn 0.0000 0.0000 -1.0000
vn 0.0000 1.0000 -0.0000
vn 0.0000 1.0000 -0.0000
vn 0.0000 1.0000 -0.0000
vn 0.0000 1.0000 -0.0000
vn 0.0000 1.0000 -0.0000
vn 0.0000 1.0000 -0.0000
vn 0.0000 1.0000 0.0000
vn 0.0000 1.0000 -0.0000
vn 0.0000 1.0000 -0.0000
vn 0.0000 1.0000 -0.0000
vn 0.0000 1.0000 0.0000
vn 0.0000 1.0000 0.0000
vn -0.0000 1.0000 -0.0000
vn 0.0000 1.0000 -0.0000
vn 0.0000 1.0000 -0.0000
vn 0.0000 1.0000 -0.0000
vn 0.0000 1.0000 0.0000
vn -0.0000 1.0000 -0.0000
vn 0.0000 1.0000 -0.0000
vn 0.0000 1.0000 -0.0000
vn -0.0000 1.0000 -0.0000
vn -0.0000 1.0000 -0.0000
vn -0.0000 1.0000 -0.0000
vn 0.0000 1.0000 -0.0000
vn -0.0000 1.0000 0.0000
vn -0.0000 1.0000 -0.0000
vn -0.0000 1.0000 0.0000
vn -0.0000 1.0000 0.0000
vn -0.0000 1.0000 0.0000
vn -0.0000 1.0000 0.0000
vn -0.0000 1.0000 -0.0000
vn -0.0000 1.0000 -0.0000
vn -0.0000 1.0000 0.0000
vn -0.0000 1.0000 0.0000
vn -0.0000 1.0000 -0.0000
vn -0.0000 1.0000 -0.0000
vn -0.7249 0.0000 -0.6889
vn -0.8844 0.0000 -0.4666
vn -0.8844 0.0000 -0.4666
vn -0.8844 0.0000 -0.4666
vn -0.7249 0.0000 -0.6889
vn -0.7249 0.0000 -0.6889
vn 0.0000 -1.0000 0.0000
vn 0.0000 -1.0000 0.0000
vn 0.0000 -1.0000 -0.0000
vn 0.0000 -1.0000 -0.0000
vn 0.0000 -1.0000 -0.0000
vn 0.0000 -1.0000 0.0000
vn 0.0000 -1.0000 -0.0000
vn 0.0000 -1.0000 0.0000
vn 0.0000 -1.0000 0.0000
vn 0.0000 -1.0000 0.0000
vn -0.0000 -1.0000 -0.0000
vn 0.0000 -1.0000 -0.0000
vn -0.0000 -1.0000 -0.0000
vn -0.0000 -1.0000 -0.0000
vn -0.0000 -1.0000 0.0000
vn -0.0000 -1.0000 0.0000
vn -0.0000 -1.0000 0.0000
vn -0.0000 -1.0000 -0.0000
vn -0.0000 -1.0000 0.0000
vn -0.0000 -1.0000 -0.0000
vn -0.0000 -1.0000 -0.0000
vn -0.0000 -1.0000 -0.0000
vn 0.0000 -1.0000 -0.0000
vn -0.0000 -1.0000 0.0000
vn -0.0000 -1.0000 -0.0000
vn 0.0000 -1.0000 -0.0000
vn -0.0000 -1.0000 -0.0000
vn -0.0000 -1.0000 -0.0000
vn -0.0000 -1.0000 -0.0000
vn -0.0000 -1.0000 -0.0000
vn -0.0000 -1.0000 -0.0000
vn -0.0000 -1.0000 -0.0000
vn -0.0000 -1.0000 -0.0000
vn -0.0000 -1.0000 -0.0000
vn -0.0000 -1.0000 -0.0000
vn -0.0000 -1.0000 -0.0000
vn 0.0000 -1.0000 -0.0000
vn -0.0000 -1.0000 -0.0000
vn -0.0000 -1.0000 -0.0000
vn -0.0000 -1.0000 -0.0000
vn 0.0000 -1.0000 -0.0000
vn 0.0000 -1.0000 -0.0000
vn 0.0000 -1.0000 0.0000
vn 0.0000 -1.0000 -0.0000
vn 0.0000 -1.0000 -0.0000
vn 0.0000 -1.0000 -0.0000
vn 0.0000 -1.0000 0.0000
vn 0.0000 -1.0000 0.0000
vn -0.0000 -1.0000 -0.0000
vn -0.0000 -1.0000 -0.0000
vn 0.0000 -1.0000 -0.0000
vn 0.0000 -1.0000 -0.0000
vn 0.0000 -1.0000 0.0000
vn 0.0000 -1.0000 -0.0000
vn 0.0000 -1.0000 -0.0000
vn -0.0000 -1.0000 -0.0000
vn -0.0000 -1.0000 0.0000
vn 0.0000 -1.0000 -0.0000
vn 0.0000 -1.0000 -0.0000
vn -0.0000 -1.0000 0.0000
vn -0.0000 -1.0000 -0.0000
vn 0.0000 -1.0000 -0.0000
vn -0.0000 -1.0000 0.0000
vn -0.0000 -1.0000 -0.0000
vn -0.0000 -1.0000 0.0000
vn 0.0000 -1.0000 -0.0000
vn 0.5673 0.0000 -0.8235
vn 0.7249 0.0000 -0.6889
vn 0.7249 0.0000 -0.6889
vn 0.7249 0.0000 -0.6889
vn 0.5673 0.0000 -0.8235
vn 0.5673 0.0000 -0.8235
vn 0.7643 0.0000 0.6449
vn 0.6650 0.0000 0.7468
vn 0.6650 0.0000 0.7468
vn 0.6650 0.0000 0.7468
vn 0.7643 0.0000 0.6449
vn 0.7643 0.0000 0.6449
vn 0.0000 0.0000 -1.0000
vn 0.0000 0.0000 -1.0000
vn 0.3085 0.0000 -0.9512
vn 0.3085 0.0000 -0.9512
vn 0.3085 0.0000 -0.9512
vn 0.0000 0.0000 -1.0000
vn 0.3085 0.0000 -0.9512
vn 0.5673 0.0000 -0.8235
vn 0.5673 0.0000 -0.8235
vn 0.5673 0.0000 -0.8235
vn 0.3085 0.0000 -0.9512
vn 0.3085 0.0000 -0.9512
vn 0.0000 -1.0000 -0.0000
vn 0.0000 -1.0000 -0.0000
vn 0.0000 -1.0000 -0.0000
vn 0.0000 -1.0000 -0.0000
vn 0.0000 -1.0000 -0.0000
vn 0.0000 -1.0000 -0.0000
vn 0.0000 -1.0000 0.0000
vn 0.0000 -1.0000 0.0000
vn 0.0000 -1.0000 -0.0000
vn 0.0000 -1.0000 -0.0000
vn 0.0000 -1.0000 -0.0000
vn 0.0000 -1.0000 0.0000
vn -0.0000 -1.0000 -0.0000
vn 0.0000 -1.0000 0.0000
vn 0.0000 -1.0000 -0.0000
vn 0.0000 -1.0000 -0.0000
vn 0.0000 -1.0000 -0.0000
vn -0.0000 -1.0000 -0.0000
vn 0.0000 -1.0000 -0.0000
vn -0.0000 -1.0000 -0.0000
vn -0.0000 -1.0000 -0.0000
vn -0.0000 -1.0000 -0.0000
vn 0.0000 -1.0000 -0.0000
vn 0.0000 -1.0000 -0.0000
vn -0.0000 -1.0000 0.0000
vn -0.0000 -1.0000 0.0000
vn -0.0000 -1.0000 0.0000
vn -0.0000 -1.0000 0.0000
vn -0.0000 -1.0000 -0.0000
vn -0.0000 -1.0000 0.0000
vn -0.0000 -1.0000 -0.0000
vn -0.0000 -1.0000 -0.0000
vn -0.0000 -1.0000 0.0000
vn -0.0000 -1.0000 0.0000
vn -0.0000 -1.0000 -0.0000
vn -0.0000 -1.0000 -0.0000
vn 0.9105 0.0000 0.4136
vn 0.9105 0.0000 0.4136
vn 0.7643 0.0000 0.6449
vn 0.7643 0.0000 0.6449
vn 0.7643 0.0000 0.6449
vn 0.9105 0.0000 0.4136
vn 0.9996 0.0000 -0.0295
vn 0.9996 0.0000 -0.0295
vn 0.9105 0.0000 0.4136
vn 0.9105 0.0000 0.4136
vn 0.9105 0.0000 0.4136
vn 0.9996 0.0000 -0.0295
vn -0.6650 0.0000 0.7468
vn -0.4384 0.0000 0.8988
vn -0.4384 0.0000 0.8988
vn -0.4384 0.0000 0.8988
vn -0.6650 0.0000 0.7468
vn -0.6650 0.0000 0.7468
vn 0.0000 0.0000 1.0000
vn 0.0000 0.0000 1.0000
vn -0.4384 0.0000 0.8988
vn -0.4384 0.0000 0.8988
vn -0.4384 0.0000 0.8988
vn 0.0000 0.0000 1.0000
vn -0.9996 0.0000 -0.0295
vn -0.9996 0.0000 -0.0295
vn -0.8844 0.0000 -0.4666
vn -0.8844 0.0000 -0.4666
vn -0.8844 0.0000 -0.4666
vn -0.9996 0.0000 -0.0295
vn 0.8844 0.0000 -0.4666
vn 0.8844 0.0000 -0.4666
vn 0.7249 0.0000 -0.6889
vn 0.7249 0.0000 -0.6889
vn 0.7249 0.0000 -0.6889
vn 0.8844 0.0000 -0.4666
vn 0.9996 0.0000 -0.0295
vn 0.9996 0.0000 -0.0295
vn 0.8844 0.0000 -0.4666
vn 0.8844 0.0000 -0.4666
vn 0.8844 0.0000 -0.4666
vn 0.9996 0.0000 -0.0295
vn 0.4384 0.0000 0.8988
vn 0.4384 0.0000 0.8988
vn 0.6650 0.0000 0.7468
vn 0.6650 0.0000 0.7468
vn 0.6650 0.0000 0.7468
vn 0.4384 0.0000 0.8988
vn 0.0000 0.0000 1.0000
vn 0.0000 0.0000 1.0000
vn 0.4384 0.0000 0.8988
vn 0.4384 0.0000 0.8988
vn 0.4384 0.0000 0.8988
vn 0.0000 0.0000 1.0000
vn -0.9105 0.0000 0.4136
vn -0.9105 0.0000 0.4136
vn -0.7643 0.0000 0.6449
vn -0.7643 0.0000 0.6449
vn -0.7643 0.0000 0.6449
vn -0.9105 0.0000 0.4136
vn -0.9996 0.0000 -0.0295
vn -0.9996 0.0000 -0.0295
vn -0.9105 0.0000 0.4136
vn -0.9105 0.0000 0.4136
vn -0.9105 0.0000 0.4136
vn -0.9996 0.0000 -0.0295
# 324 vertex normals

vt 1.1652 0.0951 0.0000
vt 0.4066 0.8315 0.0000
vt 0.4687 0.7770 0.0000
vt 0.4458 0.0951 0.0000
vt 0.4458 0.0299 0.0000
vt 0.2500 0.5525 0.0000
vt 1.1652 0.0299 0.0000
vt 0.3467 0.0951 0.0000
vt 0.0313 0.7770 0.0000
vt 0.1689 0.0951 0.0000
vt 0.1689 0.0299 0.0000
vt 0.0934 0.8315 0.0000
vt 0.3467 0.0299 0.0000
vt 0.1667 0.8641 0.0000
vt -0.0548 0.0951 0.0000
vt 0.2500 0.8776 0.0000
vt -0.0548 0.0299 0.0000
vt 0.3333 0.8641 0.0000
vt -0.2690 0.0951 0.0000
vt -0.2690 0.0299 0.0000
vt 0.3740 0.0299 0.0000
vt 0.3740 0.0951 0.0000
vt -0.7069 0.0299 0.0000
vt -0.7069 0.0951 0.0000
vt -0.8847 0.0951 0.0000
vt -0.8847 0.0299 0.0000
vt -0.9839 0.0299 0.0000
vt -0.9839 0.0951 0.0000
vt 1.2644 0.0951 0.0000
vt 1.2644 0.0299 0.0000
vt -0.4832 0.0951 0.0000
vt -0.4832 0.0299 0.0000
vt -0.9566 0.0299 0.0000
vt -0.9566 0.0951 0.0000
vt -0.9343 0.0299 0.0000
vt -0.9343 0.0951 0.0000
vt 1.1925 0.0299 0.0000
vt 0.5313 0.7770 0.0000
vt 0.5934 0.8315 0.0000
vt 1.1925 0.0951 0.0000
vt 1.2148 0.0299 0.0000
vt 0.7500 0.5525 0.0000
vt 0.9687 0.7770 0.0000
vt 0.9066 0.8315 0.0000
vt 0.8333 0.8641 0.0000
vt 0.7500 0.8776 0.0000
vt 1.2148 0.0951 0.0000
vt 0.6667 0.8641 0.0000
vt 0.3963 0.0299 0.0000
vt 0.3963 0.0951 0.0000
vt -0.9120 0.0951 0.0000
vt -0.9120 0.0299 0.0000
vt 1.2371 0.0951 0.0000
vt 1.2371 0.0299 0.0000
vt 0.4185 0.0951 0.0000
vt 0.4185 0.0299 0.0000
vt 0.7053 0.2712 0.0000
vt 0.7310 0.2478 0.0000
vt 0.7315 0.2309 0.0000
vt 0.6335 0.1302 0.0000
vt 0.6165 0.1302 0.0000
vt 0.5185 0.2309 0.0000
vt 0.5190 0.2478 0.0000
vt 0.5447 0.2712 0.0000
vt 0.5837 0.2909 0.0000
vt 0.6250 0.2975 0.0000
vt 0.6663 0.2909 0.0000
vt 0.9815 0.2309 0.0000
vt 0.8835 0.1302 0.0000
vt 0.9553 0.2712 0.0000
vt 0.9810 0.2478 0.0000
vt 0.9163 0.2909 0.0000
vt 0.8750 0.2975 0.0000
vt 0.7356 0.2395 0.0000
vt 0.7344 0.2437 0.0000
vt 0.7346 0.2352 0.0000
vt 0.6250 0.1259 0.0000
vt 0.6292 0.1270 0.0000
vt 0.6208 0.1270 0.0000
vt 0.5144 0.2395 0.0000
vt 0.5154 0.2352 0.0000
vt 0.5156 0.2437 0.0000
vt 0.9844 0.2437 0.0000
vt 0.7947 0.2712 0.0000
vt 0.7690 0.2478 0.0000
vt 0.7685 0.2309 0.0000
vt 0.8665 0.1302 0.0000
vt 0.8337 0.2909 0.0000
vt 0.7656 0.2437 0.0000
vt 0.7644 0.2395 0.0000
vt 0.7654 0.2352 0.0000
vt 0.8708 0.1270 0.0000
vt 0.8750 0.1259 0.0000
vt 0.8792 0.1270 0.0000
vt 0.9846 0.2352 0.0000
vt 0.9856 0.2395 0.0000
vt 0.6955 0.2646 0.0000
vt 0.7235 0.2401 0.0000
vt 0.6250 0.1389 0.0000
vt 0.5265 0.2401 0.0000
vt 0.5545 0.2646 0.0000
vt 0.5875 0.2793 0.0000
vt 0.6250 0.2854 0.0000
vt 0.6625 0.2793 0.0000
vt 0.7765 0.2401 0.0000
vt 0.8045 0.2646 0.0000
vt 0.8750 0.1389 0.0000
vt 0.9735 0.2401 0.0000
vt 0.9455 0.2646 0.0000
vt 0.9125 0.2793 0.0000
vt 0.8750 0.2854 0.0000
vt 0.8375 0.2793 0.0000
vt 1.9839 0.0299 0.0000
vt 1.9839 0.0951 0.0000
# 114 texture coords

g Fan
usemtl Material__2
f 11/97/1 12/98/2 17/58/3 
f 17/58/4 1/57/5 11/97/6 
f 12/98/7 13/99/8 70/60/9 
f 70/60/10 63/59/11 12/98/12 
f 13/99/13 6/100/14 75/62/15 
f 75/62/16 68/61/17 13/99/18 
f 6/100/19 7/101/20 61/64/21 
f 61/64/22 73/63/23 6/100/24 
f 8/102/25 60/65/26 61/64/27 
f 61/64/28 7/101/29 8/102/30 
f 9/103/31 59/66/32 60/65/33 
f 60/65/34 8/102/35 9/103/36 
f 10/104/37 58/67/38 59/66/39 
f 59/66/40 9/103/41 10/104/42 
f 11/97/43 1/57/44 58/67/45 
f 58/67/46 10/104/47 11/97/48 
f 8/14/49 7/12/50 6/9/51 
f 6/9/52 13/6/53 12/3/54 
f 12/3/55 11/2/56 10/18/57 
f 6/9/58 12/3/59 10/18/60 
f 8/14/61 6/9/62 10/18/63 
f 8/14/64 10/18/65 9/16/66 
f 27/4/67 82/5/68 81/7/69 
f 81/7/70 20/1/71 27/4/72 
f 5/10/73 84/11/74 83/13/75 
f 83/13/76 25/8/77 5/10/78 
f 4/15/79 85/17/80 84/11/81 
f 84/11/82 5/10/83 4/15/84 
f 3/19/85 86/20/86 85/17/87 
f 85/17/88 4/15/89 3/19/90 
f 12/98/91 62/74/92 66/75/93 
f 66/75/94 17/58/95 12/98/96 
f 16/76/97 62/74/98 12/98/99 
f 12/98/100 63/59/101 16/76/102 
f 13/99/103 67/77/104 71/78/105 
f 71/78/106 70/60/107 13/99/108 
f 21/79/109 67/77/110 13/99/111 
f 13/99/112 68/61/113 21/79/114 
f 6/100/115 72/80/116 76/81/117 
f 76/81/118 75/62/119 6/100/120 
f 26/82/121 72/80/122 6/100/123 
f 6/100/124 73/63/125 26/82/126 
f 83/13/127 96/21/128 74/22/129 
f 74/22/130 25/8/131 83/13/132 
f 30/106/133 29/84/134 32/85/135 
f 32/85/136 31/105/137 30/106/138 
f 31/105/139 33/86/140 35/87/141 
f 35/87/142 34/107/143 31/105/144 
f 34/107/145 36/69/146 38/68/147 
f 38/68/148 37/108/149 34/107/150 
f 37/108/151 39/71/152 41/70/153 
f 41/70/154 40/109/155 37/108/156 
f 42/110/157 40/109/158 41/70/159 
f 41/70/160 43/72/161 42/110/162 
f 44/111/163 42/110/164 43/72/165 
f 43/72/166 45/73/167 44/111/168 
f 46/112/169 44/111/170 45/73/171 
f 45/73/172 47/88/173 46/112/174 
f 30/106/175 46/112/176 47/88/177 
f 47/88/178 29/84/179 30/106/180 
f 42/45/181 44/46/182 46/48/183 
f 46/48/184 30/39/185 31/38/186 
f 31/38/187 34/42/188 37/43/189 
f 46/48/190 31/38/191 37/43/192 
f 42/45/193 46/48/194 37/43/195 
f 42/45/196 37/43/197 40/44/198 
f 57/24/199 65/25/200 78/26/201 
f 78/26/202 77/23/203 57/24/204 
f 15/114/205 22/29/206 80/30/207 
f 80/30/208 79/113/209 15/114/210 
f 86/20/211 3/19/212 2/31/213 
f 2/31/214 87/32/215 86/20/216 
f 2/31/217 57/24/218 77/23/219 
f 77/23/220 87/32/221 2/31/222 
f 31/105/223 32/85/224 49/89/225 
f 49/89/226 48/90/227 31/105/228 
f 50/91/229 33/86/230 31/105/231 
f 31/105/232 48/90/233 50/91/234 
f 34/107/235 35/87/236 52/92/237 
f 52/92/238 51/93/239 34/107/240 
f 53/94/241 36/69/242 34/107/243 
f 34/107/244 51/93/245 53/94/246 
f 37/108/247 38/68/248 55/95/249 
f 55/95/250 54/96/251 37/108/252 
f 56/83/253 39/71/254 37/108/255 
f 37/108/256 54/96/257 56/83/258 
f 90/33/259 64/34/260 15/28/261 
f 15/28/262 79/27/263 90/33/264 
f 88/35/265 14/36/266 64/34/267 
f 64/34/268 90/33/269 88/35/270 
f 81/7/271 93/37/272 69/40/273 
f 69/40/274 20/1/275 81/7/276 
f 91/41/277 19/47/278 69/40/279 
f 69/40/280 93/37/281 91/41/282 
f 94/49/283 24/50/284 74/22/285 
f 74/22/286 96/21/287 94/49/288 
f 18/51/289 89/52/290 78/26/291 
f 78/26/292 65/25/293 18/51/294 
f 14/36/295 88/35/296 89/52/297 
f 89/52/298 18/51/299 14/36/300 
f 23/53/301 92/54/302 80/30/303 
f 80/30/304 22/29/305 23/53/306 
f 19/47/307 91/41/308 92/54/309 
f 92/54/310 23/53/311 19/47/312 
f 28/55/313 95/56/314 82/5/315 
f 82/5/316 27/4/317 28/55/318 
f 24/50/319 94/49/320 95/56/321 
f 95/56/322 28/55/323 24/50/324 
# 108 faces

