# 3ds Max Wavefront OBJ Exporter v0.97b - (c)2007 guruware
# File Created: 11.03.2017 21:15:52

mtllib Hex.mtl

#
# object Hex
#

v  0.3958 0.0313 -0.0000
v  0.4379 0.0313 0.0217
v  0.4379 0.0313 -0.0217
v  0.2205 0.0313 -0.3820
v  0.2518 0.0313 -0.3495
v  0.2377 0.0313 -0.3684
v  0.1979 0.0313 -0.3428
v  -0.1768 0.0313 -0.3928
v  -0.2002 0.0313 -0.3901
v  -0.1979 0.0313 -0.3428
v  -0.4411 0.0313 0.0000
v  -0.4379 0.0313 -0.0217
v  -0.3958 0.0313 0.0000
v  -0.4286 0.0313 0.0433
v  -0.4379 0.0313 0.0217
v  -0.2518 0.0313 0.3495
v  -0.1979 0.0313 0.3428
v  -0.1768 0.0313 0.3928
v  -0.2002 0.0313 0.3901
v  0.1768 0.0313 0.3928
v  0.2002 0.0313 0.3901
v  0.1979 0.0313 0.3428
v  0.2377 0.0313 0.3684
v  0.3958 -0.0313 -0.0000
v  0.2518 -0.0313 -0.3495
v  0.1979 -0.0313 -0.3428
v  -0.1979 -0.0313 -0.3428
v  -0.2518 -0.0313 -0.3495
v  -0.4286 -0.0313 -0.0433
v  -0.3958 -0.0313 0.0000
v  -0.4286 -0.0313 0.0433
v  -0.2518 -0.0313 0.3495
v  -0.1979 -0.0313 0.3428
v  -0.1768 -0.0313 0.3928
v  0.1979 -0.0313 0.3428
v  0.2377 -0.0313 -0.3684
v  0.2205 -0.0313 -0.3820
v  -0.4379 -0.0313 -0.0217
v  -0.4411 -0.0313 0.0000
v  -0.4379 -0.0313 0.0217
v  -0.2205 -0.0313 0.3820
v  -0.2002 -0.0313 0.3901
v  0.2377 -0.0313 0.3684
v  0.4411 0.0313 0.0000
v  0.4286 0.0313 0.0433
v  0.4286 0.0313 -0.0433
v  0.1768 0.0313 -0.3928
v  0.2002 0.0313 -0.3901
v  -0.2205 0.0313 -0.3820
v  -0.2518 0.0313 -0.3495
v  -0.2377 0.0313 -0.3684
v  -0.4286 0.0313 -0.0433
v  -0.2205 0.0313 0.3820
v  -0.2377 0.0313 0.3684
v  0.2205 0.0313 0.3820
v  0.2518 0.0313 0.3495
v  0.4286 -0.0313 -0.0433
v  0.1768 -0.0313 -0.3928
v  -0.1768 -0.0313 -0.3928
v  0.1768 -0.0313 0.3928
v  0.2518 -0.0313 0.3495
v  0.4286 -0.0313 0.0433
v  0.4411 -0.0313 0.0000
v  0.4379 -0.0313 -0.0217
v  0.2002 -0.0313 -0.3901
v  -0.2002 -0.0313 -0.3901
v  -0.2205 -0.0313 -0.3820
v  -0.2377 -0.0313 -0.3684
v  -0.2377 -0.0313 0.3684
v  0.2002 -0.0313 0.3901
v  0.2205 -0.0313 0.3820
v  0.4379 -0.0313 0.0217
v  0.4379 0.0313 0.0217
v  0.4379 0.0313 -0.0217
v  0.2205 0.0313 -0.3820
v  0.2518 0.0313 -0.3495
v  0.2377 0.0313 -0.3684
v  -0.1768 0.0313 -0.3928
v  -0.2002 0.0313 -0.3901
v  -0.4411 0.0313 0.0000
v  -0.4379 0.0313 -0.0217
v  -0.4286 0.0313 0.0433
v  -0.4379 0.0313 0.0217
v  -0.2518 0.0313 0.3495
v  -0.1768 0.0313 0.3928
v  -0.2002 0.0313 0.3901
v  0.1768 0.0313 0.3928
v  0.2002 0.0313 0.3901
v  0.2377 0.0313 0.3684
v  0.2518 -0.0313 -0.3495
v  -0.2518 -0.0313 -0.3495
v  -0.4286 -0.0313 -0.0433
v  -0.4286 -0.0313 0.0433
v  -0.2518 -0.0313 0.3495
v  -0.1768 -0.0313 0.3928
v  0.2377 -0.0313 -0.3684
v  0.2205 -0.0313 -0.3820
v  -0.4379 -0.0313 -0.0217
v  -0.4411 -0.0313 0.0000
v  -0.4379 -0.0313 0.0217
v  -0.2205 -0.0313 0.3820
v  -0.2002 -0.0313 0.3901
v  0.2377 -0.0313 0.3684
v  0.4411 0.0313 0.0000
v  0.4286 0.0313 0.0433
v  0.4286 0.0313 -0.0433
v  0.1768 0.0313 -0.3928
v  0.2002 0.0313 -0.3901
v  -0.2205 0.0313 -0.3820
v  -0.2518 0.0313 -0.3495
v  -0.2377 0.0313 -0.3684
v  -0.4286 0.0313 -0.0433
v  -0.2205 0.0313 0.3820
v  -0.2377 0.0313 0.3684
v  0.2205 0.0313 0.3820
v  0.2518 0.0313 0.3495
v  0.4286 -0.0313 -0.0433
v  0.1768 -0.0313 -0.3928
v  -0.1768 -0.0313 -0.3928
v  0.1768 -0.0313 0.3928
v  0.2518 -0.0313 0.3495
v  0.4286 -0.0313 0.0433
v  0.4411 -0.0313 0.0000
v  0.4379 -0.0313 -0.0217
v  0.2002 -0.0313 -0.3901
v  -0.2002 -0.0313 -0.3901
v  -0.2205 -0.0313 -0.3820
v  -0.2377 -0.0313 -0.3684
v  -0.2377 -0.0313 0.3684
v  0.2002 -0.0313 0.3901
v  0.2205 -0.0313 0.3820
v  0.4379 -0.0313 0.0217
# 132 vertices

vn 0.0000 1.0000 -0.0000
vn 0.0000 1.0000 -0.0000
vn 0.0000 1.0000 -0.0000
vn 0.0000 1.0000 -0.0000
vn 0.0000 1.0000 -0.0000
vn 0.0000 1.0000 -0.0000
vn 0.0000 1.0000 -0.0000
vn 0.0000 1.0000 -0.0000
vn 0.0000 1.0000 -0.0000
vn 0.0000 1.0000 -0.0000
vn 0.0000 1.0000 -0.0000
vn 0.0000 1.0000 -0.0000
vn 0.0000 1.0000 -0.0000
vn 0.0000 1.0000 -0.0000
vn 0.0000 1.0000 -0.0000
vn 0.0000 1.0000 -0.0000
vn 0.0000 1.0000 -0.0000
vn 0.0000 1.0000 -0.0000
vn 0.0000 1.0000 -0.0000
vn 0.0000 1.0000 0.0000
vn 0.0000 1.0000 -0.0000
vn 0.0000 1.0000 -0.0000
vn 0.0000 1.0000 -0.0000
vn 0.0000 1.0000 -0.0000
vn 0.0000 1.0000 0.0000
vn 0.0000 1.0000 0.0000
vn 0.0000 1.0000 0.0000
vn 0.0000 1.0000 0.0000
vn 0.0000 1.0000 -0.0000
vn 0.0000 1.0000 0.0000
vn 0.0000 1.0000 0.0000
vn 0.0000 1.0000 -0.0000
vn 0.0000 1.0000 0.0000
vn 0.0000 1.0000 0.0000
vn 0.0000 1.0000 0.0000
vn 0.0000 1.0000 0.0000
vn 0.0000 1.0000 0.0000
vn 0.0000 1.0000 -0.0000
vn 0.0000 1.0000 -0.0000
vn 0.0000 1.0000 -0.0000
vn 0.0000 1.0000 -0.0000
vn 0.0000 1.0000 -0.0000
vn 0.0000 1.0000 0.0000
vn 0.0000 1.0000 -0.0000
vn 0.0000 1.0000 -0.0000
vn 0.0000 1.0000 0.0000
vn 0.0000 1.0000 -0.0000
vn 0.0000 1.0000 0.0000
vn -0.8359 0.0000 -0.5489
vn -0.8933 0.0000 -0.4494
vn -0.8933 0.0000 -0.4494
vn -0.8933 0.0000 -0.4494
vn -0.8359 0.0000 -0.5489
vn -0.8359 0.0000 -0.5489
vn 0.0000 1.0000 -0.0000
vn 0.0000 1.0000 -0.0000
vn 0.0000 1.0000 -0.0000
vn 0.0000 1.0000 -0.0000
vn 0.0000 1.0000 -0.0000
vn 0.0000 1.0000 -0.0000
vn 0.0000 1.0000 -0.0000
vn 0.0000 1.0000 -0.0000
vn 0.0000 1.0000 -0.0000
vn 0.0000 1.0000 -0.0000
vn 0.0000 1.0000 -0.0000
vn 0.0000 1.0000 -0.0000
vn 0.0000 1.0000 -0.0000
vn 0.0000 1.0000 -0.0000
vn 0.0000 1.0000 -0.0000
vn 0.0000 1.0000 -0.0000
vn 0.0000 1.0000 -0.0000
vn 0.0000 1.0000 -0.0000
vn 0.0000 1.0000 -0.0000
vn 0.0000 1.0000 -0.0000
vn 0.0000 1.0000 -0.0000
vn 0.0000 1.0000 -0.0000
vn 0.0000 1.0000 -0.0000
vn 0.0000 1.0000 -0.0000
vn 0.0000 1.0000 -0.0000
vn 0.0000 1.0000 -0.0000
vn 0.0000 1.0000 -0.0000
vn 0.0000 1.0000 -0.0000
vn 0.0000 1.0000 -0.0000
vn 0.0000 1.0000 -0.0000
vn 0.0000 1.0000 -0.0000
vn 0.0000 1.0000 -0.0000
vn 0.0000 1.0000 -0.0000
vn 0.0000 1.0000 -0.0000
vn 0.0000 1.0000 -0.0000
vn 0.0000 1.0000 -0.0000
vn 0.0000 1.0000 -0.0000
vn 0.0000 1.0000 -0.0000
vn 0.0000 1.0000 -0.0000
vn 0.0000 1.0000 -0.0000
vn 0.0000 1.0000 -0.0000
vn 0.0000 1.0000 -0.0000
vn 0.0000 1.0000 0.0000
vn 0.0000 1.0000 -0.0000
vn 0.0000 1.0000 -0.0000
vn 0.0000 1.0000 -0.0000
vn 0.0000 1.0000 -0.0000
vn 0.0000 1.0000 0.0000
vn 0.0000 1.0000 -0.0000
vn 0.0000 1.0000 -0.0000
vn 0.0000 1.0000 0.0000
vn 0.0000 1.0000 0.0000
vn 0.0000 1.0000 -0.0000
vn 0.0000 1.0000 -0.0000
vn 0.0000 1.0000 0.0000
vn 0.0000 1.0000 0.0000
vn 0.0000 1.0000 0.0000
vn 0.0000 1.0000 0.0000
vn 0.0000 1.0000 0.0000
vn 0.0000 1.0000 0.0000
vn 0.0000 1.0000 0.0000
vn 0.0000 1.0000 0.0000
vn 0.0000 1.0000 0.0000
vn 0.0000 1.0000 0.0000
vn 0.0000 1.0000 0.0000
vn 0.0000 1.0000 0.0000
vn 0.0000 1.0000 -0.0000
vn 0.0000 1.0000 0.0000
vn 0.0000 1.0000 -0.0000
vn 0.0000 1.0000 -0.0000
vn 0.0000 1.0000 -0.0000
vn 0.0000 1.0000 -0.0000
vn -0.2451 0.0000 -0.9695
vn -0.0574 0.0000 -0.9983
vn -0.0574 0.0000 -0.9983
vn -0.0574 0.0000 -0.9983
vn -0.2451 0.0000 -0.9695
vn -0.2451 0.0000 -0.9695
vn -0.5000 0.0000 -0.8660
vn -0.2451 0.0000 -0.9695
vn -0.2451 0.0000 -0.9695
vn -0.2451 0.0000 -0.9695
vn -0.5000 0.0000 -0.8660
vn -0.5000 0.0000 -0.8660
vn -1.0000 0.0000 -0.0000
vn -0.9622 0.0000 -0.2725
vn -0.9622 0.0000 -0.2725
vn -0.9622 0.0000 -0.2725
vn -1.0000 0.0000 -0.0000
vn -1.0000 0.0000 -0.0000
vn -0.7171 0.0000 0.6970
vn -0.8359 0.0000 0.5489
vn -0.8359 0.0000 0.5489
vn -0.8359 0.0000 0.5489
vn -0.7171 0.0000 0.6970
vn -0.7171 0.0000 0.6970
vn -0.5000 0.0000 0.8660
vn -0.7171 0.0000 0.6970
vn -0.7171 0.0000 0.6970
vn -0.7171 0.0000 0.6970
vn -0.5000 0.0000 0.8660
vn -0.5000 0.0000 0.8660
vn 0.9622 0.0000 0.2725
vn 0.9622 0.0000 0.2725
vn 0.8933 0.0000 0.4494
vn 0.8933 0.0000 0.4494
vn 0.8933 0.0000 0.4494
vn 0.9622 0.0000 0.2725
vn 0.9622 0.0000 -0.2725
vn 0.9622 0.0000 -0.2725
vn 1.0000 0.0000 -0.0000
vn 1.0000 0.0000 -0.0000
vn 1.0000 0.0000 -0.0000
vn 0.9622 0.0000 -0.2725
vn 0.2451 0.0000 -0.9695
vn 0.0574 0.0000 -0.9983
vn 0.0574 0.0000 -0.9983
vn 0.0574 0.0000 -0.9983
vn 0.2451 0.0000 -0.9695
vn 0.2451 0.0000 -0.9695
vn 0.5000 0.0000 -0.8660
vn 0.2451 0.0000 -0.9695
vn 0.2451 0.0000 -0.9695
vn 0.2451 0.0000 -0.9695
vn 0.5000 0.0000 -0.8660
vn 0.5000 0.0000 -0.8660
vn -0.5000 0.0000 -0.8660
vn -0.7171 0.0000 -0.6970
vn -0.7171 0.0000 -0.6970
vn -0.7171 0.0000 -0.6970
vn -0.5000 0.0000 -0.8660
vn -0.5000 0.0000 -0.8660
vn -0.9622 0.0000 0.2725
vn -0.8933 0.0000 0.4494
vn -0.8933 0.0000 0.4494
vn -0.8933 0.0000 0.4494
vn -0.9622 0.0000 0.2725
vn -0.9622 0.0000 0.2725
vn -0.0574 0.0000 0.9983
vn -0.0574 0.0000 0.9983
vn -0.2451 0.0000 0.9695
vn -0.2451 0.0000 0.9695
vn -0.2451 0.0000 0.9695
vn -0.0574 0.0000 0.9983
vn 0.8359 0.0000 0.5489
vn 0.8359 0.0000 0.5489
vn 0.7171 0.0000 0.6970
vn 0.7171 0.0000 0.6970
vn 0.7171 0.0000 0.6970
vn 0.8359 0.0000 0.5489
vn 0.0000 -1.0000 -0.0000
vn 0.0000 -1.0000 -0.0000
vn 0.0000 -1.0000 -0.0000
vn 0.0000 -1.0000 -0.0000
vn 0.0000 -1.0000 -0.0000
vn 0.0000 -1.0000 -0.0000
vn 0.0000 -1.0000 -0.0000
vn 0.0000 -1.0000 -0.0000
vn 0.0000 -1.0000 -0.0000
vn 0.0000 -1.0000 -0.0000
vn 0.0000 -1.0000 -0.0000
vn 0.0000 -1.0000 -0.0000
vn 0.0000 -1.0000 -0.0000
vn 0.0000 -1.0000 -0.0000
vn 0.0000 -1.0000 -0.0000
vn 0.0000 -1.0000 -0.0000
vn 0.0000 -1.0000 -0.0000
vn 0.0000 -1.0000 -0.0000
vn 0.0000 -1.0000 -0.0000
vn 0.0000 -1.0000 -0.0000
vn 0.0000 -1.0000 -0.0000
vn 0.0000 -1.0000 -0.0000
vn 0.0000 -1.0000 0.0000
vn 0.0000 -1.0000 -0.0000
vn 0.0000 -1.0000 0.0000
vn 0.0000 -1.0000 -0.0000
vn 0.0000 -1.0000 0.0000
vn 0.0000 -1.0000 0.0000
vn 0.0000 -1.0000 0.0000
vn 0.0000 -1.0000 0.0000
vn 0.0000 -1.0000 0.0000
vn 0.0000 -1.0000 0.0000
vn 0.0000 -1.0000 0.0000
vn 0.0000 -1.0000 0.0000
vn 0.0000 -1.0000 -0.0000
vn 0.0000 -1.0000 0.0000
vn 0.0000 -1.0000 -0.0000
vn 0.0000 -1.0000 -0.0000
vn 0.0000 -1.0000 0.0000
vn 0.0000 -1.0000 0.0000
vn 0.0000 -1.0000 0.0000
vn 0.0000 -1.0000 -0.0000
vn 0.0000 -1.0000 -0.0000
vn 0.0000 -1.0000 0.0000
vn 0.0000 -1.0000 -0.0000
vn 0.0000 -1.0000 -0.0000
vn 0.0000 -1.0000 -0.0000
vn 0.0000 -1.0000 -0.0000
vn 0.8933 0.0000 -0.4494
vn 0.8359 0.0000 -0.5489
vn 0.8359 0.0000 -0.5489
vn 0.8359 0.0000 -0.5489
vn 0.8933 0.0000 -0.4494
vn 0.8933 0.0000 -0.4494
vn 0.0574 0.0000 -0.9983
vn 0.0574 0.0000 -0.9983
vn -0.0574 0.0000 -0.9983
vn -0.0574 0.0000 -0.9983
vn -0.0574 0.0000 -0.9983
vn 0.0574 0.0000 -0.9983
vn -0.8933 0.0000 0.4494
vn -0.8933 0.0000 0.4494
vn -0.8359 0.0000 0.5489
vn -0.8359 0.0000 0.5489
vn -0.8359 0.0000 0.5489
vn -0.8933 0.0000 0.4494
vn -0.0574 0.0000 0.9983
vn 0.0574 0.0000 0.9983
vn 0.0574 0.0000 0.9983
vn 0.0574 0.0000 0.9983
vn -0.0574 0.0000 0.9983
vn -0.0574 0.0000 0.9983
vn 0.8359 0.0000 0.5489
vn 0.8933 0.0000 0.4494
vn 0.8933 0.0000 0.4494
vn 0.8933 0.0000 0.4494
vn 0.8359 0.0000 0.5489
vn 0.8359 0.0000 0.5489
vn 0.0000 -1.0000 -0.0000
vn 0.0000 -1.0000 -0.0000
vn 0.0000 -1.0000 -0.0000
vn 0.0000 -1.0000 -0.0000
vn 0.0000 -1.0000 -0.0000
vn 0.0000 -1.0000 -0.0000
vn 0.0000 -1.0000 -0.0000
vn 0.0000 -1.0000 -0.0000
vn 0.0000 -1.0000 -0.0000
vn 0.0000 -1.0000 -0.0000
vn 0.0000 -1.0000 -0.0000
vn 0.0000 -1.0000 -0.0000
vn 0.0000 -1.0000 -0.0000
vn 0.0000 -1.0000 -0.0000
vn 0.0000 -1.0000 -0.0000
vn 0.0000 -1.0000 -0.0000
vn 0.0000 -1.0000 -0.0000
vn 0.0000 -1.0000 -0.0000
vn 0.0000 -1.0000 -0.0000
vn 0.0000 -1.0000 -0.0000
vn 0.0000 -1.0000 -0.0000
vn 0.0000 -1.0000 -0.0000
vn 0.0000 -1.0000 -0.0000
vn 0.0000 -1.0000 -0.0000
vn 0.0000 -1.0000 -0.0000
vn 0.0000 -1.0000 -0.0000
vn 0.0000 -1.0000 -0.0000
vn 0.0000 -1.0000 -0.0000
vn 0.0000 -1.0000 -0.0000
vn 0.0000 -1.0000 -0.0000
vn 0.0000 -1.0000 -0.0000
vn 0.0000 -1.0000 -0.0000
vn 0.0000 -1.0000 -0.0000
vn 0.0000 -1.0000 -0.0000
vn 0.0000 -1.0000 -0.0000
vn 0.0000 -1.0000 -0.0000
vn 0.0000 -1.0000 -0.0000
vn 0.0000 -1.0000 -0.0000
vn 0.0000 -1.0000 -0.0000
vn 0.0000 -1.0000 -0.0000
vn 0.0000 -1.0000 -0.0000
vn 0.0000 -1.0000 -0.0000
vn 0.0000 -1.0000 0.0000
vn 0.0000 -1.0000 -0.0000
vn 0.0000 -1.0000 -0.0000
vn 0.0000 -1.0000 -0.0000
vn 0.0000 -1.0000 -0.0000
vn 0.0000 -1.0000 0.0000
vn 0.0000 -1.0000 -0.0000
vn 0.0000 -1.0000 -0.0000
vn 0.0000 -1.0000 0.0000
vn 0.0000 -1.0000 0.0000
vn 0.0000 -1.0000 -0.0000
vn 0.0000 -1.0000 -0.0000
vn 0.0000 -1.0000 0.0000
vn 0.0000 -1.0000 0.0000
vn 0.0000 -1.0000 0.0000
vn 0.0000 -1.0000 0.0000
vn 0.0000 -1.0000 0.0000
vn 0.0000 -1.0000 0.0000
vn 0.0000 -1.0000 0.0000
vn 0.0000 -1.0000 0.0000
vn 0.0000 -1.0000 0.0000
vn 0.0000 -1.0000 0.0000
vn 0.0000 -1.0000 0.0000
vn 0.0000 -1.0000 0.0000
vn 0.0000 -1.0000 -0.0000
vn 0.0000 -1.0000 -0.0000
vn 0.0000 -1.0000 -0.0000
vn 0.0000 -1.0000 -0.0000
vn 0.0000 -1.0000 0.0000
vn 0.0000 -1.0000 -0.0000
vn 0.8359 0.0000 -0.5489
vn 0.8359 0.0000 -0.5489
vn 0.7171 0.0000 -0.6970
vn 0.7171 0.0000 -0.6970
vn 0.7171 0.0000 -0.6970
vn 0.8359 0.0000 -0.5489
vn 0.7171 0.0000 -0.6970
vn 0.7171 0.0000 -0.6970
vn 0.5000 0.0000 -0.8660
vn 0.5000 0.0000 -0.8660
vn 0.5000 0.0000 -0.8660
vn 0.7171 0.0000 -0.6970
vn -0.8933 0.0000 -0.4494
vn -0.8933 0.0000 -0.4494
vn -0.9622 0.0000 -0.2725
vn -0.9622 0.0000 -0.2725
vn -0.9622 0.0000 -0.2725
vn -0.8933 0.0000 -0.4494
vn 0.0574 0.0000 0.9983
vn 0.0574 0.0000 0.9983
vn 0.2451 0.0000 0.9695
vn 0.2451 0.0000 0.9695
vn 0.2451 0.0000 0.9695
vn 0.0574 0.0000 0.9983
vn 0.2451 0.0000 0.9695
vn 0.2451 0.0000 0.9695
vn 0.5000 0.0000 0.8660
vn 0.5000 0.0000 0.8660
vn 0.5000 0.0000 0.8660
vn 0.2451 0.0000 0.9695
vn 1.0000 0.0000 -0.0000
vn 0.9622 0.0000 0.2725
vn 0.9622 0.0000 0.2725
vn 0.9622 0.0000 0.2725
vn 1.0000 0.0000 -0.0000
vn 1.0000 0.0000 -0.0000
vn 0.9622 0.0000 -0.2725
vn 0.8933 0.0000 -0.4494
vn 0.8933 0.0000 -0.4494
vn 0.8933 0.0000 -0.4494
vn 0.9622 0.0000 -0.2725
vn 0.9622 0.0000 -0.2725
vn -0.8359 0.0000 -0.5489
vn -0.8359 0.0000 -0.5489
vn -0.7171 0.0000 -0.6970
vn -0.7171 0.0000 -0.6970
vn -0.7171 0.0000 -0.6970
vn -0.8359 0.0000 -0.5489
vn -0.9622 0.0000 0.2725
vn -0.9622 0.0000 0.2725
vn -1.0000 0.0000 -0.0000
vn -1.0000 0.0000 -0.0000
vn -1.0000 0.0000 -0.0000
vn -0.9622 0.0000 0.2725
vn -0.5000 0.0000 0.8660
vn -0.2451 0.0000 0.9695
vn -0.2451 0.0000 0.9695
vn -0.2451 0.0000 0.9695
vn -0.5000 0.0000 0.8660
vn -0.5000 0.0000 0.8660
vn 0.7171 0.0000 0.6970
vn 0.7171 0.0000 0.6970
vn 0.5000 0.0000 0.8660
vn 0.5000 0.0000 0.8660
vn 0.5000 0.0000 0.8660
vn 0.7171 0.0000 0.6970
# 420 vertex normals

vt 0.7209 0.2500 0.0000
vt 0.4166 0.0951 0.0000
vt -0.0221 0.0951 0.0000
vt 0.7289 0.2605 0.0000
vt -0.0221 0.0299 0.0000
vt 0.4166 0.0299 0.0000
vt 0.6860 0.3347 0.0000
vt -0.1348 0.0951 0.0000
vt -0.1348 0.0299 0.0000
vt 0.6730 0.3331 0.0000
vt -0.1056 0.0299 0.0000
vt -0.1056 0.0951 0.0000
vt 0.6679 0.3452 0.0000
vt -0.0785 0.0299 0.0000
vt -0.0785 0.0951 0.0000
vt 0.5821 0.3452 0.0000
vt 0.4459 0.0951 0.0000
vt 0.4459 0.0299 0.0000
vt 0.4730 0.0299 0.0000
vt 0.4730 0.0951 0.0000
vt 0.9680 0.0951 0.0000
vt 0.9680 0.0299 0.0000
vt 0.9973 0.0299 0.0000
vt 0.9973 0.0951 0.0000
vt 1.0244 0.0299 0.0000
vt 1.0244 0.0951 0.0000
vt 2.0708 0.0951 0.0000
vt 2.0708 0.0299 0.0000
vt 2.1001 0.0299 0.0000
vt 2.1001 0.0951 0.0000
vt -1.1544 0.0951 0.0000
vt 2.1272 0.0951 0.0000
vt 2.1272 0.0299 0.0000
vt -1.1544 0.0299 0.0000
vt -0.5736 0.0951 0.0000
vt -0.6028 0.0951 0.0000
vt -0.6028 0.0299 0.0000
vt -0.5736 0.0299 0.0000
vt -0.6299 0.0951 0.0000
vt -0.6299 0.0299 0.0000
vt -0.0513 0.0951 0.0000
vt -0.0513 0.0299 0.0000
vt 0.5293 0.0951 0.0000
vt 0.5001 0.0951 0.0000
vt 0.5001 0.0299 0.0000
vt 0.5293 0.0299 0.0000
vt 1.0807 0.0951 0.0000
vt 1.0514 0.0951 0.0000
vt 1.0514 0.0299 0.0000
vt 1.0807 0.0299 0.0000
vt 1.6321 0.0951 0.0000
vt 1.6028 0.0951 0.0000
vt 1.6028 0.0299 0.0000
vt 1.6321 0.0299 0.0000
vt -0.6863 0.0299 0.0000
vt -0.6863 0.0951 0.0000
vt -1.1251 0.0951 0.0000
vt -1.1251 0.0299 0.0000
vt 1.5194 0.0299 0.0000
vt 1.5194 0.0951 0.0000
vt 0.5770 0.3331 0.0000
vt 0.5640 0.3347 0.0000
vt -0.6571 0.0299 0.0000
vt -0.6571 0.0951 0.0000
vt 0.5211 0.2605 0.0000
vt 0.5291 0.2500 0.0000
vt 0.5211 0.2395 0.0000
vt 0.5640 0.1653 0.0000
vt 1.5486 0.0299 0.0000
vt 1.5486 0.0951 0.0000
vt 1.5757 0.0299 0.0000
vt 1.5757 0.0951 0.0000
vt 0.5770 0.1669 0.0000
vt 0.5821 0.1548 0.0000
vt 0.6679 0.1548 0.0000
vt 0.6730 0.1669 0.0000
vt 0.6860 0.1653 0.0000
vt 0.7289 0.2395 0.0000
vt 0.7319 0.2500 0.0000
vt 0.7312 0.2552 0.0000
vt 0.6826 0.3393 0.0000
vt 0.6785 0.3426 0.0000
vt 0.6735 0.3446 0.0000
vt 0.5765 0.3446 0.0000
vt 0.5715 0.3426 0.0000
vt 0.5674 0.3393 0.0000
vt 0.5188 0.2552 0.0000
vt 0.5181 0.2500 0.0000
vt 0.5188 0.2448 0.0000
vt 0.5674 0.1607 0.0000
vt 0.5715 0.1574 0.0000
vt 0.5765 0.1554 0.0000
vt 0.6735 0.1554 0.0000
vt 0.6785 0.1574 0.0000
vt 0.6826 0.1607 0.0000
vt 0.7312 0.2448 0.0000
vt 0.7791 0.2500 0.0000
vt 0.8270 0.3331 0.0000
vt 0.8140 0.3347 0.0000
vt 0.7711 0.2605 0.0000
vt 0.9230 0.3331 0.0000
vt 0.9179 0.3452 0.0000
vt 0.8321 0.3452 0.0000
vt 0.9709 0.2500 0.0000
vt 0.9789 0.2605 0.0000
vt 0.9360 0.3347 0.0000
vt 0.9230 0.1669 0.0000
vt 0.9360 0.1653 0.0000
vt 0.9789 0.2395 0.0000
vt 0.8270 0.1669 0.0000
vt 0.8321 0.1548 0.0000
vt 0.9179 0.1548 0.0000
vt 0.7711 0.2395 0.0000
vt 0.8140 0.1653 0.0000
vt 0.7688 0.2552 0.0000
vt 0.7681 0.2500 0.0000
vt 0.8215 0.3426 0.0000
vt 0.8174 0.3393 0.0000
vt 0.8265 0.3446 0.0000
vt 0.9285 0.3426 0.0000
vt 0.9235 0.3446 0.0000
vt 0.9326 0.3393 0.0000
vt 0.9819 0.2500 0.0000
vt 0.9812 0.2552 0.0000
vt 0.9812 0.2448 0.0000
vt 0.9285 0.1574 0.0000
vt 0.9326 0.1607 0.0000
vt 0.9235 0.1554 0.0000
vt 0.8215 0.1574 0.0000
vt 0.8265 0.1554 0.0000
vt 0.8174 0.1607 0.0000
vt 0.7688 0.2448 0.0000
vt 2.1544 0.0951 0.0000
vt 2.1544 0.0299 0.0000
vt 0.4630 0.7500 0.0000
vt 0.3565 0.9344 0.0000
vt 0.1435 0.9344 0.0000
vt 0.0370 0.7500 0.0000
vt 0.1435 0.5656 0.0000
vt 0.3565 0.5656 0.0000
vt 0.5370 0.7500 0.0000
vt 0.6435 0.9344 0.0000
vt 0.8565 0.9344 0.0000
vt 0.9630 0.7500 0.0000
vt 0.8565 0.5656 0.0000
vt 0.6435 0.5656 0.0000
# 146 texture coords

g Hex
usemtl Material__2
f 5/7/1 7/10/2 1/1/3 
f 1/1/4 106/4/5 5/7/6 
f 8/16/7 10/61/8 7/10/9 
f 7/10/10 107/13/11 8/16/12 
f 52/65/13 13/66/14 10/61/15 
f 10/61/16 110/62/17 52/65/18 
f 84/68/19 17/73/20 13/66/21 
f 13/66/22 82/67/23 84/68/24 
f 87/75/25 22/76/26 17/73/27 
f 17/73/28 85/74/29 87/75/30 
f 105/78/31 1/1/32 22/76/33 
f 22/76/34 116/77/35 105/78/36 
f 22/140/37 1/135/38 7/136/39 
f 7/136/40 10/137/41 13/138/42 
f 22/140/43 7/136/44 13/138/45 
f 22/140/46 13/138/47 17/139/48 
f 28/5/49 92/6/50 112/2/51 
f 112/2/52 50/3/53 28/5/54 
f 74/80/55 106/4/56 1/1/57 
f 1/1/58 104/79/59 74/80/60 
f 7/10/61 5/7/62 6/81/63 
f 6/81/64 75/82/65 7/10/66 
f 108/83/67 107/13/68 7/10/69 
f 7/10/70 75/82/71 108/83/72 
f 10/61/73 8/16/74 79/84/75 
f 79/84/76 109/85/77 10/61/78 
f 111/86/79 110/62/80 10/61/81 
f 10/61/82 109/85/83 111/86/84 
f 13/66/85 52/65/86 12/87/87 
f 12/87/88 80/88/89 13/66/90 
f 83/89/91 82/67/92 13/66/93 
f 13/66/94 80/88/95 83/89/96 
f 17/73/97 84/68/98 114/90/99 
f 114/90/100 113/91/101 17/73/102 
f 19/92/103 85/74/104 17/73/105 
f 17/73/106 113/91/107 19/92/108 
f 22/76/109 87/75/110 88/93/111 
f 88/93/112 115/94/113 22/76/114 
f 23/95/115 116/77/116 22/76/117 
f 22/76/118 115/94/119 23/95/120 
f 1/1/121 105/78/122 2/96/123 
f 2/96/124 104/79/125 1/1/126 
f 9/12/127 78/8/128 119/9/129 
f 119/9/130 126/11/131 9/12/132 
f 49/15/133 9/12/134 126/11/135 
f 126/11/136 67/14/137 49/15/138 
f 11/20/139 81/17/140 98/18/141 
f 98/18/142 99/19/143 11/20/144 
f 54/24/145 16/21/146 94/22/147 
f 94/22/148 129/23/149 54/24/150 
f 53/26/151 54/24/152 129/23/153 
f 129/23/154 41/25/155 53/26/156 
f 132/29/157 73/30/158 45/27/159 
f 45/27/160 62/28/161 132/29/162 
f 124/134/163 3/133/164 44/32/165 
f 44/32/166 63/33/167 124/134/168 
f 125/37/169 58/38/170 47/35/171 
f 47/35/172 48/36/173 125/37/174 
f 97/40/175 125/37/176 48/36/177 
f 48/36/178 4/39/179 97/40/180 
f 67/14/181 68/42/182 51/41/183 
f 51/41/184 49/15/185 67/14/186 
f 100/45/187 93/46/188 14/43/189 
f 14/43/190 15/44/191 100/45/192 
f 95/50/193 18/47/194 86/48/195 
f 86/48/196 102/49/197 95/50/198 
f 61/54/199 56/51/200 89/52/201 
f 89/52/202 103/53/203 61/54/204 
f 25/99/205 117/100/206 24/97/207 
f 24/97/208 26/98/209 25/99/210 
f 59/102/211 118/103/212 26/98/213 
f 26/98/214 27/101/215 59/102/216 
f 29/105/217 91/106/218 27/101/219 
f 27/101/220 30/104/221 29/105/222 
f 32/108/223 31/109/224 30/104/225 
f 30/104/226 33/107/227 32/108/228 
f 60/111/229 34/112/230 33/107/231 
f 33/107/232 35/110/233 60/111/234 
f 122/113/235 121/114/236 35/110/237 
f 35/110/238 24/97/239 122/113/240 
f 26/142/241 24/141/242 35/146/243 
f 35/146/244 33/145/245 30/144/246 
f 26/142/247 35/146/248 30/144/249 
f 26/142/250 30/144/251 27/143/252 
f 57/58/253 90/55/254 76/56/255 
f 76/56/256 46/57/257 57/58/258 
f 47/35/259 58/38/260 119/9/261 
f 119/9/262 78/8/263 47/35/264 
f 14/43/265 93/46/266 94/22/267 
f 94/22/268 16/21/269 14/43/270 
f 95/50/271 120/59/272 20/60/273 
f 20/60/274 18/47/275 95/50/276 
f 61/54/277 62/28/278 45/27/279 
f 45/27/280 56/51/281 61/54/282 
f 64/115/283 123/116/284 24/97/285 
f 24/97/286 117/100/287 64/115/288 
f 26/98/289 37/117/290 36/118/291 
f 36/118/292 25/99/293 26/98/294 
f 65/119/295 37/117/296 26/98/297 
f 26/98/298 118/103/299 65/119/300 
f 27/101/301 127/120/302 66/121/303 
f 66/121/304 59/102/305 27/101/306 
f 128/122/307 127/120/308 27/101/309 
f 27/101/310 91/106/311 128/122/312 
f 30/104/313 39/123/314 38/124/315 
f 38/124/316 29/105/317 30/104/318 
f 40/125/319 39/123/320 30/104/321 
f 30/104/322 31/109/323 40/125/324 
f 33/107/325 101/126/326 69/127/327 
f 69/127/328 32/108/329 33/107/330 
f 42/128/331 101/126/332 33/107/333 
f 33/107/334 34/112/335 42/128/336 
f 35/110/337 131/129/338 70/130/339 
f 70/130/340 60/111/341 35/110/342 
f 43/131/343 131/129/344 35/110/345 
f 35/110/346 121/114/347 43/131/348 
f 24/97/349 123/116/350 72/132/351 
f 72/132/352 122/113/353 24/97/354 
f 76/56/355 90/55/356 96/63/357 
f 96/63/358 77/64/359 76/56/360 
f 77/64/361 96/63/362 97/40/363 
f 97/40/364 4/39/365 77/64/366 
f 112/2/367 92/6/368 98/18/369 
f 98/18/370 81/17/371 112/2/372 
f 20/60/373 120/59/374 130/69/375 
f 130/69/376 21/70/377 20/60/378 
f 21/70/379 130/69/380 71/71/381 
f 71/71/382 55/72/383 21/70/384 
f 44/32/385 73/30/386 132/29/387 
f 132/29/388 63/33/389 44/32/390 
f 124/34/391 57/58/392 46/57/393 
f 46/57/394 3/31/395 124/34/396 
f 28/5/397 50/3/398 51/41/399 
f 51/41/400 68/42/401 28/5/402 
f 100/45/403 15/44/404 11/20/405 
f 11/20/406 99/19/407 100/45/408 
f 41/25/409 102/49/410 86/48/411 
f 86/48/412 53/26/413 41/25/414 
f 103/53/415 89/52/416 55/72/417 
f 55/72/418 71/71/419 103/53/420 
# 140 faces

