# 3ds Max Wavefront OBJ Exporter v0.97b - (c)2007 guruware
# File Created: 02.04.2017 23:46:37

mtllib note-1.mtl

#
# object Plane001
#

v  -3.1250 0.0100 1.3750
v  3.1250 0.0100 1.3750
v  -3.1250 0.0100 -1.3750
v  3.1250 0.0100 -1.3750
v  -3.1250 -0.0100 1.3750
v  3.1250 -0.0100 1.3750
v  -3.1250 -0.0100 -1.3750
v  3.1250 -0.0100 -1.3750
v  3.1250 0.0000 1.3750
v  3.1250 0.0000 -1.3750
v  -3.1250 0.0000 -1.3750
v  -3.1250 0.0000 1.3750
v  -3.1250 0.0100 1.3750
v  -3.1250 0.0100 1.3750
v  3.1250 0.0100 1.3750
v  3.1250 0.0100 1.3750
v  -3.1250 0.0100 -1.3750
v  -3.1250 0.0100 -1.3750
v  3.1250 0.0100 -1.3750
v  3.1250 0.0100 -1.3750
v  -3.1250 -0.0100 1.3750
v  -3.1250 -0.0100 1.3750
v  3.1250 -0.0100 1.3750
v  3.1250 -0.0100 1.3750
v  -3.1250 -0.0100 -1.3750
v  -3.1250 -0.0100 -1.3750
v  3.1250 -0.0100 -1.3750
v  3.1250 -0.0100 -1.3750
v  3.1250 0.0000 1.3750
v  3.1250 0.0000 -1.3750
v  -3.1250 0.0000 -1.3750
v  -3.1250 0.0000 1.3750
# 32 vertices

vn 0.0000 1.0000 -0.0000
vn 0.0000 1.0000 -0.0000
vn 0.0000 1.0000 -0.0000
vn 0.0000 1.0000 -0.0000
vn 0.0000 1.0000 -0.0000
vn 0.0000 1.0000 -0.0000
vn 0.0000 -1.0000 -0.0000
vn 0.0000 -1.0000 -0.0000
vn 0.0000 -1.0000 -0.0000
vn 0.0000 -1.0000 -0.0000
vn 0.0000 -1.0000 -0.0000
vn 0.0000 -1.0000 -0.0000
vn 0.0000 0.0000 1.0000
vn 0.0000 0.0000 1.0000
vn 0.0000 0.0000 1.0000
vn 0.0000 0.0000 1.0000
vn 0.0000 0.0000 1.0000
vn 0.0000 0.0000 1.0000
vn 0.0000 0.0000 1.0000
vn 0.0000 0.0000 1.0000
vn 0.0000 0.0000 1.0000
vn 0.0000 0.0000 1.0000
vn 0.0000 0.0000 1.0000
vn 0.0000 0.0000 1.0000
vn 1.0000 0.0000 -0.0000
vn 1.0000 0.0000 -0.0000
vn 1.0000 0.0000 -0.0000
vn 1.0000 0.0000 -0.0000
vn 1.0000 0.0000 -0.0000
vn 1.0000 0.0000 -0.0000
vn 1.0000 0.0000 -0.0000
vn 1.0000 0.0000 -0.0000
vn 1.0000 0.0000 -0.0000
vn 1.0000 0.0000 -0.0000
vn 1.0000 0.0000 -0.0000
vn 1.0000 0.0000 -0.0000
vn 0.0000 0.0000 -1.0000
vn 0.0000 0.0000 -1.0000
vn 0.0000 0.0000 -1.0000
vn 0.0000 0.0000 -1.0000
vn 0.0000 0.0000 -1.0000
vn 0.0000 0.0000 -1.0000
vn 0.0000 0.0000 -1.0000
vn 0.0000 0.0000 -1.0000
vn 0.0000 0.0000 -1.0000
vn 0.0000 0.0000 -1.0000
vn 0.0000 0.0000 -1.0000
vn 0.0000 0.0000 -1.0000
vn -1.0000 0.0000 -0.0000
vn -1.0000 0.0000 -0.0000
vn -1.0000 0.0000 -0.0000
vn -1.0000 0.0000 -0.0000
vn -1.0000 0.0000 -0.0000
vn -1.0000 0.0000 -0.0000
vn -1.0000 0.0000 -0.0000
vn -1.0000 0.0000 -0.0000
vn -1.0000 0.0000 -0.0000
vn -1.0000 0.0000 -0.0000
vn -1.0000 0.0000 -0.0000
vn -1.0000 0.0000 -0.0000
# 60 vertex normals

vt 0.0200 0.4612 0.0000
vt 0.0200 0.0388 0.0000
vt 0.9800 0.0388 0.0000
vt 0.9800 0.4612 0.0000
vt 0.0200 0.5388 0.0000
vt 0.9800 0.5388 0.0000
vt 0.9800 0.9612 0.0000
vt 0.0200 0.9612 0.0000
vt 0.9800 0.5035 0.0000
vt 0.9800 0.5035 0.0000
vt 0.9800 0.5000 0.0000
vt 0.9800 0.5000 0.0000
vt 0.9800 0.4965 0.0000
vt 0.9800 0.4965 0.0000
vt 0.0200 0.5035 0.0000
vt 0.9800 0.5035 0.0000
vt 0.9800 0.5000 0.0000
vt 0.0200 0.5000 0.0000
vt 0.9800 0.4965 0.0000
vt 0.0200 0.4965 0.0000
vt 0.0200 0.5035 0.0000
vt 0.0200 0.5035 0.0000
vt 0.0200 0.5000 0.0000
vt 0.0200 0.5000 0.0000
vt 0.0200 0.4965 0.0000
vt 0.0200 0.4965 0.0000
vt 0.9800 0.5035 0.0000
vt 0.0200 0.5035 0.0000
vt 0.0200 0.5000 0.0000
vt 0.9800 0.5000 0.0000
vt 0.0200 0.4965 0.0000
vt 0.9800 0.4965 0.0000
# 32 texture coords

g Plane001
usemtl Material__25
f 20/7/1 3/8/2 1/5/3 
f 1/5/4 16/6/5 20/7/6 
f 22/3/7 26/4/8 8/1/9 
f 8/1/10 6/2/11 22/3/12 
f 32/11/13 9/12/14 2/9/15 
f 2/9/16 14/10/17 32/11/18 
f 5/13/19 24/14/20 9/12/21 
f 9/12/22 32/11/23 5/13/24 
f 29/17/25 10/18/26 4/15/27 
f 4/15/28 15/16/29 29/17/30 
f 23/19/31 28/20/32 10/18/33 
f 10/18/34 29/17/35 23/19/36 
f 30/23/37 11/24/38 17/21/39 
f 17/21/40 19/22/41 30/23/42 
f 27/25/43 25/26/44 11/24/45 
f 11/24/46 30/23/47 27/25/48 
f 31/29/49 12/30/50 13/27/51 
f 13/27/52 18/28/53 31/29/54 
f 7/31/55 21/32/56 12/30/57 
f 12/30/58 31/29/59 7/31/60 
# 20 faces

