# 3ds Max Wavefront OBJ Exporter v0.97b - (c)2007 guruware
# File Created: 11.03.2017 21:00:15

mtllib Pent.mtl

#
# object Pent
#

v  0.3760 0.0313 -0.1222
v  0.4208 0.0313 -0.1367
v  0.4193 0.0313 -0.0937
v  0.4236 0.0313 -0.1164
v  0.3943 0.0313 -0.1707
v  0.4111 0.0313 -0.1548
v  0.0000 0.0313 -0.4424
v  0.0405 0.0313 -0.4278
v  0.0202 0.0313 -0.4388
v  -0.0000 0.0313 -0.3953
v  -0.0405 0.0313 -0.4278
v  -0.0202 0.0313 -0.4388
v  -0.4208 0.0313 -0.1367
v  -0.3943 0.0313 -0.1707
v  -0.4111 0.0313 -0.1548
v  -0.3760 0.0313 -0.1222
v  -0.4193 0.0313 -0.0937
v  -0.4236 0.0313 -0.1164
v  -0.2601 0.0313 0.3579
v  -0.2842 0.0313 0.3223
v  -0.2743 0.0313 0.3431
v  -0.2324 0.0313 0.3198
v  -0.2187 0.0313 0.3698
v  -0.2415 0.0313 0.3669
v  0.2601 0.0313 0.3579
v  0.2187 0.0313 0.3698
v  0.2415 0.0313 0.3669
v  0.2324 0.0313 0.3198
v  0.2842 0.0313 0.3223
v  0.2743 0.0313 0.3431
v  0.3760 -0.0313 -0.1222
v  0.3943 -0.0313 -0.1707
v  0.0405 -0.0313 -0.4278
v  -0.0000 -0.0313 -0.3953
v  -0.0405 -0.0313 -0.4278
v  -0.3943 -0.0313 -0.1707
v  -0.3760 -0.0313 -0.1222
v  -0.4193 -0.0313 -0.0937
v  -0.2842 -0.0313 0.3223
v  -0.2324 -0.0313 0.3198
v  -0.2187 -0.0313 0.3698
v  0.2187 -0.0313 0.3698
v  0.2324 -0.0313 0.3198
v  0.2842 -0.0313 0.3223
v  0.4193 -0.0313 -0.0937
v  0.4208 -0.0313 -0.1367
v  0.4111 -0.0313 -0.1548
v  0.0202 -0.0313 -0.4388
v  0.0000 -0.0313 -0.4424
v  -0.0202 -0.0313 -0.4388
v  -0.4111 -0.0313 -0.1548
v  -0.4208 -0.0313 -0.1367
v  -0.4236 -0.0313 -0.1164
v  -0.2743 -0.0313 0.3431
v  -0.2601 -0.0313 0.3579
v  -0.2415 -0.0313 0.3669
v  0.2415 -0.0313 0.3669
v  0.2601 -0.0313 0.3579
v  0.2743 -0.0313 0.3431
v  0.4236 -0.0313 -0.1164
v  0.4208 0.0313 -0.1367
v  0.4193 0.0313 -0.0937
v  0.4236 0.0313 -0.1164
v  0.3943 0.0313 -0.1707
v  0.4111 0.0313 -0.1548
v  0.0000 0.0313 -0.4424
v  0.0405 0.0313 -0.4278
v  0.0202 0.0313 -0.4388
v  -0.0405 0.0313 -0.4278
v  -0.0202 0.0313 -0.4388
v  -0.4208 0.0313 -0.1367
v  -0.3943 0.0313 -0.1707
v  -0.4111 0.0313 -0.1548
v  -0.4193 0.0313 -0.0937
v  -0.4236 0.0313 -0.1164
v  -0.2601 0.0313 0.3579
v  -0.2842 0.0313 0.3223
v  -0.2743 0.0313 0.3431
v  -0.2187 0.0313 0.3698
v  -0.2415 0.0313 0.3669
v  0.2601 0.0313 0.3579
v  0.2187 0.0313 0.3698
v  0.2415 0.0313 0.3669
v  0.2842 0.0313 0.3223
v  0.2743 0.0313 0.3431
v  0.3943 -0.0313 -0.1707
v  0.0405 -0.0313 -0.4278
v  -0.0405 -0.0313 -0.4278
v  -0.3943 -0.0313 -0.1707
v  -0.4193 -0.0313 -0.0937
v  -0.2842 -0.0313 0.3223
v  -0.2187 -0.0313 0.3698
v  0.2187 -0.0313 0.3698
v  0.2842 -0.0313 0.3223
v  0.4193 -0.0313 -0.0937
v  0.4208 -0.0313 -0.1367
v  0.4111 -0.0313 -0.1548
v  0.0202 -0.0313 -0.4388
v  0.0000 -0.0313 -0.4424
v  -0.0202 -0.0313 -0.4388
v  -0.4111 -0.0313 -0.1548
v  -0.4208 -0.0313 -0.1367
v  -0.4236 -0.0313 -0.1164
v  -0.2743 -0.0313 0.3431
v  -0.2601 -0.0313 0.3579
v  -0.2415 -0.0313 0.3669
v  0.2415 -0.0313 0.3669
v  0.2601 -0.0313 0.3579
v  0.2743 -0.0313 0.3431
v  0.4236 -0.0313 -0.1164
# 110 vertices

vn 0.0000 1.0000 -0.0000
vn 0.0000 1.0000 -0.0000
vn 0.0000 1.0000 -0.0000
vn 0.0000 1.0000 -0.0000
vn 0.0000 1.0000 -0.0000
vn 0.0000 1.0000 -0.0000
vn 0.0000 1.0000 -0.0000
vn 0.0000 1.0000 -0.0000
vn 0.0000 1.0000 -0.0000
vn 0.0000 1.0000 -0.0000
vn 0.0000 1.0000 -0.0000
vn 0.0000 1.0000 -0.0000
vn 0.0000 1.0000 -0.0000
vn 0.0000 1.0000 -0.0000
vn 0.0000 1.0000 -0.0000
vn 0.0000 1.0000 -0.0000
vn 0.0000 1.0000 -0.0000
vn 0.0000 1.0000 -0.0000
vn 0.0000 1.0000 -0.0000
vn 0.0000 1.0000 -0.0000
vn 0.0000 1.0000 -0.0000
vn 0.0000 1.0000 -0.0000
vn 0.0000 1.0000 -0.0000
vn 0.0000 1.0000 -0.0000
vn 0.0000 1.0000 -0.0000
vn 0.0000 1.0000 -0.0000
vn 0.0000 1.0000 -0.0000
vn 0.0000 1.0000 -0.0000
vn 0.0000 1.0000 -0.0000
vn 0.0000 1.0000 -0.0000
vn 0.0000 1.0000 -0.0000
vn 0.0000 1.0000 -0.0000
vn 0.0000 1.0000 -0.0000
vn 0.0000 1.0000 -0.0000
vn 0.0000 1.0000 -0.0000
vn 0.0000 1.0000 -0.0000
vn 0.0000 1.0000 -0.0000
vn 0.0000 1.0000 -0.0000
vn 0.0000 1.0000 -0.0000
vn -0.5343 0.0000 -0.8453
vn -0.5343 0.0000 -0.8453
vn -0.6389 0.0000 -0.7693
vn -0.6389 0.0000 -0.7693
vn -0.6389 0.0000 -0.7693
vn -0.5343 0.0000 -0.8453
vn -0.9291 0.0000 0.3699
vn -0.9690 0.0000 0.2469
vn -0.9690 0.0000 0.2469
vn -0.9690 0.0000 0.2469
vn -0.9291 0.0000 0.3699
vn -0.9291 0.0000 0.3699
vn -0.0647 0.0000 0.9979
vn -0.0647 0.0000 0.9979
vn 0.0647 0.0000 0.9979
vn 0.0647 0.0000 0.9979
vn 0.0647 0.0000 0.9979
vn -0.0647 0.0000 0.9979
vn 0.9291 0.0000 0.3699
vn 0.9291 0.0000 0.3699
vn 0.9690 0.0000 0.2469
vn 0.9690 0.0000 0.2469
vn 0.9690 0.0000 0.2469
vn 0.9291 0.0000 0.3699
vn 0.0000 1.0000 -0.0000
vn 0.0000 1.0000 -0.0000
vn 0.0000 1.0000 -0.0000
vn 0.0000 1.0000 -0.0000
vn 0.0000 1.0000 -0.0000
vn 0.0000 1.0000 -0.0000
vn 0.0000 1.0000 -0.0000
vn 0.0000 1.0000 -0.0000
vn 0.0000 1.0000 -0.0000
vn 0.0000 1.0000 -0.0000
vn 0.0000 1.0000 -0.0000
vn 0.0000 1.0000 -0.0000
vn 0.0000 1.0000 -0.0000
vn 0.0000 1.0000 -0.0000
vn 0.0000 1.0000 -0.0000
vn 0.0000 1.0000 -0.0000
vn 0.0000 1.0000 -0.0000
vn 0.0000 1.0000 -0.0000
vn 0.0000 1.0000 -0.0000
vn 0.0000 1.0000 -0.0000
vn 0.0000 1.0000 -0.0000
vn 0.0000 1.0000 -0.0000
vn 0.0000 1.0000 -0.0000
vn 0.0000 1.0000 -0.0000
vn 0.0000 1.0000 -0.0000
vn 0.0000 1.0000 -0.0000
vn 0.0000 1.0000 -0.0000
vn 0.0000 1.0000 -0.0000
vn 0.0000 1.0000 -0.0000
vn 0.0000 1.0000 -0.0000
vn 0.0000 1.0000 -0.0000
vn 0.0000 1.0000 -0.0000
vn 0.0000 1.0000 -0.0000
vn 0.0000 1.0000 -0.0000
vn 0.0000 1.0000 -0.0000
vn 0.0000 1.0000 -0.0000
vn 0.0000 1.0000 -0.0000
vn 0.0000 1.0000 -0.0000
vn 0.0000 1.0000 -0.0000
vn 0.0000 1.0000 -0.0000
vn 0.0000 1.0000 -0.0000
vn 0.0000 1.0000 -0.0000
vn 0.0000 1.0000 -0.0000
vn 0.0000 1.0000 -0.0000
vn 0.0000 1.0000 -0.0000
vn 0.0000 1.0000 -0.0000
vn 0.0000 1.0000 -0.0000
vn 0.0000 1.0000 -0.0000
vn 0.0000 1.0000 -0.0000
vn 0.0000 1.0000 -0.0000
vn 0.0000 1.0000 -0.0000
vn 0.0000 1.0000 -0.0000
vn 0.0000 1.0000 -0.0000
vn 0.0000 1.0000 -0.0000
vn 0.0000 1.0000 -0.0000
vn 0.0000 1.0000 -0.0000
vn 0.0000 1.0000 -0.0000
vn 0.0000 1.0000 -0.0000
vn 0.0000 1.0000 -0.0000
vn 0.0000 1.0000 -0.0000
vn 0.3328 0.0000 -0.9430
vn 0.0000 0.0000 -1.0000
vn 0.0000 0.0000 -1.0000
vn 0.0000 0.0000 -1.0000
vn 0.3328 0.0000 -0.9430
vn 0.3328 0.0000 -0.9430
vn -0.6389 0.0000 -0.7693
vn -0.7940 0.0000 -0.6079
vn -0.7940 0.0000 -0.6079
vn -0.7940 0.0000 -0.6079
vn -0.6389 0.0000 -0.7693
vn -0.6389 0.0000 -0.7693
vn 0.0647 0.0000 0.9979
vn 0.2850 0.0000 0.9585
vn 0.2850 0.0000 0.9585
vn 0.2850 0.0000 0.9585
vn 0.0647 0.0000 0.9979
vn 0.0647 0.0000 0.9979
vn 0.6389 0.0000 -0.7693
vn 0.7940 0.0000 -0.6079
vn 0.7940 0.0000 -0.6079
vn 0.7940 0.0000 -0.6079
vn 0.6389 0.0000 -0.7693
vn 0.6389 0.0000 -0.7693
vn 0.9511 0.0000 -0.3090
vn 0.9511 0.0000 -0.3090
vn 0.7940 0.0000 -0.6079
vn 0.7940 0.0000 -0.6079
vn 0.7940 0.0000 -0.6079
vn 0.9511 0.0000 -0.3090
vn -0.5343 0.0000 -0.8453
vn -0.3328 0.0000 -0.9430
vn -0.3328 0.0000 -0.9430
vn -0.3328 0.0000 -0.9430
vn -0.5343 0.0000 -0.8453
vn -0.5343 0.0000 -0.8453
vn -0.9690 0.0000 0.2469
vn -0.9997 0.0000 0.0251
vn -0.9997 0.0000 0.0251
vn -0.9997 0.0000 0.0251
vn -0.9690 0.0000 0.2469
vn -0.9690 0.0000 0.2469
vn -0.0647 0.0000 0.9979
vn -0.2850 0.0000 0.9585
vn -0.2850 0.0000 0.9585
vn -0.2850 0.0000 0.9585
vn -0.0647 0.0000 0.9979
vn -0.0647 0.0000 0.9979
vn -0.2850 0.0000 0.9585
vn -0.5878 0.0000 0.8090
vn -0.5878 0.0000 0.8090
vn -0.5878 0.0000 0.8090
vn -0.2850 0.0000 0.9585
vn -0.2850 0.0000 0.9585
vn 0.8235 0.0000 0.5673
vn 0.8235 0.0000 0.5673
vn 0.9291 0.0000 0.3699
vn 0.9291 0.0000 0.3699
vn 0.9291 0.0000 0.3699
vn 0.8235 0.0000 0.5673
vn 0.0000 -1.0000 -0.0000
vn 0.0000 -1.0000 -0.0000
vn 0.0000 -1.0000 -0.0000
vn 0.0000 -1.0000 -0.0000
vn 0.0000 -1.0000 -0.0000
vn 0.0000 -1.0000 -0.0000
vn 0.0000 -1.0000 -0.0000
vn 0.0000 -1.0000 -0.0000
vn 0.0000 -1.0000 -0.0000
vn 0.0000 -1.0000 -0.0000
vn 0.0000 -1.0000 -0.0000
vn 0.0000 -1.0000 -0.0000
vn 0.0000 -1.0000 -0.0000
vn 0.0000 -1.0000 -0.0000
vn 0.0000 -1.0000 -0.0000
vn 0.0000 -1.0000 -0.0000
vn 0.0000 -1.0000 -0.0000
vn 0.0000 -1.0000 -0.0000
vn 0.0000 -1.0000 -0.0000
vn 0.0000 -1.0000 -0.0000
vn 0.0000 -1.0000 -0.0000
vn 0.0000 -1.0000 -0.0000
vn 0.0000 -1.0000 -0.0000
vn 0.0000 -1.0000 -0.0000
vn 0.0000 -1.0000 -0.0000
vn 0.0000 -1.0000 -0.0000
vn 0.0000 -1.0000 -0.0000
vn 0.0000 -1.0000 -0.0000
vn 0.0000 -1.0000 -0.0000
vn 0.0000 -1.0000 -0.0000
vn 0.0000 -1.0000 -0.0000
vn 0.0000 -1.0000 -0.0000
vn 0.0000 -1.0000 -0.0000
vn 0.0000 -1.0000 -0.0000
vn 0.0000 -1.0000 -0.0000
vn 0.0000 -1.0000 -0.0000
vn 0.0000 -1.0000 -0.0000
vn 0.0000 -1.0000 -0.0000
vn 0.0000 -1.0000 -0.0000
vn 0.5343 0.0000 -0.8453
vn 0.6389 0.0000 -0.7693
vn 0.6389 0.0000 -0.7693
vn 0.6389 0.0000 -0.7693
vn 0.5343 0.0000 -0.8453
vn 0.5343 0.0000 -0.8453
vn 0.0000 -1.0000 -0.0000
vn 0.0000 -1.0000 -0.0000
vn 0.0000 -1.0000 -0.0000
vn 0.0000 -1.0000 -0.0000
vn 0.0000 -1.0000 -0.0000
vn 0.0000 -1.0000 -0.0000
vn 0.0000 -1.0000 -0.0000
vn 0.0000 -1.0000 -0.0000
vn 0.0000 -1.0000 -0.0000
vn 0.0000 -1.0000 -0.0000
vn 0.0000 -1.0000 -0.0000
vn 0.0000 -1.0000 -0.0000
vn 0.0000 -1.0000 -0.0000
vn 0.0000 -1.0000 -0.0000
vn 0.0000 -1.0000 -0.0000
vn 0.0000 -1.0000 -0.0000
vn 0.0000 -1.0000 -0.0000
vn 0.0000 -1.0000 -0.0000
vn 0.0000 -1.0000 -0.0000
vn 0.0000 -1.0000 -0.0000
vn 0.0000 -1.0000 -0.0000
vn 0.0000 -1.0000 -0.0000
vn 0.0000 -1.0000 -0.0000
vn 0.0000 -1.0000 -0.0000
vn 0.0000 -1.0000 -0.0000
vn 0.0000 -1.0000 -0.0000
vn 0.0000 -1.0000 -0.0000
vn 0.0000 -1.0000 -0.0000
vn 0.0000 -1.0000 -0.0000
vn 0.0000 -1.0000 -0.0000
vn 0.0000 -1.0000 -0.0000
vn 0.0000 -1.0000 -0.0000
vn 0.0000 -1.0000 -0.0000
vn 0.0000 -1.0000 -0.0000
vn 0.0000 -1.0000 -0.0000
vn 0.0000 -1.0000 -0.0000
vn 0.0000 -1.0000 -0.0000
vn 0.0000 -1.0000 -0.0000
vn 0.0000 -1.0000 -0.0000
vn 0.0000 -1.0000 -0.0000
vn 0.0000 -1.0000 -0.0000
vn 0.0000 -1.0000 -0.0000
vn 0.0000 -1.0000 -0.0000
vn 0.0000 -1.0000 -0.0000
vn 0.0000 -1.0000 -0.0000
vn 0.0000 -1.0000 -0.0000
vn 0.0000 -1.0000 -0.0000
vn 0.0000 -1.0000 -0.0000
vn 0.0000 -1.0000 -0.0000
vn 0.0000 -1.0000 -0.0000
vn 0.0000 -1.0000 -0.0000
vn 0.0000 -1.0000 -0.0000
vn 0.0000 -1.0000 -0.0000
vn 0.0000 -1.0000 -0.0000
vn 0.0000 -1.0000 -0.0000
vn 0.0000 -1.0000 -0.0000
vn 0.0000 -1.0000 -0.0000
vn 0.0000 -1.0000 -0.0000
vn 0.0000 -1.0000 -0.0000
vn 0.0000 -1.0000 -0.0000
vn 0.3328 0.0000 -0.9430
vn 0.3328 0.0000 -0.9430
vn 0.5343 0.0000 -0.8453
vn 0.5343 0.0000 -0.8453
vn 0.5343 0.0000 -0.8453
vn 0.3328 0.0000 -0.9430
vn -0.9511 0.0000 -0.3090
vn -0.9511 0.0000 -0.3090
vn -0.7940 0.0000 -0.6079
vn -0.7940 0.0000 -0.6079
vn -0.7940 0.0000 -0.6079
vn -0.9511 0.0000 -0.3090
vn -0.8235 0.0000 0.5673
vn -0.8235 0.0000 0.5673
vn -0.9291 0.0000 0.3699
vn -0.9291 0.0000 0.3699
vn -0.9291 0.0000 0.3699
vn -0.8235 0.0000 0.5673
vn -0.5878 0.0000 0.8090
vn -0.5878 0.0000 0.8090
vn -0.8235 0.0000 0.5673
vn -0.8235 0.0000 0.5673
vn -0.8235 0.0000 0.5673
vn -0.5878 0.0000 0.8090
vn 0.2850 0.0000 0.9585
vn 0.5878 0.0000 0.8090
vn 0.5878 0.0000 0.8090
vn 0.5878 0.0000 0.8090
vn 0.2850 0.0000 0.9585
vn 0.2850 0.0000 0.9585
vn 0.9690 0.0000 0.2469
vn 0.9997 0.0000 0.0251
vn 0.9997 0.0000 0.0251
vn 0.9997 0.0000 0.0251
vn 0.9690 0.0000 0.2469
vn 0.9690 0.0000 0.2469
vn 0.9511 0.0000 -0.3090
vn 0.9511 0.0000 -0.3090
vn 0.9997 0.0000 0.0251
vn 0.9997 0.0000 0.0251
vn 0.9997 0.0000 0.0251
vn 0.9511 0.0000 -0.3090
vn 0.0000 0.0000 -1.0000
vn 0.0000 0.0000 -1.0000
vn -0.3328 0.0000 -0.9430
vn -0.3328 0.0000 -0.9430
vn -0.3328 0.0000 -0.9430
vn 0.0000 0.0000 -1.0000
vn -0.9511 0.0000 -0.3090
vn -0.9511 0.0000 -0.3090
vn -0.9997 0.0000 0.0251
vn -0.9997 0.0000 0.0251
vn -0.9997 0.0000 0.0251
vn -0.9511 0.0000 -0.3090
vn 0.5878 0.0000 0.8090
vn 0.5878 0.0000 0.8090
vn 0.8235 0.0000 0.5673
vn 0.8235 0.0000 0.5673
vn 0.8235 0.0000 0.5673
vn 0.5878 0.0000 0.8090
# 348 vertex normals

vt 0.4523 0.8157 0.0000
vt 0.1747 0.0951 0.0000
vt -0.3681 0.0951 0.0000
vt 0.2500 0.9627 0.0000
vt -0.3681 0.0299 0.0000
vt 0.1747 0.0299 0.0000
vt 0.0477 0.8157 0.0000
vt 0.8255 0.0951 0.0000
vt 0.2827 0.0951 0.0000
vt 0.1250 0.5779 0.0000
vt 0.2827 0.0299 0.0000
vt 0.8255 0.0299 0.0000
vt 0.3750 0.5779 0.0000
vt 1.4762 0.0951 0.0000
vt 0.9335 0.0951 0.0000
vt 0.9335 0.0299 0.0000
vt 1.4762 0.0299 0.0000
vt -1.1271 0.0951 0.0000
vt 1.5844 0.0951 0.0000
vt 1.5844 0.0299 0.0000
vt -1.1271 0.0299 0.0000
vt -0.4477 0.0951 0.0000
vt -0.4477 0.0299 0.0000
vt -0.4222 0.0299 0.0000
vt -0.4222 0.0951 0.0000
vt 0.2032 0.0299 0.0000
vt 0.2032 0.0951 0.0000
vt 1.5048 0.0299 0.0000
vt 1.5048 0.0951 0.0000
vt -1.0190 0.0951 0.0000
vt -1.0476 0.0951 0.0000
vt -1.0476 0.0299 0.0000
vt -1.0190 0.0299 0.0000
vt -1.0731 0.0951 0.0000
vt -1.0731 0.0299 0.0000
vt -0.3967 0.0951 0.0000
vt -0.3967 0.0299 0.0000
vt 0.2542 0.0951 0.0000
vt 0.2542 0.0299 0.0000
vt 0.9049 0.0951 0.0000
vt 0.9049 0.0299 0.0000
vt 0.8795 0.0951 0.0000
vt 0.8795 0.0299 0.0000
vt 1.5558 0.0951 0.0000
vt 1.5558 0.0299 0.0000
vt -0.4762 0.0299 0.0000
vt -0.4762 0.0951 0.0000
vt 0.2287 0.0299 0.0000
vt 0.2287 0.0951 0.0000
vt 0.8540 0.0299 0.0000
vt 0.5477 0.8157 0.0000
vt 0.7500 0.9627 0.0000
vt 0.8540 0.0951 0.0000
vt 0.9523 0.8157 0.0000
vt 0.8750 0.5779 0.0000
vt 0.6250 0.5779 0.0000
vt 1.5303 0.0299 0.0000
vt 1.5303 0.0951 0.0000
vt -1.0986 0.0299 0.0000
vt -1.0986 0.0951 0.0000
vt 0.7206 0.2914 0.0000
vt 0.6348 0.3537 0.0000
vt 0.6152 0.3537 0.0000
vt 0.5294 0.2914 0.0000
vt 0.5234 0.2727 0.0000
vt 0.5561 0.1719 0.0000
vt 0.5720 0.1604 0.0000
vt 0.6780 0.1604 0.0000
vt 0.6939 0.1719 0.0000
vt 0.7266 0.2727 0.0000
vt 0.8848 0.3537 0.0000
vt 0.9706 0.2914 0.0000
vt 0.9766 0.2727 0.0000
vt 0.9439 0.1719 0.0000
vt 0.9280 0.1604 0.0000
vt 0.8220 0.1604 0.0000
vt 0.8061 0.1719 0.0000
vt 0.7734 0.2727 0.0000
vt 0.7270 0.2831 0.0000
vt 0.7246 0.2875 0.0000
vt 0.6299 0.3564 0.0000
vt 0.6250 0.3572 0.0000
vt 0.6201 0.3564 0.0000
vt 0.5254 0.2875 0.0000
vt 0.5230 0.2831 0.0000
vt 0.5223 0.2782 0.0000
vt 0.5585 0.1668 0.0000
vt 0.5620 0.1632 0.0000
vt 0.5664 0.1611 0.0000
vt 0.6836 0.1611 0.0000
vt 0.6880 0.1632 0.0000
vt 0.6915 0.1668 0.0000
vt 0.7277 0.2782 0.0000
vt 0.8701 0.3564 0.0000
vt 0.8750 0.3572 0.0000
vt 0.9746 0.2875 0.0000
vt 0.8164 0.1611 0.0000
vt 0.7754 0.2875 0.0000
vt 0.7794 0.2914 0.0000
vt 0.7730 0.2831 0.0000
vt 0.8799 0.3564 0.0000
vt 0.9777 0.2782 0.0000
vt 0.9336 0.1611 0.0000
vt 0.9380 0.1632 0.0000
vt 0.8085 0.1668 0.0000
vt 0.8652 0.3537 0.0000
vt 0.9770 0.2831 0.0000
vt 0.9415 0.1668 0.0000
vt 0.8120 0.1632 0.0000
vt 0.7723 0.2782 0.0000
vt 0.7161 0.2796 0.0000
vt 0.6250 0.3458 0.0000
vt 0.5339 0.2796 0.0000
vt 0.5687 0.1725 0.0000
vt 0.6813 0.1725 0.0000
vt 0.7839 0.2796 0.0000
vt 0.8750 0.3458 0.0000
vt 0.9661 0.2796 0.0000
vt 0.9313 0.1725 0.0000
vt 0.8187 0.1725 0.0000
vt 2.1271 0.0951 0.0000
vt 2.1271 0.0299 0.0000
# 122 texture coords

g Pent
usemtl Material__2
f 1/111/1 64/61/2 67/62/3 
f 67/62/4 10/112/5 1/111/6 
f 10/112/7 69/63/8 72/64/9 
f 72/64/10 16/113/11 10/112/12 
f 16/113/13 74/65/14 77/66/15 
f 77/66/16 22/114/17 16/113/18 
f 22/114/19 79/67/20 82/68/21 
f 82/68/22 28/115/23 22/114/24 
f 28/115/25 29/69/26 62/70/27 
f 62/70/28 1/111/29 28/115/30 
f 22/10/31 28/13/32 1/1/33 
f 1/1/34 10/4/35 16/7/36 
f 22/10/37 1/1/38 16/7/39 
f 11/3/40 88/5/41 89/6/42 
f 89/6/43 14/2/44 11/3/45 
f 20/8/46 17/9/47 90/11/48 
f 90/11/49 91/12/50 20/8/51 
f 23/15/52 92/16/53 93/17/54 
f 93/17/55 26/14/56 23/15/57 
f 84/19/58 94/20/59 95/122/60 
f 95/122/61 3/121/62 84/19/63 
f 1/111/64 61/79/65 65/80/66 
f 65/80/67 64/61/68 1/111/69 
f 9/81/70 66/82/71 10/112/72 
f 10/112/73 67/62/74 9/81/75 
f 10/112/76 66/82/77 70/83/78 
f 70/83/79 69/63/80 10/112/81 
f 15/84/82 71/85/83 16/113/84 
f 16/113/85 72/64/86 15/84/87 
f 16/113/88 71/85/89 75/86/90 
f 75/86/91 74/65/92 16/113/93 
f 21/87/94 76/88/95 22/114/96 
f 22/114/97 77/66/98 21/87/99 
f 22/114/100 76/88/101 80/89/102 
f 80/89/103 79/67/104 22/114/105 
f 27/90/106 81/91/107 28/115/108 
f 28/115/109 82/68/110 27/90/111 
f 28/115/112 81/91/113 85/92/114 
f 85/92/115 29/69/116 28/115/117 
f 4/93/118 61/79/119 1/111/120 
f 1/111/121 62/70/122 4/93/123 
f 98/23/124 99/24/125 7/25/126 
f 7/25/127 68/22/128 98/23/129 
f 89/6/130 101/26/131 73/27/132 
f 73/27/133 14/2/134 89/6/135 
f 93/17/136 107/28/137 83/29/138 
f 83/29/139 26/14/140 93/17/141 
f 5/30/142 6/31/143 97/32/144 
f 97/32/145 86/33/146 5/30/147 
f 2/34/148 96/35/149 97/32/150 
f 97/32/151 6/31/152 2/34/153 
f 11/3/154 12/36/155 100/37/156 
f 100/37/157 88/5/158 11/3/159 
f 17/9/160 18/38/161 103/39/162 
f 103/39/163 90/11/164 17/9/165 
f 23/15/166 24/40/167 106/41/168 
f 106/41/169 92/16/170 23/15/171 
f 24/40/172 19/42/173 105/43/174 
f 105/43/175 106/41/176 24/40/177 
f 30/44/178 109/45/179 94/20/180 
f 94/20/181 84/19/182 30/44/183 
f 31/116/184 34/117/185 33/106/186 
f 33/106/187 32/99/188 31/116/189 
f 34/117/190 37/118/191 36/72/192 
f 36/72/193 35/71/194 34/117/195 
f 37/118/196 40/119/197 39/74/198 
f 39/74/199 38/73/200 37/118/201 
f 40/119/202 43/120/203 42/76/204 
f 42/76/205 41/75/206 40/119/207 
f 43/120/208 31/116/209 45/78/210 
f 45/78/211 44/77/212 43/120/213 
f 37/54/214 34/52/215 31/51/216 
f 40/55/217 37/54/218 31/51/219 
f 40/55/220 31/51/221 43/56/222 
f 8/47/223 5/30/224 86/33/225 
f 86/33/226 87/46/227 8/47/228 
f 31/116/229 32/99/230 47/98/231 
f 47/98/232 46/100/233 31/116/234 
f 48/94/235 33/106/236 34/117/237 
f 34/117/238 49/95/239 48/94/240 
f 34/117/241 35/71/242 50/101/243 
f 50/101/244 49/95/245 34/117/246 
f 51/96/247 36/72/248 37/118/249 
f 37/118/250 52/107/251 51/96/252 
f 37/118/253 38/73/254 53/102/255 
f 53/102/256 52/107/257 37/118/258 
f 54/108/259 39/74/260 40/119/261 
f 40/119/262 55/104/263 54/108/264 
f 40/119/265 41/75/266 56/103/267 
f 56/103/268 55/104/269 40/119/270 
f 57/97/271 42/76/272 43/120/273 
f 43/120/274 58/109/275 57/97/276 
f 43/120/277 44/77/278 59/105/279 
f 59/105/280 58/109/281 43/120/282 
f 60/110/283 45/78/284 31/116/285 
f 31/116/286 46/100/287 60/110/288 
f 98/23/289 68/22/290 8/47/291 
f 8/47/292 87/46/293 98/23/294 
f 102/48/295 13/49/296 73/27/297 
f 73/27/298 101/26/299 102/48/300 
f 104/50/301 78/53/302 20/8/303 
f 20/8/304 91/12/305 104/50/306 
f 105/43/307 19/42/308 78/53/309 
f 78/53/310 104/50/311 105/43/312 
f 107/28/313 108/57/314 25/58/315 
f 25/58/316 83/29/317 107/28/318 
f 95/21/319 110/59/320 63/60/321 
f 63/60/322 3/18/323 95/21/324 
f 96/35/325 2/34/326 63/60/327 
f 63/60/328 110/59/329 96/35/330 
f 7/25/331 99/24/332 100/37/333 
f 100/37/334 12/36/335 7/25/336 
f 13/49/337 102/48/338 103/39/339 
f 103/39/340 18/38/341 13/49/342 
f 25/58/343 108/57/344 109/45/345 
f 109/45/346 30/44/347 25/58/348 
# 116 faces

