# 3ds Max Wavefront OBJ Exporter v0.97b - (c)2007 guruware
# File Created: 11.03.2017 21:15:47

mtllib Rect.mtl

#
# object Rect
#

v  0.2734 0.0313 -0.4554
v  0.2953 0.0313 -0.5022
v  -0.3109 0.0313 -0.4929
v  -0.2953 0.0313 -0.5022
v  -0.2734 0.0313 -0.4554
v  -0.3234 0.0313 -0.4554
v  -0.3203 0.0313 -0.4772
v  -0.3109 0.0313 0.4929
v  -0.3234 0.0313 0.4554
v  -0.3203 0.0313 0.4772
v  -0.2734 0.0313 0.4554
v  0.3109 0.0313 0.4929
v  0.2953 0.0313 0.5022
v  0.2734 0.0313 0.4554
v  0.3234 0.0313 0.4554
v  0.2734 -0.0313 -0.4554
v  -0.2734 -0.0313 -0.5054
v  -0.2734 -0.0313 -0.4554
v  -0.2734 -0.0313 0.4554
v  -0.2734 -0.0313 0.5054
v  0.2734 -0.0313 0.5054
v  0.2734 -0.0313 0.4554
v  0.3234 -0.0313 -0.4554
v  0.2953 -0.0313 -0.5022
v  -0.3109 -0.0313 -0.4929
v  -0.3203 -0.0313 -0.4772
v  -0.3203 -0.0313 0.4772
v  -0.3109 -0.0313 0.4929
v  0.3203 -0.0313 0.4772
v  0.3203 -0.0313 -0.4772
v  0.3109 0.0313 -0.4929
v  0.3234 0.0313 -0.4554
v  0.3203 0.0313 -0.4772
v  0.2734 0.0313 -0.5054
v  -0.2734 0.0313 -0.5054
v  -0.2734 0.0313 0.5054
v  -0.2953 0.0313 0.5022
v  0.2734 0.0313 0.5054
v  0.3203 0.0313 0.4772
v  0.2734 -0.0313 -0.5054
v  -0.3234 -0.0313 -0.4554
v  -0.3234 -0.0313 0.4554
v  0.3234 -0.0313 0.4554
v  0.3109 -0.0313 -0.4929
v  -0.2953 -0.0313 -0.5022
v  -0.2953 -0.0313 0.5022
v  0.2953 -0.0313 0.5022
v  0.3109 -0.0313 0.4929
v  0.2953 0.0313 -0.5022
v  -0.3109 0.0313 -0.4929
v  -0.2953 0.0313 -0.5022
v  -0.3234 0.0313 -0.4554
v  -0.3203 0.0313 -0.4772
v  -0.3109 0.0313 0.4929
v  -0.3234 0.0313 0.4554
v  -0.3203 0.0313 0.4772
v  0.3109 0.0313 0.4929
v  0.2953 0.0313 0.5022
v  0.3234 0.0313 0.4554
v  -0.2734 -0.0313 -0.5054
v  -0.2734 -0.0313 0.5054
v  0.2734 -0.0313 0.5054
v  0.3234 -0.0313 -0.4554
v  0.2953 -0.0313 -0.5022
v  -0.3109 -0.0313 -0.4929
v  -0.3203 -0.0313 -0.4772
v  -0.3203 -0.0313 0.4772
v  -0.3109 -0.0313 0.4929
v  0.3203 -0.0313 0.4772
v  0.3203 -0.0313 -0.4772
v  0.3109 0.0313 -0.4929
v  0.3234 0.0313 -0.4554
v  0.3203 0.0313 -0.4772
v  0.2734 0.0313 -0.5054
v  -0.2734 0.0313 -0.5054
v  -0.2734 0.0313 0.5054
v  -0.2953 0.0313 0.5022
v  0.2734 0.0313 0.5054
v  0.3203 0.0313 0.4772
v  0.2734 -0.0313 -0.5054
v  -0.3234 -0.0313 -0.4554
v  -0.3234 -0.0313 0.4554
v  0.3234 -0.0313 0.4554
v  0.3109 -0.0313 -0.4929
v  -0.2953 -0.0313 -0.5022
v  -0.2953 -0.0313 0.5022
v  0.2953 -0.0313 0.5022
v  0.3109 -0.0313 0.4929
# 88 vertices

vn 0.0000 1.0000 -0.0000
vn 0.0000 1.0000 -0.0000
vn 0.0000 1.0000 -0.0000
vn 0.0000 1.0000 -0.0000
vn 0.0000 1.0000 -0.0000
vn 0.0000 1.0000 -0.0000
vn 0.0000 1.0000 -0.0000
vn 0.0000 1.0000 -0.0000
vn 0.0000 1.0000 -0.0000
vn 0.0000 1.0000 -0.0000
vn 0.0000 1.0000 -0.0000
vn 0.0000 1.0000 -0.0000
vn 0.0000 1.0000 -0.0000
vn 0.0000 1.0000 -0.0000
vn 0.0000 1.0000 -0.0000
vn 0.0000 1.0000 -0.0000
vn 0.0000 1.0000 -0.0000
vn 0.0000 1.0000 -0.0000
vn 0.0000 1.0000 -0.0000
vn 0.0000 1.0000 -0.0000
vn 0.0000 1.0000 -0.0000
vn 0.0000 1.0000 -0.0000
vn 0.0000 1.0000 -0.0000
vn 0.0000 1.0000 -0.0000
vn 0.0000 1.0000 -0.0000
vn 0.0000 1.0000 -0.0000
vn 0.0000 1.0000 -0.0000
vn 0.0000 1.0000 -0.0000
vn 0.0000 1.0000 -0.0000
vn 0.0000 1.0000 -0.0000
vn 0.9975 0.0000 -0.0709
vn 0.9975 0.0000 -0.0709
vn 0.9975 0.0000 0.0709
vn 0.9975 0.0000 0.0709
vn 0.9975 0.0000 0.0709
vn 0.9975 0.0000 -0.0709
vn 0.0000 1.0000 -0.0000
vn 0.0000 1.0000 -0.0000
vn 0.0000 1.0000 -0.0000
vn 0.0000 1.0000 -0.0000
vn 0.0000 1.0000 -0.0000
vn 0.0000 1.0000 -0.0000
vn 0.0000 1.0000 -0.0000
vn 0.0000 1.0000 -0.0000
vn 0.0000 1.0000 -0.0000
vn 0.0000 1.0000 -0.0000
vn 0.0000 1.0000 -0.0000
vn 0.0000 1.0000 -0.0000
vn 0.0000 1.0000 -0.0000
vn 0.0000 1.0000 -0.0000
vn 0.0000 1.0000 -0.0000
vn 0.0000 1.0000 -0.0000
vn 0.0000 1.0000 -0.0000
vn 0.0000 1.0000 -0.0000
vn 0.0000 1.0000 -0.0000
vn 0.0000 1.0000 -0.0000
vn 0.0000 1.0000 -0.0000
vn 0.0000 1.0000 -0.0000
vn 0.0000 1.0000 -0.0000
vn 0.0000 1.0000 -0.0000
vn 0.0000 1.0000 -0.0000
vn 0.0000 1.0000 -0.0000
vn 0.0000 1.0000 -0.0000
vn 0.0000 1.0000 -0.0000
vn 0.0000 1.0000 -0.0000
vn 0.0000 1.0000 -0.0000
vn 0.0000 1.0000 -0.0000
vn 0.0000 1.0000 -0.0000
vn 0.0000 1.0000 -0.0000
vn 0.0000 1.0000 -0.0000
vn 0.0000 1.0000 -0.0000
vn 0.0000 1.0000 -0.0000
vn 0.0000 1.0000 -0.0000
vn 0.0000 1.0000 -0.0000
vn 0.0000 1.0000 -0.0000
vn 0.0000 1.0000 -0.0000
vn 0.0000 1.0000 -0.0000
vn 0.0000 1.0000 -0.0000
vn 0.0000 1.0000 -0.0000
vn 0.0000 1.0000 -0.0000
vn 0.0000 1.0000 -0.0000
vn 0.0000 1.0000 -0.0000
vn 0.0000 1.0000 -0.0000
vn 0.0000 1.0000 -0.0000
vn -0.3346 0.0000 -0.9424
vn -0.0709 0.0000 -0.9975
vn -0.0709 0.0000 -0.9975
vn -0.0709 0.0000 -0.9975
vn -0.3346 0.0000 -0.9424
vn -0.3346 0.0000 -0.9424
vn -0.7071 0.0000 -0.7071
vn -0.3346 0.0000 -0.9424
vn -0.3346 0.0000 -0.9424
vn -0.3346 0.0000 -0.9424
vn -0.7071 0.0000 -0.7071
vn -0.7071 0.0000 -0.7071
vn -0.9424 0.0000 0.3346
vn -0.9975 0.0000 0.0709
vn -0.9975 0.0000 0.0709
vn -0.9975 0.0000 0.0709
vn -0.9424 0.0000 0.3346
vn -0.9424 0.0000 0.3346
vn 0.3346 0.0000 0.9424
vn 0.3346 0.0000 0.9424
vn 0.0709 0.0000 0.9975
vn 0.0709 0.0000 0.9975
vn 0.0709 0.0000 0.9975
vn 0.3346 0.0000 0.9424
vn 0.7071 0.0000 -0.7071
vn 0.7071 0.0000 -0.7071
vn 0.9424 0.0000 -0.3346
vn 0.9424 0.0000 -0.3346
vn 0.9424 0.0000 -0.3346
vn 0.7071 0.0000 -0.7071
vn 0.7071 0.0000 -0.7071
vn 0.3346 0.0000 -0.9424
vn 0.3346 0.0000 -0.9424
vn 0.3346 0.0000 -0.9424
vn 0.7071 0.0000 -0.7071
vn 0.7071 0.0000 -0.7071
vn -0.3346 0.0000 0.9424
vn -0.3346 0.0000 0.9424
vn -0.7071 0.0000 0.7071
vn -0.7071 0.0000 0.7071
vn -0.7071 0.0000 0.7071
vn -0.3346 0.0000 0.9424
vn 0.9424 0.0000 0.3346
vn 0.9975 0.0000 0.0709
vn 0.9975 0.0000 0.0709
vn 0.9975 0.0000 0.0709
vn 0.9424 0.0000 0.3346
vn 0.9424 0.0000 0.3346
vn 0.9424 0.0000 0.3346
vn 0.9424 0.0000 0.3346
vn 0.7071 0.0000 0.7071
vn 0.7071 0.0000 0.7071
vn 0.7071 0.0000 0.7071
vn 0.9424 0.0000 0.3346
vn 0.0000 -1.0000 -0.0000
vn 0.0000 -1.0000 -0.0000
vn 0.0000 -1.0000 -0.0000
vn 0.0000 -1.0000 -0.0000
vn 0.0000 -1.0000 -0.0000
vn 0.0000 -1.0000 -0.0000
vn 0.0000 -1.0000 -0.0000
vn 0.0000 -1.0000 -0.0000
vn 0.0000 -1.0000 -0.0000
vn 0.0000 -1.0000 -0.0000
vn 0.0000 -1.0000 -0.0000
vn 0.0000 -1.0000 -0.0000
vn 0.0000 -1.0000 -0.0000
vn 0.0000 -1.0000 -0.0000
vn 0.0000 -1.0000 -0.0000
vn 0.0000 -1.0000 -0.0000
vn 0.0000 -1.0000 -0.0000
vn 0.0000 -1.0000 -0.0000
vn 0.0000 -1.0000 -0.0000
vn 0.0000 -1.0000 -0.0000
vn 0.0000 -1.0000 -0.0000
vn 0.0000 -1.0000 -0.0000
vn 0.0000 -1.0000 -0.0000
vn 0.0000 -1.0000 -0.0000
vn 0.0000 -1.0000 -0.0000
vn 0.0000 -1.0000 -0.0000
vn 0.0000 -1.0000 -0.0000
vn 0.0000 -1.0000 -0.0000
vn 0.0000 -1.0000 -0.0000
vn 0.0000 -1.0000 -0.0000
vn 0.0709 0.0000 -0.9975
vn 0.0709 0.0000 -0.9975
vn -0.0709 0.0000 -0.9975
vn -0.0709 0.0000 -0.9975
vn -0.0709 0.0000 -0.9975
vn 0.0709 0.0000 -0.9975
vn -0.9975 0.0000 -0.0709
vn -0.9975 0.0000 -0.0709
vn -0.9975 0.0000 0.0709
vn -0.9975 0.0000 0.0709
vn -0.9975 0.0000 0.0709
vn -0.9975 0.0000 -0.0709
vn -0.0709 0.0000 0.9975
vn 0.0709 0.0000 0.9975
vn 0.0709 0.0000 0.9975
vn 0.0709 0.0000 0.9975
vn -0.0709 0.0000 0.9975
vn -0.0709 0.0000 0.9975
vn 0.0000 -1.0000 -0.0000
vn 0.0000 -1.0000 -0.0000
vn 0.0000 -1.0000 -0.0000
vn 0.0000 -1.0000 -0.0000
vn 0.0000 -1.0000 -0.0000
vn 0.0000 -1.0000 -0.0000
vn 0.0000 -1.0000 -0.0000
vn 0.0000 -1.0000 -0.0000
vn 0.0000 -1.0000 -0.0000
vn 0.0000 -1.0000 -0.0000
vn 0.0000 -1.0000 -0.0000
vn 0.0000 -1.0000 -0.0000
vn 0.0000 -1.0000 -0.0000
vn 0.0000 -1.0000 -0.0000
vn 0.0000 -1.0000 -0.0000
vn 0.0000 -1.0000 -0.0000
vn 0.0000 -1.0000 -0.0000
vn 0.0000 -1.0000 -0.0000
vn 0.0000 -1.0000 -0.0000
vn 0.0000 -1.0000 -0.0000
vn 0.0000 -1.0000 -0.0000
vn 0.0000 -1.0000 -0.0000
vn 0.0000 -1.0000 -0.0000
vn 0.0000 -1.0000 -0.0000
vn 0.0000 -1.0000 -0.0000
vn 0.0000 -1.0000 -0.0000
vn 0.0000 -1.0000 -0.0000
vn 0.0000 -1.0000 -0.0000
vn 0.0000 -1.0000 -0.0000
vn 0.0000 -1.0000 -0.0000
vn 0.0000 -1.0000 -0.0000
vn 0.0000 -1.0000 -0.0000
vn 0.0000 -1.0000 -0.0000
vn 0.0000 -1.0000 -0.0000
vn 0.0000 -1.0000 -0.0000
vn 0.0000 -1.0000 -0.0000
vn 0.0000 -1.0000 -0.0000
vn 0.0000 -1.0000 -0.0000
vn 0.0000 -1.0000 -0.0000
vn 0.0000 -1.0000 -0.0000
vn 0.0000 -1.0000 -0.0000
vn 0.0000 -1.0000 -0.0000
vn 0.0000 -1.0000 -0.0000
vn 0.0000 -1.0000 -0.0000
vn 0.0000 -1.0000 -0.0000
vn 0.0000 -1.0000 -0.0000
vn 0.0000 -1.0000 -0.0000
vn 0.0000 -1.0000 -0.0000
vn -0.9424 0.0000 0.3346
vn -0.9424 0.0000 0.3346
vn -0.7071 0.0000 0.7071
vn -0.7071 0.0000 0.7071
vn -0.7071 0.0000 0.7071
vn -0.9424 0.0000 0.3346
vn 0.7071 0.0000 0.7071
vn 0.3346 0.0000 0.9424
vn 0.3346 0.0000 0.9424
vn 0.3346 0.0000 0.9424
vn 0.7071 0.0000 0.7071
vn 0.7071 0.0000 0.7071
vn 0.9424 0.0000 -0.3346
vn 0.9975 0.0000 -0.0709
vn 0.9975 0.0000 -0.0709
vn 0.9975 0.0000 -0.0709
vn 0.9424 0.0000 -0.3346
vn 0.9424 0.0000 -0.3346
vn 0.0709 0.0000 -0.9975
vn 0.0709 0.0000 -0.9975
vn 0.3346 0.0000 -0.9424
vn 0.3346 0.0000 -0.9424
vn 0.3346 0.0000 -0.9424
vn 0.0709 0.0000 -0.9975
vn -0.9975 0.0000 -0.0709
vn -0.9975 0.0000 -0.0709
vn -0.9424 0.0000 -0.3346
vn -0.9424 0.0000 -0.3346
vn -0.9424 0.0000 -0.3346
vn -0.9975 0.0000 -0.0709
vn -0.9424 0.0000 -0.3346
vn -0.9424 0.0000 -0.3346
vn -0.7071 0.0000 -0.7071
vn -0.7071 0.0000 -0.7071
vn -0.7071 0.0000 -0.7071
vn -0.9424 0.0000 -0.3346
vn -0.3346 0.0000 0.9424
vn -0.0709 0.0000 0.9975
vn -0.0709 0.0000 0.9975
vn -0.0709 0.0000 0.9975
vn -0.3346 0.0000 0.9424
vn -0.3346 0.0000 0.9424
# 276 vertex normals

vt 0.6913 0.3604 0.0000
vt -1.5087 0.0951 0.0000
vt 1.3786 0.0951 0.0000
vt 0.6913 0.3725 0.0000
vt 1.3786 0.0299 0.0000
vt -1.5087 0.0299 0.0000
vt 0.5587 0.3725 0.0000
vt -0.7300 0.0951 0.0000
vt -0.7300 0.0299 0.0000
vt 0.5587 0.3604 0.0000
vt -0.7026 0.0299 0.0000
vt -0.7026 0.0951 0.0000
vt -0.6800 0.0299 0.0000
vt -0.6800 0.0951 0.0000
vt 0.5001 0.0951 0.0000
vt 0.5001 0.0299 0.0000
vt 0.5274 0.0299 0.0000
vt 0.5274 0.0951 0.0000
vt 1.2786 0.0951 0.0000
vt 1.2786 0.0299 0.0000
vt 1.3060 0.0299 0.0000
vt 1.3060 0.0951 0.0000
vt -1.4813 0.0951 0.0000
vt -1.4813 0.0299 0.0000
vt -1.4587 0.0299 0.0000
vt -1.4587 0.0951 0.0000
vt -1.4361 0.0951 0.0000
vt -1.4361 0.0299 0.0000
vt 0.5726 0.0951 0.0000
vt 0.5500 0.0951 0.0000
vt 0.5500 0.0299 0.0000
vt 0.5726 0.0299 0.0000
vt 1.3511 0.0951 0.0000
vt 1.3511 0.0299 0.0000
vt 1.3285 0.0951 0.0000
vt 1.3285 0.0299 0.0000
vt -1.4086 0.0951 0.0000
vt -1.4086 0.0299 0.0000
vt -0.6301 0.0951 0.0000
vt -0.6301 0.0299 0.0000
vt 0.5466 0.3604 0.0000
vt 0.5466 0.1396 0.0000
vt 0.6000 0.0951 0.0000
vt 0.5587 0.1396 0.0000
vt 0.6000 0.0299 0.0000
vt 0.5587 0.1275 0.0000
vt -0.6575 0.0951 0.0000
vt -0.6575 0.0299 0.0000
vt 0.6913 0.1275 0.0000
vt 0.6913 0.1396 0.0000
vt 0.7034 0.1396 0.0000
vt 0.7034 0.3604 0.0000
vt 0.7004 0.3695 0.0000
vt 0.6966 0.3717 0.0000
vt 0.5534 0.3717 0.0000
vt 0.5496 0.3695 0.0000
vt 0.5474 0.3657 0.0000
vt 0.5474 0.1343 0.0000
vt 0.5496 0.1305 0.0000
vt 0.5534 0.1283 0.0000
vt 0.6966 0.1283 0.0000
vt 0.7004 0.1305 0.0000
vt 0.7026 0.1343 0.0000
vt 0.7026 0.3657 0.0000
vt 0.8087 0.3604 0.0000
vt 0.9413 0.3604 0.0000
vt 0.9413 0.3725 0.0000
vt 0.8087 0.3725 0.0000
vt 0.9413 0.1396 0.0000
vt 0.9534 0.1396 0.0000
vt 0.9534 0.3604 0.0000
vt 0.8087 0.1396 0.0000
vt 0.8087 0.1275 0.0000
vt 0.9413 0.1275 0.0000
vt 0.7966 0.3604 0.0000
vt 0.7966 0.1396 0.0000
vt 0.8034 0.3717 0.0000
vt 0.7996 0.3695 0.0000
vt 0.9504 0.3695 0.0000
vt 0.9466 0.3717 0.0000
vt 0.9526 0.3657 0.0000
vt 0.9504 0.1305 0.0000
vt 0.9526 0.1343 0.0000
vt 0.9466 0.1283 0.0000
vt 0.7996 0.1305 0.0000
vt 0.8034 0.1283 0.0000
vt 0.7974 0.1343 0.0000
vt 0.7974 0.3657 0.0000
vt 2.5087 0.0951 0.0000
vt 2.5087 0.0299 0.0000
vt 0.3971 0.9950 0.0000
vt 0.1029 0.9950 0.0000
vt 0.1029 0.5050 0.0000
vt 0.3971 0.5050 0.0000
vt 0.6029 0.9950 0.0000
vt 0.8971 0.9950 0.0000
vt 0.8971 0.5050 0.0000
vt 0.6029 0.5050 0.0000
# 98 texture coords

g Rect
usemtl Material__2
f 35/7/1 5/10/2 1/1/3 
f 1/1/4 74/4/5 35/7/6 
f 55/42/7 11/44/8 5/10/9 
f 5/10/10 52/41/11 55/42/12 
f 38/49/13 14/50/14 11/44/15 
f 11/44/16 76/46/17 38/49/18 
f 72/52/19 1/1/20 14/50/21 
f 14/50/22 59/51/23 72/52/24 
f 5/92/25 11/93/26 14/94/27 
f 14/94/28 1/91/29 5/92/30 
f 23/90/31 32/89/32 15/3/33 
f 15/3/34 83/5/35 23/90/36 
f 2/54/37 74/4/38 1/1/39 
f 1/1/40 71/53/41 2/54/42 
f 5/10/43 35/7/44 4/55/45 
f 4/55/46 50/56/47 5/10/48 
f 53/57/49 52/41/50 5/10/51 
f 5/10/52 50/56/53 53/57/54 
f 11/44/55 55/42/56 10/58/57 
f 10/58/58 54/59/59 11/44/60 
f 77/60/61 76/46/62 11/44/63 
f 11/44/64 54/59/65 77/60/66 
f 14/50/67 38/49/68 13/61/69 
f 13/61/70 57/62/71 14/50/72 
f 79/63/73 59/51/74 14/50/75 
f 14/50/76 57/62/77 79/63/78 
f 1/1/79 72/52/80 33/64/81 
f 33/64/82 71/53/83 1/1/84 
f 51/12/85 75/8/86 17/9/87 
f 17/9/88 85/11/89 51/12/90 
f 3/14/91 51/12/92 85/11/93 
f 85/11/94 65/13/95 3/14/96 
f 56/18/97 9/15/98 82/16/99 
f 82/16/100 67/17/101 56/18/102 
f 87/21/103 58/22/104 78/19/105 
f 78/19/106 62/20/107 87/21/108 
f 44/25/109 31/26/110 73/23/111 
f 73/23/112 70/24/113 44/25/114 
f 44/25/115 64/28/116 49/27/117 
f 49/27/118 31/26/119 44/25/120 
f 46/32/121 37/29/122 8/30/123 
f 8/30/124 68/31/125 46/32/126 
f 69/34/127 83/5/128 15/3/129 
f 15/3/130 39/33/131 69/34/132 
f 69/34/133 39/33/134 12/35/135 
f 12/35/136 88/36/137 69/34/138 
f 60/67/139 80/68/140 16/65/141 
f 16/65/142 18/66/143 60/67/144 
f 42/70/145 41/71/146 18/66/147 
f 18/66/148 19/69/149 42/70/150 
f 21/73/151 61/74/152 19/69/153 
f 19/69/154 22/72/155 21/73/156 
f 63/75/157 43/76/158 22/72/159 
f 22/72/160 16/65/161 63/75/162 
f 18/96/163 16/95/164 22/98/165 
f 22/98/166 19/97/167 18/96/168 
f 34/37/169 40/38/170 17/9/171 
f 17/9/172 75/8/173 34/37/174 
f 6/39/175 81/40/176 82/16/177 
f 82/16/178 9/15/179 6/39/180 
f 20/45/181 62/20/182 78/19/183 
f 78/19/184 36/43/185 20/45/186 
f 24/77/187 84/78/188 16/65/189 
f 16/65/190 80/68/191 24/77/192 
f 18/66/193 25/79/194 45/80/195 
f 45/80/196 60/67/197 18/66/198 
f 26/81/199 25/79/200 18/66/201 
f 18/66/202 41/71/203 26/81/204 
f 19/69/205 28/82/206 27/83/207 
f 27/83/208 42/70/209 19/69/210 
f 86/84/211 28/82/212 19/69/213 
f 19/69/214 61/74/215 86/84/216 
f 22/72/217 48/85/218 47/86/219 
f 47/86/220 21/73/221 22/72/222 
f 29/87/223 48/85/224 22/72/225 
f 22/72/226 43/76/227 29/87/228 
f 16/65/229 84/78/230 30/88/231 
f 30/88/232 63/75/233 16/65/234 
f 56/18/235 67/17/236 68/31/237 
f 68/31/238 8/30/239 56/18/240 
f 12/35/241 58/22/242 87/21/243 
f 87/21/244 88/36/245 12/35/246 
f 73/23/247 32/2/248 23/6/249 
f 23/6/250 70/24/251 73/23/252 
f 40/38/253 34/37/254 49/27/255 
f 49/27/256 64/28/257 40/38/258 
f 81/40/259 6/39/260 7/47/261 
f 7/47/262 66/48/263 81/40/264 
f 66/48/265 7/47/266 3/14/267 
f 3/14/268 65/13/269 66/48/270 
f 46/32/271 20/45/272 36/43/273 
f 36/43/274 37/29/275 46/32/276 
# 92 faces

