# 3ds Max Wavefront OBJ Exporter v0.97b - (c)2007 guruware
# File Created: 11.03.2017 21:15:50

mtllib Square.mtl

#
# object Square
#

v  -0.0628 0.0313 -0.3896
v  -0.3896 0.0313 -0.0628
v  -0.4091 0.0313 -0.0334
v  -0.0334 0.0313 0.4091
v  -0.0000 0.0313 0.4156
v  0.0334 0.0313 0.4091
v  0.3896 0.0313 0.0628
v  0.4091 0.0313 -0.0334
v  0.3896 0.0313 -0.0628
v  0.0000 0.0313 -0.4156
v  -0.0147 0.0313 -0.3626
v  0.0000 0.0313 -0.3655
v  0.0147 0.0313 -0.3626
v  0.0276 0.0313 -0.3541
v  0.3541 0.0313 -0.0276
v  0.3626 0.0313 -0.0147
v  0.3655 0.0313 0.0000
v  0.3626 0.0313 0.0147
v  0.3541 0.0313 0.0276
v  0.0276 0.0313 0.3541
v  0.0147 0.0313 0.3626
v  -0.0000 0.0313 0.3655
v  -0.0147 0.0313 0.3626
v  -0.0276 0.0313 0.3541
v  -0.3541 0.0313 0.0276
v  -0.3626 0.0313 0.0147
v  -0.3655 0.0313 -0.0000
v  -0.3626 0.0313 -0.0147
v  -0.3541 0.0313 -0.0276
v  -0.0276 0.0313 -0.3541
v  0.3626 -0.0313 -0.0147
v  0.3655 -0.0313 0.0000
v  0.3626 -0.0313 0.0147
v  0.4091 -0.0313 0.0334
v  0.3541 -0.0313 0.0276
v  0.0276 -0.0313 0.3541
v  0.0147 -0.0313 0.3626
v  0.0334 -0.0313 0.4091
v  -0.0000 -0.0313 0.3655
v  -0.0000 -0.0313 0.4156
v  -0.0147 -0.0313 0.3626
v  -0.0334 -0.0313 0.4091
v  -0.0276 -0.0313 0.3541
v  -0.3541 -0.0313 0.0276
v  -0.3896 -0.0313 0.0628
v  -0.3626 -0.0313 0.0147
v  -0.3655 -0.0313 -0.0000
v  -0.3626 -0.0313 -0.0147
v  -0.3541 -0.0313 -0.0276
v  -0.0276 -0.0313 -0.3541
v  -0.0628 -0.0313 -0.3896
v  -0.0147 -0.0313 -0.3626
v  -0.0334 -0.0313 -0.4091
v  0.0000 -0.0313 -0.3655
v  0.0147 -0.0313 -0.3626
v  0.0276 -0.0313 -0.3541
v  0.3541 -0.0313 -0.0276
v  0.3896 -0.0313 -0.0628
v  -0.4156 0.0313 -0.0000
v  -0.4091 0.0313 0.0334
v  -0.3896 0.0313 0.0628
v  -0.0628 0.0313 0.3896
v  0.0628 0.0313 0.3896
v  0.4091 0.0313 0.0334
v  0.4156 0.0313 0.0000
v  0.0628 0.0313 -0.3896
v  0.0334 0.0313 -0.4091
v  -0.0334 0.0313 -0.4091
v  0.4091 -0.0313 -0.0334
v  0.4156 -0.0313 0.0000
v  0.3896 -0.0313 0.0628
v  0.0628 -0.0313 0.3896
v  -0.0628 -0.0313 0.3896
v  -0.4091 -0.0313 0.0334
v  -0.4156 -0.0313 -0.0000
v  -0.4091 -0.0313 -0.0334
v  -0.3896 -0.0313 -0.0628
v  0.0000 -0.0313 -0.4156
v  0.0334 -0.0313 -0.4091
v  0.0628 -0.0313 -0.3896
v  -0.0628 0.0313 -0.3896
v  -0.3896 0.0313 -0.0628
v  -0.4091 0.0313 -0.0334
v  -0.0334 0.0313 0.4091
v  -0.0000 0.0313 0.4156
v  0.0334 0.0313 0.4091
v  0.3896 0.0313 0.0628
v  0.4091 0.0313 -0.0334
v  0.3896 0.0313 -0.0628
v  0.0000 0.0313 -0.4156
v  0.4091 -0.0313 0.0334
v  0.0334 -0.0313 0.4091
v  -0.0000 -0.0313 0.4156
v  -0.0334 -0.0313 0.4091
v  -0.3896 -0.0313 0.0628
v  -0.0628 -0.0313 -0.3896
v  -0.0334 -0.0313 -0.4091
v  0.3896 -0.0313 -0.0628
v  -0.4156 0.0313 -0.0000
v  -0.4091 0.0313 0.0334
v  -0.3896 0.0313 0.0628
v  -0.0628 0.0313 0.3896
v  0.0628 0.0313 0.3896
v  0.4091 0.0313 0.0334
v  0.4156 0.0313 0.0000
v  0.0628 0.0313 -0.3896
v  0.0334 0.0313 -0.4091
v  -0.0334 0.0313 -0.4091
v  0.4091 -0.0313 -0.0334
v  0.4156 -0.0313 0.0000
v  0.3896 -0.0313 0.0628
v  0.0628 -0.0313 0.3896
v  -0.0628 -0.0313 0.3896
v  -0.4091 -0.0313 0.0334
v  -0.4156 -0.0313 -0.0000
v  -0.4091 -0.0313 -0.0334
v  -0.3896 -0.0313 -0.0628
v  0.0000 -0.0313 -0.4156
v  0.0334 -0.0313 -0.4091
v  0.0628 -0.0313 -0.3896
# 120 vertices

vn 0.0000 1.0000 -0.0000
vn 0.0000 1.0000 -0.0000
vn 0.0000 1.0000 -0.0000
vn 0.0000 1.0000 -0.0000
vn 0.0000 1.0000 -0.0000
vn 0.0000 1.0000 -0.0000
vn 0.0000 1.0000 -0.0000
vn 0.0000 1.0000 -0.0000
vn 0.0000 1.0000 -0.0000
vn 0.0000 1.0000 -0.0000
vn 0.0000 1.0000 -0.0000
vn 0.0000 1.0000 -0.0000
vn 0.0000 1.0000 -0.0000
vn 0.0000 1.0000 -0.0000
vn 0.0000 1.0000 -0.0000
vn 0.0000 1.0000 -0.0000
vn 0.0000 1.0000 -0.0000
vn 0.0000 1.0000 -0.0000
vn 0.0000 1.0000 -0.0000
vn 0.0000 1.0000 -0.0000
vn 0.0000 1.0000 -0.0000
vn 0.0000 1.0000 -0.0000
vn 0.0000 1.0000 -0.0000
vn 0.0000 1.0000 -0.0000
vn 0.0000 1.0000 -0.0000
vn 0.0000 1.0000 -0.0000
vn 0.0000 1.0000 -0.0000
vn 0.0000 1.0000 -0.0000
vn 0.0000 1.0000 -0.0000
vn 0.0000 1.0000 -0.0000
vn 0.0000 1.0000 -0.0000
vn 0.0000 1.0000 -0.0000
vn 0.0000 1.0000 -0.0000
vn 0.0000 1.0000 -0.0000
vn -0.0000 1.0000 0.0000
vn 0.0000 1.0000 -0.0000
vn -0.0000 1.0000 0.0000
vn 0.0000 1.0000 -0.0000
vn -0.0000 1.0000 0.0000
vn -0.0000 1.0000 0.0000
vn -0.0000 1.0000 0.0000
vn -0.0000 1.0000 0.0000
vn -0.0000 1.0000 0.0000
vn -0.0000 1.0000 0.0000
vn 0.0000 1.0000 0.0000
vn 0.0000 1.0000 0.0000
vn 0.0000 1.0000 0.0000
vn -0.0000 1.0000 0.0000
vn 0.0000 1.0000 0.0000
vn 0.0000 1.0000 0.0000
vn 0.0000 1.0000 -0.0000
vn 0.0000 1.0000 -0.0000
vn 0.0000 1.0000 -0.0000
vn 0.0000 1.0000 0.0000
vn 0.0000 1.0000 -0.0000
vn 0.0000 1.0000 -0.0000
vn 0.0000 1.0000 -0.0000
vn 0.0000 1.0000 -0.0000
vn 0.0000 1.0000 -0.0000
vn 0.0000 1.0000 -0.0000
vn 0.0000 1.0000 -0.0000
vn 0.0000 1.0000 -0.0000
vn 0.0000 1.0000 -0.0000
vn 0.0000 1.0000 -0.0000
vn -0.0000 1.0000 -0.0000
vn 0.0000 1.0000 -0.0000
vn -0.0000 1.0000 -0.0000
vn 0.0000 1.0000 -0.0000
vn -0.0000 1.0000 -0.0000
vn -0.0000 1.0000 -0.0000
vn -0.0000 1.0000 -0.0000
vn -0.0000 1.0000 -0.0000
vn -0.0000 1.0000 -0.0000
vn -0.0000 1.0000 -0.0000
vn -0.0000 1.0000 0.0000
vn -0.0000 1.0000 0.0000
vn -0.0000 1.0000 0.0000
vn -0.0000 1.0000 -0.0000
vn -0.0000 1.0000 0.0000
vn -0.0000 1.0000 0.0000
vn -0.0000 1.0000 -0.0000
vn -0.0000 1.0000 -0.0000
vn -0.0000 1.0000 -0.0000
vn -0.0000 1.0000 0.0000
vn -0.0000 1.0000 -0.0000
vn -0.0000 1.0000 -0.0000
vn -0.0000 1.0000 -0.0000
vn -0.0000 1.0000 -0.0000
vn -0.0000 1.0000 0.0000
vn -0.0000 1.0000 -0.0000
vn -0.0000 1.0000 0.0000
vn -0.0000 1.0000 -0.0000
vn 0.0000 1.0000 -0.0000
vn 0.0000 1.0000 -0.0000
vn 0.0000 1.0000 -0.0000
vn -0.0000 1.0000 0.0000
vn 0.0000 1.0000 -0.0000
vn 0.0000 1.0000 -0.0000
vn 0.0000 1.0000 -0.0000
vn 0.0000 1.0000 -0.0000
vn 0.0000 1.0000 -0.0000
vn 0.0000 1.0000 -0.0000
vn 0.0000 1.0000 -0.0000
vn 0.0000 1.0000 -0.0000
vn 0.0000 1.0000 -0.0000
vn 0.0000 1.0000 -0.0000
vn 0.0000 1.0000 -0.0000
vn 0.0000 1.0000 -0.0000
vn 0.0000 1.0000 -0.0000
vn 0.0000 1.0000 -0.0000
vn 0.0000 1.0000 -0.0000
vn 0.0000 1.0000 -0.0000
vn 0.0000 1.0000 -0.0000
vn 0.0000 1.0000 -0.0000
vn 0.0000 1.0000 -0.0000
vn 0.0000 1.0000 -0.0000
vn 0.0000 1.0000 -0.0000
vn 0.0000 1.0000 -0.0000
vn 0.0000 1.0000 -0.0000
vn 0.0000 1.0000 -0.0000
vn 0.0000 1.0000 -0.0000
vn 0.0000 1.0000 -0.0000
vn 0.0000 1.0000 -0.0000
vn 0.0000 1.0000 -0.0000
vn 0.0000 1.0000 -0.0000
vn 0.0000 1.0000 -0.0000
vn 0.0000 1.0000 -0.0000
vn 0.0000 1.0000 -0.0000
vn 0.0000 1.0000 -0.0000
vn 0.0000 1.0000 -0.0000
vn 0.0000 1.0000 -0.0000
vn 0.0000 1.0000 -0.0000
vn 0.0000 1.0000 -0.0000
vn 0.0000 1.0000 -0.0000
vn 0.0000 1.0000 -0.0000
vn -0.0000 1.0000 -0.0000
vn -0.0000 1.0000 -0.0000
vn -0.0000 1.0000 0.0000
vn 0.0000 1.0000 -0.0000
vn -0.0000 1.0000 -0.0000
vn -0.0000 1.0000 0.0000
vn 0.0000 1.0000 -0.0000
vn 0.0000 1.0000 -0.0000
vn -0.0000 1.0000 0.0000
vn 0.0000 1.0000 -0.0000
vn 0.0000 1.0000 -0.0000
vn -0.0000 1.0000 0.0000
vn 0.0000 1.0000 -0.0000
vn 0.0000 1.0000 -0.0000
vn 0.0000 1.0000 0.0000
vn 0.0000 1.0000 -0.0000
vn 0.0000 1.0000 -0.0000
vn 0.0000 1.0000 0.0000
vn -0.0000 1.0000 -0.0000
vn 0.0000 1.0000 -0.0000
vn 0.0000 1.0000 0.0000
vn -0.0000 1.0000 0.0000
vn -0.0000 1.0000 -0.0000
vn 0.0000 1.0000 0.0000
vn 0.0000 1.0000 -0.0000
vn -0.0000 1.0000 0.0000
vn 0.0000 1.0000 0.0000
vn 0.0000 1.0000 -0.0000
vn 0.0000 1.0000 -0.0000
vn 0.0000 1.0000 0.0000
vn 0.0000 1.0000 -0.0000
vn 0.0000 1.0000 0.0000
vn -0.0000 1.0000 0.0000
vn 0.0000 1.0000 -0.0000
vn -0.0000 1.0000 0.0000
vn 0.0000 1.0000 -0.0000
vn 0.0000 1.0000 -0.0000
vn 0.0000 1.0000 -0.0000
vn 0.0000 1.0000 -0.0000
vn 0.9253 0.0000 -0.3792
vn 0.9253 0.0000 -0.3792
vn 1.0000 0.0000 0.0000
vn 1.0000 0.0000 0.0000
vn 1.0000 0.0000 0.0000
vn 0.9253 0.0000 -0.3792
vn 1.0000 0.0000 0.0000
vn 1.0000 0.0000 0.0000
vn 0.9253 0.0000 0.3792
vn 0.9253 0.0000 0.3792
vn 0.9253 0.0000 0.3792
vn 1.0000 0.0000 0.0000
vn 0.6332 0.0000 0.7740
vn 0.6332 0.0000 0.7740
vn 0.3792 0.0000 0.9253
vn 0.3792 0.0000 0.9253
vn 0.3792 0.0000 0.9253
vn 0.6332 0.0000 0.7740
vn -0.7740 0.0000 0.6332
vn -0.6332 0.0000 0.7740
vn -0.6332 0.0000 0.7740
vn -0.6332 0.0000 0.7740
vn -0.7740 0.0000 0.6332
vn -0.7740 0.0000 0.6332
vn -0.7740 0.0000 0.6332
vn -0.7740 0.0000 0.6332
vn -0.9253 0.0000 0.3792
vn -0.9253 0.0000 0.3792
vn -0.9253 0.0000 0.3792
vn -0.7740 0.0000 0.6332
vn -0.6332 0.0000 -0.7740
vn -0.7740 0.0000 -0.6332
vn -0.7740 0.0000 -0.6332
vn -0.7740 0.0000 -0.6332
vn -0.6332 0.0000 -0.7740
vn -0.6332 0.0000 -0.7740
vn 0.0000 0.0000 -1.0000
vn -0.3792 0.0000 -0.9253
vn -0.3792 0.0000 -0.9253
vn -0.3792 0.0000 -0.9253
vn 0.0000 0.0000 -1.0000
vn 0.0000 0.0000 -1.0000
vn 0.6332 0.0000 -0.7740
vn 0.3792 0.0000 -0.9253
vn 0.3792 0.0000 -0.9253
vn 0.3792 0.0000 -0.9253
vn 0.6332 0.0000 -0.7740
vn 0.6332 0.0000 -0.7740
vn 0.0000 -1.0000 -0.0000
vn 0.0000 -1.0000 -0.0000
vn 0.0000 -1.0000 -0.0000
vn 0.0000 -1.0000 -0.0000
vn 0.0000 -1.0000 -0.0000
vn 0.0000 -1.0000 -0.0000
vn 0.0000 -1.0000 -0.0000
vn 0.0000 -1.0000 -0.0000
vn 0.0000 -1.0000 -0.0000
vn 0.0000 -1.0000 -0.0000
vn 0.0000 -1.0000 -0.0000
vn 0.0000 -1.0000 -0.0000
vn 0.0000 -1.0000 -0.0000
vn 0.0000 -1.0000 -0.0000
vn 0.0000 -1.0000 -0.0000
vn 0.0000 -1.0000 -0.0000
vn 0.0000 -1.0000 -0.0000
vn 0.0000 -1.0000 -0.0000
vn 0.0000 -1.0000 -0.0000
vn 0.0000 -1.0000 -0.0000
vn 0.0000 -1.0000 -0.0000
vn 0.0000 -1.0000 -0.0000
vn 0.0000 -1.0000 -0.0000
vn 0.0000 -1.0000 -0.0000
vn 0.0000 -1.0000 -0.0000
vn 0.0000 -1.0000 -0.0000
vn 0.0000 -1.0000 -0.0000
vn 0.0000 -1.0000 -0.0000
vn 0.0000 -1.0000 -0.0000
vn 0.0000 -1.0000 -0.0000
vn 0.0000 -1.0000 -0.0000
vn -0.0000 -1.0000 0.0000
vn 0.0000 -1.0000 -0.0000
vn 0.0000 -1.0000 -0.0000
vn 0.0000 -1.0000 -0.0000
vn 0.0000 -1.0000 -0.0000
vn -0.0000 -1.0000 0.0000
vn -0.0000 -1.0000 0.0000
vn -0.0000 -1.0000 0.0000
vn -0.0000 -1.0000 0.0000
vn 0.0000 -1.0000 -0.0000
vn -0.0000 -1.0000 0.0000
vn -0.0000 -1.0000 0.0000
vn 0.0000 -1.0000 0.0000
vn 0.0000 -1.0000 0.0000
vn 0.0000 -1.0000 0.0000
vn -0.0000 -1.0000 0.0000
vn -0.0000 -1.0000 0.0000
vn 0.0000 -1.0000 0.0000
vn 0.0000 -1.0000 -0.0000
vn 0.0000 -1.0000 -0.0000
vn 0.0000 -1.0000 -0.0000
vn 0.0000 -1.0000 0.0000
vn 0.0000 -1.0000 0.0000
vn 0.0000 -1.0000 -0.0000
vn 0.0000 -1.0000 -0.0000
vn 0.0000 -1.0000 -0.0000
vn 0.0000 -1.0000 -0.0000
vn 0.0000 -1.0000 -0.0000
vn 0.0000 -1.0000 -0.0000
vn 0.0000 -1.0000 -0.0000
vn -0.0000 -1.0000 -0.0000
vn 0.0000 -1.0000 -0.0000
vn 0.0000 -1.0000 -0.0000
vn 0.0000 -1.0000 -0.0000
vn 0.0000 -1.0000 -0.0000
vn -0.0000 -1.0000 -0.0000
vn -0.0000 -1.0000 -0.0000
vn -0.0000 -1.0000 -0.0000
vn -0.0000 -1.0000 -0.0000
vn 0.0000 -1.0000 -0.0000
vn -0.0000 -1.0000 -0.0000
vn -0.0000 -1.0000 -0.0000
vn -0.0000 -1.0000 0.0000
vn -0.0000 -1.0000 0.0000
vn -0.0000 -1.0000 0.0000
vn -0.0000 -1.0000 -0.0000
vn -0.0000 -1.0000 -0.0000
vn -0.0000 -1.0000 0.0000
vn -0.0000 -1.0000 -0.0000
vn -0.0000 -1.0000 -0.0000
vn -0.0000 -1.0000 -0.0000
vn -0.0000 -1.0000 0.0000
vn -0.0000 -1.0000 0.0000
vn -0.0000 -1.0000 -0.0000
vn -0.0000 -1.0000 0.0000
vn -0.0000 -1.0000 -0.0000
vn -0.0000 -1.0000 -0.0000
vn -0.0000 -1.0000 -0.0000
vn -0.0000 -1.0000 -0.0000
vn -0.0000 -1.0000 0.0000
vn 0.0000 -1.0000 -0.0000
vn 0.0000 -1.0000 -0.0000
vn 0.0000 -1.0000 -0.0000
vn -0.0000 -1.0000 -0.0000
vn -0.0000 -1.0000 0.0000
vn 0.0000 -1.0000 -0.0000
vn 0.0000 -1.0000 -0.0000
vn 0.0000 -1.0000 -0.0000
vn 0.0000 -1.0000 -0.0000
vn 0.0000 -1.0000 -0.0000
vn 0.0000 -1.0000 -0.0000
vn 0.0000 -1.0000 -0.0000
vn 0.0000 -1.0000 -0.0000
vn 0.0000 -1.0000 -0.0000
vn 0.0000 -1.0000 -0.0000
vn 0.0000 -1.0000 -0.0000
vn 0.0000 -1.0000 -0.0000
vn 0.0000 -1.0000 -0.0000
vn 0.0000 -1.0000 -0.0000
vn 0.0000 -1.0000 -0.0000
vn 0.0000 -1.0000 -0.0000
vn 0.0000 -1.0000 -0.0000
vn 0.0000 -1.0000 -0.0000
vn 0.0000 -1.0000 -0.0000
vn 0.0000 -1.0000 -0.0000
vn 0.0000 -1.0000 -0.0000
vn 0.0000 -1.0000 -0.0000
vn 0.0000 -1.0000 -0.0000
vn 0.0000 -1.0000 -0.0000
vn -0.0000 -1.0000 0.0000
vn -0.0000 -1.0000 -0.0000
vn -0.0000 -1.0000 -0.0000
vn -0.0000 -1.0000 0.0000
vn -0.0000 -1.0000 -0.0000
vn 0.0000 -1.0000 -0.0000
vn -0.0000 -1.0000 0.0000
vn 0.0000 -1.0000 -0.0000
vn 0.0000 -1.0000 -0.0000
vn -0.0000 -1.0000 0.0000
vn 0.0000 -1.0000 -0.0000
vn 0.0000 -1.0000 -0.0000
vn 0.0000 -1.0000 -0.0000
vn 0.0000 -1.0000 -0.0000
vn 0.0000 -1.0000 -0.0000
vn 0.0000 -1.0000 -0.0000
vn 0.0000 -1.0000 -0.0000
vn 0.0000 -1.0000 -0.0000
vn 0.0000 -1.0000 -0.0000
vn 0.0000 -1.0000 -0.0000
vn 0.0000 -1.0000 -0.0000
vn 0.0000 -1.0000 -0.0000
vn 0.0000 -1.0000 -0.0000
vn 0.0000 -1.0000 -0.0000
vn 0.0000 -1.0000 -0.0000
vn 0.0000 -1.0000 -0.0000
vn 0.0000 -1.0000 -0.0000
vn 0.0000 -1.0000 -0.0000
vn 0.0000 -1.0000 -0.0000
vn 0.0000 -1.0000 -0.0000
vn 0.0000 -1.0000 -0.0000
vn 0.0000 -1.0000 -0.0000
vn -0.0000 -1.0000 0.0000
vn 0.0000 -1.0000 -0.0000
vn -0.0000 -1.0000 0.0000
vn 0.0000 -1.0000 0.0000
vn 0.0000 -1.0000 -0.0000
vn 0.0000 -1.0000 -0.0000
vn 0.0000 -1.0000 0.0000
vn -0.0000 -1.0000 0.0000
vn 0.0000 -1.0000 -0.0000
vn 0.0000 -1.0000 0.0000
vn 0.0000 -1.0000 0.0000
vn 0.0000 -1.0000 -0.0000
vn 0.0000 -1.0000 -0.0000
vn 0.0000 -1.0000 0.0000
vn 0.0000 -1.0000 -0.0000
vn 0.0000 -1.0000 -0.0000
vn 0.0000 -1.0000 0.0000
vn 0.0000 -1.0000 -0.0000
vn -0.0000 -1.0000 -0.0000
vn -0.0000 -1.0000 0.0000
vn 0.0000 -1.0000 0.0000
vn -0.0000 -1.0000 -0.0000
vn 0.7740 0.0000 0.6332
vn 0.9253 0.0000 0.3792
vn 0.9253 0.0000 0.3792
vn 0.9253 0.0000 0.3792
vn 0.7740 0.0000 0.6332
vn 0.7740 0.0000 0.6332
vn 0.6332 0.0000 0.7740
vn 0.7740 0.0000 0.6332
vn 0.7740 0.0000 0.6332
vn 0.7740 0.0000 0.6332
vn 0.6332 0.0000 0.7740
vn 0.6332 0.0000 0.7740
vn -0.0000 0.0000 1.0000
vn 0.3792 0.0000 0.9253
vn 0.3792 0.0000 0.9253
vn 0.3792 0.0000 0.9253
vn -0.0000 0.0000 1.0000
vn -0.0000 0.0000 1.0000
vn -0.3792 0.0000 0.9253
vn -0.0000 0.0000 1.0000
vn -0.0000 0.0000 1.0000
vn -0.0000 0.0000 1.0000
vn -0.3792 0.0000 0.9253
vn -0.3792 0.0000 0.9253
vn -0.6332 0.0000 0.7740
vn -0.3792 0.0000 0.9253
vn -0.3792 0.0000 0.9253
vn -0.3792 0.0000 0.9253
vn -0.6332 0.0000 0.7740
vn -0.6332 0.0000 0.7740
vn -1.0000 0.0000 -0.0000
vn -1.0000 0.0000 -0.0000
vn -0.9253 0.0000 0.3792
vn -0.9253 0.0000 0.3792
vn -0.9253 0.0000 0.3792
vn -1.0000 0.0000 -0.0000
vn -0.9253 0.0000 -0.3792
vn -1.0000 0.0000 -0.0000
vn -1.0000 0.0000 -0.0000
vn -1.0000 0.0000 -0.0000
vn -0.9253 0.0000 -0.3792
vn -0.9253 0.0000 -0.3792
vn -0.7740 0.0000 -0.6332
vn -0.9253 0.0000 -0.3792
vn -0.9253 0.0000 -0.3792
vn -0.9253 0.0000 -0.3792
vn -0.7740 0.0000 -0.6332
vn -0.7740 0.0000 -0.6332
vn -0.3792 0.0000 -0.9253
vn -0.3792 0.0000 -0.9253
vn -0.6332 0.0000 -0.7740
vn -0.6332 0.0000 -0.7740
vn -0.6332 0.0000 -0.7740
vn -0.3792 0.0000 -0.9253
vn 0.3792 0.0000 -0.9253
vn 0.3792 0.0000 -0.9253
vn 0.0000 0.0000 -1.0000
vn 0.0000 0.0000 -1.0000
vn 0.0000 0.0000 -1.0000
vn 0.3792 0.0000 -0.9253
vn 0.7740 0.0000 -0.6332
vn 0.7740 0.0000 -0.6332
vn 0.6332 0.0000 -0.7740
vn 0.6332 0.0000 -0.7740
vn 0.6332 0.0000 -0.7740
vn 0.7740 0.0000 -0.6332
vn 0.9253 0.0000 -0.3792
vn 0.7740 0.0000 -0.6332
vn 0.7740 0.0000 -0.6332
vn 0.7740 0.0000 -0.6332
vn 0.9253 0.0000 -0.3792
vn 0.9253 0.0000 -0.3792
# 468 vertex normals

vt -0.9909 0.0951 0.0000
vt 0.7242 0.2581 0.0000
vt 0.7129 0.2536 0.0000
vt 1.9486 0.0951 0.0000
vt 0.7136 0.2500 0.0000
vt 1.9486 0.0299 0.0000
vt 0.7257 0.2500 0.0000
vt -0.9909 0.0299 0.0000
vt 0.7129 0.2464 0.0000
vt 1.9063 0.0951 0.0000
vt 0.7242 0.2419 0.0000
vt 1.9063 0.0299 0.0000
vt 0.7108 0.2433 0.0000
vt 1.2892 0.0951 0.0000
vt 0.7194 0.2348 0.0000
vt 1.2454 0.0951 0.0000
vt 0.6317 0.1642 0.0000
vt 1.2454 0.0299 0.0000
vt 0.6402 0.1556 0.0000
vt 1.2892 0.0299 0.0000
vt 0.6286 0.1621 0.0000
vt 1.1172 0.0951 0.0000
vt 0.6331 0.1508 0.0000
vt 0.5438 0.0951 0.0000
vt 0.6250 0.1614 0.0000
vt 0.5438 0.0299 0.0000
vt 0.6250 0.1493 0.0000
vt 1.1172 0.0299 0.0000
vt 0.6214 0.1621 0.0000
vt 0.5000 0.0951 0.0000
vt 0.6169 0.1508 0.0000
vt 0.5000 0.0299 0.0000
vt 0.6183 0.1642 0.0000
vt 0.3718 0.0951 0.0000
vt 0.6098 0.1556 0.0000
vt -0.2016 0.0951 0.0000
vt 0.5392 0.2433 0.0000
vt -0.2016 0.0299 0.0000
vt 0.5306 0.2348 0.0000
vt 0.3718 0.0299 0.0000
vt -0.2454 0.0951 0.0000
vt -0.2877 0.0951 0.0000
vt -0.2877 0.0299 0.0000
vt -0.2454 0.0299 0.0000
vt -0.3299 0.0951 0.0000
vt -0.3737 0.0951 0.0000
vt -0.3737 0.0299 0.0000
vt -0.3299 0.0299 0.0000
vt 1.8626 0.0951 0.0000
vt 1.8626 0.0299 0.0000
vt 1.2032 0.0951 0.0000
vt 1.2032 0.0299 0.0000
vt 1.1609 0.0951 0.0000
vt 1.1609 0.0299 0.0000
vt 0.5371 0.2464 0.0000
vt 0.5258 0.2419 0.0000
vt 0.5364 0.2500 0.0000
vt 0.4578 0.0951 0.0000
vt 0.5243 0.2500 0.0000
vt 0.5371 0.2536 0.0000
vt 0.5258 0.2581 0.0000
vt 0.4578 0.0299 0.0000
vt 0.5392 0.2567 0.0000
vt 0.4155 0.0951 0.0000
vt 0.5306 0.2652 0.0000
vt 0.6183 0.3358 0.0000
vt 0.6098 0.3444 0.0000
vt 0.6214 0.3379 0.0000
vt 0.4155 0.0299 0.0000
vt 0.6169 0.3492 0.0000
vt -0.9471 0.0951 0.0000
vt 0.6250 0.3386 0.0000
vt 0.6250 0.3507 0.0000
vt 0.6286 0.3379 0.0000
vt 0.6331 0.3492 0.0000
vt 0.6317 0.3358 0.0000
vt 0.6402 0.3444 0.0000
vt 0.7108 0.2567 0.0000
vt -0.9471 0.0299 0.0000
vt 0.7194 0.2652 0.0000
vt 0.7758 0.2581 0.0000
vt 0.7743 0.2500 0.0000
vt 0.7864 0.2500 0.0000
vt 0.7871 0.2536 0.0000
vt 0.7758 0.2419 0.0000
vt 0.7871 0.2464 0.0000
vt 0.7806 0.2348 0.0000
vt 0.7892 0.2433 0.0000
vt 0.8598 0.1556 0.0000
vt 0.8683 0.1642 0.0000
vt 0.8669 0.1508 0.0000
vt 0.8714 0.1621 0.0000
vt 0.8750 0.1493 0.0000
vt 0.8750 0.1614 0.0000
vt 0.8831 0.1508 0.0000
vt 0.8786 0.1621 0.0000
vt 0.8902 0.1556 0.0000
vt 0.8817 0.1642 0.0000
vt 0.9694 0.2348 0.0000
vt 0.9608 0.2433 0.0000
vt 0.9742 0.2419 0.0000
vt 0.9629 0.2464 0.0000
vt 0.9757 0.2500 0.0000
vt 0.9636 0.2500 0.0000
vt 0.9742 0.2581 0.0000
vt 0.9629 0.2536 0.0000
vt 0.9694 0.2652 0.0000
vt 0.9608 0.2567 0.0000
vt 0.8902 0.3444 0.0000
vt 0.8817 0.3358 0.0000
vt 0.8831 0.3492 0.0000
vt 0.8786 0.3379 0.0000
vt 0.8750 0.3507 0.0000
vt 0.8750 0.3386 0.0000
vt 0.8669 0.3492 0.0000
vt 0.8714 0.3379 0.0000
vt 0.8598 0.3444 0.0000
vt 0.8683 0.3358 0.0000
vt 0.7806 0.2652 0.0000
vt 0.7892 0.2567 0.0000
vt 1.9909 0.0951 0.0000
vt 1.9909 0.0299 0.0000
vt 0.4451 0.7579 0.0000
vt 0.4467 0.7500 0.0000
vt 0.4451 0.7421 0.0000
vt 0.4405 0.7351 0.0000
vt 0.2649 0.5595 0.0000
vt 0.2579 0.5549 0.0000
vt 0.2500 0.5533 0.0000
vt 0.2421 0.5549 0.0000
vt 0.2351 0.5595 0.0000
vt 0.0595 0.7351 0.0000
vt 0.0549 0.7421 0.0000
vt 0.0533 0.7500 0.0000
vt 0.0549 0.7579 0.0000
vt 0.0595 0.7649 0.0000
vt 0.2351 0.9405 0.0000
vt 0.2421 0.9451 0.0000
vt 0.2500 0.9467 0.0000
vt 0.2579 0.9451 0.0000
vt 0.2649 0.9405 0.0000
vt 0.4405 0.7649 0.0000
vt 0.5533 0.7500 0.0000
vt 0.5549 0.7579 0.0000
vt 0.5549 0.7421 0.0000
vt 0.5595 0.7351 0.0000
vt 0.7351 0.5595 0.0000
vt 0.7421 0.5549 0.0000
vt 0.7500 0.5533 0.0000
vt 0.7579 0.5549 0.0000
vt 0.7649 0.5595 0.0000
vt 0.9405 0.7351 0.0000
vt 0.9451 0.7421 0.0000
vt 0.9467 0.7500 0.0000
vt 0.9451 0.7579 0.0000
vt 0.9405 0.7649 0.0000
vt 0.7649 0.9405 0.0000
vt 0.7579 0.9451 0.0000
vt 0.7500 0.9467 0.0000
vt 0.7421 0.9451 0.0000
vt 0.7351 0.9405 0.0000
vt 0.5595 0.7649 0.0000
# 162 texture coords

g Square
usemtl Material__2
f 8/2/1 16/3/2 17/5/3 
f 17/5/4 65/7/5 8/2/6 
f 65/7/7 17/5/8 18/9/9 
f 18/9/10 104/11/11 65/7/12 
f 104/11/13 18/9/14 19/13/15 
f 19/13/16 87/15/17 104/11/18 
f 87/15/19 19/13/20 20/17/21 
f 20/17/22 103/19/23 87/15/24 
f 103/19/25 20/17/26 21/21/27 
f 21/21/28 86/23/29 103/19/30 
f 86/23/31 21/21/32 22/25/33 
f 22/25/34 85/27/35 86/23/36 
f 85/27/37 22/25/38 23/29/39 
f 23/29/40 4/31/41 85/27/42 
f 4/31/43 23/29/44 24/33/45 
f 24/33/46 62/35/47 4/31/48 
f 62/35/49 24/33/50 25/37/51 
f 25/37/52 101/39/53 62/35/54 
f 101/39/55 25/37/56 26/55/57 
f 26/55/58 100/56/59 101/39/60 
f 100/56/61 26/55/62 27/57/63 
f 27/57/64 99/59/65 100/56/66 
f 99/59/67 27/57/68 28/60/69 
f 28/60/70 83/61/71 99/59/72 
f 83/61/73 28/60/74 29/63/75 
f 29/63/76 82/65/77 83/61/78 
f 82/65/79 29/63/80 30/66/81 
f 30/66/82 1/67/83 82/65/84 
f 1/67/85 30/66/86 11/68/87 
f 11/68/88 68/70/89 1/67/90 
f 68/70/91 11/68/92 12/72/93 
f 12/72/94 90/73/95 68/70/96 
f 90/73/97 12/72/98 13/74/99 
f 13/74/100 67/75/101 90/73/102 
f 67/75/103 13/74/104 14/76/105 
f 14/76/106 106/77/107 67/75/108 
f 106/77/109 14/76/110 15/78/111 
f 15/78/112 89/80/113 106/77/114 
f 89/80/115 15/78/116 16/3/117 
f 16/3/118 8/2/119 89/80/120 
f 21/128/121 20/127/122 19/126/123 
f 16/123/124 15/142/125 14/141/126 
f 17/124/127 16/123/128 14/141/129 
f 18/125/130 17/124/131 14/141/132 
f 19/126/133 18/125/134 14/141/135 
f 11/138/136 30/137/137 29/136/138 
f 12/139/139 11/138/140 29/136/141 
f 13/140/142 12/139/143 29/136/144 
f 14/141/145 13/140/146 29/136/147 
f 26/133/148 25/132/149 24/131/150 
f 27/134/151 26/133/152 24/131/153 
f 28/135/154 27/134/155 24/131/156 
f 29/136/157 28/135/158 24/131/159 
f 14/141/160 29/136/161 24/131/162 
f 19/126/163 14/141/164 24/131/165 
f 19/126/166 24/131/167 23/130/168 
f 19/126/169 23/130/170 22/129/171 
f 21/128/172 19/126/173 22/129/174 
f 109/122/175 88/121/176 105/4/177 
f 105/4/178 70/6/179 109/122/180 
f 70/6/181 105/4/182 64/10/183 
f 64/10/184 34/12/185 70/6/186 
f 72/20/187 63/14/188 6/16/189 
f 6/16/190 92/18/191 72/20/192 
f 45/26/193 73/28/194 102/22/195 
f 102/22/196 61/24/197 45/26/198 
f 45/26/199 61/24/200 60/30/201 
f 60/30/202 74/32/203 45/26/204 
f 96/38/205 117/40/206 2/34/207 
f 2/34/208 81/36/209 96/38/210 
f 118/43/211 53/44/212 108/41/213 
f 108/41/214 10/42/215 118/43/216 
f 80/47/217 79/48/218 107/45/219 
f 107/45/220 66/46/221 80/47/222 
f 69/81/223 110/82/224 32/83/225 
f 32/83/226 31/84/227 69/81/228 
f 110/82/229 91/85/230 33/86/231 
f 33/86/232 32/83/233 110/82/234 
f 91/85/235 71/87/236 35/88/237 
f 35/88/238 33/86/239 91/85/240 
f 71/87/241 112/89/242 36/90/243 
f 36/90/244 35/88/245 71/87/246 
f 112/89/247 38/91/248 37/92/249 
f 37/92/250 36/90/251 112/89/252 
f 38/91/253 40/93/254 39/94/255 
f 39/94/256 37/92/257 38/91/258 
f 40/93/259 42/95/260 41/96/261 
f 41/96/262 39/94/263 40/93/264 
f 42/95/265 113/97/266 43/98/267 
f 43/98/268 41/96/269 42/95/270 
f 113/97/271 95/99/272 44/100/273 
f 44/100/274 43/98/275 113/97/276 
f 95/99/277 114/101/278 46/102/279 
f 46/102/280 44/100/281 95/99/282 
f 114/101/283 115/103/284 47/104/285 
f 47/104/286 46/102/287 114/101/288 
f 115/103/289 76/105/290 48/106/291 
f 48/106/292 47/104/293 115/103/294 
f 76/105/295 77/107/296 49/108/297 
f 49/108/298 48/106/299 76/105/300 
f 77/107/301 51/109/302 50/110/303 
f 50/110/304 49/108/305 77/107/306 
f 51/109/307 97/111/308 52/112/309 
f 52/112/310 50/110/311 51/109/312 
f 97/111/313 78/113/314 54/114/315 
f 54/114/316 52/112/317 97/111/318 
f 78/113/319 119/115/320 55/116/321 
f 55/116/322 54/114/323 78/113/324 
f 119/115/325 120/117/326 56/118/327 
f 56/118/328 55/116/329 119/115/330 
f 120/117/331 58/119/332 57/120/333 
f 57/120/334 56/118/335 120/117/336 
f 58/119/337 69/81/338 31/84/339 
f 31/84/340 57/120/341 58/119/342 
f 49/156/343 50/157/344 52/158/345 
f 49/156/346 52/158/347 54/159/348 
f 49/156/349 54/159/350 55/160/351 
f 49/156/352 55/160/353 56/161/354 
f 56/161/355 57/162/356 31/144/357 
f 56/161/358 31/144/359 32/143/360 
f 56/161/361 32/143/362 33/145/363 
f 56/161/364 33/145/365 35/146/366 
f 35/146/367 36/147/368 37/148/369 
f 35/146/370 37/148/371 39/149/372 
f 35/146/373 39/149/374 41/150/375 
f 35/146/376 41/150/377 43/151/378 
f 56/161/379 35/146/380 43/151/381 
f 49/156/382 56/161/383 43/151/384 
f 43/151/385 44/152/386 46/153/387 
f 43/151/388 46/153/389 47/154/390 
f 43/151/391 47/154/392 48/155/393 
f 49/156/394 43/151/395 48/155/396 
f 111/50/397 34/12/398 64/10/399 
f 64/10/400 7/49/401 111/50/402 
f 72/20/403 111/50/404 7/49/405 
f 7/49/406 63/14/407 72/20/408 
f 93/52/409 92/18/410 6/16/411 
f 6/16/412 5/51/413 93/52/414 
f 94/54/415 93/52/416 5/51/417 
f 5/51/418 84/53/419 94/54/420 
f 73/28/421 94/54/422 84/53/423 
f 84/53/424 102/22/425 73/28/426 
f 59/58/427 75/62/428 74/32/429 
f 74/32/430 60/30/431 59/58/432 
f 116/69/433 75/62/434 59/58/435 
f 59/58/436 3/64/437 116/69/438 
f 117/40/439 116/69/440 3/64/441 
f 3/64/442 2/34/443 117/40/444 
f 108/41/445 53/44/446 96/38/447 
f 96/38/448 81/36/449 108/41/450 
f 107/45/451 79/48/452 118/43/453 
f 118/43/454 10/42/455 107/45/456 
f 9/71/457 98/79/458 80/47/459 
f 80/47/460 66/46/461 9/71/462 
f 109/8/463 98/79/464 9/71/465 
f 9/71/466 88/1/467 109/8/468 
# 156 faces

