# 3ds Max Wavefront OBJ Exporter v0.97b - (c)2007 guruware
# File Created: 11.03.2017 21:15:51

mtllib TTri.mtl

#
# object TTri
#

v  0.3381 0.0313 0.2619
v  0.3169 0.0313 0.3119
v  0.3404 0.0313 0.3092
v  0.3919 0.0313 0.2686
v  0.3779 0.0313 0.2875
v  0.4379 0.0313 0.1835
v  0.3958 0.0313 0.1618
v  0.1116 0.0313 -0.4304
v  0.0976 0.0313 -0.4493
v  0.0578 0.0313 -0.4237
v  0.0366 0.0313 -0.4737
v  0.0601 0.0313 -0.4710
v  -0.0366 0.0313 -0.4737
v  -0.0601 0.0313 -0.4710
v  -0.0578 0.0313 -0.4237
v  -0.1116 0.0313 -0.4304
v  -0.0976 0.0313 -0.4493
v  -0.4286 0.0313 0.1185
v  -0.4379 0.0313 0.1402
v  -0.3958 0.0313 0.1618
v  -0.4286 0.0313 0.2051
v  -0.4379 0.0313 0.1835
v  -0.3607 0.0313 0.3011
v  -0.3919 0.0313 0.2686
v  -0.3381 0.0313 0.2619
v  -0.3169 0.0313 0.3119
v  -0.3404 0.0313 0.3092
v  0.3381 -0.0313 0.2619
v  0.4286 -0.0313 0.2051
v  0.3958 -0.0313 0.1618
v  0.1116 -0.0313 -0.4304
v  0.0578 -0.0313 -0.4237
v  0.0366 -0.0313 -0.4737
v  -0.0366 -0.0313 -0.4737
v  -0.0578 -0.0313 -0.4237
v  -0.1116 -0.0313 -0.4304
v  -0.3958 -0.0313 0.1618
v  -0.3381 -0.0313 0.2619
v  0.3169 -0.0313 0.3119
v  0.4411 -0.0313 0.1618
v  0.0601 -0.0313 -0.4710
v  -0.4379 -0.0313 0.1402
v  -0.4379 -0.0313 0.1835
v  -0.3404 -0.0313 0.3092
v  0.3607 0.0313 0.3011
v  0.4411 0.0313 0.1618
v  0.4286 0.0313 0.2051
v  0.4286 0.0313 0.1185
v  0.4379 0.0313 0.1402
v  0.0804 0.0313 -0.4629
v  -0.0804 0.0313 -0.4629
v  -0.4411 0.0313 0.1618
v  -0.3779 0.0313 0.2875
v  0.3919 -0.0313 0.2686
v  0.4286 -0.0313 0.1185
v  -0.4286 -0.0313 0.1185
v  -0.4286 -0.0313 0.2051
v  -0.3919 -0.0313 0.2686
v  -0.3169 -0.0313 0.3119
v  0.3607 -0.0313 0.3011
v  0.3779 -0.0313 0.2875
v  0.4379 -0.0313 0.1835
v  0.4379 -0.0313 0.1402
v  0.0976 -0.0313 -0.4493
v  0.0804 -0.0313 -0.4629
v  -0.0601 -0.0313 -0.4710
v  -0.0804 -0.0313 -0.4629
v  -0.0976 -0.0313 -0.4493
v  -0.4411 -0.0313 0.1618
v  -0.3779 -0.0313 0.2875
v  -0.3607 -0.0313 0.3011
v  0.3404 -0.0313 0.3092
v  0.3169 0.0313 0.3119
v  0.3404 0.0313 0.3092
v  0.3919 0.0313 0.2686
v  0.3779 0.0313 0.2875
v  0.4379 0.0313 0.1835
v  0.1116 0.0313 -0.4304
v  0.0976 0.0313 -0.4493
v  0.0366 0.0313 -0.4737
v  0.0601 0.0313 -0.4710
v  -0.0366 0.0313 -0.4737
v  -0.0601 0.0313 -0.4710
v  -0.1116 0.0313 -0.4304
v  -0.0976 0.0313 -0.4493
v  -0.4286 0.0313 0.1185
v  -0.4379 0.0313 0.1402
v  -0.4286 0.0313 0.2051
v  -0.4379 0.0313 0.1835
v  -0.3607 0.0313 0.3011
v  -0.3919 0.0313 0.2686
v  -0.3169 0.0313 0.3119
v  -0.3404 0.0313 0.3092
v  0.4286 -0.0313 0.2051
v  0.1116 -0.0313 -0.4304
v  0.0366 -0.0313 -0.4737
v  -0.0366 -0.0313 -0.4737
v  -0.1116 -0.0313 -0.4304
v  0.3169 -0.0313 0.3119
v  0.4411 -0.0313 0.1618
v  0.0601 -0.0313 -0.4710
v  -0.4379 -0.0313 0.1402
v  -0.4379 -0.0313 0.1835
v  -0.3404 -0.0313 0.3092
v  0.3607 0.0313 0.3011
v  0.4411 0.0313 0.1618
v  0.4286 0.0313 0.2051
v  0.4286 0.0313 0.1185
v  0.4379 0.0313 0.1402
v  0.0804 0.0313 -0.4629
v  -0.0804 0.0313 -0.4629
v  -0.4411 0.0313 0.1618
v  -0.3779 0.0313 0.2875
v  0.3919 -0.0313 0.2686
v  0.4286 -0.0313 0.1185
v  -0.4286 -0.0313 0.1185
v  -0.4286 -0.0313 0.2051
v  -0.3919 -0.0313 0.2686
v  -0.3169 -0.0313 0.3119
v  0.3607 -0.0313 0.3011
v  0.3779 -0.0313 0.2875
v  0.4379 -0.0313 0.1835
v  0.4379 -0.0313 0.1402
v  0.0976 -0.0313 -0.4493
v  0.0804 -0.0313 -0.4629
v  -0.0601 -0.0313 -0.4710
v  -0.0804 -0.0313 -0.4629
v  -0.0976 -0.0313 -0.4493
v  -0.4411 -0.0313 0.1618
v  -0.3779 -0.0313 0.2875
v  -0.3607 -0.0313 0.3011
v  0.3404 -0.0313 0.3092
# 132 vertices

vn 0.0000 1.0000 -0.0000
vn 0.0000 1.0000 -0.0000
vn 0.0000 1.0000 -0.0000
vn 0.0000 1.0000 -0.0000
vn 0.0000 1.0000 -0.0000
vn 0.0000 1.0000 -0.0000
vn 0.0000 1.0000 -0.0000
vn 0.0000 1.0000 -0.0000
vn 0.0000 1.0000 -0.0000
vn 0.0000 1.0000 -0.0000
vn 0.0000 1.0000 -0.0000
vn 0.0000 1.0000 -0.0000
vn 0.0000 1.0000 -0.0000
vn 0.0000 1.0000 -0.0000
vn 0.0000 1.0000 -0.0000
vn 0.0000 1.0000 -0.0000
vn 0.0000 1.0000 -0.0000
vn 0.0000 1.0000 -0.0000
vn 0.0000 1.0000 -0.0000
vn 0.0000 1.0000 -0.0000
vn 0.0000 1.0000 -0.0000
vn 0.0000 1.0000 -0.0000
vn 0.0000 1.0000 -0.0000
vn 0.0000 1.0000 -0.0000
vn 0.0000 1.0000 -0.0000
vn 0.0000 1.0000 -0.0000
vn 0.0000 1.0000 -0.0000
vn 0.0000 1.0000 -0.0000
vn 0.0000 1.0000 -0.0000
vn 0.0000 1.0000 -0.0000
vn 0.0000 1.0000 -0.0000
vn 0.0000 1.0000 -0.0000
vn 0.0000 1.0000 -0.0000
vn 0.0000 1.0000 -0.0000
vn 0.0000 1.0000 -0.0000
vn 0.0000 1.0000 -0.0000
vn 0.0000 1.0000 -0.0000
vn 0.0000 1.0000 -0.0000
vn 0.0000 1.0000 -0.0000
vn 0.0000 1.0000 -0.0000
vn 0.0000 1.0000 -0.0000
vn 0.0000 1.0000 -0.0000
vn 0.0000 1.0000 -0.0000
vn 0.0000 1.0000 -0.0000
vn 0.0000 1.0000 -0.0000
vn 0.0000 1.0000 -0.0000
vn 0.0000 1.0000 -0.0000
vn 0.0000 1.0000 -0.0000
vn 0.0574 0.0000 0.9983
vn 0.0574 0.0000 0.9983
vn -0.0574 0.0000 0.9983
vn -0.0574 0.0000 0.9983
vn -0.0574 0.0000 0.9983
vn 0.0574 0.0000 0.9983
vn 0.0000 1.0000 -0.0000
vn 0.0000 1.0000 -0.0000
vn 0.0000 1.0000 -0.0000
vn 0.0000 1.0000 -0.0000
vn 0.0000 1.0000 -0.0000
vn 0.0000 1.0000 -0.0000
vn 0.0000 1.0000 -0.0000
vn 0.0000 1.0000 -0.0000
vn 0.0000 1.0000 -0.0000
vn 0.0000 1.0000 -0.0000
vn 0.0000 1.0000 -0.0000
vn 0.0000 1.0000 -0.0000
vn 0.0000 1.0000 -0.0000
vn 0.0000 1.0000 -0.0000
vn 0.0000 1.0000 -0.0000
vn 0.0000 1.0000 -0.0000
vn 0.0000 1.0000 -0.0000
vn 0.0000 1.0000 -0.0000
vn 0.0000 1.0000 -0.0000
vn 0.0000 1.0000 -0.0000
vn 0.0000 1.0000 -0.0000
vn 0.0000 1.0000 -0.0000
vn 0.0000 1.0000 -0.0000
vn 0.0000 1.0000 -0.0000
vn 0.0000 1.0000 -0.0000
vn 0.0000 1.0000 -0.0000
vn 0.0000 1.0000 -0.0000
vn 0.0000 1.0000 -0.0000
vn 0.0000 1.0000 -0.0000
vn 0.0000 1.0000 -0.0000
vn 0.0000 1.0000 -0.0000
vn 0.0000 1.0000 -0.0000
vn 0.0000 1.0000 -0.0000
vn 0.0000 1.0000 -0.0000
vn 0.0000 1.0000 -0.0000
vn 0.0000 1.0000 -0.0000
vn 0.0000 1.0000 -0.0000
vn 0.0000 1.0000 -0.0000
vn 0.0000 1.0000 -0.0000
vn 0.0000 1.0000 -0.0000
vn 0.0000 1.0000 -0.0000
vn 0.0000 1.0000 -0.0000
vn 0.0000 1.0000 -0.0000
vn 0.0000 1.0000 -0.0000
vn 0.0000 1.0000 -0.0000
vn 0.0000 1.0000 -0.0000
vn 0.0000 1.0000 -0.0000
vn 0.0000 1.0000 -0.0000
vn 0.0000 1.0000 -0.0000
vn 0.0000 1.0000 -0.0000
vn 0.0000 1.0000 -0.0000
vn 0.0000 1.0000 -0.0000
vn 0.0000 1.0000 -0.0000
vn 0.0000 1.0000 -0.0000
vn 0.0000 1.0000 -0.0000
vn 0.0000 1.0000 -0.0000
vn 0.0000 1.0000 -0.0000
vn 0.0000 1.0000 -0.0000
vn 0.0000 1.0000 -0.0000
vn 0.0000 1.0000 -0.0000
vn 0.0000 1.0000 -0.0000
vn 0.0000 1.0000 -0.0000
vn 0.0000 1.0000 -0.0000
vn 0.0000 1.0000 -0.0000
vn 0.0000 1.0000 -0.0000
vn 0.0000 1.0000 -0.0000
vn 0.0000 1.0000 -0.0000
vn 0.0000 1.0000 -0.0000
vn 0.0000 1.0000 -0.0000
vn 0.0000 1.0000 -0.0000
vn 0.0000 1.0000 -0.0000
vn 0.0000 1.0000 -0.0000
vn 0.9622 0.0000 0.2725
vn 0.9622 0.0000 0.2725
vn 0.8933 0.0000 0.4494
vn 0.8933 0.0000 0.4494
vn 0.8933 0.0000 0.4494
vn 0.9622 0.0000 0.2725
vn 1.0000 0.0000 -0.0000
vn 0.9622 0.0000 0.2725
vn 0.9622 0.0000 0.2725
vn 0.9622 0.0000 0.2725
vn 1.0000 0.0000 -0.0000
vn 1.0000 0.0000 -0.0000
vn 0.7171 0.0000 -0.6970
vn 0.7171 0.0000 -0.6970
vn 0.8359 0.0000 -0.5489
vn 0.8359 0.0000 -0.5489
vn 0.8359 0.0000 -0.5489
vn 0.7171 0.0000 -0.6970
vn 0.5000 0.0000 -0.8660
vn 0.7171 0.0000 -0.6970
vn 0.7171 0.0000 -0.6970
vn 0.7171 0.0000 -0.6970
vn 0.5000 0.0000 -0.8660
vn 0.5000 0.0000 -0.8660
vn -0.2451 0.0000 -0.9695
vn -0.0574 0.0000 -0.9983
vn -0.0574 0.0000 -0.9983
vn -0.0574 0.0000 -0.9983
vn -0.2451 0.0000 -0.9695
vn -0.2451 0.0000 -0.9695
vn -0.9622 0.0000 -0.2725
vn -0.8933 0.0000 -0.4494
vn -0.8933 0.0000 -0.4494
vn -0.8933 0.0000 -0.4494
vn -0.9622 0.0000 -0.2725
vn -0.9622 0.0000 -0.2725
vn -0.5000 0.0000 0.8660
vn -0.7171 0.0000 0.6970
vn -0.7171 0.0000 0.6970
vn -0.7171 0.0000 0.6970
vn -0.5000 0.0000 0.8660
vn -0.5000 0.0000 0.8660
vn 0.2451 0.0000 0.9695
vn 0.0574 0.0000 0.9983
vn 0.0574 0.0000 0.9983
vn 0.0574 0.0000 0.9983
vn 0.2451 0.0000 0.9695
vn 0.2451 0.0000 0.9695
vn 1.0000 0.0000 -0.0000
vn 0.9622 0.0000 -0.2725
vn 0.9622 0.0000 -0.2725
vn 0.9622 0.0000 -0.2725
vn 1.0000 0.0000 -0.0000
vn 1.0000 0.0000 -0.0000
vn 0.5000 0.0000 -0.8660
vn 0.2451 0.0000 -0.9695
vn 0.2451 0.0000 -0.9695
vn 0.2451 0.0000 -0.9695
vn 0.5000 0.0000 -0.8660
vn 0.5000 0.0000 -0.8660
vn -0.7171 0.0000 -0.6970
vn -0.8359 0.0000 -0.5489
vn -0.8359 0.0000 -0.5489
vn -0.8359 0.0000 -0.5489
vn -0.7171 0.0000 -0.6970
vn -0.7171 0.0000 -0.6970
vn -0.9622 0.0000 0.2725
vn -0.8933 0.0000 0.4494
vn -0.8933 0.0000 0.4494
vn -0.8933 0.0000 0.4494
vn -0.9622 0.0000 0.2725
vn -0.9622 0.0000 0.2725
vn -0.5000 0.0000 0.8660
vn -0.2451 0.0000 0.9695
vn -0.2451 0.0000 0.9695
vn -0.2451 0.0000 0.9695
vn -0.5000 0.0000 0.8660
vn -0.5000 0.0000 0.8660
vn 0.0000 -1.0000 -0.0000
vn 0.0000 -1.0000 -0.0000
vn 0.0000 -1.0000 -0.0000
vn 0.0000 -1.0000 -0.0000
vn 0.0000 -1.0000 -0.0000
vn 0.0000 -1.0000 -0.0000
vn 0.0000 -1.0000 -0.0000
vn 0.0000 -1.0000 -0.0000
vn 0.0000 -1.0000 -0.0000
vn 0.0000 -1.0000 -0.0000
vn 0.0000 -1.0000 -0.0000
vn 0.0000 -1.0000 -0.0000
vn 0.0000 -1.0000 -0.0000
vn 0.0000 -1.0000 -0.0000
vn 0.0000 -1.0000 -0.0000
vn 0.0000 -1.0000 -0.0000
vn 0.0000 -1.0000 -0.0000
vn 0.0000 -1.0000 -0.0000
vn 0.0000 -1.0000 -0.0000
vn 0.0000 -1.0000 -0.0000
vn 0.0000 -1.0000 -0.0000
vn 0.0000 -1.0000 -0.0000
vn 0.0000 -1.0000 -0.0000
vn 0.0000 -1.0000 -0.0000
vn 0.0000 -1.0000 -0.0000
vn 0.0000 -1.0000 -0.0000
vn 0.0000 -1.0000 -0.0000
vn 0.0000 -1.0000 -0.0000
vn 0.0000 -1.0000 -0.0000
vn 0.0000 -1.0000 -0.0000
vn 0.0000 -1.0000 -0.0000
vn 0.0000 -1.0000 -0.0000
vn 0.0000 -1.0000 -0.0000
vn 0.0000 -1.0000 -0.0000
vn 0.0000 -1.0000 -0.0000
vn 0.0000 -1.0000 -0.0000
vn 0.0000 -1.0000 -0.0000
vn 0.0000 -1.0000 -0.0000
vn 0.0000 -1.0000 -0.0000
vn 0.0000 -1.0000 -0.0000
vn 0.0000 -1.0000 -0.0000
vn 0.0000 -1.0000 -0.0000
vn 0.0000 -1.0000 -0.0000
vn 0.0000 -1.0000 -0.0000
vn 0.0000 -1.0000 -0.0000
vn 0.0000 -1.0000 -0.0000
vn 0.0000 -1.0000 -0.0000
vn 0.0000 -1.0000 -0.0000
vn 0.8359 0.0000 0.5489
vn 0.8933 0.0000 0.4494
vn 0.8933 0.0000 0.4494
vn 0.8933 0.0000 0.4494
vn 0.8359 0.0000 0.5489
vn 0.8359 0.0000 0.5489
vn 0.8933 0.0000 -0.4494
vn 0.8359 0.0000 -0.5489
vn 0.8359 0.0000 -0.5489
vn 0.8359 0.0000 -0.5489
vn 0.8933 0.0000 -0.4494
vn 0.8933 0.0000 -0.4494
vn 0.0574 0.0000 -0.9983
vn 0.0574 0.0000 -0.9983
vn -0.0574 0.0000 -0.9983
vn -0.0574 0.0000 -0.9983
vn -0.0574 0.0000 -0.9983
vn 0.0574 0.0000 -0.9983
vn -0.8359 0.0000 -0.5489
vn -0.8359 0.0000 -0.5489
vn -0.8933 0.0000 -0.4494
vn -0.8933 0.0000 -0.4494
vn -0.8933 0.0000 -0.4494
vn -0.8359 0.0000 -0.5489
vn -0.8933 0.0000 0.4494
vn -0.8359 0.0000 0.5489
vn -0.8359 0.0000 0.5489
vn -0.8359 0.0000 0.5489
vn -0.8933 0.0000 0.4494
vn -0.8933 0.0000 0.4494
vn 0.0000 -1.0000 -0.0000
vn 0.0000 -1.0000 -0.0000
vn 0.0000 -1.0000 -0.0000
vn 0.0000 -1.0000 -0.0000
vn 0.0000 -1.0000 -0.0000
vn 0.0000 -1.0000 -0.0000
vn 0.0000 -1.0000 -0.0000
vn 0.0000 -1.0000 -0.0000
vn 0.0000 -1.0000 -0.0000
vn 0.0000 -1.0000 -0.0000
vn 0.0000 -1.0000 -0.0000
vn 0.0000 -1.0000 -0.0000
vn 0.0000 -1.0000 -0.0000
vn 0.0000 -1.0000 -0.0000
vn 0.0000 -1.0000 -0.0000
vn 0.0000 -1.0000 -0.0000
vn 0.0000 -1.0000 -0.0000
vn 0.0000 -1.0000 -0.0000
vn 0.0000 -1.0000 -0.0000
vn 0.0000 -1.0000 -0.0000
vn 0.0000 -1.0000 -0.0000
vn 0.0000 -1.0000 -0.0000
vn 0.0000 -1.0000 -0.0000
vn 0.0000 -1.0000 -0.0000
vn 0.0000 -1.0000 -0.0000
vn 0.0000 -1.0000 -0.0000
vn 0.0000 -1.0000 -0.0000
vn 0.0000 -1.0000 -0.0000
vn 0.0000 -1.0000 -0.0000
vn 0.0000 -1.0000 -0.0000
vn 0.0000 -1.0000 -0.0000
vn 0.0000 -1.0000 -0.0000
vn 0.0000 -1.0000 -0.0000
vn 0.0000 -1.0000 -0.0000
vn 0.0000 -1.0000 -0.0000
vn 0.0000 -1.0000 -0.0000
vn 0.0000 -1.0000 -0.0000
vn 0.0000 -1.0000 -0.0000
vn 0.0000 -1.0000 -0.0000
vn 0.0000 -1.0000 -0.0000
vn 0.0000 -1.0000 -0.0000
vn 0.0000 -1.0000 -0.0000
vn 0.0000 -1.0000 -0.0000
vn 0.0000 -1.0000 -0.0000
vn 0.0000 -1.0000 -0.0000
vn 0.0000 -1.0000 -0.0000
vn 0.0000 -1.0000 -0.0000
vn 0.0000 -1.0000 -0.0000
vn 0.0000 -1.0000 -0.0000
vn 0.0000 -1.0000 -0.0000
vn 0.0000 -1.0000 -0.0000
vn 0.0000 -1.0000 -0.0000
vn 0.0000 -1.0000 -0.0000
vn 0.0000 -1.0000 -0.0000
vn 0.0000 -1.0000 -0.0000
vn 0.0000 -1.0000 -0.0000
vn 0.0000 -1.0000 -0.0000
vn 0.0000 -1.0000 -0.0000
vn 0.0000 -1.0000 -0.0000
vn 0.0000 -1.0000 -0.0000
vn 0.0000 -1.0000 -0.0000
vn 0.0000 -1.0000 -0.0000
vn 0.0000 -1.0000 -0.0000
vn 0.0000 -1.0000 -0.0000
vn 0.0000 -1.0000 -0.0000
vn 0.0000 -1.0000 -0.0000
vn 0.0000 -1.0000 -0.0000
vn 0.0000 -1.0000 -0.0000
vn 0.0000 -1.0000 -0.0000
vn 0.0000 -1.0000 -0.0000
vn 0.0000 -1.0000 -0.0000
vn 0.0000 -1.0000 -0.0000
vn -0.2451 0.0000 -0.9695
vn -0.2451 0.0000 -0.9695
vn -0.5000 0.0000 -0.8660
vn -0.5000 0.0000 -0.8660
vn -0.5000 0.0000 -0.8660
vn -0.2451 0.0000 -0.9695
vn -0.9622 0.0000 -0.2725
vn -0.9622 0.0000 -0.2725
vn -1.0000 0.0000 -0.0000
vn -1.0000 0.0000 -0.0000
vn -1.0000 0.0000 -0.0000
vn -0.9622 0.0000 -0.2725
vn -0.8359 0.0000 0.5489
vn -0.8359 0.0000 0.5489
vn -0.7171 0.0000 0.6970
vn -0.7171 0.0000 0.6970
vn -0.7171 0.0000 0.6970
vn -0.8359 0.0000 0.5489
vn 0.5000 0.0000 0.8660
vn 0.2451 0.0000 0.9695
vn 0.2451 0.0000 0.9695
vn 0.2451 0.0000 0.9695
vn 0.5000 0.0000 0.8660
vn 0.5000 0.0000 0.8660
vn 0.8359 0.0000 0.5489
vn 0.8359 0.0000 0.5489
vn 0.7171 0.0000 0.6970
vn 0.7171 0.0000 0.6970
vn 0.7171 0.0000 0.6970
vn 0.8359 0.0000 0.5489
vn 0.7171 0.0000 0.6970
vn 0.7171 0.0000 0.6970
vn 0.5000 0.0000 0.8660
vn 0.5000 0.0000 0.8660
vn 0.5000 0.0000 0.8660
vn 0.7171 0.0000 0.6970
vn 0.9622 0.0000 -0.2725
vn 0.8933 0.0000 -0.4494
vn 0.8933 0.0000 -0.4494
vn 0.8933 0.0000 -0.4494
vn 0.9622 0.0000 -0.2725
vn 0.9622 0.0000 -0.2725
vn 0.0574 0.0000 -0.9983
vn 0.0574 0.0000 -0.9983
vn 0.2451 0.0000 -0.9695
vn 0.2451 0.0000 -0.9695
vn 0.2451 0.0000 -0.9695
vn 0.0574 0.0000 -0.9983
vn -0.7171 0.0000 -0.6970
vn -0.7171 0.0000 -0.6970
vn -0.5000 0.0000 -0.8660
vn -0.5000 0.0000 -0.8660
vn -0.5000 0.0000 -0.8660
vn -0.7171 0.0000 -0.6970
vn -0.9622 0.0000 0.2725
vn -0.9622 0.0000 0.2725
vn -1.0000 0.0000 -0.0000
vn -1.0000 0.0000 -0.0000
vn -1.0000 0.0000 -0.0000
vn -0.9622 0.0000 0.2725
vn -0.2451 0.0000 0.9695
vn -0.0574 0.0000 0.9983
vn -0.0574 0.0000 0.9983
vn -0.0574 0.0000 0.9983
vn -0.2451 0.0000 0.9695
vn -0.2451 0.0000 0.9695
# 420 vertex normals

vt 0.7069 0.1865 0.0000
vt 1.0514 0.0951 0.0000
vt 0.2649 0.0951 0.0000
vt 0.7200 0.1849 0.0000
vt 0.2649 0.0299 0.0000
vt 1.0514 0.0299 0.0000
vt 0.7289 0.2003 0.0000
vt 1.2550 0.0951 0.0000
vt 1.2550 0.0299 0.0000
vt 0.7209 0.2108 0.0000
vt 1.2842 0.0299 0.0000
vt 1.2842 0.0951 0.0000
vt 0.7289 0.2213 0.0000
vt 1.3114 0.0299 0.0000
vt 1.3114 0.0951 0.0000
vt 0.6521 0.3543 0.0000
vt -1.1543 0.0951 0.0000
vt -1.1543 0.0299 0.0000
vt -1.1250 0.0299 0.0000
vt -1.1250 0.0951 0.0000
vt -1.0979 0.0299 0.0000
vt -1.0979 0.0951 0.0000
vt -0.9506 0.0951 0.0000
vt -0.9506 0.0299 0.0000
vt -0.9213 0.0299 0.0000
vt -0.9213 0.0951 0.0000
vt -0.0513 0.0951 0.0000
vt -0.0513 0.0299 0.0000
vt -0.0220 0.0299 0.0000
vt -0.0220 0.0951 0.0000
vt 0.1815 0.0951 0.0000
vt 0.1815 0.0299 0.0000
vt 0.2086 0.0299 0.0000
vt 0.2086 0.0951 0.0000
vt 1.0806 0.0299 0.0000
vt 1.0806 0.0951 0.0000
vt 1.3385 0.0951 0.0000
vt 1.3385 0.0299 0.0000
vt -1.0708 0.0951 0.0000
vt -1.0708 0.0299 0.0000
vt -0.8378 0.0951 0.0000
vt -0.8671 0.0951 0.0000
vt -0.8671 0.0299 0.0000
vt -0.8378 0.0299 0.0000
vt 0.0614 0.0951 0.0000
vt 0.0322 0.0951 0.0000
vt 0.0322 0.0299 0.0000
vt 0.0614 0.0299 0.0000
vt 0.2357 0.0951 0.0000
vt 0.2357 0.0299 0.0000
vt 1.1641 0.0951 0.0000
vt 1.1641 0.0299 0.0000
vt 1.3678 0.0951 0.0000
vt 1.3678 0.0299 0.0000
vt -1.0415 0.0951 0.0000
vt -1.0415 0.0299 0.0000
vt 0.1523 0.0299 0.0000
vt 0.1523 0.0951 0.0000
vt 0.6390 0.3527 0.0000
vt 0.6339 0.3648 0.0000
vt -0.8942 0.0299 0.0000
vt 0.6161 0.3648 0.0000
vt -0.8942 0.0951 0.0000
vt 0.6110 0.3527 0.0000
vt 0.0051 0.0299 0.0000
vt 0.5979 0.3543 0.0000
vt 0.5211 0.2213 0.0000
vt 0.0051 0.0951 0.0000
vt 1.1077 0.0299 0.0000
vt 1.1077 0.0951 0.0000
vt 1.1349 0.0951 0.0000
vt 1.1349 0.0299 0.0000
vt 0.5291 0.2108 0.0000
vt 0.5211 0.2003 0.0000
vt 0.5300 0.1849 0.0000
vt 0.5431 0.1865 0.0000
vt 0.5482 0.1744 0.0000
vt 0.7018 0.1744 0.0000
vt 0.7124 0.1770 0.0000
vt 0.7166 0.1803 0.0000
vt 0.7312 0.2055 0.0000
vt 0.7319 0.2108 0.0000
vt 0.7312 0.2160 0.0000
vt 0.6487 0.3589 0.0000
vt 0.6445 0.3622 0.0000
vt 0.6396 0.3642 0.0000
vt 0.6104 0.3642 0.0000
vt 0.6055 0.3622 0.0000
vt 0.6013 0.3589 0.0000
vt 0.5188 0.2160 0.0000
vt 0.5181 0.2108 0.0000
vt 0.5188 0.2055 0.0000
vt 0.5334 0.1803 0.0000
vt 0.5376 0.1770 0.0000
vt 0.5425 0.1751 0.0000
vt 0.7075 0.1751 0.0000
vt 0.7931 0.1865 0.0000
vt 0.7791 0.2108 0.0000
vt 0.7711 0.2003 0.0000
vt 0.7800 0.1849 0.0000
vt 0.8610 0.3527 0.0000
vt 0.8479 0.3543 0.0000
vt 0.7711 0.2213 0.0000
vt 0.8890 0.3527 0.0000
vt 0.8839 0.3648 0.0000
vt 0.8661 0.3648 0.0000
vt 0.9709 0.2108 0.0000
vt 0.9789 0.2213 0.0000
vt 0.9021 0.3543 0.0000
vt 0.9569 0.1865 0.0000
vt 0.9700 0.1849 0.0000
vt 0.9789 0.2003 0.0000
vt 0.7982 0.1744 0.0000
vt 0.9518 0.1744 0.0000
vt 0.7834 0.1803 0.0000
vt 0.7876 0.1770 0.0000
vt 0.7681 0.2108 0.0000
vt 0.7688 0.2055 0.0000
vt 0.7688 0.2160 0.0000
vt 0.8555 0.3622 0.0000
vt 0.8513 0.3589 0.0000
vt 0.8604 0.3642 0.0000
vt 0.8945 0.3622 0.0000
vt 0.8896 0.3642 0.0000
vt 0.8987 0.3589 0.0000
vt 0.9819 0.2108 0.0000
vt 0.9812 0.2160 0.0000
vt 0.9812 0.2055 0.0000
vt 0.9624 0.1770 0.0000
vt 0.9666 0.1803 0.0000
vt 0.9575 0.1751 0.0000
vt 0.7925 0.1751 0.0000
vt 2.1543 0.0299 0.0000
vt 2.1543 0.0951 0.0000
vt 0.4319 0.6091 0.0000
vt 0.4630 0.6629 0.0000
vt 0.2811 0.9780 0.0000
vt 0.2189 0.9780 0.0000
vt 0.0370 0.6629 0.0000
vt 0.0681 0.6091 0.0000
vt 0.5681 0.6091 0.0000
vt 0.5370 0.6629 0.0000
vt 0.7189 0.9780 0.0000
vt 0.7811 0.9780 0.0000
vt 0.9630 0.6629 0.0000
vt 0.9319 0.6091 0.0000
# 146 texture coords

g TTri
usemtl Material__2
f 107/7/1 7/10/2 1/1/3 
f 1/1/4 75/4/5 107/7/6 
f 8/16/7 10/59/8 7/10/9 
f 7/10/10 108/13/11 8/16/12 
f 82/62/13 15/64/14 10/59/15 
f 10/59/16 80/60/17 82/62/18 
f 86/67/19 20/73/20 15/64/21 
f 15/64/22 84/66/23 86/67/24 
f 91/75/25 25/76/26 20/73/27 
f 20/73/28 88/74/29 91/75/30 
f 73/78/31 1/1/32 25/76/33 
f 25/76/34 26/77/35 73/78/36 
f 10/137/37 15/138/38 20/139/39 
f 20/139/40 25/140/41 1/135/42 
f 10/137/43 20/139/44 1/135/45 
f 10/137/46 1/135/47 7/136/48 
f 99/6/49 2/2/50 92/3/51 
f 92/3/52 119/5/53 99/6/54 
f 5/80/55 75/4/56 1/1/57 
f 1/1/58 105/79/59 5/80/60 
f 7/10/61 107/7/62 6/81/63 
f 6/81/64 106/82/65 7/10/66 
f 109/83/67 108/13/68 7/10/69 
f 7/10/70 106/82/71 109/83/72 
f 10/59/73 8/16/74 79/84/75 
f 79/84/76 110/85/77 10/59/78 
f 12/86/79 80/60/80 10/59/81 
f 10/59/82 110/85/83 12/86/84 
f 15/64/85 82/62/86 83/87/87 
f 83/87/88 111/88/89 15/64/90 
f 17/89/91 84/66/92 15/64/93 
f 15/64/94 111/88/95 17/89/96 
f 20/73/97 86/67/98 87/90/99 
f 87/90/100 112/91/101 20/73/102 
f 22/92/103 88/74/104 20/73/105 
f 20/73/106 112/91/107 22/92/108 
f 25/76/109 91/75/110 53/93/111 
f 53/93/112 90/94/113 25/76/114 
f 93/95/115 26/77/116 25/76/117 
f 25/76/118 90/94/119 93/95/120 
f 1/1/121 73/78/122 74/96/123 
f 74/96/124 105/79/125 1/1/126 
f 122/11/127 77/12/128 47/8/129 
f 47/8/130 29/9/131 122/11/132 
f 46/15/133 77/12/134 122/11/135 
f 122/11/136 40/14/137 46/15/138 
f 124/19/139 9/20/140 78/17/141 
f 78/17/142 95/18/143 124/19/144 
f 50/22/145 9/20/146 124/19/147 
f 124/19/148 65/21/149 50/22/150 
f 14/26/151 13/23/152 97/24/153 
f 97/24/154 126/25/155 14/26/156 
f 19/30/157 18/27/158 116/28/159 
f 116/28/160 102/29/161 19/30/162 
f 23/34/163 113/31/164 130/32/165 
f 130/32/166 131/33/167 23/34/168 
f 3/36/169 2/2/170 99/6/171 
f 99/6/172 132/35/173 3/36/174 
f 40/14/175 123/38/176 49/37/177 
f 49/37/178 46/15/179 40/14/180 
f 65/21/181 101/40/182 81/39/183 
f 81/39/184 50/22/185 65/21/186 
f 128/43/187 98/44/188 16/41/189 
f 16/41/190 85/42/191 128/43/192 
f 103/47/193 117/48/194 21/45/195 
f 21/45/196 89/46/197 103/47/198 
f 131/33/199 104/50/200 27/49/201 
f 27/49/202 23/34/203 131/33/204 
f 94/99/205 54/100/206 28/97/207 
f 28/97/208 30/98/209 94/99/210 
f 31/102/211 115/103/212 30/98/213 
f 30/98/214 32/101/215 31/102/216 
f 34/105/217 33/106/218 32/101/219 
f 32/101/220 35/104/221 34/105/222 
f 56/108/223 36/109/224 35/104/225 
f 35/104/226 37/107/227 56/108/228 
f 58/111/229 57/112/230 37/107/231 
f 37/107/232 38/110/233 58/111/234 
f 39/113/235 59/114/236 38/110/237 
f 38/110/238 28/97/239 39/113/240 
f 37/145/241 35/144/242 32/143/243 
f 32/143/244 30/142/245 28/141/246 
f 37/145/247 32/143/248 28/141/249 
f 37/145/250 28/141/251 38/146/252 
f 114/52/253 29/9/254 47/8/255 
f 47/8/256 4/51/257 114/52/258 
f 55/54/259 95/133/260 78/134/261 
f 78/134/262 48/53/263 55/54/264 
f 11/55/265 96/56/266 97/24/267 
f 97/24/268 13/23/269 11/55/270 
f 16/41/271 98/44/272 116/28/273 
f 116/28/274 18/27/275 16/41/276 
f 117/48/277 118/57/278 24/58/279 
f 24/58/280 21/45/281 117/48/282 
f 61/115/283 120/116/284 28/97/285 
f 28/97/286 54/100/287 61/115/288 
f 30/98/289 100/117/290 62/118/291 
f 62/118/292 94/99/293 30/98/294 
f 63/119/295 100/117/296 30/98/297 
f 30/98/298 115/103/299 63/119/300 
f 32/101/301 125/120/302 64/121/303 
f 64/121/304 31/102/305 32/101/306 
f 41/122/307 125/120/308 32/101/309 
f 32/101/310 33/106/311 41/122/312 
f 35/104/313 127/123/314 66/124/315 
f 66/124/316 34/105/317 35/104/318 
f 68/125/319 127/123/320 35/104/321 
f 35/104/322 36/109/323 68/125/324 
f 37/107/325 129/126/326 42/127/327 
f 42/127/328 56/108/329 37/107/330 
f 43/128/331 129/126/332 37/107/333 
f 37/107/334 57/112/335 43/128/336 
f 38/110/337 71/129/338 70/130/339 
f 70/130/340 58/111/341 38/110/342 
f 44/131/343 71/129/344 38/110/345 
f 38/110/346 59/114/347 44/131/348 
f 28/97/349 120/116/350 72/132/351 
f 72/132/352 39/113/353 28/97/354 
f 14/26/355 126/25/356 67/61/357 
f 67/61/358 51/63/359 14/26/360 
f 19/30/361 102/29/362 69/65/363 
f 69/65/364 52/68/365 19/30/366 
f 24/58/367 118/57/368 130/32/369 
f 130/32/370 113/31/371 24/58/372 
f 45/70/373 3/36/374 132/35/375 
f 132/35/376 60/69/377 45/70/378 
f 114/52/379 4/51/380 76/71/381 
f 76/71/382 121/72/383 114/52/384 
f 121/72/385 76/71/386 45/70/387 
f 45/70/388 60/69/389 121/72/390 
f 123/38/391 55/54/392 48/53/393 
f 48/53/394 49/37/395 123/38/396 
f 96/56/397 11/55/398 81/39/399 
f 81/39/400 101/40/401 96/56/402 
f 128/43/403 85/42/404 51/63/405 
f 51/63/406 67/61/407 128/43/408 
f 103/47/409 89/46/410 52/68/411 
f 52/68/412 69/65/413 103/47/414 
f 104/50/415 119/5/416 92/3/417 
f 92/3/418 27/49/419 104/50/420 
# 140 faces

