# 3ds Max Wavefront OBJ Exporter v0.97b - (c)2007 guruware
# File Created: 11.03.2017 21:00:11

mtllib TTri.mtl

#
# object TTri
#

v  0.3381 0.0313 0.2619
v  0.3607 0.0313 0.3011
v  0.3169 0.0313 0.3119
v  0.3404 0.0313 0.3092
v  0.3919 0.0313 0.2686
v  0.3779 0.0313 0.2875
v  0.4411 0.0313 0.1618
v  0.4286 0.0313 0.2051
v  0.4379 0.0313 0.1835
v  0.3958 0.0313 0.1618
v  0.4286 0.0313 0.1185
v  0.4379 0.0313 0.1402
v  0.0804 0.0313 -0.4629
v  0.1116 0.0313 -0.4304
v  0.0976 0.0313 -0.4493
v  0.0578 0.0313 -0.4237
v  0.0366 0.0313 -0.4737
v  0.0601 0.0313 -0.4710
v  -0.0804 0.0313 -0.4629
v  -0.0366 0.0313 -0.4737
v  -0.0601 0.0313 -0.4710
v  -0.0578 0.0313 -0.4237
v  -0.1116 0.0313 -0.4304
v  -0.0976 0.0313 -0.4493
v  -0.4411 0.0313 0.1618
v  -0.4286 0.0313 0.1185
v  -0.4379 0.0313 0.1402
v  -0.3958 0.0313 0.1618
v  -0.4286 0.0313 0.2051
v  -0.4379 0.0313 0.1835
v  -0.3607 0.0313 0.3011
v  -0.3919 0.0313 0.2686
v  -0.3779 0.0313 0.2875
v  -0.3381 0.0313 0.2619
v  -0.3169 0.0313 0.3119
v  -0.3404 0.0313 0.3092
v  0.3381 -0.0313 0.2619
v  0.3919 -0.0313 0.2686
v  0.4286 -0.0313 0.2051
v  0.3958 -0.0313 0.1618
v  0.4286 -0.0313 0.1185
v  0.1116 -0.0313 -0.4304
v  0.0578 -0.0313 -0.4237
v  0.0366 -0.0313 -0.4737
v  -0.0366 -0.0313 -0.4737
v  -0.0578 -0.0313 -0.4237
v  -0.1116 -0.0313 -0.4304
v  -0.4286 -0.0313 0.1185
v  -0.3958 -0.0313 0.1618
v  -0.4286 -0.0313 0.2051
v  -0.3919 -0.0313 0.2686
v  -0.3381 -0.0313 0.2619
v  -0.3169 -0.0313 0.3119
v  0.3169 -0.0313 0.3119
v  0.3607 -0.0313 0.3011
v  0.3779 -0.0313 0.2875
v  0.4379 -0.0313 0.1835
v  0.4411 -0.0313 0.1618
v  0.4379 -0.0313 0.1402
v  0.0976 -0.0313 -0.4493
v  0.0804 -0.0313 -0.4629
v  0.0601 -0.0313 -0.4710
v  -0.0601 -0.0313 -0.4710
v  -0.0804 -0.0313 -0.4629
v  -0.0976 -0.0313 -0.4493
v  -0.4379 -0.0313 0.1402
v  -0.4411 -0.0313 0.1618
v  -0.4379 -0.0313 0.1835
v  -0.3779 -0.0313 0.2875
v  -0.3607 -0.0313 0.3011
v  -0.3404 -0.0313 0.3092
v  0.3404 -0.0313 0.3092
v  0.3607 0.0313 0.3011
v  0.3169 0.0313 0.3119
v  0.3404 0.0313 0.3092
v  0.3919 0.0313 0.2686
v  0.3779 0.0313 0.2875
v  0.4411 0.0313 0.1618
v  0.4286 0.0313 0.2051
v  0.4379 0.0313 0.1835
v  0.4286 0.0313 0.1185
v  0.4379 0.0313 0.1402
v  0.0804 0.0313 -0.4629
v  0.1116 0.0313 -0.4304
v  0.0976 0.0313 -0.4493
v  0.0366 0.0313 -0.4737
v  0.0601 0.0313 -0.4710
v  -0.0804 0.0313 -0.4629
v  -0.0366 0.0313 -0.4737
v  -0.0601 0.0313 -0.4710
v  -0.1116 0.0313 -0.4304
v  -0.0976 0.0313 -0.4493
v  -0.4411 0.0313 0.1618
v  -0.4286 0.0313 0.1185
v  -0.4379 0.0313 0.1402
v  -0.4286 0.0313 0.2051
v  -0.4379 0.0313 0.1835
v  -0.3607 0.0313 0.3011
v  -0.3919 0.0313 0.2686
v  -0.3779 0.0313 0.2875
v  -0.3169 0.0313 0.3119
v  -0.3404 0.0313 0.3092
v  0.3919 -0.0313 0.2686
v  0.4286 -0.0313 0.2051
v  0.4286 -0.0313 0.1185
v  0.1116 -0.0313 -0.4304
v  0.0366 -0.0313 -0.4737
v  -0.0366 -0.0313 -0.4737
v  -0.1116 -0.0313 -0.4304
v  -0.4286 -0.0313 0.1185
v  -0.4286 -0.0313 0.2051
v  -0.3919 -0.0313 0.2686
v  -0.3169 -0.0313 0.3119
v  0.3169 -0.0313 0.3119
v  0.3607 -0.0313 0.3011
v  0.3779 -0.0313 0.2875
v  0.4379 -0.0313 0.1835
v  0.4411 -0.0313 0.1618
v  0.4379 -0.0313 0.1402
v  0.0976 -0.0313 -0.4493
v  0.0804 -0.0313 -0.4629
v  0.0601 -0.0313 -0.4710
v  -0.0601 -0.0313 -0.4710
v  -0.0804 -0.0313 -0.4629
v  -0.0976 -0.0313 -0.4493
v  -0.4379 -0.0313 0.1402
v  -0.4411 -0.0313 0.1618
v  -0.4379 -0.0313 0.1835
v  -0.3779 -0.0313 0.2875
v  -0.3607 -0.0313 0.3011
v  -0.3404 -0.0313 0.3092
v  0.3404 -0.0313 0.3092
# 132 vertices

vn 0.0000 1.0000 -0.0000
vn 0.0000 1.0000 -0.0000
vn 0.0000 1.0000 -0.0000
vn 0.0000 1.0000 -0.0000
vn 0.0000 1.0000 -0.0000
vn 0.0000 1.0000 -0.0000
vn 0.0000 1.0000 -0.0000
vn 0.0000 1.0000 -0.0000
vn 0.0000 1.0000 -0.0000
vn 0.0000 1.0000 -0.0000
vn 0.0000 1.0000 -0.0000
vn 0.0000 1.0000 -0.0000
vn 0.0000 1.0000 -0.0000
vn 0.0000 1.0000 -0.0000
vn 0.0000 1.0000 -0.0000
vn 0.0000 1.0000 -0.0000
vn 0.0000 1.0000 -0.0000
vn 0.0000 1.0000 -0.0000
vn 0.0000 1.0000 -0.0000
vn 0.0000 1.0000 -0.0000
vn 0.0000 1.0000 -0.0000
vn 0.0000 1.0000 -0.0000
vn 0.0000 1.0000 -0.0000
vn 0.0000 1.0000 -0.0000
vn 0.0000 1.0000 -0.0000
vn 0.0000 1.0000 -0.0000
vn 0.0000 1.0000 -0.0000
vn 0.0000 1.0000 -0.0000
vn 0.0000 1.0000 -0.0000
vn 0.0000 1.0000 -0.0000
vn 0.0000 1.0000 -0.0000
vn 0.0000 1.0000 -0.0000
vn 0.0000 1.0000 -0.0000
vn 0.0000 1.0000 -0.0000
vn 0.0000 1.0000 -0.0000
vn 0.0000 1.0000 -0.0000
vn 0.0000 1.0000 -0.0000
vn 0.0000 1.0000 -0.0000
vn 0.0000 1.0000 -0.0000
vn 0.0000 1.0000 -0.0000
vn 0.0000 1.0000 -0.0000
vn 0.0000 1.0000 -0.0000
vn 0.0000 1.0000 -0.0000
vn 0.0000 1.0000 -0.0000
vn 0.0000 1.0000 -0.0000
vn 0.0000 1.0000 -0.0000
vn 0.0000 1.0000 -0.0000
vn 0.0000 1.0000 -0.0000
vn -0.0574 0.0000 0.9983
vn -0.0574 0.0000 0.9983
vn 0.0574 0.0000 0.9983
vn 0.0574 0.0000 0.9983
vn 0.0574 0.0000 0.9983
vn -0.0574 0.0000 0.9983
vn 0.0000 1.0000 -0.0000
vn 0.0000 1.0000 -0.0000
vn 0.0000 1.0000 -0.0000
vn 0.0000 1.0000 -0.0000
vn 0.0000 1.0000 -0.0000
vn 0.0000 1.0000 -0.0000
vn 0.0000 1.0000 -0.0000
vn 0.0000 1.0000 -0.0000
vn 0.0000 1.0000 -0.0000
vn 0.0000 1.0000 -0.0000
vn 0.0000 1.0000 -0.0000
vn 0.0000 1.0000 -0.0000
vn 0.0000 1.0000 -0.0000
vn 0.0000 1.0000 -0.0000
vn 0.0000 1.0000 -0.0000
vn 0.0000 1.0000 -0.0000
vn 0.0000 1.0000 -0.0000
vn 0.0000 1.0000 -0.0000
vn 0.0000 1.0000 -0.0000
vn 0.0000 1.0000 -0.0000
vn 0.0000 1.0000 -0.0000
vn 0.0000 1.0000 -0.0000
vn 0.0000 1.0000 -0.0000
vn 0.0000 1.0000 -0.0000
vn 0.0000 1.0000 -0.0000
vn 0.0000 1.0000 -0.0000
vn 0.0000 1.0000 -0.0000
vn 0.0000 1.0000 -0.0000
vn 0.0000 1.0000 -0.0000
vn 0.0000 1.0000 -0.0000
vn 0.0000 1.0000 -0.0000
vn 0.0000 1.0000 -0.0000
vn 0.0000 1.0000 -0.0000
vn 0.0000 1.0000 -0.0000
vn 0.0000 1.0000 -0.0000
vn 0.0000 1.0000 -0.0000
vn 0.0000 1.0000 -0.0000
vn 0.0000 1.0000 -0.0000
vn 0.0000 1.0000 -0.0000
vn 0.0000 1.0000 -0.0000
vn 0.0000 1.0000 -0.0000
vn 0.0000 1.0000 -0.0000
vn 0.0000 1.0000 -0.0000
vn 0.0000 1.0000 -0.0000
vn 0.0000 1.0000 -0.0000
vn 0.0000 1.0000 -0.0000
vn 0.0000 1.0000 -0.0000
vn 0.0000 1.0000 -0.0000
vn 0.0000 1.0000 -0.0000
vn 0.0000 1.0000 -0.0000
vn 0.0000 1.0000 -0.0000
vn 0.0000 1.0000 -0.0000
vn 0.0000 1.0000 -0.0000
vn 0.0000 1.0000 -0.0000
vn 0.0000 1.0000 -0.0000
vn 0.0000 1.0000 -0.0000
vn 0.0000 1.0000 -0.0000
vn 0.0000 1.0000 -0.0000
vn 0.0000 1.0000 -0.0000
vn 0.0000 1.0000 -0.0000
vn 0.0000 1.0000 -0.0000
vn 0.0000 1.0000 -0.0000
vn 0.0000 1.0000 -0.0000
vn 0.0000 1.0000 -0.0000
vn 0.0000 1.0000 -0.0000
vn 0.0000 1.0000 -0.0000
vn 0.0000 1.0000 -0.0000
vn 0.0000 1.0000 -0.0000
vn 0.0000 1.0000 -0.0000
vn 0.0000 1.0000 -0.0000
vn 0.0000 1.0000 -0.0000
vn 0.0000 1.0000 -0.0000
vn 0.8933 0.0000 0.4494
vn 0.8933 0.0000 0.4494
vn 0.9622 0.0000 0.2725
vn 0.9622 0.0000 0.2725
vn 0.9622 0.0000 0.2725
vn 0.8933 0.0000 0.4494
vn 0.9622 0.0000 0.2725
vn 1.0000 0.0000 -0.0000
vn 1.0000 0.0000 -0.0000
vn 1.0000 0.0000 -0.0000
vn 0.9622 0.0000 0.2725
vn 0.9622 0.0000 0.2725
vn 0.8359 0.0000 -0.5489
vn 0.8359 0.0000 -0.5489
vn 0.7171 0.0000 -0.6970
vn 0.7171 0.0000 -0.6970
vn 0.7171 0.0000 -0.6970
vn 0.8359 0.0000 -0.5489
vn 0.7171 0.0000 -0.6970
vn 0.5000 0.0000 -0.8660
vn 0.5000 0.0000 -0.8660
vn 0.5000 0.0000 -0.8660
vn 0.7171 0.0000 -0.6970
vn 0.7171 0.0000 -0.6970
vn -0.0574 0.0000 -0.9983
vn -0.2451 0.0000 -0.9695
vn -0.2451 0.0000 -0.9695
vn -0.2451 0.0000 -0.9695
vn -0.0574 0.0000 -0.9983
vn -0.0574 0.0000 -0.9983
vn -0.8933 0.0000 -0.4494
vn -0.9622 0.0000 -0.2725
vn -0.9622 0.0000 -0.2725
vn -0.9622 0.0000 -0.2725
vn -0.8933 0.0000 -0.4494
vn -0.8933 0.0000 -0.4494
vn -0.7171 0.0000 0.6970
vn -0.5000 0.0000 0.8660
vn -0.5000 0.0000 0.8660
vn -0.5000 0.0000 0.8660
vn -0.7171 0.0000 0.6970
vn -0.7171 0.0000 0.6970
vn 0.0574 0.0000 0.9983
vn 0.2451 0.0000 0.9695
vn 0.2451 0.0000 0.9695
vn 0.2451 0.0000 0.9695
vn 0.0574 0.0000 0.9983
vn 0.0574 0.0000 0.9983
vn 0.9622 0.0000 -0.2725
vn 1.0000 0.0000 -0.0000
vn 1.0000 0.0000 -0.0000
vn 1.0000 0.0000 -0.0000
vn 0.9622 0.0000 -0.2725
vn 0.9622 0.0000 -0.2725
vn 0.2451 0.0000 -0.9695
vn 0.5000 0.0000 -0.8660
vn 0.5000 0.0000 -0.8660
vn 0.5000 0.0000 -0.8660
vn 0.2451 0.0000 -0.9695
vn 0.2451 0.0000 -0.9695
vn -0.8359 0.0000 -0.5489
vn -0.7171 0.0000 -0.6970
vn -0.7171 0.0000 -0.6970
vn -0.7171 0.0000 -0.6970
vn -0.8359 0.0000 -0.5489
vn -0.8359 0.0000 -0.5489
vn -0.8933 0.0000 0.4494
vn -0.9622 0.0000 0.2725
vn -0.9622 0.0000 0.2725
vn -0.9622 0.0000 0.2725
vn -0.8933 0.0000 0.4494
vn -0.8933 0.0000 0.4494
vn -0.2451 0.0000 0.9695
vn -0.5000 0.0000 0.8660
vn -0.5000 0.0000 0.8660
vn -0.5000 0.0000 0.8660
vn -0.2451 0.0000 0.9695
vn -0.2451 0.0000 0.9695
vn 0.0000 -1.0000 -0.0000
vn 0.0000 -1.0000 -0.0000
vn 0.0000 -1.0000 -0.0000
vn 0.0000 -1.0000 -0.0000
vn 0.0000 -1.0000 -0.0000
vn 0.0000 -1.0000 -0.0000
vn 0.0000 -1.0000 -0.0000
vn 0.0000 -1.0000 -0.0000
vn 0.0000 -1.0000 -0.0000
vn 0.0000 -1.0000 -0.0000
vn 0.0000 -1.0000 -0.0000
vn 0.0000 -1.0000 -0.0000
vn 0.0000 -1.0000 -0.0000
vn 0.0000 -1.0000 -0.0000
vn 0.0000 -1.0000 -0.0000
vn 0.0000 -1.0000 -0.0000
vn 0.0000 -1.0000 -0.0000
vn 0.0000 -1.0000 -0.0000
vn 0.0000 -1.0000 -0.0000
vn 0.0000 -1.0000 -0.0000
vn 0.0000 -1.0000 -0.0000
vn 0.0000 -1.0000 -0.0000
vn 0.0000 -1.0000 -0.0000
vn 0.0000 -1.0000 -0.0000
vn 0.0000 -1.0000 -0.0000
vn 0.0000 -1.0000 -0.0000
vn 0.0000 -1.0000 -0.0000
vn 0.0000 -1.0000 -0.0000
vn 0.0000 -1.0000 -0.0000
vn 0.0000 -1.0000 -0.0000
vn 0.0000 -1.0000 -0.0000
vn 0.0000 -1.0000 -0.0000
vn 0.0000 -1.0000 -0.0000
vn 0.0000 -1.0000 -0.0000
vn 0.0000 -1.0000 -0.0000
vn 0.0000 -1.0000 -0.0000
vn 0.0000 -1.0000 -0.0000
vn 0.0000 -1.0000 -0.0000
vn 0.0000 -1.0000 -0.0000
vn 0.0000 -1.0000 -0.0000
vn 0.0000 -1.0000 -0.0000
vn 0.0000 -1.0000 -0.0000
vn 0.0000 -1.0000 -0.0000
vn 0.0000 -1.0000 -0.0000
vn 0.0000 -1.0000 -0.0000
vn 0.0000 -1.0000 -0.0000
vn 0.0000 -1.0000 -0.0000
vn 0.0000 -1.0000 -0.0000
vn 0.8933 0.0000 0.4494
vn 0.8359 0.0000 0.5489
vn 0.8359 0.0000 0.5489
vn 0.8359 0.0000 0.5489
vn 0.8933 0.0000 0.4494
vn 0.8933 0.0000 0.4494
vn 0.8359 0.0000 -0.5489
vn 0.8933 0.0000 -0.4494
vn 0.8933 0.0000 -0.4494
vn 0.8933 0.0000 -0.4494
vn 0.8359 0.0000 -0.5489
vn 0.8359 0.0000 -0.5489
vn -0.0574 0.0000 -0.9983
vn -0.0574 0.0000 -0.9983
vn 0.0574 0.0000 -0.9983
vn 0.0574 0.0000 -0.9983
vn 0.0574 0.0000 -0.9983
vn -0.0574 0.0000 -0.9983
vn -0.8933 0.0000 -0.4494
vn -0.8933 0.0000 -0.4494
vn -0.8359 0.0000 -0.5489
vn -0.8359 0.0000 -0.5489
vn -0.8359 0.0000 -0.5489
vn -0.8933 0.0000 -0.4494
vn -0.8359 0.0000 0.5489
vn -0.8933 0.0000 0.4494
vn -0.8933 0.0000 0.4494
vn -0.8933 0.0000 0.4494
vn -0.8359 0.0000 0.5489
vn -0.8359 0.0000 0.5489
vn 0.0000 -1.0000 -0.0000
vn 0.0000 -1.0000 -0.0000
vn 0.0000 -1.0000 -0.0000
vn 0.0000 -1.0000 -0.0000
vn 0.0000 -1.0000 -0.0000
vn 0.0000 -1.0000 -0.0000
vn 0.0000 -1.0000 -0.0000
vn 0.0000 -1.0000 -0.0000
vn 0.0000 -1.0000 -0.0000
vn 0.0000 -1.0000 -0.0000
vn 0.0000 -1.0000 -0.0000
vn 0.0000 -1.0000 -0.0000
vn 0.0000 -1.0000 -0.0000
vn 0.0000 -1.0000 -0.0000
vn 0.0000 -1.0000 -0.0000
vn 0.0000 -1.0000 -0.0000
vn 0.0000 -1.0000 -0.0000
vn 0.0000 -1.0000 -0.0000
vn 0.0000 -1.0000 -0.0000
vn 0.0000 -1.0000 -0.0000
vn 0.0000 -1.0000 -0.0000
vn 0.0000 -1.0000 -0.0000
vn 0.0000 -1.0000 -0.0000
vn 0.0000 -1.0000 -0.0000
vn 0.0000 -1.0000 -0.0000
vn 0.0000 -1.0000 -0.0000
vn 0.0000 -1.0000 -0.0000
vn 0.0000 -1.0000 -0.0000
vn 0.0000 -1.0000 -0.0000
vn 0.0000 -1.0000 -0.0000
vn 0.0000 -1.0000 -0.0000
vn 0.0000 -1.0000 -0.0000
vn 0.0000 -1.0000 -0.0000
vn 0.0000 -1.0000 -0.0000
vn 0.0000 -1.0000 -0.0000
vn 0.0000 -1.0000 -0.0000
vn 0.0000 -1.0000 -0.0000
vn 0.0000 -1.0000 -0.0000
vn 0.0000 -1.0000 -0.0000
vn 0.0000 -1.0000 -0.0000
vn 0.0000 -1.0000 -0.0000
vn 0.0000 -1.0000 -0.0000
vn 0.0000 -1.0000 -0.0000
vn 0.0000 -1.0000 -0.0000
vn 0.0000 -1.0000 -0.0000
vn 0.0000 -1.0000 -0.0000
vn 0.0000 -1.0000 -0.0000
vn 0.0000 -1.0000 -0.0000
vn 0.0000 -1.0000 -0.0000
vn 0.0000 -1.0000 -0.0000
vn 0.0000 -1.0000 -0.0000
vn 0.0000 -1.0000 -0.0000
vn 0.0000 -1.0000 -0.0000
vn 0.0000 -1.0000 -0.0000
vn 0.0000 -1.0000 -0.0000
vn 0.0000 -1.0000 -0.0000
vn 0.0000 -1.0000 -0.0000
vn 0.0000 -1.0000 -0.0000
vn 0.0000 -1.0000 -0.0000
vn 0.0000 -1.0000 -0.0000
vn 0.0000 -1.0000 -0.0000
vn 0.0000 -1.0000 -0.0000
vn 0.0000 -1.0000 -0.0000
vn 0.0000 -1.0000 -0.0000
vn 0.0000 -1.0000 -0.0000
vn 0.0000 -1.0000 -0.0000
vn 0.0000 -1.0000 -0.0000
vn 0.0000 -1.0000 -0.0000
vn 0.0000 -1.0000 -0.0000
vn 0.0000 -1.0000 -0.0000
vn 0.0000 -1.0000 -0.0000
vn 0.0000 -1.0000 -0.0000
vn -0.5000 0.0000 -0.8660
vn -0.5000 0.0000 -0.8660
vn -0.2451 0.0000 -0.9695
vn -0.2451 0.0000 -0.9695
vn -0.2451 0.0000 -0.9695
vn -0.5000 0.0000 -0.8660
vn -1.0000 0.0000 -0.0000
vn -1.0000 0.0000 -0.0000
vn -0.9622 0.0000 -0.2725
vn -0.9622 0.0000 -0.2725
vn -0.9622 0.0000 -0.2725
vn -1.0000 0.0000 -0.0000
vn -0.7171 0.0000 0.6970
vn -0.7171 0.0000 0.6970
vn -0.8359 0.0000 0.5489
vn -0.8359 0.0000 0.5489
vn -0.8359 0.0000 0.5489
vn -0.7171 0.0000 0.6970
vn 0.2451 0.0000 0.9695
vn 0.5000 0.0000 0.8660
vn 0.5000 0.0000 0.8660
vn 0.5000 0.0000 0.8660
vn 0.2451 0.0000 0.9695
vn 0.2451 0.0000 0.9695
vn 0.7171 0.0000 0.6970
vn 0.7171 0.0000 0.6970
vn 0.8359 0.0000 0.5489
vn 0.8359 0.0000 0.5489
vn 0.8359 0.0000 0.5489
vn 0.7171 0.0000 0.6970
vn 0.5000 0.0000 0.8660
vn 0.5000 0.0000 0.8660
vn 0.7171 0.0000 0.6970
vn 0.7171 0.0000 0.6970
vn 0.7171 0.0000 0.6970
vn 0.5000 0.0000 0.8660
vn 0.8933 0.0000 -0.4494
vn 0.9622 0.0000 -0.2725
vn 0.9622 0.0000 -0.2725
vn 0.9622 0.0000 -0.2725
vn 0.8933 0.0000 -0.4494
vn 0.8933 0.0000 -0.4494
vn 0.2451 0.0000 -0.9695
vn 0.2451 0.0000 -0.9695
vn 0.0574 0.0000 -0.9983
vn 0.0574 0.0000 -0.9983
vn 0.0574 0.0000 -0.9983
vn 0.2451 0.0000 -0.9695
vn -0.5000 0.0000 -0.8660
vn -0.5000 0.0000 -0.8660
vn -0.7171 0.0000 -0.6970
vn -0.7171 0.0000 -0.6970
vn -0.7171 0.0000 -0.6970
vn -0.5000 0.0000 -0.8660
vn -1.0000 0.0000 -0.0000
vn -1.0000 0.0000 -0.0000
vn -0.9622 0.0000 0.2725
vn -0.9622 0.0000 0.2725
vn -0.9622 0.0000 0.2725
vn -1.0000 0.0000 -0.0000
vn -0.0574 0.0000 0.9983
vn -0.2451 0.0000 0.9695
vn -0.2451 0.0000 0.9695
vn -0.2451 0.0000 0.9695
vn -0.0574 0.0000 0.9983
vn -0.0574 0.0000 0.9983
# 420 vertex normals

vt 0.4319 0.6091 0.0000
vt 1.0514 0.0951 0.0000
vt 0.2649 0.0951 0.0000
vt 0.4630 0.6629 0.0000
vt 0.2649 0.0299 0.0000
vt 1.0514 0.0299 0.0000
vt 0.2811 0.9780 0.0000
vt 1.2550 0.0951 0.0000
vt 1.2550 0.0299 0.0000
vt 0.2189 0.9780 0.0000
vt 1.2842 0.0299 0.0000
vt 1.2842 0.0951 0.0000
vt 0.0370 0.6629 0.0000
vt 1.3114 0.0299 0.0000
vt 1.3114 0.0951 0.0000
vt 0.0681 0.6091 0.0000
vt -1.1543 0.0951 0.0000
vt -1.1543 0.0299 0.0000
vt -1.1250 0.0299 0.0000
vt -1.1250 0.0951 0.0000
vt -1.0979 0.0299 0.0000
vt -1.0979 0.0951 0.0000
vt -0.9506 0.0951 0.0000
vt -0.9506 0.0299 0.0000
vt -0.9213 0.0299 0.0000
vt -0.9213 0.0951 0.0000
vt -0.0513 0.0951 0.0000
vt -0.0513 0.0299 0.0000
vt -0.0220 0.0299 0.0000
vt -0.0220 0.0951 0.0000
vt 0.1815 0.0951 0.0000
vt 0.1815 0.0299 0.0000
vt 0.2086 0.0299 0.0000
vt 0.2086 0.0951 0.0000
vt 1.0806 0.0299 0.0000
vt 1.0806 0.0951 0.0000
vt 1.3385 0.0951 0.0000
vt 1.3385 0.0299 0.0000
vt -1.0708 0.0951 0.0000
vt -1.0708 0.0299 0.0000
vt -0.8378 0.0951 0.0000
vt -0.8671 0.0951 0.0000
vt -0.8671 0.0299 0.0000
vt -0.8378 0.0299 0.0000
vt 0.0614 0.0951 0.0000
vt 0.0322 0.0951 0.0000
vt 0.0322 0.0299 0.0000
vt 0.0614 0.0299 0.0000
vt 0.2357 0.0951 0.0000
vt 0.2357 0.0299 0.0000
vt 1.1641 0.0951 0.0000
vt 1.1641 0.0299 0.0000
vt 1.3678 0.0951 0.0000
vt 1.3678 0.0299 0.0000
vt -1.0415 0.0951 0.0000
vt -1.0415 0.0299 0.0000
vt 0.1523 0.0299 0.0000
vt 0.1523 0.0951 0.0000
vt 0.5681 0.6091 0.0000
vt 0.5370 0.6629 0.0000
vt -0.8942 0.0299 0.0000
vt 0.7189 0.9780 0.0000
vt -0.8942 0.0951 0.0000
vt 0.7811 0.9780 0.0000
vt 0.0051 0.0299 0.0000
vt 0.9630 0.6629 0.0000
vt 0.9319 0.6091 0.0000
vt 0.0051 0.0951 0.0000
vt 1.1077 0.0299 0.0000
vt 1.1077 0.0951 0.0000
vt 1.1349 0.0951 0.0000
vt 1.1349 0.0299 0.0000
vt 0.7200 0.1849 0.0000
vt 0.7289 0.2003 0.0000
vt 0.7289 0.2213 0.0000
vt 0.6521 0.3543 0.0000
vt 0.6339 0.3648 0.0000
vt 0.6161 0.3648 0.0000
vt 0.5979 0.3543 0.0000
vt 0.5211 0.2213 0.0000
vt 0.5211 0.2003 0.0000
vt 0.5300 0.1849 0.0000
vt 0.5482 0.1744 0.0000
vt 0.7018 0.1744 0.0000
vt 0.9518 0.1744 0.0000
vt 0.7982 0.1744 0.0000
vt 0.7124 0.1770 0.0000
vt 0.7166 0.1803 0.0000
vt 0.7312 0.2055 0.0000
vt 0.7319 0.2108 0.0000
vt 0.7312 0.2160 0.0000
vt 0.6487 0.3589 0.0000
vt 0.6445 0.3622 0.0000
vt 0.6396 0.3642 0.0000
vt 0.6104 0.3642 0.0000
vt 0.6055 0.3622 0.0000
vt 0.6013 0.3589 0.0000
vt 0.5188 0.2160 0.0000
vt 0.5181 0.2108 0.0000
vt 0.5188 0.2055 0.0000
vt 0.5334 0.1803 0.0000
vt 0.5376 0.1770 0.0000
vt 0.5425 0.1751 0.0000
vt 0.7075 0.1751 0.0000
vt 0.7711 0.2003 0.0000
vt 0.7688 0.2055 0.0000
vt 0.7681 0.2108 0.0000
vt 0.8479 0.3543 0.0000
vt 0.8513 0.3589 0.0000
vt 0.8555 0.3622 0.0000
vt 0.8839 0.3648 0.0000
vt 0.8896 0.3642 0.0000
vt 0.9789 0.2213 0.0000
vt 0.9812 0.2160 0.0000
vt 0.9666 0.1803 0.0000
vt 0.9624 0.1770 0.0000
vt 0.7925 0.1751 0.0000
vt 0.7688 0.2160 0.0000
vt 0.8604 0.3642 0.0000
vt 0.8987 0.3589 0.0000
vt 0.9021 0.3543 0.0000
vt 0.9812 0.2055 0.0000
vt 0.9789 0.2003 0.0000
vt 0.9575 0.1751 0.0000
vt 0.7800 0.1849 0.0000
vt 0.7711 0.2213 0.0000
vt 0.8661 0.3648 0.0000
vt 0.9700 0.1849 0.0000
vt 0.7834 0.1803 0.0000
vt 0.7876 0.1770 0.0000
vt 0.8945 0.3622 0.0000
vt 0.9819 0.2108 0.0000
vt 0.7069 0.1865 0.0000
vt 0.7209 0.2108 0.0000
vt 0.6390 0.3527 0.0000
vt 0.6110 0.3527 0.0000
vt 0.5291 0.2108 0.0000
vt 0.5431 0.1865 0.0000
vt 0.7931 0.1865 0.0000
vt 0.7791 0.2108 0.0000
vt 0.8610 0.3527 0.0000
vt 0.8890 0.3527 0.0000
vt 0.9709 0.2108 0.0000
vt 0.9569 0.1865 0.0000
vt 2.1543 0.0299 0.0000
vt 2.1543 0.0951 0.0000
# 146 texture coords

g TTri
usemtl Material__2
f 1/133/1 76/73/2 79/74/3 
f 79/74/4 10/134/5 1/133/6 
f 10/134/7 81/75/8 84/76/9 
f 84/76/10 16/135/11 10/134/12 
f 16/135/13 86/77/14 89/78/15 
f 89/78/16 22/136/17 16/135/18 
f 22/136/19 91/79/20 94/80/21 
f 94/80/22 28/137/23 22/136/24 
f 28/137/25 96/81/26 99/82/27 
f 99/82/28 34/138/29 28/137/30 
f 34/138/31 35/83/32 74/84/33 
f 74/84/34 1/133/35 34/138/36 
f 1/1/37 10/4/38 16/7/39 
f 16/7/40 22/10/41 28/13/42 
f 1/1/43 16/7/44 28/13/45 
f 1/1/46 28/13/47 34/16/48 
f 101/3/49 113/5/50 114/6/51 
f 114/6/52 3/2/53 101/3/54 
f 1/133/55 73/87/56 77/88/57 
f 77/88/58 76/73/59 1/133/60 
f 9/89/61 78/90/62 10/134/63 
f 10/134/64 79/74/65 9/89/66 
f 10/134/67 78/90/68 82/91/69 
f 82/91/70 81/75/71 10/134/72 
f 15/92/73 83/93/74 16/135/75 
f 16/135/76 84/76/77 15/92/78 
f 16/135/79 83/93/80 87/94/81 
f 87/94/82 86/77/83 16/135/84 
f 21/95/85 88/96/86 22/136/87 
f 22/136/88 89/78/89 21/95/90 
f 22/136/91 88/96/92 92/97/93 
f 92/97/94 91/79/95 22/136/96 
f 27/98/97 93/99/98 28/137/99 
f 28/137/100 94/80/101 27/98/102 
f 28/137/103 93/99/104 97/100/105 
f 97/100/106 96/81/107 28/137/108 
f 33/101/109 98/102/110 34/138/111 
f 34/138/112 99/82/113 33/101/114 
f 34/138/115 98/102/116 102/103/117 
f 102/103/118 35/83/119 34/138/120 
f 4/104/121 73/87/122 1/133/123 
f 1/133/124 74/84/125 4/104/126 
f 8/8/127 104/9/128 117/11/129 
f 117/11/130 80/12/131 8/8/132 
f 117/11/133 118/14/134 7/15/135 
f 7/15/136 80/12/137 117/11/138 
f 14/17/139 106/18/140 120/19/141 
f 120/19/142 85/20/143 14/17/144 
f 120/19/145 121/21/146 13/22/147 
f 13/22/148 85/20/149 120/19/150 
f 108/24/151 123/25/152 90/26/153 
f 90/26/154 20/23/155 108/24/156 
f 110/28/157 126/29/158 95/30/159 
f 95/30/160 26/27/161 110/28/162 
f 129/32/163 130/33/164 31/34/165 
f 31/34/166 100/31/167 129/32/168 
f 114/6/169 132/35/170 75/36/171 
f 75/36/172 3/2/173 114/6/174 
f 12/37/175 7/15/176 118/14/177 
f 118/14/178 119/38/179 12/37/180 
f 18/39/181 13/22/182 121/21/183 
f 121/21/184 122/40/185 18/39/186 
f 23/41/187 24/42/188 125/43/189 
f 125/43/190 109/44/191 23/41/192 
f 29/45/193 30/46/194 128/47/195 
f 128/47/196 111/48/197 29/45/198 
f 36/49/199 31/34/200 130/33/201 
f 130/33/202 131/50/203 36/49/204 
f 37/139/205 40/140/206 39/105/207 
f 39/105/208 38/125/209 37/139/210 
f 40/140/211 43/141/212 42/108/213 
f 42/108/214 41/126/215 40/140/216 
f 43/141/217 46/142/218 45/111/219 
f 45/111/220 44/127/221 43/141/222 
f 46/142/223 49/143/224 48/113/225 
f 48/113/226 47/121/227 46/142/228 
f 49/143/229 52/144/230 51/128/231 
f 51/128/232 50/123/233 49/143/234 
f 52/144/235 37/139/236 54/86/237 
f 54/86/238 53/85/239 52/144/240 
f 37/59/241 52/67/242 49/66/243 
f 49/66/244 46/64/245 43/62/246 
f 37/59/247 49/66/248 43/62/249 
f 37/59/250 43/62/251 40/60/252 
f 8/8/253 5/51/254 103/52/255 
f 103/52/256 104/9/257 8/8/258 
f 14/146/259 11/53/260 105/54/261 
f 105/54/262 106/145/263 14/146/264 
f 108/24/265 20/23/266 17/55/267 
f 17/55/268 107/56/269 108/24/270 
f 110/28/271 26/27/272 23/41/273 
f 23/41/274 109/44/275 110/28/276 
f 32/58/277 29/45/278 111/48/279 
f 111/48/280 112/57/281 32/58/282 
f 37/139/283 38/125/284 56/129/285 
f 56/129/286 55/130/287 37/139/288 
f 57/106/289 39/105/290 40/140/291 
f 40/140/292 58/107/293 57/106/294 
f 40/140/295 41/126/296 59/118/297 
f 59/118/298 58/107/299 40/140/300 
f 60/109/301 42/108/302 43/141/303 
f 43/141/304 61/110/305 60/109/306 
f 43/141/307 44/127/308 62/119/309 
f 62/119/310 61/110/311 43/141/312 
f 63/112/313 45/111/314 46/142/315 
f 46/142/316 64/131/317 63/112/318 
f 46/142/319 47/121/320 65/120/321 
f 65/120/322 64/131/323 46/142/324 
f 66/114/325 48/113/326 49/143/327 
f 49/143/328 67/132/329 66/114/330 
f 49/143/331 50/123/332 68/122/333 
f 68/122/334 67/132/335 49/143/336 
f 69/115/337 51/128/338 52/144/339 
f 52/144/340 70/116/341 69/115/342 
f 52/144/343 53/85/344 71/124/345 
f 71/124/346 70/116/347 52/144/348 
f 72/117/349 54/86/350 37/139/351 
f 37/139/352 55/130/353 72/117/354 
f 124/61/355 19/63/356 90/26/357 
f 90/26/358 123/25/359 124/61/360 
f 127/65/361 25/68/362 95/30/363 
f 95/30/364 126/29/365 127/65/366 
f 129/32/367 100/31/368 32/58/369 
f 32/58/370 112/57/371 129/32/372 
f 132/35/373 115/69/374 2/70/375 
f 2/70/376 75/36/377 132/35/378 
f 6/71/379 116/72/380 103/52/381 
f 103/52/382 5/51/383 6/71/384 
f 2/70/385 115/69/386 116/72/387 
f 116/72/388 6/71/389 2/70/390 
f 11/53/391 12/37/392 119/38/393 
f 119/38/394 105/54/395 11/53/396 
f 18/39/397 122/40/398 107/56/399 
f 107/56/400 17/55/401 18/39/402 
f 19/63/403 124/61/404 125/43/405 
f 125/43/406 24/42/407 19/63/408 
f 25/68/409 127/65/410 128/47/411 
f 128/47/412 30/46/413 25/68/414 
f 101/3/415 36/49/416 131/50/417 
f 131/50/418 113/5/419 101/3/420 
# 140 faces

