# 3ds Max Wavefront OBJ Exporter v0.97b - (c)2007 guruware
# File Created: 11.03.2017 14:28:43

mtllib CapsuleH_MSH.mtl

#
# object CapsuleH_BASE
#

v  0.3750 -0.0313 -0.0000
v  0.3465 -0.0313 -0.1435
v  0.2652 -0.0313 -0.2652
v  0.1435 -0.0313 -0.3465
v  -0.0000 -0.0313 -0.3750
v  -0.1435 -0.0313 -0.3465
v  -0.2652 -0.0313 -0.2652
v  -0.3465 -0.0313 -0.1435
v  -0.3750 -0.0313 -0.0000
v  -0.3465 -0.0313 0.1435
v  -0.2652 -0.0313 0.2652
v  -0.1435 -0.0313 0.3465
v  0.0000 -0.0313 0.3750
v  0.1435 -0.0313 0.3465
v  0.2652 -0.0313 0.2652
v  0.3465 -0.0313 0.1435
v  0.3750 0.0313 -0.0000
v  0.3465 0.0313 -0.1435
v  0.2652 0.0313 -0.2652
v  0.1435 0.0313 -0.3465
v  -0.0000 0.0313 -0.3750
v  -0.1435 0.0313 -0.3465
v  -0.2652 0.0313 -0.2652
v  -0.3465 0.0313 -0.1435
v  -0.3750 0.0313 -0.0000
v  -0.3465 0.0313 0.1435
v  -0.2652 0.0313 0.2652
v  -0.1435 0.0313 0.3465
v  0.0000 0.0313 0.3750
v  0.1435 0.0313 0.3465
v  0.2652 0.0313 0.2652
v  0.3465 0.0313 0.1435
v  0.3750 -0.0313 -0.0000
v  0.3465 -0.0313 -0.1435
v  0.2652 -0.0313 -0.2652
v  0.1435 -0.0313 -0.3465
v  -0.0000 -0.0313 -0.3750
v  -0.1435 -0.0313 -0.3465
v  -0.2652 -0.0313 -0.2652
v  -0.3465 -0.0313 -0.1435
v  -0.3750 -0.0313 -0.0000
v  -0.3465 -0.0313 0.1435
v  -0.2652 -0.0313 0.2652
v  -0.1435 -0.0313 0.3465
v  0.0000 -0.0313 0.3750
v  0.1435 -0.0313 0.3465
v  0.2652 -0.0313 0.2652
v  0.3465 -0.0313 0.1435
v  0.3750 0.0313 -0.0000
v  0.3465 0.0313 -0.1435
v  0.2652 0.0313 -0.2652
v  0.1435 0.0313 -0.3465
v  -0.0000 0.0313 -0.3750
v  -0.1435 0.0313 -0.3465
v  -0.2652 0.0313 -0.2652
v  -0.3465 0.0313 -0.1435
v  -0.3750 0.0313 -0.0000
v  -0.3465 0.0313 0.1435
v  -0.2652 0.0313 0.2652
v  -0.1435 0.0313 0.3465
v  0.0000 0.0313 0.3750
v  0.1435 0.0313 0.3465
v  0.2652 0.0313 0.2652
v  0.3465 0.0313 0.1435
# 64 vertices

vn 1.0000 0.0000 -0.0000
vn 0.9239 0.0000 -0.3827
vn 0.9239 0.0000 -0.3827
vn 0.9239 0.0000 -0.3827
vn 1.0000 0.0000 -0.0000
vn 1.0000 0.0000 -0.0000
vn 0.9239 0.0000 -0.3827
vn 0.7071 0.0000 -0.7071
vn 0.7071 0.0000 -0.7071
vn 0.7071 0.0000 -0.7071
vn 0.9239 0.0000 -0.3827
vn 0.9239 0.0000 -0.3827
vn 0.7071 0.0000 -0.7071
vn 0.3827 0.0000 -0.9239
vn 0.3827 0.0000 -0.9239
vn 0.3827 0.0000 -0.9239
vn 0.7071 0.0000 -0.7071
vn 0.7071 0.0000 -0.7071
vn 0.3827 0.0000 -0.9239
vn 0.0000 0.0000 -1.0000
vn 0.0000 0.0000 -1.0000
vn 0.0000 0.0000 -1.0000
vn 0.3827 0.0000 -0.9239
vn 0.3827 0.0000 -0.9239
vn 0.0000 0.0000 -1.0000
vn -0.3827 0.0000 -0.9239
vn -0.3827 0.0000 -0.9239
vn -0.3827 0.0000 -0.9239
vn 0.0000 0.0000 -1.0000
vn 0.0000 0.0000 -1.0000
vn -0.3827 0.0000 -0.9239
vn -0.7071 0.0000 -0.7071
vn -0.7071 0.0000 -0.7071
vn -0.7071 0.0000 -0.7071
vn -0.3827 0.0000 -0.9239
vn -0.3827 0.0000 -0.9239
vn -0.7071 0.0000 -0.7071
vn -0.9239 0.0000 -0.3827
vn -0.9239 0.0000 -0.3827
vn -0.9239 0.0000 -0.3827
vn -0.7071 0.0000 -0.7071
vn -0.7071 0.0000 -0.7071
vn -0.9239 0.0000 -0.3827
vn -1.0000 0.0000 -0.0000
vn -1.0000 0.0000 -0.0000
vn -1.0000 0.0000 -0.0000
vn -0.9239 0.0000 -0.3827
vn -0.9239 0.0000 -0.3827
vn -1.0000 0.0000 -0.0000
vn -0.9239 0.0000 0.3827
vn -0.9239 0.0000 0.3827
vn -0.9239 0.0000 0.3827
vn -1.0000 0.0000 -0.0000
vn -1.0000 0.0000 -0.0000
vn -0.9239 0.0000 0.3827
vn -0.7071 0.0000 0.7071
vn -0.7071 0.0000 0.7071
vn -0.7071 0.0000 0.7071
vn -0.9239 0.0000 0.3827
vn -0.9239 0.0000 0.3827
vn -0.7071 0.0000 0.7071
vn -0.3827 0.0000 0.9239
vn -0.3827 0.0000 0.9239
vn -0.3827 0.0000 0.9239
vn -0.7071 0.0000 0.7071
vn -0.7071 0.0000 0.7071
vn -0.3827 0.0000 0.9239
vn 0.0000 0.0000 1.0000
vn 0.0000 0.0000 1.0000
vn 0.0000 0.0000 1.0000
vn -0.3827 0.0000 0.9239
vn -0.3827 0.0000 0.9239
vn 0.0000 0.0000 1.0000
vn 0.3827 0.0000 0.9239
vn 0.3827 0.0000 0.9239
vn 0.3827 0.0000 0.9239
vn 0.0000 0.0000 1.0000
vn 0.0000 0.0000 1.0000
vn 0.3827 0.0000 0.9239
vn 0.7071 0.0000 0.7071
vn 0.7071 0.0000 0.7071
vn 0.7071 0.0000 0.7071
vn 0.3827 0.0000 0.9239
vn 0.3827 0.0000 0.9239
vn 0.7071 0.0000 0.7071
vn 0.9239 0.0000 0.3827
vn 0.9239 0.0000 0.3827
vn 0.9239 0.0000 0.3827
vn 0.7071 0.0000 0.7071
vn 0.7071 0.0000 0.7071
vn 0.9239 0.0000 0.3827
vn 1.0000 0.0000 -0.0000
vn 1.0000 0.0000 -0.0000
vn 1.0000 0.0000 -0.0000
vn 0.9239 0.0000 0.3827
vn 0.9239 0.0000 0.3827
vn 0.0000 -1.0000 -0.0000
vn 0.0000 -1.0000 -0.0000
vn 0.0000 -1.0000 -0.0000
vn 0.0000 -1.0000 -0.0000
vn 0.0000 -1.0000 -0.0000
vn 0.0000 -1.0000 -0.0000
vn 0.0000 -1.0000 -0.0000
vn 0.0000 -1.0000 -0.0000
vn 0.0000 -1.0000 -0.0000
vn 0.0000 -1.0000 -0.0000
vn 0.0000 -1.0000 -0.0000
vn 0.0000 -1.0000 -0.0000
vn 0.0000 -1.0000 -0.0000
vn 0.0000 -1.0000 -0.0000
vn 0.0000 -1.0000 -0.0000
vn 0.0000 -1.0000 -0.0000
vn 0.0000 -1.0000 -0.0000
vn 0.0000 -1.0000 -0.0000
vn 0.0000 -1.0000 -0.0000
vn 0.0000 -1.0000 -0.0000
vn 0.0000 -1.0000 -0.0000
vn 0.0000 -1.0000 -0.0000
vn 0.0000 -1.0000 -0.0000
vn 0.0000 -1.0000 -0.0000
vn 0.0000 -1.0000 -0.0000
vn 0.0000 -1.0000 -0.0000
vn 0.0000 -1.0000 -0.0000
vn 0.0000 -1.0000 -0.0000
vn 0.0000 -1.0000 -0.0000
vn 0.0000 -1.0000 -0.0000
vn 0.0000 -1.0000 -0.0000
vn 0.0000 -1.0000 -0.0000
vn 0.0000 -1.0000 -0.0000
vn 0.0000 -1.0000 -0.0000
vn 0.0000 -1.0000 -0.0000
vn 0.0000 -1.0000 -0.0000
vn 0.0000 -1.0000 -0.0000
vn 0.0000 -1.0000 -0.0000
vn 0.0000 -1.0000 -0.0000
vn 0.0000 -1.0000 -0.0000
vn 0.0000 -1.0000 -0.0000
vn 0.0000 -1.0000 -0.0000
vn 0.0000 1.0000 -0.0000
vn 0.0000 1.0000 -0.0000
vn 0.0000 1.0000 -0.0000
vn 0.0000 1.0000 -0.0000
vn 0.0000 1.0000 -0.0000
vn 0.0000 1.0000 -0.0000
vn 0.0000 1.0000 -0.0000
vn 0.0000 1.0000 -0.0000
vn 0.0000 1.0000 -0.0000
vn 0.0000 1.0000 -0.0000
vn 0.0000 1.0000 -0.0000
vn 0.0000 1.0000 -0.0000
vn 0.0000 1.0000 -0.0000
vn 0.0000 1.0000 -0.0000
vn 0.0000 1.0000 -0.0000
vn 0.0000 1.0000 -0.0000
vn 0.0000 1.0000 -0.0000
vn 0.0000 1.0000 -0.0000
vn 0.0000 1.0000 -0.0000
vn 0.0000 1.0000 -0.0000
vn 0.0000 1.0000 -0.0000
vn 0.0000 1.0000 -0.0000
vn 0.0000 1.0000 -0.0000
vn 0.0000 1.0000 -0.0000
vn 0.0000 1.0000 -0.0000
vn 0.0000 1.0000 -0.0000
vn 0.0000 1.0000 -0.0000
vn 0.0000 1.0000 -0.0000
vn 0.0000 1.0000 -0.0000
vn 0.0000 1.0000 -0.0000
vn 0.0000 1.0000 -0.0000
vn 0.0000 1.0000 -0.0000
vn 0.0000 1.0000 -0.0000
vn 0.0000 1.0000 -0.0000
vn 0.0000 1.0000 -0.0000
vn 0.0000 1.0000 -0.0000
vn 0.0000 1.0000 -0.0000
vn 0.0000 1.0000 -0.0000
vn 0.0000 1.0000 -0.0000
vn 0.0000 1.0000 -0.0000
vn 0.0000 1.0000 -0.0000
vn 0.0000 1.0000 -0.0000
# 180 vertex normals

vt 0.9375 0.2500 0.0000
vt 0.9232 0.3218 0.0000
vt 0.7500 0.0180 0.0000
vt 0.8125 0.0180 0.0000
vt 0.8826 0.3826 0.0000
vt 0.8125 0.0445 0.0000
vt 0.8218 0.4232 0.0000
vt 0.7500 0.0445 0.0000
vt 0.7500 0.4375 0.0000
vt 0.8750 0.0180 0.0000
vt 0.6782 0.4232 0.0000
vt 0.8750 0.0445 0.0000
vt 0.6174 0.3826 0.0000
vt 0.9375 0.0180 0.0000
vt 0.5768 0.3218 0.0000
vt 0.9375 0.0445 0.0000
vt 0.5625 0.2500 0.0000
vt 0.0000 0.0180 0.0000
vt 0.5768 0.1782 0.0000
vt 0.0000 0.0445 0.0000
vt 0.6174 0.1174 0.0000
vt 0.0625 0.0180 0.0000
vt 0.6782 0.0768 0.0000
vt 0.0625 0.0445 0.0000
vt 0.7500 0.0625 0.0000
vt 0.1250 0.0180 0.0000
vt 0.8218 0.0768 0.0000
vt 0.1250 0.0445 0.0000
vt 0.8826 0.1174 0.0000
vt 0.1875 0.0180 0.0000
vt 0.9232 0.1782 0.0000
vt 0.1875 0.0445 0.0000
vt 0.4232 0.3218 0.0000
vt 0.4375 0.2500 0.0000
vt 0.3826 0.3826 0.0000
vt 0.3218 0.4232 0.0000
vt 0.2500 0.4375 0.0000
vt 0.1782 0.4232 0.0000
vt 0.1174 0.3826 0.0000
vt 0.0768 0.3218 0.0000
vt 0.0625 0.2500 0.0000
vt 0.0768 0.1782 0.0000
vt 0.1174 0.1174 0.0000
vt 0.1782 0.0768 0.0000
vt 0.2500 0.0625 0.0000
vt 0.3218 0.0768 0.0000
vt 0.3826 0.1174 0.0000
vt 0.4232 0.1782 0.0000
vt 0.2500 0.0180 0.0000
vt 0.2500 0.0445 0.0000
vt 0.3125 0.0180 0.0000
vt 0.3125 0.0445 0.0000
vt 0.3750 0.0180 0.0000
vt 0.3750 0.0445 0.0000
vt 0.4375 0.0180 0.0000
vt 0.4375 0.0445 0.0000
vt 0.5000 0.0180 0.0000
vt 0.5000 0.0445 0.0000
vt 0.5625 0.0180 0.0000
vt 0.5625 0.0445 0.0000
vt 0.6250 0.0180 0.0000
vt 0.6250 0.0445 0.0000
vt 0.6875 0.0180 0.0000
vt 0.6875 0.0445 0.0000
vt 1.0000 0.0180 0.0000
vt 1.0000 0.0445 0.0000
# 66 texture coords

g CapsuleH_BASE
usemtl wire_176026026
f 1/3/1 34/4/2 50/6/3 
f 50/6/4 49/8/5 1/3/6 
f 34/4/7 35/10/8 51/12/9 
f 51/12/10 50/6/11 34/4/12 
f 35/10/13 36/14/14 52/16/15 
f 52/16/16 51/12/17 35/10/18 
f 36/14/19 37/65/20 53/66/21 
f 53/66/22 52/16/23 36/14/24 
f 37/18/25 38/22/26 54/24/27 
f 54/24/28 53/20/29 37/18/30 
f 38/22/31 39/26/32 55/28/33 
f 55/28/34 54/24/35 38/22/36 
f 39/26/37 40/30/38 56/32/39 
f 56/32/40 55/28/41 39/26/42 
f 40/30/43 41/49/44 57/50/45 
f 57/50/46 56/32/47 40/30/48 
f 41/49/49 42/51/50 58/52/51 
f 58/52/52 57/50/53 41/49/54 
f 42/51/55 43/53/56 59/54/57 
f 59/54/58 58/52/59 42/51/60 
f 43/53/61 44/55/62 60/56/63 
f 60/56/64 59/54/65 43/53/66 
f 44/55/67 45/57/68 61/58/69 
f 61/58/70 60/56/71 44/55/72 
f 45/57/73 46/59/74 62/60/75 
f 62/60/76 61/58/77 45/57/78 
f 46/59/79 47/61/80 63/62/81 
f 63/62/82 62/60/83 46/59/84 
f 47/61/85 16/63/86 64/64/87 
f 64/64/88 63/62/89 47/61/90 
f 16/63/91 1/3/92 49/8/93 
f 49/8/94 64/64/95 16/63/96 
f 15/29/97 14/27/98 13/25/99 
f 13/25/100 12/23/101 11/21/102 
f 11/21/103 10/19/104 9/17/105 
f 13/25/106 11/21/107 9/17/108 
f 9/17/109 8/15/110 7/13/111 
f 7/13/112 6/11/113 5/9/114 
f 9/17/115 7/13/116 5/9/117 
f 5/9/118 4/7/119 3/5/120 
f 3/5/121 2/2/122 33/1/123 
f 5/9/124 3/5/125 33/1/126 
f 9/17/127 5/9/128 33/1/129 
f 13/25/130 9/17/131 33/1/132 
f 15/29/133 13/25/134 33/1/135 
f 48/31/136 15/29/137 33/1/138 
f 18/33/139 19/35/140 20/36/141 
f 20/36/142 21/37/143 22/38/144 
f 22/38/145 23/39/146 24/40/147 
f 20/36/148 22/38/149 24/40/150 
f 24/40/151 25/41/152 26/42/153 
f 26/42/154 27/43/155 28/44/156 
f 24/40/157 26/42/158 28/44/159 
f 28/44/160 29/45/161 30/46/162 
f 30/46/163 31/47/164 32/48/165 
f 28/44/166 30/46/167 32/48/168 
f 24/40/169 28/44/170 32/48/171 
f 20/36/172 24/40/173 32/48/174 
f 18/33/175 20/36/176 32/48/177 
f 17/34/178 18/33/179 32/48/180 
# 60 faces

#
# object CapsuleH
#

v  0.2241 0.4741 0.0312
v  0.3315 0.4958 0.0312
v  0.4192 0.5550 0.0312
v  0.4783 0.6427 0.0312
v  0.5000 0.7500 0.0313
v  0.4783 0.8573 0.0313
v  0.4192 0.9450 0.0313
v  0.3315 1.0042 0.0313
v  0.2241 1.0259 0.0313
v  -0.2241 1.0259 0.0313
v  -0.3315 1.0042 0.0313
v  -0.4192 0.9450 0.0313
v  -0.4783 0.8573 0.0313
v  -0.5000 0.7500 0.0313
v  -0.4783 0.6427 0.0312
v  -0.4192 0.5550 0.0312
v  -0.3315 0.4958 0.0312
v  -0.2241 0.4741 0.0312
v  0.2241 0.4741 -0.0313
v  0.3315 0.4958 -0.0313
v  0.4192 0.5550 -0.0313
v  0.4783 0.6427 -0.0313
v  0.5000 0.7500 -0.0313
v  0.4783 0.8573 -0.0312
v  0.4192 0.9450 -0.0312
v  0.3315 1.0042 -0.0312
v  0.2241 1.0259 -0.0312
v  -0.2241 1.0259 -0.0312
v  -0.3315 1.0042 -0.0312
v  -0.4192 0.9450 -0.0312
v  -0.4783 0.8573 -0.0312
v  -0.5000 0.7500 -0.0313
v  -0.4783 0.6427 -0.0313
v  -0.4192 0.5550 -0.0313
v  -0.3315 0.4958 -0.0313
v  -0.2241 0.4741 -0.0313
v  0.2241 0.4741 0.0312
v  0.3315 0.4958 0.0312
v  0.4192 0.5550 0.0312
v  0.4783 0.6427 0.0312
v  0.5000 0.7500 0.0313
v  0.4783 0.8573 0.0313
v  0.4192 0.9450 0.0313
v  0.3315 1.0042 0.0313
v  0.2241 1.0259 0.0313
v  -0.2241 1.0259 0.0313
v  -0.3315 1.0042 0.0313
v  -0.4192 0.9450 0.0313
v  -0.4783 0.8573 0.0313
v  -0.5000 0.7500 0.0313
v  -0.4783 0.6427 0.0312
v  -0.4192 0.5550 0.0312
v  -0.3315 0.4958 0.0312
v  -0.2241 0.4741 0.0312
v  0.2241 0.4741 -0.0313
v  0.3315 0.4958 -0.0313
v  0.4192 0.5550 -0.0313
v  0.4783 0.6427 -0.0313
v  0.5000 0.7500 -0.0313
v  0.4783 0.8573 -0.0312
v  0.4192 0.9450 -0.0312
v  0.3315 1.0042 -0.0312
v  0.2241 1.0259 -0.0312
v  -0.2241 1.0259 -0.0312
v  -0.3315 1.0042 -0.0312
v  -0.4192 0.9450 -0.0312
v  -0.4783 0.8573 -0.0312
v  -0.5000 0.7500 -0.0313
v  -0.4783 0.6427 -0.0313
v  -0.4192 0.5550 -0.0313
v  -0.3315 0.4958 -0.0313
v  -0.2241 0.4741 -0.0313
# 72 vertices

vn 0.0000 -0.0000 1.0000
vn 0.0000 -0.0000 1.0000
vn 0.0000 -0.0000 1.0000
vn 0.0000 -0.0000 1.0000
vn 0.0000 -0.0000 1.0000
vn 0.0000 -0.0000 1.0000
vn 0.0000 -0.0000 1.0000
vn 0.0000 -0.0000 1.0000
vn 0.0000 -0.0000 1.0000
vn 0.0000 -0.0000 1.0000
vn 0.0000 -0.0000 1.0000
vn 0.0000 -0.0000 1.0000
vn 0.0000 -0.0000 1.0000
vn 0.0000 -0.0000 1.0000
vn 0.0000 -0.0000 1.0000
vn 0.0000 -0.0000 1.0000
vn 0.0000 -0.0000 1.0000
vn 0.0000 -0.0000 1.0000
vn 0.0000 -0.0000 1.0000
vn 0.0000 -0.0000 1.0000
vn 0.0000 -0.0000 1.0000
vn 0.0000 -0.0000 1.0000
vn 0.0000 -0.0000 1.0000
vn -0.0000 -0.0000 1.0000
vn 0.0000 -0.0000 1.0000
vn 0.0000 -0.0000 1.0000
vn -0.0000 -0.0000 1.0000
vn 0.0000 -0.0000 1.0000
vn 0.0000 -0.0000 1.0000
vn -0.0000 -0.0000 1.0000
vn 0.0000 -0.0000 1.0000
vn 0.0000 -0.0000 1.0000
vn -0.0000 -0.0000 1.0000
vn 0.0000 -0.0000 1.0000
vn -0.0000 -0.0000 1.0000
vn 0.0000 -0.0000 1.0000
vn 0.0000 -0.0000 1.0000
vn 0.0000 -0.0000 1.0000
vn 0.0000 -0.0000 1.0000
vn 0.0000 -0.0000 1.0000
vn 0.0000 -0.0000 1.0000
vn 0.0000 -0.0000 1.0000
vn 0.0000 -0.0000 1.0000
vn 0.0000 -0.0000 1.0000
vn 0.0000 -0.0000 1.0000
vn 0.0000 -0.0000 1.0000
vn 0.0000 -0.0000 1.0000
vn 0.0000 -0.0000 1.0000
vn 0.0000 0.0000 -1.0000
vn 0.0000 0.0000 -1.0000
vn 0.0000 0.0000 -1.0000
vn 0.0000 0.0000 -1.0000
vn 0.0000 0.0000 -1.0000
vn 0.0000 0.0000 -1.0000
vn 0.0000 0.0000 -1.0000
vn 0.0000 0.0000 -1.0000
vn 0.0000 0.0000 -1.0000
vn 0.0000 0.0000 -1.0000
vn 0.0000 0.0000 -1.0000
vn 0.0000 0.0000 -1.0000
vn 0.0000 0.0000 -1.0000
vn 0.0000 0.0000 -1.0000
vn 0.0000 0.0000 -1.0000
vn 0.0000 0.0000 -1.0000
vn 0.0000 0.0000 -1.0000
vn 0.0000 0.0000 -1.0000
vn 0.0000 0.0000 -1.0000
vn 0.0000 0.0000 -1.0000
vn 0.0000 0.0000 -1.0000
vn 0.0000 0.0000 -1.0000
vn 0.0000 0.0000 -1.0000
vn 0.0000 0.0000 -1.0000
vn 0.0000 0.0000 -1.0000
vn 0.0000 0.0000 -1.0000
vn 0.0000 0.0000 -1.0000
vn 0.0000 0.0000 -1.0000
vn 0.0000 0.0000 -1.0000
vn 0.0000 0.0000 -1.0000
vn 0.0000 0.0000 -1.0000
vn 0.0000 0.0000 -1.0000
vn 0.0000 0.0000 -1.0000
vn 0.0000 0.0000 -1.0000
vn 0.0000 0.0000 -1.0000
vn 0.0000 0.0000 -1.0000
vn 0.0000 0.0000 -1.0000
vn 0.0000 0.0000 -1.0000
vn 0.0000 0.0000 -1.0000
vn 0.0000 0.0000 -1.0000
vn 0.0000 0.0000 -1.0000
vn 0.0000 0.0000 -1.0000
vn 0.0000 0.0000 -1.0000
vn 0.0000 0.0000 -1.0000
vn 0.0000 0.0000 -1.0000
vn 0.0000 0.0000 -1.0000
vn 0.0000 0.0000 -1.0000
vn 0.0000 0.0000 -1.0000
vn 0.9224 -0.3862 -0.0000
vn 1.0000 0.0000 0.0000
vn 1.0000 0.0000 0.0000
vn 1.0000 0.0000 0.0000
vn 0.9224 -0.3862 -0.0000
vn 0.9224 -0.3862 -0.0000
vn 1.0000 0.0000 0.0000
vn 0.9224 0.3862 0.0000
vn 0.9224 0.3862 0.0000
vn 0.9224 0.3862 0.0000
vn 1.0000 0.0000 0.0000
vn 1.0000 0.0000 0.0000
vn -0.7071 0.7071 0.0000
vn -0.9224 0.3862 0.0000
vn -0.9224 0.3862 0.0000
vn -0.9224 0.3862 0.0000
vn -0.7071 0.7071 0.0000
vn -0.7071 0.7071 0.0000
vn -0.9224 0.3862 0.0000
vn -1.0000 0.0000 0.0000
vn -1.0000 0.0000 0.0000
vn -1.0000 0.0000 0.0000
vn -0.9224 0.3862 0.0000
vn -0.9224 0.3862 0.0000
vn -1.0000 0.0000 0.0000
vn -0.9224 -0.3862 -0.0000
vn -0.9224 -0.3862 -0.0000
vn -0.9224 -0.3862 -0.0000
vn -1.0000 0.0000 0.0000
vn -1.0000 0.0000 0.0000
vn -0.9224 -0.3862 -0.0000
vn -0.7071 -0.7071 -0.0000
vn -0.7071 -0.7071 -0.0000
vn -0.7071 -0.7071 -0.0000
vn -0.9224 -0.3862 -0.0000
vn -0.9224 -0.3862 -0.0000
vn -0.3862 0.9224 0.0000
vn -0.7071 0.7071 0.0000
vn -0.7071 0.7071 0.0000
vn -0.7071 0.7071 0.0000
vn -0.3862 0.9224 0.0000
vn -0.3862 0.9224 0.0000
vn -0.7071 -0.7071 -0.0000
vn -0.3862 -0.9224 -0.0000
vn -0.3862 -0.9224 -0.0000
vn -0.3862 -0.9224 -0.0000
vn -0.7071 -0.7071 -0.0000
vn -0.7071 -0.7071 -0.0000
vn -0.3862 -0.9224 -0.0000
vn -0.0996 -0.9950 -0.0000
vn -0.0996 -0.9950 -0.0000
vn -0.0996 -0.9950 -0.0000
vn -0.3862 -0.9224 -0.0000
vn -0.3862 -0.9224 -0.0000
vn -0.0996 0.9950 0.0000
vn -0.3862 0.9224 0.0000
vn -0.3862 0.9224 0.0000
vn -0.3862 0.9224 0.0000
vn -0.0996 0.9950 0.0000
vn -0.0996 0.9950 0.0000
vn 0.0996 0.9950 0.0000
vn -0.0996 0.9950 0.0000
vn -0.0996 0.9950 0.0000
vn -0.0996 0.9950 0.0000
vn 0.0996 0.9950 0.0000
vn 0.0996 0.9950 0.0000
vn -0.0996 -0.9950 -0.0000
vn 0.0996 -0.9950 -0.0000
vn 0.0996 -0.9950 -0.0000
vn 0.0996 -0.9950 -0.0000
vn -0.0996 -0.9950 -0.0000
vn -0.0996 -0.9950 -0.0000
vn 0.0996 -0.9950 -0.0000
vn 0.3862 -0.9224 -0.0000
vn 0.3862 -0.9224 -0.0000
vn 0.3862 -0.9224 -0.0000
vn 0.0996 -0.9950 -0.0000
vn 0.0996 -0.9950 -0.0000
vn 0.3862 -0.9224 -0.0000
vn 0.7071 -0.7071 -0.0000
vn 0.7071 -0.7071 -0.0000
vn 0.7071 -0.7071 -0.0000
vn 0.3862 -0.9224 -0.0000
vn 0.3862 -0.9224 -0.0000
vn 0.3862 0.9224 0.0000
vn 0.0996 0.9950 0.0000
vn 0.0996 0.9950 0.0000
vn 0.0996 0.9950 0.0000
vn 0.3862 0.9224 0.0000
vn 0.3862 0.9224 0.0000
vn 0.7071 0.7071 0.0000
vn 0.3862 0.9224 0.0000
vn 0.3862 0.9224 0.0000
vn 0.3862 0.9224 0.0000
vn 0.7071 0.7071 0.0000
vn 0.7071 0.7071 0.0000
vn 0.9224 0.3862 0.0000
vn 0.7071 0.7071 0.0000
vn 0.7071 0.7071 0.0000
vn 0.7071 0.7071 0.0000
vn 0.9224 0.3862 0.0000
vn 0.9224 0.3862 0.0000
vn 0.7071 -0.7071 -0.0000
vn 0.9224 -0.3862 -0.0000
vn 0.9224 -0.3862 -0.0000
vn 0.9224 -0.3862 -0.0000
vn 0.7071 -0.7071 -0.0000
vn 0.7071 -0.7071 -0.0000
# 204 vertex normals

vt 0.0928 0.8221 0.0000
vt 0.0706 0.7892 0.0000
vt 0.0625 0.7490 0.0000
vt 0.0706 0.7088 0.0000
vt 0.0928 0.6759 0.0000
vt 0.1257 0.6537 0.0000
vt 0.1659 0.6456 0.0000
vt 0.3341 0.6456 0.0000
vt 0.3743 0.6537 0.0000
vt 0.4072 0.6759 0.0000
vt 0.4294 0.7088 0.0000
vt 0.4375 0.7490 0.0000
vt 0.4294 0.7892 0.0000
vt 0.4072 0.8221 0.0000
vt 0.3743 0.8443 0.0000
vt 0.3341 0.8524 0.0000
vt 0.1659 0.8524 0.0000
vt 0.1257 0.8443 0.0000
vt 0.9661 0.5354 0.0000
vt 0.9323 0.5354 0.0000
vt 0.9323 0.5104 0.0000
vt 0.9661 0.5104 0.0000
vt -0.0000 0.5354 0.0000
vt -0.0000 0.5104 0.0000
vt 0.4842 0.5354 0.0000
vt 0.4511 0.5354 0.0000
vt 0.4511 0.5104 0.0000
vt 0.4842 0.5104 0.0000
vt 0.5181 0.5354 0.0000
vt 0.5181 0.5104 0.0000
vt 0.5519 0.5354 0.0000
vt 0.5519 0.5104 0.0000
vt 0.5846 0.5354 0.0000
vt 0.5846 0.5104 0.0000
vt 0.4170 0.5354 0.0000
vt 0.4170 0.5104 0.0000
vt 0.6177 0.5354 0.0000
vt 0.6177 0.5104 0.0000
vt 0.6526 0.5354 0.0000
vt 0.6526 0.5104 0.0000
vt 0.3800 0.5354 0.0000
vt 0.3800 0.5104 0.0000
vt 0.1042 0.5354 0.0000
vt 0.1042 0.5104 0.0000
vt 0.8316 0.5354 0.0000
vt 0.8316 0.5104 0.0000
vt 0.8665 0.5354 0.0000
vt 0.8665 0.5104 0.0000
vt 0.8996 0.5354 0.0000
vt 0.8996 0.5104 0.0000
vt 0.0672 0.5354 0.0000
vt 0.0672 0.5104 0.0000
vt 0.0331 0.5354 0.0000
vt 0.0331 0.5104 0.0000
vt 1.0000 0.5354 0.0000
vt 1.0000 0.5104 0.0000
vt 0.5625 0.7490 0.0000
vt 0.5706 0.7892 0.0000
vt 0.5928 0.8221 0.0000
vt 0.6257 0.8443 0.0000
vt 0.6659 0.8524 0.0000
vt 0.8341 0.8524 0.0000
vt 0.8743 0.8443 0.0000
vt 0.9072 0.8221 0.0000
vt 0.9294 0.7892 0.0000
vt 0.9375 0.7490 0.0000
vt 0.9294 0.7088 0.0000
vt 0.9072 0.6759 0.0000
vt 0.8743 0.6537 0.0000
vt 0.8341 0.6456 0.0000
vt 0.6659 0.6456 0.0000
vt 0.6257 0.6537 0.0000
vt 0.5928 0.6759 0.0000
vt 0.5706 0.7088 0.0000
# 74 texture coords

g CapsuleH
usemtl wire_224086086
f 112/67/181 113/68/182 114/69/183 
f 112/67/184 114/69/185 115/70/186 
f 112/67/187 115/70/188 116/71/189 
f 104/77/190 105/78/191 106/79/192 
f 103/76/193 104/77/194 106/79/195 
f 103/76/196 106/79/197 107/80/198 
f 103/76/199 107/80/200 108/81/201 
f 103/76/202 108/81/203 109/82/204 
f 102/75/205 103/76/206 109/82/207 
f 65/74/208 102/75/209 109/82/210 
f 82/73/211 65/74/212 109/82/213 
f 82/73/214 109/82/215 110/83/216 
f 82/73/217 110/83/218 111/84/219 
f 117/72/220 82/73/221 111/84/222 
f 116/71/223 117/72/224 111/84/225 
f 112/67/226 116/71/227 111/84/228 
f 96/123/229 95/124/230 94/125/231 
f 88/131/232 87/132/233 86/133/234 
f 88/131/235 86/133/236 85/134/237 
f 89/130/238 88/131/239 85/134/240 
f 90/129/241 89/130/242 85/134/243 
f 91/128/244 90/129/245 85/134/246 
f 91/128/247 85/134/248 84/135/249 
f 91/128/250 84/135/251 83/136/252 
f 91/128/253 83/136/254 100/137/255 
f 92/127/256 91/128/257 100/137/258 
f 93/126/259 92/127/260 100/137/261 
f 93/126/262 100/137/263 99/138/264 
f 93/126/265 99/138/266 98/139/267 
f 94/125/268 93/126/269 98/139/270 
f 94/125/271 98/139/272 97/140/273 
f 96/123/274 94/125/275 97/140/276 
f 122/87/277 123/88/278 69/85/279 
f 69/85/280 68/86/281 122/87/282 
f 123/88/283 124/122/284 70/121/285 
f 70/121/286 69/85/287 123/88/288 
f 130/93/289 131/94/290 77/91/291 
f 77/91/292 76/92/293 130/93/294 
f 131/94/295 132/96/296 78/95/297 
f 78/95/298 77/91/299 131/94/300 
f 132/96/301 133/98/302 79/97/303 
f 79/97/304 78/95/305 132/96/306 
f 133/98/307 134/100/308 80/99/309 
f 80/99/310 79/97/311 133/98/312 
f 129/102/313 130/93/314 76/92/315 
f 76/92/316 75/101/317 129/102/318 
f 134/100/319 135/104/320 81/103/321 
f 81/103/322 80/99/323 134/100/324 
f 135/104/325 136/106/326 118/105/327 
f 118/105/328 81/103/329 135/104/330 
f 128/108/331 129/102/332 75/101/333 
f 75/101/334 74/107/335 128/108/336 
f 127/110/337 128/108/338 74/107/339 
f 74/107/340 73/109/341 127/110/342 
f 136/106/343 119/112/344 101/111/345 
f 101/111/346 118/105/347 136/106/348 
f 119/112/349 120/114/350 66/113/351 
f 66/113/352 101/111/353 119/112/354 
f 120/114/355 121/116/356 67/115/357 
f 67/115/358 66/113/359 120/114/360 
f 126/118/361 127/110/362 73/109/363 
f 73/109/364 72/117/365 126/118/366 
f 125/120/367 126/118/368 72/117/369 
f 72/117/370 71/119/371 125/120/372 
f 124/90/373 125/120/374 71/119/375 
f 71/119/376 70/89/377 124/90/378 
f 121/116/379 122/87/380 68/86/381 
f 68/86/382 67/115/383 121/116/384 
# 68 faces

