# 3ds Max Wavefront OBJ Exporter v0.97b - (c)2007 guruware
# File Created: 11.03.2017 12:49:22

mtllib CapsuleH_MSH.mtl

#
# object CapsuleH
#

v  0.2241 -0.2759 0.0312
v  0.3315 -0.2542 0.0312
v  0.4192 -0.1950 0.0312
v  0.4783 -0.1073 0.0312
v  0.5000 0.0000 0.0313
v  0.4783 0.1073 0.0313
v  0.4192 0.1950 0.0313
v  0.3315 0.2542 0.0313
v  0.2241 0.2759 0.0313
v  -0.2241 0.2759 0.0313
v  -0.3315 0.2542 0.0313
v  -0.4192 0.1950 0.0313
v  -0.4783 0.1073 0.0313
v  -0.5000 0.0000 0.0313
v  -0.4783 -0.1073 0.0312
v  -0.4192 -0.1950 0.0312
v  -0.3315 -0.2542 0.0312
v  -0.2241 -0.2759 0.0312
v  0.2241 -0.2759 -0.0313
v  0.3315 -0.2542 -0.0313
v  0.4192 -0.1950 -0.0313
v  0.4783 -0.1073 -0.0313
v  0.5000 0.0000 -0.0313
v  0.4783 0.1073 -0.0312
v  0.4192 0.1950 -0.0312
v  0.3315 0.2542 -0.0312
v  0.2241 0.2759 -0.0312
v  -0.2241 0.2759 -0.0312
v  -0.3315 0.2542 -0.0312
v  -0.4192 0.1950 -0.0312
v  -0.4783 0.1073 -0.0312
v  -0.5000 0.0000 -0.0313
v  -0.4783 -0.1073 -0.0313
v  -0.4192 -0.1950 -0.0313
v  -0.3315 -0.2542 -0.0313
v  -0.2241 -0.2759 -0.0313
v  0.2241 -0.2759 0.0312
v  0.3315 -0.2542 0.0312
v  0.4192 -0.1950 0.0312
v  0.4783 -0.1073 0.0312
v  0.5000 0.0000 0.0313
v  0.4783 0.1073 0.0313
v  0.4192 0.1950 0.0313
v  0.3315 0.2542 0.0313
v  0.2241 0.2759 0.0313
v  -0.2241 0.2759 0.0313
v  -0.3315 0.2542 0.0313
v  -0.4192 0.1950 0.0313
v  -0.4783 0.1073 0.0313
v  -0.5000 0.0000 0.0313
v  -0.4783 -0.1073 0.0312
v  -0.4192 -0.1950 0.0312
v  -0.3315 -0.2542 0.0312
v  -0.2241 -0.2759 0.0312
v  0.2241 -0.2759 -0.0313
v  0.3315 -0.2542 -0.0313
v  0.4192 -0.1950 -0.0313
v  0.4783 -0.1073 -0.0313
v  0.5000 0.0000 -0.0313
v  0.4783 0.1073 -0.0312
v  0.4192 0.1950 -0.0312
v  0.3315 0.2542 -0.0312
v  0.2241 0.2759 -0.0312
v  -0.2241 0.2759 -0.0312
v  -0.3315 0.2542 -0.0312
v  -0.4192 0.1950 -0.0312
v  -0.4783 0.1073 -0.0312
v  -0.5000 0.0000 -0.0313
v  -0.4783 -0.1073 -0.0313
v  -0.4192 -0.1950 -0.0313
v  -0.3315 -0.2542 -0.0313
v  -0.2241 -0.2759 -0.0313
# 72 vertices

vn 0.0000 -0.0000 1.0000
vn 0.0000 -0.0000 1.0000
vn 0.0000 -0.0000 1.0000
vn 0.0000 -0.0000 1.0000
vn 0.0000 -0.0000 1.0000
vn 0.0000 -0.0000 1.0000
vn 0.0000 -0.0000 1.0000
vn 0.0000 -0.0000 1.0000
vn 0.0000 -0.0000 1.0000
vn 0.0000 -0.0000 1.0000
vn 0.0000 -0.0000 1.0000
vn 0.0000 -0.0000 1.0000
vn 0.0000 -0.0000 1.0000
vn 0.0000 -0.0000 1.0000
vn 0.0000 -0.0000 1.0000
vn 0.0000 -0.0000 1.0000
vn 0.0000 -0.0000 1.0000
vn 0.0000 -0.0000 1.0000
vn 0.0000 -0.0000 1.0000
vn 0.0000 -0.0000 1.0000
vn 0.0000 -0.0000 1.0000
vn 0.0000 -0.0000 1.0000
vn 0.0000 -0.0000 1.0000
vn -0.0000 -0.0000 1.0000
vn 0.0000 -0.0000 1.0000
vn 0.0000 -0.0000 1.0000
vn -0.0000 -0.0000 1.0000
vn 0.0000 -0.0000 1.0000
vn 0.0000 -0.0000 1.0000
vn -0.0000 -0.0000 1.0000
vn 0.0000 -0.0000 1.0000
vn 0.0000 -0.0000 1.0000
vn -0.0000 -0.0000 1.0000
vn 0.0000 -0.0000 1.0000
vn -0.0000 -0.0000 1.0000
vn 0.0000 -0.0000 1.0000
vn 0.0000 -0.0000 1.0000
vn 0.0000 -0.0000 1.0000
vn 0.0000 -0.0000 1.0000
vn 0.0000 -0.0000 1.0000
vn 0.0000 -0.0000 1.0000
vn 0.0000 -0.0000 1.0000
vn 0.0000 -0.0000 1.0000
vn 0.0000 -0.0000 1.0000
vn 0.0000 -0.0000 1.0000
vn 0.0000 -0.0000 1.0000
vn 0.0000 -0.0000 1.0000
vn 0.0000 -0.0000 1.0000
vn 0.0000 0.0000 -1.0000
vn 0.0000 0.0000 -1.0000
vn 0.0000 0.0000 -1.0000
vn 0.0000 0.0000 -1.0000
vn 0.0000 0.0000 -1.0000
vn 0.0000 0.0000 -1.0000
vn 0.0000 0.0000 -1.0000
vn 0.0000 0.0000 -1.0000
vn 0.0000 0.0000 -1.0000
vn 0.0000 0.0000 -1.0000
vn 0.0000 0.0000 -1.0000
vn 0.0000 0.0000 -1.0000
vn 0.0000 0.0000 -1.0000
vn 0.0000 0.0000 -1.0000
vn 0.0000 0.0000 -1.0000
vn 0.0000 0.0000 -1.0000
vn 0.0000 0.0000 -1.0000
vn 0.0000 0.0000 -1.0000
vn 0.0000 0.0000 -1.0000
vn 0.0000 0.0000 -1.0000
vn 0.0000 0.0000 -1.0000
vn 0.0000 0.0000 -1.0000
vn 0.0000 0.0000 -1.0000
vn 0.0000 0.0000 -1.0000
vn 0.0000 0.0000 -1.0000
vn 0.0000 0.0000 -1.0000
vn 0.0000 0.0000 -1.0000
vn 0.0000 0.0000 -1.0000
vn 0.0000 0.0000 -1.0000
vn 0.0000 0.0000 -1.0000
vn 0.0000 0.0000 -1.0000
vn 0.0000 0.0000 -1.0000
vn 0.0000 0.0000 -1.0000
vn 0.0000 0.0000 -1.0000
vn 0.0000 0.0000 -1.0000
vn 0.0000 0.0000 -1.0000
vn 0.0000 0.0000 -1.0000
vn 0.0000 0.0000 -1.0000
vn 0.0000 0.0000 -1.0000
vn 0.0000 0.0000 -1.0000
vn 0.0000 0.0000 -1.0000
vn 0.0000 0.0000 -1.0000
vn 0.0000 0.0000 -1.0000
vn 0.0000 0.0000 -1.0000
vn 0.0000 0.0000 -1.0000
vn 0.0000 0.0000 -1.0000
vn 0.0000 0.0000 -1.0000
vn 0.0000 0.0000 -1.0000
vn 0.9224 -0.3862 -0.0000
vn 1.0000 0.0000 0.0000
vn 1.0000 0.0000 0.0000
vn 1.0000 0.0000 0.0000
vn 0.9224 -0.3862 -0.0000
vn 0.9224 -0.3862 -0.0000
vn 1.0000 0.0000 0.0000
vn 0.9224 0.3862 0.0000
vn 0.9224 0.3862 0.0000
vn 0.9224 0.3862 0.0000
vn 1.0000 0.0000 0.0000
vn 1.0000 0.0000 0.0000
vn -0.7071 0.7071 0.0000
vn -0.9224 0.3862 0.0000
vn -0.9224 0.3862 0.0000
vn -0.9224 0.3862 0.0000
vn -0.7071 0.7071 0.0000
vn -0.7071 0.7071 0.0000
vn -0.9224 0.3862 0.0000
vn -1.0000 0.0000 0.0000
vn -1.0000 0.0000 0.0000
vn -1.0000 0.0000 0.0000
vn -0.9224 0.3862 0.0000
vn -0.9224 0.3862 0.0000
vn -1.0000 0.0000 0.0000
vn -0.9224 -0.3862 -0.0000
vn -0.9224 -0.3862 -0.0000
vn -0.9224 -0.3862 -0.0000
vn -1.0000 0.0000 0.0000
vn -1.0000 0.0000 0.0000
vn -0.9224 -0.3862 -0.0000
vn -0.7071 -0.7071 -0.0000
vn -0.7071 -0.7071 -0.0000
vn -0.7071 -0.7071 -0.0000
vn -0.9224 -0.3862 -0.0000
vn -0.9224 -0.3862 -0.0000
vn -0.3862 0.9224 0.0000
vn -0.7071 0.7071 0.0000
vn -0.7071 0.7071 0.0000
vn -0.7071 0.7071 0.0000
vn -0.3862 0.9224 0.0000
vn -0.3862 0.9224 0.0000
vn -0.7071 -0.7071 -0.0000
vn -0.3862 -0.9224 -0.0000
vn -0.3862 -0.9224 -0.0000
vn -0.3862 -0.9224 -0.0000
vn -0.7071 -0.7071 -0.0000
vn -0.7071 -0.7071 -0.0000
vn -0.3862 -0.9224 -0.0000
vn -0.0996 -0.9950 -0.0000
vn -0.0996 -0.9950 -0.0000
vn -0.0996 -0.9950 -0.0000
vn -0.3862 -0.9224 -0.0000
vn -0.3862 -0.9224 -0.0000
vn -0.0996 0.9950 0.0000
vn -0.3862 0.9224 0.0000
vn -0.3862 0.9224 0.0000
vn -0.3862 0.9224 0.0000
vn -0.0996 0.9950 0.0000
vn -0.0996 0.9950 0.0000
vn 0.0996 0.9950 0.0000
vn -0.0996 0.9950 0.0000
vn -0.0996 0.9950 0.0000
vn -0.0996 0.9950 0.0000
vn 0.0996 0.9950 0.0000
vn 0.0996 0.9950 0.0000
vn -0.0996 -0.9950 -0.0000
vn 0.0996 -0.9950 -0.0000
vn 0.0996 -0.9950 -0.0000
vn 0.0996 -0.9950 -0.0000
vn -0.0996 -0.9950 -0.0000
vn -0.0996 -0.9950 -0.0000
vn 0.0996 -0.9950 -0.0000
vn 0.3862 -0.9224 -0.0000
vn 0.3862 -0.9224 -0.0000
vn 0.3862 -0.9224 -0.0000
vn 0.0996 -0.9950 -0.0000
vn 0.0996 -0.9950 -0.0000
vn 0.3862 -0.9224 -0.0000
vn 0.7071 -0.7071 -0.0000
vn 0.7071 -0.7071 -0.0000
vn 0.7071 -0.7071 -0.0000
vn 0.3862 -0.9224 -0.0000
vn 0.3862 -0.9224 -0.0000
vn 0.3862 0.9224 0.0000
vn 0.0996 0.9950 0.0000
vn 0.0996 0.9950 0.0000
vn 0.0996 0.9950 0.0000
vn 0.3862 0.9224 0.0000
vn 0.3862 0.9224 0.0000
vn 0.7071 0.7071 0.0000
vn 0.3862 0.9224 0.0000
vn 0.3862 0.9224 0.0000
vn 0.3862 0.9224 0.0000
vn 0.7071 0.7071 0.0000
vn 0.7071 0.7071 0.0000
vn 0.9224 0.3862 0.0000
vn 0.7071 0.7071 0.0000
vn 0.7071 0.7071 0.0000
vn 0.7071 0.7071 0.0000
vn 0.9224 0.3862 0.0000
vn 0.9224 0.3862 0.0000
vn 0.7071 -0.7071 -0.0000
vn 0.9224 -0.3862 -0.0000
vn 0.9224 -0.3862 -0.0000
vn 0.9224 -0.3862 -0.0000
vn 0.7071 -0.7071 -0.0000
vn 0.7071 -0.7071 -0.0000
# 204 vertex normals

vt 0.0928 0.8378 0.0000
vt 0.0706 0.8049 0.0000
vt 0.0625 0.7646 0.0000
vt 0.0706 0.7244 0.0000
vt 0.0928 0.6915 0.0000
vt 0.1257 0.6693 0.0000
vt 0.1659 0.6612 0.0000
vt 0.3341 0.6612 0.0000
vt 0.3743 0.6693 0.0000
vt 0.4072 0.6915 0.0000
vt 0.4294 0.7244 0.0000
vt 0.4375 0.7646 0.0000
vt 0.4294 0.8049 0.0000
vt 0.4072 0.8378 0.0000
vt 0.3743 0.8599 0.0000
vt 0.3341 0.8681 0.0000
vt 0.1659 0.8681 0.0000
vt 0.1257 0.8599 0.0000
vt 0.9240 0.5354 0.0000
vt 0.8902 0.5354 0.0000
vt 0.8902 0.5104 0.0000
vt 0.9240 0.5104 0.0000
vt -0.0421 0.5354 0.0000
vt -0.0421 0.5104 0.0000
vt 0.4421 0.5354 0.0000
vt 0.4090 0.5354 0.0000
vt 0.4090 0.5104 0.0000
vt 0.4421 0.5104 0.0000
vt 0.4760 0.5354 0.0000
vt 0.4760 0.5104 0.0000
vt 0.5098 0.5354 0.0000
vt 0.5098 0.5104 0.0000
vt 0.5425 0.5354 0.0000
vt 0.5425 0.5104 0.0000
vt 0.3749 0.5354 0.0000
vt 0.3749 0.5104 0.0000
vt 0.5756 0.5354 0.0000
vt 0.5756 0.5104 0.0000
vt 0.6105 0.5354 0.0000
vt 0.6105 0.5104 0.0000
vt 0.3379 0.5354 0.0000
vt 0.3379 0.5104 0.0000
vt 0.0621 0.5354 0.0000
vt 0.0621 0.5104 0.0000
vt 0.7895 0.5354 0.0000
vt 0.7895 0.5104 0.0000
vt 0.8244 0.5354 0.0000
vt 0.8244 0.5104 0.0000
vt 0.8575 0.5354 0.0000
vt 0.8575 0.5104 0.0000
vt 0.0251 0.5354 0.0000
vt 0.0251 0.5104 0.0000
vt -0.0090 0.5354 0.0000
vt -0.0090 0.5104 0.0000
vt 0.9579 0.5354 0.0000
vt 0.9579 0.5104 0.0000
vt 0.5625 0.7646 0.0000
vt 0.5706 0.8049 0.0000
vt 0.5928 0.8378 0.0000
vt 0.6257 0.8599 0.0000
vt 0.6659 0.8681 0.0000
vt 0.8341 0.8681 0.0000
vt 0.8743 0.8599 0.0000
vt 0.9072 0.8378 0.0000
vt 0.9294 0.8049 0.0000
vt 0.9375 0.7646 0.0000
vt 0.9294 0.7244 0.0000
vt 0.9072 0.6915 0.0000
vt 0.8743 0.6693 0.0000
vt 0.8341 0.6612 0.0000
vt 0.6659 0.6612 0.0000
vt 0.6257 0.6693 0.0000
vt 0.5928 0.6915 0.0000
vt 0.5706 0.7244 0.0000
# 74 texture coords

g CapsuleH
usemtl wire_224086086
f 48/1/1 49/2/2 50/3/3 
f 48/1/4 50/3/5 51/4/6 
f 48/1/7 51/4/8 52/5/9 
f 40/11/10 41/12/11 42/13/12 
f 39/10/13 40/11/14 42/13/15 
f 39/10/16 42/13/17 43/14/18 
f 39/10/19 43/14/20 44/15/21 
f 39/10/22 44/15/23 45/16/24 
f 38/9/25 39/10/26 45/16/27 
f 1/8/28 38/9/29 45/16/30 
f 18/7/31 1/8/32 45/16/33 
f 18/7/34 45/16/35 46/17/36 
f 18/7/37 46/17/38 47/18/39 
f 53/6/40 18/7/41 47/18/42 
f 52/5/43 53/6/44 47/18/45 
f 48/1/46 52/5/47 47/18/48 
f 32/57/49 31/58/50 30/59/51 
f 24/65/52 23/66/53 22/67/54 
f 24/65/55 22/67/56 21/68/57 
f 25/64/58 24/65/59 21/68/60 
f 26/63/61 25/64/62 21/68/63 
f 27/62/64 26/63/65 21/68/66 
f 27/62/67 21/68/68 20/69/69 
f 27/62/70 20/69/71 19/70/72 
f 27/62/73 19/70/74 36/71/75 
f 28/61/76 27/62/77 36/71/78 
f 29/60/79 28/61/80 36/71/81 
f 29/60/82 36/71/83 35/72/84 
f 29/60/85 35/72/86 34/73/87 
f 30/59/88 29/60/89 34/73/90 
f 30/59/91 34/73/92 33/74/93 
f 32/57/94 30/59/95 33/74/96 
f 58/21/97 59/22/98 5/19/99 
f 5/19/100 4/20/101 58/21/102 
f 59/22/103 60/56/104 6/55/105 
f 6/55/106 5/19/107 59/22/108 
f 66/27/109 67/28/110 13/25/111 
f 13/25/112 12/26/113 66/27/114 
f 67/28/115 68/30/116 14/29/117 
f 14/29/118 13/25/119 67/28/120 
f 68/30/121 69/32/122 15/31/123 
f 15/31/124 14/29/125 68/30/126 
f 69/32/127 70/34/128 16/33/129 
f 16/33/130 15/31/131 69/32/132 
f 65/36/133 66/27/134 12/26/135 
f 12/26/136 11/35/137 65/36/138 
f 70/34/139 71/38/140 17/37/141 
f 17/37/142 16/33/143 70/34/144 
f 71/38/145 72/40/146 54/39/147 
f 54/39/148 17/37/149 71/38/150 
f 64/42/151 65/36/152 11/35/153 
f 11/35/154 10/41/155 64/42/156 
f 63/44/157 64/42/158 10/41/159 
f 10/41/160 9/43/161 63/44/162 
f 72/40/163 55/46/164 37/45/165 
f 37/45/166 54/39/167 72/40/168 
f 55/46/169 56/48/170 2/47/171 
f 2/47/172 37/45/173 55/46/174 
f 56/48/175 57/50/176 3/49/177 
f 3/49/178 2/47/179 56/48/180 
f 62/52/181 63/44/182 9/43/183 
f 9/43/184 8/51/185 62/52/186 
f 61/54/187 62/52/188 8/51/189 
f 8/51/190 7/53/191 61/54/192 
f 60/24/193 61/54/194 7/53/195 
f 7/53/196 6/23/197 60/24/198 
f 57/50/199 58/21/200 4/20/201 
f 4/20/202 3/49/203 57/50/204 
# 68 faces

#
# object CapsuleH_BASE
#

v  0.3750 -0.0313 -0.0000
v  0.3465 -0.0313 -0.1435
v  0.2652 -0.0313 -0.2652
v  0.1435 -0.0313 -0.3465
v  -0.0000 -0.0313 -0.3750
v  -0.1435 -0.0313 -0.3465
v  -0.2652 -0.0313 -0.2652
v  -0.3465 -0.0313 -0.1435
v  -0.3750 -0.0313 -0.0000
v  -0.3465 -0.0313 0.1435
v  -0.2652 -0.0313 0.2652
v  -0.1435 -0.0313 0.3465
v  0.0000 -0.0313 0.3750
v  0.1435 -0.0313 0.3465
v  0.2652 -0.0313 0.2652
v  0.3465 -0.0313 0.1435
v  0.3750 0.0313 -0.0000
v  0.3465 0.0313 -0.1435
v  0.2652 0.0313 -0.2652
v  0.1435 0.0313 -0.3465
v  -0.0000 0.0313 -0.3750
v  -0.1435 0.0313 -0.3465
v  -0.2652 0.0313 -0.2652
v  -0.3465 0.0313 -0.1435
v  -0.3750 0.0313 -0.0000
v  -0.3465 0.0313 0.1435
v  -0.2652 0.0313 0.2652
v  -0.1435 0.0313 0.3465
v  0.0000 0.0313 0.3750
v  0.1435 0.0313 0.3465
v  0.2652 0.0313 0.2652
v  0.3465 0.0313 0.1435
v  0.3750 -0.0313 -0.0000
v  0.3465 -0.0313 -0.1435
v  0.2652 -0.0313 -0.2652
v  0.1435 -0.0313 -0.3465
v  -0.0000 -0.0313 -0.3750
v  -0.1435 -0.0313 -0.3465
v  -0.2652 -0.0313 -0.2652
v  -0.3465 -0.0313 -0.1435
v  -0.3750 -0.0313 -0.0000
v  -0.3465 -0.0313 0.1435
v  -0.2652 -0.0313 0.2652
v  -0.1435 -0.0313 0.3465
v  0.0000 -0.0313 0.3750
v  0.1435 -0.0313 0.3465
v  0.2652 -0.0313 0.2652
v  0.3465 -0.0313 0.1435
v  0.3750 0.0313 -0.0000
v  0.3465 0.0313 -0.1435
v  0.2652 0.0313 -0.2652
v  0.1435 0.0313 -0.3465
v  -0.0000 0.0313 -0.3750
v  -0.1435 0.0313 -0.3465
v  -0.2652 0.0313 -0.2652
v  -0.3465 0.0313 -0.1435
v  -0.3750 0.0313 -0.0000
v  -0.3465 0.0313 0.1435
v  -0.2652 0.0313 0.2652
v  -0.1435 0.0313 0.3465
v  0.0000 0.0313 0.3750
v  0.1435 0.0313 0.3465
v  0.2652 0.0313 0.2652
v  0.3465 0.0313 0.1435
# 64 vertices

vn 1.0000 0.0000 -0.0000
vn 0.9239 0.0000 -0.3827
vn 0.9239 0.0000 -0.3827
vn 0.9239 0.0000 -0.3827
vn 1.0000 0.0000 -0.0000
vn 1.0000 0.0000 -0.0000
vn 0.9239 0.0000 -0.3827
vn 0.7071 0.0000 -0.7071
vn 0.7071 0.0000 -0.7071
vn 0.7071 0.0000 -0.7071
vn 0.9239 0.0000 -0.3827
vn 0.9239 0.0000 -0.3827
vn 0.7071 0.0000 -0.7071
vn 0.3827 0.0000 -0.9239
vn 0.3827 0.0000 -0.9239
vn 0.3827 0.0000 -0.9239
vn 0.7071 0.0000 -0.7071
vn 0.7071 0.0000 -0.7071
vn 0.3827 0.0000 -0.9239
vn 0.0000 0.0000 -1.0000
vn 0.0000 0.0000 -1.0000
vn 0.0000 0.0000 -1.0000
vn 0.3827 0.0000 -0.9239
vn 0.3827 0.0000 -0.9239
vn 0.0000 0.0000 -1.0000
vn -0.3827 0.0000 -0.9239
vn -0.3827 0.0000 -0.9239
vn -0.3827 0.0000 -0.9239
vn 0.0000 0.0000 -1.0000
vn 0.0000 0.0000 -1.0000
vn -0.3827 0.0000 -0.9239
vn -0.7071 0.0000 -0.7071
vn -0.7071 0.0000 -0.7071
vn -0.7071 0.0000 -0.7071
vn -0.3827 0.0000 -0.9239
vn -0.3827 0.0000 -0.9239
vn -0.7071 0.0000 -0.7071
vn -0.9239 0.0000 -0.3827
vn -0.9239 0.0000 -0.3827
vn -0.9239 0.0000 -0.3827
vn -0.7071 0.0000 -0.7071
vn -0.7071 0.0000 -0.7071
vn -0.9239 0.0000 -0.3827
vn -1.0000 0.0000 -0.0000
vn -1.0000 0.0000 -0.0000
vn -1.0000 0.0000 -0.0000
vn -0.9239 0.0000 -0.3827
vn -0.9239 0.0000 -0.3827
vn -1.0000 0.0000 -0.0000
vn -0.9239 0.0000 0.3827
vn -0.9239 0.0000 0.3827
vn -0.9239 0.0000 0.3827
vn -1.0000 0.0000 -0.0000
vn -1.0000 0.0000 -0.0000
vn -0.9239 0.0000 0.3827
vn -0.7071 0.0000 0.7071
vn -0.7071 0.0000 0.7071
vn -0.7071 0.0000 0.7071
vn -0.9239 0.0000 0.3827
vn -0.9239 0.0000 0.3827
vn -0.7071 0.0000 0.7071
vn -0.3827 0.0000 0.9239
vn -0.3827 0.0000 0.9239
vn -0.3827 0.0000 0.9239
vn -0.7071 0.0000 0.7071
vn -0.7071 0.0000 0.7071
vn -0.3827 0.0000 0.9239
vn 0.0000 0.0000 1.0000
vn 0.0000 0.0000 1.0000
vn 0.0000 0.0000 1.0000
vn -0.3827 0.0000 0.9239
vn -0.3827 0.0000 0.9239
vn 0.0000 0.0000 1.0000
vn 0.3827 0.0000 0.9239
vn 0.3827 0.0000 0.9239
vn 0.3827 0.0000 0.9239
vn 0.0000 0.0000 1.0000
vn 0.0000 0.0000 1.0000
vn 0.3827 0.0000 0.9239
vn 0.7071 0.0000 0.7071
vn 0.7071 0.0000 0.7071
vn 0.7071 0.0000 0.7071
vn 0.3827 0.0000 0.9239
vn 0.3827 0.0000 0.9239
vn 0.7071 0.0000 0.7071
vn 0.9239 0.0000 0.3827
vn 0.9239 0.0000 0.3827
vn 0.9239 0.0000 0.3827
vn 0.7071 0.0000 0.7071
vn 0.7071 0.0000 0.7071
vn 0.9239 0.0000 0.3827
vn 1.0000 0.0000 -0.0000
vn 1.0000 0.0000 -0.0000
vn 1.0000 0.0000 -0.0000
vn 0.9239 0.0000 0.3827
vn 0.9239 0.0000 0.3827
vn 0.0000 -1.0000 -0.0000
vn 0.0000 -1.0000 -0.0000
vn 0.0000 -1.0000 -0.0000
vn 0.0000 -1.0000 -0.0000
vn 0.0000 -1.0000 -0.0000
vn 0.0000 -1.0000 -0.0000
vn 0.0000 -1.0000 -0.0000
vn 0.0000 -1.0000 -0.0000
vn 0.0000 -1.0000 -0.0000
vn 0.0000 -1.0000 -0.0000
vn 0.0000 -1.0000 -0.0000
vn 0.0000 -1.0000 -0.0000
vn 0.0000 -1.0000 -0.0000
vn 0.0000 -1.0000 -0.0000
vn 0.0000 -1.0000 -0.0000
vn 0.0000 -1.0000 -0.0000
vn 0.0000 -1.0000 -0.0000
vn 0.0000 -1.0000 -0.0000
vn 0.0000 -1.0000 -0.0000
vn 0.0000 -1.0000 -0.0000
vn 0.0000 -1.0000 -0.0000
vn 0.0000 -1.0000 -0.0000
vn 0.0000 -1.0000 -0.0000
vn 0.0000 -1.0000 -0.0000
vn 0.0000 -1.0000 -0.0000
vn 0.0000 -1.0000 -0.0000
vn 0.0000 -1.0000 -0.0000
vn 0.0000 -1.0000 -0.0000
vn 0.0000 -1.0000 -0.0000
vn 0.0000 -1.0000 -0.0000
vn 0.0000 -1.0000 -0.0000
vn 0.0000 -1.0000 -0.0000
vn 0.0000 -1.0000 -0.0000
vn 0.0000 -1.0000 -0.0000
vn 0.0000 -1.0000 -0.0000
vn 0.0000 -1.0000 -0.0000
vn 0.0000 -1.0000 -0.0000
vn 0.0000 -1.0000 -0.0000
vn 0.0000 -1.0000 -0.0000
vn 0.0000 -1.0000 -0.0000
vn 0.0000 -1.0000 -0.0000
vn 0.0000 -1.0000 -0.0000
vn 0.0000 1.0000 -0.0000
vn 0.0000 1.0000 -0.0000
vn 0.0000 1.0000 -0.0000
vn 0.0000 1.0000 -0.0000
vn 0.0000 1.0000 -0.0000
vn 0.0000 1.0000 -0.0000
vn 0.0000 1.0000 -0.0000
vn 0.0000 1.0000 -0.0000
vn 0.0000 1.0000 -0.0000
vn 0.0000 1.0000 -0.0000
vn 0.0000 1.0000 -0.0000
vn 0.0000 1.0000 -0.0000
vn 0.0000 1.0000 -0.0000
vn 0.0000 1.0000 -0.0000
vn 0.0000 1.0000 -0.0000
vn 0.0000 1.0000 -0.0000
vn 0.0000 1.0000 -0.0000
vn 0.0000 1.0000 -0.0000
vn 0.0000 1.0000 -0.0000
vn 0.0000 1.0000 -0.0000
vn 0.0000 1.0000 -0.0000
vn 0.0000 1.0000 -0.0000
vn 0.0000 1.0000 -0.0000
vn 0.0000 1.0000 -0.0000
vn 0.0000 1.0000 -0.0000
vn 0.0000 1.0000 -0.0000
vn 0.0000 1.0000 -0.0000
vn 0.0000 1.0000 -0.0000
vn 0.0000 1.0000 -0.0000
vn 0.0000 1.0000 -0.0000
vn 0.0000 1.0000 -0.0000
vn 0.0000 1.0000 -0.0000
vn 0.0000 1.0000 -0.0000
vn 0.0000 1.0000 -0.0000
vn 0.0000 1.0000 -0.0000
vn 0.0000 1.0000 -0.0000
vn 0.0000 1.0000 -0.0000
vn 0.0000 1.0000 -0.0000
vn 0.0000 1.0000 -0.0000
vn 0.0000 1.0000 -0.0000
vn 0.0000 1.0000 -0.0000
vn 0.0000 1.0000 -0.0000
# 180 vertex normals

vt 0.9375 0.2500 0.0000
vt 0.9232 0.3218 0.0000
vt 0.7500 0.0180 0.0000
vt 0.8125 0.0180 0.0000
vt 0.8826 0.3826 0.0000
vt 0.8125 0.0445 0.0000
vt 0.8218 0.4232 0.0000
vt 0.7500 0.0445 0.0000
vt 0.7500 0.4375 0.0000
vt 0.8750 0.0180 0.0000
vt 0.6782 0.4232 0.0000
vt 0.8750 0.0445 0.0000
vt 0.6174 0.3826 0.0000
vt 0.9375 0.0180 0.0000
vt 0.5768 0.3218 0.0000
vt 0.9375 0.0445 0.0000
vt 0.5625 0.2500 0.0000
vt 0.0000 0.0180 0.0000
vt 0.5768 0.1782 0.0000
vt 0.0000 0.0445 0.0000
vt 0.6174 0.1174 0.0000
vt 0.0625 0.0180 0.0000
vt 0.6782 0.0768 0.0000
vt 0.0625 0.0445 0.0000
vt 0.7500 0.0625 0.0000
vt 0.1250 0.0180 0.0000
vt 0.8218 0.0768 0.0000
vt 0.1250 0.0445 0.0000
vt 0.8826 0.1174 0.0000
vt 0.1875 0.0180 0.0000
vt 0.9232 0.1782 0.0000
vt 0.1875 0.0445 0.0000
vt 0.4232 0.3218 0.0000
vt 0.4375 0.2500 0.0000
vt 0.3826 0.3826 0.0000
vt 0.3218 0.4232 0.0000
vt 0.2500 0.4375 0.0000
vt 0.1782 0.4232 0.0000
vt 0.1174 0.3826 0.0000
vt 0.0768 0.3218 0.0000
vt 0.0625 0.2500 0.0000
vt 0.0768 0.1782 0.0000
vt 0.1174 0.1174 0.0000
vt 0.1782 0.0768 0.0000
vt 0.2500 0.0625 0.0000
vt 0.3218 0.0768 0.0000
vt 0.3826 0.1174 0.0000
vt 0.4232 0.1782 0.0000
vt 0.2500 0.0180 0.0000
vt 0.2500 0.0445 0.0000
vt 0.3125 0.0180 0.0000
vt 0.3125 0.0445 0.0000
vt 0.3750 0.0180 0.0000
vt 0.3750 0.0445 0.0000
vt 0.4375 0.0180 0.0000
vt 0.4375 0.0445 0.0000
vt 0.5000 0.0180 0.0000
vt 0.5000 0.0445 0.0000
vt 0.5625 0.0180 0.0000
vt 0.5625 0.0445 0.0000
vt 0.6250 0.0180 0.0000
vt 0.6250 0.0445 0.0000
vt 0.6875 0.0180 0.0000
vt 0.6875 0.0445 0.0000
vt 1.0000 0.0180 0.0000
vt 1.0000 0.0445 0.0000
# 66 texture coords

g CapsuleH_BASE
usemtl wire_176026026
f 73/77/205 106/78/206 122/80/207 
f 122/80/208 121/82/209 73/77/210 
f 106/78/211 107/84/212 123/86/213 
f 123/86/214 122/80/215 106/78/216 
f 107/84/217 108/88/218 124/90/219 
f 124/90/220 123/86/221 107/84/222 
f 108/88/223 109/139/224 125/140/225 
f 125/140/226 124/90/227 108/88/228 
f 109/92/229 110/96/230 126/98/231 
f 126/98/232 125/94/233 109/92/234 
f 110/96/235 111/100/236 127/102/237 
f 127/102/238 126/98/239 110/96/240 
f 111/100/241 112/104/242 128/106/243 
f 128/106/244 127/102/245 111/100/246 
f 112/104/247 113/123/248 129/124/249 
f 129/124/250 128/106/251 112/104/252 
f 113/123/253 114/125/254 130/126/255 
f 130/126/256 129/124/257 113/123/258 
f 114/125/259 115/127/260 131/128/261 
f 131/128/262 130/126/263 114/125/264 
f 115/127/265 116/129/266 132/130/267 
f 132/130/268 131/128/269 115/127/270 
f 116/129/271 117/131/272 133/132/273 
f 133/132/274 132/130/275 116/129/276 
f 117/131/277 118/133/278 134/134/279 
f 134/134/280 133/132/281 117/131/282 
f 118/133/283 119/135/284 135/136/285 
f 135/136/286 134/134/287 118/133/288 
f 119/135/289 88/137/290 136/138/291 
f 136/138/292 135/136/293 119/135/294 
f 88/137/295 73/77/296 121/82/297 
f 121/82/298 136/138/299 88/137/300 
f 87/103/301 86/101/302 85/99/303 
f 85/99/304 84/97/305 83/95/306 
f 83/95/307 82/93/308 81/91/309 
f 85/99/310 83/95/311 81/91/312 
f 81/91/313 80/89/314 79/87/315 
f 79/87/316 78/85/317 77/83/318 
f 81/91/319 79/87/320 77/83/321 
f 77/83/322 76/81/323 75/79/324 
f 75/79/325 74/76/326 105/75/327 
f 77/83/328 75/79/329 105/75/330 
f 81/91/331 77/83/332 105/75/333 
f 85/99/334 81/91/335 105/75/336 
f 87/103/337 85/99/338 105/75/339 
f 120/105/340 87/103/341 105/75/342 
f 90/107/343 91/109/344 92/110/345 
f 92/110/346 93/111/347 94/112/348 
f 94/112/349 95/113/350 96/114/351 
f 92/110/352 94/112/353 96/114/354 
f 96/114/355 97/115/356 98/116/357 
f 98/116/358 99/117/359 100/118/360 
f 96/114/361 98/116/362 100/118/363 
f 100/118/364 101/119/365 102/120/366 
f 102/120/367 103/121/368 104/122/369 
f 100/118/370 102/120/371 104/122/372 
f 96/114/373 100/118/374 104/122/375 
f 92/110/376 96/114/377 104/122/378 
f 90/107/379 92/110/380 104/122/381 
f 89/108/382 90/107/383 104/122/384 
# 60 faces

