# 3ds Max Wavefront OBJ Exporter v0.97b - (c)2007 guruware
# File Created: 11.03.2017 14:52:10

mtllib CartoucheH_MSH.mtl

#
# object CartoucheH_BASE
#

v  0.3750 -0.0313 -0.0000
v  0.3465 -0.0313 -0.1435
v  0.2652 -0.0313 -0.2652
v  0.1435 -0.0313 -0.3465
v  -0.0000 -0.0313 -0.3750
v  -0.1435 -0.0313 -0.3465
v  -0.2652 -0.0313 -0.2652
v  -0.3465 -0.0313 -0.1435
v  -0.3750 -0.0313 -0.0000
v  -0.3465 -0.0313 0.1435
v  -0.2652 -0.0313 0.2652
v  -0.1435 -0.0313 0.3465
v  0.0000 -0.0313 0.3750
v  0.1435 -0.0313 0.3465
v  0.2652 -0.0313 0.2652
v  0.3465 -0.0313 0.1435
v  0.3750 0.0313 -0.0000
v  0.3465 0.0313 -0.1435
v  0.2652 0.0313 -0.2652
v  0.1435 0.0313 -0.3465
v  -0.0000 0.0313 -0.3750
v  -0.1435 0.0313 -0.3465
v  -0.2652 0.0313 -0.2652
v  -0.3465 0.0313 -0.1435
v  -0.3750 0.0313 -0.0000
v  -0.3465 0.0313 0.1435
v  -0.2652 0.0313 0.2652
v  -0.1435 0.0313 0.3465
v  0.0000 0.0313 0.3750
v  0.1435 0.0313 0.3465
v  0.2652 0.0313 0.2652
v  0.3465 0.0313 0.1435
v  0.3750 -0.0313 -0.0000
v  0.3465 -0.0313 -0.1435
v  0.2652 -0.0313 -0.2652
v  0.1435 -0.0313 -0.3465
v  -0.0000 -0.0313 -0.3750
v  -0.1435 -0.0313 -0.3465
v  -0.2652 -0.0313 -0.2652
v  -0.3465 -0.0313 -0.1435
v  -0.3750 -0.0313 -0.0000
v  -0.3465 -0.0313 0.1435
v  -0.2652 -0.0313 0.2652
v  -0.1435 -0.0313 0.3465
v  0.0000 -0.0313 0.3750
v  0.1435 -0.0313 0.3465
v  0.2652 -0.0313 0.2652
v  0.3465 -0.0313 0.1435
v  0.3750 0.0313 -0.0000
v  0.3465 0.0313 -0.1435
v  0.2652 0.0313 -0.2652
v  0.1435 0.0313 -0.3465
v  -0.0000 0.0313 -0.3750
v  -0.1435 0.0313 -0.3465
v  -0.2652 0.0313 -0.2652
v  -0.3465 0.0313 -0.1435
v  -0.3750 0.0313 -0.0000
v  -0.3465 0.0313 0.1435
v  -0.2652 0.0313 0.2652
v  -0.1435 0.0313 0.3465
v  0.0000 0.0313 0.3750
v  0.1435 0.0313 0.3465
v  0.2652 0.0313 0.2652
v  0.3465 0.0313 0.1435
# 64 vertices

vn 1.0000 0.0000 -0.0000
vn 0.9239 0.0000 -0.3827
vn 0.9239 0.0000 -0.3827
vn 0.9239 0.0000 -0.3827
vn 1.0000 0.0000 -0.0000
vn 1.0000 0.0000 -0.0000
vn 0.9239 0.0000 -0.3827
vn 0.7071 0.0000 -0.7071
vn 0.7071 0.0000 -0.7071
vn 0.7071 0.0000 -0.7071
vn 0.9239 0.0000 -0.3827
vn 0.9239 0.0000 -0.3827
vn 0.7071 0.0000 -0.7071
vn 0.3827 0.0000 -0.9239
vn 0.3827 0.0000 -0.9239
vn 0.3827 0.0000 -0.9239
vn 0.7071 0.0000 -0.7071
vn 0.7071 0.0000 -0.7071
vn 0.3827 0.0000 -0.9239
vn 0.0000 0.0000 -1.0000
vn 0.0000 0.0000 -1.0000
vn 0.0000 0.0000 -1.0000
vn 0.3827 0.0000 -0.9239
vn 0.3827 0.0000 -0.9239
vn 0.0000 0.0000 -1.0000
vn -0.3827 0.0000 -0.9239
vn -0.3827 0.0000 -0.9239
vn -0.3827 0.0000 -0.9239
vn 0.0000 0.0000 -1.0000
vn 0.0000 0.0000 -1.0000
vn -0.3827 0.0000 -0.9239
vn -0.7071 0.0000 -0.7071
vn -0.7071 0.0000 -0.7071
vn -0.7071 0.0000 -0.7071
vn -0.3827 0.0000 -0.9239
vn -0.3827 0.0000 -0.9239
vn -0.7071 0.0000 -0.7071
vn -0.9239 0.0000 -0.3827
vn -0.9239 0.0000 -0.3827
vn -0.9239 0.0000 -0.3827
vn -0.7071 0.0000 -0.7071
vn -0.7071 0.0000 -0.7071
vn -0.9239 0.0000 -0.3827
vn -1.0000 0.0000 -0.0000
vn -1.0000 0.0000 -0.0000
vn -1.0000 0.0000 -0.0000
vn -0.9239 0.0000 -0.3827
vn -0.9239 0.0000 -0.3827
vn -1.0000 0.0000 -0.0000
vn -0.9239 0.0000 0.3827
vn -0.9239 0.0000 0.3827
vn -0.9239 0.0000 0.3827
vn -1.0000 0.0000 -0.0000
vn -1.0000 0.0000 -0.0000
vn -0.9239 0.0000 0.3827
vn -0.7071 0.0000 0.7071
vn -0.7071 0.0000 0.7071
vn -0.7071 0.0000 0.7071
vn -0.9239 0.0000 0.3827
vn -0.9239 0.0000 0.3827
vn -0.7071 0.0000 0.7071
vn -0.3827 0.0000 0.9239
vn -0.3827 0.0000 0.9239
vn -0.3827 0.0000 0.9239
vn -0.7071 0.0000 0.7071
vn -0.7071 0.0000 0.7071
vn -0.3827 0.0000 0.9239
vn 0.0000 0.0000 1.0000
vn 0.0000 0.0000 1.0000
vn 0.0000 0.0000 1.0000
vn -0.3827 0.0000 0.9239
vn -0.3827 0.0000 0.9239
vn 0.0000 0.0000 1.0000
vn 0.3827 0.0000 0.9239
vn 0.3827 0.0000 0.9239
vn 0.3827 0.0000 0.9239
vn 0.0000 0.0000 1.0000
vn 0.0000 0.0000 1.0000
vn 0.3827 0.0000 0.9239
vn 0.7071 0.0000 0.7071
vn 0.7071 0.0000 0.7071
vn 0.7071 0.0000 0.7071
vn 0.3827 0.0000 0.9239
vn 0.3827 0.0000 0.9239
vn 0.7071 0.0000 0.7071
vn 0.9239 0.0000 0.3827
vn 0.9239 0.0000 0.3827
vn 0.9239 0.0000 0.3827
vn 0.7071 0.0000 0.7071
vn 0.7071 0.0000 0.7071
vn 0.9239 0.0000 0.3827
vn 1.0000 0.0000 -0.0000
vn 1.0000 0.0000 -0.0000
vn 1.0000 0.0000 -0.0000
vn 0.9239 0.0000 0.3827
vn 0.9239 0.0000 0.3827
vn 0.0000 -1.0000 -0.0000
vn 0.0000 -1.0000 -0.0000
vn 0.0000 -1.0000 -0.0000
vn 0.0000 -1.0000 -0.0000
vn 0.0000 -1.0000 -0.0000
vn 0.0000 -1.0000 -0.0000
vn 0.0000 -1.0000 -0.0000
vn 0.0000 -1.0000 -0.0000
vn 0.0000 -1.0000 -0.0000
vn 0.0000 -1.0000 -0.0000
vn 0.0000 -1.0000 -0.0000
vn 0.0000 -1.0000 -0.0000
vn 0.0000 -1.0000 -0.0000
vn 0.0000 -1.0000 -0.0000
vn 0.0000 -1.0000 -0.0000
vn 0.0000 -1.0000 -0.0000
vn 0.0000 -1.0000 -0.0000
vn 0.0000 -1.0000 -0.0000
vn 0.0000 -1.0000 -0.0000
vn 0.0000 -1.0000 -0.0000
vn 0.0000 -1.0000 -0.0000
vn 0.0000 -1.0000 -0.0000
vn 0.0000 -1.0000 -0.0000
vn 0.0000 -1.0000 -0.0000
vn 0.0000 -1.0000 -0.0000
vn 0.0000 -1.0000 -0.0000
vn 0.0000 -1.0000 -0.0000
vn 0.0000 -1.0000 -0.0000
vn 0.0000 -1.0000 -0.0000
vn 0.0000 -1.0000 -0.0000
vn 0.0000 -1.0000 -0.0000
vn 0.0000 -1.0000 -0.0000
vn 0.0000 -1.0000 -0.0000
vn 0.0000 -1.0000 -0.0000
vn 0.0000 -1.0000 -0.0000
vn 0.0000 -1.0000 -0.0000
vn 0.0000 -1.0000 -0.0000
vn 0.0000 -1.0000 -0.0000
vn 0.0000 -1.0000 -0.0000
vn 0.0000 -1.0000 -0.0000
vn 0.0000 -1.0000 -0.0000
vn 0.0000 -1.0000 -0.0000
vn 0.0000 1.0000 -0.0000
vn 0.0000 1.0000 -0.0000
vn 0.0000 1.0000 -0.0000
vn 0.0000 1.0000 -0.0000
vn 0.0000 1.0000 -0.0000
vn 0.0000 1.0000 -0.0000
vn 0.0000 1.0000 -0.0000
vn 0.0000 1.0000 -0.0000
vn 0.0000 1.0000 -0.0000
vn 0.0000 1.0000 -0.0000
vn 0.0000 1.0000 -0.0000
vn 0.0000 1.0000 -0.0000
vn 0.0000 1.0000 -0.0000
vn 0.0000 1.0000 -0.0000
vn 0.0000 1.0000 -0.0000
vn 0.0000 1.0000 -0.0000
vn 0.0000 1.0000 -0.0000
vn 0.0000 1.0000 -0.0000
vn 0.0000 1.0000 -0.0000
vn 0.0000 1.0000 -0.0000
vn 0.0000 1.0000 -0.0000
vn 0.0000 1.0000 -0.0000
vn 0.0000 1.0000 -0.0000
vn 0.0000 1.0000 -0.0000
vn 0.0000 1.0000 -0.0000
vn 0.0000 1.0000 -0.0000
vn 0.0000 1.0000 -0.0000
vn 0.0000 1.0000 -0.0000
vn 0.0000 1.0000 -0.0000
vn 0.0000 1.0000 -0.0000
vn 0.0000 1.0000 -0.0000
vn 0.0000 1.0000 -0.0000
vn 0.0000 1.0000 -0.0000
vn 0.0000 1.0000 -0.0000
vn 0.0000 1.0000 -0.0000
vn 0.0000 1.0000 -0.0000
vn 0.0000 1.0000 -0.0000
vn 0.0000 1.0000 -0.0000
vn 0.0000 1.0000 -0.0000
vn 0.0000 1.0000 -0.0000
vn 0.0000 1.0000 -0.0000
vn 0.0000 1.0000 -0.0000
# 180 vertex normals

vt 0.5625 0.2500 0.0000
vt 0.5768 0.3218 0.0000
vt 0.7500 0.0180 0.0000
vt 0.8125 0.0180 0.0000
vt 0.6174 0.3826 0.0000
vt 0.8125 0.0445 0.0000
vt 0.6782 0.4232 0.0000
vt 0.7500 0.0445 0.0000
vt 0.7500 0.4375 0.0000
vt 0.8750 0.0180 0.0000
vt 0.8218 0.4232 0.0000
vt 0.8750 0.0445 0.0000
vt 0.8826 0.3826 0.0000
vt 0.9375 0.0180 0.0000
vt 0.9232 0.3218 0.0000
vt 0.9375 0.0445 0.0000
vt 0.9375 0.2500 0.0000
vt 0.0000 0.0180 0.0000
vt 0.9232 0.1782 0.0000
vt 0.0000 0.0445 0.0000
vt 0.8826 0.1174 0.0000
vt 0.0625 0.0180 0.0000
vt 0.8218 0.0768 0.0000
vt 0.0625 0.0445 0.0000
vt 0.7500 0.0625 0.0000
vt 0.1250 0.0180 0.0000
vt 0.6782 0.0768 0.0000
vt 0.1250 0.0445 0.0000
vt 0.6174 0.1174 0.0000
vt 0.1875 0.0180 0.0000
vt 0.5768 0.1782 0.0000
vt 0.1875 0.0445 0.0000
vt 0.4232 0.3218 0.0000
vt 0.4375 0.2500 0.0000
vt 0.3826 0.3826 0.0000
vt 0.3218 0.4232 0.0000
vt 0.2500 0.4375 0.0000
vt 0.1782 0.4232 0.0000
vt 0.1174 0.3826 0.0000
vt 0.0768 0.3218 0.0000
vt 0.0625 0.2500 0.0000
vt 0.0768 0.1782 0.0000
vt 0.1174 0.1174 0.0000
vt 0.1782 0.0768 0.0000
vt 0.2500 0.0625 0.0000
vt 0.3218 0.0768 0.0000
vt 0.3826 0.1174 0.0000
vt 0.4232 0.1782 0.0000
vt 0.2500 0.0180 0.0000
vt 0.2500 0.0445 0.0000
vt 0.3125 0.0180 0.0000
vt 0.3125 0.0445 0.0000
vt 0.3750 0.0180 0.0000
vt 0.3750 0.0445 0.0000
vt 0.4375 0.0180 0.0000
vt 0.4375 0.0445 0.0000
vt 0.5000 0.0180 0.0000
vt 0.5000 0.0445 0.0000
vt 0.5625 0.0180 0.0000
vt 0.5625 0.0445 0.0000
vt 0.6250 0.0180 0.0000
vt 0.6250 0.0445 0.0000
vt 0.6875 0.0180 0.0000
vt 0.6875 0.0445 0.0000
vt 1.0000 0.0180 0.0000
vt 1.0000 0.0445 0.0000
# 66 texture coords

g CartoucheH_BASE
usemtl Material__2
f 1/3/1 34/4/2 50/6/3 
f 50/6/4 49/8/5 1/3/6 
f 34/4/7 35/10/8 51/12/9 
f 51/12/10 50/6/11 34/4/12 
f 35/10/13 36/14/14 52/16/15 
f 52/16/16 51/12/17 35/10/18 
f 36/14/19 37/65/20 53/66/21 
f 53/66/22 52/16/23 36/14/24 
f 37/18/25 38/22/26 54/24/27 
f 54/24/28 53/20/29 37/18/30 
f 38/22/31 39/26/32 55/28/33 
f 55/28/34 54/24/35 38/22/36 
f 39/26/37 40/30/38 56/32/39 
f 56/32/40 55/28/41 39/26/42 
f 40/30/43 41/49/44 57/50/45 
f 57/50/46 56/32/47 40/30/48 
f 41/49/49 42/51/50 58/52/51 
f 58/52/52 57/50/53 41/49/54 
f 42/51/55 43/53/56 59/54/57 
f 59/54/58 58/52/59 42/51/60 
f 43/53/61 44/55/62 60/56/63 
f 60/56/64 59/54/65 43/53/66 
f 44/55/67 45/57/68 61/58/69 
f 61/58/70 60/56/71 44/55/72 
f 45/57/73 46/59/74 62/60/75 
f 62/60/76 61/58/77 45/57/78 
f 46/59/79 47/61/80 63/62/81 
f 63/62/82 62/60/83 46/59/84 
f 47/61/85 16/63/86 64/64/87 
f 64/64/88 63/62/89 47/61/90 
f 16/63/91 1/3/92 49/8/93 
f 49/8/94 64/64/95 16/63/96 
f 15/29/97 14/27/98 13/25/99 
f 13/25/100 12/23/101 11/21/102 
f 11/21/103 10/19/104 9/17/105 
f 13/25/106 11/21/107 9/17/108 
f 9/17/109 8/15/110 7/13/111 
f 7/13/112 6/11/113 5/9/114 
f 9/17/115 7/13/116 5/9/117 
f 5/9/118 4/7/119 3/5/120 
f 3/5/121 2/2/122 33/1/123 
f 5/9/124 3/5/125 33/1/126 
f 9/17/127 5/9/128 33/1/129 
f 13/25/130 9/17/131 33/1/132 
f 15/29/133 13/25/134 33/1/135 
f 48/31/136 15/29/137 33/1/138 
f 18/33/139 19/35/140 20/36/141 
f 20/36/142 21/37/143 22/38/144 
f 22/38/145 23/39/146 24/40/147 
f 20/36/148 22/38/149 24/40/150 
f 24/40/151 25/41/152 26/42/153 
f 26/42/154 27/43/155 28/44/156 
f 24/40/157 26/42/158 28/44/159 
f 28/44/160 29/45/161 30/46/162 
f 30/46/163 31/47/164 32/48/165 
f 28/44/166 30/46/167 32/48/168 
f 24/40/169 28/44/170 32/48/171 
f 20/36/172 24/40/173 32/48/174 
f 18/33/175 20/36/176 32/48/177 
f 17/34/178 18/33/179 32/48/180 
# 60 faces

#
# object CartoucheH
#

v  -0.4428 1.0700 0.0313
v  -0.4675 0.9939 0.0313
v  -0.4854 0.9129 0.0313
v  -0.4963 0.8304 0.0313
v  -0.5000 0.7500 0.0312
v  -0.4963 0.6696 0.0312
v  -0.4854 0.5871 0.0312
v  -0.4675 0.5061 0.0312
v  -0.4428 0.4300 0.0312
v  0.4428 0.4300 0.0312
v  0.4675 0.5061 0.0312
v  0.4854 0.5871 0.0312
v  0.4963 0.6696 0.0312
v  0.5000 0.7500 0.0312
v  0.4963 0.8304 0.0313
v  0.4854 0.9129 0.0313
v  0.4675 0.9939 0.0313
v  0.4428 1.0700 0.0313
v  -0.4428 1.0700 -0.0312
v  -0.4675 0.9939 -0.0312
v  -0.4854 0.9129 -0.0312
v  -0.4963 0.8304 -0.0312
v  -0.5000 0.7500 -0.0313
v  -0.4963 0.6696 -0.0313
v  -0.4854 0.5871 -0.0313
v  -0.4675 0.5061 -0.0313
v  -0.4428 0.4300 -0.0313
v  0.4428 0.4300 -0.0313
v  0.4675 0.5061 -0.0313
v  0.4854 0.5871 -0.0313
v  0.4963 0.6696 -0.0313
v  0.5000 0.7500 -0.0313
v  0.4963 0.8304 -0.0312
v  0.4854 0.9129 -0.0312
v  0.4675 0.9939 -0.0312
v  0.4428 1.0700 -0.0312
v  -0.4428 1.0700 0.0313
v  -0.4428 1.0700 0.0313
v  -0.4675 0.9939 0.0313
v  -0.4854 0.9129 0.0313
v  -0.4963 0.8304 0.0313
v  -0.5000 0.7500 0.0312
v  -0.4963 0.6696 0.0312
v  -0.4854 0.5871 0.0312
v  -0.4675 0.5061 0.0312
v  -0.4428 0.4300 0.0312
v  -0.4428 0.4300 0.0312
v  0.4428 0.4300 0.0312
v  0.4428 0.4300 0.0312
v  0.4675 0.5061 0.0312
v  0.4854 0.5871 0.0312
v  0.4963 0.6696 0.0312
v  0.5000 0.7500 0.0312
v  0.4963 0.8304 0.0313
v  0.4854 0.9129 0.0313
v  0.4675 0.9939 0.0313
v  0.4428 1.0700 0.0313
v  0.4428 1.0700 0.0313
v  -0.4428 1.0700 -0.0312
v  -0.4428 1.0700 -0.0312
v  -0.4675 0.9939 -0.0312
v  -0.4854 0.9129 -0.0312
v  -0.4963 0.8304 -0.0312
v  -0.5000 0.7500 -0.0313
v  -0.4963 0.6696 -0.0313
v  -0.4854 0.5871 -0.0313
v  -0.4675 0.5061 -0.0313
v  -0.4428 0.4300 -0.0313
v  -0.4428 0.4300 -0.0313
v  0.4428 0.4300 -0.0313
v  0.4428 0.4300 -0.0313
v  0.4675 0.5061 -0.0313
v  0.4854 0.5871 -0.0313
v  0.4963 0.6696 -0.0313
v  0.5000 0.7500 -0.0313
v  0.4963 0.8304 -0.0312
v  0.4854 0.9129 -0.0312
v  0.4675 0.9939 -0.0312
v  0.4428 1.0700 -0.0312
v  0.4428 1.0700 -0.0312
# 80 vertices

vn -0.0000 0.0000 1.0000
vn 0.0000 -0.0000 1.0000
vn -0.0000 -0.0000 1.0000
vn 0.0000 -0.0000 1.0000
vn 0.0000 -0.0000 1.0000
vn 0.0000 -0.0000 1.0000
vn 0.0000 -0.0000 1.0000
vn 0.0000 -0.0000 1.0000
vn 0.0000 -0.0000 1.0000
vn 0.0000 -0.0000 1.0000
vn 0.0000 -0.0000 1.0000
vn 0.0000 -0.0000 1.0000
vn 0.0000 -0.0000 1.0000
vn 0.0000 -0.0000 1.0000
vn 0.0000 -0.0000 1.0000
vn 0.0000 -0.0000 1.0000
vn 0.0000 -0.0000 1.0000
vn 0.0000 -0.0000 1.0000
vn 0.0000 -0.0000 1.0000
vn 0.0000 -0.0000 1.0000
vn 0.0000 -0.0000 1.0000
vn 0.0000 -0.0000 1.0000
vn 0.0000 -0.0000 1.0000
vn 0.0000 -0.0000 1.0000
vn 0.0000 -0.0000 1.0000
vn 0.0000 -0.0000 1.0000
vn 0.0000 -0.0000 1.0000
vn 0.0000 -0.0000 1.0000
vn 0.0000 -0.0000 1.0000
vn 0.0000 -0.0000 1.0000
vn 0.0000 -0.0000 1.0000
vn 0.0000 -0.0000 1.0000
vn 0.0000 -0.0000 1.0000
vn 0.0000 -0.0000 1.0000
vn 0.0000 -0.0000 1.0000
vn 0.0000 -0.0000 1.0000
vn 0.0000 -0.0000 1.0000
vn 0.0000 -0.0000 1.0000
vn -0.0000 -0.0000 1.0000
vn -0.0000 -0.0000 1.0000
vn 0.0000 -0.0000 1.0000
vn -0.0000 -0.0000 1.0000
vn -0.0000 -0.0000 1.0000
vn -0.0000 -0.0000 1.0000
vn -0.0000 -0.0000 1.0000
vn -0.0000 0.0000 1.0000
vn -0.0000 -0.0000 1.0000
vn -0.0000 -0.0000 1.0000
vn 0.0000 0.0000 -1.0000
vn 0.0000 0.0000 -1.0000
vn 0.0000 0.0000 -1.0000
vn 0.0000 0.0000 -1.0000
vn 0.0000 0.0000 -1.0000
vn 0.0000 0.0000 -1.0000
vn 0.0000 0.0000 -1.0000
vn 0.0000 0.0000 -1.0000
vn 0.0000 0.0000 -1.0000
vn 0.0000 0.0000 -1.0000
vn 0.0000 0.0000 -1.0000
vn 0.0000 0.0000 -1.0000
vn 0.0000 0.0000 -1.0000
vn 0.0000 0.0000 -1.0000
vn 0.0000 0.0000 -1.0000
vn 0.0000 0.0000 -1.0000
vn 0.0000 0.0000 -1.0000
vn 0.0000 0.0000 -1.0000
vn 0.0000 0.0000 -1.0000
vn 0.0000 0.0000 -1.0000
vn 0.0000 0.0000 -1.0000
vn 0.0000 0.0000 -1.0000
vn 0.0000 0.0000 -1.0000
vn 0.0000 0.0000 -1.0000
vn 0.0000 0.0000 -1.0000
vn 0.0000 0.0000 -1.0000
vn 0.0000 0.0000 -1.0000
vn 0.0000 0.0000 -1.0000
vn 0.0000 0.0000 -1.0000
vn 0.0000 0.0000 -1.0000
vn 0.0000 0.0000 -1.0000
vn 0.0000 0.0000 -1.0000
vn 0.0000 0.0000 -1.0000
vn 0.0000 0.0000 -1.0000
vn 0.0000 0.0000 -1.0000
vn 0.0000 0.0000 -1.0000
vn 0.0000 0.0000 -1.0000
vn 0.0000 0.0000 -1.0000
vn 0.0000 0.0000 -1.0000
vn 0.0000 0.0000 -1.0000
vn 0.0000 0.0000 -1.0000
vn 0.0000 0.0000 -1.0000
vn 0.0000 0.0000 -1.0000
vn 0.0000 0.0000 -1.0000
vn 0.0000 0.0000 -1.0000
vn 0.0000 0.0000 -1.0000
vn 0.0000 0.0000 -1.0000
vn 0.0000 0.0000 -1.0000
vn 0.9649 0.2625 0.0000
vn 0.9512 0.3087 0.0000
vn 0.9512 0.3087 0.0000
vn 0.9512 0.3087 0.0000
vn 0.9649 0.2625 0.0000
vn 0.9649 0.2625 0.0000
vn -0.0000 1.0000 0.0000
vn -0.0000 1.0000 0.0000
vn -0.0000 1.0000 0.0000
vn -0.0000 1.0000 0.0000
vn -0.0000 1.0000 0.0000
vn -0.0000 1.0000 0.0000
vn -0.9512 0.3087 0.0000
vn -0.9649 0.2625 0.0000
vn -0.9649 0.2625 0.0000
vn -0.9649 0.2625 0.0000
vn -0.9512 0.3087 0.0000
vn -0.9512 0.3087 0.0000
vn 0.0000 -1.0000 -0.0000
vn 0.0000 -1.0000 -0.0000
vn 0.0000 -1.0000 -0.0000
vn 0.0000 -1.0000 -0.0000
vn 0.0000 -1.0000 -0.0000
vn 0.0000 -1.0000 -0.0000
vn 0.9512 -0.3087 -0.0000
vn 0.9649 -0.2625 -0.0000
vn 0.9649 -0.2625 -0.0000
vn 0.9649 -0.2625 -0.0000
vn 0.9512 -0.3087 -0.0000
vn 0.9512 -0.3087 -0.0000
vn -0.9649 -0.2625 -0.0000
vn -0.9512 -0.3087 -0.0000
vn -0.9512 -0.3087 -0.0000
vn -0.9512 -0.3087 -0.0000
vn -0.9649 -0.2625 -0.0000
vn -0.9649 -0.2625 -0.0000
vn -0.9848 -0.1736 -0.0000
vn -0.9649 -0.2625 -0.0000
vn -0.9649 -0.2625 -0.0000
vn -0.9649 -0.2625 -0.0000
vn -0.9848 -0.1736 -0.0000
vn -0.9848 -0.1736 -0.0000
vn 0.9649 -0.2625 -0.0000
vn 0.9848 -0.1736 -0.0000
vn 0.9848 -0.1736 -0.0000
vn 0.9848 -0.1736 -0.0000
vn 0.9649 -0.2625 -0.0000
vn 0.9649 -0.2625 -0.0000
vn -0.9961 -0.0885 -0.0000
vn -0.9848 -0.1736 -0.0000
vn -0.9848 -0.1736 -0.0000
vn -0.9848 -0.1736 -0.0000
vn -0.9961 -0.0885 -0.0000
vn -0.9961 -0.0885 -0.0000
vn 0.9848 -0.1736 -0.0000
vn 0.9961 -0.0885 -0.0000
vn 0.9961 -0.0885 -0.0000
vn 0.9961 -0.0885 -0.0000
vn 0.9848 -0.1736 -0.0000
vn 0.9848 -0.1736 -0.0000
vn 0.9961 -0.0885 -0.0000
vn 1.0000 -0.0000 -0.0000
vn 1.0000 -0.0000 -0.0000
vn 1.0000 -0.0000 -0.0000
vn 0.9961 -0.0885 -0.0000
vn 0.9961 -0.0885 -0.0000
vn -1.0000 -0.0000 -0.0000
vn -0.9961 -0.0885 -0.0000
vn -0.9961 -0.0885 -0.0000
vn -0.9961 -0.0885 -0.0000
vn -1.0000 -0.0000 -0.0000
vn -1.0000 -0.0000 -0.0000
vn -0.9961 0.0885 0.0000
vn -1.0000 -0.0000 -0.0000
vn -1.0000 -0.0000 -0.0000
vn -1.0000 -0.0000 -0.0000
vn -0.9961 0.0885 0.0000
vn -0.9961 0.0885 0.0000
vn 1.0000 -0.0000 -0.0000
vn 0.9961 0.0885 0.0000
vn 0.9961 0.0885 0.0000
vn 0.9961 0.0885 0.0000
vn 1.0000 -0.0000 -0.0000
vn 1.0000 -0.0000 -0.0000
vn 0.9961 0.0885 0.0000
vn 0.9848 0.1736 0.0000
vn 0.9848 0.1736 0.0000
vn 0.9848 0.1736 0.0000
vn 0.9961 0.0885 0.0000
vn 0.9961 0.0885 0.0000
vn -0.9848 0.1736 0.0000
vn -0.9961 0.0885 0.0000
vn -0.9961 0.0885 0.0000
vn -0.9961 0.0885 0.0000
vn -0.9848 0.1736 0.0000
vn -0.9848 0.1736 0.0000
vn -0.9649 0.2625 0.0000
vn -0.9848 0.1736 0.0000
vn -0.9848 0.1736 0.0000
vn -0.9848 0.1736 0.0000
vn -0.9649 0.2625 0.0000
vn -0.9649 0.2625 0.0000
vn 0.9848 0.1736 0.0000
vn 0.9649 0.2625 0.0000
vn 0.9649 0.2625 0.0000
vn 0.9649 0.2625 0.0000
vn 0.9848 0.1736 0.0000
vn 0.9848 0.1736 0.0000
# 204 vertex normals

vt 0.0839 0.6290 0.0000
vt 0.4161 0.6290 0.0000
vt 0.4253 0.6575 0.0000
vt 0.4320 0.6879 0.0000
vt 0.4361 0.7189 0.0000
vt 0.4375 0.7490 0.0000
vt 0.4361 0.7791 0.0000
vt 0.4320 0.8101 0.0000
vt 0.4253 0.8405 0.0000
vt 0.4161 0.8690 0.0000
vt 0.0839 0.8690 0.0000
vt 0.0747 0.8405 0.0000
vt 0.0680 0.8101 0.0000
vt 0.0639 0.7791 0.0000
vt 0.0625 0.7490 0.0000
vt 0.0639 0.7189 0.0000
vt 0.0680 0.6879 0.0000
vt 0.0747 0.6575 0.0000
vt 0.0518 0.5354 0.0000
vt 0.0266 0.5354 0.0000
vt 0.0266 0.5104 0.0000
vt 0.0518 0.5104 0.0000
vt 0.3970 0.5354 0.0000
vt 0.3970 0.5104 0.0000
vt 0.4222 0.5354 0.0000
vt 0.4222 0.5104 0.0000
vt 0.8576 0.5354 0.0000
vt 0.5912 0.5354 0.0000
vt 0.5912 0.5104 0.0000
vt 0.8576 0.5104 0.0000
vt 0.8780 0.5354 0.0000
vt 0.8780 0.5104 0.0000
vt 0.5708 0.5354 0.0000
vt 0.5708 0.5104 0.0000
vt 0.5485 0.5354 0.0000
vt 0.5485 0.5104 0.0000
vt 0.9004 0.5354 0.0000
vt 0.9004 0.5104 0.0000
vt 0.5246 0.5354 0.0000
vt 0.5246 0.5104 0.0000
vt 0.9242 0.5354 0.0000
vt 0.9242 0.5104 0.0000
vt 0.9484 0.5354 0.0000
vt 0.9484 0.5104 0.0000
vt 0.5004 0.5354 0.0000
vt 0.5004 0.5104 0.0000
vt 0.4753 0.5354 0.0000
vt 0.4753 0.5104 0.0000
vt 0.9735 0.5354 0.0000
vt 0.9735 0.5104 0.0000
vt 0.0000 0.5354 0.0000
vt 0.0000 0.5104 0.0000
vt 0.4488 0.5354 0.0000
vt 0.4488 0.5104 0.0000
vt 1.0000 0.5354 0.0000
vt 1.0000 0.5104 0.0000
vt 0.5747 0.6575 0.0000
vt 0.5839 0.6290 0.0000
vt 0.9161 0.6290 0.0000
vt 0.9253 0.6575 0.0000
vt 0.9320 0.6879 0.0000
vt 0.9361 0.7189 0.0000
vt 0.9375 0.7490 0.0000
vt 0.9361 0.7791 0.0000
vt 0.9320 0.8101 0.0000
vt 0.9253 0.8405 0.0000
vt 0.9161 0.8690 0.0000
vt 0.5839 0.8690 0.0000
vt 0.5747 0.8405 0.0000
vt 0.5680 0.8101 0.0000
vt 0.5639 0.7791 0.0000
vt 0.5625 0.7490 0.0000
vt 0.5639 0.7189 0.0000
vt 0.5680 0.6879 0.0000
# 74 texture coords

g CartoucheH
usemtl Material__2
f 111/67/181 113/68/182 114/69/183 
f 120/75/184 82/76/185 65/77/186 
f 120/75/187 65/77/188 103/78/189 
f 119/74/190 120/75/191 103/78/192 
f 119/74/193 103/78/194 104/79/195 
f 119/74/196 104/79/197 105/80/198 
f 118/73/199 119/74/200 105/80/201 
f 117/72/202 118/73/203 105/80/204 
f 117/72/205 105/80/206 106/81/207 
f 117/72/208 106/81/209 107/82/210 
f 116/71/211 117/72/212 107/82/213 
f 115/70/214 116/71/215 107/82/216 
f 115/70/217 107/82/218 108/83/219 
f 114/69/220 115/70/221 108/83/222 
f 114/69/223 108/83/224 109/84/225 
f 111/67/226 114/69/227 109/84/228 
f 93/123/229 134/124/230 132/125/231 
f 93/123/232 132/125/233 90/126/234 
f 93/123/235 90/126/236 89/127/237 
f 123/133/238 143/134/239 99/135/240 
f 84/132/241 123/133/242 99/135/243 
f 84/132/244 99/135/245 98/136/246 
f 85/131/247 84/132/248 98/136/249 
f 86/130/250 85/131/251 98/136/252 
f 86/130/253 98/136/254 97/137/255 
f 86/130/256 97/137/257 96/138/258 
f 87/129/259 86/130/260 96/138/261 
f 88/128/262 87/129/263 96/138/264 
f 88/128/265 96/138/266 95/139/267 
f 88/128/268 95/139/269 94/140/270 
f 89/127/271 88/128/272 94/140/273 
f 93/123/274 89/127/275 94/140/276 
f 142/87/277 100/88/278 121/85/279 
f 121/85/280 81/86/281 142/87/282 
f 144/88/283 83/90/284 101/89/285 
f 101/89/286 122/85/287 144/88/288 
f 124/90/289 125/92/290 66/91/291 
f 66/91/292 102/89/293 124/90/294 
f 133/95/295 92/96/296 74/93/297 
f 74/93/298 110/94/299 133/95/300 
f 135/96/301 136/98/302 75/97/303 
f 75/97/304 112/93/305 135/96/306 
f 131/100/307 91/95/308 73/94/309 
f 73/94/310 72/99/311 131/100/312 
f 130/102/313 131/100/314 72/99/315 
f 72/99/316 71/101/317 130/102/318 
f 136/98/319 137/104/320 76/103/321 
f 76/103/322 75/97/323 136/98/324 
f 129/106/325 130/102/326 71/101/327 
f 71/101/328 70/105/329 129/106/330 
f 137/104/331 138/108/332 77/107/333 
f 77/107/334 76/103/335 137/104/336 
f 138/108/337 139/110/338 78/109/339 
f 78/109/340 77/107/341 138/108/342 
f 128/112/343 129/106/344 70/105/345 
f 70/105/346 69/111/347 128/112/348 
f 127/114/349 128/112/350 69/111/351 
f 69/111/352 68/113/353 127/114/354 
f 139/110/355 140/116/356 79/115/357 
f 79/115/358 78/109/359 139/110/360 
f 140/116/361 141/122/362 80/121/363 
f 80/121/364 79/115/365 140/116/366 
f 126/120/367 127/114/368 68/113/369 
f 68/113/370 67/119/371 126/120/372 
f 125/92/373 126/120/374 67/119/375 
f 67/119/376 66/91/377 125/92/378 
f 141/118/379 142/87/380 81/86/381 
f 81/86/382 80/117/383 141/118/384 
# 68 faces

