# 3ds Max Wavefront OBJ Exporter v0.97b - (c)2007 guruware
# File Created: 11.03.2017 12:49:20

mtllib DiamondV_MSH.mtl

#
# object DiamondV
#

v  0.3200 -0.0000 0.0313
v  -0.0000 0.5000 0.0313
v  -0.3200 -0.0000 0.0313
v  0.0000 -0.5000 0.0312
v  0.3200 0.0000 -0.0313
v  -0.0000 0.5000 -0.0312
v  -0.3200 0.0000 -0.0313
v  0.0000 -0.5000 -0.0313
v  0.3200 -0.0000 0.0313
v  -0.0000 0.5000 0.0313
v  -0.3200 -0.0000 0.0313
v  0.0000 -0.5000 0.0312
v  0.3200 0.0000 -0.0313
v  -0.0000 0.5000 -0.0312
v  -0.3200 0.0000 -0.0313
v  0.0000 -0.5000 -0.0313
# 16 vertices

vn 0.0000 -0.0000 1.0000
vn 0.0000 -0.0000 1.0000
vn 0.0000 -0.0000 1.0000
vn 0.0000 -0.0000 1.0000
vn 0.0000 -0.0000 1.0000
vn 0.0000 -0.0000 1.0000
vn 0.0000 0.0000 -1.0000
vn 0.0000 0.0000 -1.0000
vn 0.0000 0.0000 -1.0000
vn 0.0000 0.0000 -1.0000
vn 0.0000 0.0000 -1.0000
vn 0.0000 0.0000 -1.0000
vn 0.8423 0.5391 0.0000
vn 0.8423 0.5391 0.0000
vn 0.8423 0.5391 0.0000
vn 0.8423 0.5391 0.0000
vn 0.8423 0.5391 0.0000
vn 0.8423 0.5391 0.0000
vn -0.8423 0.5391 0.0000
vn -0.8423 0.5391 0.0000
vn -0.8423 0.5391 0.0000
vn -0.8423 0.5391 0.0000
vn -0.8423 0.5391 0.0000
vn -0.8423 0.5391 0.0000
vn -0.8423 -0.5391 -0.0000
vn -0.8423 -0.5391 -0.0000
vn -0.8423 -0.5391 -0.0000
vn -0.8423 -0.5391 -0.0000
vn -0.8423 -0.5391 -0.0000
vn -0.8423 -0.5391 -0.0000
vn 0.8423 -0.5391 -0.0000
vn 0.8423 -0.5391 -0.0000
vn 0.8423 -0.5391 -0.0000
vn 0.8423 -0.5391 -0.0000
vn 0.8423 -0.5391 -0.0000
vn 0.8423 -0.5391 -0.0000
# 36 vertex normals

vt 0.3700 0.7646 0.0000
vt 0.2500 0.9521 0.0000
vt 0.1300 0.7646 0.0000
vt 0.2500 0.5771 0.0000
vt 0.2000 0.5354 0.0000
vt 0.9099 0.5354 0.0000
vt 0.9099 0.5104 0.0000
vt 0.2000 0.5104 0.0000
vt 0.4901 0.5354 0.0000
vt 0.4901 0.5104 0.0000
vt 0.7000 0.5354 0.0000
vt 0.7000 0.5104 0.0000
vt 0.6300 0.7646 0.0000
vt 0.7500 0.9521 0.0000
vt 0.8700 0.7646 0.0000
vt 0.7500 0.5771 0.0000
# 16 texture coords

g DiamondV
usemtl wire_224086086
f 11/3/1 4/4/2 1/1/3 
f 1/1/4 10/2/5 11/3/6 
f 5/15/7 8/16/8 7/13/9 
f 7/13/10 6/14/11 5/15/12 
f 13/7/13 14/8/14 2/5/15 
f 2/5/16 9/6/17 13/7/18 
f 14/8/19 15/10/20 3/9/21 
f 3/9/22 2/5/23 14/8/24 
f 15/10/25 16/12/26 12/11/27 
f 12/11/28 3/9/29 15/10/30 
f 16/12/31 13/7/32 9/6/33 
f 9/6/34 12/11/35 16/12/36 
# 12 faces

#
# object DiamondV_BASE
#

v  0.3750 -0.0313 -0.0000
v  0.3465 -0.0313 -0.1435
v  0.2652 -0.0313 -0.2652
v  0.1435 -0.0313 -0.3465
v  -0.0000 -0.0313 -0.3750
v  -0.1435 -0.0313 -0.3465
v  -0.2652 -0.0313 -0.2652
v  -0.3465 -0.0313 -0.1435
v  -0.3750 -0.0313 -0.0000
v  -0.3465 -0.0313 0.1435
v  -0.2652 -0.0313 0.2652
v  -0.1435 -0.0313 0.3465
v  0.0000 -0.0313 0.3750
v  0.1435 -0.0313 0.3465
v  0.2652 -0.0313 0.2652
v  0.3465 -0.0313 0.1435
v  0.3750 0.0313 -0.0000
v  0.3465 0.0313 -0.1435
v  0.2652 0.0313 -0.2652
v  0.1435 0.0313 -0.3465
v  -0.0000 0.0313 -0.3750
v  -0.1435 0.0313 -0.3465
v  -0.2652 0.0313 -0.2652
v  -0.3465 0.0313 -0.1435
v  -0.3750 0.0313 -0.0000
v  -0.3465 0.0313 0.1435
v  -0.2652 0.0313 0.2652
v  -0.1435 0.0313 0.3465
v  0.0000 0.0313 0.3750
v  0.1435 0.0313 0.3465
v  0.2652 0.0313 0.2652
v  0.3465 0.0313 0.1435
v  0.3750 -0.0313 -0.0000
v  0.3465 -0.0313 -0.1435
v  0.2652 -0.0313 -0.2652
v  0.1435 -0.0313 -0.3465
v  -0.0000 -0.0313 -0.3750
v  -0.1435 -0.0313 -0.3465
v  -0.2652 -0.0313 -0.2652
v  -0.3465 -0.0313 -0.1435
v  -0.3750 -0.0313 -0.0000
v  -0.3465 -0.0313 0.1435
v  -0.2652 -0.0313 0.2652
v  -0.1435 -0.0313 0.3465
v  0.0000 -0.0313 0.3750
v  0.1435 -0.0313 0.3465
v  0.2652 -0.0313 0.2652
v  0.3465 -0.0313 0.1435
v  0.3750 0.0313 -0.0000
v  0.3465 0.0313 -0.1435
v  0.2652 0.0313 -0.2652
v  0.1435 0.0313 -0.3465
v  -0.0000 0.0313 -0.3750
v  -0.1435 0.0313 -0.3465
v  -0.2652 0.0313 -0.2652
v  -0.3465 0.0313 -0.1435
v  -0.3750 0.0313 -0.0000
v  -0.3465 0.0313 0.1435
v  -0.2652 0.0313 0.2652
v  -0.1435 0.0313 0.3465
v  0.0000 0.0313 0.3750
v  0.1435 0.0313 0.3465
v  0.2652 0.0313 0.2652
v  0.3465 0.0313 0.1435
# 64 vertices

vn 1.0000 0.0000 -0.0000
vn 0.9239 0.0000 -0.3827
vn 0.9239 0.0000 -0.3827
vn 0.9239 0.0000 -0.3827
vn 1.0000 0.0000 -0.0000
vn 1.0000 0.0000 -0.0000
vn 0.9239 0.0000 -0.3827
vn 0.7071 0.0000 -0.7071
vn 0.7071 0.0000 -0.7071
vn 0.7071 0.0000 -0.7071
vn 0.9239 0.0000 -0.3827
vn 0.9239 0.0000 -0.3827
vn 0.7071 0.0000 -0.7071
vn 0.3827 0.0000 -0.9239
vn 0.3827 0.0000 -0.9239
vn 0.3827 0.0000 -0.9239
vn 0.7071 0.0000 -0.7071
vn 0.7071 0.0000 -0.7071
vn 0.3827 0.0000 -0.9239
vn 0.0000 0.0000 -1.0000
vn 0.0000 0.0000 -1.0000
vn 0.0000 0.0000 -1.0000
vn 0.3827 0.0000 -0.9239
vn 0.3827 0.0000 -0.9239
vn 0.0000 0.0000 -1.0000
vn -0.3827 0.0000 -0.9239
vn -0.3827 0.0000 -0.9239
vn -0.3827 0.0000 -0.9239
vn 0.0000 0.0000 -1.0000
vn 0.0000 0.0000 -1.0000
vn -0.3827 0.0000 -0.9239
vn -0.7071 0.0000 -0.7071
vn -0.7071 0.0000 -0.7071
vn -0.7071 0.0000 -0.7071
vn -0.3827 0.0000 -0.9239
vn -0.3827 0.0000 -0.9239
vn -0.7071 0.0000 -0.7071
vn -0.9239 0.0000 -0.3827
vn -0.9239 0.0000 -0.3827
vn -0.9239 0.0000 -0.3827
vn -0.7071 0.0000 -0.7071
vn -0.7071 0.0000 -0.7071
vn -0.9239 0.0000 -0.3827
vn -1.0000 0.0000 -0.0000
vn -1.0000 0.0000 -0.0000
vn -1.0000 0.0000 -0.0000
vn -0.9239 0.0000 -0.3827
vn -0.9239 0.0000 -0.3827
vn -1.0000 0.0000 -0.0000
vn -0.9239 0.0000 0.3827
vn -0.9239 0.0000 0.3827
vn -0.9239 0.0000 0.3827
vn -1.0000 0.0000 -0.0000
vn -1.0000 0.0000 -0.0000
vn -0.9239 0.0000 0.3827
vn -0.7071 0.0000 0.7071
vn -0.7071 0.0000 0.7071
vn -0.7071 0.0000 0.7071
vn -0.9239 0.0000 0.3827
vn -0.9239 0.0000 0.3827
vn -0.7071 0.0000 0.7071
vn -0.3827 0.0000 0.9239
vn -0.3827 0.0000 0.9239
vn -0.3827 0.0000 0.9239
vn -0.7071 0.0000 0.7071
vn -0.7071 0.0000 0.7071
vn -0.3827 0.0000 0.9239
vn 0.0000 0.0000 1.0000
vn 0.0000 0.0000 1.0000
vn 0.0000 0.0000 1.0000
vn -0.3827 0.0000 0.9239
vn -0.3827 0.0000 0.9239
vn 0.0000 0.0000 1.0000
vn 0.3827 0.0000 0.9239
vn 0.3827 0.0000 0.9239
vn 0.3827 0.0000 0.9239
vn 0.0000 0.0000 1.0000
vn 0.0000 0.0000 1.0000
vn 0.3827 0.0000 0.9239
vn 0.7071 0.0000 0.7071
vn 0.7071 0.0000 0.7071
vn 0.7071 0.0000 0.7071
vn 0.3827 0.0000 0.9239
vn 0.3827 0.0000 0.9239
vn 0.7071 0.0000 0.7071
vn 0.9239 0.0000 0.3827
vn 0.9239 0.0000 0.3827
vn 0.9239 0.0000 0.3827
vn 0.7071 0.0000 0.7071
vn 0.7071 0.0000 0.7071
vn 0.9239 0.0000 0.3827
vn 1.0000 0.0000 -0.0000
vn 1.0000 0.0000 -0.0000
vn 1.0000 0.0000 -0.0000
vn 0.9239 0.0000 0.3827
vn 0.9239 0.0000 0.3827
vn 0.0000 -1.0000 -0.0000
vn 0.0000 -1.0000 -0.0000
vn 0.0000 -1.0000 -0.0000
vn 0.0000 -1.0000 -0.0000
vn 0.0000 -1.0000 -0.0000
vn 0.0000 -1.0000 -0.0000
vn 0.0000 -1.0000 -0.0000
vn 0.0000 -1.0000 -0.0000
vn 0.0000 -1.0000 -0.0000
vn 0.0000 -1.0000 -0.0000
vn 0.0000 -1.0000 -0.0000
vn 0.0000 -1.0000 -0.0000
vn 0.0000 -1.0000 -0.0000
vn 0.0000 -1.0000 -0.0000
vn 0.0000 -1.0000 -0.0000
vn 0.0000 -1.0000 -0.0000
vn 0.0000 -1.0000 -0.0000
vn 0.0000 -1.0000 -0.0000
vn 0.0000 -1.0000 -0.0000
vn 0.0000 -1.0000 -0.0000
vn 0.0000 -1.0000 -0.0000
vn 0.0000 -1.0000 -0.0000
vn 0.0000 -1.0000 -0.0000
vn 0.0000 -1.0000 -0.0000
vn 0.0000 -1.0000 -0.0000
vn 0.0000 -1.0000 -0.0000
vn 0.0000 -1.0000 -0.0000
vn 0.0000 -1.0000 -0.0000
vn 0.0000 -1.0000 -0.0000
vn 0.0000 -1.0000 -0.0000
vn 0.0000 -1.0000 -0.0000
vn 0.0000 -1.0000 -0.0000
vn 0.0000 -1.0000 -0.0000
vn 0.0000 -1.0000 -0.0000
vn 0.0000 -1.0000 -0.0000
vn 0.0000 -1.0000 -0.0000
vn 0.0000 -1.0000 -0.0000
vn 0.0000 -1.0000 -0.0000
vn 0.0000 -1.0000 -0.0000
vn 0.0000 -1.0000 -0.0000
vn 0.0000 -1.0000 -0.0000
vn 0.0000 -1.0000 -0.0000
vn 0.0000 1.0000 -0.0000
vn 0.0000 1.0000 -0.0000
vn 0.0000 1.0000 -0.0000
vn 0.0000 1.0000 -0.0000
vn 0.0000 1.0000 -0.0000
vn 0.0000 1.0000 -0.0000
vn 0.0000 1.0000 -0.0000
vn 0.0000 1.0000 -0.0000
vn 0.0000 1.0000 -0.0000
vn 0.0000 1.0000 -0.0000
vn 0.0000 1.0000 -0.0000
vn 0.0000 1.0000 -0.0000
vn 0.0000 1.0000 -0.0000
vn 0.0000 1.0000 -0.0000
vn 0.0000 1.0000 -0.0000
vn 0.0000 1.0000 -0.0000
vn 0.0000 1.0000 -0.0000
vn 0.0000 1.0000 -0.0000
vn 0.0000 1.0000 -0.0000
vn 0.0000 1.0000 -0.0000
vn 0.0000 1.0000 -0.0000
vn 0.0000 1.0000 -0.0000
vn 0.0000 1.0000 -0.0000
vn 0.0000 1.0000 -0.0000
vn 0.0000 1.0000 -0.0000
vn 0.0000 1.0000 -0.0000
vn 0.0000 1.0000 -0.0000
vn 0.0000 1.0000 -0.0000
vn 0.0000 1.0000 -0.0000
vn 0.0000 1.0000 -0.0000
vn 0.0000 1.0000 -0.0000
vn 0.0000 1.0000 -0.0000
vn 0.0000 1.0000 -0.0000
vn 0.0000 1.0000 -0.0000
vn 0.0000 1.0000 -0.0000
vn 0.0000 1.0000 -0.0000
vn 0.0000 1.0000 -0.0000
vn 0.0000 1.0000 -0.0000
vn 0.0000 1.0000 -0.0000
vn 0.0000 1.0000 -0.0000
vn 0.0000 1.0000 -0.0000
vn 0.0000 1.0000 -0.0000
# 180 vertex normals

vt 0.9375 0.2500 0.0000
vt 0.9232 0.3218 0.0000
vt 0.7500 0.0180 0.0000
vt 0.8125 0.0180 0.0000
vt 0.8826 0.3826 0.0000
vt 0.8125 0.0445 0.0000
vt 0.8218 0.4232 0.0000
vt 0.7500 0.0445 0.0000
vt 0.7500 0.4375 0.0000
vt 0.8750 0.0180 0.0000
vt 0.6782 0.4232 0.0000
vt 0.8750 0.0445 0.0000
vt 0.6174 0.3826 0.0000
vt 0.9375 0.0180 0.0000
vt 0.5768 0.3218 0.0000
vt 0.9375 0.0445 0.0000
vt 0.5625 0.2500 0.0000
vt 0.0000 0.0180 0.0000
vt 0.5768 0.1782 0.0000
vt 0.0000 0.0445 0.0000
vt 0.6174 0.1174 0.0000
vt 0.0625 0.0180 0.0000
vt 0.6782 0.0768 0.0000
vt 0.0625 0.0445 0.0000
vt 0.7500 0.0625 0.0000
vt 0.1250 0.0180 0.0000
vt 0.8218 0.0768 0.0000
vt 0.1250 0.0445 0.0000
vt 0.8826 0.1174 0.0000
vt 0.1875 0.0180 0.0000
vt 0.9232 0.1782 0.0000
vt 0.1875 0.0445 0.0000
vt 0.4232 0.3218 0.0000
vt 0.4375 0.2500 0.0000
vt 0.3826 0.3826 0.0000
vt 0.3218 0.4232 0.0000
vt 0.2500 0.4375 0.0000
vt 0.1782 0.4232 0.0000
vt 0.1174 0.3826 0.0000
vt 0.0768 0.3218 0.0000
vt 0.0625 0.2500 0.0000
vt 0.0768 0.1782 0.0000
vt 0.1174 0.1174 0.0000
vt 0.1782 0.0768 0.0000
vt 0.2500 0.0625 0.0000
vt 0.3218 0.0768 0.0000
vt 0.3826 0.1174 0.0000
vt 0.4232 0.1782 0.0000
vt 0.2500 0.0180 0.0000
vt 0.2500 0.0445 0.0000
vt 0.3125 0.0180 0.0000
vt 0.3125 0.0445 0.0000
vt 0.3750 0.0180 0.0000
vt 0.3750 0.0445 0.0000
vt 0.4375 0.0180 0.0000
vt 0.4375 0.0445 0.0000
vt 0.5000 0.0180 0.0000
vt 0.5000 0.0445 0.0000
vt 0.5625 0.0180 0.0000
vt 0.5625 0.0445 0.0000
vt 0.6250 0.0180 0.0000
vt 0.6250 0.0445 0.0000
vt 0.6875 0.0180 0.0000
vt 0.6875 0.0445 0.0000
vt 1.0000 0.0180 0.0000
vt 1.0000 0.0445 0.0000
# 66 texture coords

g DiamondV_BASE
usemtl wire_176026026
f 17/19/37 50/20/38 66/22/39 
f 66/22/40 65/24/41 17/19/42 
f 50/20/43 51/26/44 67/28/45 
f 67/28/46 66/22/47 50/20/48 
f 51/26/49 52/30/50 68/32/51 
f 68/32/52 67/28/53 51/26/54 
f 52/30/55 53/81/56 69/82/57 
f 69/82/58 68/32/59 52/30/60 
f 53/34/61 54/38/62 70/40/63 
f 70/40/64 69/36/65 53/34/66 
f 54/38/67 55/42/68 71/44/69 
f 71/44/70 70/40/71 54/38/72 
f 55/42/73 56/46/74 72/48/75 
f 72/48/76 71/44/77 55/42/78 
f 56/46/79 57/65/80 73/66/81 
f 73/66/82 72/48/83 56/46/84 
f 57/65/85 58/67/86 74/68/87 
f 74/68/88 73/66/89 57/65/90 
f 58/67/91 59/69/92 75/70/93 
f 75/70/94 74/68/95 58/67/96 
f 59/69/97 60/71/98 76/72/99 
f 76/72/100 75/70/101 59/69/102 
f 60/71/103 61/73/104 77/74/105 
f 77/74/106 76/72/107 60/71/108 
f 61/73/109 62/75/110 78/76/111 
f 78/76/112 77/74/113 61/73/114 
f 62/75/115 63/77/116 79/78/117 
f 79/78/118 78/76/119 62/75/120 
f 63/77/121 32/79/122 80/80/123 
f 80/80/124 79/78/125 63/77/126 
f 32/79/127 17/19/128 65/24/129 
f 65/24/130 80/80/131 32/79/132 
f 31/45/133 30/43/134 29/41/135 
f 29/41/136 28/39/137 27/37/138 
f 27/37/139 26/35/140 25/33/141 
f 29/41/142 27/37/143 25/33/144 
f 25/33/145 24/31/146 23/29/147 
f 23/29/148 22/27/149 21/25/150 
f 25/33/151 23/29/152 21/25/153 
f 21/25/154 20/23/155 19/21/156 
f 19/21/157 18/18/158 49/17/159 
f 21/25/160 19/21/161 49/17/162 
f 25/33/163 21/25/164 49/17/165 
f 29/41/166 25/33/167 49/17/168 
f 31/45/169 29/41/170 49/17/171 
f 64/47/172 31/45/173 49/17/174 
f 34/49/175 35/51/176 36/52/177 
f 36/52/178 37/53/179 38/54/180 
f 38/54/181 39/55/182 40/56/183 
f 36/52/184 38/54/185 40/56/186 
f 40/56/187 41/57/188 42/58/189 
f 42/58/190 43/59/191 44/60/192 
f 40/56/193 42/58/194 44/60/195 
f 44/60/196 45/61/197 46/62/198 
f 46/62/199 47/63/200 48/64/201 
f 44/60/202 46/62/203 48/64/204 
f 40/56/205 44/60/206 48/64/207 
f 36/52/208 40/56/209 48/64/210 
f 34/49/211 36/52/212 48/64/213 
f 33/50/214 34/49/215 48/64/216 
# 60 faces

