# 3ds Max Wavefront OBJ Exporter v0.97b - (c)2007 guruware
# File Created: 11.03.2017 15:07:40

mtllib EyeV_MSH.mtl

#
# object EyeV_BASE
#

v  0.3750 -0.0313 -0.0000
v  0.3465 -0.0313 -0.1435
v  0.2652 -0.0313 -0.2652
v  0.1435 -0.0313 -0.3465
v  -0.0000 -0.0313 -0.3750
v  -0.1435 -0.0313 -0.3465
v  -0.2652 -0.0313 -0.2652
v  -0.3465 -0.0313 -0.1435
v  -0.3750 -0.0313 -0.0000
v  -0.3465 -0.0313 0.1435
v  -0.2652 -0.0313 0.2652
v  -0.1435 -0.0313 0.3465
v  0.0000 -0.0313 0.3750
v  0.1435 -0.0313 0.3465
v  0.2652 -0.0313 0.2652
v  0.3465 -0.0313 0.1435
v  0.3750 0.0313 -0.0000
v  0.3465 0.0313 -0.1435
v  0.2652 0.0313 -0.2652
v  0.1435 0.0313 -0.3465
v  -0.0000 0.0313 -0.3750
v  -0.1435 0.0313 -0.3465
v  -0.2652 0.0313 -0.2652
v  -0.3465 0.0313 -0.1435
v  -0.3750 0.0313 -0.0000
v  -0.3465 0.0313 0.1435
v  -0.2652 0.0313 0.2652
v  -0.1435 0.0313 0.3465
v  0.0000 0.0313 0.3750
v  0.1435 0.0313 0.3465
v  0.2652 0.0313 0.2652
v  0.3465 0.0313 0.1435
v  0.3750 -0.0313 -0.0000
v  0.3465 -0.0313 -0.1435
v  0.2652 -0.0313 -0.2652
v  0.1435 -0.0313 -0.3465
v  -0.0000 -0.0313 -0.3750
v  -0.1435 -0.0313 -0.3465
v  -0.2652 -0.0313 -0.2652
v  -0.3465 -0.0313 -0.1435
v  -0.3750 -0.0313 -0.0000
v  -0.3465 -0.0313 0.1435
v  -0.2652 -0.0313 0.2652
v  -0.1435 -0.0313 0.3465
v  0.0000 -0.0313 0.3750
v  0.1435 -0.0313 0.3465
v  0.2652 -0.0313 0.2652
v  0.3465 -0.0313 0.1435
v  0.3750 0.0313 -0.0000
v  0.3465 0.0313 -0.1435
v  0.2652 0.0313 -0.2652
v  0.1435 0.0313 -0.3465
v  -0.0000 0.0313 -0.3750
v  -0.1435 0.0313 -0.3465
v  -0.2652 0.0313 -0.2652
v  -0.3465 0.0313 -0.1435
v  -0.3750 0.0313 -0.0000
v  -0.3465 0.0313 0.1435
v  -0.2652 0.0313 0.2652
v  -0.1435 0.0313 0.3465
v  0.0000 0.0313 0.3750
v  0.1435 0.0313 0.3465
v  0.2652 0.0313 0.2652
v  0.3465 0.0313 0.1435
# 64 vertices

vn 1.0000 0.0000 -0.0000
vn 0.9239 0.0000 -0.3827
vn 0.9239 0.0000 -0.3827
vn 0.9239 0.0000 -0.3827
vn 1.0000 0.0000 -0.0000
vn 1.0000 0.0000 -0.0000
vn 0.9239 0.0000 -0.3827
vn 0.7071 0.0000 -0.7071
vn 0.7071 0.0000 -0.7071
vn 0.7071 0.0000 -0.7071
vn 0.9239 0.0000 -0.3827
vn 0.9239 0.0000 -0.3827
vn 0.7071 0.0000 -0.7071
vn 0.3827 0.0000 -0.9239
vn 0.3827 0.0000 -0.9239
vn 0.3827 0.0000 -0.9239
vn 0.7071 0.0000 -0.7071
vn 0.7071 0.0000 -0.7071
vn 0.3827 0.0000 -0.9239
vn 0.0000 0.0000 -1.0000
vn 0.0000 0.0000 -1.0000
vn 0.0000 0.0000 -1.0000
vn 0.3827 0.0000 -0.9239
vn 0.3827 0.0000 -0.9239
vn 0.0000 0.0000 -1.0000
vn -0.3827 0.0000 -0.9239
vn -0.3827 0.0000 -0.9239
vn -0.3827 0.0000 -0.9239
vn 0.0000 0.0000 -1.0000
vn 0.0000 0.0000 -1.0000
vn -0.3827 0.0000 -0.9239
vn -0.7071 0.0000 -0.7071
vn -0.7071 0.0000 -0.7071
vn -0.7071 0.0000 -0.7071
vn -0.3827 0.0000 -0.9239
vn -0.3827 0.0000 -0.9239
vn -0.7071 0.0000 -0.7071
vn -0.9239 0.0000 -0.3827
vn -0.9239 0.0000 -0.3827
vn -0.9239 0.0000 -0.3827
vn -0.7071 0.0000 -0.7071
vn -0.7071 0.0000 -0.7071
vn -0.9239 0.0000 -0.3827
vn -1.0000 0.0000 -0.0000
vn -1.0000 0.0000 -0.0000
vn -1.0000 0.0000 -0.0000
vn -0.9239 0.0000 -0.3827
vn -0.9239 0.0000 -0.3827
vn -1.0000 0.0000 -0.0000
vn -0.9239 0.0000 0.3827
vn -0.9239 0.0000 0.3827
vn -0.9239 0.0000 0.3827
vn -1.0000 0.0000 -0.0000
vn -1.0000 0.0000 -0.0000
vn -0.9239 0.0000 0.3827
vn -0.7071 0.0000 0.7071
vn -0.7071 0.0000 0.7071
vn -0.7071 0.0000 0.7071
vn -0.9239 0.0000 0.3827
vn -0.9239 0.0000 0.3827
vn -0.7071 0.0000 0.7071
vn -0.3827 0.0000 0.9239
vn -0.3827 0.0000 0.9239
vn -0.3827 0.0000 0.9239
vn -0.7071 0.0000 0.7071
vn -0.7071 0.0000 0.7071
vn -0.3827 0.0000 0.9239
vn 0.0000 0.0000 1.0000
vn 0.0000 0.0000 1.0000
vn 0.0000 0.0000 1.0000
vn -0.3827 0.0000 0.9239
vn -0.3827 0.0000 0.9239
vn 0.0000 0.0000 1.0000
vn 0.3827 0.0000 0.9239
vn 0.3827 0.0000 0.9239
vn 0.3827 0.0000 0.9239
vn 0.0000 0.0000 1.0000
vn 0.0000 0.0000 1.0000
vn 0.3827 0.0000 0.9239
vn 0.7071 0.0000 0.7071
vn 0.7071 0.0000 0.7071
vn 0.7071 0.0000 0.7071
vn 0.3827 0.0000 0.9239
vn 0.3827 0.0000 0.9239
vn 0.7071 0.0000 0.7071
vn 0.9239 0.0000 0.3827
vn 0.9239 0.0000 0.3827
vn 0.9239 0.0000 0.3827
vn 0.7071 0.0000 0.7071
vn 0.7071 0.0000 0.7071
vn 0.9239 0.0000 0.3827
vn 1.0000 0.0000 -0.0000
vn 1.0000 0.0000 -0.0000
vn 1.0000 0.0000 -0.0000
vn 0.9239 0.0000 0.3827
vn 0.9239 0.0000 0.3827
vn 0.0000 -1.0000 -0.0000
vn 0.0000 -1.0000 -0.0000
vn 0.0000 -1.0000 -0.0000
vn 0.0000 -1.0000 -0.0000
vn 0.0000 -1.0000 -0.0000
vn 0.0000 -1.0000 -0.0000
vn 0.0000 -1.0000 -0.0000
vn 0.0000 -1.0000 -0.0000
vn 0.0000 -1.0000 -0.0000
vn 0.0000 -1.0000 -0.0000
vn 0.0000 -1.0000 -0.0000
vn 0.0000 -1.0000 -0.0000
vn 0.0000 -1.0000 -0.0000
vn 0.0000 -1.0000 -0.0000
vn 0.0000 -1.0000 -0.0000
vn 0.0000 -1.0000 -0.0000
vn 0.0000 -1.0000 -0.0000
vn 0.0000 -1.0000 -0.0000
vn 0.0000 -1.0000 -0.0000
vn 0.0000 -1.0000 -0.0000
vn 0.0000 -1.0000 -0.0000
vn 0.0000 -1.0000 -0.0000
vn 0.0000 -1.0000 -0.0000
vn 0.0000 -1.0000 -0.0000
vn 0.0000 -1.0000 -0.0000
vn 0.0000 -1.0000 -0.0000
vn 0.0000 -1.0000 -0.0000
vn 0.0000 -1.0000 -0.0000
vn 0.0000 -1.0000 -0.0000
vn 0.0000 -1.0000 -0.0000
vn 0.0000 -1.0000 -0.0000
vn 0.0000 -1.0000 -0.0000
vn 0.0000 -1.0000 -0.0000
vn 0.0000 -1.0000 -0.0000
vn 0.0000 -1.0000 -0.0000
vn 0.0000 -1.0000 -0.0000
vn 0.0000 -1.0000 -0.0000
vn 0.0000 -1.0000 -0.0000
vn 0.0000 -1.0000 -0.0000
vn 0.0000 -1.0000 -0.0000
vn 0.0000 -1.0000 -0.0000
vn 0.0000 -1.0000 -0.0000
vn 0.0000 1.0000 -0.0000
vn 0.0000 1.0000 -0.0000
vn 0.0000 1.0000 -0.0000
vn 0.0000 1.0000 -0.0000
vn 0.0000 1.0000 -0.0000
vn 0.0000 1.0000 -0.0000
vn 0.0000 1.0000 -0.0000
vn 0.0000 1.0000 -0.0000
vn 0.0000 1.0000 -0.0000
vn 0.0000 1.0000 -0.0000
vn 0.0000 1.0000 -0.0000
vn 0.0000 1.0000 -0.0000
vn 0.0000 1.0000 -0.0000
vn 0.0000 1.0000 -0.0000
vn 0.0000 1.0000 -0.0000
vn 0.0000 1.0000 -0.0000
vn 0.0000 1.0000 -0.0000
vn 0.0000 1.0000 -0.0000
vn 0.0000 1.0000 -0.0000
vn 0.0000 1.0000 -0.0000
vn 0.0000 1.0000 -0.0000
vn 0.0000 1.0000 -0.0000
vn 0.0000 1.0000 -0.0000
vn 0.0000 1.0000 -0.0000
vn 0.0000 1.0000 -0.0000
vn 0.0000 1.0000 -0.0000
vn 0.0000 1.0000 -0.0000
vn 0.0000 1.0000 -0.0000
vn 0.0000 1.0000 -0.0000
vn 0.0000 1.0000 -0.0000
vn 0.0000 1.0000 -0.0000
vn 0.0000 1.0000 -0.0000
vn 0.0000 1.0000 -0.0000
vn 0.0000 1.0000 -0.0000
vn 0.0000 1.0000 -0.0000
vn 0.0000 1.0000 -0.0000
vn 0.0000 1.0000 -0.0000
vn 0.0000 1.0000 -0.0000
vn 0.0000 1.0000 -0.0000
vn 0.0000 1.0000 -0.0000
vn 0.0000 1.0000 -0.0000
vn 0.0000 1.0000 -0.0000
# 180 vertex normals

vt 0.5625 0.2500 0.0000
vt 0.5768 0.3218 0.0000
vt 0.7500 0.0180 0.0000
vt 0.8125 0.0180 0.0000
vt 0.6174 0.3826 0.0000
vt 0.8125 0.0445 0.0000
vt 0.6782 0.4232 0.0000
vt 0.7500 0.0445 0.0000
vt 0.7500 0.4375 0.0000
vt 0.8750 0.0180 0.0000
vt 0.8218 0.4232 0.0000
vt 0.8750 0.0445 0.0000
vt 0.8826 0.3826 0.0000
vt 0.9375 0.0180 0.0000
vt 0.9232 0.3218 0.0000
vt 0.9375 0.0445 0.0000
vt 0.9375 0.2500 0.0000
vt 0.0000 0.0180 0.0000
vt 0.9232 0.1782 0.0000
vt 0.0000 0.0445 0.0000
vt 0.8826 0.1174 0.0000
vt 0.0625 0.0180 0.0000
vt 0.8218 0.0768 0.0000
vt 0.0625 0.0445 0.0000
vt 0.7500 0.0625 0.0000
vt 0.1250 0.0180 0.0000
vt 0.6782 0.0768 0.0000
vt 0.1250 0.0445 0.0000
vt 0.6174 0.1174 0.0000
vt 0.1875 0.0180 0.0000
vt 0.5768 0.1782 0.0000
vt 0.1875 0.0445 0.0000
vt 0.4232 0.3218 0.0000
vt 0.4375 0.2500 0.0000
vt 0.3826 0.3826 0.0000
vt 0.3218 0.4232 0.0000
vt 0.2500 0.4375 0.0000
vt 0.1782 0.4232 0.0000
vt 0.1174 0.3826 0.0000
vt 0.0768 0.3218 0.0000
vt 0.0625 0.2500 0.0000
vt 0.0768 0.1782 0.0000
vt 0.1174 0.1174 0.0000
vt 0.1782 0.0768 0.0000
vt 0.2500 0.0625 0.0000
vt 0.3218 0.0768 0.0000
vt 0.3826 0.1174 0.0000
vt 0.4232 0.1782 0.0000
vt 0.2500 0.0180 0.0000
vt 0.2500 0.0445 0.0000
vt 0.3125 0.0180 0.0000
vt 0.3125 0.0445 0.0000
vt 0.3750 0.0180 0.0000
vt 0.3750 0.0445 0.0000
vt 0.4375 0.0180 0.0000
vt 0.4375 0.0445 0.0000
vt 0.5000 0.0180 0.0000
vt 0.5000 0.0445 0.0000
vt 0.5625 0.0180 0.0000
vt 0.5625 0.0445 0.0000
vt 0.6250 0.0180 0.0000
vt 0.6250 0.0445 0.0000
vt 0.6875 0.0180 0.0000
vt 0.6875 0.0445 0.0000
vt 1.0000 0.0180 0.0000
vt 1.0000 0.0445 0.0000
# 66 texture coords

g EyeV_BASE
usemtl Material__2
f 1/3/1 34/4/2 50/6/3 
f 50/6/4 49/8/5 1/3/6 
f 34/4/7 35/10/8 51/12/9 
f 51/12/10 50/6/11 34/4/12 
f 35/10/13 36/14/14 52/16/15 
f 52/16/16 51/12/17 35/10/18 
f 36/14/19 37/65/20 53/66/21 
f 53/66/22 52/16/23 36/14/24 
f 37/18/25 38/22/26 54/24/27 
f 54/24/28 53/20/29 37/18/30 
f 38/22/31 39/26/32 55/28/33 
f 55/28/34 54/24/35 38/22/36 
f 39/26/37 40/30/38 56/32/39 
f 56/32/40 55/28/41 39/26/42 
f 40/30/43 41/49/44 57/50/45 
f 57/50/46 56/32/47 40/30/48 
f 41/49/49 42/51/50 58/52/51 
f 58/52/52 57/50/53 41/49/54 
f 42/51/55 43/53/56 59/54/57 
f 59/54/58 58/52/59 42/51/60 
f 43/53/61 44/55/62 60/56/63 
f 60/56/64 59/54/65 43/53/66 
f 44/55/67 45/57/68 61/58/69 
f 61/58/70 60/56/71 44/55/72 
f 45/57/73 46/59/74 62/60/75 
f 62/60/76 61/58/77 45/57/78 
f 46/59/79 47/61/80 63/62/81 
f 63/62/82 62/60/83 46/59/84 
f 47/61/85 16/63/86 64/64/87 
f 64/64/88 63/62/89 47/61/90 
f 16/63/91 1/3/92 49/8/93 
f 49/8/94 64/64/95 16/63/96 
f 15/29/97 14/27/98 13/25/99 
f 13/25/100 12/23/101 11/21/102 
f 11/21/103 10/19/104 9/17/105 
f 13/25/106 11/21/107 9/17/108 
f 9/17/109 8/15/110 7/13/111 
f 7/13/112 6/11/113 5/9/114 
f 9/17/115 7/13/116 5/9/117 
f 5/9/118 4/7/119 3/5/120 
f 3/5/121 2/2/122 33/1/123 
f 5/9/124 3/5/125 33/1/126 
f 9/17/127 5/9/128 33/1/129 
f 13/25/130 9/17/131 33/1/132 
f 15/29/133 13/25/134 33/1/135 
f 48/31/136 15/29/137 33/1/138 
f 18/33/139 19/35/140 20/36/141 
f 20/36/142 21/37/143 22/38/144 
f 22/38/145 23/39/146 24/40/147 
f 20/36/148 22/38/149 24/40/150 
f 24/40/151 25/41/152 26/42/153 
f 26/42/154 27/43/155 28/44/156 
f 24/40/157 26/42/158 28/44/159 
f 28/44/160 29/45/161 30/46/162 
f 30/46/163 31/47/164 32/48/165 
f 28/44/166 30/46/167 32/48/168 
f 24/40/169 28/44/170 32/48/171 
f 20/36/172 24/40/173 32/48/174 
f 18/33/175 20/36/176 32/48/177 
f 17/34/178 18/33/179 32/48/180 
# 60 faces

#
# object EyeV
#

v  0.0008 1.2500 0.0313
v  -0.1315 1.1597 0.0313
v  -0.2326 1.0425 0.0313
v  -0.2973 0.9041 0.0313
v  -0.3200 0.7500 0.0312
v  -0.2973 0.5959 0.0312
v  -0.2326 0.4575 0.0312
v  -0.1315 0.3404 0.0312
v  0.0008 0.2500 0.0312
v  0.1322 0.3404 0.0312
v  0.2329 0.4575 0.0312
v  0.2973 0.5959 0.0312
v  0.3200 0.7500 0.0313
v  0.2973 0.9041 0.0313
v  0.2329 1.0425 0.0313
v  0.1322 1.1596 0.0313
v  0.0008 1.2500 -0.0312
v  -0.1315 1.1597 -0.0312
v  -0.2326 1.0425 -0.0312
v  -0.2973 0.9041 -0.0312
v  -0.3200 0.7500 -0.0313
v  -0.2973 0.5959 -0.0313
v  -0.2326 0.4575 -0.0313
v  -0.1315 0.3404 -0.0313
v  0.0008 0.2500 -0.0313
v  0.1322 0.3404 -0.0313
v  0.2329 0.4575 -0.0313
v  0.2973 0.5959 -0.0313
v  0.3200 0.7500 -0.0313
v  0.2973 0.9041 -0.0312
v  0.2329 1.0425 -0.0312
v  0.1322 1.1596 -0.0312
v  0.0008 1.2500 0.0313
v  0.0008 1.2500 0.0313
v  -0.1315 1.1597 0.0313
v  -0.2326 1.0425 0.0313
v  -0.2973 0.9041 0.0313
v  -0.3200 0.7500 0.0312
v  -0.2973 0.5959 0.0312
v  -0.2326 0.4575 0.0312
v  -0.1315 0.3404 0.0312
v  0.0008 0.2500 0.0312
v  0.0008 0.2500 0.0312
v  0.1322 0.3404 0.0312
v  0.2329 0.4575 0.0312
v  0.2973 0.5959 0.0312
v  0.3200 0.7500 0.0313
v  0.2973 0.9041 0.0313
v  0.2329 1.0425 0.0313
v  0.1322 1.1596 0.0313
v  0.0008 1.2500 -0.0312
v  0.0008 1.2500 -0.0312
v  -0.1315 1.1597 -0.0312
v  -0.2326 1.0425 -0.0312
v  -0.2973 0.9041 -0.0312
v  -0.3200 0.7500 -0.0313
v  -0.2973 0.5959 -0.0313
v  -0.2326 0.4575 -0.0313
v  -0.1315 0.3404 -0.0313
v  0.0008 0.2500 -0.0313
v  0.0008 0.2500 -0.0313
v  0.1322 0.3404 -0.0313
v  0.2329 0.4575 -0.0313
v  0.2973 0.5959 -0.0313
v  0.3200 0.7500 -0.0313
v  0.2973 0.9041 -0.0312
v  0.2329 1.0425 -0.0312
v  0.1322 1.1596 -0.0312
# 68 vertices

vn 0.0000 -0.0000 1.0000
vn 0.0000 -0.0000 1.0000
vn 0.0000 -0.0000 1.0000
vn 0.0000 -0.0000 1.0000
vn 0.0000 -0.0000 1.0000
vn 0.0000 -0.0000 1.0000
vn 0.0000 -0.0000 1.0000
vn 0.0000 -0.0000 1.0000
vn -0.0000 -0.0000 1.0000
vn -0.0000 -0.0000 1.0000
vn 0.0000 -0.0000 1.0000
vn -0.0000 -0.0000 1.0000
vn -0.0000 -0.0000 1.0000
vn -0.0000 -0.0000 1.0000
vn -0.0000 -0.0000 1.0000
vn -0.0000 -0.0000 1.0000
vn -0.0000 -0.0000 1.0000
vn -0.0000 -0.0000 1.0000
vn -0.0000 -0.0000 1.0000
vn -0.0000 -0.0000 1.0000
vn -0.0000 -0.0000 1.0000
vn -0.0000 -0.0000 1.0000
vn -0.0000 -0.0000 1.0000
vn -0.0000 -0.0000 1.0000
vn -0.0000 -0.0000 1.0000
vn -0.0000 -0.0000 1.0000
vn -0.0000 -0.0000 1.0000
vn -0.0000 -0.0000 1.0000
vn -0.0000 -0.0000 1.0000
vn 0.0000 -0.0000 1.0000
vn 0.0000 -0.0000 1.0000
vn -0.0000 -0.0000 1.0000
vn 0.0000 -0.0000 1.0000
vn 0.0000 -0.0000 1.0000
vn 0.0000 -0.0000 1.0000
vn 0.0000 -0.0000 1.0000
vn 0.0000 -0.0000 1.0000
vn 0.0000 -0.0000 1.0000
vn 0.0000 -0.0000 1.0000
vn 0.0000 -0.0000 1.0000
vn 0.0000 -0.0000 1.0000
vn 0.0000 -0.0000 1.0000
vn 0.0000 0.0000 -1.0000
vn 0.0000 0.0000 -1.0000
vn 0.0000 0.0000 -1.0000
vn 0.0000 0.0000 -1.0000
vn 0.0000 0.0000 -1.0000
vn 0.0000 0.0000 -1.0000
vn 0.0000 0.0000 -1.0000
vn 0.0000 0.0000 -1.0000
vn 0.0000 0.0000 -1.0000
vn 0.0000 0.0000 -1.0000
vn 0.0000 0.0000 -1.0000
vn 0.0000 0.0000 -1.0000
vn 0.0000 0.0000 -1.0000
vn 0.0000 0.0000 -1.0000
vn 0.0000 0.0000 -1.0000
vn 0.0000 0.0000 -1.0000
vn 0.0000 0.0000 -1.0000
vn 0.0000 0.0000 -1.0000
vn 0.0000 0.0000 -1.0000
vn 0.0000 0.0000 -1.0000
vn 0.0000 0.0000 -1.0000
vn 0.0000 0.0000 -1.0000
vn 0.0000 0.0000 -1.0000
vn 0.0000 0.0000 -1.0000
vn 0.0000 0.0000 -1.0000
vn 0.0000 0.0000 -1.0000
vn 0.0000 0.0000 -1.0000
vn 0.0000 0.0000 -1.0000
vn 0.0000 0.0000 -1.0000
vn 0.0000 0.0000 -1.0000
vn 0.0000 0.0000 -1.0000
vn 0.0000 0.0000 -1.0000
vn 0.0000 0.0000 -1.0000
vn 0.0000 0.0000 -1.0000
vn 0.0000 0.0000 -1.0000
vn 0.0000 0.0000 -1.0000
vn 0.0000 0.0000 -1.0000
vn 0.0000 0.0000 -1.0000
vn 0.0000 0.0000 -1.0000
vn 0.0000 0.0000 -1.0000
vn 0.0000 0.0000 -1.0000
vn 0.0000 0.0000 -1.0000
vn -0.6660 -0.7459 -0.0000
vn -0.5639 -0.8258 -0.0000
vn -0.5639 -0.8258 -0.0000
vn -0.5639 -0.8258 -0.0000
vn -0.6660 -0.7459 -0.0000
vn -0.6660 -0.7459 -0.0000
vn 0.5667 -0.8239 -0.0000
vn 0.6682 -0.7440 -0.0000
vn 0.6682 -0.7440 -0.0000
vn 0.6682 -0.7440 -0.0000
vn 0.5667 -0.8239 -0.0000
vn 0.5667 -0.8239 -0.0000
vn 0.6682 -0.7440 -0.0000
vn 0.8404 -0.5419 -0.0000
vn 0.8404 -0.5419 -0.0000
vn 0.8404 -0.5419 -0.0000
vn 0.6682 -0.7440 -0.0000
vn 0.6682 -0.7440 -0.0000
vn 0.6682 0.7440 0.0000
vn 0.5667 0.8239 0.0000
vn 0.5667 0.8239 0.0000
vn 0.5667 0.8239 0.0000
vn 0.6682 0.7440 0.0000
vn 0.6682 0.7440 0.0000
vn -0.5639 0.8258 0.0000
vn -0.6660 0.7459 0.0000
vn -0.6660 0.7459 0.0000
vn -0.6660 0.7459 0.0000
vn -0.5639 0.8258 0.0000
vn -0.5639 0.8258 0.0000
vn 0.8404 0.5419 0.0000
vn 0.6682 0.7440 0.0000
vn 0.6682 0.7440 0.0000
vn 0.6682 0.7440 0.0000
vn 0.8404 0.5419 0.0000
vn 0.8404 0.5419 0.0000
vn -0.6660 0.7459 0.0000
vn -0.8395 0.5434 0.0000
vn -0.8395 0.5434 0.0000
vn -0.8395 0.5434 0.0000
vn -0.6660 0.7459 0.0000
vn -0.6660 0.7459 0.0000
vn 0.9580 0.2869 0.0000
vn 0.8404 0.5419 0.0000
vn 0.8404 0.5419 0.0000
vn 0.8404 0.5419 0.0000
vn 0.9580 0.2869 0.0000
vn 0.9580 0.2869 0.0000
vn -0.8395 0.5434 0.0000
vn -0.9578 0.2875 0.0000
vn -0.9578 0.2875 0.0000
vn -0.9578 0.2875 0.0000
vn -0.8395 0.5434 0.0000
vn -0.8395 0.5434 0.0000
vn 1.0000 0.0000 0.0000
vn 0.9580 0.2869 0.0000
vn 0.9580 0.2869 0.0000
vn 0.9580 0.2869 0.0000
vn 1.0000 0.0000 0.0000
vn 1.0000 0.0000 0.0000
vn -0.9578 0.2875 0.0000
vn -1.0000 0.0000 0.0000
vn -1.0000 0.0000 0.0000
vn -1.0000 0.0000 0.0000
vn -0.9578 0.2875 0.0000
vn -0.9578 0.2875 0.0000
vn -1.0000 0.0000 0.0000
vn -0.9578 -0.2875 -0.0000
vn -0.9578 -0.2875 -0.0000
vn -0.9578 -0.2875 -0.0000
vn -1.0000 0.0000 0.0000
vn -1.0000 0.0000 0.0000
vn 0.9580 -0.2869 -0.0000
vn 1.0000 0.0000 0.0000
vn 1.0000 0.0000 0.0000
vn 1.0000 0.0000 0.0000
vn 0.9580 -0.2869 -0.0000
vn 0.9580 -0.2869 -0.0000
vn -0.9578 -0.2875 -0.0000
vn -0.8395 -0.5434 -0.0000
vn -0.8395 -0.5434 -0.0000
vn -0.8395 -0.5434 -0.0000
vn -0.9578 -0.2875 -0.0000
vn -0.9578 -0.2875 -0.0000
vn 0.8404 -0.5419 -0.0000
vn 0.9580 -0.2869 -0.0000
vn 0.9580 -0.2869 -0.0000
vn 0.9580 -0.2869 -0.0000
vn 0.8404 -0.5419 -0.0000
vn 0.8404 -0.5419 -0.0000
vn -0.8395 -0.5434 -0.0000
vn -0.6660 -0.7459 -0.0000
vn -0.6660 -0.7459 -0.0000
vn -0.6660 -0.7459 -0.0000
vn -0.8395 -0.5434 -0.0000
vn -0.8395 -0.5434 -0.0000
# 180 vertex normals

vt 0.2996 0.9026 0.0000
vt 0.2503 0.9365 0.0000
vt 0.2007 0.9026 0.0000
vt 0.1628 0.8587 0.0000
vt 0.1385 0.8068 0.0000
vt 0.1300 0.7490 0.0000
vt 0.1385 0.6912 0.0000
vt 0.1628 0.6393 0.0000
vt 0.2007 0.5954 0.0000
vt 0.2503 0.5615 0.0000
vt 0.2996 0.5954 0.0000
vt 0.3373 0.6393 0.0000
vt 0.3615 0.6912 0.0000
vt 0.3700 0.7490 0.0000
vt 0.3615 0.8068 0.0000
vt 0.3373 0.8587 0.0000
vt 0.7134 0.5437 0.0000
vt 0.6713 0.5437 0.0000
vt 0.6713 0.5188 0.0000
vt 0.7134 0.5188 0.0000
vt 0.7553 0.5437 0.0000
vt 0.7553 0.5188 0.0000
vt 0.8022 0.5437 0.0000
vt 0.8022 0.5188 0.0000
vt 0.2129 0.5437 0.0000
vt 0.1514 0.5437 0.0000
vt 0.1514 0.5188 0.0000
vt 0.2129 0.5188 0.0000
vt 0.2747 0.5437 0.0000
vt 0.2747 0.5188 0.0000
vt 0.0789 0.5437 0.0000
vt 0.0789 0.5188 0.0000
vt 0.3475 0.5437 0.0000
vt 0.3475 0.5188 0.0000
vt 0.0000 0.5437 0.0000
vt 0.0000 0.5188 0.0000
vt 0.4264 0.5437 0.0000
vt 0.4264 0.5188 0.0000
vt 0.9231 0.5437 0.0000
vt 0.9231 0.5188 0.0000
vt 0.5033 0.5437 0.0000
vt 0.5033 0.5188 0.0000
vt 0.5696 0.5437 0.0000
vt 0.5696 0.5188 0.0000
vt 0.8568 0.5437 0.0000
vt 0.8568 0.5188 0.0000
vt 0.6242 0.5437 0.0000
vt 0.6242 0.5188 0.0000
vt 1.0000 0.5437 0.0000
vt 1.0000 0.5188 0.0000
vt 0.7993 0.9026 0.0000
vt 0.7497 0.9365 0.0000
vt 0.7004 0.9026 0.0000
vt 0.6627 0.8587 0.0000
vt 0.6385 0.8068 0.0000
vt 0.6300 0.7490 0.0000
vt 0.6385 0.6912 0.0000
vt 0.6627 0.6393 0.0000
vt 0.7004 0.5954 0.0000
vt 0.7497 0.5615 0.0000
vt 0.7993 0.5954 0.0000
vt 0.8372 0.6393 0.0000
vt 0.8615 0.6912 0.0000
vt 0.8700 0.7490 0.0000
vt 0.8615 0.8068 0.0000
vt 0.8372 0.8587 0.0000
# 66 texture coords

g EyeV
usemtl Material__2
f 80/67/181 65/68/182 99/69/183 
f 105/75/184 107/76/185 108/77/186 
f 105/75/187 108/77/188 109/78/189 
f 104/74/190 105/75/191 109/78/192 
f 104/74/193 109/78/194 110/79/195 
f 103/73/196 104/74/197 110/79/198 
f 103/73/199 110/79/200 111/80/201 
f 102/72/202 103/73/203 111/80/204 
f 101/71/205 102/72/206 111/80/207 
f 101/71/208 111/80/209 112/81/210 
f 100/70/211 101/71/212 112/81/213 
f 100/70/214 112/81/215 113/82/216 
f 99/69/217 100/70/218 113/82/219 
f 80/67/220 99/69/221 113/82/222 
f 82/117/223 115/118/224 96/119/225 
f 82/117/226 96/119/227 95/120/228 
f 90/125/229 124/126/230 88/127/231 
f 91/124/232 90/125/233 88/127/234 
f 91/124/235 88/127/236 87/128/237 
f 92/123/238 91/124/239 87/128/240 
f 92/123/241 87/128/242 86/129/243 
f 93/122/244 92/123/245 86/129/246 
f 93/122/247 86/129/248 85/130/249 
f 93/122/250 85/130/251 84/131/252 
f 94/121/253 93/122/254 84/131/255 
f 94/121/256 84/131/257 83/132/258 
f 95/120/259 94/121/260 83/132/261 
f 82/117/262 95/120/263 83/132/264 
f 123/85/265 89/86/266 73/83/267 
f 73/83/268 72/84/269 123/85/270 
f 125/86/271 126/88/272 74/87/273 
f 74/87/274 106/83/275 125/86/276 
f 126/88/277 127/90/278 75/89/279 
f 75/89/280 74/87/281 126/88/282 
f 132/93/283 81/94/284 97/91/285 
f 97/91/286 114/92/287 132/93/288 
f 116/94/289 117/96/290 66/95/291 
f 66/95/292 98/91/293 116/94/294 
f 131/98/295 132/93/296 114/92/297 
f 114/92/298 79/97/299 131/98/300 
f 117/96/301 118/100/302 67/99/303 
f 67/99/304 66/95/305 117/96/306 
f 130/102/307 131/98/308 79/97/309 
f 79/97/310 78/101/311 130/102/312 
f 118/100/313 119/104/314 68/103/315 
f 68/103/316 67/99/317 118/100/318 
f 129/106/319 130/116/320 78/115/321 
f 78/115/322 77/105/323 129/106/324 
f 119/104/325 120/108/326 69/107/327 
f 69/107/328 68/103/329 119/104/330 
f 120/108/331 121/110/332 70/109/333 
f 70/109/334 69/107/335 120/108/336 
f 128/112/337 129/106/338 77/105/339 
f 77/105/340 76/111/341 128/112/342 
f 121/110/343 122/114/344 71/113/345 
f 71/113/346 70/109/347 121/110/348 
f 127/90/349 128/112/350 76/111/351 
f 76/111/352 75/89/353 127/90/354 
f 122/114/355 123/85/356 72/84/357 
f 72/84/358 71/113/359 122/114/360 
# 60 faces

