# 3ds Max Wavefront OBJ Exporter v0.97b - (c)2007 guruware
# File Created: 11.03.2017 12:49:21

mtllib EyeV_MSH.mtl

#
# object EyeV
#

v  0.0008 0.5000 0.0313
v  -0.1315 0.4097 0.0313
v  -0.2326 0.2925 0.0313
v  -0.2973 0.1541 0.0313
v  -0.3200 -0.0000 0.0312
v  -0.2973 -0.1541 0.0312
v  -0.2326 -0.2925 0.0312
v  -0.1315 -0.4096 0.0312
v  0.0008 -0.5000 0.0312
v  0.1322 -0.4096 0.0312
v  0.2329 -0.2925 0.0312
v  0.2973 -0.1541 0.0312
v  0.3200 -0.0000 0.0313
v  0.2973 0.1541 0.0313
v  0.2329 0.2925 0.0313
v  0.1322 0.4096 0.0313
v  0.0008 0.5000 -0.0312
v  -0.1315 0.4097 -0.0312
v  -0.2326 0.2925 -0.0312
v  -0.2973 0.1541 -0.0312
v  -0.3200 0.0000 -0.0313
v  -0.2973 -0.1541 -0.0313
v  -0.2326 -0.2925 -0.0313
v  -0.1315 -0.4096 -0.0313
v  0.0008 -0.5000 -0.0313
v  0.1322 -0.4096 -0.0313
v  0.2329 -0.2925 -0.0313
v  0.2973 -0.1541 -0.0313
v  0.3200 0.0000 -0.0313
v  0.2973 0.1541 -0.0312
v  0.2329 0.2925 -0.0312
v  0.1322 0.4096 -0.0312
v  0.0008 0.5000 0.0313
v  0.0008 0.5000 0.0313
v  -0.1315 0.4097 0.0313
v  -0.2326 0.2925 0.0313
v  -0.2973 0.1541 0.0313
v  -0.3200 -0.0000 0.0312
v  -0.2973 -0.1541 0.0312
v  -0.2326 -0.2925 0.0312
v  -0.1315 -0.4096 0.0312
v  0.0008 -0.5000 0.0312
v  0.0008 -0.5000 0.0312
v  0.1322 -0.4096 0.0312
v  0.2329 -0.2925 0.0312
v  0.2973 -0.1541 0.0312
v  0.3200 -0.0000 0.0313
v  0.2973 0.1541 0.0313
v  0.2329 0.2925 0.0313
v  0.1322 0.4096 0.0313
v  0.0008 0.5000 -0.0312
v  0.0008 0.5000 -0.0312
v  -0.1315 0.4097 -0.0312
v  -0.2326 0.2925 -0.0312
v  -0.2973 0.1541 -0.0312
v  -0.3200 0.0000 -0.0313
v  -0.2973 -0.1541 -0.0313
v  -0.2326 -0.2925 -0.0313
v  -0.1315 -0.4096 -0.0313
v  0.0008 -0.5000 -0.0313
v  0.0008 -0.5000 -0.0313
v  0.1322 -0.4096 -0.0313
v  0.2329 -0.2925 -0.0313
v  0.2973 -0.1541 -0.0313
v  0.3200 0.0000 -0.0313
v  0.2973 0.1541 -0.0312
v  0.2329 0.2925 -0.0312
v  0.1322 0.4096 -0.0312
# 68 vertices

vn 0.0000 -0.0000 1.0000
vn 0.0000 -0.0000 1.0000
vn 0.0000 -0.0000 1.0000
vn 0.0000 -0.0000 1.0000
vn 0.0000 -0.0000 1.0000
vn 0.0000 -0.0000 1.0000
vn 0.0000 -0.0000 1.0000
vn 0.0000 -0.0000 1.0000
vn -0.0000 -0.0000 1.0000
vn -0.0000 -0.0000 1.0000
vn 0.0000 -0.0000 1.0000
vn -0.0000 -0.0000 1.0000
vn -0.0000 -0.0000 1.0000
vn -0.0000 -0.0000 1.0000
vn -0.0000 -0.0000 1.0000
vn -0.0000 -0.0000 1.0000
vn -0.0000 -0.0000 1.0000
vn -0.0000 -0.0000 1.0000
vn -0.0000 -0.0000 1.0000
vn -0.0000 -0.0000 1.0000
vn -0.0000 -0.0000 1.0000
vn -0.0000 -0.0000 1.0000
vn -0.0000 -0.0000 1.0000
vn -0.0000 -0.0000 1.0000
vn -0.0000 -0.0000 1.0000
vn -0.0000 -0.0000 1.0000
vn -0.0000 -0.0000 1.0000
vn -0.0000 -0.0000 1.0000
vn -0.0000 -0.0000 1.0000
vn 0.0000 -0.0000 1.0000
vn 0.0000 -0.0000 1.0000
vn -0.0000 -0.0000 1.0000
vn 0.0000 -0.0000 1.0000
vn 0.0000 -0.0000 1.0000
vn 0.0000 -0.0000 1.0000
vn 0.0000 -0.0000 1.0000
vn 0.0000 -0.0000 1.0000
vn 0.0000 -0.0000 1.0000
vn 0.0000 -0.0000 1.0000
vn 0.0000 -0.0000 1.0000
vn 0.0000 -0.0000 1.0000
vn 0.0000 -0.0000 1.0000
vn 0.0000 0.0000 -1.0000
vn 0.0000 0.0000 -1.0000
vn 0.0000 0.0000 -1.0000
vn 0.0000 0.0000 -1.0000
vn 0.0000 0.0000 -1.0000
vn 0.0000 0.0000 -1.0000
vn 0.0000 0.0000 -1.0000
vn 0.0000 0.0000 -1.0000
vn 0.0000 0.0000 -1.0000
vn 0.0000 0.0000 -1.0000
vn 0.0000 0.0000 -1.0000
vn 0.0000 0.0000 -1.0000
vn 0.0000 0.0000 -1.0000
vn 0.0000 0.0000 -1.0000
vn 0.0000 0.0000 -1.0000
vn 0.0000 0.0000 -1.0000
vn 0.0000 0.0000 -1.0000
vn 0.0000 0.0000 -1.0000
vn 0.0000 0.0000 -1.0000
vn 0.0000 0.0000 -1.0000
vn 0.0000 0.0000 -1.0000
vn 0.0000 0.0000 -1.0000
vn 0.0000 0.0000 -1.0000
vn 0.0000 0.0000 -1.0000
vn 0.0000 0.0000 -1.0000
vn 0.0000 0.0000 -1.0000
vn 0.0000 0.0000 -1.0000
vn 0.0000 0.0000 -1.0000
vn 0.0000 0.0000 -1.0000
vn 0.0000 0.0000 -1.0000
vn 0.0000 0.0000 -1.0000
vn 0.0000 0.0000 -1.0000
vn 0.0000 0.0000 -1.0000
vn 0.0000 0.0000 -1.0000
vn 0.0000 0.0000 -1.0000
vn 0.0000 0.0000 -1.0000
vn 0.0000 0.0000 -1.0000
vn 0.0000 0.0000 -1.0000
vn 0.0000 0.0000 -1.0000
vn 0.0000 0.0000 -1.0000
vn 0.0000 0.0000 -1.0000
vn 0.0000 0.0000 -1.0000
vn -0.6660 -0.7459 -0.0000
vn -0.5639 -0.8258 -0.0000
vn -0.5639 -0.8258 -0.0000
vn -0.5639 -0.8258 -0.0000
vn -0.6660 -0.7459 -0.0000
vn -0.6660 -0.7459 -0.0000
vn 0.5667 -0.8239 -0.0000
vn 0.6682 -0.7440 -0.0000
vn 0.6682 -0.7440 -0.0000
vn 0.6682 -0.7440 -0.0000
vn 0.5667 -0.8239 -0.0000
vn 0.5667 -0.8239 -0.0000
vn 0.6682 -0.7440 -0.0000
vn 0.8404 -0.5419 -0.0000
vn 0.8404 -0.5419 -0.0000
vn 0.8404 -0.5419 -0.0000
vn 0.6682 -0.7440 -0.0000
vn 0.6682 -0.7440 -0.0000
vn 0.6682 0.7440 0.0000
vn 0.5667 0.8239 0.0000
vn 0.5667 0.8239 0.0000
vn 0.5667 0.8239 0.0000
vn 0.6682 0.7440 0.0000
vn 0.6682 0.7440 0.0000
vn -0.5639 0.8258 0.0000
vn -0.6660 0.7459 0.0000
vn -0.6660 0.7459 0.0000
vn -0.6660 0.7459 0.0000
vn -0.5639 0.8258 0.0000
vn -0.5639 0.8258 0.0000
vn 0.8404 0.5419 0.0000
vn 0.6682 0.7440 0.0000
vn 0.6682 0.7440 0.0000
vn 0.6682 0.7440 0.0000
vn 0.8404 0.5419 0.0000
vn 0.8404 0.5419 0.0000
vn -0.6660 0.7459 0.0000
vn -0.8395 0.5434 0.0000
vn -0.8395 0.5434 0.0000
vn -0.8395 0.5434 0.0000
vn -0.6660 0.7459 0.0000
vn -0.6660 0.7459 0.0000
vn 0.9580 0.2869 0.0000
vn 0.8404 0.5419 0.0000
vn 0.8404 0.5419 0.0000
vn 0.8404 0.5419 0.0000
vn 0.9580 0.2869 0.0000
vn 0.9580 0.2869 0.0000
vn -0.8395 0.5434 0.0000
vn -0.9578 0.2875 0.0000
vn -0.9578 0.2875 0.0000
vn -0.9578 0.2875 0.0000
vn -0.8395 0.5434 0.0000
vn -0.8395 0.5434 0.0000
vn 1.0000 0.0000 0.0000
vn 0.9580 0.2869 0.0000
vn 0.9580 0.2869 0.0000
vn 0.9580 0.2869 0.0000
vn 1.0000 0.0000 0.0000
vn 1.0000 0.0000 0.0000
vn -0.9578 0.2875 0.0000
vn -1.0000 0.0000 0.0000
vn -1.0000 0.0000 0.0000
vn -1.0000 0.0000 0.0000
vn -0.9578 0.2875 0.0000
vn -0.9578 0.2875 0.0000
vn -1.0000 0.0000 0.0000
vn -0.9578 -0.2875 -0.0000
vn -0.9578 -0.2875 -0.0000
vn -0.9578 -0.2875 -0.0000
vn -1.0000 0.0000 0.0000
vn -1.0000 0.0000 0.0000
vn 0.9580 -0.2869 -0.0000
vn 1.0000 0.0000 0.0000
vn 1.0000 0.0000 0.0000
vn 1.0000 0.0000 0.0000
vn 0.9580 -0.2869 -0.0000
vn 0.9580 -0.2869 -0.0000
vn -0.9578 -0.2875 -0.0000
vn -0.8395 -0.5434 -0.0000
vn -0.8395 -0.5434 -0.0000
vn -0.8395 -0.5434 -0.0000
vn -0.9578 -0.2875 -0.0000
vn -0.9578 -0.2875 -0.0000
vn 0.8404 -0.5419 -0.0000
vn 0.9580 -0.2869 -0.0000
vn 0.9580 -0.2869 -0.0000
vn 0.9580 -0.2869 -0.0000
vn 0.8404 -0.5419 -0.0000
vn 0.8404 -0.5419 -0.0000
vn -0.8395 -0.5434 -0.0000
vn -0.6660 -0.7459 -0.0000
vn -0.6660 -0.7459 -0.0000
vn -0.6660 -0.7459 -0.0000
vn -0.8395 -0.5434 -0.0000
vn -0.8395 -0.5434 -0.0000
# 180 vertex normals

vt 0.2996 0.9182 0.0000
vt 0.2503 0.9521 0.0000
vt 0.2007 0.9182 0.0000
vt 0.1628 0.8743 0.0000
vt 0.1385 0.8224 0.0000
vt 0.1300 0.7646 0.0000
vt 0.1385 0.7069 0.0000
vt 0.1628 0.6550 0.0000
vt 0.2007 0.6110 0.0000
vt 0.2503 0.5771 0.0000
vt 0.2996 0.6110 0.0000
vt 0.3373 0.6550 0.0000
vt 0.3615 0.7069 0.0000
vt 0.3700 0.7646 0.0000
vt 0.3615 0.8224 0.0000
vt 0.3373 0.8743 0.0000
vt 0.7002 0.5354 0.0000
vt 0.6581 0.5354 0.0000
vt 0.6581 0.5104 0.0000
vt 0.7002 0.5104 0.0000
vt 0.7421 0.5354 0.0000
vt 0.7421 0.5104 0.0000
vt 0.7890 0.5354 0.0000
vt 0.7890 0.5104 0.0000
vt 0.1997 0.5354 0.0000
vt 0.1382 0.5354 0.0000
vt 0.1382 0.5104 0.0000
vt 0.1997 0.5104 0.0000
vt 0.2615 0.5354 0.0000
vt 0.2615 0.5104 0.0000
vt 0.0657 0.5354 0.0000
vt 0.0657 0.5104 0.0000
vt 0.3343 0.5354 0.0000
vt 0.3343 0.5104 0.0000
vt -0.0132 0.5354 0.0000
vt -0.0132 0.5104 0.0000
vt 0.4132 0.5354 0.0000
vt 0.4132 0.5104 0.0000
vt 0.9099 0.5354 0.0000
vt 0.9099 0.5104 0.0000
vt 0.4901 0.5354 0.0000
vt 0.4901 0.5104 0.0000
vt 0.5564 0.5354 0.0000
vt 0.5564 0.5104 0.0000
vt 0.8436 0.5354 0.0000
vt 0.8436 0.5104 0.0000
vt 0.6110 0.5354 0.0000
vt 0.6110 0.5104 0.0000
vt 0.9868 0.5354 0.0000
vt 0.9868 0.5104 0.0000
vt 0.7007 0.9182 0.0000
vt 0.7503 0.9521 0.0000
vt 0.7996 0.9182 0.0000
vt 0.8373 0.8743 0.0000
vt 0.8615 0.8224 0.0000
vt 0.8700 0.7646 0.0000
vt 0.8615 0.7069 0.0000
vt 0.8373 0.6550 0.0000
vt 0.7996 0.6110 0.0000
vt 0.7503 0.5771 0.0000
vt 0.7007 0.6110 0.0000
vt 0.6628 0.6550 0.0000
vt 0.6385 0.7069 0.0000
vt 0.6300 0.7646 0.0000
vt 0.6385 0.8224 0.0000
vt 0.6628 0.8743 0.0000
# 66 texture coords

g EyeV
usemtl wire_224086086
f 16/1/1 1/2/2 35/3/3 
f 41/9/4 43/10/5 44/11/6 
f 41/9/7 44/11/8 45/12/9 
f 40/8/10 41/9/11 45/12/12 
f 40/8/13 45/12/14 46/13/15 
f 39/7/16 40/8/17 46/13/18 
f 39/7/19 46/13/20 47/14/21 
f 38/6/22 39/7/23 47/14/24 
f 37/5/25 38/6/26 47/14/27 
f 37/5/28 47/14/29 48/15/30 
f 36/4/31 37/5/32 48/15/33 
f 36/4/34 48/15/35 49/16/36 
f 35/3/37 36/4/38 49/16/39 
f 16/1/40 35/3/41 49/16/42 
f 18/51/43 51/52/44 32/53/45 
f 18/51/46 32/53/47 31/54/48 
f 26/59/49 60/60/50 24/61/51 
f 27/58/52 26/59/53 24/61/54 
f 27/58/55 24/61/56 23/62/57 
f 28/57/58 27/58/59 23/62/60 
f 28/57/61 23/62/62 22/63/63 
f 29/56/64 28/57/65 22/63/66 
f 29/56/67 22/63/68 21/64/69 
f 29/56/70 21/64/71 20/65/72 
f 30/55/73 29/56/74 20/65/75 
f 30/55/76 20/65/77 19/66/78 
f 31/54/79 30/55/80 19/66/81 
f 18/51/82 31/54/83 19/66/84 
f 59/19/85 25/20/86 9/17/87 
f 9/17/88 8/18/89 59/19/90 
f 61/20/91 62/22/92 10/21/93 
f 10/21/94 42/17/95 61/20/96 
f 62/22/97 63/24/98 11/23/99 
f 11/23/100 10/21/101 62/22/102 
f 68/27/103 17/28/104 33/25/105 
f 33/25/106 50/26/107 68/27/108 
f 52/28/109 53/30/110 2/29/111 
f 2/29/112 34/25/113 52/28/114 
f 67/32/115 68/27/116 50/26/117 
f 50/26/118 15/31/119 67/32/120 
f 53/30/121 54/34/122 3/33/123 
f 3/33/124 2/29/125 53/30/126 
f 66/36/127 67/32/128 15/31/129 
f 15/31/130 14/35/131 66/36/132 
f 54/34/133 55/38/134 4/37/135 
f 4/37/136 3/33/137 54/34/138 
f 65/40/139 66/50/140 14/49/141 
f 14/49/142 13/39/143 65/40/144 
f 55/38/145 56/42/146 5/41/147 
f 5/41/148 4/37/149 55/38/150 
f 56/42/151 57/44/152 6/43/153 
f 6/43/154 5/41/155 56/42/156 
f 64/46/157 65/40/158 13/39/159 
f 13/39/160 12/45/161 64/46/162 
f 57/44/163 58/48/164 7/47/165 
f 7/47/166 6/43/167 57/44/168 
f 63/24/169 64/46/170 12/45/171 
f 12/45/172 11/23/173 63/24/174 
f 58/48/175 59/19/176 8/18/177 
f 8/18/178 7/47/179 58/48/180 
# 60 faces

#
# object EyeV_BASE
#

v  0.3750 -0.0313 -0.0000
v  0.3465 -0.0313 -0.1435
v  0.2652 -0.0313 -0.2652
v  0.1435 -0.0313 -0.3465
v  -0.0000 -0.0313 -0.3750
v  -0.1435 -0.0313 -0.3465
v  -0.2652 -0.0313 -0.2652
v  -0.3465 -0.0313 -0.1435
v  -0.3750 -0.0313 -0.0000
v  -0.3465 -0.0313 0.1435
v  -0.2652 -0.0313 0.2652
v  -0.1435 -0.0313 0.3465
v  0.0000 -0.0313 0.3750
v  0.1435 -0.0313 0.3465
v  0.2652 -0.0313 0.2652
v  0.3465 -0.0313 0.1435
v  0.3750 0.0313 -0.0000
v  0.3465 0.0313 -0.1435
v  0.2652 0.0313 -0.2652
v  0.1435 0.0313 -0.3465
v  -0.0000 0.0313 -0.3750
v  -0.1435 0.0313 -0.3465
v  -0.2652 0.0313 -0.2652
v  -0.3465 0.0313 -0.1435
v  -0.3750 0.0313 -0.0000
v  -0.3465 0.0313 0.1435
v  -0.2652 0.0313 0.2652
v  -0.1435 0.0313 0.3465
v  0.0000 0.0313 0.3750
v  0.1435 0.0313 0.3465
v  0.2652 0.0313 0.2652
v  0.3465 0.0313 0.1435
v  0.3750 -0.0313 -0.0000
v  0.3465 -0.0313 -0.1435
v  0.2652 -0.0313 -0.2652
v  0.1435 -0.0313 -0.3465
v  -0.0000 -0.0313 -0.3750
v  -0.1435 -0.0313 -0.3465
v  -0.2652 -0.0313 -0.2652
v  -0.3465 -0.0313 -0.1435
v  -0.3750 -0.0313 -0.0000
v  -0.3465 -0.0313 0.1435
v  -0.2652 -0.0313 0.2652
v  -0.1435 -0.0313 0.3465
v  0.0000 -0.0313 0.3750
v  0.1435 -0.0313 0.3465
v  0.2652 -0.0313 0.2652
v  0.3465 -0.0313 0.1435
v  0.3750 0.0313 -0.0000
v  0.3465 0.0313 -0.1435
v  0.2652 0.0313 -0.2652
v  0.1435 0.0313 -0.3465
v  -0.0000 0.0313 -0.3750
v  -0.1435 0.0313 -0.3465
v  -0.2652 0.0313 -0.2652
v  -0.3465 0.0313 -0.1435
v  -0.3750 0.0313 -0.0000
v  -0.3465 0.0313 0.1435
v  -0.2652 0.0313 0.2652
v  -0.1435 0.0313 0.3465
v  0.0000 0.0313 0.3750
v  0.1435 0.0313 0.3465
v  0.2652 0.0313 0.2652
v  0.3465 0.0313 0.1435
# 64 vertices

vn 1.0000 0.0000 -0.0000
vn 0.9239 0.0000 -0.3827
vn 0.9239 0.0000 -0.3827
vn 0.9239 0.0000 -0.3827
vn 1.0000 0.0000 -0.0000
vn 1.0000 0.0000 -0.0000
vn 0.9239 0.0000 -0.3827
vn 0.7071 0.0000 -0.7071
vn 0.7071 0.0000 -0.7071
vn 0.7071 0.0000 -0.7071
vn 0.9239 0.0000 -0.3827
vn 0.9239 0.0000 -0.3827
vn 0.7071 0.0000 -0.7071
vn 0.3827 0.0000 -0.9239
vn 0.3827 0.0000 -0.9239
vn 0.3827 0.0000 -0.9239
vn 0.7071 0.0000 -0.7071
vn 0.7071 0.0000 -0.7071
vn 0.3827 0.0000 -0.9239
vn 0.0000 0.0000 -1.0000
vn 0.0000 0.0000 -1.0000
vn 0.0000 0.0000 -1.0000
vn 0.3827 0.0000 -0.9239
vn 0.3827 0.0000 -0.9239
vn 0.0000 0.0000 -1.0000
vn -0.3827 0.0000 -0.9239
vn -0.3827 0.0000 -0.9239
vn -0.3827 0.0000 -0.9239
vn 0.0000 0.0000 -1.0000
vn 0.0000 0.0000 -1.0000
vn -0.3827 0.0000 -0.9239
vn -0.7071 0.0000 -0.7071
vn -0.7071 0.0000 -0.7071
vn -0.7071 0.0000 -0.7071
vn -0.3827 0.0000 -0.9239
vn -0.3827 0.0000 -0.9239
vn -0.7071 0.0000 -0.7071
vn -0.9239 0.0000 -0.3827
vn -0.9239 0.0000 -0.3827
vn -0.9239 0.0000 -0.3827
vn -0.7071 0.0000 -0.7071
vn -0.7071 0.0000 -0.7071
vn -0.9239 0.0000 -0.3827
vn -1.0000 0.0000 -0.0000
vn -1.0000 0.0000 -0.0000
vn -1.0000 0.0000 -0.0000
vn -0.9239 0.0000 -0.3827
vn -0.9239 0.0000 -0.3827
vn -1.0000 0.0000 -0.0000
vn -0.9239 0.0000 0.3827
vn -0.9239 0.0000 0.3827
vn -0.9239 0.0000 0.3827
vn -1.0000 0.0000 -0.0000
vn -1.0000 0.0000 -0.0000
vn -0.9239 0.0000 0.3827
vn -0.7071 0.0000 0.7071
vn -0.7071 0.0000 0.7071
vn -0.7071 0.0000 0.7071
vn -0.9239 0.0000 0.3827
vn -0.9239 0.0000 0.3827
vn -0.7071 0.0000 0.7071
vn -0.3827 0.0000 0.9239
vn -0.3827 0.0000 0.9239
vn -0.3827 0.0000 0.9239
vn -0.7071 0.0000 0.7071
vn -0.7071 0.0000 0.7071
vn -0.3827 0.0000 0.9239
vn 0.0000 0.0000 1.0000
vn 0.0000 0.0000 1.0000
vn 0.0000 0.0000 1.0000
vn -0.3827 0.0000 0.9239
vn -0.3827 0.0000 0.9239
vn 0.0000 0.0000 1.0000
vn 0.3827 0.0000 0.9239
vn 0.3827 0.0000 0.9239
vn 0.3827 0.0000 0.9239
vn 0.0000 0.0000 1.0000
vn 0.0000 0.0000 1.0000
vn 0.3827 0.0000 0.9239
vn 0.7071 0.0000 0.7071
vn 0.7071 0.0000 0.7071
vn 0.7071 0.0000 0.7071
vn 0.3827 0.0000 0.9239
vn 0.3827 0.0000 0.9239
vn 0.7071 0.0000 0.7071
vn 0.9239 0.0000 0.3827
vn 0.9239 0.0000 0.3827
vn 0.9239 0.0000 0.3827
vn 0.7071 0.0000 0.7071
vn 0.7071 0.0000 0.7071
vn 0.9239 0.0000 0.3827
vn 1.0000 0.0000 -0.0000
vn 1.0000 0.0000 -0.0000
vn 1.0000 0.0000 -0.0000
vn 0.9239 0.0000 0.3827
vn 0.9239 0.0000 0.3827
vn 0.0000 -1.0000 -0.0000
vn 0.0000 -1.0000 -0.0000
vn 0.0000 -1.0000 -0.0000
vn 0.0000 -1.0000 -0.0000
vn 0.0000 -1.0000 -0.0000
vn 0.0000 -1.0000 -0.0000
vn 0.0000 -1.0000 -0.0000
vn 0.0000 -1.0000 -0.0000
vn 0.0000 -1.0000 -0.0000
vn 0.0000 -1.0000 -0.0000
vn 0.0000 -1.0000 -0.0000
vn 0.0000 -1.0000 -0.0000
vn 0.0000 -1.0000 -0.0000
vn 0.0000 -1.0000 -0.0000
vn 0.0000 -1.0000 -0.0000
vn 0.0000 -1.0000 -0.0000
vn 0.0000 -1.0000 -0.0000
vn 0.0000 -1.0000 -0.0000
vn 0.0000 -1.0000 -0.0000
vn 0.0000 -1.0000 -0.0000
vn 0.0000 -1.0000 -0.0000
vn 0.0000 -1.0000 -0.0000
vn 0.0000 -1.0000 -0.0000
vn 0.0000 -1.0000 -0.0000
vn 0.0000 -1.0000 -0.0000
vn 0.0000 -1.0000 -0.0000
vn 0.0000 -1.0000 -0.0000
vn 0.0000 -1.0000 -0.0000
vn 0.0000 -1.0000 -0.0000
vn 0.0000 -1.0000 -0.0000
vn 0.0000 -1.0000 -0.0000
vn 0.0000 -1.0000 -0.0000
vn 0.0000 -1.0000 -0.0000
vn 0.0000 -1.0000 -0.0000
vn 0.0000 -1.0000 -0.0000
vn 0.0000 -1.0000 -0.0000
vn 0.0000 -1.0000 -0.0000
vn 0.0000 -1.0000 -0.0000
vn 0.0000 -1.0000 -0.0000
vn 0.0000 -1.0000 -0.0000
vn 0.0000 -1.0000 -0.0000
vn 0.0000 -1.0000 -0.0000
vn 0.0000 1.0000 -0.0000
vn 0.0000 1.0000 -0.0000
vn 0.0000 1.0000 -0.0000
vn 0.0000 1.0000 -0.0000
vn 0.0000 1.0000 -0.0000
vn 0.0000 1.0000 -0.0000
vn 0.0000 1.0000 -0.0000
vn 0.0000 1.0000 -0.0000
vn 0.0000 1.0000 -0.0000
vn 0.0000 1.0000 -0.0000
vn 0.0000 1.0000 -0.0000
vn 0.0000 1.0000 -0.0000
vn 0.0000 1.0000 -0.0000
vn 0.0000 1.0000 -0.0000
vn 0.0000 1.0000 -0.0000
vn 0.0000 1.0000 -0.0000
vn 0.0000 1.0000 -0.0000
vn 0.0000 1.0000 -0.0000
vn 0.0000 1.0000 -0.0000
vn 0.0000 1.0000 -0.0000
vn 0.0000 1.0000 -0.0000
vn 0.0000 1.0000 -0.0000
vn 0.0000 1.0000 -0.0000
vn 0.0000 1.0000 -0.0000
vn 0.0000 1.0000 -0.0000
vn 0.0000 1.0000 -0.0000
vn 0.0000 1.0000 -0.0000
vn 0.0000 1.0000 -0.0000
vn 0.0000 1.0000 -0.0000
vn 0.0000 1.0000 -0.0000
vn 0.0000 1.0000 -0.0000
vn 0.0000 1.0000 -0.0000
vn 0.0000 1.0000 -0.0000
vn 0.0000 1.0000 -0.0000
vn 0.0000 1.0000 -0.0000
vn 0.0000 1.0000 -0.0000
vn 0.0000 1.0000 -0.0000
vn 0.0000 1.0000 -0.0000
vn 0.0000 1.0000 -0.0000
vn 0.0000 1.0000 -0.0000
vn 0.0000 1.0000 -0.0000
vn 0.0000 1.0000 -0.0000
# 180 vertex normals

vt 0.9375 0.2500 0.0000
vt 0.9232 0.3218 0.0000
vt 0.7500 0.0180 0.0000
vt 0.8125 0.0180 0.0000
vt 0.8826 0.3826 0.0000
vt 0.8125 0.0445 0.0000
vt 0.8218 0.4232 0.0000
vt 0.7500 0.0445 0.0000
vt 0.7500 0.4375 0.0000
vt 0.8750 0.0180 0.0000
vt 0.6782 0.4232 0.0000
vt 0.8750 0.0445 0.0000
vt 0.6174 0.3826 0.0000
vt 0.9375 0.0180 0.0000
vt 0.5768 0.3218 0.0000
vt 0.9375 0.0445 0.0000
vt 0.5625 0.2500 0.0000
vt 0.0000 0.0180 0.0000
vt 0.5768 0.1782 0.0000
vt 0.0000 0.0445 0.0000
vt 0.6174 0.1174 0.0000
vt 0.0625 0.0180 0.0000
vt 0.6782 0.0768 0.0000
vt 0.0625 0.0445 0.0000
vt 0.7500 0.0625 0.0000
vt 0.1250 0.0180 0.0000
vt 0.8218 0.0768 0.0000
vt 0.1250 0.0445 0.0000
vt 0.8826 0.1174 0.0000
vt 0.1875 0.0180 0.0000
vt 0.9232 0.1782 0.0000
vt 0.1875 0.0445 0.0000
vt 0.4232 0.3218 0.0000
vt 0.4375 0.2500 0.0000
vt 0.3826 0.3826 0.0000
vt 0.3218 0.4232 0.0000
vt 0.2500 0.4375 0.0000
vt 0.1782 0.4232 0.0000
vt 0.1174 0.3826 0.0000
vt 0.0768 0.3218 0.0000
vt 0.0625 0.2500 0.0000
vt 0.0768 0.1782 0.0000
vt 0.1174 0.1174 0.0000
vt 0.1782 0.0768 0.0000
vt 0.2500 0.0625 0.0000
vt 0.3218 0.0768 0.0000
vt 0.3826 0.1174 0.0000
vt 0.4232 0.1782 0.0000
vt 0.2500 0.0180 0.0000
vt 0.2500 0.0445 0.0000
vt 0.3125 0.0180 0.0000
vt 0.3125 0.0445 0.0000
vt 0.3750 0.0180 0.0000
vt 0.3750 0.0445 0.0000
vt 0.4375 0.0180 0.0000
vt 0.4375 0.0445 0.0000
vt 0.5000 0.0180 0.0000
vt 0.5000 0.0445 0.0000
vt 0.5625 0.0180 0.0000
vt 0.5625 0.0445 0.0000
vt 0.6250 0.0180 0.0000
vt 0.6250 0.0445 0.0000
vt 0.6875 0.0180 0.0000
vt 0.6875 0.0445 0.0000
vt 1.0000 0.0180 0.0000
vt 1.0000 0.0445 0.0000
# 66 texture coords

g EyeV_BASE
usemtl wire_176026026
f 69/69/181 102/70/182 118/72/183 
f 118/72/184 117/74/185 69/69/186 
f 102/70/187 103/76/188 119/78/189 
f 119/78/190 118/72/191 102/70/192 
f 103/76/193 104/80/194 120/82/195 
f 120/82/196 119/78/197 103/76/198 
f 104/80/199 105/131/200 121/132/201 
f 121/132/202 120/82/203 104/80/204 
f 105/84/205 106/88/206 122/90/207 
f 122/90/208 121/86/209 105/84/210 
f 106/88/211 107/92/212 123/94/213 
f 123/94/214 122/90/215 106/88/216 
f 107/92/217 108/96/218 124/98/219 
f 124/98/220 123/94/221 107/92/222 
f 108/96/223 109/115/224 125/116/225 
f 125/116/226 124/98/227 108/96/228 
f 109/115/229 110/117/230 126/118/231 
f 126/118/232 125/116/233 109/115/234 
f 110/117/235 111/119/236 127/120/237 
f 127/120/238 126/118/239 110/117/240 
f 111/119/241 112/121/242 128/122/243 
f 128/122/244 127/120/245 111/119/246 
f 112/121/247 113/123/248 129/124/249 
f 129/124/250 128/122/251 112/121/252 
f 113/123/253 114/125/254 130/126/255 
f 130/126/256 129/124/257 113/123/258 
f 114/125/259 115/127/260 131/128/261 
f 131/128/262 130/126/263 114/125/264 
f 115/127/265 84/129/266 132/130/267 
f 132/130/268 131/128/269 115/127/270 
f 84/129/271 69/69/272 117/74/273 
f 117/74/274 132/130/275 84/129/276 
f 83/95/277 82/93/278 81/91/279 
f 81/91/280 80/89/281 79/87/282 
f 79/87/283 78/85/284 77/83/285 
f 81/91/286 79/87/287 77/83/288 
f 77/83/289 76/81/290 75/79/291 
f 75/79/292 74/77/293 73/75/294 
f 77/83/295 75/79/296 73/75/297 
f 73/75/298 72/73/299 71/71/300 
f 71/71/301 70/68/302 101/67/303 
f 73/75/304 71/71/305 101/67/306 
f 77/83/307 73/75/308 101/67/309 
f 81/91/310 77/83/311 101/67/312 
f 83/95/313 81/91/314 101/67/315 
f 116/97/316 83/95/317 101/67/318 
f 86/99/319 87/101/320 88/102/321 
f 88/102/322 89/103/323 90/104/324 
f 90/104/325 91/105/326 92/106/327 
f 88/102/328 90/104/329 92/106/330 
f 92/106/331 93/107/332 94/108/333 
f 94/108/334 95/109/335 96/110/336 
f 92/106/337 94/108/338 96/110/339 
f 96/110/340 97/111/341 98/112/342 
f 98/112/343 99/113/344 100/114/345 
f 96/110/346 98/112/347 100/114/348 
f 92/106/349 96/110/350 100/114/351 
f 88/102/352 92/106/353 100/114/354 
f 86/99/355 88/102/356 100/114/357 
f 85/100/358 86/99/359 100/114/360 
# 60 faces

