# 3ds Max Wavefront OBJ Exporter v0.97b - (c)2007 guruware
# File Created: 11.03.2017 12:49:22

mtllib OctOffset_MSH.mtl

#
# object OctOffset
#

v  0.3536 0.3536 0.0313
v  -0.0000 0.5000 0.0313
v  -0.3536 0.3536 0.0313
v  -0.5000 -0.0000 0.0313
v  -0.3536 -0.3536 0.0312
v  0.0000 -0.5000 0.0312
v  0.3536 -0.3536 0.0312
v  0.5000 0.0000 0.0313
v  0.3536 0.3536 -0.0312
v  -0.0000 0.5000 -0.0312
v  -0.3536 0.3536 -0.0312
v  -0.5000 -0.0000 -0.0313
v  -0.3536 -0.3536 -0.0313
v  0.0000 -0.5000 -0.0313
v  0.3536 -0.3536 -0.0313
v  0.5000 0.0000 -0.0313
v  0.3536 0.3536 0.0313
v  -0.0000 0.5000 0.0313
v  -0.3536 0.3536 0.0313
v  -0.3536 0.3536 0.0313
v  -0.5000 -0.0000 0.0313
v  -0.3536 -0.3536 0.0312
v  0.0000 -0.5000 0.0312
v  0.3536 -0.3536 0.0312
v  0.5000 0.0000 0.0313
v  0.5000 0.0000 0.0313
v  0.3536 0.3536 -0.0312
v  -0.0000 0.5000 -0.0312
v  -0.3536 0.3536 -0.0312
v  -0.3536 0.3536 -0.0312
v  -0.5000 -0.0000 -0.0313
v  -0.3536 -0.3536 -0.0313
v  0.0000 -0.5000 -0.0313
v  0.3536 -0.3536 -0.0313
v  0.5000 0.0000 -0.0313
v  0.5000 0.0000 -0.0313
# 36 vertices

vn 0.0000 -0.0000 1.0000
vn 0.0000 -0.0000 1.0000
vn 0.0000 -0.0000 1.0000
vn 0.0000 -0.0000 1.0000
vn 0.0000 -0.0000 1.0000
vn 0.0000 -0.0000 1.0000
vn 0.0000 -0.0000 1.0000
vn 0.0000 -0.0000 1.0000
vn 0.0000 -0.0000 1.0000
vn 0.0000 -0.0000 1.0000
vn 0.0000 -0.0000 1.0000
vn -0.0000 -0.0000 1.0000
vn 0.0000 -0.0000 1.0000
vn -0.0000 -0.0000 1.0000
vn -0.0000 -0.0000 1.0000
vn 0.0000 -0.0000 1.0000
vn -0.0000 -0.0000 1.0000
vn 0.0000 -0.0000 1.0000
vn 0.0000 0.0000 -1.0000
vn 0.0000 0.0000 -1.0000
vn 0.0000 0.0000 -1.0000
vn 0.0000 0.0000 -1.0000
vn 0.0000 0.0000 -1.0000
vn 0.0000 0.0000 -1.0000
vn 0.0000 0.0000 -1.0000
vn 0.0000 0.0000 -1.0000
vn 0.0000 0.0000 -1.0000
vn 0.0000 0.0000 -1.0000
vn 0.0000 0.0000 -1.0000
vn 0.0000 0.0000 -1.0000
vn 0.0000 0.0000 -1.0000
vn 0.0000 0.0000 -1.0000
vn 0.0000 0.0000 -1.0000
vn 0.0000 0.0000 -1.0000
vn 0.0000 0.0000 -1.0000
vn 0.0000 0.0000 -1.0000
vn 0.0000 -1.0000 -0.0000
vn 0.7071 -0.7071 -0.0000
vn 0.7071 -0.7071 -0.0000
vn 0.7071 -0.7071 -0.0000
vn 0.0000 -1.0000 -0.0000
vn 0.0000 -1.0000 -0.0000
vn 0.7071 -0.7071 -0.0000
vn 0.9239 -0.3827 -0.0000
vn 0.9239 -0.3827 -0.0000
vn 0.9239 -0.3827 -0.0000
vn 0.7071 -0.7071 -0.0000
vn 0.7071 -0.7071 -0.0000
vn 0.9239 0.3827 0.0000
vn 0.7071 0.7071 0.0000
vn 0.7071 0.7071 0.0000
vn 0.7071 0.7071 0.0000
vn 0.9239 0.3827 0.0000
vn 0.9239 0.3827 0.0000
vn 0.7071 0.7071 0.0000
vn -0.0000 1.0000 0.0000
vn -0.0000 1.0000 0.0000
vn -0.0000 1.0000 0.0000
vn 0.7071 0.7071 0.0000
vn 0.7071 0.7071 0.0000
vn -0.0000 1.0000 0.0000
vn -0.3827 0.9239 0.0000
vn -0.3827 0.9239 0.0000
vn -0.3827 0.9239 0.0000
vn -0.0000 1.0000 0.0000
vn -0.0000 1.0000 0.0000
vn -0.9239 0.3827 0.0000
vn -1.0000 -0.0000 -0.0000
vn -1.0000 -0.0000 -0.0000
vn -1.0000 -0.0000 -0.0000
vn -0.9239 0.3827 0.0000
vn -0.9239 0.3827 0.0000
vn -1.0000 -0.0000 -0.0000
vn -0.7071 -0.7071 -0.0000
vn -0.7071 -0.7071 -0.0000
vn -0.7071 -0.7071 -0.0000
vn -1.0000 -0.0000 -0.0000
vn -1.0000 -0.0000 -0.0000
vn -0.7071 -0.7071 -0.0000
vn 0.0000 -1.0000 -0.0000
vn 0.0000 -1.0000 -0.0000
vn 0.0000 -1.0000 -0.0000
vn -0.7071 -0.7071 -0.0000
vn -0.7071 -0.7071 -0.0000
# 84 vertex normals

vt 0.4375 0.7646 0.0000
vt 0.3826 0.8972 0.0000
vt 0.2500 0.9521 0.0000
vt 0.1174 0.8972 0.0000
vt 0.0625 0.7646 0.0000
vt 0.1174 0.6320 0.0000
vt 0.2500 0.5771 0.0000
vt 0.3826 0.6320 0.0000
vt 0.7542 0.5354 0.0000
vt 0.6458 0.5354 0.0000
vt 0.6458 0.5104 0.0000
vt 0.7542 0.5104 0.0000
vt 0.8653 0.5354 0.0000
vt 0.8653 0.5104 0.0000
vt -0.0138 0.5354 0.0000
vt -0.0138 0.5104 0.0000
vt 0.1249 0.5354 0.0000
vt 0.1249 0.5104 0.0000
vt 0.2751 0.5354 0.0000
vt 0.2751 0.5104 0.0000
vt 0.4138 0.5354 0.0000
vt 0.4138 0.5104 0.0000
vt 0.5347 0.5354 0.0000
vt 0.5347 0.5104 0.0000
vt 0.9862 0.5354 0.0000
vt 0.9862 0.5104 0.0000
vt 0.7500 0.9521 0.0000
vt 0.8826 0.8972 0.0000
vt 0.9375 0.7646 0.0000
vt 0.8826 0.6320 0.0000
vt 0.7500 0.5771 0.0000
vt 0.6174 0.6320 0.0000
vt 0.5625 0.7646 0.0000
vt 0.6174 0.8972 0.0000
# 34 texture coords

g OctOffset
usemtl wire_224086086
f 8/1/1 1/2/2 18/3/3 
f 8/1/4 18/3/5 20/4/6 
f 8/1/7 20/4/8 21/5/9 
f 8/1/10 21/5/11 22/6/12 
f 8/1/13 22/6/14 23/7/15 
f 8/1/16 23/7/17 24/8/18 
f 10/27/19 9/28/20 35/29/21 
f 35/29/22 15/30/23 14/31/24 
f 35/29/25 14/31/26 13/32/27 
f 35/29/28 13/32/29 12/33/30 
f 35/29/31 12/33/32 29/34/33 
f 10/27/34 35/29/35 29/34/36 
f 33/11/37 34/12/38 7/9/39 
f 7/9/40 6/10/41 33/11/42 
f 34/12/43 16/14/44 25/13/45 
f 25/13/46 7/9/47 34/12/48 
f 36/14/49 27/26/50 17/25/51 
f 17/25/52 26/13/53 36/14/54 
f 27/16/55 28/18/56 2/17/57 
f 2/17/58 17/15/59 27/16/60 
f 28/18/61 11/20/62 3/19/63 
f 3/19/64 2/17/65 28/18/66 
f 30/20/67 31/22/68 4/21/69 
f 4/21/70 19/19/71 30/20/72 
f 31/22/73 32/24/74 5/23/75 
f 5/23/76 4/21/77 31/22/78 
f 32/24/79 33/11/80 6/10/81 
f 6/10/82 5/23/83 32/24/84 
# 28 faces

#
# object OctOffset_BASE
#

v  0.3750 -0.0313 -0.0000
v  0.3465 -0.0313 -0.1435
v  0.2652 -0.0313 -0.2652
v  0.1435 -0.0313 -0.3465
v  -0.0000 -0.0313 -0.3750
v  -0.1435 -0.0313 -0.3465
v  -0.2652 -0.0313 -0.2652
v  -0.3465 -0.0313 -0.1435
v  -0.3750 -0.0313 -0.0000
v  -0.3465 -0.0313 0.1435
v  -0.2652 -0.0313 0.2652
v  -0.1435 -0.0313 0.3465
v  0.0000 -0.0313 0.3750
v  0.1435 -0.0313 0.3465
v  0.2652 -0.0313 0.2652
v  0.3465 -0.0313 0.1435
v  0.3750 0.0313 -0.0000
v  0.3465 0.0313 -0.1435
v  0.2652 0.0313 -0.2652
v  0.1435 0.0313 -0.3465
v  -0.0000 0.0313 -0.3750
v  -0.1435 0.0313 -0.3465
v  -0.2652 0.0313 -0.2652
v  -0.3465 0.0313 -0.1435
v  -0.3750 0.0313 -0.0000
v  -0.3465 0.0313 0.1435
v  -0.2652 0.0313 0.2652
v  -0.1435 0.0313 0.3465
v  0.0000 0.0313 0.3750
v  0.1435 0.0313 0.3465
v  0.2652 0.0313 0.2652
v  0.3465 0.0313 0.1435
v  0.3750 -0.0313 -0.0000
v  0.3465 -0.0313 -0.1435
v  0.2652 -0.0313 -0.2652
v  0.1435 -0.0313 -0.3465
v  -0.0000 -0.0313 -0.3750
v  -0.1435 -0.0313 -0.3465
v  -0.2652 -0.0313 -0.2652
v  -0.3465 -0.0313 -0.1435
v  -0.3750 -0.0313 -0.0000
v  -0.3465 -0.0313 0.1435
v  -0.2652 -0.0313 0.2652
v  -0.1435 -0.0313 0.3465
v  0.0000 -0.0313 0.3750
v  0.1435 -0.0313 0.3465
v  0.2652 -0.0313 0.2652
v  0.3465 -0.0313 0.1435
v  0.3750 0.0313 -0.0000
v  0.3465 0.0313 -0.1435
v  0.2652 0.0313 -0.2652
v  0.1435 0.0313 -0.3465
v  -0.0000 0.0313 -0.3750
v  -0.1435 0.0313 -0.3465
v  -0.2652 0.0313 -0.2652
v  -0.3465 0.0313 -0.1435
v  -0.3750 0.0313 -0.0000
v  -0.3465 0.0313 0.1435
v  -0.2652 0.0313 0.2652
v  -0.1435 0.0313 0.3465
v  0.0000 0.0313 0.3750
v  0.1435 0.0313 0.3465
v  0.2652 0.0313 0.2652
v  0.3465 0.0313 0.1435
# 64 vertices

vn 1.0000 0.0000 -0.0000
vn 0.9239 0.0000 -0.3827
vn 0.9239 0.0000 -0.3827
vn 0.9239 0.0000 -0.3827
vn 1.0000 0.0000 -0.0000
vn 1.0000 0.0000 -0.0000
vn 0.9239 0.0000 -0.3827
vn 0.7071 0.0000 -0.7071
vn 0.7071 0.0000 -0.7071
vn 0.7071 0.0000 -0.7071
vn 0.9239 0.0000 -0.3827
vn 0.9239 0.0000 -0.3827
vn 0.7071 0.0000 -0.7071
vn 0.3827 0.0000 -0.9239
vn 0.3827 0.0000 -0.9239
vn 0.3827 0.0000 -0.9239
vn 0.7071 0.0000 -0.7071
vn 0.7071 0.0000 -0.7071
vn 0.3827 0.0000 -0.9239
vn 0.0000 0.0000 -1.0000
vn 0.0000 0.0000 -1.0000
vn 0.0000 0.0000 -1.0000
vn 0.3827 0.0000 -0.9239
vn 0.3827 0.0000 -0.9239
vn 0.0000 0.0000 -1.0000
vn -0.3827 0.0000 -0.9239
vn -0.3827 0.0000 -0.9239
vn -0.3827 0.0000 -0.9239
vn 0.0000 0.0000 -1.0000
vn 0.0000 0.0000 -1.0000
vn -0.3827 0.0000 -0.9239
vn -0.7071 0.0000 -0.7071
vn -0.7071 0.0000 -0.7071
vn -0.7071 0.0000 -0.7071
vn -0.3827 0.0000 -0.9239
vn -0.3827 0.0000 -0.9239
vn -0.7071 0.0000 -0.7071
vn -0.9239 0.0000 -0.3827
vn -0.9239 0.0000 -0.3827
vn -0.9239 0.0000 -0.3827
vn -0.7071 0.0000 -0.7071
vn -0.7071 0.0000 -0.7071
vn -0.9239 0.0000 -0.3827
vn -1.0000 0.0000 -0.0000
vn -1.0000 0.0000 -0.0000
vn -1.0000 0.0000 -0.0000
vn -0.9239 0.0000 -0.3827
vn -0.9239 0.0000 -0.3827
vn -1.0000 0.0000 -0.0000
vn -0.9239 0.0000 0.3827
vn -0.9239 0.0000 0.3827
vn -0.9239 0.0000 0.3827
vn -1.0000 0.0000 -0.0000
vn -1.0000 0.0000 -0.0000
vn -0.9239 0.0000 0.3827
vn -0.7071 0.0000 0.7071
vn -0.7071 0.0000 0.7071
vn -0.7071 0.0000 0.7071
vn -0.9239 0.0000 0.3827
vn -0.9239 0.0000 0.3827
vn -0.7071 0.0000 0.7071
vn -0.3827 0.0000 0.9239
vn -0.3827 0.0000 0.9239
vn -0.3827 0.0000 0.9239
vn -0.7071 0.0000 0.7071
vn -0.7071 0.0000 0.7071
vn -0.3827 0.0000 0.9239
vn 0.0000 0.0000 1.0000
vn 0.0000 0.0000 1.0000
vn 0.0000 0.0000 1.0000
vn -0.3827 0.0000 0.9239
vn -0.3827 0.0000 0.9239
vn 0.0000 0.0000 1.0000
vn 0.3827 0.0000 0.9239
vn 0.3827 0.0000 0.9239
vn 0.3827 0.0000 0.9239
vn 0.0000 0.0000 1.0000
vn 0.0000 0.0000 1.0000
vn 0.3827 0.0000 0.9239
vn 0.7071 0.0000 0.7071
vn 0.7071 0.0000 0.7071
vn 0.7071 0.0000 0.7071
vn 0.3827 0.0000 0.9239
vn 0.3827 0.0000 0.9239
vn 0.7071 0.0000 0.7071
vn 0.9239 0.0000 0.3827
vn 0.9239 0.0000 0.3827
vn 0.9239 0.0000 0.3827
vn 0.7071 0.0000 0.7071
vn 0.7071 0.0000 0.7071
vn 0.9239 0.0000 0.3827
vn 1.0000 0.0000 -0.0000
vn 1.0000 0.0000 -0.0000
vn 1.0000 0.0000 -0.0000
vn 0.9239 0.0000 0.3827
vn 0.9239 0.0000 0.3827
vn 0.0000 -1.0000 -0.0000
vn 0.0000 -1.0000 -0.0000
vn 0.0000 -1.0000 -0.0000
vn 0.0000 -1.0000 -0.0000
vn 0.0000 -1.0000 -0.0000
vn 0.0000 -1.0000 -0.0000
vn 0.0000 -1.0000 -0.0000
vn 0.0000 -1.0000 -0.0000
vn 0.0000 -1.0000 -0.0000
vn 0.0000 -1.0000 -0.0000
vn 0.0000 -1.0000 -0.0000
vn 0.0000 -1.0000 -0.0000
vn 0.0000 -1.0000 -0.0000
vn 0.0000 -1.0000 -0.0000
vn 0.0000 -1.0000 -0.0000
vn 0.0000 -1.0000 -0.0000
vn 0.0000 -1.0000 -0.0000
vn 0.0000 -1.0000 -0.0000
vn 0.0000 -1.0000 -0.0000
vn 0.0000 -1.0000 -0.0000
vn 0.0000 -1.0000 -0.0000
vn 0.0000 -1.0000 -0.0000
vn 0.0000 -1.0000 -0.0000
vn 0.0000 -1.0000 -0.0000
vn 0.0000 -1.0000 -0.0000
vn 0.0000 -1.0000 -0.0000
vn 0.0000 -1.0000 -0.0000
vn 0.0000 -1.0000 -0.0000
vn 0.0000 -1.0000 -0.0000
vn 0.0000 -1.0000 -0.0000
vn 0.0000 -1.0000 -0.0000
vn 0.0000 -1.0000 -0.0000
vn 0.0000 -1.0000 -0.0000
vn 0.0000 -1.0000 -0.0000
vn 0.0000 -1.0000 -0.0000
vn 0.0000 -1.0000 -0.0000
vn 0.0000 -1.0000 -0.0000
vn 0.0000 -1.0000 -0.0000
vn 0.0000 -1.0000 -0.0000
vn 0.0000 -1.0000 -0.0000
vn 0.0000 -1.0000 -0.0000
vn 0.0000 -1.0000 -0.0000
vn 0.0000 1.0000 -0.0000
vn 0.0000 1.0000 -0.0000
vn 0.0000 1.0000 -0.0000
vn 0.0000 1.0000 -0.0000
vn 0.0000 1.0000 -0.0000
vn 0.0000 1.0000 -0.0000
vn 0.0000 1.0000 -0.0000
vn 0.0000 1.0000 -0.0000
vn 0.0000 1.0000 -0.0000
vn 0.0000 1.0000 -0.0000
vn 0.0000 1.0000 -0.0000
vn 0.0000 1.0000 -0.0000
vn 0.0000 1.0000 -0.0000
vn 0.0000 1.0000 -0.0000
vn 0.0000 1.0000 -0.0000
vn 0.0000 1.0000 -0.0000
vn 0.0000 1.0000 -0.0000
vn 0.0000 1.0000 -0.0000
vn 0.0000 1.0000 -0.0000
vn 0.0000 1.0000 -0.0000
vn 0.0000 1.0000 -0.0000
vn 0.0000 1.0000 -0.0000
vn 0.0000 1.0000 -0.0000
vn 0.0000 1.0000 -0.0000
vn 0.0000 1.0000 -0.0000
vn 0.0000 1.0000 -0.0000
vn 0.0000 1.0000 -0.0000
vn 0.0000 1.0000 -0.0000
vn 0.0000 1.0000 -0.0000
vn 0.0000 1.0000 -0.0000
vn 0.0000 1.0000 -0.0000
vn 0.0000 1.0000 -0.0000
vn 0.0000 1.0000 -0.0000
vn 0.0000 1.0000 -0.0000
vn 0.0000 1.0000 -0.0000
vn 0.0000 1.0000 -0.0000
vn 0.0000 1.0000 -0.0000
vn 0.0000 1.0000 -0.0000
vn 0.0000 1.0000 -0.0000
vn 0.0000 1.0000 -0.0000
vn 0.0000 1.0000 -0.0000
vn 0.0000 1.0000 -0.0000
# 180 vertex normals

vt 0.9375 0.2500 0.0000
vt 0.9232 0.3218 0.0000
vt 0.7500 0.0180 0.0000
vt 0.8125 0.0180 0.0000
vt 0.8826 0.3826 0.0000
vt 0.8125 0.0445 0.0000
vt 0.8218 0.4232 0.0000
vt 0.7500 0.0445 0.0000
vt 0.7500 0.4375 0.0000
vt 0.8750 0.0180 0.0000
vt 0.6782 0.4232 0.0000
vt 0.8750 0.0445 0.0000
vt 0.6174 0.3826 0.0000
vt 0.9375 0.0180 0.0000
vt 0.5768 0.3218 0.0000
vt 0.9375 0.0445 0.0000
vt 0.5625 0.2500 0.0000
vt 0.0000 0.0180 0.0000
vt 0.5768 0.1782 0.0000
vt 0.0000 0.0445 0.0000
vt 0.6174 0.1174 0.0000
vt 0.0625 0.0180 0.0000
vt 0.6782 0.0768 0.0000
vt 0.0625 0.0445 0.0000
vt 0.7500 0.0625 0.0000
vt 0.1250 0.0180 0.0000
vt 0.8218 0.0768 0.0000
vt 0.1250 0.0445 0.0000
vt 0.8826 0.1174 0.0000
vt 0.1875 0.0180 0.0000
vt 0.9232 0.1782 0.0000
vt 0.1875 0.0445 0.0000
vt 0.4232 0.3218 0.0000
vt 0.4375 0.2500 0.0000
vt 0.3826 0.3826 0.0000
vt 0.3218 0.4232 0.0000
vt 0.2500 0.4375 0.0000
vt 0.1782 0.4232 0.0000
vt 0.1174 0.3826 0.0000
vt 0.0768 0.3218 0.0000
vt 0.0625 0.2500 0.0000
vt 0.0768 0.1782 0.0000
vt 0.1174 0.1174 0.0000
vt 0.1782 0.0768 0.0000
vt 0.2500 0.0625 0.0000
vt 0.3218 0.0768 0.0000
vt 0.3826 0.1174 0.0000
vt 0.4232 0.1782 0.0000
vt 0.2500 0.0180 0.0000
vt 0.2500 0.0445 0.0000
vt 0.3125 0.0180 0.0000
vt 0.3125 0.0445 0.0000
vt 0.3750 0.0180 0.0000
vt 0.3750 0.0445 0.0000
vt 0.4375 0.0180 0.0000
vt 0.4375 0.0445 0.0000
vt 0.5000 0.0180 0.0000
vt 0.5000 0.0445 0.0000
vt 0.5625 0.0180 0.0000
vt 0.5625 0.0445 0.0000
vt 0.6250 0.0180 0.0000
vt 0.6250 0.0445 0.0000
vt 0.6875 0.0180 0.0000
vt 0.6875 0.0445 0.0000
vt 1.0000 0.0180 0.0000
vt 1.0000 0.0445 0.0000
# 66 texture coords

g OctOffset_BASE
usemtl wire_176026026
f 37/37/85 70/38/86 86/40/87 
f 86/40/88 85/42/89 37/37/90 
f 70/38/91 71/44/92 87/46/93 
f 87/46/94 86/40/95 70/38/96 
f 71/44/97 72/48/98 88/50/99 
f 88/50/100 87/46/101 71/44/102 
f 72/48/103 73/99/104 89/100/105 
f 89/100/106 88/50/107 72/48/108 
f 73/52/109 74/56/110 90/58/111 
f 90/58/112 89/54/113 73/52/114 
f 74/56/115 75/60/116 91/62/117 
f 91/62/118 90/58/119 74/56/120 
f 75/60/121 76/64/122 92/66/123 
f 92/66/124 91/62/125 75/60/126 
f 76/64/127 77/83/128 93/84/129 
f 93/84/130 92/66/131 76/64/132 
f 77/83/133 78/85/134 94/86/135 
f 94/86/136 93/84/137 77/83/138 
f 78/85/139 79/87/140 95/88/141 
f 95/88/142 94/86/143 78/85/144 
f 79/87/145 80/89/146 96/90/147 
f 96/90/148 95/88/149 79/87/150 
f 80/89/151 81/91/152 97/92/153 
f 97/92/154 96/90/155 80/89/156 
f 81/91/157 82/93/158 98/94/159 
f 98/94/160 97/92/161 81/91/162 
f 82/93/163 83/95/164 99/96/165 
f 99/96/166 98/94/167 82/93/168 
f 83/95/169 52/97/170 100/98/171 
f 100/98/172 99/96/173 83/95/174 
f 52/97/175 37/37/176 85/42/177 
f 85/42/178 100/98/179 52/97/180 
f 51/63/181 50/61/182 49/59/183 
f 49/59/184 48/57/185 47/55/186 
f 47/55/187 46/53/188 45/51/189 
f 49/59/190 47/55/191 45/51/192 
f 45/51/193 44/49/194 43/47/195 
f 43/47/196 42/45/197 41/43/198 
f 45/51/199 43/47/200 41/43/201 
f 41/43/202 40/41/203 39/39/204 
f 39/39/205 38/36/206 69/35/207 
f 41/43/208 39/39/209 69/35/210 
f 45/51/211 41/43/212 69/35/213 
f 49/59/214 45/51/215 69/35/216 
f 51/63/217 49/59/218 69/35/219 
f 84/65/220 51/63/221 69/35/222 
f 54/67/223 55/69/224 56/70/225 
f 56/70/226 57/71/227 58/72/228 
f 58/72/229 59/73/230 60/74/231 
f 56/70/232 58/72/233 60/74/234 
f 60/74/235 61/75/236 62/76/237 
f 62/76/238 63/77/239 64/78/240 
f 60/74/241 62/76/242 64/78/243 
f 64/78/244 65/79/245 66/80/246 
f 66/80/247 67/81/248 68/82/249 
f 64/78/250 66/80/251 68/82/252 
f 60/74/253 64/78/254 68/82/255 
f 56/70/256 60/74/257 68/82/258 
f 54/67/259 56/70/260 68/82/261 
f 53/68/262 54/67/263 68/82/264 
# 60 faces

