# 3ds Max Wavefront OBJ Exporter v0.97b - (c)2007 guruware
# File Created: 11.03.2017 12:49:21

mtllib Pent_MSH.mtl

#
# object Pent
#

v  -0.0000 0.5257 0.0313
v  -0.5000 0.1625 0.0313
v  -0.3090 -0.4253 0.0312
v  0.3090 -0.4253 0.0312
v  0.5000 0.1625 0.0313
v  -0.0000 0.5257 -0.0312
v  -0.5000 0.1625 -0.0312
v  -0.3090 -0.4253 -0.0313
v  0.3090 -0.4253 -0.0313
v  0.5000 0.1625 -0.0312
v  -0.0000 0.5257 0.0313
v  -0.0000 0.5257 0.0313
v  -0.5000 0.1625 0.0313
v  -0.5000 0.1625 0.0313
v  -0.3090 -0.4253 0.0312
v  -0.3090 -0.4253 0.0312
v  0.3090 -0.4253 0.0312
v  0.3090 -0.4253 0.0312
v  0.5000 0.1625 0.0313
v  0.5000 0.1625 0.0313
v  -0.0000 0.5257 -0.0312
v  -0.0000 0.5257 -0.0312
v  -0.5000 0.1625 -0.0312
v  -0.5000 0.1625 -0.0312
v  -0.3090 -0.4253 -0.0313
v  -0.3090 -0.4253 -0.0313
v  0.3090 -0.4253 -0.0313
v  0.3090 -0.4253 -0.0313
v  0.5000 0.1625 -0.0312
v  0.5000 0.1625 -0.0312
# 30 vertices

vn 0.0000 -0.0000 1.0000
vn 0.0000 -0.0000 1.0000
vn 0.0000 -0.0000 1.0000
vn 0.0000 -0.0000 1.0000
vn 0.0000 -0.0000 1.0000
vn 0.0000 -0.0000 1.0000
vn 0.0000 -0.0000 1.0000
vn 0.0000 -0.0000 1.0000
vn 0.0000 -0.0000 1.0000
vn 0.0000 0.0000 -1.0000
vn 0.0000 0.0000 -1.0000
vn 0.0000 0.0000 -1.0000
vn 0.0000 0.0000 -1.0000
vn 0.0000 0.0000 -1.0000
vn 0.0000 0.0000 -1.0000
vn 0.0000 0.0000 -1.0000
vn 0.0000 0.0000 -1.0000
vn 0.0000 0.0000 -1.0000
vn -0.5878 0.8090 0.0000
vn -0.5878 0.8090 0.0000
vn -0.5878 0.8090 0.0000
vn -0.5878 0.8090 0.0000
vn -0.5878 0.8090 0.0000
vn -0.5878 0.8090 0.0000
vn -0.9511 -0.3090 -0.0000
vn -0.9511 -0.3090 -0.0000
vn -0.9511 -0.3090 -0.0000
vn -0.9511 -0.3090 -0.0000
vn -0.9511 -0.3090 -0.0000
vn -0.9511 -0.3090 -0.0000
vn 0.0000 -1.0000 -0.0000
vn 0.0000 -1.0000 -0.0000
vn 0.0000 -1.0000 -0.0000
vn 0.0000 -1.0000 -0.0000
vn 0.0000 -1.0000 -0.0000
vn 0.0000 -1.0000 -0.0000
vn 0.9511 -0.3090 -0.0000
vn 0.9511 -0.3090 -0.0000
vn 0.9511 -0.3090 -0.0000
vn 0.9511 -0.3090 -0.0000
vn 0.9511 -0.3090 -0.0000
vn 0.9511 -0.3090 -0.0000
vn 0.5878 0.8090 0.0000
vn 0.5878 0.8090 0.0000
vn 0.5878 0.8090 0.0000
vn 0.5878 0.8090 0.0000
vn 0.5878 0.8090 0.0000
vn 0.5878 0.8090 0.0000
# 48 vertex normals

vt 0.1341 0.6051 0.0000
vt 0.3659 0.6051 0.0000
vt 0.4375 0.8255 0.0000
vt 0.2500 0.9618 0.0000
vt 0.0625 0.8255 0.0000
vt 0.4253 0.5354 0.0000
vt 0.2000 0.5354 0.0000
vt 0.2000 0.5104 0.0000
vt 0.4253 0.5104 0.0000
vt 0.6124 0.5354 0.0000
vt 0.6124 0.5104 0.0000
vt 0.7876 0.5354 0.0000
vt 0.7876 0.5104 0.0000
vt -0.0253 0.5354 0.0000
vt -0.0253 0.5104 0.0000
vt 0.9747 0.5354 0.0000
vt 0.9747 0.5104 0.0000
vt 0.9375 0.8255 0.0000
vt 0.8659 0.6051 0.0000
vt 0.6341 0.6051 0.0000
vt 0.5625 0.8255 0.0000
vt 0.7500 0.9618 0.0000
# 22 texture coords

g Pent
usemtl wire_224086086
f 16/1/1 18/2/2 5/3/3 
f 16/1/4 5/3/5 1/4/6 
f 16/1/7 1/4/8 14/5/9 
f 29/18/10 27/19/11 25/20/12 
f 25/20/13 23/21/14 21/22/15 
f 29/18/16 25/20/17 21/22/18 
f 22/8/19 7/9/20 2/6/21 
f 2/6/22 12/7/23 22/8/24 
f 24/9/25 8/11/26 3/10/27 
f 3/10/28 13/6/29 24/9/30 
f 26/11/31 9/13/32 4/12/33 
f 4/12/34 15/10/35 26/11/36 
f 28/13/37 10/17/38 19/16/39 
f 19/16/40 17/12/41 28/13/42 
f 30/15/43 6/8/44 11/7/45 
f 11/7/46 20/14/47 30/15/48 
# 16 faces

#
# object Pent_BASE
#

v  0.3750 -0.0313 -0.0000
v  0.3465 -0.0313 -0.1435
v  0.2652 -0.0313 -0.2652
v  0.1435 -0.0313 -0.3465
v  -0.0000 -0.0313 -0.3750
v  -0.1435 -0.0313 -0.3465
v  -0.2652 -0.0313 -0.2652
v  -0.3465 -0.0313 -0.1435
v  -0.3750 -0.0313 -0.0000
v  -0.3465 -0.0313 0.1435
v  -0.2652 -0.0313 0.2652
v  -0.1435 -0.0313 0.3465
v  0.0000 -0.0313 0.3750
v  0.1435 -0.0313 0.3465
v  0.2652 -0.0313 0.2652
v  0.3465 -0.0313 0.1435
v  0.3750 0.0313 -0.0000
v  0.3465 0.0313 -0.1435
v  0.2652 0.0313 -0.2652
v  0.1435 0.0313 -0.3465
v  -0.0000 0.0313 -0.3750
v  -0.1435 0.0313 -0.3465
v  -0.2652 0.0313 -0.2652
v  -0.3465 0.0313 -0.1435
v  -0.3750 0.0313 -0.0000
v  -0.3465 0.0313 0.1435
v  -0.2652 0.0313 0.2652
v  -0.1435 0.0313 0.3465
v  0.0000 0.0313 0.3750
v  0.1435 0.0313 0.3465
v  0.2652 0.0313 0.2652
v  0.3465 0.0313 0.1435
v  0.3750 -0.0313 -0.0000
v  0.3465 -0.0313 -0.1435
v  0.2652 -0.0313 -0.2652
v  0.1435 -0.0313 -0.3465
v  -0.0000 -0.0313 -0.3750
v  -0.1435 -0.0313 -0.3465
v  -0.2652 -0.0313 -0.2652
v  -0.3465 -0.0313 -0.1435
v  -0.3750 -0.0313 -0.0000
v  -0.3465 -0.0313 0.1435
v  -0.2652 -0.0313 0.2652
v  -0.1435 -0.0313 0.3465
v  0.0000 -0.0313 0.3750
v  0.1435 -0.0313 0.3465
v  0.2652 -0.0313 0.2652
v  0.3465 -0.0313 0.1435
v  0.3750 0.0313 -0.0000
v  0.3465 0.0313 -0.1435
v  0.2652 0.0313 -0.2652
v  0.1435 0.0313 -0.3465
v  -0.0000 0.0313 -0.3750
v  -0.1435 0.0313 -0.3465
v  -0.2652 0.0313 -0.2652
v  -0.3465 0.0313 -0.1435
v  -0.3750 0.0313 -0.0000
v  -0.3465 0.0313 0.1435
v  -0.2652 0.0313 0.2652
v  -0.1435 0.0313 0.3465
v  0.0000 0.0313 0.3750
v  0.1435 0.0313 0.3465
v  0.2652 0.0313 0.2652
v  0.3465 0.0313 0.1435
# 64 vertices

vn 1.0000 0.0000 -0.0000
vn 0.9239 0.0000 -0.3827
vn 0.9239 0.0000 -0.3827
vn 0.9239 0.0000 -0.3827
vn 1.0000 0.0000 -0.0000
vn 1.0000 0.0000 -0.0000
vn 0.9239 0.0000 -0.3827
vn 0.7071 0.0000 -0.7071
vn 0.7071 0.0000 -0.7071
vn 0.7071 0.0000 -0.7071
vn 0.9239 0.0000 -0.3827
vn 0.9239 0.0000 -0.3827
vn 0.7071 0.0000 -0.7071
vn 0.3827 0.0000 -0.9239
vn 0.3827 0.0000 -0.9239
vn 0.3827 0.0000 -0.9239
vn 0.7071 0.0000 -0.7071
vn 0.7071 0.0000 -0.7071
vn 0.3827 0.0000 -0.9239
vn 0.0000 0.0000 -1.0000
vn 0.0000 0.0000 -1.0000
vn 0.0000 0.0000 -1.0000
vn 0.3827 0.0000 -0.9239
vn 0.3827 0.0000 -0.9239
vn 0.0000 0.0000 -1.0000
vn -0.3827 0.0000 -0.9239
vn -0.3827 0.0000 -0.9239
vn -0.3827 0.0000 -0.9239
vn 0.0000 0.0000 -1.0000
vn 0.0000 0.0000 -1.0000
vn -0.3827 0.0000 -0.9239
vn -0.7071 0.0000 -0.7071
vn -0.7071 0.0000 -0.7071
vn -0.7071 0.0000 -0.7071
vn -0.3827 0.0000 -0.9239
vn -0.3827 0.0000 -0.9239
vn -0.7071 0.0000 -0.7071
vn -0.9239 0.0000 -0.3827
vn -0.9239 0.0000 -0.3827
vn -0.9239 0.0000 -0.3827
vn -0.7071 0.0000 -0.7071
vn -0.7071 0.0000 -0.7071
vn -0.9239 0.0000 -0.3827
vn -1.0000 0.0000 -0.0000
vn -1.0000 0.0000 -0.0000
vn -1.0000 0.0000 -0.0000
vn -0.9239 0.0000 -0.3827
vn -0.9239 0.0000 -0.3827
vn -1.0000 0.0000 -0.0000
vn -0.9239 0.0000 0.3827
vn -0.9239 0.0000 0.3827
vn -0.9239 0.0000 0.3827
vn -1.0000 0.0000 -0.0000
vn -1.0000 0.0000 -0.0000
vn -0.9239 0.0000 0.3827
vn -0.7071 0.0000 0.7071
vn -0.7071 0.0000 0.7071
vn -0.7071 0.0000 0.7071
vn -0.9239 0.0000 0.3827
vn -0.9239 0.0000 0.3827
vn -0.7071 0.0000 0.7071
vn -0.3827 0.0000 0.9239
vn -0.3827 0.0000 0.9239
vn -0.3827 0.0000 0.9239
vn -0.7071 0.0000 0.7071
vn -0.7071 0.0000 0.7071
vn -0.3827 0.0000 0.9239
vn 0.0000 0.0000 1.0000
vn 0.0000 0.0000 1.0000
vn 0.0000 0.0000 1.0000
vn -0.3827 0.0000 0.9239
vn -0.3827 0.0000 0.9239
vn 0.0000 0.0000 1.0000
vn 0.3827 0.0000 0.9239
vn 0.3827 0.0000 0.9239
vn 0.3827 0.0000 0.9239
vn 0.0000 0.0000 1.0000
vn 0.0000 0.0000 1.0000
vn 0.3827 0.0000 0.9239
vn 0.7071 0.0000 0.7071
vn 0.7071 0.0000 0.7071
vn 0.7071 0.0000 0.7071
vn 0.3827 0.0000 0.9239
vn 0.3827 0.0000 0.9239
vn 0.7071 0.0000 0.7071
vn 0.9239 0.0000 0.3827
vn 0.9239 0.0000 0.3827
vn 0.9239 0.0000 0.3827
vn 0.7071 0.0000 0.7071
vn 0.7071 0.0000 0.7071
vn 0.9239 0.0000 0.3827
vn 1.0000 0.0000 -0.0000
vn 1.0000 0.0000 -0.0000
vn 1.0000 0.0000 -0.0000
vn 0.9239 0.0000 0.3827
vn 0.9239 0.0000 0.3827
vn 0.0000 -1.0000 -0.0000
vn 0.0000 -1.0000 -0.0000
vn 0.0000 -1.0000 -0.0000
vn 0.0000 -1.0000 -0.0000
vn 0.0000 -1.0000 -0.0000
vn 0.0000 -1.0000 -0.0000
vn 0.0000 -1.0000 -0.0000
vn 0.0000 -1.0000 -0.0000
vn 0.0000 -1.0000 -0.0000
vn 0.0000 -1.0000 -0.0000
vn 0.0000 -1.0000 -0.0000
vn 0.0000 -1.0000 -0.0000
vn 0.0000 -1.0000 -0.0000
vn 0.0000 -1.0000 -0.0000
vn 0.0000 -1.0000 -0.0000
vn 0.0000 -1.0000 -0.0000
vn 0.0000 -1.0000 -0.0000
vn 0.0000 -1.0000 -0.0000
vn 0.0000 -1.0000 -0.0000
vn 0.0000 -1.0000 -0.0000
vn 0.0000 -1.0000 -0.0000
vn 0.0000 -1.0000 -0.0000
vn 0.0000 -1.0000 -0.0000
vn 0.0000 -1.0000 -0.0000
vn 0.0000 -1.0000 -0.0000
vn 0.0000 -1.0000 -0.0000
vn 0.0000 -1.0000 -0.0000
vn 0.0000 -1.0000 -0.0000
vn 0.0000 -1.0000 -0.0000
vn 0.0000 -1.0000 -0.0000
vn 0.0000 -1.0000 -0.0000
vn 0.0000 -1.0000 -0.0000
vn 0.0000 -1.0000 -0.0000
vn 0.0000 -1.0000 -0.0000
vn 0.0000 -1.0000 -0.0000
vn 0.0000 -1.0000 -0.0000
vn 0.0000 -1.0000 -0.0000
vn 0.0000 -1.0000 -0.0000
vn 0.0000 -1.0000 -0.0000
vn 0.0000 -1.0000 -0.0000
vn 0.0000 -1.0000 -0.0000
vn 0.0000 -1.0000 -0.0000
vn 0.0000 1.0000 -0.0000
vn 0.0000 1.0000 -0.0000
vn 0.0000 1.0000 -0.0000
vn 0.0000 1.0000 -0.0000
vn 0.0000 1.0000 -0.0000
vn 0.0000 1.0000 -0.0000
vn 0.0000 1.0000 -0.0000
vn 0.0000 1.0000 -0.0000
vn 0.0000 1.0000 -0.0000
vn 0.0000 1.0000 -0.0000
vn 0.0000 1.0000 -0.0000
vn 0.0000 1.0000 -0.0000
vn 0.0000 1.0000 -0.0000
vn 0.0000 1.0000 -0.0000
vn 0.0000 1.0000 -0.0000
vn 0.0000 1.0000 -0.0000
vn 0.0000 1.0000 -0.0000
vn 0.0000 1.0000 -0.0000
vn 0.0000 1.0000 -0.0000
vn 0.0000 1.0000 -0.0000
vn 0.0000 1.0000 -0.0000
vn 0.0000 1.0000 -0.0000
vn 0.0000 1.0000 -0.0000
vn 0.0000 1.0000 -0.0000
vn 0.0000 1.0000 -0.0000
vn 0.0000 1.0000 -0.0000
vn 0.0000 1.0000 -0.0000
vn 0.0000 1.0000 -0.0000
vn 0.0000 1.0000 -0.0000
vn 0.0000 1.0000 -0.0000
vn 0.0000 1.0000 -0.0000
vn 0.0000 1.0000 -0.0000
vn 0.0000 1.0000 -0.0000
vn 0.0000 1.0000 -0.0000
vn 0.0000 1.0000 -0.0000
vn 0.0000 1.0000 -0.0000
vn 0.0000 1.0000 -0.0000
vn 0.0000 1.0000 -0.0000
vn 0.0000 1.0000 -0.0000
vn 0.0000 1.0000 -0.0000
vn 0.0000 1.0000 -0.0000
vn 0.0000 1.0000 -0.0000
# 180 vertex normals

vt 0.9375 0.2500 0.0000
vt 0.9232 0.3218 0.0000
vt 0.7500 0.0180 0.0000
vt 0.8125 0.0180 0.0000
vt 0.8826 0.3826 0.0000
vt 0.8125 0.0445 0.0000
vt 0.8218 0.4232 0.0000
vt 0.7500 0.0445 0.0000
vt 0.7500 0.4375 0.0000
vt 0.8750 0.0180 0.0000
vt 0.6782 0.4232 0.0000
vt 0.8750 0.0445 0.0000
vt 0.6174 0.3826 0.0000
vt 0.9375 0.0180 0.0000
vt 0.5768 0.3218 0.0000
vt 0.9375 0.0445 0.0000
vt 0.5625 0.2500 0.0000
vt 0.0000 0.0180 0.0000
vt 0.5768 0.1782 0.0000
vt 0.0000 0.0445 0.0000
vt 0.6174 0.1174 0.0000
vt 0.0625 0.0180 0.0000
vt 0.6782 0.0768 0.0000
vt 0.0625 0.0445 0.0000
vt 0.7500 0.0625 0.0000
vt 0.1250 0.0180 0.0000
vt 0.8218 0.0768 0.0000
vt 0.1250 0.0445 0.0000
vt 0.8826 0.1174 0.0000
vt 0.1875 0.0180 0.0000
vt 0.9232 0.1782 0.0000
vt 0.1875 0.0445 0.0000
vt 0.4232 0.3218 0.0000
vt 0.4375 0.2500 0.0000
vt 0.3826 0.3826 0.0000
vt 0.3218 0.4232 0.0000
vt 0.2500 0.4375 0.0000
vt 0.1782 0.4232 0.0000
vt 0.1174 0.3826 0.0000
vt 0.0768 0.3218 0.0000
vt 0.0625 0.2500 0.0000
vt 0.0768 0.1782 0.0000
vt 0.1174 0.1174 0.0000
vt 0.1782 0.0768 0.0000
vt 0.2500 0.0625 0.0000
vt 0.3218 0.0768 0.0000
vt 0.3826 0.1174 0.0000
vt 0.4232 0.1782 0.0000
vt 0.2500 0.0180 0.0000
vt 0.2500 0.0445 0.0000
vt 0.3125 0.0180 0.0000
vt 0.3125 0.0445 0.0000
vt 0.3750 0.0180 0.0000
vt 0.3750 0.0445 0.0000
vt 0.4375 0.0180 0.0000
vt 0.4375 0.0445 0.0000
vt 0.5000 0.0180 0.0000
vt 0.5000 0.0445 0.0000
vt 0.5625 0.0180 0.0000
vt 0.5625 0.0445 0.0000
vt 0.6250 0.0180 0.0000
vt 0.6250 0.0445 0.0000
vt 0.6875 0.0180 0.0000
vt 0.6875 0.0445 0.0000
vt 1.0000 0.0180 0.0000
vt 1.0000 0.0445 0.0000
# 66 texture coords

g Pent_BASE
usemtl wire_176026026
f 31/25/49 64/26/50 80/28/51 
f 80/28/52 79/30/53 31/25/54 
f 64/26/55 65/32/56 81/34/57 
f 81/34/58 80/28/59 64/26/60 
f 65/32/61 66/36/62 82/38/63 
f 82/38/64 81/34/65 65/32/66 
f 66/36/67 67/87/68 83/88/69 
f 83/88/70 82/38/71 66/36/72 
f 67/40/73 68/44/74 84/46/75 
f 84/46/76 83/42/77 67/40/78 
f 68/44/79 69/48/80 85/50/81 
f 85/50/82 84/46/83 68/44/84 
f 69/48/85 70/52/86 86/54/87 
f 86/54/88 85/50/89 69/48/90 
f 70/52/91 71/71/92 87/72/93 
f 87/72/94 86/54/95 70/52/96 
f 71/71/97 72/73/98 88/74/99 
f 88/74/100 87/72/101 71/71/102 
f 72/73/103 73/75/104 89/76/105 
f 89/76/106 88/74/107 72/73/108 
f 73/75/109 74/77/110 90/78/111 
f 90/78/112 89/76/113 73/75/114 
f 74/77/115 75/79/116 91/80/117 
f 91/80/118 90/78/119 74/77/120 
f 75/79/121 76/81/122 92/82/123 
f 92/82/124 91/80/125 75/79/126 
f 76/81/127 77/83/128 93/84/129 
f 93/84/130 92/82/131 76/81/132 
f 77/83/133 46/85/134 94/86/135 
f 94/86/136 93/84/137 77/83/138 
f 46/85/139 31/25/140 79/30/141 
f 79/30/142 94/86/143 46/85/144 
f 45/51/145 44/49/146 43/47/147 
f 43/47/148 42/45/149 41/43/150 
f 41/43/151 40/41/152 39/39/153 
f 43/47/154 41/43/155 39/39/156 
f 39/39/157 38/37/158 37/35/159 
f 37/35/160 36/33/161 35/31/162 
f 39/39/163 37/35/164 35/31/165 
f 35/31/166 34/29/167 33/27/168 
f 33/27/169 32/24/170 63/23/171 
f 35/31/172 33/27/173 63/23/174 
f 39/39/175 35/31/176 63/23/177 
f 43/47/178 39/39/179 63/23/180 
f 45/51/181 43/47/182 63/23/183 
f 78/53/184 45/51/185 63/23/186 
f 48/55/187 49/57/188 50/58/189 
f 50/58/190 51/59/191 52/60/192 
f 52/60/193 53/61/194 54/62/195 
f 50/58/196 52/60/197 54/62/198 
f 54/62/199 55/63/200 56/64/201 
f 56/64/202 57/65/203 58/66/204 
f 54/62/205 56/64/206 58/66/207 
f 58/66/208 59/67/209 60/68/210 
f 60/68/211 61/69/212 62/70/213 
f 58/66/214 60/68/215 62/70/216 
f 54/62/217 58/66/218 62/70/219 
f 50/58/220 54/62/221 62/70/222 
f 48/55/223 50/58/224 62/70/225 
f 47/56/226 48/55/227 62/70/228 
# 60 faces

