# 3ds Max Wavefront OBJ Exporter v0.97b - (c)2007 guruware
# File Created: 11.03.2017 12:49:21

mtllib Pillow_MSH.mtl

#
# object Pillow
#

v  -0.4412 0.4451 0.0313
v  -0.4849 0.2245 0.0313
v  -0.4994 0.0008 0.0312
v  -0.4848 -0.2229 0.0312
v  -0.4411 -0.4434 0.0312
v  -0.2195 -0.4858 0.0312
v  0.0039 -0.4996 0.0312
v  0.2265 -0.4847 0.0312
v  0.4457 -0.4411 0.0312
v  0.4879 -0.2207 0.0312
v  0.5018 0.0016 0.0312
v  0.4873 0.2231 0.0313
v  0.4445 0.4413 0.0313
v  0.2252 0.4852 0.0313
v  0.0027 0.5004 0.0313
v  -0.2203 0.4870 0.0313
v  -0.4412 0.4451 -0.0312
v  -0.4849 0.2245 -0.0312
v  -0.4994 0.0008 -0.0313
v  -0.4848 -0.2229 -0.0313
v  -0.4411 -0.4434 -0.0313
v  -0.2195 -0.4858 -0.0313
v  0.0039 -0.4996 -0.0313
v  0.2265 -0.4847 -0.0313
v  0.4457 -0.4411 -0.0313
v  0.4879 -0.2207 -0.0313
v  0.5018 0.0016 -0.0313
v  0.4873 0.2231 -0.0312
v  0.4445 0.4413 -0.0312
v  0.2252 0.4852 -0.0312
v  0.0027 0.5004 -0.0312
v  -0.2203 0.4870 -0.0312
v  -0.4412 0.4451 0.0313
v  -0.4412 0.4451 0.0313
v  -0.4849 0.2245 0.0313
v  -0.4994 0.0008 0.0312
v  -0.4848 -0.2229 0.0312
v  -0.4411 -0.4434 0.0312
v  -0.4411 -0.4434 0.0312
v  -0.2195 -0.4858 0.0312
v  0.0039 -0.4996 0.0312
v  0.2265 -0.4847 0.0312
v  0.4457 -0.4411 0.0312
v  0.4457 -0.4411 0.0312
v  0.4879 -0.2207 0.0312
v  0.5018 0.0016 0.0312
v  0.4873 0.2231 0.0313
v  0.4445 0.4413 0.0313
v  0.4445 0.4413 0.0313
v  0.2252 0.4852 0.0313
v  0.0027 0.5004 0.0313
v  -0.2203 0.4870 0.0313
v  -0.4412 0.4451 -0.0312
v  -0.4412 0.4451 -0.0312
v  -0.4849 0.2245 -0.0312
v  -0.4994 0.0008 -0.0313
v  -0.4848 -0.2229 -0.0313
v  -0.4411 -0.4434 -0.0313
v  -0.4411 -0.4434 -0.0313
v  -0.2195 -0.4858 -0.0313
v  0.0039 -0.4996 -0.0313
v  0.2265 -0.4847 -0.0313
v  0.4457 -0.4411 -0.0313
v  0.4457 -0.4411 -0.0313
v  0.4879 -0.2207 -0.0313
v  0.5018 0.0016 -0.0313
v  0.4873 0.2231 -0.0312
v  0.4445 0.4413 -0.0312
v  0.4445 0.4413 -0.0312
v  0.2252 0.4852 -0.0312
v  0.0027 0.5004 -0.0312
v  -0.2203 0.4870 -0.0312
# 72 vertices

vn -0.0000 -0.0000 1.0000
vn 0.0000 -0.0000 1.0000
vn 0.0000 -0.0000 1.0000
vn 0.0000 -0.0000 1.0000
vn 0.0000 -0.0000 1.0000
vn 0.0000 -0.0000 1.0000
vn -0.0000 -0.0000 1.0000
vn 0.0000 -0.0000 1.0000
vn 0.0000 -0.0000 1.0000
vn -0.0000 -0.0000 1.0000
vn 0.0000 -0.0000 1.0000
vn 0.0000 -0.0000 1.0000
vn 0.0000 -0.0000 1.0000
vn -0.0000 -0.0000 1.0000
vn 0.0000 -0.0000 1.0000
vn -0.0000 -0.0000 1.0000
vn 0.0000 -0.0000 1.0000
vn 0.0000 -0.0000 1.0000
vn 0.0000 -0.0000 1.0000
vn 0.0000 -0.0000 1.0000
vn 0.0000 -0.0000 1.0000
vn 0.0000 -0.0000 1.0000
vn 0.0000 -0.0000 1.0000
vn 0.0000 -0.0000 1.0000
vn 0.0000 -0.0000 1.0000
vn 0.0000 -0.0000 1.0000
vn 0.0000 -0.0000 1.0000
vn 0.0000 -0.0000 1.0000
vn 0.0000 -0.0000 1.0000
vn 0.0000 -0.0000 1.0000
vn 0.0000 -0.0000 1.0000
vn 0.0000 -0.0000 1.0000
vn 0.0000 -0.0000 1.0000
vn 0.0000 -0.0000 1.0000
vn 0.0000 -0.0000 1.0000
vn 0.0000 -0.0000 1.0000
vn 0.0000 -0.0000 1.0000
vn 0.0000 -0.0000 1.0000
vn -0.0000 -0.0000 1.0000
vn -0.0000 -0.0000 1.0000
vn 0.0000 -0.0000 1.0000
vn -0.0000 -0.0000 1.0000
vn 0.0000 0.0000 -1.0000
vn 0.0000 0.0000 -1.0000
vn 0.0000 0.0000 -1.0000
vn 0.0000 0.0000 -1.0000
vn 0.0000 0.0000 -1.0000
vn 0.0000 0.0000 -1.0000
vn 0.0000 0.0000 -1.0000
vn 0.0000 0.0000 -1.0000
vn 0.0000 0.0000 -1.0000
vn 0.0000 0.0000 -1.0000
vn 0.0000 0.0000 -1.0000
vn 0.0000 0.0000 -1.0000
vn 0.0000 0.0000 -1.0000
vn 0.0000 0.0000 -1.0000
vn 0.0000 0.0000 -1.0000
vn 0.0000 0.0000 -1.0000
vn 0.0000 0.0000 -1.0000
vn 0.0000 0.0000 -1.0000
vn 0.0000 0.0000 -1.0000
vn 0.0000 0.0000 -1.0000
vn 0.0000 0.0000 -1.0000
vn 0.0000 0.0000 -1.0000
vn 0.0000 0.0000 -1.0000
vn 0.0000 0.0000 -1.0000
vn 0.0000 0.0000 -1.0000
vn 0.0000 0.0000 -1.0000
vn 0.0000 0.0000 -1.0000
vn 0.0000 0.0000 -1.0000
vn 0.0000 0.0000 -1.0000
vn 0.0000 0.0000 -1.0000
vn 0.0000 0.0000 -1.0000
vn 0.0000 0.0000 -1.0000
vn 0.0000 0.0000 -1.0000
vn 0.0000 0.0000 -1.0000
vn 0.0000 0.0000 -1.0000
vn 0.0000 0.0000 -1.0000
vn 0.0000 0.0000 -1.0000
vn 0.0000 0.0000 -1.0000
vn 0.0000 0.0000 -1.0000
vn 0.0000 0.0000 -1.0000
vn 0.0000 0.0000 -1.0000
vn 0.0000 0.0000 -1.0000
vn -0.9915 -0.1302 -0.0000
vn -0.9809 -0.1946 -0.0000
vn -0.9809 -0.1946 -0.0000
vn -0.9809 -0.1946 -0.0000
vn -0.9915 -0.1302 -0.0000
vn -0.9915 -0.1302 -0.0000
vn -0.1879 -0.9822 -0.0000
vn -0.1250 -0.9922 -0.0000
vn -0.1250 -0.9922 -0.0000
vn -0.1250 -0.9922 -0.0000
vn -0.1879 -0.9822 -0.0000
vn -0.1879 -0.9822 -0.0000
vn 0.1312 -0.9914 -0.0000
vn 0.1951 -0.9808 -0.0000
vn 0.1951 -0.9808 -0.0000
vn 0.1951 -0.9808 -0.0000
vn 0.1312 -0.9914 -0.0000
vn 0.1312 -0.9914 -0.0000
vn 0.9822 -0.1879 -0.0000
vn 0.9921 -0.1254 -0.0000
vn 0.9921 -0.1254 -0.0000
vn 0.9921 -0.1254 -0.0000
vn 0.9822 -0.1879 -0.0000
vn 0.9822 -0.1879 -0.0000
vn 0.0026 -1.0000 -0.0000
vn 0.1312 -0.9914 -0.0000
vn 0.1312 -0.9914 -0.0000
vn 0.1312 -0.9914 -0.0000
vn 0.0026 -1.0000 -0.0000
vn 0.0026 -1.0000 -0.0000
vn 0.9921 -0.1254 -0.0000
vn 1.0000 0.0014 0.0000
vn 1.0000 0.0014 0.0000
vn 1.0000 0.0014 0.0000
vn 0.9921 -0.1254 -0.0000
vn 0.9921 -0.1254 -0.0000
vn 1.0000 0.0014 0.0000
vn 0.9916 0.1292 0.0000
vn 0.9916 0.1292 0.0000
vn 0.9916 0.1292 0.0000
vn 1.0000 0.0014 0.0000
vn 1.0000 0.0014 0.0000
vn 0.9916 0.1292 0.0000
vn 0.9812 0.1928 0.0000
vn 0.9812 0.1928 0.0000
vn 0.9812 0.1928 0.0000
vn 0.9916 0.1292 0.0000
vn 0.9916 0.1292 0.0000
vn 0.1964 0.9805 0.0000
vn 0.1326 0.9912 0.0000
vn 0.1326 0.9912 0.0000
vn 0.1326 0.9912 0.0000
vn 0.1964 0.9805 0.0000
vn 0.1964 0.9805 0.0000
vn 0.1326 0.9912 0.0000
vn 0.0041 1.0000 0.0000
vn 0.0041 1.0000 0.0000
vn 0.0041 1.0000 0.0000
vn 0.1326 0.9912 0.0000
vn 0.1326 0.9912 0.0000
vn 0.0041 1.0000 0.0000
vn -0.1234 0.9924 0.0000
vn -0.1234 0.9924 0.0000
vn -0.1234 0.9924 0.0000
vn 0.0041 1.0000 0.0000
vn 0.0041 1.0000 0.0000
vn -0.1234 0.9924 0.0000
vn -0.1863 0.9825 0.0000
vn -0.1863 0.9825 0.0000
vn -0.1863 0.9825 0.0000
vn -0.1234 0.9924 0.0000
vn -0.1234 0.9924 0.0000
vn -0.9809 0.1944 0.0000
vn -0.9915 0.1299 0.0000
vn -0.9915 0.1299 0.0000
vn -0.9915 0.1299 0.0000
vn -0.9809 0.1944 0.0000
vn -0.9809 0.1944 0.0000
vn -0.9915 0.1299 0.0000
vn -1.0000 -0.0001 -0.0000
vn -1.0000 -0.0001 -0.0000
vn -1.0000 -0.0001 -0.0000
vn -0.9915 0.1299 0.0000
vn -0.9915 0.1299 0.0000
vn -0.1250 -0.9922 -0.0000
vn 0.0026 -1.0000 -0.0000
vn 0.0026 -1.0000 -0.0000
vn 0.0026 -1.0000 -0.0000
vn -0.1250 -0.9922 -0.0000
vn -0.1250 -0.9922 -0.0000
vn -1.0000 -0.0001 -0.0000
vn -0.9915 -0.1302 -0.0000
vn -0.9915 -0.1302 -0.0000
vn -0.9915 -0.1302 -0.0000
vn -1.0000 -0.0001 -0.0000
vn -1.0000 -0.0001 -0.0000
# 180 vertex normals

vt 0.1674 0.9473 0.0000
vt 0.0846 0.9315 0.0000
vt 0.0682 0.8488 0.0000
vt 0.0627 0.7649 0.0000
vt 0.0682 0.6810 0.0000
vt 0.0846 0.5983 0.0000
vt 0.1677 0.5824 0.0000
vt 0.2515 0.5773 0.0000
vt 0.3350 0.5829 0.0000
vt 0.4171 0.5992 0.0000
vt 0.4330 0.6819 0.0000
vt 0.4382 0.7652 0.0000
vt 0.4327 0.8483 0.0000
vt 0.4167 0.9301 0.0000
vt 0.3344 0.9466 0.0000
vt 0.2510 0.9523 0.0000
vt 0.5887 0.5354 0.0000
vt 0.5397 0.5354 0.0000
vt 0.5397 0.5104 0.0000
vt 0.5887 0.5104 0.0000
vt 0.6412 0.5354 0.0000
vt 0.6412 0.5104 0.0000
vt 0.8124 0.5354 0.0000
vt 0.7607 0.5354 0.0000
vt 0.7607 0.5104 0.0000
vt 0.8124 0.5104 0.0000
vt 0.8613 0.5354 0.0000
vt 0.8613 0.5104 0.0000
vt 0.7011 0.5354 0.0000
vt 0.7011 0.5104 0.0000
vt 0.9236 0.5354 0.0000
vt 0.9236 0.5104 0.0000
vt -0.0069 0.5354 0.0000
vt -0.0069 0.5104 0.0000
vt 0.0564 0.5354 0.0000
vt 0.0564 0.5104 0.0000
vt 0.1175 0.5354 0.0000
vt 0.1175 0.5104 0.0000
vt 0.1989 0.5354 0.0000
vt 0.1989 0.5104 0.0000
vt 0.2807 0.5354 0.0000
vt 0.2807 0.5104 0.0000
vt 0.3422 0.5354 0.0000
vt 0.3422 0.5104 0.0000
vt 0.4063 0.5354 0.0000
vt 0.4063 0.5104 0.0000
vt 0.4768 0.5354 0.0000
vt 0.4768 0.5104 0.0000
vt 0.9931 0.5354 0.0000
vt 0.9931 0.5104 0.0000
vt 0.5682 0.8488 0.0000
vt 0.5846 0.9315 0.0000
vt 0.6674 0.9473 0.0000
vt 0.7510 0.9523 0.0000
vt 0.8344 0.9466 0.0000
vt 0.9167 0.9301 0.0000
vt 0.9327 0.8483 0.0000
vt 0.9382 0.7652 0.0000
vt 0.9330 0.6819 0.0000
vt 0.9171 0.5992 0.0000
vt 0.8350 0.5829 0.0000
vt 0.7515 0.5773 0.0000
vt 0.6677 0.5824 0.0000
vt 0.5846 0.5983 0.0000
vt 0.5682 0.6810 0.0000
vt 0.5627 0.7649 0.0000
# 66 texture coords

g Pillow
usemtl wire_087225087
f 16/1/1 1/2/2 35/3/3 
f 37/5/4 39/6/5 40/7/6 
f 36/4/7 37/5/8 40/7/9 
f 36/4/10 40/7/11 41/8/12 
f 35/3/13 36/4/14 41/8/15 
f 16/1/16 35/3/17 41/8/18 
f 42/9/19 44/10/20 45/11/21 
f 41/8/22 42/9/23 45/11/24 
f 41/8/25 45/11/26 46/12/27 
f 41/8/28 46/12/29 47/13/30 
f 47/13/31 49/14/32 50/15/33 
f 41/8/34 47/13/35 50/15/36 
f 41/8/37 50/15/38 51/16/39 
f 16/1/40 41/8/41 51/16/42 
f 18/51/43 53/52/44 32/53/45 
f 30/55/46 68/56/47 28/57/48 
f 26/59/49 63/60/50 24/61/51 
f 26/59/52 24/61/53 23/62/54 
f 27/58/55 26/59/56 23/62/57 
f 28/57/58 27/58/59 23/62/60 
f 30/55/61 28/57/62 23/62/63 
f 31/54/64 30/55/65 23/62/66 
f 32/53/67 31/54/68 23/62/69 
f 18/51/70 32/53/71 23/62/72 
f 22/63/73 58/64/74 20/65/75 
f 22/63/76 20/65/77 19/66/78 
f 23/62/79 22/63/80 19/66/81 
f 18/51/82 23/62/83 19/66/84 
f 57/19/85 21/20/86 5/17/87 
f 5/17/88 4/18/89 57/19/90 
f 59/20/91 60/22/92 6/21/93 
f 6/21/94 38/17/95 59/20/96 
f 62/25/97 25/26/98 9/23/99 
f 9/23/100 8/24/101 62/25/102 
f 64/26/103 65/28/104 10/27/105 
f 10/27/106 43/23/107 64/26/108 
f 61/30/109 62/25/110 8/24/111 
f 8/24/112 7/29/113 61/30/114 
f 65/28/115 66/32/116 11/31/117 
f 11/31/118 10/27/119 65/28/120 
f 66/32/121 67/50/122 12/49/123 
f 12/49/124 11/31/125 66/32/126 
f 67/34/127 29/36/128 13/35/129 
f 13/35/130 12/33/131 67/34/132 
f 69/36/133 70/38/134 14/37/135 
f 14/37/136 48/35/137 69/36/138 
f 70/38/139 71/40/140 15/39/141 
f 15/39/142 14/37/143 70/38/144 
f 71/40/145 72/42/146 52/41/147 
f 52/41/148 15/39/149 71/40/150 
f 72/42/151 17/44/152 33/43/153 
f 33/43/154 52/41/155 72/42/156 
f 54/44/157 55/46/158 2/45/159 
f 2/45/160 34/43/161 54/44/162 
f 55/46/163 56/48/164 3/47/165 
f 3/47/166 2/45/167 55/46/168 
f 60/22/169 61/30/170 7/29/171 
f 7/29/172 6/21/173 60/22/174 
f 56/48/175 57/19/176 4/18/177 
f 4/18/178 3/47/179 56/48/180 
# 60 faces

#
# object Pillow_BASE
#

v  0.3750 -0.0313 -0.0000
v  0.3465 -0.0313 -0.1435
v  0.2652 -0.0313 -0.2652
v  0.1435 -0.0313 -0.3465
v  -0.0000 -0.0313 -0.3750
v  -0.1435 -0.0313 -0.3465
v  -0.2652 -0.0313 -0.2652
v  -0.3465 -0.0313 -0.1435
v  -0.3750 -0.0313 -0.0000
v  -0.3465 -0.0313 0.1435
v  -0.2652 -0.0313 0.2652
v  -0.1435 -0.0313 0.3465
v  0.0000 -0.0313 0.3750
v  0.1435 -0.0313 0.3465
v  0.2652 -0.0313 0.2652
v  0.3465 -0.0313 0.1435
v  0.3750 0.0313 -0.0000
v  0.3465 0.0313 -0.1435
v  0.2652 0.0313 -0.2652
v  0.1435 0.0313 -0.3465
v  -0.0000 0.0313 -0.3750
v  -0.1435 0.0313 -0.3465
v  -0.2652 0.0313 -0.2652
v  -0.3465 0.0313 -0.1435
v  -0.3750 0.0313 -0.0000
v  -0.3465 0.0313 0.1435
v  -0.2652 0.0313 0.2652
v  -0.1435 0.0313 0.3465
v  0.0000 0.0313 0.3750
v  0.1435 0.0313 0.3465
v  0.2652 0.0313 0.2652
v  0.3465 0.0313 0.1435
v  0.3750 -0.0313 -0.0000
v  0.3465 -0.0313 -0.1435
v  0.2652 -0.0313 -0.2652
v  0.1435 -0.0313 -0.3465
v  -0.0000 -0.0313 -0.3750
v  -0.1435 -0.0313 -0.3465
v  -0.2652 -0.0313 -0.2652
v  -0.3465 -0.0313 -0.1435
v  -0.3750 -0.0313 -0.0000
v  -0.3465 -0.0313 0.1435
v  -0.2652 -0.0313 0.2652
v  -0.1435 -0.0313 0.3465
v  0.0000 -0.0313 0.3750
v  0.1435 -0.0313 0.3465
v  0.2652 -0.0313 0.2652
v  0.3465 -0.0313 0.1435
v  0.3750 0.0313 -0.0000
v  0.3465 0.0313 -0.1435
v  0.2652 0.0313 -0.2652
v  0.1435 0.0313 -0.3465
v  -0.0000 0.0313 -0.3750
v  -0.1435 0.0313 -0.3465
v  -0.2652 0.0313 -0.2652
v  -0.3465 0.0313 -0.1435
v  -0.3750 0.0313 -0.0000
v  -0.3465 0.0313 0.1435
v  -0.2652 0.0313 0.2652
v  -0.1435 0.0313 0.3465
v  0.0000 0.0313 0.3750
v  0.1435 0.0313 0.3465
v  0.2652 0.0313 0.2652
v  0.3465 0.0313 0.1435
# 64 vertices

vn 1.0000 0.0000 -0.0000
vn 0.9239 0.0000 -0.3827
vn 0.9239 0.0000 -0.3827
vn 0.9239 0.0000 -0.3827
vn 1.0000 0.0000 -0.0000
vn 1.0000 0.0000 -0.0000
vn 0.9239 0.0000 -0.3827
vn 0.7071 0.0000 -0.7071
vn 0.7071 0.0000 -0.7071
vn 0.7071 0.0000 -0.7071
vn 0.9239 0.0000 -0.3827
vn 0.9239 0.0000 -0.3827
vn 0.7071 0.0000 -0.7071
vn 0.3827 0.0000 -0.9239
vn 0.3827 0.0000 -0.9239
vn 0.3827 0.0000 -0.9239
vn 0.7071 0.0000 -0.7071
vn 0.7071 0.0000 -0.7071
vn 0.3827 0.0000 -0.9239
vn 0.0000 0.0000 -1.0000
vn 0.0000 0.0000 -1.0000
vn 0.0000 0.0000 -1.0000
vn 0.3827 0.0000 -0.9239
vn 0.3827 0.0000 -0.9239
vn 0.0000 0.0000 -1.0000
vn -0.3827 0.0000 -0.9239
vn -0.3827 0.0000 -0.9239
vn -0.3827 0.0000 -0.9239
vn 0.0000 0.0000 -1.0000
vn 0.0000 0.0000 -1.0000
vn -0.3827 0.0000 -0.9239
vn -0.7071 0.0000 -0.7071
vn -0.7071 0.0000 -0.7071
vn -0.7071 0.0000 -0.7071
vn -0.3827 0.0000 -0.9239
vn -0.3827 0.0000 -0.9239
vn -0.7071 0.0000 -0.7071
vn -0.9239 0.0000 -0.3827
vn -0.9239 0.0000 -0.3827
vn -0.9239 0.0000 -0.3827
vn -0.7071 0.0000 -0.7071
vn -0.7071 0.0000 -0.7071
vn -0.9239 0.0000 -0.3827
vn -1.0000 0.0000 -0.0000
vn -1.0000 0.0000 -0.0000
vn -1.0000 0.0000 -0.0000
vn -0.9239 0.0000 -0.3827
vn -0.9239 0.0000 -0.3827
vn -1.0000 0.0000 -0.0000
vn -0.9239 0.0000 0.3827
vn -0.9239 0.0000 0.3827
vn -0.9239 0.0000 0.3827
vn -1.0000 0.0000 -0.0000
vn -1.0000 0.0000 -0.0000
vn -0.9239 0.0000 0.3827
vn -0.7071 0.0000 0.7071
vn -0.7071 0.0000 0.7071
vn -0.7071 0.0000 0.7071
vn -0.9239 0.0000 0.3827
vn -0.9239 0.0000 0.3827
vn -0.7071 0.0000 0.7071
vn -0.3827 0.0000 0.9239
vn -0.3827 0.0000 0.9239
vn -0.3827 0.0000 0.9239
vn -0.7071 0.0000 0.7071
vn -0.7071 0.0000 0.7071
vn -0.3827 0.0000 0.9239
vn 0.0000 0.0000 1.0000
vn 0.0000 0.0000 1.0000
vn 0.0000 0.0000 1.0000
vn -0.3827 0.0000 0.9239
vn -0.3827 0.0000 0.9239
vn 0.0000 0.0000 1.0000
vn 0.3827 0.0000 0.9239
vn 0.3827 0.0000 0.9239
vn 0.3827 0.0000 0.9239
vn 0.0000 0.0000 1.0000
vn 0.0000 0.0000 1.0000
vn 0.3827 0.0000 0.9239
vn 0.7071 0.0000 0.7071
vn 0.7071 0.0000 0.7071
vn 0.7071 0.0000 0.7071
vn 0.3827 0.0000 0.9239
vn 0.3827 0.0000 0.9239
vn 0.7071 0.0000 0.7071
vn 0.9239 0.0000 0.3827
vn 0.9239 0.0000 0.3827
vn 0.9239 0.0000 0.3827
vn 0.7071 0.0000 0.7071
vn 0.7071 0.0000 0.7071
vn 0.9239 0.0000 0.3827
vn 1.0000 0.0000 -0.0000
vn 1.0000 0.0000 -0.0000
vn 1.0000 0.0000 -0.0000
vn 0.9239 0.0000 0.3827
vn 0.9239 0.0000 0.3827
vn 0.0000 -1.0000 -0.0000
vn 0.0000 -1.0000 -0.0000
vn 0.0000 -1.0000 -0.0000
vn 0.0000 -1.0000 -0.0000
vn 0.0000 -1.0000 -0.0000
vn 0.0000 -1.0000 -0.0000
vn 0.0000 -1.0000 -0.0000
vn 0.0000 -1.0000 -0.0000
vn 0.0000 -1.0000 -0.0000
vn 0.0000 -1.0000 -0.0000
vn 0.0000 -1.0000 -0.0000
vn 0.0000 -1.0000 -0.0000
vn 0.0000 -1.0000 -0.0000
vn 0.0000 -1.0000 -0.0000
vn 0.0000 -1.0000 -0.0000
vn 0.0000 -1.0000 -0.0000
vn 0.0000 -1.0000 -0.0000
vn 0.0000 -1.0000 -0.0000
vn 0.0000 -1.0000 -0.0000
vn 0.0000 -1.0000 -0.0000
vn 0.0000 -1.0000 -0.0000
vn 0.0000 -1.0000 -0.0000
vn 0.0000 -1.0000 -0.0000
vn 0.0000 -1.0000 -0.0000
vn 0.0000 -1.0000 -0.0000
vn 0.0000 -1.0000 -0.0000
vn 0.0000 -1.0000 -0.0000
vn 0.0000 -1.0000 -0.0000
vn 0.0000 -1.0000 -0.0000
vn 0.0000 -1.0000 -0.0000
vn 0.0000 -1.0000 -0.0000
vn 0.0000 -1.0000 -0.0000
vn 0.0000 -1.0000 -0.0000
vn 0.0000 -1.0000 -0.0000
vn 0.0000 -1.0000 -0.0000
vn 0.0000 -1.0000 -0.0000
vn 0.0000 -1.0000 -0.0000
vn 0.0000 -1.0000 -0.0000
vn 0.0000 -1.0000 -0.0000
vn 0.0000 -1.0000 -0.0000
vn 0.0000 -1.0000 -0.0000
vn 0.0000 -1.0000 -0.0000
vn 0.0000 1.0000 -0.0000
vn 0.0000 1.0000 -0.0000
vn 0.0000 1.0000 -0.0000
vn 0.0000 1.0000 -0.0000
vn 0.0000 1.0000 -0.0000
vn 0.0000 1.0000 -0.0000
vn 0.0000 1.0000 -0.0000
vn 0.0000 1.0000 -0.0000
vn 0.0000 1.0000 -0.0000
vn 0.0000 1.0000 -0.0000
vn 0.0000 1.0000 -0.0000
vn 0.0000 1.0000 -0.0000
vn 0.0000 1.0000 -0.0000
vn 0.0000 1.0000 -0.0000
vn 0.0000 1.0000 -0.0000
vn 0.0000 1.0000 -0.0000
vn 0.0000 1.0000 -0.0000
vn 0.0000 1.0000 -0.0000
vn 0.0000 1.0000 -0.0000
vn 0.0000 1.0000 -0.0000
vn 0.0000 1.0000 -0.0000
vn 0.0000 1.0000 -0.0000
vn 0.0000 1.0000 -0.0000
vn 0.0000 1.0000 -0.0000
vn 0.0000 1.0000 -0.0000
vn 0.0000 1.0000 -0.0000
vn 0.0000 1.0000 -0.0000
vn 0.0000 1.0000 -0.0000
vn 0.0000 1.0000 -0.0000
vn 0.0000 1.0000 -0.0000
vn 0.0000 1.0000 -0.0000
vn 0.0000 1.0000 -0.0000
vn 0.0000 1.0000 -0.0000
vn 0.0000 1.0000 -0.0000
vn 0.0000 1.0000 -0.0000
vn 0.0000 1.0000 -0.0000
vn 0.0000 1.0000 -0.0000
vn 0.0000 1.0000 -0.0000
vn 0.0000 1.0000 -0.0000
vn 0.0000 1.0000 -0.0000
vn 0.0000 1.0000 -0.0000
vn 0.0000 1.0000 -0.0000
# 180 vertex normals

vt 0.9375 0.2500 0.0000
vt 0.9232 0.3218 0.0000
vt 0.7500 0.0180 0.0000
vt 0.8125 0.0180 0.0000
vt 0.8826 0.3826 0.0000
vt 0.8125 0.0445 0.0000
vt 0.8218 0.4232 0.0000
vt 0.7500 0.0445 0.0000
vt 0.7500 0.4375 0.0000
vt 0.8750 0.0180 0.0000
vt 0.6782 0.4232 0.0000
vt 0.8750 0.0445 0.0000
vt 0.6174 0.3826 0.0000
vt 0.9375 0.0180 0.0000
vt 0.5768 0.3218 0.0000
vt 0.9375 0.0445 0.0000
vt 0.5625 0.2500 0.0000
vt 0.0000 0.0180 0.0000
vt 0.5768 0.1782 0.0000
vt 0.0000 0.0445 0.0000
vt 0.6174 0.1174 0.0000
vt 0.0625 0.0180 0.0000
vt 0.6782 0.0768 0.0000
vt 0.0625 0.0445 0.0000
vt 0.7500 0.0625 0.0000
vt 0.1250 0.0180 0.0000
vt 0.8218 0.0768 0.0000
vt 0.1250 0.0445 0.0000
vt 0.8826 0.1174 0.0000
vt 0.1875 0.0180 0.0000
vt 0.9232 0.1782 0.0000
vt 0.1875 0.0445 0.0000
vt 0.4232 0.3218 0.0000
vt 0.4375 0.2500 0.0000
vt 0.3826 0.3826 0.0000
vt 0.3218 0.4232 0.0000
vt 0.2500 0.4375 0.0000
vt 0.1782 0.4232 0.0000
vt 0.1174 0.3826 0.0000
vt 0.0768 0.3218 0.0000
vt 0.0625 0.2500 0.0000
vt 0.0768 0.1782 0.0000
vt 0.1174 0.1174 0.0000
vt 0.1782 0.0768 0.0000
vt 0.2500 0.0625 0.0000
vt 0.3218 0.0768 0.0000
vt 0.3826 0.1174 0.0000
vt 0.4232 0.1782 0.0000
vt 0.2500 0.0180 0.0000
vt 0.2500 0.0445 0.0000
vt 0.3125 0.0180 0.0000
vt 0.3125 0.0445 0.0000
vt 0.3750 0.0180 0.0000
vt 0.3750 0.0445 0.0000
vt 0.4375 0.0180 0.0000
vt 0.4375 0.0445 0.0000
vt 0.5000 0.0180 0.0000
vt 0.5000 0.0445 0.0000
vt 0.5625 0.0180 0.0000
vt 0.5625 0.0445 0.0000
vt 0.6250 0.0180 0.0000
vt 0.6250 0.0445 0.0000
vt 0.6875 0.0180 0.0000
vt 0.6875 0.0445 0.0000
vt 1.0000 0.0180 0.0000
vt 1.0000 0.0445 0.0000
# 66 texture coords

g Pillow_BASE
usemtl wire_176026026
f 73/69/181 106/70/182 122/72/183 
f 122/72/184 121/74/185 73/69/186 
f 106/70/187 107/76/188 123/78/189 
f 123/78/190 122/72/191 106/70/192 
f 107/76/193 108/80/194 124/82/195 
f 124/82/196 123/78/197 107/76/198 
f 108/80/199 109/131/200 125/132/201 
f 125/132/202 124/82/203 108/80/204 
f 109/84/205 110/88/206 126/90/207 
f 126/90/208 125/86/209 109/84/210 
f 110/88/211 111/92/212 127/94/213 
f 127/94/214 126/90/215 110/88/216 
f 111/92/217 112/96/218 128/98/219 
f 128/98/220 127/94/221 111/92/222 
f 112/96/223 113/115/224 129/116/225 
f 129/116/226 128/98/227 112/96/228 
f 113/115/229 114/117/230 130/118/231 
f 130/118/232 129/116/233 113/115/234 
f 114/117/235 115/119/236 131/120/237 
f 131/120/238 130/118/239 114/117/240 
f 115/119/241 116/121/242 132/122/243 
f 132/122/244 131/120/245 115/119/246 
f 116/121/247 117/123/248 133/124/249 
f 133/124/250 132/122/251 116/121/252 
f 117/123/253 118/125/254 134/126/255 
f 134/126/256 133/124/257 117/123/258 
f 118/125/259 119/127/260 135/128/261 
f 135/128/262 134/126/263 118/125/264 
f 119/127/265 88/129/266 136/130/267 
f 136/130/268 135/128/269 119/127/270 
f 88/129/271 73/69/272 121/74/273 
f 121/74/274 136/130/275 88/129/276 
f 87/95/277 86/93/278 85/91/279 
f 85/91/280 84/89/281 83/87/282 
f 83/87/283 82/85/284 81/83/285 
f 85/91/286 83/87/287 81/83/288 
f 81/83/289 80/81/290 79/79/291 
f 79/79/292 78/77/293 77/75/294 
f 81/83/295 79/79/296 77/75/297 
f 77/75/298 76/73/299 75/71/300 
f 75/71/301 74/68/302 105/67/303 
f 77/75/304 75/71/305 105/67/306 
f 81/83/307 77/75/308 105/67/309 
f 85/91/310 81/83/311 105/67/312 
f 87/95/313 85/91/314 105/67/315 
f 120/97/316 87/95/317 105/67/318 
f 90/99/319 91/101/320 92/102/321 
f 92/102/322 93/103/323 94/104/324 
f 94/104/325 95/105/326 96/106/327 
f 92/102/328 94/104/329 96/106/330 
f 96/106/331 97/107/332 98/108/333 
f 98/108/334 99/109/335 100/110/336 
f 96/106/337 98/108/338 100/110/339 
f 100/110/340 101/111/341 102/112/342 
f 102/112/343 103/113/344 104/114/345 
f 100/110/346 102/112/347 104/114/348 
f 96/106/349 100/110/350 104/114/351 
f 92/102/352 96/106/353 104/114/354 
f 90/99/355 92/102/356 104/114/357 
f 89/100/358 90/99/359 104/114/360 
# 60 faces

