# 3ds Max Wavefront OBJ Exporter v0.97b - (c)2007 guruware
# File Created: 11.03.2017 14:03:31

mtllib Pillow_MSH.mtl

#
# object Pillow_BASE
#

v  0.3750 -0.0313 -0.0000
v  0.3465 -0.0313 -0.1435
v  0.2652 -0.0313 -0.2652
v  0.1435 -0.0313 -0.3465
v  -0.0000 -0.0313 -0.3750
v  -0.1435 -0.0313 -0.3465
v  -0.2652 -0.0313 -0.2652
v  -0.3465 -0.0313 -0.1435
v  -0.3750 -0.0313 -0.0000
v  -0.3465 -0.0313 0.1435
v  -0.2652 -0.0313 0.2652
v  -0.1435 -0.0313 0.3465
v  0.0000 -0.0313 0.3750
v  0.1435 -0.0313 0.3465
v  0.2652 -0.0313 0.2652
v  0.3465 -0.0313 0.1435
v  0.3750 0.0313 -0.0000
v  0.3465 0.0313 -0.1435
v  0.2652 0.0313 -0.2652
v  0.1435 0.0313 -0.3465
v  -0.0000 0.0313 -0.3750
v  -0.1435 0.0313 -0.3465
v  -0.2652 0.0313 -0.2652
v  -0.3465 0.0313 -0.1435
v  -0.3750 0.0313 -0.0000
v  -0.3465 0.0313 0.1435
v  -0.2652 0.0313 0.2652
v  -0.1435 0.0313 0.3465
v  0.0000 0.0313 0.3750
v  0.1435 0.0313 0.3465
v  0.2652 0.0313 0.2652
v  0.3465 0.0313 0.1435
v  0.3750 -0.0313 -0.0000
v  0.3465 -0.0313 -0.1435
v  0.2652 -0.0313 -0.2652
v  0.1435 -0.0313 -0.3465
v  -0.0000 -0.0313 -0.3750
v  -0.1435 -0.0313 -0.3465
v  -0.2652 -0.0313 -0.2652
v  -0.3465 -0.0313 -0.1435
v  -0.3750 -0.0313 -0.0000
v  -0.3465 -0.0313 0.1435
v  -0.2652 -0.0313 0.2652
v  -0.1435 -0.0313 0.3465
v  0.0000 -0.0313 0.3750
v  0.1435 -0.0313 0.3465
v  0.2652 -0.0313 0.2652
v  0.3465 -0.0313 0.1435
v  0.3750 0.0313 -0.0000
v  0.3465 0.0313 -0.1435
v  0.2652 0.0313 -0.2652
v  0.1435 0.0313 -0.3465
v  -0.0000 0.0313 -0.3750
v  -0.1435 0.0313 -0.3465
v  -0.2652 0.0313 -0.2652
v  -0.3465 0.0313 -0.1435
v  -0.3750 0.0313 -0.0000
v  -0.3465 0.0313 0.1435
v  -0.2652 0.0313 0.2652
v  -0.1435 0.0313 0.3465
v  0.0000 0.0313 0.3750
v  0.1435 0.0313 0.3465
v  0.2652 0.0313 0.2652
v  0.3465 0.0313 0.1435
# 64 vertices

vn 1.0000 0.0000 -0.0000
vn 0.9239 0.0000 -0.3827
vn 0.9239 0.0000 -0.3827
vn 0.9239 0.0000 -0.3827
vn 1.0000 0.0000 -0.0000
vn 1.0000 0.0000 -0.0000
vn 0.9239 0.0000 -0.3827
vn 0.7071 0.0000 -0.7071
vn 0.7071 0.0000 -0.7071
vn 0.7071 0.0000 -0.7071
vn 0.9239 0.0000 -0.3827
vn 0.9239 0.0000 -0.3827
vn 0.7071 0.0000 -0.7071
vn 0.3827 0.0000 -0.9239
vn 0.3827 0.0000 -0.9239
vn 0.3827 0.0000 -0.9239
vn 0.7071 0.0000 -0.7071
vn 0.7071 0.0000 -0.7071
vn 0.3827 0.0000 -0.9239
vn 0.0000 0.0000 -1.0000
vn 0.0000 0.0000 -1.0000
vn 0.0000 0.0000 -1.0000
vn 0.3827 0.0000 -0.9239
vn 0.3827 0.0000 -0.9239
vn 0.0000 0.0000 -1.0000
vn -0.3827 0.0000 -0.9239
vn -0.3827 0.0000 -0.9239
vn -0.3827 0.0000 -0.9239
vn 0.0000 0.0000 -1.0000
vn 0.0000 0.0000 -1.0000
vn -0.3827 0.0000 -0.9239
vn -0.7071 0.0000 -0.7071
vn -0.7071 0.0000 -0.7071
vn -0.7071 0.0000 -0.7071
vn -0.3827 0.0000 -0.9239
vn -0.3827 0.0000 -0.9239
vn -0.7071 0.0000 -0.7071
vn -0.9239 0.0000 -0.3827
vn -0.9239 0.0000 -0.3827
vn -0.9239 0.0000 -0.3827
vn -0.7071 0.0000 -0.7071
vn -0.7071 0.0000 -0.7071
vn -0.9239 0.0000 -0.3827
vn -1.0000 0.0000 -0.0000
vn -1.0000 0.0000 -0.0000
vn -1.0000 0.0000 -0.0000
vn -0.9239 0.0000 -0.3827
vn -0.9239 0.0000 -0.3827
vn -1.0000 0.0000 -0.0000
vn -0.9239 0.0000 0.3827
vn -0.9239 0.0000 0.3827
vn -0.9239 0.0000 0.3827
vn -1.0000 0.0000 -0.0000
vn -1.0000 0.0000 -0.0000
vn -0.9239 0.0000 0.3827
vn -0.7071 0.0000 0.7071
vn -0.7071 0.0000 0.7071
vn -0.7071 0.0000 0.7071
vn -0.9239 0.0000 0.3827
vn -0.9239 0.0000 0.3827
vn -0.7071 0.0000 0.7071
vn -0.3827 0.0000 0.9239
vn -0.3827 0.0000 0.9239
vn -0.3827 0.0000 0.9239
vn -0.7071 0.0000 0.7071
vn -0.7071 0.0000 0.7071
vn -0.3827 0.0000 0.9239
vn 0.0000 0.0000 1.0000
vn 0.0000 0.0000 1.0000
vn 0.0000 0.0000 1.0000
vn -0.3827 0.0000 0.9239
vn -0.3827 0.0000 0.9239
vn 0.0000 0.0000 1.0000
vn 0.3827 0.0000 0.9239
vn 0.3827 0.0000 0.9239
vn 0.3827 0.0000 0.9239
vn 0.0000 0.0000 1.0000
vn 0.0000 0.0000 1.0000
vn 0.3827 0.0000 0.9239
vn 0.7071 0.0000 0.7071
vn 0.7071 0.0000 0.7071
vn 0.7071 0.0000 0.7071
vn 0.3827 0.0000 0.9239
vn 0.3827 0.0000 0.9239
vn 0.7071 0.0000 0.7071
vn 0.9239 0.0000 0.3827
vn 0.9239 0.0000 0.3827
vn 0.9239 0.0000 0.3827
vn 0.7071 0.0000 0.7071
vn 0.7071 0.0000 0.7071
vn 0.9239 0.0000 0.3827
vn 1.0000 0.0000 -0.0000
vn 1.0000 0.0000 -0.0000
vn 1.0000 0.0000 -0.0000
vn 0.9239 0.0000 0.3827
vn 0.9239 0.0000 0.3827
vn 0.0000 -1.0000 -0.0000
vn 0.0000 -1.0000 -0.0000
vn 0.0000 -1.0000 -0.0000
vn 0.0000 -1.0000 -0.0000
vn 0.0000 -1.0000 -0.0000
vn 0.0000 -1.0000 -0.0000
vn 0.0000 -1.0000 -0.0000
vn 0.0000 -1.0000 -0.0000
vn 0.0000 -1.0000 -0.0000
vn 0.0000 -1.0000 -0.0000
vn 0.0000 -1.0000 -0.0000
vn 0.0000 -1.0000 -0.0000
vn 0.0000 -1.0000 -0.0000
vn 0.0000 -1.0000 -0.0000
vn 0.0000 -1.0000 -0.0000
vn 0.0000 -1.0000 -0.0000
vn 0.0000 -1.0000 -0.0000
vn 0.0000 -1.0000 -0.0000
vn 0.0000 -1.0000 -0.0000
vn 0.0000 -1.0000 -0.0000
vn 0.0000 -1.0000 -0.0000
vn 0.0000 -1.0000 -0.0000
vn 0.0000 -1.0000 -0.0000
vn 0.0000 -1.0000 -0.0000
vn 0.0000 -1.0000 -0.0000
vn 0.0000 -1.0000 -0.0000
vn 0.0000 -1.0000 -0.0000
vn 0.0000 -1.0000 -0.0000
vn 0.0000 -1.0000 -0.0000
vn 0.0000 -1.0000 -0.0000
vn 0.0000 -1.0000 -0.0000
vn 0.0000 -1.0000 -0.0000
vn 0.0000 -1.0000 -0.0000
vn 0.0000 -1.0000 -0.0000
vn 0.0000 -1.0000 -0.0000
vn 0.0000 -1.0000 -0.0000
vn 0.0000 -1.0000 -0.0000
vn 0.0000 -1.0000 -0.0000
vn 0.0000 -1.0000 -0.0000
vn 0.0000 -1.0000 -0.0000
vn 0.0000 -1.0000 -0.0000
vn 0.0000 -1.0000 -0.0000
vn 0.0000 1.0000 -0.0000
vn 0.0000 1.0000 -0.0000
vn 0.0000 1.0000 -0.0000
vn 0.0000 1.0000 -0.0000
vn 0.0000 1.0000 -0.0000
vn 0.0000 1.0000 -0.0000
vn 0.0000 1.0000 -0.0000
vn 0.0000 1.0000 -0.0000
vn 0.0000 1.0000 -0.0000
vn 0.0000 1.0000 -0.0000
vn 0.0000 1.0000 -0.0000
vn 0.0000 1.0000 -0.0000
vn 0.0000 1.0000 -0.0000
vn 0.0000 1.0000 -0.0000
vn 0.0000 1.0000 -0.0000
vn 0.0000 1.0000 -0.0000
vn 0.0000 1.0000 -0.0000
vn 0.0000 1.0000 -0.0000
vn 0.0000 1.0000 -0.0000
vn 0.0000 1.0000 -0.0000
vn 0.0000 1.0000 -0.0000
vn 0.0000 1.0000 -0.0000
vn 0.0000 1.0000 -0.0000
vn 0.0000 1.0000 -0.0000
vn 0.0000 1.0000 -0.0000
vn 0.0000 1.0000 -0.0000
vn 0.0000 1.0000 -0.0000
vn 0.0000 1.0000 -0.0000
vn 0.0000 1.0000 -0.0000
vn 0.0000 1.0000 -0.0000
vn 0.0000 1.0000 -0.0000
vn 0.0000 1.0000 -0.0000
vn 0.0000 1.0000 -0.0000
vn 0.0000 1.0000 -0.0000
vn 0.0000 1.0000 -0.0000
vn 0.0000 1.0000 -0.0000
vn 0.0000 1.0000 -0.0000
vn 0.0000 1.0000 -0.0000
vn 0.0000 1.0000 -0.0000
vn 0.0000 1.0000 -0.0000
vn 0.0000 1.0000 -0.0000
vn 0.0000 1.0000 -0.0000
# 180 vertex normals

vt 0.9375 0.2500 0.0000
vt 0.9232 0.3218 0.0000
vt 0.7500 0.0180 0.0000
vt 0.8125 0.0180 0.0000
vt 0.8826 0.3826 0.0000
vt 0.8125 0.0445 0.0000
vt 0.8218 0.4232 0.0000
vt 0.7500 0.0445 0.0000
vt 0.7500 0.4375 0.0000
vt 0.8750 0.0180 0.0000
vt 0.6782 0.4232 0.0000
vt 0.8750 0.0445 0.0000
vt 0.6174 0.3826 0.0000
vt 0.9375 0.0180 0.0000
vt 0.5768 0.3218 0.0000
vt 0.9375 0.0445 0.0000
vt 0.5625 0.2500 0.0000
vt 0.0000 0.0180 0.0000
vt 0.5768 0.1782 0.0000
vt 0.0000 0.0445 0.0000
vt 0.6174 0.1174 0.0000
vt 0.0625 0.0180 0.0000
vt 0.6782 0.0768 0.0000
vt 0.0625 0.0445 0.0000
vt 0.7500 0.0625 0.0000
vt 0.1250 0.0180 0.0000
vt 0.8218 0.0768 0.0000
vt 0.1250 0.0445 0.0000
vt 0.8826 0.1174 0.0000
vt 0.1875 0.0180 0.0000
vt 0.9232 0.1782 0.0000
vt 0.1875 0.0445 0.0000
vt 0.4232 0.3218 0.0000
vt 0.4375 0.2500 0.0000
vt 0.3826 0.3826 0.0000
vt 0.3218 0.4232 0.0000
vt 0.2500 0.4375 0.0000
vt 0.1782 0.4232 0.0000
vt 0.1174 0.3826 0.0000
vt 0.0768 0.3218 0.0000
vt 0.0625 0.2500 0.0000
vt 0.0768 0.1782 0.0000
vt 0.1174 0.1174 0.0000
vt 0.1782 0.0768 0.0000
vt 0.2500 0.0625 0.0000
vt 0.3218 0.0768 0.0000
vt 0.3826 0.1174 0.0000
vt 0.4232 0.1782 0.0000
vt 0.2500 0.0180 0.0000
vt 0.2500 0.0445 0.0000
vt 0.3125 0.0180 0.0000
vt 0.3125 0.0445 0.0000
vt 0.3750 0.0180 0.0000
vt 0.3750 0.0445 0.0000
vt 0.4375 0.0180 0.0000
vt 0.4375 0.0445 0.0000
vt 0.5000 0.0180 0.0000
vt 0.5000 0.0445 0.0000
vt 0.5625 0.0180 0.0000
vt 0.5625 0.0445 0.0000
vt 0.6250 0.0180 0.0000
vt 0.6250 0.0445 0.0000
vt 0.6875 0.0180 0.0000
vt 0.6875 0.0445 0.0000
vt 1.0000 0.0180 0.0000
vt 1.0000 0.0445 0.0000
# 66 texture coords

g Pillow_BASE
usemtl wire_176026026
f 1/3/1 34/4/2 50/6/3 
f 50/6/4 49/8/5 1/3/6 
f 34/4/7 35/10/8 51/12/9 
f 51/12/10 50/6/11 34/4/12 
f 35/10/13 36/14/14 52/16/15 
f 52/16/16 51/12/17 35/10/18 
f 36/14/19 37/65/20 53/66/21 
f 53/66/22 52/16/23 36/14/24 
f 37/18/25 38/22/26 54/24/27 
f 54/24/28 53/20/29 37/18/30 
f 38/22/31 39/26/32 55/28/33 
f 55/28/34 54/24/35 38/22/36 
f 39/26/37 40/30/38 56/32/39 
f 56/32/40 55/28/41 39/26/42 
f 40/30/43 41/49/44 57/50/45 
f 57/50/46 56/32/47 40/30/48 
f 41/49/49 42/51/50 58/52/51 
f 58/52/52 57/50/53 41/49/54 
f 42/51/55 43/53/56 59/54/57 
f 59/54/58 58/52/59 42/51/60 
f 43/53/61 44/55/62 60/56/63 
f 60/56/64 59/54/65 43/53/66 
f 44/55/67 45/57/68 61/58/69 
f 61/58/70 60/56/71 44/55/72 
f 45/57/73 46/59/74 62/60/75 
f 62/60/76 61/58/77 45/57/78 
f 46/59/79 47/61/80 63/62/81 
f 63/62/82 62/60/83 46/59/84 
f 47/61/85 16/63/86 64/64/87 
f 64/64/88 63/62/89 47/61/90 
f 16/63/91 1/3/92 49/8/93 
f 49/8/94 64/64/95 16/63/96 
f 15/29/97 14/27/98 13/25/99 
f 13/25/100 12/23/101 11/21/102 
f 11/21/103 10/19/104 9/17/105 
f 13/25/106 11/21/107 9/17/108 
f 9/17/109 8/15/110 7/13/111 
f 7/13/112 6/11/113 5/9/114 
f 9/17/115 7/13/116 5/9/117 
f 5/9/118 4/7/119 3/5/120 
f 3/5/121 2/2/122 33/1/123 
f 5/9/124 3/5/125 33/1/126 
f 9/17/127 5/9/128 33/1/129 
f 13/25/130 9/17/131 33/1/132 
f 15/29/133 13/25/134 33/1/135 
f 48/31/136 15/29/137 33/1/138 
f 18/33/139 19/35/140 20/36/141 
f 20/36/142 21/37/143 22/38/144 
f 22/38/145 23/39/146 24/40/147 
f 20/36/148 22/38/149 24/40/150 
f 24/40/151 25/41/152 26/42/153 
f 26/42/154 27/43/155 28/44/156 
f 24/40/157 26/42/158 28/44/159 
f 28/44/160 29/45/161 30/46/162 
f 30/46/163 31/47/164 32/48/165 
f 28/44/166 30/46/167 32/48/168 
f 24/40/169 28/44/170 32/48/171 
f 20/36/172 24/40/173 32/48/174 
f 18/33/175 20/36/176 32/48/177 
f 17/34/178 18/33/179 32/48/180 
# 60 faces

#
# object Pillow
#

v  -0.4412 1.1951 0.0313
v  -0.4849 0.9745 0.0313
v  -0.4994 0.7508 0.0312
v  -0.4848 0.5271 0.0312
v  -0.4411 0.3066 0.0312
v  -0.2195 0.2642 0.0312
v  0.0039 0.2504 0.0312
v  0.2265 0.2653 0.0312
v  0.4457 0.3089 0.0312
v  0.4879 0.5293 0.0312
v  0.5018 0.7516 0.0312
v  0.4873 0.9731 0.0313
v  0.4445 1.1913 0.0313
v  0.2252 1.2352 0.0313
v  0.0027 1.2504 0.0313
v  -0.2203 1.2370 0.0313
v  -0.4412 1.1951 -0.0312
v  -0.4849 0.9745 -0.0312
v  -0.4994 0.7508 -0.0313
v  -0.4848 0.5271 -0.0313
v  -0.4411 0.3066 -0.0313
v  -0.2195 0.2642 -0.0313
v  0.0039 0.2504 -0.0313
v  0.2265 0.2653 -0.0313
v  0.4457 0.3089 -0.0313
v  0.4879 0.5293 -0.0313
v  0.5018 0.7516 -0.0313
v  0.4873 0.9731 -0.0312
v  0.4445 1.1913 -0.0312
v  0.2252 1.2352 -0.0312
v  0.0027 1.2504 -0.0312
v  -0.2203 1.2370 -0.0312
v  -0.4412 1.1951 0.0313
v  -0.4412 1.1951 0.0313
v  -0.4849 0.9745 0.0313
v  -0.4994 0.7508 0.0312
v  -0.4848 0.5271 0.0312
v  -0.4411 0.3066 0.0312
v  -0.4411 0.3066 0.0312
v  -0.2195 0.2642 0.0312
v  0.0039 0.2504 0.0312
v  0.2265 0.2653 0.0312
v  0.4457 0.3089 0.0312
v  0.4457 0.3089 0.0312
v  0.4879 0.5293 0.0312
v  0.5018 0.7516 0.0312
v  0.4873 0.9731 0.0313
v  0.4445 1.1913 0.0313
v  0.4445 1.1913 0.0313
v  0.2252 1.2352 0.0313
v  0.0027 1.2504 0.0313
v  -0.2203 1.2370 0.0313
v  -0.4412 1.1951 -0.0312
v  -0.4412 1.1951 -0.0312
v  -0.4849 0.9745 -0.0312
v  -0.4994 0.7508 -0.0313
v  -0.4848 0.5271 -0.0313
v  -0.4411 0.3066 -0.0313
v  -0.4411 0.3066 -0.0313
v  -0.2195 0.2642 -0.0313
v  0.0039 0.2504 -0.0313
v  0.2265 0.2653 -0.0313
v  0.4457 0.3089 -0.0313
v  0.4457 0.3089 -0.0313
v  0.4879 0.5293 -0.0313
v  0.5018 0.7516 -0.0313
v  0.4873 0.9731 -0.0312
v  0.4445 1.1913 -0.0312
v  0.4445 1.1913 -0.0312
v  0.2252 1.2352 -0.0312
v  0.0027 1.2504 -0.0312
v  -0.2203 1.2370 -0.0312
# 72 vertices

vn -0.0000 -0.0000 1.0000
vn 0.0000 -0.0000 1.0000
vn 0.0000 -0.0000 1.0000
vn 0.0000 -0.0000 1.0000
vn 0.0000 -0.0000 1.0000
vn 0.0000 -0.0000 1.0000
vn -0.0000 -0.0000 1.0000
vn 0.0000 -0.0000 1.0000
vn 0.0000 -0.0000 1.0000
vn -0.0000 -0.0000 1.0000
vn 0.0000 -0.0000 1.0000
vn 0.0000 -0.0000 1.0000
vn 0.0000 -0.0000 1.0000
vn -0.0000 -0.0000 1.0000
vn 0.0000 -0.0000 1.0000
vn -0.0000 -0.0000 1.0000
vn 0.0000 -0.0000 1.0000
vn 0.0000 -0.0000 1.0000
vn 0.0000 -0.0000 1.0000
vn 0.0000 -0.0000 1.0000
vn 0.0000 -0.0000 1.0000
vn 0.0000 -0.0000 1.0000
vn 0.0000 -0.0000 1.0000
vn 0.0000 -0.0000 1.0000
vn 0.0000 -0.0000 1.0000
vn 0.0000 -0.0000 1.0000
vn 0.0000 -0.0000 1.0000
vn 0.0000 -0.0000 1.0000
vn 0.0000 -0.0000 1.0000
vn 0.0000 -0.0000 1.0000
vn 0.0000 -0.0000 1.0000
vn 0.0000 -0.0000 1.0000
vn 0.0000 -0.0000 1.0000
vn 0.0000 -0.0000 1.0000
vn 0.0000 -0.0000 1.0000
vn 0.0000 -0.0000 1.0000
vn 0.0000 -0.0000 1.0000
vn 0.0000 -0.0000 1.0000
vn -0.0000 -0.0000 1.0000
vn -0.0000 -0.0000 1.0000
vn 0.0000 -0.0000 1.0000
vn -0.0000 -0.0000 1.0000
vn 0.0000 0.0000 -1.0000
vn 0.0000 0.0000 -1.0000
vn 0.0000 0.0000 -1.0000
vn 0.0000 0.0000 -1.0000
vn 0.0000 0.0000 -1.0000
vn 0.0000 0.0000 -1.0000
vn 0.0000 0.0000 -1.0000
vn 0.0000 0.0000 -1.0000
vn 0.0000 0.0000 -1.0000
vn 0.0000 0.0000 -1.0000
vn 0.0000 0.0000 -1.0000
vn 0.0000 0.0000 -1.0000
vn 0.0000 0.0000 -1.0000
vn 0.0000 0.0000 -1.0000
vn 0.0000 0.0000 -1.0000
vn 0.0000 0.0000 -1.0000
vn 0.0000 0.0000 -1.0000
vn 0.0000 0.0000 -1.0000
vn 0.0000 0.0000 -1.0000
vn 0.0000 0.0000 -1.0000
vn 0.0000 0.0000 -1.0000
vn 0.0000 0.0000 -1.0000
vn 0.0000 0.0000 -1.0000
vn 0.0000 0.0000 -1.0000
vn 0.0000 0.0000 -1.0000
vn 0.0000 0.0000 -1.0000
vn 0.0000 0.0000 -1.0000
vn 0.0000 0.0000 -1.0000
vn 0.0000 0.0000 -1.0000
vn 0.0000 0.0000 -1.0000
vn 0.0000 0.0000 -1.0000
vn 0.0000 0.0000 -1.0000
vn 0.0000 0.0000 -1.0000
vn 0.0000 0.0000 -1.0000
vn 0.0000 0.0000 -1.0000
vn 0.0000 0.0000 -1.0000
vn 0.0000 0.0000 -1.0000
vn 0.0000 0.0000 -1.0000
vn 0.0000 0.0000 -1.0000
vn 0.0000 0.0000 -1.0000
vn 0.0000 0.0000 -1.0000
vn 0.0000 0.0000 -1.0000
vn -0.9915 -0.1302 -0.0000
vn -0.9809 -0.1946 -0.0000
vn -0.9809 -0.1946 -0.0000
vn -0.9809 -0.1946 -0.0000
vn -0.9915 -0.1302 -0.0000
vn -0.9915 -0.1302 -0.0000
vn -0.1879 -0.9822 -0.0000
vn -0.1250 -0.9922 -0.0000
vn -0.1250 -0.9922 -0.0000
vn -0.1250 -0.9922 -0.0000
vn -0.1879 -0.9822 -0.0000
vn -0.1879 -0.9822 -0.0000
vn 0.1312 -0.9914 -0.0000
vn 0.1951 -0.9808 -0.0000
vn 0.1951 -0.9808 -0.0000
vn 0.1951 -0.9808 -0.0000
vn 0.1312 -0.9914 -0.0000
vn 0.1312 -0.9914 -0.0000
vn 0.9822 -0.1879 -0.0000
vn 0.9921 -0.1254 -0.0000
vn 0.9921 -0.1254 -0.0000
vn 0.9921 -0.1254 -0.0000
vn 0.9822 -0.1879 -0.0000
vn 0.9822 -0.1879 -0.0000
vn 0.0026 -1.0000 -0.0000
vn 0.1312 -0.9914 -0.0000
vn 0.1312 -0.9914 -0.0000
vn 0.1312 -0.9914 -0.0000
vn 0.0026 -1.0000 -0.0000
vn 0.0026 -1.0000 -0.0000
vn 0.9921 -0.1254 -0.0000
vn 1.0000 0.0014 0.0000
vn 1.0000 0.0014 0.0000
vn 1.0000 0.0014 0.0000
vn 0.9921 -0.1254 -0.0000
vn 0.9921 -0.1254 -0.0000
vn 1.0000 0.0014 0.0000
vn 0.9916 0.1292 0.0000
vn 0.9916 0.1292 0.0000
vn 0.9916 0.1292 0.0000
vn 1.0000 0.0014 0.0000
vn 1.0000 0.0014 0.0000
vn 0.9916 0.1292 0.0000
vn 0.9812 0.1928 0.0000
vn 0.9812 0.1928 0.0000
vn 0.9812 0.1928 0.0000
vn 0.9916 0.1292 0.0000
vn 0.9916 0.1292 0.0000
vn 0.1964 0.9805 0.0000
vn 0.1326 0.9912 0.0000
vn 0.1326 0.9912 0.0000
vn 0.1326 0.9912 0.0000
vn 0.1964 0.9805 0.0000
vn 0.1964 0.9805 0.0000
vn 0.1326 0.9912 0.0000
vn 0.0041 1.0000 0.0000
vn 0.0041 1.0000 0.0000
vn 0.0041 1.0000 0.0000
vn 0.1326 0.9912 0.0000
vn 0.1326 0.9912 0.0000
vn 0.0041 1.0000 0.0000
vn -0.1234 0.9924 0.0000
vn -0.1234 0.9924 0.0000
vn -0.1234 0.9924 0.0000
vn 0.0041 1.0000 0.0000
vn 0.0041 1.0000 0.0000
vn -0.1234 0.9924 0.0000
vn -0.1863 0.9825 0.0000
vn -0.1863 0.9825 0.0000
vn -0.1863 0.9825 0.0000
vn -0.1234 0.9924 0.0000
vn -0.1234 0.9924 0.0000
vn -0.9809 0.1944 0.0000
vn -0.9915 0.1299 0.0000
vn -0.9915 0.1299 0.0000
vn -0.9915 0.1299 0.0000
vn -0.9809 0.1944 0.0000
vn -0.9809 0.1944 0.0000
vn -0.9915 0.1299 0.0000
vn -1.0000 -0.0001 -0.0000
vn -1.0000 -0.0001 -0.0000
vn -1.0000 -0.0001 -0.0000
vn -0.9915 0.1299 0.0000
vn -0.9915 0.1299 0.0000
vn -0.1250 -0.9922 -0.0000
vn 0.0026 -1.0000 -0.0000
vn 0.0026 -1.0000 -0.0000
vn 0.0026 -1.0000 -0.0000
vn -0.1250 -0.9922 -0.0000
vn -0.1250 -0.9922 -0.0000
vn -1.0000 -0.0001 -0.0000
vn -0.9915 -0.1302 -0.0000
vn -0.9915 -0.1302 -0.0000
vn -0.9915 -0.1302 -0.0000
vn -1.0000 -0.0001 -0.0000
vn -1.0000 -0.0001 -0.0000
# 180 vertex normals

vt 0.1674 0.9473 0.0000
vt 0.0846 0.9315 0.0000
vt 0.0682 0.8488 0.0000
vt 0.0627 0.7649 0.0000
vt 0.0682 0.6810 0.0000
vt 0.0846 0.5983 0.0000
vt 0.1677 0.5824 0.0000
vt 0.2515 0.5773 0.0000
vt 0.3350 0.5829 0.0000
vt 0.4171 0.5992 0.0000
vt 0.4330 0.6819 0.0000
vt 0.4382 0.7652 0.0000
vt 0.4327 0.8483 0.0000
vt 0.4167 0.9301 0.0000
vt 0.3344 0.9466 0.0000
vt 0.2510 0.9523 0.0000
vt 0.5887 0.5354 0.0000
vt 0.5397 0.5354 0.0000
vt 0.5397 0.5104 0.0000
vt 0.5887 0.5104 0.0000
vt 0.6412 0.5354 0.0000
vt 0.6412 0.5104 0.0000
vt 0.8124 0.5354 0.0000
vt 0.7607 0.5354 0.0000
vt 0.7607 0.5104 0.0000
vt 0.8124 0.5104 0.0000
vt 0.8613 0.5354 0.0000
vt 0.8613 0.5104 0.0000
vt 0.7011 0.5354 0.0000
vt 0.7011 0.5104 0.0000
vt 0.9236 0.5354 0.0000
vt 0.9236 0.5104 0.0000
vt -0.0069 0.5354 0.0000
vt -0.0069 0.5104 0.0000
vt 0.0564 0.5354 0.0000
vt 0.0564 0.5104 0.0000
vt 0.1175 0.5354 0.0000
vt 0.1175 0.5104 0.0000
vt 0.1989 0.5354 0.0000
vt 0.1989 0.5104 0.0000
vt 0.2807 0.5354 0.0000
vt 0.2807 0.5104 0.0000
vt 0.3422 0.5354 0.0000
vt 0.3422 0.5104 0.0000
vt 0.4063 0.5354 0.0000
vt 0.4063 0.5104 0.0000
vt 0.4768 0.5354 0.0000
vt 0.4768 0.5104 0.0000
vt 0.9931 0.5354 0.0000
vt 0.9931 0.5104 0.0000
vt 0.5682 0.8488 0.0000
vt 0.5846 0.9315 0.0000
vt 0.6674 0.9473 0.0000
vt 0.7510 0.9523 0.0000
vt 0.8344 0.9466 0.0000
vt 0.9167 0.9301 0.0000
vt 0.9327 0.8483 0.0000
vt 0.9382 0.7652 0.0000
vt 0.9330 0.6819 0.0000
vt 0.9171 0.5992 0.0000
vt 0.8350 0.5829 0.0000
vt 0.7515 0.5773 0.0000
vt 0.6677 0.5824 0.0000
vt 0.5846 0.5983 0.0000
vt 0.5682 0.6810 0.0000
vt 0.5627 0.7649 0.0000
# 66 texture coords

g Pillow
usemtl wire_087225087
f 80/67/181 65/68/182 99/69/183 
f 101/71/184 103/72/185 104/73/186 
f 100/70/187 101/71/188 104/73/189 
f 100/70/190 104/73/191 105/74/192 
f 99/69/193 100/70/194 105/74/195 
f 80/67/196 99/69/197 105/74/198 
f 106/75/199 108/76/200 109/77/201 
f 105/74/202 106/75/203 109/77/204 
f 105/74/205 109/77/206 110/78/207 
f 105/74/208 110/78/209 111/79/210 
f 111/79/211 113/80/212 114/81/213 
f 105/74/214 111/79/215 114/81/216 
f 105/74/217 114/81/218 115/82/219 
f 80/67/220 105/74/221 115/82/222 
f 82/117/223 117/118/224 96/119/225 
f 94/121/226 132/122/227 92/123/228 
f 90/125/229 127/126/230 88/127/231 
f 90/125/232 88/127/233 87/128/234 
f 91/124/235 90/125/236 87/128/237 
f 92/123/238 91/124/239 87/128/240 
f 94/121/241 92/123/242 87/128/243 
f 95/120/244 94/121/245 87/128/246 
f 96/119/247 95/120/248 87/128/249 
f 82/117/250 96/119/251 87/128/252 
f 86/129/253 122/130/254 84/131/255 
f 86/129/256 84/131/257 83/132/258 
f 87/128/259 86/129/260 83/132/261 
f 82/117/262 87/128/263 83/132/264 
f 121/85/265 85/86/266 69/83/267 
f 69/83/268 68/84/269 121/85/270 
f 123/86/271 124/88/272 70/87/273 
f 70/87/274 102/83/275 123/86/276 
f 126/91/277 89/92/278 73/89/279 
f 73/89/280 72/90/281 126/91/282 
f 128/92/283 129/94/284 74/93/285 
f 74/93/286 107/89/287 128/92/288 
f 125/96/289 126/91/290 72/90/291 
f 72/90/292 71/95/293 125/96/294 
f 129/94/295 130/98/296 75/97/297 
f 75/97/298 74/93/299 129/94/300 
f 130/98/301 131/116/302 76/115/303 
f 76/115/304 75/97/305 130/98/306 
f 131/100/307 93/102/308 77/101/309 
f 77/101/310 76/99/311 131/100/312 
f 133/102/313 134/104/314 78/103/315 
f 78/103/316 112/101/317 133/102/318 
f 134/104/319 135/106/320 79/105/321 
f 79/105/322 78/103/323 134/104/324 
f 135/106/325 136/108/326 116/107/327 
f 116/107/328 79/105/329 135/106/330 
f 136/108/331 81/110/332 97/109/333 
f 97/109/334 116/107/335 136/108/336 
f 118/110/337 119/112/338 66/111/339 
f 66/111/340 98/109/341 118/110/342 
f 119/112/343 120/114/344 67/113/345 
f 67/113/346 66/111/347 119/112/348 
f 124/88/349 125/96/350 71/95/351 
f 71/95/352 70/87/353 124/88/354 
f 120/114/355 121/85/356 68/84/357 
f 68/84/358 67/113/359 120/114/360 
# 60 faces

