# 3ds Max Wavefront OBJ Exporter v0.97b - (c)2007 guruware
# File Created: 11.03.2017 15:07:39

mtllib RectV_MSH.mtl

#
# object RectV_BASE
#

v  0.3465 -0.0313 -0.1435
v  0.2652 -0.0313 -0.2652
v  0.1435 -0.0313 -0.3465
v  -0.1435 -0.0313 -0.3465
v  -0.2652 -0.0313 -0.2652
v  -0.3465 -0.0313 0.1435
v  -0.2652 -0.0313 0.2652
v  -0.1435 -0.0313 0.3465
v  0.2652 -0.0313 0.2652
v  0.3465 -0.0313 0.1435
v  0.3750 0.0313 -0.0000
v  0.2652 0.0313 -0.2652
v  -0.0000 0.0313 -0.3750
v  -0.1435 0.0313 -0.3465
v  -0.3465 0.0313 -0.1435
v  -0.3750 0.0313 -0.0000
v  -0.3465 0.0313 0.1435
v  -0.2652 0.0313 0.2652
v  -0.1435 0.0313 0.3465
v  0.0000 0.0313 0.3750
v  0.3465 0.0313 0.1435
v  0.3750 -0.0313 -0.0000
v  -0.0000 -0.0313 -0.3750
v  -0.3465 -0.0313 -0.1435
v  -0.3750 -0.0313 -0.0000
v  0.0000 -0.0313 0.3750
v  0.1435 -0.0313 0.3465
v  0.3465 0.0313 -0.1435
v  0.1435 0.0313 -0.3465
v  -0.2652 0.0313 -0.2652
v  0.1435 0.0313 0.3465
v  0.2652 0.0313 0.2652
v  0.3465 -0.0313 -0.1435
v  0.2652 -0.0313 -0.2652
v  0.1435 -0.0313 -0.3465
v  -0.1435 -0.0313 -0.3465
v  -0.2652 -0.0313 -0.2652
v  -0.3465 -0.0313 0.1435
v  -0.2652 -0.0313 0.2652
v  -0.1435 -0.0313 0.3465
v  0.2652 -0.0313 0.2652
v  0.3465 -0.0313 0.1435
v  0.3750 0.0313 -0.0000
v  0.2652 0.0313 -0.2652
v  -0.0000 0.0313 -0.3750
v  -0.1435 0.0313 -0.3465
v  -0.3465 0.0313 -0.1435
v  -0.3750 0.0313 -0.0000
v  -0.3465 0.0313 0.1435
v  -0.2652 0.0313 0.2652
v  -0.1435 0.0313 0.3465
v  0.0000 0.0313 0.3750
v  0.3465 0.0313 0.1435
v  0.3750 -0.0313 -0.0000
v  -0.0000 -0.0313 -0.3750
v  -0.3465 -0.0313 -0.1435
v  -0.3750 -0.0313 -0.0000
v  0.0000 -0.0313 0.3750
v  0.1435 -0.0313 0.3465
v  0.3465 0.0313 -0.1435
v  0.1435 0.0313 -0.3465
v  -0.2652 0.0313 -0.2652
v  0.1435 0.0313 0.3465
v  0.2652 0.0313 0.2652
# 64 vertices

vn 1.0000 0.0000 -0.0000
vn 0.9239 0.0000 -0.3827
vn 0.9239 0.0000 -0.3827
vn 0.9239 0.0000 -0.3827
vn 1.0000 0.0000 -0.0000
vn 1.0000 0.0000 -0.0000
vn 0.9239 0.0000 -0.3827
vn 0.7071 0.0000 -0.7071
vn 0.7071 0.0000 -0.7071
vn 0.7071 0.0000 -0.7071
vn 0.9239 0.0000 -0.3827
vn 0.9239 0.0000 -0.3827
vn 0.7071 0.0000 -0.7071
vn 0.3827 0.0000 -0.9239
vn 0.3827 0.0000 -0.9239
vn 0.3827 0.0000 -0.9239
vn 0.7071 0.0000 -0.7071
vn 0.7071 0.0000 -0.7071
vn 0.3827 0.0000 -0.9239
vn 0.0000 0.0000 -1.0000
vn 0.0000 0.0000 -1.0000
vn 0.0000 0.0000 -1.0000
vn 0.3827 0.0000 -0.9239
vn 0.3827 0.0000 -0.9239
vn 0.0000 0.0000 -1.0000
vn -0.3827 0.0000 -0.9239
vn -0.3827 0.0000 -0.9239
vn -0.3827 0.0000 -0.9239
vn 0.0000 0.0000 -1.0000
vn 0.0000 0.0000 -1.0000
vn -0.3827 0.0000 -0.9239
vn -0.7071 0.0000 -0.7071
vn -0.7071 0.0000 -0.7071
vn -0.7071 0.0000 -0.7071
vn -0.3827 0.0000 -0.9239
vn -0.3827 0.0000 -0.9239
vn -0.7071 0.0000 -0.7071
vn -0.9239 0.0000 -0.3827
vn -0.9239 0.0000 -0.3827
vn -0.9239 0.0000 -0.3827
vn -0.7071 0.0000 -0.7071
vn -0.7071 0.0000 -0.7071
vn -0.9239 0.0000 -0.3827
vn -1.0000 0.0000 -0.0000
vn -1.0000 0.0000 -0.0000
vn -1.0000 0.0000 -0.0000
vn -0.9239 0.0000 -0.3827
vn -0.9239 0.0000 -0.3827
vn -1.0000 0.0000 -0.0000
vn -0.9239 0.0000 0.3827
vn -0.9239 0.0000 0.3827
vn -0.9239 0.0000 0.3827
vn -1.0000 0.0000 -0.0000
vn -1.0000 0.0000 -0.0000
vn -0.9239 0.0000 0.3827
vn -0.7071 0.0000 0.7071
vn -0.7071 0.0000 0.7071
vn -0.7071 0.0000 0.7071
vn -0.9239 0.0000 0.3827
vn -0.9239 0.0000 0.3827
vn -0.7071 0.0000 0.7071
vn -0.3827 0.0000 0.9239
vn -0.3827 0.0000 0.9239
vn -0.3827 0.0000 0.9239
vn -0.7071 0.0000 0.7071
vn -0.7071 0.0000 0.7071
vn -0.3827 0.0000 0.9239
vn 0.0000 0.0000 1.0000
vn 0.0000 0.0000 1.0000
vn 0.0000 0.0000 1.0000
vn -0.3827 0.0000 0.9239
vn -0.3827 0.0000 0.9239
vn 0.0000 0.0000 1.0000
vn 0.3827 0.0000 0.9239
vn 0.3827 0.0000 0.9239
vn 0.3827 0.0000 0.9239
vn 0.0000 0.0000 1.0000
vn 0.0000 0.0000 1.0000
vn 0.3827 0.0000 0.9239
vn 0.7071 0.0000 0.7071
vn 0.7071 0.0000 0.7071
vn 0.7071 0.0000 0.7071
vn 0.3827 0.0000 0.9239
vn 0.3827 0.0000 0.9239
vn 0.7071 0.0000 0.7071
vn 0.9239 0.0000 0.3827
vn 0.9239 0.0000 0.3827
vn 0.9239 0.0000 0.3827
vn 0.7071 0.0000 0.7071
vn 0.7071 0.0000 0.7071
vn 0.9239 0.0000 0.3827
vn 1.0000 0.0000 -0.0000
vn 1.0000 0.0000 -0.0000
vn 1.0000 0.0000 -0.0000
vn 0.9239 0.0000 0.3827
vn 0.9239 0.0000 0.3827
vn 0.0000 -1.0000 -0.0000
vn 0.0000 -1.0000 -0.0000
vn 0.0000 -1.0000 -0.0000
vn 0.0000 -1.0000 -0.0000
vn 0.0000 -1.0000 -0.0000
vn 0.0000 -1.0000 -0.0000
vn 0.0000 -1.0000 -0.0000
vn 0.0000 -1.0000 -0.0000
vn 0.0000 -1.0000 -0.0000
vn 0.0000 -1.0000 -0.0000
vn 0.0000 -1.0000 -0.0000
vn 0.0000 -1.0000 -0.0000
vn 0.0000 -1.0000 -0.0000
vn 0.0000 -1.0000 -0.0000
vn 0.0000 -1.0000 -0.0000
vn 0.0000 -1.0000 -0.0000
vn 0.0000 -1.0000 -0.0000
vn 0.0000 -1.0000 -0.0000
vn 0.0000 -1.0000 -0.0000
vn 0.0000 -1.0000 -0.0000
vn 0.0000 -1.0000 -0.0000
vn 0.0000 -1.0000 -0.0000
vn 0.0000 -1.0000 -0.0000
vn 0.0000 -1.0000 -0.0000
vn 0.0000 -1.0000 -0.0000
vn 0.0000 -1.0000 -0.0000
vn 0.0000 -1.0000 -0.0000
vn 0.0000 -1.0000 -0.0000
vn 0.0000 -1.0000 -0.0000
vn 0.0000 -1.0000 -0.0000
vn 0.0000 -1.0000 -0.0000
vn 0.0000 -1.0000 -0.0000
vn 0.0000 -1.0000 -0.0000
vn 0.0000 -1.0000 -0.0000
vn 0.0000 -1.0000 -0.0000
vn 0.0000 -1.0000 -0.0000
vn 0.0000 -1.0000 -0.0000
vn 0.0000 -1.0000 -0.0000
vn 0.0000 -1.0000 -0.0000
vn 0.0000 -1.0000 -0.0000
vn 0.0000 -1.0000 -0.0000
vn 0.0000 -1.0000 -0.0000
vn 0.0000 1.0000 -0.0000
vn 0.0000 1.0000 -0.0000
vn 0.0000 1.0000 -0.0000
vn 0.0000 1.0000 -0.0000
vn 0.0000 1.0000 -0.0000
vn 0.0000 1.0000 -0.0000
vn 0.0000 1.0000 -0.0000
vn 0.0000 1.0000 -0.0000
vn 0.0000 1.0000 -0.0000
vn 0.0000 1.0000 -0.0000
vn 0.0000 1.0000 -0.0000
vn 0.0000 1.0000 -0.0000
vn 0.0000 1.0000 -0.0000
vn 0.0000 1.0000 -0.0000
vn 0.0000 1.0000 -0.0000
vn 0.0000 1.0000 -0.0000
vn 0.0000 1.0000 -0.0000
vn 0.0000 1.0000 -0.0000
vn 0.0000 1.0000 -0.0000
vn 0.0000 1.0000 -0.0000
vn 0.0000 1.0000 -0.0000
vn 0.0000 1.0000 -0.0000
vn 0.0000 1.0000 -0.0000
vn 0.0000 1.0000 -0.0000
vn 0.0000 1.0000 -0.0000
vn 0.0000 1.0000 -0.0000
vn 0.0000 1.0000 -0.0000
vn 0.0000 1.0000 -0.0000
vn 0.0000 1.0000 -0.0000
vn 0.0000 1.0000 -0.0000
vn 0.0000 1.0000 -0.0000
vn 0.0000 1.0000 -0.0000
vn 0.0000 1.0000 -0.0000
vn 0.0000 1.0000 -0.0000
vn 0.0000 1.0000 -0.0000
vn 0.0000 1.0000 -0.0000
vn 0.0000 1.0000 -0.0000
vn 0.0000 1.0000 -0.0000
vn 0.0000 1.0000 -0.0000
vn 0.0000 1.0000 -0.0000
vn 0.0000 1.0000 -0.0000
vn 0.0000 1.0000 -0.0000
# 180 vertex normals

vt 0.5625 0.2500 0.0000
vt 0.5768 0.3218 0.0000
vt 0.7500 0.0180 0.0000
vt 0.8125 0.0180 0.0000
vt 0.6174 0.3826 0.0000
vt 0.8125 0.0445 0.0000
vt 0.6782 0.4232 0.0000
vt 0.7500 0.0445 0.0000
vt 0.7500 0.4375 0.0000
vt 0.8750 0.0180 0.0000
vt 0.8218 0.4232 0.0000
vt 0.8750 0.0445 0.0000
vt 0.8826 0.3826 0.0000
vt 0.9375 0.0180 0.0000
vt 0.9232 0.3218 0.0000
vt 0.9375 0.0445 0.0000
vt 0.9375 0.2500 0.0000
vt 0.0000 0.0180 0.0000
vt 0.9232 0.1782 0.0000
vt 0.0000 0.0445 0.0000
vt 0.8826 0.1174 0.0000
vt 0.0625 0.0180 0.0000
vt 0.8218 0.0768 0.0000
vt 0.0625 0.0445 0.0000
vt 0.7500 0.0625 0.0000
vt 0.1250 0.0180 0.0000
vt 0.6782 0.0768 0.0000
vt 0.1250 0.0445 0.0000
vt 0.6174 0.1174 0.0000
vt 0.1875 0.0180 0.0000
vt 0.5768 0.1782 0.0000
vt 0.1875 0.0445 0.0000
vt 0.4232 0.3218 0.0000
vt 0.4375 0.2500 0.0000
vt 0.3826 0.3826 0.0000
vt 0.3218 0.4232 0.0000
vt 0.2500 0.4375 0.0000
vt 0.1782 0.4232 0.0000
vt 0.1174 0.3826 0.0000
vt 0.0768 0.3218 0.0000
vt 0.0625 0.2500 0.0000
vt 0.0768 0.1782 0.0000
vt 0.1174 0.1174 0.0000
vt 0.1782 0.0768 0.0000
vt 0.2500 0.0625 0.0000
vt 0.3218 0.0768 0.0000
vt 0.3826 0.1174 0.0000
vt 0.4232 0.1782 0.0000
vt 0.2500 0.0180 0.0000
vt 0.2500 0.0445 0.0000
vt 0.3125 0.0180 0.0000
vt 0.3125 0.0445 0.0000
vt 0.3750 0.0180 0.0000
vt 0.3750 0.0445 0.0000
vt 0.4375 0.0180 0.0000
vt 0.4375 0.0445 0.0000
vt 0.5000 0.0180 0.0000
vt 0.5000 0.0445 0.0000
vt 0.5625 0.0180 0.0000
vt 0.5625 0.0445 0.0000
vt 0.6250 0.0180 0.0000
vt 0.6250 0.0445 0.0000
vt 0.6875 0.0180 0.0000
vt 0.6875 0.0445 0.0000
vt 1.0000 0.0180 0.0000
vt 1.0000 0.0445 0.0000
# 66 texture coords

g RectV_BASE
usemtl Material__2
f 22/3/1 1/4/2 60/6/3 
f 60/6/4 11/8/5 22/3/6 
f 1/4/7 34/10/8 44/12/9 
f 44/12/10 60/6/11 1/4/12 
f 34/10/13 35/14/14 61/16/15 
f 61/16/16 44/12/17 34/10/18 
f 35/14/19 55/65/20 45/66/21 
f 45/66/22 61/16/23 35/14/24 
f 55/18/25 4/22/26 46/24/27 
f 46/24/28 45/20/29 55/18/30 
f 4/22/31 37/26/32 62/28/33 
f 62/28/34 46/24/35 4/22/36 
f 37/26/37 56/30/38 47/32/39 
f 47/32/40 62/28/41 37/26/42 
f 56/30/43 25/49/44 16/50/45 
f 16/50/46 47/32/47 56/30/48 
f 25/49/49 6/51/50 49/52/51 
f 49/52/52 16/50/53 25/49/54 
f 6/51/55 39/53/56 50/54/57 
f 50/54/58 49/52/59 6/51/60 
f 39/53/61 40/55/62 51/56/63 
f 51/56/64 50/54/65 39/53/66 
f 40/55/67 58/57/68 20/58/69 
f 20/58/70 51/56/71 40/55/72 
f 58/57/73 27/59/74 31/60/75 
f 31/60/76 20/58/77 58/57/78 
f 27/59/79 9/61/80 64/62/81 
f 64/62/82 31/60/83 27/59/84 
f 9/61/85 42/63/86 53/64/87 
f 53/64/88 64/62/89 9/61/90 
f 42/63/91 22/3/92 11/8/93 
f 11/8/94 53/64/95 42/63/96 
f 41/29/97 59/27/98 26/25/99 
f 26/25/100 8/23/101 7/21/102 
f 7/21/103 38/19/104 57/17/105 
f 26/25/106 7/21/107 57/17/108 
f 57/17/109 24/15/110 5/13/111 
f 5/13/112 36/11/113 23/9/114 
f 57/17/115 5/13/116 23/9/117 
f 23/9/118 3/7/119 2/5/120 
f 2/5/121 33/2/122 54/1/123 
f 23/9/124 2/5/125 54/1/126 
f 57/17/127 23/9/128 54/1/129 
f 26/25/130 57/17/131 54/1/132 
f 41/29/133 26/25/134 54/1/135 
f 10/31/136 41/29/137 54/1/138 
f 28/33/139 12/35/140 29/36/141 
f 29/36/142 13/37/143 14/38/144 
f 14/38/145 30/39/146 15/40/147 
f 29/36/148 14/38/149 15/40/150 
f 15/40/151 48/41/152 17/42/153 
f 17/42/154 18/43/155 19/44/156 
f 15/40/157 17/42/158 19/44/159 
f 19/44/160 52/45/161 63/46/162 
f 63/46/163 32/47/164 21/48/165 
f 19/44/166 63/46/167 21/48/168 
f 15/40/169 19/44/170 21/48/171 
f 29/36/172 15/40/173 21/48/174 
f 28/33/175 29/36/176 21/48/177 
f 43/34/178 28/33/179 21/48/180 
# 60 faces

#
# object RectV
#

v  0.3200 1.2500 0.0313
v  -0.3200 1.2500 0.0313
v  -0.3200 0.2500 0.0312
v  0.3200 0.2500 0.0312
v  0.3200 1.2500 -0.0312
v  -0.3200 1.2500 -0.0312
v  -0.3200 0.2500 -0.0313
v  0.3200 0.2500 -0.0313
v  0.3200 1.2500 0.0313
v  0.3200 1.2500 0.0313
v  -0.3200 1.2500 0.0313
v  -0.3200 1.2500 0.0313
v  -0.3200 0.2500 0.0312
v  -0.3200 0.2500 0.0312
v  0.3200 0.2500 0.0312
v  0.3200 0.2500 0.0312
v  0.3200 1.2500 -0.0312
v  0.3200 1.2500 -0.0312
v  -0.3200 1.2500 -0.0312
v  -0.3200 1.2500 -0.0312
v  -0.3200 0.2500 -0.0313
v  -0.3200 0.2500 -0.0313
v  0.3200 0.2500 -0.0313
v  0.3200 0.2500 -0.0313
# 24 vertices

vn 0.0000 -0.0000 1.0000
vn 0.0000 -0.0000 1.0000
vn 0.0000 -0.0000 1.0000
vn 0.0000 -0.0000 1.0000
vn 0.0000 -0.0000 1.0000
vn 0.0000 -0.0000 1.0000
vn 0.0000 0.0000 -1.0000
vn 0.0000 0.0000 -1.0000
vn 0.0000 0.0000 -1.0000
vn 0.0000 0.0000 -1.0000
vn 0.0000 0.0000 -1.0000
vn 0.0000 0.0000 -1.0000
vn 0.0000 1.0000 0.0000
vn 0.0000 1.0000 0.0000
vn 0.0000 1.0000 0.0000
vn 0.0000 1.0000 0.0000
vn 0.0000 1.0000 0.0000
vn 0.0000 1.0000 0.0000
vn -1.0000 0.0000 -0.0000
vn -1.0000 0.0000 -0.0000
vn -1.0000 0.0000 -0.0000
vn -1.0000 0.0000 -0.0000
vn -1.0000 0.0000 -0.0000
vn -1.0000 0.0000 -0.0000
vn 0.0000 -1.0000 -0.0000
vn 0.0000 -1.0000 -0.0000
vn 0.0000 -1.0000 -0.0000
vn 0.0000 -1.0000 -0.0000
vn 0.0000 -1.0000 -0.0000
vn 0.0000 -1.0000 -0.0000
vn 1.0000 0.0000 -0.0000
vn 1.0000 0.0000 -0.0000
vn 1.0000 0.0000 -0.0000
vn 1.0000 0.0000 -0.0000
vn 1.0000 0.0000 -0.0000
vn 1.0000 0.0000 -0.0000
# 36 vertex normals

vt 0.3700 0.9365 0.0000
vt 0.1300 0.9365 0.0000
vt 0.1300 0.5615 0.0000
vt 0.3700 0.5615 0.0000
vt 0.2101 0.5437 0.0000
vt 0.0000 0.5437 0.0000
vt 0.0000 0.5188 0.0000
vt 0.2101 0.5188 0.0000
vt 0.5245 0.5437 0.0000
vt 0.5245 0.5188 0.0000
vt 0.6856 0.5437 0.0000
vt 0.6856 0.5188 0.0000
vt 1.0000 0.5437 0.0000
vt 1.0000 0.5188 0.0000
vt 0.8700 0.5615 0.0000
vt 0.8700 0.9365 0.0000
vt 0.6300 0.9365 0.0000
vt 0.6300 0.5615 0.0000
# 18 texture coords

g RectV
usemtl Material__2
f 78/69/181 68/70/182 65/67/183 
f 65/67/184 76/68/185 78/69/186 
f 81/83/187 87/84/188 85/81/189 
f 85/81/190 83/82/191 81/83/192 
f 82/73/193 70/74/194 66/71/195 
f 66/71/196 74/72/197 82/73/198 
f 84/74/199 71/76/200 67/75/201 
f 67/75/202 75/71/203 84/74/204 
f 86/76/205 72/78/206 79/77/207 
f 79/77/208 77/75/209 86/76/210 
f 88/78/211 69/80/212 73/79/213 
f 73/79/214 80/77/215 88/78/216 
# 12 faces

