# 3ds Max Wavefront OBJ Exporter v0.97b - (c)2007 guruware
# File Created: 11.03.2017 12:49:21

mtllib Star_MSH.mtl

#
# object Star
#

v  0.0000 0.5129 0.0313
v  -0.1483 0.3080 0.0313
v  -0.4010 0.3198 0.0313
v  -0.3333 0.0761 0.0313
v  -0.5000 -0.1141 0.0312
v  -0.2673 -0.2132 0.0312
v  -0.2225 -0.4621 0.0312
v  0.0000 -0.3419 0.0312
v  0.2225 -0.4621 0.0312
v  0.2673 -0.2132 0.0312
v  0.5000 -0.1141 0.0312
v  0.3333 0.0761 0.0313
v  0.4010 0.3198 0.0313
v  0.1483 0.3080 0.0313
v  0.0000 0.5129 -0.0312
v  -0.1483 0.3080 -0.0312
v  -0.4010 0.3198 -0.0312
v  -0.3333 0.0761 -0.0312
v  -0.5000 -0.1141 -0.0313
v  -0.2673 -0.2132 -0.0313
v  -0.2225 -0.4621 -0.0313
v  0.0000 -0.3419 -0.0313
v  0.2225 -0.4621 -0.0313
v  0.2673 -0.2132 -0.0313
v  0.5000 -0.1141 -0.0313
v  0.3333 0.0761 -0.0312
v  0.4010 0.3198 -0.0312
v  0.1483 0.3080 -0.0312
v  0.0000 0.5129 0.0313
v  -0.1483 0.3080 0.0313
v  -0.1483 0.3080 0.0313
v  -0.4010 0.3198 0.0313
v  -0.4010 0.3198 0.0313
v  -0.3333 0.0761 0.0313
v  -0.3333 0.0761 0.0313
v  -0.5000 -0.1141 0.0312
v  -0.5000 -0.1141 0.0312
v  -0.2673 -0.2132 0.0312
v  -0.2673 -0.2132 0.0312
v  -0.2225 -0.4621 0.0312
v  -0.2225 -0.4621 0.0312
v  0.0000 -0.3419 0.0312
v  0.0000 -0.3419 0.0312
v  0.2225 -0.4621 0.0312
v  0.2225 -0.4621 0.0312
v  0.2673 -0.2132 0.0312
v  0.2673 -0.2132 0.0312
v  0.5000 -0.1141 0.0312
v  0.5000 -0.1141 0.0312
v  0.3333 0.0761 0.0313
v  0.3333 0.0761 0.0313
v  0.4010 0.3198 0.0313
v  0.4010 0.3198 0.0313
v  0.1483 0.3080 0.0313
v  0.1483 0.3080 0.0313
v  0.0000 0.5129 -0.0312
v  -0.1483 0.3080 -0.0312
v  -0.1483 0.3080 -0.0312
v  -0.4010 0.3198 -0.0312
v  -0.4010 0.3198 -0.0312
v  -0.3333 0.0761 -0.0312
v  -0.3333 0.0761 -0.0312
v  -0.5000 -0.1141 -0.0313
v  -0.5000 -0.1141 -0.0313
v  -0.2673 -0.2132 -0.0313
v  -0.2673 -0.2132 -0.0313
v  -0.2225 -0.4621 -0.0313
v  -0.2225 -0.4621 -0.0313
v  0.0000 -0.3419 -0.0313
v  0.0000 -0.3419 -0.0313
v  0.2225 -0.4621 -0.0313
v  0.2225 -0.4621 -0.0313
v  0.2673 -0.2132 -0.0313
v  0.2673 -0.2132 -0.0313
v  0.5000 -0.1141 -0.0313
v  0.5000 -0.1141 -0.0313
v  0.3333 0.0761 -0.0312
v  0.3333 0.0761 -0.0312
v  0.4010 0.3198 -0.0312
v  0.4010 0.3198 -0.0312
v  0.1483 0.3080 -0.0312
v  0.1483 0.3080 -0.0312
# 82 vertices

vn -0.0000 -0.0000 1.0000
vn 0.0000 -0.0000 1.0000
vn 0.0000 -0.0000 1.0000
vn 0.0000 -0.0000 1.0000
vn 0.0000 -0.0000 1.0000
vn 0.0000 -0.0000 1.0000
vn 0.0000 -0.0000 1.0000
vn 0.0000 -0.0000 1.0000
vn 0.0000 -0.0000 1.0000
vn 0.0000 -0.0000 1.0000
vn 0.0000 -0.0000 1.0000
vn 0.0000 -0.0000 1.0000
vn -0.0000 -0.0000 1.0000
vn 0.0000 -0.0000 1.0000
vn 0.0000 -0.0000 1.0000
vn 0.0000 -0.0000 1.0000
vn -0.0000 -0.0000 1.0000
vn 0.0000 -0.0000 1.0000
vn 0.0000 -0.0000 1.0000
vn 0.0000 -0.0000 1.0000
vn 0.0000 -0.0000 1.0000
vn 0.0000 -0.0000 1.0000
vn 0.0000 -0.0000 1.0000
vn 0.0000 -0.0000 1.0000
vn 0.0000 -0.0000 1.0000
vn 0.0000 -0.0000 1.0000
vn -0.0000 -0.0000 1.0000
vn 0.0000 -0.0000 1.0000
vn 0.0000 -0.0000 1.0000
vn -0.0000 -0.0000 1.0000
vn -0.0000 -0.0000 1.0000
vn 0.0000 -0.0000 1.0000
vn -0.0000 -0.0000 1.0000
vn -0.0000 -0.0000 1.0000
vn -0.0000 -0.0000 1.0000
vn -0.0000 -0.0000 1.0000
vn 0.0000 0.0000 -1.0000
vn 0.0000 0.0000 -1.0000
vn 0.0000 0.0000 -1.0000
vn 0.0000 0.0000 -1.0000
vn 0.0000 0.0000 -1.0000
vn 0.0000 0.0000 -1.0000
vn 0.0000 0.0000 -1.0000
vn 0.0000 0.0000 -1.0000
vn 0.0000 0.0000 -1.0000
vn 0.0000 0.0000 -1.0000
vn 0.0000 0.0000 -1.0000
vn 0.0000 0.0000 -1.0000
vn 0.0000 0.0000 -1.0000
vn 0.0000 0.0000 -1.0000
vn 0.0000 0.0000 -1.0000
vn 0.0000 0.0000 -1.0000
vn 0.0000 0.0000 -1.0000
vn 0.0000 0.0000 -1.0000
vn 0.0000 0.0000 -1.0000
vn 0.0000 0.0000 -1.0000
vn 0.0000 0.0000 -1.0000
vn 0.0000 0.0000 -1.0000
vn 0.0000 0.0000 -1.0000
vn 0.0000 0.0000 -1.0000
vn 0.0000 0.0000 -1.0000
vn 0.0000 0.0000 -1.0000
vn 0.0000 0.0000 -1.0000
vn 0.0000 0.0000 -1.0000
vn 0.0000 0.0000 -1.0000
vn 0.0000 0.0000 -1.0000
vn 0.0000 0.0000 -1.0000
vn 0.0000 0.0000 -1.0000
vn 0.0000 0.0000 -1.0000
vn 0.0000 0.0000 -1.0000
vn 0.0000 0.0000 -1.0000
vn 0.0000 0.0000 -1.0000
vn 0.3917 -0.9201 -0.0000
vn 0.3917 -0.9201 -0.0000
vn 0.3917 -0.9201 -0.0000
vn 0.3917 -0.9201 -0.0000
vn 0.3917 -0.9201 -0.0000
vn 0.3917 -0.9201 -0.0000
vn 0.7521 0.6590 0.0000
vn 0.7521 0.6590 0.0000
vn 0.7521 0.6590 0.0000
vn 0.7521 0.6590 0.0000
vn 0.7521 0.6590 0.0000
vn 0.7521 0.6590 0.0000
vn 0.9636 -0.2674 -0.0000
vn 0.9636 -0.2674 -0.0000
vn 0.9636 -0.2674 -0.0000
vn 0.9636 -0.2674 -0.0000
vn 0.9636 -0.2674 -0.0000
vn 0.9636 -0.2674 -0.0000
vn -0.0463 0.9989 0.0000
vn -0.0463 0.9989 0.0000
vn -0.0463 0.9989 0.0000
vn -0.0463 0.9989 0.0000
vn -0.0463 0.9989 0.0000
vn -0.0463 0.9989 0.0000
vn 0.8099 0.5866 0.0000
vn 0.8099 0.5866 0.0000
vn 0.8099 0.5866 0.0000
vn 0.8099 0.5866 0.0000
vn 0.8099 0.5866 0.0000
vn 0.8099 0.5866 0.0000
vn -0.8099 0.5866 0.0000
vn -0.8099 0.5866 0.0000
vn -0.8099 0.5866 0.0000
vn -0.8099 0.5866 0.0000
vn -0.8099 0.5866 0.0000
vn -0.8099 0.5866 0.0000
vn 0.0463 0.9989 0.0000
vn 0.0463 0.9989 0.0000
vn 0.0463 0.9989 0.0000
vn 0.0463 0.9989 0.0000
vn 0.0463 0.9989 0.0000
vn 0.0463 0.9989 0.0000
vn -0.9636 -0.2674 -0.0000
vn -0.9636 -0.2674 -0.0000
vn -0.9636 -0.2674 -0.0000
vn -0.9636 -0.2674 -0.0000
vn -0.9636 -0.2674 -0.0000
vn -0.9636 -0.2674 -0.0000
vn -0.7521 0.6590 0.0000
vn -0.7521 0.6590 0.0000
vn -0.7521 0.6590 0.0000
vn -0.7521 0.6590 0.0000
vn -0.7521 0.6590 0.0000
vn -0.7521 0.6590 0.0000
vn -0.3917 -0.9201 -0.0000
vn -0.3917 -0.9201 -0.0000
vn -0.3917 -0.9201 -0.0000
vn -0.3917 -0.9201 -0.0000
vn -0.3917 -0.9201 -0.0000
vn -0.3917 -0.9201 -0.0000
vn -0.9842 -0.1771 -0.0000
vn -0.9842 -0.1771 -0.0000
vn -0.9842 -0.1771 -0.0000
vn -0.9842 -0.1771 -0.0000
vn -0.9842 -0.1771 -0.0000
vn -0.9842 -0.1771 -0.0000
vn 0.4752 -0.8799 -0.0000
vn 0.4752 -0.8799 -0.0000
vn 0.4752 -0.8799 -0.0000
vn 0.4752 -0.8799 -0.0000
vn 0.4752 -0.8799 -0.0000
vn 0.4752 -0.8799 -0.0000
vn -0.4752 -0.8799 -0.0000
vn -0.4752 -0.8799 -0.0000
vn -0.4752 -0.8799 -0.0000
vn -0.4752 -0.8799 -0.0000
vn -0.4752 -0.8799 -0.0000
vn -0.4752 -0.8799 -0.0000
vn 0.9842 -0.1771 -0.0000
vn 0.9842 -0.1771 -0.0000
vn 0.9842 -0.1771 -0.0000
vn 0.9842 -0.1771 -0.0000
vn 0.9842 -0.1771 -0.0000
vn 0.9842 -0.1771 -0.0000
# 156 vertex normals

vt 0.1498 0.6847 0.0000
vt 0.1666 0.5913 0.0000
vt 0.2500 0.6364 0.0000
vt 0.3334 0.5913 0.0000
vt 0.3502 0.6847 0.0000
vt 0.4375 0.7218 0.0000
vt 0.3750 0.7932 0.0000
vt 0.4004 0.8845 0.0000
vt 0.3056 0.8801 0.0000
vt 0.2500 0.9569 0.0000
vt 0.1944 0.8801 0.0000
vt 0.0996 0.8845 0.0000
vt 0.1250 0.7932 0.0000
vt 0.0625 0.7218 0.0000
vt 0.8907 0.5354 0.0000
vt 0.8176 0.5354 0.0000
vt 0.8176 0.5104 0.0000
vt 0.8907 0.5104 0.0000
vt 0.9466 0.5354 0.0000
vt 0.9466 0.5104 0.0000
vt 0.0341 0.5354 0.0000
vt 0.0341 0.5104 0.0000
vt 0.1064 0.5354 0.0000
vt 0.1064 0.5104 0.0000
vt 0.2000 0.5354 0.0000
vt 0.2000 0.5104 0.0000
vt 0.2936 0.5354 0.0000
vt 0.2936 0.5104 0.0000
vt 0.3659 0.5354 0.0000
vt 0.3659 0.5104 0.0000
vt 0.4534 0.5354 0.0000
vt 0.4534 0.5104 0.0000
vt 0.5093 0.5354 0.0000
vt 0.5093 0.5104 0.0000
vt 0.5824 0.5354 0.0000
vt 0.5824 0.5104 0.0000
vt 0.6378 0.5354 0.0000
vt 0.6378 0.5104 0.0000
vt 0.7000 0.5354 0.0000
vt 0.7000 0.5104 0.0000
vt 0.7622 0.5354 0.0000
vt 0.7622 0.5104 0.0000
vt 1.0341 0.5354 0.0000
vt 1.0341 0.5104 0.0000
vt 0.7500 0.6364 0.0000
vt 0.6666 0.5913 0.0000
vt 0.6498 0.6847 0.0000
vt 0.5625 0.7218 0.0000
vt 0.6250 0.7932 0.0000
vt 0.5996 0.8845 0.0000
vt 0.6944 0.8801 0.0000
vt 0.7500 0.9569 0.0000
vt 0.8056 0.8801 0.0000
vt 0.9004 0.8845 0.0000
vt 0.8750 0.7932 0.0000
vt 0.9375 0.7218 0.0000
vt 0.8502 0.6847 0.0000
vt 0.8334 0.5913 0.0000
# 58 texture coords

g Star
usemtl wire_087225087
f 39/1/1 41/2/2 43/3/3 
f 43/3/4 45/4/5 47/5/6 
f 47/5/7 49/6/8 51/7/9 
f 43/3/10 47/5/11 51/7/12 
f 39/1/13 43/3/14 51/7/15 
f 51/7/16 53/8/17 14/9/18 
f 14/9/19 1/10/20 31/11/21 
f 51/7/22 14/9/23 31/11/24 
f 31/11/25 33/12/26 35/13/27 
f 51/7/28 31/11/29 35/13/30 
f 39/1/31 51/7/32 35/13/33 
f 39/1/34 35/13/35 37/14/36 
f 69/45/37 67/46/38 65/47/39 
f 65/47/40 63/48/41 61/49/42 
f 61/49/43 59/50/44 57/51/45 
f 57/51/46 15/52/47 81/53/48 
f 81/53/49 79/54/50 77/55/51 
f 57/51/52 81/53/53 77/55/54 
f 61/49/55 57/51/56 77/55/57 
f 65/47/58 61/49/59 77/55/60 
f 69/45/61 65/47/62 77/55/63 
f 77/55/64 75/56/65 73/57/66 
f 69/45/67 77/55/68 73/57/69 
f 69/45/70 73/57/71 71/58/72 
f 74/17/73 25/18/74 11/15/75 
f 11/15/76 46/16/77 74/17/78 
f 76/18/79 26/20/80 12/19/81 
f 12/19/82 48/15/83 76/18/84 
f 78/20/85 27/44/86 13/43/87 
f 13/43/88 50/19/89 78/20/90 
f 80/22/91 28/24/92 54/23/93 
f 54/23/94 52/21/95 80/22/96 
f 82/24/97 56/26/98 29/25/99 
f 29/25/100 55/23/101 82/24/102 
f 56/26/103 16/28/104 2/27/105 
f 2/27/106 29/25/107 56/26/108 
f 58/28/109 17/30/110 3/29/111 
f 3/29/112 30/27/113 58/28/114 
f 60/30/115 18/32/116 4/31/117 
f 4/31/118 32/29/119 60/30/120 
f 62/32/121 19/34/122 5/33/123 
f 5/33/124 34/31/125 62/32/126 
f 64/34/127 20/36/128 6/35/129 
f 6/35/130 36/33/131 64/34/132 
f 66/36/133 21/38/134 7/37/135 
f 7/37/136 38/35/137 66/36/138 
f 68/38/139 22/40/140 8/39/141 
f 8/39/142 40/37/143 68/38/144 
f 70/40/145 23/42/146 9/41/147 
f 9/41/148 42/39/149 70/40/150 
f 72/42/151 24/17/152 10/16/153 
f 10/16/154 44/41/155 72/42/156 
# 52 faces

#
# object Star_BASE
#

v  0.3750 -0.0313 -0.0000
v  0.3465 -0.0313 -0.1435
v  0.2652 -0.0313 -0.2652
v  0.1435 -0.0313 -0.3465
v  -0.0000 -0.0313 -0.3750
v  -0.1435 -0.0313 -0.3465
v  -0.2652 -0.0313 -0.2652
v  -0.3465 -0.0313 -0.1435
v  -0.3750 -0.0313 -0.0000
v  -0.3465 -0.0313 0.1435
v  -0.2652 -0.0313 0.2652
v  -0.1435 -0.0313 0.3465
v  0.0000 -0.0313 0.3750
v  0.1435 -0.0313 0.3465
v  0.2652 -0.0313 0.2652
v  0.3465 -0.0313 0.1435
v  0.3750 0.0313 -0.0000
v  0.3465 0.0313 -0.1435
v  0.2652 0.0313 -0.2652
v  0.1435 0.0313 -0.3465
v  -0.0000 0.0313 -0.3750
v  -0.1435 0.0313 -0.3465
v  -0.2652 0.0313 -0.2652
v  -0.3465 0.0313 -0.1435
v  -0.3750 0.0313 -0.0000
v  -0.3465 0.0313 0.1435
v  -0.2652 0.0313 0.2652
v  -0.1435 0.0313 0.3465
v  0.0000 0.0313 0.3750
v  0.1435 0.0313 0.3465
v  0.2652 0.0313 0.2652
v  0.3465 0.0313 0.1435
v  0.3750 -0.0313 -0.0000
v  0.3465 -0.0313 -0.1435
v  0.2652 -0.0313 -0.2652
v  0.1435 -0.0313 -0.3465
v  -0.0000 -0.0313 -0.3750
v  -0.1435 -0.0313 -0.3465
v  -0.2652 -0.0313 -0.2652
v  -0.3465 -0.0313 -0.1435
v  -0.3750 -0.0313 -0.0000
v  -0.3465 -0.0313 0.1435
v  -0.2652 -0.0313 0.2652
v  -0.1435 -0.0313 0.3465
v  0.0000 -0.0313 0.3750
v  0.1435 -0.0313 0.3465
v  0.2652 -0.0313 0.2652
v  0.3465 -0.0313 0.1435
v  0.3750 0.0313 -0.0000
v  0.3465 0.0313 -0.1435
v  0.2652 0.0313 -0.2652
v  0.1435 0.0313 -0.3465
v  -0.0000 0.0313 -0.3750
v  -0.1435 0.0313 -0.3465
v  -0.2652 0.0313 -0.2652
v  -0.3465 0.0313 -0.1435
v  -0.3750 0.0313 -0.0000
v  -0.3465 0.0313 0.1435
v  -0.2652 0.0313 0.2652
v  -0.1435 0.0313 0.3465
v  0.0000 0.0313 0.3750
v  0.1435 0.0313 0.3465
v  0.2652 0.0313 0.2652
v  0.3465 0.0313 0.1435
# 64 vertices

vn 1.0000 0.0000 -0.0000
vn 0.9239 0.0000 -0.3827
vn 0.9239 0.0000 -0.3827
vn 0.9239 0.0000 -0.3827
vn 1.0000 0.0000 -0.0000
vn 1.0000 0.0000 -0.0000
vn 0.9239 0.0000 -0.3827
vn 0.7071 0.0000 -0.7071
vn 0.7071 0.0000 -0.7071
vn 0.7071 0.0000 -0.7071
vn 0.9239 0.0000 -0.3827
vn 0.9239 0.0000 -0.3827
vn 0.7071 0.0000 -0.7071
vn 0.3827 0.0000 -0.9239
vn 0.3827 0.0000 -0.9239
vn 0.3827 0.0000 -0.9239
vn 0.7071 0.0000 -0.7071
vn 0.7071 0.0000 -0.7071
vn 0.3827 0.0000 -0.9239
vn 0.0000 0.0000 -1.0000
vn 0.0000 0.0000 -1.0000
vn 0.0000 0.0000 -1.0000
vn 0.3827 0.0000 -0.9239
vn 0.3827 0.0000 -0.9239
vn 0.0000 0.0000 -1.0000
vn -0.3827 0.0000 -0.9239
vn -0.3827 0.0000 -0.9239
vn -0.3827 0.0000 -0.9239
vn 0.0000 0.0000 -1.0000
vn 0.0000 0.0000 -1.0000
vn -0.3827 0.0000 -0.9239
vn -0.7071 0.0000 -0.7071
vn -0.7071 0.0000 -0.7071
vn -0.7071 0.0000 -0.7071
vn -0.3827 0.0000 -0.9239
vn -0.3827 0.0000 -0.9239
vn -0.7071 0.0000 -0.7071
vn -0.9239 0.0000 -0.3827
vn -0.9239 0.0000 -0.3827
vn -0.9239 0.0000 -0.3827
vn -0.7071 0.0000 -0.7071
vn -0.7071 0.0000 -0.7071
vn -0.9239 0.0000 -0.3827
vn -1.0000 0.0000 -0.0000
vn -1.0000 0.0000 -0.0000
vn -1.0000 0.0000 -0.0000
vn -0.9239 0.0000 -0.3827
vn -0.9239 0.0000 -0.3827
vn -1.0000 0.0000 -0.0000
vn -0.9239 0.0000 0.3827
vn -0.9239 0.0000 0.3827
vn -0.9239 0.0000 0.3827
vn -1.0000 0.0000 -0.0000
vn -1.0000 0.0000 -0.0000
vn -0.9239 0.0000 0.3827
vn -0.7071 0.0000 0.7071
vn -0.7071 0.0000 0.7071
vn -0.7071 0.0000 0.7071
vn -0.9239 0.0000 0.3827
vn -0.9239 0.0000 0.3827
vn -0.7071 0.0000 0.7071
vn -0.3827 0.0000 0.9239
vn -0.3827 0.0000 0.9239
vn -0.3827 0.0000 0.9239
vn -0.7071 0.0000 0.7071
vn -0.7071 0.0000 0.7071
vn -0.3827 0.0000 0.9239
vn 0.0000 0.0000 1.0000
vn 0.0000 0.0000 1.0000
vn 0.0000 0.0000 1.0000
vn -0.3827 0.0000 0.9239
vn -0.3827 0.0000 0.9239
vn 0.0000 0.0000 1.0000
vn 0.3827 0.0000 0.9239
vn 0.3827 0.0000 0.9239
vn 0.3827 0.0000 0.9239
vn 0.0000 0.0000 1.0000
vn 0.0000 0.0000 1.0000
vn 0.3827 0.0000 0.9239
vn 0.7071 0.0000 0.7071
vn 0.7071 0.0000 0.7071
vn 0.7071 0.0000 0.7071
vn 0.3827 0.0000 0.9239
vn 0.3827 0.0000 0.9239
vn 0.7071 0.0000 0.7071
vn 0.9239 0.0000 0.3827
vn 0.9239 0.0000 0.3827
vn 0.9239 0.0000 0.3827
vn 0.7071 0.0000 0.7071
vn 0.7071 0.0000 0.7071
vn 0.9239 0.0000 0.3827
vn 1.0000 0.0000 -0.0000
vn 1.0000 0.0000 -0.0000
vn 1.0000 0.0000 -0.0000
vn 0.9239 0.0000 0.3827
vn 0.9239 0.0000 0.3827
vn 0.0000 -1.0000 -0.0000
vn 0.0000 -1.0000 -0.0000
vn 0.0000 -1.0000 -0.0000
vn 0.0000 -1.0000 -0.0000
vn 0.0000 -1.0000 -0.0000
vn 0.0000 -1.0000 -0.0000
vn 0.0000 -1.0000 -0.0000
vn 0.0000 -1.0000 -0.0000
vn 0.0000 -1.0000 -0.0000
vn 0.0000 -1.0000 -0.0000
vn 0.0000 -1.0000 -0.0000
vn 0.0000 -1.0000 -0.0000
vn 0.0000 -1.0000 -0.0000
vn 0.0000 -1.0000 -0.0000
vn 0.0000 -1.0000 -0.0000
vn 0.0000 -1.0000 -0.0000
vn 0.0000 -1.0000 -0.0000
vn 0.0000 -1.0000 -0.0000
vn 0.0000 -1.0000 -0.0000
vn 0.0000 -1.0000 -0.0000
vn 0.0000 -1.0000 -0.0000
vn 0.0000 -1.0000 -0.0000
vn 0.0000 -1.0000 -0.0000
vn 0.0000 -1.0000 -0.0000
vn 0.0000 -1.0000 -0.0000
vn 0.0000 -1.0000 -0.0000
vn 0.0000 -1.0000 -0.0000
vn 0.0000 -1.0000 -0.0000
vn 0.0000 -1.0000 -0.0000
vn 0.0000 -1.0000 -0.0000
vn 0.0000 -1.0000 -0.0000
vn 0.0000 -1.0000 -0.0000
vn 0.0000 -1.0000 -0.0000
vn 0.0000 -1.0000 -0.0000
vn 0.0000 -1.0000 -0.0000
vn 0.0000 -1.0000 -0.0000
vn 0.0000 -1.0000 -0.0000
vn 0.0000 -1.0000 -0.0000
vn 0.0000 -1.0000 -0.0000
vn 0.0000 -1.0000 -0.0000
vn 0.0000 -1.0000 -0.0000
vn 0.0000 -1.0000 -0.0000
vn 0.0000 1.0000 -0.0000
vn 0.0000 1.0000 -0.0000
vn 0.0000 1.0000 -0.0000
vn 0.0000 1.0000 -0.0000
vn 0.0000 1.0000 -0.0000
vn 0.0000 1.0000 -0.0000
vn 0.0000 1.0000 -0.0000
vn 0.0000 1.0000 -0.0000
vn 0.0000 1.0000 -0.0000
vn 0.0000 1.0000 -0.0000
vn 0.0000 1.0000 -0.0000
vn 0.0000 1.0000 -0.0000
vn 0.0000 1.0000 -0.0000
vn 0.0000 1.0000 -0.0000
vn 0.0000 1.0000 -0.0000
vn 0.0000 1.0000 -0.0000
vn 0.0000 1.0000 -0.0000
vn 0.0000 1.0000 -0.0000
vn 0.0000 1.0000 -0.0000
vn 0.0000 1.0000 -0.0000
vn 0.0000 1.0000 -0.0000
vn 0.0000 1.0000 -0.0000
vn 0.0000 1.0000 -0.0000
vn 0.0000 1.0000 -0.0000
vn 0.0000 1.0000 -0.0000
vn 0.0000 1.0000 -0.0000
vn 0.0000 1.0000 -0.0000
vn 0.0000 1.0000 -0.0000
vn 0.0000 1.0000 -0.0000
vn 0.0000 1.0000 -0.0000
vn 0.0000 1.0000 -0.0000
vn 0.0000 1.0000 -0.0000
vn 0.0000 1.0000 -0.0000
vn 0.0000 1.0000 -0.0000
vn 0.0000 1.0000 -0.0000
vn 0.0000 1.0000 -0.0000
vn 0.0000 1.0000 -0.0000
vn 0.0000 1.0000 -0.0000
vn 0.0000 1.0000 -0.0000
vn 0.0000 1.0000 -0.0000
vn 0.0000 1.0000 -0.0000
vn 0.0000 1.0000 -0.0000
# 180 vertex normals

vt 0.9375 0.2500 0.0000
vt 0.9232 0.3218 0.0000
vt 0.7500 0.0180 0.0000
vt 0.8125 0.0180 0.0000
vt 0.8826 0.3826 0.0000
vt 0.8125 0.0445 0.0000
vt 0.8218 0.4232 0.0000
vt 0.7500 0.0445 0.0000
vt 0.7500 0.4375 0.0000
vt 0.8750 0.0180 0.0000
vt 0.6782 0.4232 0.0000
vt 0.8750 0.0445 0.0000
vt 0.6174 0.3826 0.0000
vt 0.9375 0.0180 0.0000
vt 0.5768 0.3218 0.0000
vt 0.9375 0.0445 0.0000
vt 0.5625 0.2500 0.0000
vt 0.0000 0.0180 0.0000
vt 0.5768 0.1782 0.0000
vt 0.0000 0.0445 0.0000
vt 0.6174 0.1174 0.0000
vt 0.0625 0.0180 0.0000
vt 0.6782 0.0768 0.0000
vt 0.0625 0.0445 0.0000
vt 0.7500 0.0625 0.0000
vt 0.1250 0.0180 0.0000
vt 0.8218 0.0768 0.0000
vt 0.1250 0.0445 0.0000
vt 0.8826 0.1174 0.0000
vt 0.1875 0.0180 0.0000
vt 0.9232 0.1782 0.0000
vt 0.1875 0.0445 0.0000
vt 0.4232 0.3218 0.0000
vt 0.4375 0.2500 0.0000
vt 0.3826 0.3826 0.0000
vt 0.3218 0.4232 0.0000
vt 0.2500 0.4375 0.0000
vt 0.1782 0.4232 0.0000
vt 0.1174 0.3826 0.0000
vt 0.0768 0.3218 0.0000
vt 0.0625 0.2500 0.0000
vt 0.0768 0.1782 0.0000
vt 0.1174 0.1174 0.0000
vt 0.1782 0.0768 0.0000
vt 0.2500 0.0625 0.0000
vt 0.3218 0.0768 0.0000
vt 0.3826 0.1174 0.0000
vt 0.4232 0.1782 0.0000
vt 0.2500 0.0180 0.0000
vt 0.2500 0.0445 0.0000
vt 0.3125 0.0180 0.0000
vt 0.3125 0.0445 0.0000
vt 0.3750 0.0180 0.0000
vt 0.3750 0.0445 0.0000
vt 0.4375 0.0180 0.0000
vt 0.4375 0.0445 0.0000
vt 0.5000 0.0180 0.0000
vt 0.5000 0.0445 0.0000
vt 0.5625 0.0180 0.0000
vt 0.5625 0.0445 0.0000
vt 0.6250 0.0180 0.0000
vt 0.6250 0.0445 0.0000
vt 0.6875 0.0180 0.0000
vt 0.6875 0.0445 0.0000
vt 1.0000 0.0180 0.0000
vt 1.0000 0.0445 0.0000
# 66 texture coords

g Star_BASE
usemtl wire_176026026
f 83/61/157 116/62/158 132/64/159 
f 132/64/160 131/66/161 83/61/162 
f 116/62/163 117/68/164 133/70/165 
f 133/70/166 132/64/167 116/62/168 
f 117/68/169 118/72/170 134/74/171 
f 134/74/172 133/70/173 117/68/174 
f 118/72/175 119/123/176 135/124/177 
f 135/124/178 134/74/179 118/72/180 
f 119/76/181 120/80/182 136/82/183 
f 136/82/184 135/78/185 119/76/186 
f 120/80/187 121/84/188 137/86/189 
f 137/86/190 136/82/191 120/80/192 
f 121/84/193 122/88/194 138/90/195 
f 138/90/196 137/86/197 121/84/198 
f 122/88/199 123/107/200 139/108/201 
f 139/108/202 138/90/203 122/88/204 
f 123/107/205 124/109/206 140/110/207 
f 140/110/208 139/108/209 123/107/210 
f 124/109/211 125/111/212 141/112/213 
f 141/112/214 140/110/215 124/109/216 
f 125/111/217 126/113/218 142/114/219 
f 142/114/220 141/112/221 125/111/222 
f 126/113/223 127/115/224 143/116/225 
f 143/116/226 142/114/227 126/113/228 
f 127/115/229 128/117/230 144/118/231 
f 144/118/232 143/116/233 127/115/234 
f 128/117/235 129/119/236 145/120/237 
f 145/120/238 144/118/239 128/117/240 
f 129/119/241 98/121/242 146/122/243 
f 146/122/244 145/120/245 129/119/246 
f 98/121/247 83/61/248 131/66/249 
f 131/66/250 146/122/251 98/121/252 
f 97/87/253 96/85/254 95/83/255 
f 95/83/256 94/81/257 93/79/258 
f 93/79/259 92/77/260 91/75/261 
f 95/83/262 93/79/263 91/75/264 
f 91/75/265 90/73/266 89/71/267 
f 89/71/268 88/69/269 87/67/270 
f 91/75/271 89/71/272 87/67/273 
f 87/67/274 86/65/275 85/63/276 
f 85/63/277 84/60/278 115/59/279 
f 87/67/280 85/63/281 115/59/282 
f 91/75/283 87/67/284 115/59/285 
f 95/83/286 91/75/287 115/59/288 
f 97/87/289 95/83/290 115/59/291 
f 130/89/292 97/87/293 115/59/294 
f 100/91/295 101/93/296 102/94/297 
f 102/94/298 103/95/299 104/96/300 
f 104/96/301 105/97/302 106/98/303 
f 102/94/304 104/96/305 106/98/306 
f 106/98/307 107/99/308 108/100/309 
f 108/100/310 109/101/311 110/102/312 
f 106/98/313 108/100/314 110/102/315 
f 110/102/316 111/103/317 112/104/318 
f 112/104/319 113/105/320 114/106/321 
f 110/102/322 112/104/323 114/106/324 
f 106/98/325 110/102/326 114/106/327 
f 102/94/328 106/98/329 114/106/330 
f 100/91/331 102/94/332 114/106/333 
f 99/92/334 100/91/335 114/106/336 
# 60 faces

