# 3ds Max Wavefront OBJ Exporter v0.97b - (c)2007 guruware
# File Created: 11.03.2017 12:49:23

mtllib TruncRectH_MSH.mtl

#
# object TruncRectH
#

v  -0.5000 0.1891 0.0313
v  -0.5000 -0.1891 0.0312
v  -0.3691 -0.3200 0.0312
v  0.3691 -0.3200 0.0312
v  0.5000 -0.1891 0.0312
v  0.5000 0.1891 0.0313
v  0.3691 0.3200 0.0313
v  -0.3691 0.3200 0.0313
v  -0.5000 0.1891 -0.0312
v  -0.5000 -0.1891 -0.0313
v  -0.3691 -0.3200 -0.0313
v  0.3691 -0.3200 -0.0313
v  0.5000 -0.1891 -0.0313
v  0.5000 0.1891 -0.0312
v  0.3691 0.3200 -0.0312
v  -0.3691 0.3200 -0.0312
v  -0.5000 0.1891 0.0313
v  -0.5000 0.1891 0.0313
v  -0.5000 -0.1891 0.0312
v  -0.5000 -0.1891 0.0312
v  -0.3691 -0.3200 0.0312
v  0.3691 -0.3200 0.0312
v  0.5000 -0.1891 0.0312
v  0.5000 -0.1891 0.0312
v  0.5000 0.1891 0.0313
v  0.5000 0.1891 0.0313
v  0.3691 0.3200 0.0313
v  -0.3691 0.3200 0.0313
v  -0.5000 0.1891 -0.0312
v  -0.5000 0.1891 -0.0312
v  -0.5000 -0.1891 -0.0313
v  -0.5000 -0.1891 -0.0313
v  -0.3691 -0.3200 -0.0313
v  0.3691 -0.3200 -0.0313
v  0.5000 -0.1891 -0.0313
v  0.5000 -0.1891 -0.0313
v  0.5000 0.1891 -0.0312
v  0.5000 0.1891 -0.0312
v  0.3691 0.3200 -0.0312
v  -0.3691 0.3200 -0.0312
# 40 vertices

vn -0.0000 -0.0000 1.0000
vn 0.0000 -0.0000 1.0000
vn -0.0000 -0.0000 1.0000
vn 0.0000 -0.0000 1.0000
vn -0.0000 -0.0000 1.0000
vn -0.0000 -0.0000 1.0000
vn 0.0000 -0.0000 1.0000
vn -0.0000 -0.0000 1.0000
vn -0.0000 -0.0000 1.0000
vn 0.0000 -0.0000 1.0000
vn 0.0000 -0.0000 1.0000
vn -0.0000 -0.0000 1.0000
vn -0.0000 -0.0000 1.0000
vn 0.0000 -0.0000 1.0000
vn -0.0000 -0.0000 1.0000
vn -0.0000 -0.0000 1.0000
vn -0.0000 -0.0000 1.0000
vn -0.0000 -0.0000 1.0000
vn 0.0000 0.0000 -1.0000
vn 0.0000 0.0000 -1.0000
vn 0.0000 0.0000 -1.0000
vn 0.0000 0.0000 -1.0000
vn 0.0000 0.0000 -1.0000
vn 0.0000 0.0000 -1.0000
vn 0.0000 0.0000 -1.0000
vn 0.0000 0.0000 -1.0000
vn 0.0000 0.0000 -1.0000
vn 0.0000 0.0000 -1.0000
vn 0.0000 0.0000 -1.0000
vn 0.0000 0.0000 -1.0000
vn 0.0000 0.0000 -1.0000
vn 0.0000 0.0000 -1.0000
vn 0.0000 0.0000 -1.0000
vn 0.0000 0.0000 -1.0000
vn 0.0000 0.0000 -1.0000
vn 0.0000 0.0000 -1.0000
vn 1.0000 0.0000 -0.0000
vn 1.0000 0.0000 -0.0000
vn 1.0000 0.0000 -0.0000
vn 1.0000 0.0000 -0.0000
vn 1.0000 0.0000 -0.0000
vn 1.0000 0.0000 -0.0000
vn 0.7071 0.7071 0.0000
vn 0.3827 0.9239 0.0000
vn 0.3827 0.9239 0.0000
vn 0.3827 0.9239 0.0000
vn 0.7071 0.7071 0.0000
vn 0.7071 0.7071 0.0000
vn 0.3827 0.9239 0.0000
vn -0.3827 0.9239 0.0000
vn -0.3827 0.9239 0.0000
vn -0.3827 0.9239 0.0000
vn 0.3827 0.9239 0.0000
vn 0.3827 0.9239 0.0000
vn -1.0000 0.0000 -0.0000
vn -1.0000 0.0000 -0.0000
vn -1.0000 0.0000 -0.0000
vn -1.0000 0.0000 -0.0000
vn -1.0000 0.0000 -0.0000
vn -1.0000 0.0000 -0.0000
vn -0.7071 -0.7071 -0.0000
vn -0.3827 -0.9239 -0.0000
vn -0.3827 -0.9239 -0.0000
vn -0.3827 -0.9239 -0.0000
vn -0.7071 -0.7071 -0.0000
vn -0.7071 -0.7071 -0.0000
vn -0.3827 0.9239 0.0000
vn -0.7071 0.7071 0.0000
vn -0.7071 0.7071 0.0000
vn -0.7071 0.7071 0.0000
vn -0.3827 0.9239 0.0000
vn -0.3827 0.9239 0.0000
vn -0.3827 -0.9239 -0.0000
vn 0.3827 -0.9239 -0.0000
vn 0.3827 -0.9239 -0.0000
vn 0.3827 -0.9239 -0.0000
vn -0.3827 -0.9239 -0.0000
vn -0.3827 -0.9239 -0.0000
vn 0.3827 -0.9239 -0.0000
vn 0.7071 -0.7071 -0.0000
vn 0.7071 -0.7071 -0.0000
vn 0.7071 -0.7071 -0.0000
vn 0.3827 -0.9239 -0.0000
vn 0.3827 -0.9239 -0.0000
# 84 vertex normals

vt 0.0625 0.8356 0.0000
vt 0.0625 0.6937 0.0000
vt 0.1116 0.6446 0.0000
vt 0.3884 0.6446 0.0000
vt 0.4375 0.6937 0.0000
vt 0.4375 0.8356 0.0000
vt 0.3884 0.8846 0.0000
vt 0.1116 0.8846 0.0000
vt -0.0171 0.5354 0.0000
vt 0.8713 0.5354 0.0000
vt 0.8713 0.5104 0.0000
vt -0.0171 0.5104 0.0000
vt 0.0400 0.5354 0.0000
vt 0.0400 0.5104 0.0000
vt 0.3600 0.5354 0.0000
vt 0.3600 0.5104 0.0000
vt 0.5287 0.5354 0.0000
vt 0.4171 0.5354 0.0000
vt 0.4171 0.5104 0.0000
vt 0.5287 0.5104 0.0000
vt 0.5812 0.5354 0.0000
vt 0.5812 0.5104 0.0000
vt 0.8188 0.5354 0.0000
vt 0.8188 0.5104 0.0000
vt 0.9829 0.5354 0.0000
vt 0.9829 0.5104 0.0000
vt 0.6116 0.6446 0.0000
vt 0.5625 0.6937 0.0000
vt 0.5625 0.8356 0.0000
vt 0.6116 0.8846 0.0000
vt 0.8884 0.8846 0.0000
vt 0.9375 0.8356 0.0000
vt 0.9375 0.6937 0.0000
vt 0.8884 0.6446 0.0000
# 34 texture coords

g TruncRectH
usemtl wire_224086086
f 1/1/1 20/2/2 21/3/3 
f 24/5/4 26/6/5 27/7/6 
f 24/5/7 27/7/8 8/8/9 
f 22/4/10 24/5/11 8/8/12 
f 21/3/13 22/4/14 8/8/15 
f 1/1/16 21/3/17 8/8/18 
f 11/27/19 31/28/20 29/29/21 
f 11/27/22 29/29/23 16/30/24 
f 15/31/25 37/32/26 35/33/27 
f 16/30/28 15/31/29 35/33/30 
f 16/30/31 35/33/32 12/34/33 
f 11/27/34 16/30/35 12/34/36 
f 36/11/37 14/26/38 6/25/39 
f 6/25/40 23/10/41 36/11/42 
f 38/12/43 39/14/44 7/13/45 
f 7/13/46 25/9/47 38/12/48 
f 39/14/49 40/16/50 28/15/51 
f 28/15/52 7/13/53 39/14/54 
f 30/19/55 10/20/56 2/17/57 
f 2/17/58 18/18/59 30/19/60 
f 32/20/61 33/22/62 3/21/63 
f 3/21/64 19/17/65 32/20/66 
f 40/16/67 9/19/68 17/18/69 
f 17/18/70 28/15/71 40/16/72 
f 33/22/73 34/24/74 4/23/75 
f 4/23/76 3/21/77 33/22/78 
f 34/24/79 13/11/80 5/10/81 
f 5/10/82 4/23/83 34/24/84 
# 28 faces

#
# object TruncRectH_BASE
#

v  0.3750 -0.0313 -0.0000
v  0.3465 -0.0313 -0.1435
v  0.2652 -0.0313 -0.2652
v  0.1435 -0.0313 -0.3465
v  -0.0000 -0.0313 -0.3750
v  -0.1435 -0.0313 -0.3465
v  -0.2652 -0.0313 -0.2652
v  -0.3465 -0.0313 -0.1435
v  -0.3750 -0.0313 -0.0000
v  -0.3465 -0.0313 0.1435
v  -0.2652 -0.0313 0.2652
v  -0.1435 -0.0313 0.3465
v  0.0000 -0.0313 0.3750
v  0.1435 -0.0313 0.3465
v  0.2652 -0.0313 0.2652
v  0.3465 -0.0313 0.1435
v  0.3750 0.0313 -0.0000
v  0.3465 0.0313 -0.1435
v  0.2652 0.0313 -0.2652
v  0.1435 0.0313 -0.3465
v  -0.0000 0.0313 -0.3750
v  -0.1435 0.0313 -0.3465
v  -0.2652 0.0313 -0.2652
v  -0.3465 0.0313 -0.1435
v  -0.3750 0.0313 -0.0000
v  -0.3465 0.0313 0.1435
v  -0.2652 0.0313 0.2652
v  -0.1435 0.0313 0.3465
v  0.0000 0.0313 0.3750
v  0.1435 0.0313 0.3465
v  0.2652 0.0313 0.2652
v  0.3465 0.0313 0.1435
v  0.3750 -0.0313 -0.0000
v  0.3465 -0.0313 -0.1435
v  0.2652 -0.0313 -0.2652
v  0.1435 -0.0313 -0.3465
v  -0.0000 -0.0313 -0.3750
v  -0.1435 -0.0313 -0.3465
v  -0.2652 -0.0313 -0.2652
v  -0.3465 -0.0313 -0.1435
v  -0.3750 -0.0313 -0.0000
v  -0.3465 -0.0313 0.1435
v  -0.2652 -0.0313 0.2652
v  -0.1435 -0.0313 0.3465
v  0.0000 -0.0313 0.3750
v  0.1435 -0.0313 0.3465
v  0.2652 -0.0313 0.2652
v  0.3465 -0.0313 0.1435
v  0.3750 0.0313 -0.0000
v  0.3465 0.0313 -0.1435
v  0.2652 0.0313 -0.2652
v  0.1435 0.0313 -0.3465
v  -0.0000 0.0313 -0.3750
v  -0.1435 0.0313 -0.3465
v  -0.2652 0.0313 -0.2652
v  -0.3465 0.0313 -0.1435
v  -0.3750 0.0313 -0.0000
v  -0.3465 0.0313 0.1435
v  -0.2652 0.0313 0.2652
v  -0.1435 0.0313 0.3465
v  0.0000 0.0313 0.3750
v  0.1435 0.0313 0.3465
v  0.2652 0.0313 0.2652
v  0.3465 0.0313 0.1435
# 64 vertices

vn 1.0000 0.0000 -0.0000
vn 0.9239 0.0000 -0.3827
vn 0.9239 0.0000 -0.3827
vn 0.9239 0.0000 -0.3827
vn 1.0000 0.0000 -0.0000
vn 1.0000 0.0000 -0.0000
vn 0.9239 0.0000 -0.3827
vn 0.7071 0.0000 -0.7071
vn 0.7071 0.0000 -0.7071
vn 0.7071 0.0000 -0.7071
vn 0.9239 0.0000 -0.3827
vn 0.9239 0.0000 -0.3827
vn 0.7071 0.0000 -0.7071
vn 0.3827 0.0000 -0.9239
vn 0.3827 0.0000 -0.9239
vn 0.3827 0.0000 -0.9239
vn 0.7071 0.0000 -0.7071
vn 0.7071 0.0000 -0.7071
vn 0.3827 0.0000 -0.9239
vn 0.0000 0.0000 -1.0000
vn 0.0000 0.0000 -1.0000
vn 0.0000 0.0000 -1.0000
vn 0.3827 0.0000 -0.9239
vn 0.3827 0.0000 -0.9239
vn 0.0000 0.0000 -1.0000
vn -0.3827 0.0000 -0.9239
vn -0.3827 0.0000 -0.9239
vn -0.3827 0.0000 -0.9239
vn 0.0000 0.0000 -1.0000
vn 0.0000 0.0000 -1.0000
vn -0.3827 0.0000 -0.9239
vn -0.7071 0.0000 -0.7071
vn -0.7071 0.0000 -0.7071
vn -0.7071 0.0000 -0.7071
vn -0.3827 0.0000 -0.9239
vn -0.3827 0.0000 -0.9239
vn -0.7071 0.0000 -0.7071
vn -0.9239 0.0000 -0.3827
vn -0.9239 0.0000 -0.3827
vn -0.9239 0.0000 -0.3827
vn -0.7071 0.0000 -0.7071
vn -0.7071 0.0000 -0.7071
vn -0.9239 0.0000 -0.3827
vn -1.0000 0.0000 -0.0000
vn -1.0000 0.0000 -0.0000
vn -1.0000 0.0000 -0.0000
vn -0.9239 0.0000 -0.3827
vn -0.9239 0.0000 -0.3827
vn -1.0000 0.0000 -0.0000
vn -0.9239 0.0000 0.3827
vn -0.9239 0.0000 0.3827
vn -0.9239 0.0000 0.3827
vn -1.0000 0.0000 -0.0000
vn -1.0000 0.0000 -0.0000
vn -0.9239 0.0000 0.3827
vn -0.7071 0.0000 0.7071
vn -0.7071 0.0000 0.7071
vn -0.7071 0.0000 0.7071
vn -0.9239 0.0000 0.3827
vn -0.9239 0.0000 0.3827
vn -0.7071 0.0000 0.7071
vn -0.3827 0.0000 0.9239
vn -0.3827 0.0000 0.9239
vn -0.3827 0.0000 0.9239
vn -0.7071 0.0000 0.7071
vn -0.7071 0.0000 0.7071
vn -0.3827 0.0000 0.9239
vn 0.0000 0.0000 1.0000
vn 0.0000 0.0000 1.0000
vn 0.0000 0.0000 1.0000
vn -0.3827 0.0000 0.9239
vn -0.3827 0.0000 0.9239
vn 0.0000 0.0000 1.0000
vn 0.3827 0.0000 0.9239
vn 0.3827 0.0000 0.9239
vn 0.3827 0.0000 0.9239
vn 0.0000 0.0000 1.0000
vn 0.0000 0.0000 1.0000
vn 0.3827 0.0000 0.9239
vn 0.7071 0.0000 0.7071
vn 0.7071 0.0000 0.7071
vn 0.7071 0.0000 0.7071
vn 0.3827 0.0000 0.9239
vn 0.3827 0.0000 0.9239
vn 0.7071 0.0000 0.7071
vn 0.9239 0.0000 0.3827
vn 0.9239 0.0000 0.3827
vn 0.9239 0.0000 0.3827
vn 0.7071 0.0000 0.7071
vn 0.7071 0.0000 0.7071
vn 0.9239 0.0000 0.3827
vn 1.0000 0.0000 -0.0000
vn 1.0000 0.0000 -0.0000
vn 1.0000 0.0000 -0.0000
vn 0.9239 0.0000 0.3827
vn 0.9239 0.0000 0.3827
vn 0.0000 -1.0000 -0.0000
vn 0.0000 -1.0000 -0.0000
vn 0.0000 -1.0000 -0.0000
vn 0.0000 -1.0000 -0.0000
vn 0.0000 -1.0000 -0.0000
vn 0.0000 -1.0000 -0.0000
vn 0.0000 -1.0000 -0.0000
vn 0.0000 -1.0000 -0.0000
vn 0.0000 -1.0000 -0.0000
vn 0.0000 -1.0000 -0.0000
vn 0.0000 -1.0000 -0.0000
vn 0.0000 -1.0000 -0.0000
vn 0.0000 -1.0000 -0.0000
vn 0.0000 -1.0000 -0.0000
vn 0.0000 -1.0000 -0.0000
vn 0.0000 -1.0000 -0.0000
vn 0.0000 -1.0000 -0.0000
vn 0.0000 -1.0000 -0.0000
vn 0.0000 -1.0000 -0.0000
vn 0.0000 -1.0000 -0.0000
vn 0.0000 -1.0000 -0.0000
vn 0.0000 -1.0000 -0.0000
vn 0.0000 -1.0000 -0.0000
vn 0.0000 -1.0000 -0.0000
vn 0.0000 -1.0000 -0.0000
vn 0.0000 -1.0000 -0.0000
vn 0.0000 -1.0000 -0.0000
vn 0.0000 -1.0000 -0.0000
vn 0.0000 -1.0000 -0.0000
vn 0.0000 -1.0000 -0.0000
vn 0.0000 -1.0000 -0.0000
vn 0.0000 -1.0000 -0.0000
vn 0.0000 -1.0000 -0.0000
vn 0.0000 -1.0000 -0.0000
vn 0.0000 -1.0000 -0.0000
vn 0.0000 -1.0000 -0.0000
vn 0.0000 -1.0000 -0.0000
vn 0.0000 -1.0000 -0.0000
vn 0.0000 -1.0000 -0.0000
vn 0.0000 -1.0000 -0.0000
vn 0.0000 -1.0000 -0.0000
vn 0.0000 -1.0000 -0.0000
vn 0.0000 1.0000 -0.0000
vn 0.0000 1.0000 -0.0000
vn 0.0000 1.0000 -0.0000
vn 0.0000 1.0000 -0.0000
vn 0.0000 1.0000 -0.0000
vn 0.0000 1.0000 -0.0000
vn 0.0000 1.0000 -0.0000
vn 0.0000 1.0000 -0.0000
vn 0.0000 1.0000 -0.0000
vn 0.0000 1.0000 -0.0000
vn 0.0000 1.0000 -0.0000
vn 0.0000 1.0000 -0.0000
vn 0.0000 1.0000 -0.0000
vn 0.0000 1.0000 -0.0000
vn 0.0000 1.0000 -0.0000
vn 0.0000 1.0000 -0.0000
vn 0.0000 1.0000 -0.0000
vn 0.0000 1.0000 -0.0000
vn 0.0000 1.0000 -0.0000
vn 0.0000 1.0000 -0.0000
vn 0.0000 1.0000 -0.0000
vn 0.0000 1.0000 -0.0000
vn 0.0000 1.0000 -0.0000
vn 0.0000 1.0000 -0.0000
vn 0.0000 1.0000 -0.0000
vn 0.0000 1.0000 -0.0000
vn 0.0000 1.0000 -0.0000
vn 0.0000 1.0000 -0.0000
vn 0.0000 1.0000 -0.0000
vn 0.0000 1.0000 -0.0000
vn 0.0000 1.0000 -0.0000
vn 0.0000 1.0000 -0.0000
vn 0.0000 1.0000 -0.0000
vn 0.0000 1.0000 -0.0000
vn 0.0000 1.0000 -0.0000
vn 0.0000 1.0000 -0.0000
vn 0.0000 1.0000 -0.0000
vn 0.0000 1.0000 -0.0000
vn 0.0000 1.0000 -0.0000
vn 0.0000 1.0000 -0.0000
vn 0.0000 1.0000 -0.0000
vn 0.0000 1.0000 -0.0000
# 180 vertex normals

vt 0.9375 0.2500 0.0000
vt 0.9232 0.3218 0.0000
vt 0.7500 0.0180 0.0000
vt 0.8125 0.0180 0.0000
vt 0.8826 0.3826 0.0000
vt 0.8125 0.0445 0.0000
vt 0.8218 0.4232 0.0000
vt 0.7500 0.0445 0.0000
vt 0.7500 0.4375 0.0000
vt 0.8750 0.0180 0.0000
vt 0.6782 0.4232 0.0000
vt 0.8750 0.0445 0.0000
vt 0.6174 0.3826 0.0000
vt 0.9375 0.0180 0.0000
vt 0.5768 0.3218 0.0000
vt 0.9375 0.0445 0.0000
vt 0.5625 0.2500 0.0000
vt 0.0000 0.0180 0.0000
vt 0.5768 0.1782 0.0000
vt 0.0000 0.0445 0.0000
vt 0.6174 0.1174 0.0000
vt 0.0625 0.0180 0.0000
vt 0.6782 0.0768 0.0000
vt 0.0625 0.0445 0.0000
vt 0.7500 0.0625 0.0000
vt 0.1250 0.0180 0.0000
vt 0.8218 0.0768 0.0000
vt 0.1250 0.0445 0.0000
vt 0.8826 0.1174 0.0000
vt 0.1875 0.0180 0.0000
vt 0.9232 0.1782 0.0000
vt 0.1875 0.0445 0.0000
vt 0.4232 0.3218 0.0000
vt 0.4375 0.2500 0.0000
vt 0.3826 0.3826 0.0000
vt 0.3218 0.4232 0.0000
vt 0.2500 0.4375 0.0000
vt 0.1782 0.4232 0.0000
vt 0.1174 0.3826 0.0000
vt 0.0768 0.3218 0.0000
vt 0.0625 0.2500 0.0000
vt 0.0768 0.1782 0.0000
vt 0.1174 0.1174 0.0000
vt 0.1782 0.0768 0.0000
vt 0.2500 0.0625 0.0000
vt 0.3218 0.0768 0.0000
vt 0.3826 0.1174 0.0000
vt 0.4232 0.1782 0.0000
vt 0.2500 0.0180 0.0000
vt 0.2500 0.0445 0.0000
vt 0.3125 0.0180 0.0000
vt 0.3125 0.0445 0.0000
vt 0.3750 0.0180 0.0000
vt 0.3750 0.0445 0.0000
vt 0.4375 0.0180 0.0000
vt 0.4375 0.0445 0.0000
vt 0.5000 0.0180 0.0000
vt 0.5000 0.0445 0.0000
vt 0.5625 0.0180 0.0000
vt 0.5625 0.0445 0.0000
vt 0.6250 0.0180 0.0000
vt 0.6250 0.0445 0.0000
vt 0.6875 0.0180 0.0000
vt 0.6875 0.0445 0.0000
vt 1.0000 0.0180 0.0000
vt 1.0000 0.0445 0.0000
# 66 texture coords

g TruncRectH_BASE
usemtl wire_176026026
f 41/37/85 74/38/86 90/40/87 
f 90/40/88 89/42/89 41/37/90 
f 74/38/91 75/44/92 91/46/93 
f 91/46/94 90/40/95 74/38/96 
f 75/44/97 76/48/98 92/50/99 
f 92/50/100 91/46/101 75/44/102 
f 76/48/103 77/99/104 93/100/105 
f 93/100/106 92/50/107 76/48/108 
f 77/52/109 78/56/110 94/58/111 
f 94/58/112 93/54/113 77/52/114 
f 78/56/115 79/60/116 95/62/117 
f 95/62/118 94/58/119 78/56/120 
f 79/60/121 80/64/122 96/66/123 
f 96/66/124 95/62/125 79/60/126 
f 80/64/127 81/83/128 97/84/129 
f 97/84/130 96/66/131 80/64/132 
f 81/83/133 82/85/134 98/86/135 
f 98/86/136 97/84/137 81/83/138 
f 82/85/139 83/87/140 99/88/141 
f 99/88/142 98/86/143 82/85/144 
f 83/87/145 84/89/146 100/90/147 
f 100/90/148 99/88/149 83/87/150 
f 84/89/151 85/91/152 101/92/153 
f 101/92/154 100/90/155 84/89/156 
f 85/91/157 86/93/158 102/94/159 
f 102/94/160 101/92/161 85/91/162 
f 86/93/163 87/95/164 103/96/165 
f 103/96/166 102/94/167 86/93/168 
f 87/95/169 56/97/170 104/98/171 
f 104/98/172 103/96/173 87/95/174 
f 56/97/175 41/37/176 89/42/177 
f 89/42/178 104/98/179 56/97/180 
f 55/63/181 54/61/182 53/59/183 
f 53/59/184 52/57/185 51/55/186 
f 51/55/187 50/53/188 49/51/189 
f 53/59/190 51/55/191 49/51/192 
f 49/51/193 48/49/194 47/47/195 
f 47/47/196 46/45/197 45/43/198 
f 49/51/199 47/47/200 45/43/201 
f 45/43/202 44/41/203 43/39/204 
f 43/39/205 42/36/206 73/35/207 
f 45/43/208 43/39/209 73/35/210 
f 49/51/211 45/43/212 73/35/213 
f 53/59/214 49/51/215 73/35/216 
f 55/63/217 53/59/218 73/35/219 
f 88/65/220 55/63/221 73/35/222 
f 58/67/223 59/69/224 60/70/225 
f 60/70/226 61/71/227 62/72/228 
f 62/72/229 63/73/230 64/74/231 
f 60/70/232 62/72/233 64/74/234 
f 64/74/235 65/75/236 66/76/237 
f 66/76/238 67/77/239 68/78/240 
f 64/74/241 66/76/242 68/78/243 
f 68/78/244 69/79/245 70/80/246 
f 70/80/247 71/81/248 72/82/249 
f 68/78/250 70/80/251 72/82/252 
f 64/74/253 68/78/254 72/82/255 
f 60/70/256 64/74/257 72/82/258 
f 58/67/259 60/70/260 72/82/261 
f 57/68/262 58/67/263 72/82/264 
# 60 faces

