# 3ds Max Wavefront OBJ Exporter v0.97b - (c)2007 guruware
# File Created: 14.03.2017 23:14:41

mtllib banner_MSH.mtl

#
# object Banner
#

v  -13.0000 0.2500 2.5000
v  13.0000 0.2500 2.5000
v  -13.0000 -0.2500 2.5000
v  13.0000 -0.2500 2.5000
v  -13.0000 0.2500 2.5000
v  -13.0000 0.2500 2.5000
v  13.0000 0.2500 2.5000
v  13.0000 0.2500 2.5000
v  -13.0000 -0.2500 2.5000
v  -13.0000 -0.2500 2.5000
v  13.0000 -0.2500 2.5000
v  13.0000 -0.2500 2.5000
v  13.0000 0.2500 -2.5000
v  -13.0000 0.2500 -2.5000
v  -13.0000 -0.2500 -2.5000
v  13.0000 -0.2500 -2.5000
v  13.0000 -0.2500 -2.5000
v  -13.0000 -0.2500 -2.5000
v  13.0000 -0.2500 -2.5000
v  13.0000 0.2500 -2.5000
v  -13.0000 -0.2500 -2.5000
v  -13.0000 0.2500 -2.5000
v  -12.5000 -17.5000 -2.6250
v  -12.5000 -35.0000 -2.6250
v  -0.0000 -35.0000 -2.6250
v  -0.0000 -17.5000 -2.6250
v  12.5000 -35.0000 -2.6250
v  12.5000 -17.5000 -2.6250
v  -12.5000 0.0000 -2.6250
v  -0.0000 0.0000 -2.6250
v  12.5000 0.0000 -2.6250
v  -13.0000 0.2500 -2.5000
v  13.0000 0.2500 -2.5000
# 33 vertices

vn 0.0000 0.0000 1.0000
vn 0.0000 0.0000 1.0000
vn 0.0000 0.0000 1.0000
vn 0.0000 0.0000 1.0000
vn 0.0000 0.0000 1.0000
vn 0.0000 0.0000 1.0000
vn 1.0000 0.0000 -0.0000
vn 1.0000 0.0000 -0.0000
vn 1.0000 0.0000 -0.0000
vn 1.0000 0.0000 -0.0000
vn 1.0000 0.0000 -0.0000
vn 1.0000 0.0000 -0.0000
vn 0.0000 1.0000 -0.0000
vn 0.0000 1.0000 -0.0000
vn 0.0000 1.0000 -0.0000
vn 0.0000 1.0000 -0.0000
vn 0.0000 1.0000 -0.0000
vn 0.0000 1.0000 -0.0000
vn 0.0000 0.0000 -1.0000
vn 0.0000 0.0000 -1.0000
vn 0.0000 0.0000 -1.0000
vn 0.0000 0.0000 -1.0000
vn 0.0000 0.0000 -1.0000
vn 0.0000 0.0000 -1.0000
vn 0.0000 -1.0000 -0.0000
vn 0.0000 -1.0000 -0.0000
vn 0.0000 -1.0000 -0.0000
vn 0.0000 -1.0000 -0.0000
vn 0.0000 -1.0000 -0.0000
vn 0.0000 -1.0000 -0.0000
vn -1.0000 0.0000 -0.0000
vn -1.0000 0.0000 -0.0000
vn -1.0000 0.0000 -0.0000
vn -1.0000 0.0000 -0.0000
vn -1.0000 0.0000 -0.0000
vn -1.0000 0.0000 -0.0000
vn 0.0000 0.0000 -1.0000
vn 0.0000 0.0000 -1.0000
vn 0.0000 0.0000 -1.0000
vn 0.0000 0.0000 -1.0000
vn 0.0000 0.0000 -1.0000
vn 0.0000 0.0000 -1.0000
vn 0.0000 0.0000 -1.0000
vn 0.0000 0.0000 -1.0000
vn 0.0000 0.0000 -1.0000
vn 0.0000 0.0000 -1.0000
vn 0.0000 0.0000 -1.0000
vn 0.0000 0.0000 -1.0000
vn 0.0000 0.0000 -1.0000
vn 0.0000 0.0000 -1.0000
vn 0.0000 0.0000 -1.0000
vn 0.0000 0.0000 -1.0000
vn 0.0000 0.0000 -1.0000
vn 0.0000 0.0000 -1.0000
vn 0.0000 0.0000 -1.0000
vn 0.0000 0.0000 -1.0000
vn 0.0000 0.0000 -1.0000
vn 0.0000 0.0000 -1.0000
vn 0.0000 0.0000 -1.0000
vn 0.0000 0.0000 -1.0000
# 60 vertex normals

vt 0.0982 0.2999 0.0000
vt 0.0982 0.7001 0.0000
vt 0.0982 0.7001 0.0000
vt 0.0982 0.2999 0.0000
vt 0.1054 0.2999 0.0000
vt 0.1054 0.7001 0.0000
vt 0.0982 0.2999 0.0000
vt 0.0982 0.7001 0.0000
vt 0.0982 0.7072 0.0000
vt 0.0982 0.7001 0.0000
vt 0.0982 0.2928 0.0000
vt 0.0982 0.2999 0.0000
vt 0.0982 0.7001 0.0000
vt 0.0982 0.2999 0.0000
vt 0.1054 0.2999 0.0000
vt 0.1054 0.7001 0.0000
vt 0.0982 0.2999 0.0000
vt 0.0982 0.7001 0.0000
vt 0.0982 0.7072 0.0000
vt 0.0982 0.7001 0.0000
vt 0.0982 0.2928 0.0000
vt 0.0982 0.2999 0.0000
vt 0.0982 0.2999 0.0000
vt 0.0982 0.7001 0.0000
vt 0.8125 0.5000 0.0000
vt 0.8125 0.0625 0.0000
vt 0.5000 0.0625 0.0000
vt 0.5000 0.5000 0.0000
vt 0.1875 0.0625 0.0000
vt 0.1875 0.5000 0.0000
vt 0.8125 0.9375 0.0000
vt 0.5000 0.9375 0.0000
vt 0.1875 0.9375 0.0000
# 33 texture coords

g Banner
usemtl Material__25
f 7/3/1 5/4/2 10/5/3 
f 10/5/4 4/6/5 7/3/6 
f 19/19/7 20/20/8 8/10/9 
f 8/10/10 12/9/11 19/19/12 
f 6/1/13 2/2/14 33/24/15 
f 33/24/16 32/23/17 6/1/18 
f 13/13/19 16/16/20 15/15/21 
f 15/15/22 14/14/23 13/13/24 
f 11/7/25 9/8/26 18/18/27 
f 18/18/28 17/17/29 11/7/30 
f 3/11/31 1/12/32 22/22/33 
f 22/22/34 21/21/35 3/11/36 
f 24/26/37 23/25/38 26/28/39 
f 26/28/40 25/27/41 24/26/42 
f 25/27/43 26/28/44 28/30/45 
f 28/30/46 27/29/47 25/27/48 
f 23/25/49 29/31/50 30/32/51 
f 30/32/52 26/28/53 23/25/54 
f 26/28/55 30/32/56 31/33/57 
f 31/33/58 28/30/59 26/28/60 
# 20 faces

