# 3ds Max Wavefront OBJ Exporter v0.97b - (c)2007 guruware
# File Created: 11.03.2017 14:48:52

mtllib DiamondH_MSH.mtl

#
# object DiamondH
#

v  -0.0000 0.0313 -0.3200
v  -0.5000 0.0313 0.0000
v  0.0000 0.0313 0.3200
v  0.5000 0.0313 -0.0000
v  -0.0000 -0.0313 -0.3200
v  -0.5000 -0.0313 0.0000
v  0.0000 -0.0313 0.3200
v  0.5000 -0.0313 -0.0000
v  -0.0000 0.0313 -0.3200
v  -0.5000 0.0313 0.0000
v  0.0000 0.0313 0.3200
v  0.5000 0.0313 -0.0000
v  -0.0000 -0.0313 -0.3200
v  -0.5000 -0.0313 0.0000
v  0.0000 -0.0313 0.3200
v  0.5000 -0.0313 -0.0000
# 16 vertices

vn -0.5391 0.0000 -0.8423
vn -0.5391 0.0000 -0.8423
vn -0.5391 0.0000 -0.8423
vn -0.5391 0.0000 -0.8423
vn -0.5391 0.0000 -0.8423
vn -0.5391 0.0000 -0.8423
vn -0.5391 0.0000 0.8423
vn -0.5391 0.0000 0.8423
vn -0.5391 0.0000 0.8423
vn -0.5391 0.0000 0.8423
vn -0.5391 0.0000 0.8423
vn -0.5391 0.0000 0.8423
vn 0.5391 0.0000 0.8423
vn 0.5391 0.0000 0.8423
vn 0.5391 0.0000 0.8423
vn 0.5391 0.0000 0.8423
vn 0.5391 0.0000 0.8423
vn 0.5391 0.0000 0.8423
vn 0.5391 0.0000 -0.8423
vn 0.5391 0.0000 -0.8423
vn 0.5391 0.0000 -0.8423
vn 0.5391 0.0000 -0.8423
vn 0.5391 0.0000 -0.8423
vn 0.5391 0.0000 -0.8423
# 24 vertex normals

vt 0.4140 0.0875 0.0000
vt 0.1380 0.0875 0.0000
vt 0.1380 0.0375 0.0000
vt 0.4140 0.0375 0.0000
vt 0.6380 0.0875 0.0000
vt 0.6380 0.0375 0.0000
vt 0.8620 0.0875 0.0000
vt 0.8620 0.0375 0.0000
# 8 texture coords

g DiamondH
usemtl Material__2
f 5/3/1 14/4/2 2/1/3 
f 2/1/4 9/2/5 5/3/6 
f 6/4/7 15/6/8 3/5/9 
f 3/5/10 10/1/11 6/4/12 
f 7/6/13 16/8/14 4/7/15 
f 4/7/16 11/5/17 7/6/18 
f 8/8/19 13/3/20 1/2/21 
f 1/2/22 12/7/23 8/8/24 
# 8 faces

#
# object DiamondH_faces
#

v  -0.0000 0.0313 -0.3200
v  -0.5000 0.0313 0.0000
v  0.0000 0.0313 0.3200
v  0.5000 0.0313 -0.0000
v  -0.0000 -0.0313 -0.3200
v  -0.5000 -0.0313 0.0000
v  0.0000 -0.0313 0.3200
v  0.5000 -0.0313 -0.0000
# 8 vertices

vn 0.0000 1.0000 -0.0000
vn 0.0000 1.0000 -0.0000
vn 0.0000 1.0000 -0.0000
vn 0.0000 1.0000 -0.0000
vn 0.0000 1.0000 -0.0000
vn 0.0000 1.0000 -0.0000
vn 0.0000 -1.0000 -0.0000
vn 0.0000 -1.0000 -0.0000
vn 0.0000 -1.0000 -0.0000
vn 0.0000 -1.0000 -0.0000
vn 0.0000 -1.0000 -0.0000
vn 0.0000 -1.0000 -0.0000
# 12 vertex normals

vt 0.2500 0.7422 0.0000
vt 0.0625 0.5022 0.0000
vt 0.2500 0.2622 0.0000
vt 0.4375 0.5022 0.0000
vt 0.7500 0.7422 0.0000
vt 0.9375 0.5022 0.0000
vt 0.7500 0.2622 0.0000
vt 0.5625 0.5022 0.0000
# 8 texture coords

g DiamondH_faces
usemtl Material__2
f 19/11/25 20/12/26 17/9/27 
f 17/9/28 18/10/29 19/11/30 
f 21/13/31 24/16/32 23/15/33 
f 23/15/34 22/14/35 21/13/36 
# 4 faces

