# 3ds Max Wavefront OBJ Exporter v0.97b - (c)2007 guruware
# File Created: 11.03.2017 13:54:40

mtllib ElongHexH_COL.mtl

#
# object ElongHexH_COL
#

v  0.0000 0.0312 -0.3123
v  -0.4934 -0.0312 -0.1365
v  0.4934 -0.0312 0.1365
v  -0.4934 0.0312 -0.1365
v  -0.4934 0.0312 0.1365
v  0.0000 0.0312 0.3123
v  0.4934 0.0312 0.1365
v  0.4934 0.0312 -0.1365
v  0.0000 -0.0312 -0.3123
v  -0.4934 -0.0312 0.1365
v  0.0000 -0.0312 0.3123
v  0.4934 -0.0312 -0.1365
# 12 vertices

vn 0.0000 1.0000 -0.0000
vn 0.0000 1.0000 -0.0000
vn 0.0000 1.0000 -0.0000
vn 0.0000 1.0000 -0.0000
vn 0.0000 1.0000 -0.0000
vn 0.0000 1.0000 -0.0000
vn 0.0000 1.0000 -0.0000
vn 0.0000 1.0000 -0.0000
vn 0.0000 1.0000 -0.0000
vn 0.0000 1.0000 -0.0000
vn 0.0000 1.0000 -0.0000
vn 0.0000 1.0000 -0.0000
vn 0.0000 -1.0000 -0.0000
vn 0.0000 -1.0000 -0.0000
vn 0.0000 -1.0000 -0.0000
vn 0.0000 -1.0000 -0.0000
vn 0.0000 -1.0000 -0.0000
vn 0.0000 -1.0000 -0.0000
vn 0.0000 -1.0000 -0.0000
vn 0.0000 -1.0000 -0.0000
vn 0.0000 -1.0000 -0.0000
vn 0.0000 -1.0000 -0.0000
vn 0.0000 -1.0000 -0.0000
vn 0.0000 -1.0000 -0.0000
vn 1.0000 0.0000 -0.0000
vn 1.0000 0.0000 -0.0000
vn 1.0000 0.0000 -0.0000
vn 1.0000 0.0000 -0.0000
vn 1.0000 0.0000 -0.0000
vn 1.0000 0.0000 -0.0000
vn 0.3356 0.0000 -0.9420
vn 0.3356 0.0000 -0.9420
vn 0.3356 0.0000 -0.9420
vn 0.3356 0.0000 -0.9420
vn 0.3356 0.0000 -0.9420
vn 0.3356 0.0000 -0.9420
vn -1.0000 0.0000 -0.0000
vn -1.0000 0.0000 -0.0000
vn -1.0000 0.0000 -0.0000
vn -1.0000 0.0000 -0.0000
vn -1.0000 0.0000 -0.0000
vn -1.0000 0.0000 -0.0000
vn -0.3356 0.0000 0.9420
vn -0.3356 0.0000 0.9420
vn -0.3356 0.0000 0.9420
vn -0.3356 0.0000 0.9420
vn -0.3356 0.0000 0.9420
vn -0.3356 0.0000 0.9420
vn -0.3356 0.0000 -0.9420
vn -0.3356 0.0000 -0.9420
vn -0.3356 0.0000 -0.9420
vn -0.3356 0.0000 -0.9420
vn -0.3356 0.0000 -0.9420
vn -0.3356 0.0000 -0.9420
vn 0.3356 0.0000 0.9420
vn 0.3356 0.0000 0.9420
vn 0.3356 0.0000 0.9420
vn 0.3356 0.0000 0.9420
vn 0.3356 0.0000 0.9420
vn 0.3356 0.0000 0.9420
# 60 vertex normals

vt 0.0625 0.6393 0.0000
vt 0.0625 0.4277 0.0000
vt 0.2500 0.2935 0.0000
vt 0.4375 0.4277 0.0000
vt 0.4375 0.6393 0.0000
vt 0.2500 0.7735 0.0000
vt -0.0319 0.0750 0.0000
vt 0.8835 0.0750 0.0000
vt 0.8835 0.0250 0.0000
vt -0.0319 0.0250 0.0000
vt 0.2000 0.0750 0.0000
vt 0.2000 0.0250 0.0000
vt 0.5165 0.0750 0.0000
vt 0.4319 0.0750 0.0000
vt 0.4319 0.0250 0.0000
vt 0.5165 0.0250 0.0000
vt 0.7000 0.0750 0.0000
vt 0.7000 0.0250 0.0000
vt 0.9681 0.0750 0.0000
vt 0.9681 0.0250 0.0000
vt 0.7500 0.2935 0.0000
vt 0.5625 0.4277 0.0000
vt 0.5625 0.6393 0.0000
vt 0.7500 0.7735 0.0000
vt 0.9375 0.6393 0.0000
vt 0.9375 0.4277 0.0000
# 26 texture coords

g ElongHexH_COL
usemtl wire_224086086
f 4/1/1 5/2/2 6/3/3 
f 7/4/4 8/5/5 1/6/6 
f 6/3/7 7/4/8 1/6/9 
f 4/1/10 6/3/11 1/6/12 
f 11/21/13 10/22/14 2/23/15 
f 11/21/16 2/23/17 9/24/18 
f 9/24/19 12/25/20 3/26/21 
f 11/21/22 9/24/23 3/26/24 
f 3/9/25 12/20/26 8/19/27 
f 8/19/28 7/8/29 3/9/30 
f 12/10/31 9/12/32 1/11/33 
f 1/11/34 8/7/35 12/10/36 
f 2/15/37 10/16/38 5/13/39 
f 5/13/40 4/14/41 2/15/42 
f 10/16/43 11/18/44 6/17/45 
f 6/17/46 5/13/47 10/16/48 
f 9/12/49 2/15/50 4/14/51 
f 4/14/52 1/11/53 9/12/54 
f 11/18/55 3/9/56 7/8/57 
f 7/8/58 6/17/59 11/18/60 
# 20 faces

