# 3ds Max Wavefront OBJ Exporter v0.97b - (c)2007 guruware
# File Created: 11.03.2017 14:48:52

mtllib EyeH_MSH.mtl

#
# object EyeH
#

v  -0.5000 0.0313 -0.0008
v  -0.4097 0.0313 0.1315
v  -0.2925 0.0312 0.2326
v  -0.1541 0.0313 0.2973
v  0.0000 0.0313 0.3200
v  0.1541 0.0312 0.2973
v  0.2925 0.0313 0.2326
v  0.4096 0.0312 0.1315
v  0.5000 0.0312 -0.0008
v  0.4096 0.0313 -0.1322
v  0.2925 0.0312 -0.2329
v  0.1541 0.0313 -0.2973
v  -0.0000 0.0313 -0.3200
v  -0.1541 0.0313 -0.2973
v  -0.2925 0.0313 -0.2329
v  -0.4096 0.0313 -0.1322
v  -0.5000 -0.0313 -0.0008
v  -0.4097 -0.0313 0.1315
v  -0.2925 -0.0313 0.2326
v  -0.1541 -0.0313 0.2973
v  0.0000 -0.0313 0.3200
v  0.1541 -0.0313 0.2973
v  0.2925 -0.0313 0.2326
v  0.4096 -0.0313 0.1315
v  0.5000 -0.0313 -0.0008
v  0.4096 -0.0313 -0.1322
v  0.2925 -0.0313 -0.2329
v  0.1541 -0.0313 -0.2973
v  -0.0000 -0.0313 -0.3200
v  -0.1541 -0.0313 -0.2973
v  -0.2925 -0.0313 -0.2329
v  -0.4096 -0.0313 -0.1322
v  -0.5000 0.0313 -0.0008
v  0.5000 0.0312 -0.0008
v  -0.5000 -0.0313 -0.0008
v  0.5000 -0.0313 -0.0008
# 36 vertices

vn 0.7459 0.0000 0.6660
vn 0.8258 0.0000 0.5639
vn 0.8258 0.0000 0.5639
vn 0.8258 0.0000 0.5639
vn 0.7459 0.0000 0.6660
vn 0.7459 0.0000 0.6660
vn 0.8239 0.0000 -0.5667
vn 0.7440 0.0000 -0.6682
vn 0.7440 0.0000 -0.6682
vn 0.7440 0.0000 -0.6682
vn 0.8239 0.0000 -0.5667
vn 0.8239 0.0000 -0.5667
vn 0.7440 0.0000 -0.6682
vn 0.5419 0.0000 -0.8404
vn 0.5419 0.0000 -0.8404
vn 0.5419 0.0000 -0.8404
vn 0.7440 0.0000 -0.6682
vn 0.7440 0.0000 -0.6682
vn -0.7440 0.0000 -0.6682
vn -0.8239 0.0000 -0.5667
vn -0.8239 0.0000 -0.5667
vn -0.8239 0.0000 -0.5667
vn -0.7440 0.0000 -0.6682
vn -0.7440 0.0000 -0.6682
vn -0.8258 0.0000 0.5639
vn -0.7459 0.0000 0.6660
vn -0.7459 0.0000 0.6660
vn -0.7459 0.0000 0.6660
vn -0.8258 0.0000 0.5639
vn -0.8258 0.0000 0.5639
vn -0.5419 0.0000 -0.8404
vn -0.7440 0.0000 -0.6682
vn -0.7440 0.0000 -0.6682
vn -0.7440 0.0000 -0.6682
vn -0.5419 0.0000 -0.8404
vn -0.5419 0.0000 -0.8404
vn -0.7459 0.0000 0.6660
vn -0.5434 0.0000 0.8395
vn -0.5434 0.0000 0.8395
vn -0.5434 0.0000 0.8395
vn -0.7459 0.0000 0.6660
vn -0.7459 0.0000 0.6660
vn -0.2869 0.0000 -0.9580
vn -0.5419 0.0000 -0.8404
vn -0.5419 0.0000 -0.8404
vn -0.5419 0.0000 -0.8404
vn -0.2869 0.0000 -0.9580
vn -0.2869 0.0000 -0.9580
vn -0.5434 0.0000 0.8395
vn -0.2875 0.0000 0.9578
vn -0.2875 0.0000 0.9578
vn -0.2875 0.0000 0.9578
vn -0.5434 0.0000 0.8395
vn -0.5434 0.0000 0.8395
vn -0.0000 0.0000 -1.0000
vn -0.2869 0.0000 -0.9580
vn -0.2869 0.0000 -0.9580
vn -0.2869 0.0000 -0.9580
vn -0.0000 0.0000 -1.0000
vn -0.0000 0.0000 -1.0000
vn -0.2875 0.0000 0.9578
vn -0.0000 0.0000 1.0000
vn -0.0000 0.0000 1.0000
vn -0.0000 0.0000 1.0000
vn -0.2875 0.0000 0.9578
vn -0.2875 0.0000 0.9578
vn -0.0000 0.0000 1.0000
vn 0.2875 0.0000 0.9578
vn 0.2875 0.0000 0.9578
vn 0.2875 0.0000 0.9578
vn -0.0000 0.0000 1.0000
vn -0.0000 0.0000 1.0000
vn 0.2869 0.0000 -0.9580
vn -0.0000 0.0000 -1.0000
vn -0.0000 0.0000 -1.0000
vn -0.0000 0.0000 -1.0000
vn 0.2869 0.0000 -0.9580
vn 0.2869 0.0000 -0.9580
vn 0.2875 0.0000 0.9578
vn 0.5434 0.0000 0.8395
vn 0.5434 0.0000 0.8395
vn 0.5434 0.0000 0.8395
vn 0.2875 0.0000 0.9578
vn 0.2875 0.0000 0.9578
vn 0.5419 0.0000 -0.8404
vn 0.2869 0.0000 -0.9580
vn 0.2869 0.0000 -0.9580
vn 0.2869 0.0000 -0.9580
vn 0.5419 0.0000 -0.8404
vn 0.5419 0.0000 -0.8404
vn 0.5434 0.0000 0.8395
vn 0.7459 0.0000 0.6660
vn 0.7459 0.0000 0.6660
vn 0.7459 0.0000 0.6660
vn 0.5434 0.0000 0.8395
vn 0.5434 0.0000 0.8395
# 96 vertex normals

vt 0.9555 0.0875 0.0000
vt 0.9051 0.0875 0.0000
vt 0.9051 0.0375 0.0000
vt 0.9555 0.0375 0.0000
vt 0.0000 0.0875 0.0000
vt 0.0000 0.0375 0.0000
vt 0.0559 0.0875 0.0000
vt 0.0559 0.0375 0.0000
vt 0.5071 0.0875 0.0000
vt 0.4626 0.0875 0.0000
vt 0.4626 0.0375 0.0000
vt 0.5071 0.0375 0.0000
vt 0.5575 0.0875 0.0000
vt 0.5575 0.0375 0.0000
vt 0.4067 0.0875 0.0000
vt 0.4067 0.0375 0.0000
vt 0.6116 0.0875 0.0000
vt 0.6116 0.0375 0.0000
vt 0.3314 0.0875 0.0000
vt 0.3314 0.0375 0.0000
vt 0.6695 0.0875 0.0000
vt 0.6695 0.0375 0.0000
vt 0.2313 0.0875 0.0000
vt 0.2313 0.0375 0.0000
vt 0.7313 0.0875 0.0000
vt 0.7313 0.0375 0.0000
vt 0.7931 0.0875 0.0000
vt 0.7931 0.0375 0.0000
vt 0.1312 0.0875 0.0000
vt 0.1312 0.0375 0.0000
vt 0.8510 0.0875 0.0000
vt 0.8510 0.0375 0.0000
vt 1.0000 0.0875 0.0000
vt 1.0000 0.0375 0.0000
# 34 texture coords

g EyeH
usemtl Material__2
f 24/3/1 36/4/2 9/1/3 
f 9/1/4 8/2/5 24/3/6 
f 25/4/7 26/34/8 10/33/9 
f 10/33/10 34/1/11 25/4/12 
f 26/6/13 27/8/14 11/7/15 
f 11/7/16 10/5/17 26/6/18 
f 32/11/19 35/12/20 1/9/21 
f 1/9/22 16/10/23 32/11/24 
f 17/12/25 18/14/26 2/13/27 
f 2/13/28 33/9/29 17/12/30 
f 31/16/31 32/11/32 16/10/33 
f 16/10/34 15/15/35 31/16/36 
f 18/14/37 19/18/38 3/17/39 
f 3/17/40 2/13/41 18/14/42 
f 30/20/43 31/16/44 15/15/45 
f 15/15/46 14/19/47 30/20/48 
f 19/18/49 20/22/50 4/21/51 
f 4/21/52 3/17/53 19/18/54 
f 29/24/55 30/20/56 14/19/57 
f 14/19/58 13/23/59 29/24/60 
f 20/22/61 21/26/62 5/25/63 
f 5/25/64 4/21/65 20/22/66 
f 21/26/67 22/28/68 6/27/69 
f 6/27/70 5/25/71 21/26/72 
f 28/30/73 29/24/74 13/23/75 
f 13/23/76 12/29/77 28/30/78 
f 22/28/79 23/32/80 7/31/81 
f 7/31/82 6/27/83 22/28/84 
f 27/8/85 28/30/86 12/29/87 
f 12/29/88 11/7/89 27/8/90 
f 23/32/91 24/3/92 8/2/93 
f 8/2/94 7/31/95 23/32/96 
# 32 faces

#
# object EyeH_faces
#

v  -0.5000 0.0313 -0.0008
v  -0.4097 0.0313 0.1315
v  -0.2925 0.0312 0.2326
v  -0.1541 0.0313 0.2973
v  0.0000 0.0313 0.3200
v  0.1541 0.0312 0.2973
v  0.2925 0.0313 0.2326
v  0.4096 0.0312 0.1315
v  0.5000 0.0312 -0.0008
v  0.4096 0.0313 -0.1322
v  0.2925 0.0312 -0.2329
v  0.1541 0.0313 -0.2973
v  -0.0000 0.0313 -0.3200
v  -0.1541 0.0313 -0.2973
v  -0.2925 0.0313 -0.2329
v  -0.4096 0.0313 -0.1322
v  -0.5000 -0.0313 -0.0008
v  -0.4097 -0.0313 0.1315
v  -0.2925 -0.0313 0.2326
v  -0.1541 -0.0313 0.2973
v  0.0000 -0.0313 0.3200
v  0.1541 -0.0313 0.2973
v  0.2925 -0.0313 0.2326
v  0.4096 -0.0313 0.1315
v  0.5000 -0.0313 -0.0008
v  0.4096 -0.0313 -0.1322
v  0.2925 -0.0313 -0.2329
v  0.1541 -0.0313 -0.2973
v  -0.0000 -0.0313 -0.3200
v  -0.1541 -0.0313 -0.2973
v  -0.2925 -0.0313 -0.2329
v  -0.4096 -0.0313 -0.1322
# 32 vertices

vn 0.0000 1.0000 -0.0000
vn 0.0000 1.0000 -0.0000
vn 0.0000 1.0000 0.0000
vn 0.0000 1.0000 -0.0000
vn 0.0000 1.0000 0.0000
vn -0.0000 1.0000 0.0000
vn 0.0000 1.0000 -0.0000
vn -0.0000 1.0000 0.0000
vn 0.0000 1.0000 -0.0000
vn -0.0000 1.0000 0.0000
vn 0.0000 1.0000 -0.0000
vn 0.0000 1.0000 -0.0000
vn -0.0000 1.0000 0.0000
vn 0.0000 1.0000 -0.0000
vn 0.0000 1.0000 0.0000
vn 0.0000 1.0000 0.0000
vn -0.0000 1.0000 0.0000
vn 0.0000 1.0000 0.0000
vn 0.0000 1.0000 0.0000
vn 0.0000 1.0000 0.0000
vn 0.0000 1.0000 0.0000
vn 0.0000 1.0000 -0.0000
vn 0.0000 1.0000 0.0000
vn 0.0000 1.0000 0.0000
vn -0.0000 1.0000 -0.0000
vn 0.0000 1.0000 -0.0000
vn 0.0000 1.0000 0.0000
vn -0.0000 1.0000 -0.0000
vn 0.0000 1.0000 0.0000
vn -0.0000 1.0000 0.0000
vn -0.0000 1.0000 0.0000
vn -0.0000 1.0000 -0.0000
vn -0.0000 1.0000 0.0000
vn -0.0000 1.0000 0.0000
vn -0.0000 1.0000 0.0000
vn 0.0000 1.0000 0.0000
vn 0.0000 1.0000 0.0000
vn -0.0000 1.0000 0.0000
vn 0.0000 1.0000 0.0000
vn 0.0000 1.0000 -0.0000
vn 0.0000 1.0000 0.0000
vn 0.0000 1.0000 0.0000
vn 0.0000 -1.0000 -0.0000
vn 0.0000 -1.0000 -0.0000
vn 0.0000 -1.0000 -0.0000
vn 0.0000 -1.0000 -0.0000
vn 0.0000 -1.0000 -0.0000
vn 0.0000 -1.0000 -0.0000
vn 0.0000 -1.0000 -0.0000
vn 0.0000 -1.0000 -0.0000
vn 0.0000 -1.0000 -0.0000
vn 0.0000 -1.0000 -0.0000
vn 0.0000 -1.0000 -0.0000
vn 0.0000 -1.0000 -0.0000
vn 0.0000 -1.0000 -0.0000
vn 0.0000 -1.0000 -0.0000
vn 0.0000 -1.0000 -0.0000
vn 0.0000 -1.0000 -0.0000
vn 0.0000 -1.0000 -0.0000
vn 0.0000 -1.0000 -0.0000
vn 0.0000 -1.0000 -0.0000
vn 0.0000 -1.0000 -0.0000
vn 0.0000 -1.0000 -0.0000
vn 0.0000 -1.0000 -0.0000
vn 0.0000 -1.0000 -0.0000
vn 0.0000 -1.0000 -0.0000
vn 0.0000 -1.0000 -0.0000
vn 0.0000 -1.0000 -0.0000
vn 0.0000 -1.0000 -0.0000
vn 0.0000 -1.0000 -0.0000
vn 0.0000 -1.0000 -0.0000
vn 0.0000 -1.0000 -0.0000
vn 0.0000 -1.0000 -0.0000
vn 0.0000 -1.0000 -0.0000
vn 0.0000 -1.0000 -0.0000
vn 0.0000 -1.0000 -0.0000
vn 0.0000 -1.0000 -0.0000
vn 0.0000 -1.0000 -0.0000
vn 0.0000 -1.0000 -0.0000
vn 0.0000 -1.0000 -0.0000
vn 0.0000 -1.0000 -0.0000
vn 0.0000 -1.0000 -0.0000
vn 0.0000 -1.0000 -0.0000
vn 0.0000 -1.0000 -0.0000
# 84 vertex normals

vt 0.0625 0.5029 0.0000
vt 0.0964 0.4036 0.0000
vt 0.1403 0.3278 0.0000
vt 0.1922 0.2793 0.0000
vt 0.2500 0.2622 0.0000
vt 0.3078 0.2793 0.0000
vt 0.3597 0.3278 0.0000
vt 0.4036 0.4036 0.0000
vt 0.4375 0.5029 0.0000
vt 0.4036 0.6014 0.0000
vt 0.3597 0.6769 0.0000
vt 0.3078 0.7252 0.0000
vt 0.2500 0.7422 0.0000
vt 0.1922 0.7252 0.0000
vt 0.1403 0.6769 0.0000
vt 0.0964 0.6014 0.0000
vt 0.9375 0.5029 0.0000
vt 0.9036 0.4036 0.0000
vt 0.8597 0.3278 0.0000
vt 0.8078 0.2793 0.0000
vt 0.7500 0.2622 0.0000
vt 0.6922 0.2793 0.0000
vt 0.6403 0.3278 0.0000
vt 0.5964 0.4036 0.0000
vt 0.5625 0.5029 0.0000
vt 0.5964 0.6014 0.0000
vt 0.6403 0.6769 0.0000
vt 0.6922 0.7252 0.0000
vt 0.7500 0.7422 0.0000
vt 0.8078 0.7252 0.0000
vt 0.8597 0.6769 0.0000
vt 0.9036 0.6014 0.0000
# 32 texture coords

g EyeH_faces
usemtl Material__2
f 52/50/97 37/35/98 38/36/99 
f 44/42/100 45/43/101 46/44/102 
f 44/42/103 46/44/104 47/45/105 
f 43/41/106 44/42/107 47/45/108 
f 43/41/109 47/45/110 48/46/111 
f 42/40/112 43/41/113 48/46/114 
f 42/40/115 48/46/116 49/47/117 
f 41/39/118 42/40/119 49/47/120 
f 40/38/121 41/39/122 49/47/123 
f 40/38/124 49/47/125 50/48/126 
f 39/37/127 40/38/128 50/48/129 
f 39/37/130 50/48/131 51/49/132 
f 38/36/133 39/37/134 51/49/135 
f 52/50/136 38/36/137 51/49/138 
f 54/52/139 53/51/140 68/66/141 
f 54/52/142 68/66/143 67/65/144 
f 62/60/145 61/59/146 60/58/147 
f 63/61/148 62/60/149 60/58/150 
f 63/61/151 60/58/152 59/57/153 
f 64/62/154 63/61/155 59/57/156 
f 64/62/157 59/57/158 58/56/159 
f 65/63/160 64/62/161 58/56/162 
f 65/63/163 58/56/164 57/55/165 
f 65/63/166 57/55/167 56/54/168 
f 66/64/169 65/63/170 56/54/171 
f 66/64/172 56/54/173 55/53/174 
f 67/65/175 66/64/176 55/53/177 
f 54/52/178 67/65/179 55/53/180 
# 28 faces

