# 3ds Max Wavefront OBJ Exporter v0.97b - (c)2007 guruware
# File Created: 11.03.2017 13:54:44

mtllib EyeV_COL.mtl

#
# object EyeV_COL
#

v  -0.2902 0.0312 -0.1519
v  -0.3126 0.0312 0.0000
v  -0.2902 0.0312 0.1519
v  0.1273 0.0312 0.4042
v  0.2267 0.0312 0.2885
v  0.2902 0.0312 0.1519
v  0.2267 0.0312 -0.2885
v  0.1273 0.0312 -0.4042
v  -0.1266 -0.0312 -0.4042
v  -0.2902 -0.0312 0.1519
v  -0.2265 -0.0312 0.2885
v  -0.1266 -0.0312 0.4042
v  0.0008 -0.0312 0.4920
v  0.1273 -0.0312 0.4042
v  0.2267 -0.0312 0.2885
v  0.3126 -0.0312 0.0000
v  0.2902 -0.0312 -0.1519
v  0.2267 -0.0312 -0.2885
v  0.0008 0.0312 -0.4920
v  -0.1266 0.0312 -0.4042
v  -0.2265 0.0312 -0.2885
v  -0.2265 0.0312 0.2885
v  -0.1266 0.0312 0.4042
v  0.0008 0.0312 0.4920
v  0.3126 0.0312 0.0000
v  0.2902 0.0312 -0.1519
v  0.0008 -0.0312 -0.4920
v  -0.2265 -0.0312 -0.2885
v  -0.2902 -0.0312 -0.1519
v  -0.3126 -0.0312 0.0000
v  0.2902 -0.0312 0.1519
v  0.1273 -0.0312 -0.4042
# 32 vertices

vn 0.0000 1.0000 -0.0000
vn 0.0000 1.0000 -0.0000
vn 0.0000 1.0000 -0.0000
vn 0.0000 1.0000 -0.0000
vn 0.0000 1.0000 -0.0000
vn 0.0000 1.0000 -0.0000
vn 0.0000 1.0000 -0.0000
vn 0.0000 1.0000 -0.0000
vn 0.0000 1.0000 -0.0000
vn 0.0000 1.0000 -0.0000
vn 0.0000 1.0000 -0.0000
vn 0.0000 1.0000 -0.0000
vn 0.0000 1.0000 -0.0000
vn 0.0000 1.0000 -0.0000
vn 0.0000 1.0000 -0.0000
vn 0.0000 1.0000 -0.0000
vn 0.0000 1.0000 -0.0000
vn 0.0000 1.0000 -0.0000
vn 0.0000 1.0000 -0.0000
vn 0.0000 1.0000 -0.0000
vn 0.0000 1.0000 -0.0000
vn 0.0000 1.0000 -0.0000
vn 0.0000 1.0000 -0.0000
vn 0.0000 1.0000 -0.0000
vn 0.0000 1.0000 -0.0000
vn 0.0000 1.0000 -0.0000
vn 0.0000 1.0000 -0.0000
vn 0.0000 1.0000 -0.0000
vn 0.0000 1.0000 -0.0000
vn 0.0000 1.0000 -0.0000
vn 0.0000 1.0000 -0.0000
vn 0.0000 1.0000 -0.0000
vn 0.0000 1.0000 -0.0000
vn 0.0000 1.0000 -0.0000
vn 0.0000 1.0000 -0.0000
vn 0.0000 1.0000 -0.0000
vn 0.0000 1.0000 -0.0000
vn 0.0000 1.0000 -0.0000
vn 0.0000 1.0000 -0.0000
vn 0.0000 1.0000 -0.0000
vn 0.0000 1.0000 -0.0000
vn 0.0000 1.0000 -0.0000
vn 0.0000 -1.0000 -0.0000
vn 0.0000 -1.0000 -0.0000
vn 0.0000 -1.0000 -0.0000
vn 0.0000 -1.0000 -0.0000
vn 0.0000 -1.0000 -0.0000
vn 0.0000 -1.0000 -0.0000
vn 0.0000 -1.0000 -0.0000
vn 0.0000 -1.0000 -0.0000
vn 0.0000 -1.0000 -0.0000
vn 0.0000 -1.0000 -0.0000
vn 0.0000 -1.0000 -0.0000
vn 0.0000 -1.0000 -0.0000
vn 0.0000 -1.0000 -0.0000
vn 0.0000 -1.0000 -0.0000
vn 0.0000 -1.0000 -0.0000
vn 0.0000 -1.0000 -0.0000
vn 0.0000 -1.0000 -0.0000
vn 0.0000 -1.0000 -0.0000
vn 0.0000 -1.0000 -0.0000
vn 0.0000 -1.0000 -0.0000
vn 0.0000 -1.0000 -0.0000
vn 0.0000 -1.0000 -0.0000
vn 0.0000 -1.0000 -0.0000
vn 0.0000 -1.0000 -0.0000
vn 0.0000 -1.0000 -0.0000
vn 0.0000 -1.0000 -0.0000
vn 0.0000 -1.0000 -0.0000
vn 0.0000 -1.0000 -0.0000
vn 0.0000 -1.0000 -0.0000
vn 0.0000 -1.0000 -0.0000
vn 0.0000 -1.0000 -0.0000
vn 0.0000 -1.0000 -0.0000
vn 0.0000 -1.0000 -0.0000
vn 0.0000 -1.0000 -0.0000
vn 0.0000 -1.0000 -0.0000
vn 0.0000 -1.0000 -0.0000
vn 0.0000 -1.0000 -0.0000
vn 0.0000 -1.0000 -0.0000
vn 0.0000 -1.0000 -0.0000
vn 0.0000 -1.0000 -0.0000
vn 0.0000 -1.0000 -0.0000
vn 0.0000 -1.0000 -0.0000
vn -0.6677 0.0000 0.7444
vn -0.5675 0.0000 0.8234
vn -0.5675 0.0000 0.8234
vn -0.5675 0.0000 0.8234
vn -0.6677 0.0000 0.7444
vn -0.6677 0.0000 0.7444
vn 0.5703 0.0000 0.8214
vn 0.6699 0.0000 0.7425
vn 0.6699 0.0000 0.7425
vn 0.6699 0.0000 0.7425
vn 0.5703 0.0000 0.8214
vn 0.5703 0.0000 0.8214
vn 0.6699 0.0000 0.7425
vn 0.8405 0.0000 0.5419
vn 0.8405 0.0000 0.5419
vn 0.8405 0.0000 0.5419
vn 0.6699 0.0000 0.7425
vn 0.6699 0.0000 0.7425
vn 0.6698 0.0000 -0.7425
vn 0.5703 0.0000 -0.8214
vn 0.5703 0.0000 -0.8214
vn 0.5703 0.0000 -0.8214
vn 0.6698 0.0000 -0.7425
vn 0.6698 0.0000 -0.7425
vn -0.5675 0.0000 -0.8234
vn -0.6677 0.0000 -0.7444
vn -0.6677 0.0000 -0.7444
vn -0.6677 0.0000 -0.7444
vn -0.5675 0.0000 -0.8234
vn -0.5675 0.0000 -0.8234
vn 0.8405 0.0000 -0.5419
vn 0.6698 0.0000 -0.7425
vn 0.6698 0.0000 -0.7425
vn 0.6698 0.0000 -0.7425
vn 0.8405 0.0000 -0.5419
vn 0.8405 0.0000 -0.5419
vn -0.6677 0.0000 -0.7444
vn -0.8395 0.0000 -0.5433
vn -0.8395 0.0000 -0.5433
vn -0.8395 0.0000 -0.5433
vn -0.6677 0.0000 -0.7444
vn -0.6677 0.0000 -0.7444
vn 0.9580 0.0000 -0.2869
vn 0.8405 0.0000 -0.5419
vn 0.8405 0.0000 -0.5419
vn 0.8405 0.0000 -0.5419
vn 0.9580 0.0000 -0.2869
vn 0.9580 0.0000 -0.2869
vn -0.8395 0.0000 -0.5433
vn -0.9578 0.0000 -0.2875
vn -0.9578 0.0000 -0.2875
vn -0.9578 0.0000 -0.2875
vn -0.8395 0.0000 -0.5433
vn -0.8395 0.0000 -0.5433
vn 1.0000 0.0000 -0.0000
vn 0.9580 0.0000 -0.2869
vn 0.9580 0.0000 -0.2869
vn 0.9580 0.0000 -0.2869
vn 1.0000 0.0000 -0.0000
vn 1.0000 0.0000 -0.0000
vn -0.9578 0.0000 -0.2875
vn -1.0000 0.0000 -0.0000
vn -1.0000 0.0000 -0.0000
vn -1.0000 0.0000 -0.0000
vn -0.9578 0.0000 -0.2875
vn -0.9578 0.0000 -0.2875
vn -1.0000 0.0000 -0.0000
vn -0.9578 0.0000 0.2875
vn -0.9578 0.0000 0.2875
vn -0.9578 0.0000 0.2875
vn -1.0000 0.0000 -0.0000
vn -1.0000 0.0000 -0.0000
vn 0.9580 0.0000 0.2869
vn 1.0000 0.0000 -0.0000
vn 1.0000 0.0000 -0.0000
vn 1.0000 0.0000 -0.0000
vn 0.9580 0.0000 0.2869
vn 0.9580 0.0000 0.2869
vn -0.9578 0.0000 0.2875
vn -0.8395 0.0000 0.5433
vn -0.8395 0.0000 0.5433
vn -0.8395 0.0000 0.5433
vn -0.9578 0.0000 0.2875
vn -0.9578 0.0000 0.2875
vn 0.8405 0.0000 0.5419
vn 0.9580 0.0000 0.2869
vn 0.9580 0.0000 0.2869
vn 0.9580 0.0000 0.2869
vn 0.8405 0.0000 0.5419
vn 0.8405 0.0000 0.5419
vn -0.8395 0.0000 0.5433
vn -0.6677 0.0000 0.7444
vn -0.6677 0.0000 0.7444
vn -0.6677 0.0000 0.7444
vn -0.8395 0.0000 0.5433
vn -0.8395 0.0000 0.5433
# 180 vertex normals

vt 0.2996 0.8407 0.0000
vt 0.2503 0.9085 0.0000
vt 0.2007 0.8407 0.0000
vt 0.1628 0.7528 0.0000
vt 0.1385 0.6490 0.0000
vt 0.1300 0.5335 0.0000
vt 0.1385 0.4180 0.0000
vt 0.1628 0.3141 0.0000
vt 0.2007 0.2263 0.0000
vt 0.2503 0.1585 0.0000
vt 0.2996 0.2263 0.0000
vt 0.3373 0.3141 0.0000
vt 0.3615 0.4180 0.0000
vt 0.3700 0.5335 0.0000
vt 0.3615 0.6490 0.0000
vt 0.3373 0.7528 0.0000
vt 0.7002 0.0750 0.0000
vt 0.6581 0.0750 0.0000
vt 0.6581 0.0250 0.0000
vt 0.7002 0.0250 0.0000
vt 0.7421 0.0750 0.0000
vt 0.7421 0.0250 0.0000
vt 0.7890 0.0750 0.0000
vt 0.7890 0.0250 0.0000
vt 0.1997 0.0750 0.0000
vt 0.1382 0.0750 0.0000
vt 0.1382 0.0250 0.0000
vt 0.1997 0.0250 0.0000
vt 0.2615 0.0750 0.0000
vt 0.2615 0.0250 0.0000
vt 0.0657 0.0750 0.0000
vt 0.0657 0.0250 0.0000
vt 0.3343 0.0750 0.0000
vt 0.3343 0.0250 0.0000
vt -0.0132 0.0750 0.0000
vt -0.0132 0.0250 0.0000
vt 0.4132 0.0750 0.0000
vt 0.4132 0.0250 0.0000
vt 0.9099 0.0750 0.0000
vt 0.9099 0.0250 0.0000
vt 0.4901 0.0750 0.0000
vt 0.4901 0.0250 0.0000
vt 0.5564 0.0750 0.0000
vt 0.5564 0.0250 0.0000
vt 0.8436 0.0750 0.0000
vt 0.8436 0.0250 0.0000
vt 0.6110 0.0750 0.0000
vt 0.6110 0.0250 0.0000
vt 0.9868 0.0750 0.0000
vt 0.9868 0.0250 0.0000
vt 0.7007 0.8407 0.0000
vt 0.7503 0.9085 0.0000
vt 0.7996 0.8407 0.0000
vt 0.8373 0.7528 0.0000
vt 0.8615 0.6490 0.0000
vt 0.8700 0.5335 0.0000
vt 0.8615 0.4180 0.0000
vt 0.8373 0.3141 0.0000
vt 0.7996 0.2263 0.0000
vt 0.7503 0.1585 0.0000
vt 0.7007 0.2263 0.0000
vt 0.6628 0.3141 0.0000
vt 0.6385 0.4180 0.0000
vt 0.6300 0.5335 0.0000
vt 0.6385 0.6490 0.0000
vt 0.6628 0.7528 0.0000
# 66 texture coords

g EyeV_COL
usemtl wire_224086086
f 8/1/1 19/2/2 20/3/3 
f 23/9/4 24/10/5 4/11/6 
f 23/9/7 4/11/8 5/12/9 
f 22/8/10 23/9/11 5/12/12 
f 22/8/13 5/12/14 6/13/15 
f 3/7/16 22/8/17 6/13/18 
f 3/7/19 6/13/20 25/14/21 
f 2/6/22 3/7/23 25/14/24 
f 1/5/25 2/6/26 25/14/27 
f 1/5/28 25/14/29 26/15/30 
f 21/4/31 1/5/32 26/15/33 
f 21/4/34 26/15/35 7/16/36 
f 20/3/37 21/4/38 7/16/39 
f 8/1/40 20/3/41 7/16/42 
f 9/51/43 27/52/44 32/53/45 
f 9/51/46 32/53/47 18/54/48 
f 14/59/49 13/60/50 12/61/51 
f 15/58/52 14/59/53 12/61/54 
f 15/58/55 12/61/56 11/62/57 
f 31/57/58 15/58/59 11/62/60 
f 31/57/61 11/62/62 10/63/63 
f 16/56/64 31/57/65 10/63/66 
f 16/56/67 10/63/68 30/64/69 
f 16/56/70 30/64/71 29/65/72 
f 17/55/73 16/56/74 29/65/75 
f 17/55/76 29/65/77 28/66/78 
f 18/54/79 17/55/80 28/66/81 
f 9/51/82 18/54/83 28/66/84 
f 12/19/85 13/20/86 24/17/87 
f 24/17/88 23/18/89 12/19/90 
f 13/20/91 14/22/92 4/21/93 
f 4/21/94 24/17/95 13/20/96 
f 14/22/97 15/24/98 5/23/99 
f 5/23/100 4/21/101 14/22/102 
f 32/27/103 27/28/104 19/25/105 
f 19/25/106 8/26/107 32/27/108 
f 27/28/109 9/30/110 20/29/111 
f 20/29/112 19/25/113 27/28/114 
f 18/32/115 32/27/116 8/26/117 
f 8/26/118 7/31/119 18/32/120 
f 9/30/121 28/34/122 21/33/123 
f 21/33/124 20/29/125 9/30/126 
f 17/36/127 18/32/128 7/31/129 
f 7/31/130 26/35/131 17/36/132 
f 28/34/133 29/38/134 1/37/135 
f 1/37/136 21/33/137 28/34/138 
f 16/40/139 17/50/140 26/49/141 
f 26/49/142 25/39/143 16/40/144 
f 29/38/145 30/42/146 2/41/147 
f 2/41/148 1/37/149 29/38/150 
f 30/42/151 10/44/152 3/43/153 
f 3/43/154 2/41/155 30/42/156 
f 31/46/157 16/40/158 25/39/159 
f 25/39/160 6/45/161 31/46/162 
f 10/44/163 11/48/164 22/47/165 
f 22/47/166 3/43/167 10/44/168 
f 15/24/169 31/46/170 6/45/171 
f 6/45/172 5/23/173 15/24/174 
f 11/48/175 12/19/176 23/18/177 
f 23/18/178 22/47/179 11/48/180 
# 60 faces

