# 3ds Max Wavefront OBJ Exporter v0.97b - (c)2007 guruware
# File Created: 11.03.2017 13:54:46

mtllib Gear_COL.mtl

#
# object Gear_COL
#

v  -0.3699 0.0312 -0.3262
v  -0.4675 0.0312 -0.1572
v  -0.4591 0.0312 0.1801
v  -0.2651 0.0312 0.2596
v  -0.2360 0.0312 0.4331
v  -0.0976 0.0312 0.4834
v  -0.0362 0.0312 0.3693
v  0.3855 0.0312 0.3076
v  0.3574 0.0312 0.0998
v  0.4675 0.0312 -0.1572
v  0.3017 0.0312 -0.2160
v  -0.0736 -0.0312 -0.4877
v  -0.3700 -0.0312 0.0285
v  -0.3855 -0.0312 0.3076
v  0.0976 -0.0312 0.4834
v  0.2651 -0.0312 0.2596
v  0.3855 -0.0312 0.3076
v  0.3574 -0.0312 0.0998
v  0.3700 -0.0312 0.0285
v  0.3379 -0.0312 -0.1533
v  0.3017 -0.0312 -0.2160
v  0.2571 -0.0312 -0.4209
v  -0.0736 0.0312 -0.4877
v  -0.0923 0.0312 -0.3594
v  -0.1603 0.0312 -0.3346
v  -0.2571 0.0312 -0.4209
v  -0.3017 0.0312 -0.2160
v  -0.3379 0.0312 -0.1533
v  -0.4930 0.0312 -0.0122
v  -0.3700 0.0312 0.0285
v  -0.3574 0.0312 0.0998
v  -0.3855 0.0312 0.3076
v  -0.2096 0.0312 0.3062
v  0.0362 0.0312 0.3693
v  0.0976 0.0312 0.4834
v  0.2360 0.0312 0.4331
v  0.2096 0.0312 0.3062
v  0.2651 0.0312 0.2596
v  0.4591 0.0312 0.1801
v  0.3700 0.0312 0.0285
v  0.4930 0.0312 -0.0122
v  0.3379 0.0312 -0.1533
v  0.3698 0.0312 -0.3262
v  0.2571 0.0312 -0.4209
v  0.1603 0.0312 -0.3346
v  0.0923 0.0312 -0.3594
v  0.0736 0.0312 -0.4877
v  -0.0923 -0.0312 -0.3594
v  -0.1603 -0.0312 -0.3346
v  -0.2571 -0.0312 -0.4209
v  -0.3699 -0.0312 -0.3262
v  -0.3017 -0.0312 -0.2160
v  -0.3379 -0.0312 -0.1533
v  -0.4675 -0.0312 -0.1572
v  -0.4930 -0.0312 -0.0122
v  -0.3574 -0.0312 0.0998
v  -0.4591 -0.0312 0.1801
v  -0.2651 -0.0312 0.2596
v  -0.2096 -0.0312 0.3062
v  -0.2360 -0.0312 0.4331
v  -0.0976 -0.0312 0.4834
v  -0.0362 -0.0312 0.3693
v  0.0362 -0.0312 0.3693
v  0.2360 -0.0312 0.4331
v  0.2096 -0.0312 0.3062
v  0.4591 -0.0312 0.1801
v  0.4930 -0.0312 -0.0122
v  0.4675 -0.0312 -0.1572
v  0.3698 -0.0312 -0.3262
v  0.1603 -0.0312 -0.3346
v  0.0923 -0.0312 -0.3594
v  0.0736 -0.0312 -0.4877
# 72 vertices

vn 0.0000 1.0000 -0.0000
vn 0.0000 1.0000 -0.0000
vn 0.0000 1.0000 -0.0000
vn 0.0000 1.0000 -0.0000
vn 0.0000 1.0000 -0.0000
vn 0.0000 1.0000 -0.0000
vn 0.0000 1.0000 -0.0000
vn 0.0000 1.0000 -0.0000
vn 0.0000 1.0000 -0.0000
vn 0.0000 1.0000 -0.0000
vn 0.0000 1.0000 -0.0000
vn 0.0000 1.0000 -0.0000
vn 0.0000 1.0000 -0.0000
vn 0.0000 1.0000 -0.0000
vn 0.0000 1.0000 -0.0000
vn 0.0000 1.0000 -0.0000
vn 0.0000 1.0000 -0.0000
vn 0.0000 1.0000 -0.0000
vn 0.0000 1.0000 -0.0000
vn 0.0000 1.0000 -0.0000
vn 0.0000 1.0000 -0.0000
vn 0.0000 1.0000 -0.0000
vn 0.0000 1.0000 -0.0000
vn 0.0000 1.0000 -0.0000
vn 0.0000 1.0000 -0.0000
vn 0.0000 1.0000 -0.0000
vn 0.0000 1.0000 -0.0000
vn 0.0000 1.0000 -0.0000
vn 0.0000 1.0000 -0.0000
vn 0.0000 1.0000 -0.0000
vn 0.0000 1.0000 -0.0000
vn 0.0000 1.0000 -0.0000
vn 0.0000 1.0000 -0.0000
vn 0.0000 1.0000 -0.0000
vn 0.0000 1.0000 -0.0000
vn 0.0000 1.0000 -0.0000
vn 0.0000 1.0000 -0.0000
vn 0.0000 1.0000 -0.0000
vn 0.0000 1.0000 -0.0000
vn 0.0000 1.0000 -0.0000
vn 0.0000 1.0000 -0.0000
vn 0.0000 1.0000 -0.0000
vn 0.0000 1.0000 -0.0000
vn 0.0000 1.0000 -0.0000
vn 0.0000 1.0000 -0.0000
vn 0.0000 1.0000 -0.0000
vn 0.0000 1.0000 -0.0000
vn 0.0000 1.0000 -0.0000
vn 0.0000 1.0000 -0.0000
vn 0.0000 1.0000 -0.0000
vn 0.0000 1.0000 -0.0000
vn 0.0000 1.0000 -0.0000
vn 0.0000 1.0000 -0.0000
vn 0.0000 1.0000 -0.0000
vn 0.0000 1.0000 -0.0000
vn 0.0000 1.0000 -0.0000
vn 0.0000 1.0000 -0.0000
vn 0.0000 1.0000 -0.0000
vn 0.0000 1.0000 -0.0000
vn 0.0000 1.0000 -0.0000
vn 0.0000 1.0000 -0.0000
vn 0.0000 1.0000 -0.0000
vn 0.0000 1.0000 -0.0000
vn 0.0000 1.0000 -0.0000
vn 0.0000 1.0000 -0.0000
vn 0.0000 1.0000 -0.0000
vn 0.0000 1.0000 -0.0000
vn 0.0000 1.0000 -0.0000
vn 0.0000 1.0000 -0.0000
vn 0.0000 1.0000 -0.0000
vn 0.0000 1.0000 -0.0000
vn 0.0000 1.0000 -0.0000
vn 0.0000 1.0000 -0.0000
vn 0.0000 1.0000 -0.0000
vn 0.0000 1.0000 -0.0000
vn 0.0000 1.0000 -0.0000
vn 0.0000 1.0000 -0.0000
vn 0.0000 1.0000 -0.0000
vn 0.0000 1.0000 -0.0000
vn 0.0000 1.0000 -0.0000
vn 0.0000 1.0000 -0.0000
vn 0.0000 1.0000 -0.0000
vn 0.0000 1.0000 -0.0000
vn 0.0000 1.0000 -0.0000
vn 0.0000 1.0000 -0.0000
vn 0.0000 1.0000 -0.0000
vn 0.0000 1.0000 -0.0000
vn 0.0000 1.0000 -0.0000
vn 0.0000 1.0000 -0.0000
vn 0.0000 1.0000 -0.0000
vn 0.0000 1.0000 -0.0000
vn 0.0000 1.0000 -0.0000
vn 0.0000 1.0000 -0.0000
vn 0.0000 1.0000 -0.0000
vn 0.0000 1.0000 -0.0000
vn 0.0000 1.0000 -0.0000
vn 0.0000 1.0000 -0.0000
vn 0.0000 1.0000 -0.0000
vn 0.0000 1.0000 -0.0000
vn 0.0000 1.0000 -0.0000
vn 0.0000 1.0000 -0.0000
vn 0.0000 1.0000 -0.0000
vn 0.0000 -1.0000 -0.0000
vn 0.0000 -1.0000 -0.0000
vn 0.0000 -1.0000 -0.0000
vn 0.0000 -1.0000 -0.0000
vn 0.0000 -1.0000 -0.0000
vn 0.0000 -1.0000 -0.0000
vn 0.0000 -1.0000 -0.0000
vn 0.0000 -1.0000 -0.0000
vn 0.0000 -1.0000 -0.0000
vn 0.0000 -1.0000 -0.0000
vn 0.0000 -1.0000 -0.0000
vn 0.0000 -1.0000 -0.0000
vn 0.0000 -1.0000 -0.0000
vn 0.0000 -1.0000 -0.0000
vn 0.0000 -1.0000 -0.0000
vn 0.0000 -1.0000 -0.0000
vn 0.0000 -1.0000 -0.0000
vn 0.0000 -1.0000 -0.0000
vn 0.0000 -1.0000 -0.0000
vn 0.0000 -1.0000 -0.0000
vn 0.0000 -1.0000 -0.0000
vn 0.0000 -1.0000 -0.0000
vn 0.0000 -1.0000 -0.0000
vn 0.0000 -1.0000 -0.0000
vn 0.0000 -1.0000 -0.0000
vn 0.0000 -1.0000 -0.0000
vn 0.0000 -1.0000 -0.0000
vn 0.0000 -1.0000 -0.0000
vn 0.0000 -1.0000 -0.0000
vn 0.0000 -1.0000 -0.0000
vn 0.0000 -1.0000 -0.0000
vn 0.0000 -1.0000 -0.0000
vn 0.0000 -1.0000 -0.0000
vn 0.0000 -1.0000 -0.0000
vn 0.0000 -1.0000 -0.0000
vn 0.0000 -1.0000 -0.0000
vn 0.0000 -1.0000 -0.0000
vn 0.0000 -1.0000 -0.0000
vn 0.0000 -1.0000 -0.0000
vn 0.0000 -1.0000 -0.0000
vn 0.0000 -1.0000 -0.0000
vn 0.0000 -1.0000 -0.0000
vn 0.0000 -1.0000 -0.0000
vn 0.0000 -1.0000 -0.0000
vn 0.0000 -1.0000 -0.0000
vn 0.0000 -1.0000 -0.0000
vn 0.0000 -1.0000 -0.0000
vn 0.0000 -1.0000 -0.0000
vn 0.0000 -1.0000 -0.0000
vn 0.0000 -1.0000 -0.0000
vn 0.0000 -1.0000 -0.0000
vn 0.0000 -1.0000 -0.0000
vn 0.0000 -1.0000 -0.0000
vn 0.0000 -1.0000 -0.0000
vn 0.0000 -1.0000 -0.0000
vn 0.0000 -1.0000 -0.0000
vn 0.0000 -1.0000 -0.0000
vn 0.0000 -1.0000 -0.0000
vn 0.0000 -1.0000 -0.0000
vn 0.0000 -1.0000 -0.0000
vn 0.0000 -1.0000 -0.0000
vn 0.0000 -1.0000 -0.0000
vn 0.0000 -1.0000 -0.0000
vn 0.0000 -1.0000 -0.0000
vn 0.0000 -1.0000 -0.0000
vn 0.0000 -1.0000 -0.0000
vn 0.0000 -1.0000 -0.0000
vn 0.0000 -1.0000 -0.0000
vn 0.0000 -1.0000 -0.0000
vn 0.0000 -1.0000 -0.0000
vn 0.0000 -1.0000 -0.0000
vn 0.0000 -1.0000 -0.0000
vn 0.0000 -1.0000 -0.0000
vn 0.0000 -1.0000 -0.0000
vn 0.0000 -1.0000 -0.0000
vn 0.0000 -1.0000 -0.0000
vn 0.0000 -1.0000 -0.0000
vn 0.0000 -1.0000 -0.0000
vn 0.0000 -1.0000 -0.0000
vn 0.0000 -1.0000 -0.0000
vn 0.0000 -1.0000 -0.0000
vn 0.0000 -1.0000 -0.0000
vn 0.0000 -1.0000 -0.0000
vn 0.0000 -1.0000 -0.0000
vn 0.0000 -1.0000 -0.0000
vn 0.0000 -1.0000 -0.0000
vn 0.0000 -1.0000 -0.0000
vn 0.0000 -1.0000 -0.0000
vn 0.0000 -1.0000 -0.0000
vn 0.0000 -1.0000 -0.0000
vn 0.0000 -1.0000 -0.0000
vn 0.0000 -1.0000 -0.0000
vn 0.0000 -1.0000 -0.0000
vn 0.0000 -1.0000 -0.0000
vn 0.0000 -1.0000 -0.0000
vn 0.0000 -1.0000 -0.0000
vn 0.0000 -1.0000 -0.0000
vn 0.0000 -1.0000 -0.0000
vn 0.0000 -1.0000 -0.0000
vn 0.0000 -1.0000 -0.0000
vn 0.0000 -1.0000 -0.0000
vn 0.0000 -1.0000 -0.0000
vn -0.3701 0.0000 0.9290
vn -0.3701 0.0000 0.9290
vn -0.3701 0.0000 0.9290
vn -0.3701 0.0000 0.9290
vn -0.3701 0.0000 0.9290
vn -0.3701 0.0000 0.9290
vn 0.8660 0.0000 0.5000
vn 0.8660 0.0000 0.5000
vn 0.8660 0.0000 0.5000
vn 0.8660 0.0000 0.5000
vn 0.8660 0.0000 0.5000
vn 0.8660 0.0000 0.5000
vn 0.6195 0.0000 -0.7850
vn 0.6195 0.0000 -0.7850
vn 0.6195 0.0000 -0.7850
vn 0.6195 0.0000 -0.7850
vn 0.6195 0.0000 -0.7850
vn 0.6195 0.0000 -0.7850
vn 0.9848 0.0000 0.1736
vn 0.9848 0.0000 0.1736
vn 0.9848 0.0000 0.1736
vn 0.9848 0.0000 0.1736
vn 0.9848 0.0000 0.1736
vn 0.9848 0.0000 0.1736
vn 0.3136 0.0000 0.9495
vn 0.3136 0.0000 0.9495
vn 0.3136 0.0000 0.9495
vn 0.3136 0.0000 0.9495
vn 0.3136 0.0000 0.9495
vn 0.3136 0.0000 0.9495
vn 0.9848 0.0000 -0.1737
vn 0.9848 0.0000 -0.1737
vn 0.9848 0.0000 -0.1737
vn 0.9848 0.0000 -0.1737
vn 0.9848 0.0000 -0.1737
vn 0.9848 0.0000 -0.1737
vn -0.0300 0.0000 -0.9995
vn -0.0300 0.0000 -0.9995
vn -0.0300 0.0000 -0.9995
vn -0.0300 0.0000 -0.9995
vn -0.0300 0.0000 -0.9995
vn -0.0300 0.0000 -0.9995
vn 0.8660 0.0000 -0.5000
vn 0.8660 0.0000 -0.5000
vn 0.8660 0.0000 -0.5000
vn 0.8660 0.0000 -0.5000
vn 0.8660 0.0000 -0.5000
vn 0.8660 0.0000 -0.5000
vn 0.6428 0.0000 -0.7660
vn 0.6428 0.0000 -0.7660
vn 0.6428 0.0000 -0.7660
vn 0.6428 0.0000 -0.7660
vn 0.6428 0.0000 -0.7660
vn 0.6428 0.0000 -0.7660
vn -0.6655 0.0000 -0.7464
vn -0.6655 0.0000 -0.7464
vn -0.6655 0.0000 -0.7464
vn -0.6655 0.0000 -0.7464
vn -0.6655 0.0000 -0.7464
vn -0.6655 0.0000 -0.7464
vn 0.8506 0.0000 0.5258
vn 0.8506 0.0000 0.5258
vn 0.8506 0.0000 0.5258
vn 0.8506 0.0000 0.5258
vn 0.8506 0.0000 0.5258
vn 0.8506 0.0000 0.5258
vn 0.9896 0.0000 -0.1440
vn 0.9896 0.0000 -0.1440
vn 0.9896 0.0000 -0.1440
vn 0.9896 0.0000 -0.1440
vn 0.9896 0.0000 -0.1440
vn 0.9896 0.0000 -0.1440
vn 0.0000 0.0000 -1.0000
vn 0.0000 0.0000 -1.0000
vn 0.0000 0.0000 -1.0000
vn 0.0000 0.0000 -1.0000
vn 0.0000 0.0000 -1.0000
vn 0.0000 0.0000 -1.0000
vn -0.9896 0.0000 -0.1440
vn -0.9896 0.0000 -0.1440
vn -0.9896 0.0000 -0.1440
vn -0.9896 0.0000 -0.1440
vn -0.9896 0.0000 -0.1440
vn -0.9896 0.0000 -0.1440
vn 0.3420 0.0000 -0.9397
vn 0.3420 0.0000 -0.9397
vn 0.3420 0.0000 -0.9397
vn 0.3420 0.0000 -0.9397
vn 0.3420 0.0000 -0.9397
vn 0.3420 0.0000 -0.9397
vn -0.3420 0.0000 -0.9397
vn -0.3420 0.0000 -0.9397
vn -0.3420 0.0000 -0.9397
vn -0.3420 0.0000 -0.9397
vn -0.3420 0.0000 -0.9397
vn -0.3420 0.0000 -0.9397
vn 0.6655 0.0000 -0.7464
vn 0.6655 0.0000 -0.7464
vn 0.6655 0.0000 -0.7464
vn 0.6655 0.0000 -0.7464
vn 0.6655 0.0000 -0.7464
vn 0.6655 0.0000 -0.7464
vn -0.6428 0.0000 -0.7660
vn -0.6428 0.0000 -0.7660
vn -0.6428 0.0000 -0.7660
vn -0.6428 0.0000 -0.7660
vn -0.6428 0.0000 -0.7660
vn -0.6428 0.0000 -0.7660
vn -0.8506 0.0000 0.5258
vn -0.8506 0.0000 0.5258
vn -0.8506 0.0000 0.5258
vn -0.8506 0.0000 0.5258
vn -0.8506 0.0000 0.5258
vn -0.8506 0.0000 0.5258
vn -0.8660 0.0000 -0.5000
vn -0.8660 0.0000 -0.5000
vn -0.8660 0.0000 -0.5000
vn -0.8660 0.0000 -0.5000
vn -0.8660 0.0000 -0.5000
vn -0.8660 0.0000 -0.5000
vn -0.9848 0.0000 -0.1736
vn -0.9848 0.0000 -0.1736
vn -0.9848 0.0000 -0.1736
vn -0.9848 0.0000 -0.1736
vn -0.9848 0.0000 -0.1736
vn -0.9848 0.0000 -0.1736
vn -0.3136 0.0000 0.9495
vn -0.3136 0.0000 0.9495
vn -0.3136 0.0000 0.9495
vn -0.3136 0.0000 0.9495
vn -0.3136 0.0000 0.9495
vn -0.3136 0.0000 0.9495
vn 0.0300 0.0000 -0.9995
vn 0.0300 0.0000 -0.9995
vn 0.0300 0.0000 -0.9995
vn 0.0300 0.0000 -0.9995
vn 0.0300 0.0000 -0.9995
vn 0.0300 0.0000 -0.9995
vn -0.9848 0.0000 0.1736
vn -0.9848 0.0000 0.1736
vn -0.9848 0.0000 0.1736
vn -0.9848 0.0000 0.1736
vn -0.9848 0.0000 0.1736
vn -0.9848 0.0000 0.1736
vn -0.8660 0.0000 0.5000
vn -0.8660 0.0000 0.5000
vn -0.8660 0.0000 0.5000
vn -0.8660 0.0000 0.5000
vn -0.8660 0.0000 0.5000
vn -0.8660 0.0000 0.5000
vn 0.3701 0.0000 0.9290
vn 0.3701 0.0000 0.9290
vn 0.3701 0.0000 0.9290
vn 0.3701 0.0000 0.9290
vn 0.3701 0.0000 0.9290
vn 0.3701 0.0000 0.9290
vn -0.6195 0.0000 -0.7850
vn -0.6195 0.0000 -0.7850
vn -0.6195 0.0000 -0.7850
vn -0.6195 0.0000 -0.7850
vn -0.6195 0.0000 -0.7850
vn -0.6195 0.0000 -0.7850
vn -0.6428 0.0000 0.7660
vn -0.6428 0.0000 0.7660
vn -0.6428 0.0000 0.7660
vn -0.6428 0.0000 0.7660
vn -0.6428 0.0000 0.7660
vn -0.6428 0.0000 0.7660
vn -0.9791 0.0000 -0.2032
vn -0.9791 0.0000 -0.2032
vn -0.9791 0.0000 -0.2032
vn -0.9791 0.0000 -0.2032
vn -0.9791 0.0000 -0.2032
vn -0.9791 0.0000 -0.2032
vn -0.3420 0.0000 0.9397
vn -0.3420 0.0000 0.9397
vn -0.3420 0.0000 0.9397
vn -0.3420 0.0000 0.9397
vn -0.3420 0.0000 0.9397
vn -0.3420 0.0000 0.9397
vn 0.8807 0.0000 0.4738
vn 0.8807 0.0000 0.4738
vn 0.8807 0.0000 0.4738
vn 0.8807 0.0000 0.4738
vn 0.8807 0.0000 0.4738
vn 0.8807 0.0000 0.4738
vn 0.0000 0.0000 1.0000
vn 0.0000 0.0000 1.0000
vn 0.0000 0.0000 1.0000
vn 0.0000 0.0000 1.0000
vn 0.0000 0.0000 1.0000
vn 0.0000 0.0000 1.0000
vn -0.8807 0.0000 0.4738
vn -0.8807 0.0000 0.4738
vn -0.8807 0.0000 0.4738
vn -0.8807 0.0000 0.4738
vn -0.8807 0.0000 0.4738
vn -0.8807 0.0000 0.4738
vn 0.3420 0.0000 0.9397
vn 0.3420 0.0000 0.9397
vn 0.3420 0.0000 0.9397
vn 0.3420 0.0000 0.9397
vn 0.3420 0.0000 0.9397
vn 0.3420 0.0000 0.9397
vn 0.9791 0.0000 -0.2032
vn 0.9791 0.0000 -0.2032
vn 0.9791 0.0000 -0.2032
vn 0.9791 0.0000 -0.2032
vn 0.9791 0.0000 -0.2032
vn 0.9791 0.0000 -0.2032
vn 0.6428 0.0000 0.7660
vn 0.6428 0.0000 0.7660
vn 0.6428 0.0000 0.7660
vn 0.6428 0.0000 0.7660
vn 0.6428 0.0000 0.7660
vn 0.6428 0.0000 0.7660
# 420 vertex normals

vt 0.2621 0.2514 0.0000
vt 0.2855 0.1652 0.0000
vt 0.3411 0.2057 0.0000
vt 0.3314 0.3019 0.0000
vt 0.3499 0.3329 0.0000
vt 0.3956 0.2971 0.0000
vt 0.4252 0.3996 0.0000
vt 0.3868 0.4608 0.0000
vt 0.3910 0.5083 0.0000
vt 0.4375 0.5395 0.0000
vt 0.4272 0.6561 0.0000
vt 0.3782 0.6536 0.0000
vt 0.3661 0.6954 0.0000
vt 0.3917 0.7792 0.0000
vt 0.3464 0.8552 0.0000
vt 0.3096 0.7903 0.0000
vt 0.2869 0.8068 0.0000
vt 0.2796 0.9038 0.0000
vt 0.2204 0.9038 0.0000
vt 0.2131 0.8068 0.0000
vt 0.1904 0.7903 0.0000
vt 0.1536 0.8552 0.0000
vt 0.1083 0.7792 0.0000
vt 0.1339 0.6954 0.0000
vt 0.1218 0.6536 0.0000
vt 0.0728 0.6561 0.0000
vt 0.0625 0.5395 0.0000
vt 0.1090 0.5083 0.0000
vt 0.1132 0.4608 0.0000
vt 0.0748 0.3996 0.0000
vt 0.1044 0.2971 0.0000
vt 0.1501 0.3329 0.0000
vt 0.1686 0.3019 0.0000
vt 0.1589 0.2057 0.0000
vt 0.2145 0.1652 0.0000
vt 0.2379 0.2514 0.0000
vt 0.8237 0.0750 0.0000
vt 0.8042 0.0750 0.0000
vt 0.8042 0.0250 0.0000
vt 0.8237 0.0250 0.0000
vt 0.8694 0.0750 0.0000
vt 0.8694 0.0250 0.0000
vt 0.8776 0.0750 0.0000
vt 0.8776 0.0250 0.0000
vt 0.9025 0.0750 0.0000
vt 0.9025 0.0250 0.0000
vt 0.9265 0.0750 0.0000
vt 0.9265 0.0250 0.0000
vt -0.0235 0.0750 0.0000
vt -0.0235 0.0250 0.0000
vt -0.0151 0.0750 0.0000
vt -0.0151 0.0250 0.0000
vt 0.0138 0.0750 0.0000
vt 0.0138 0.0250 0.0000
vt 0.0975 0.0750 0.0000
vt 0.0406 0.0750 0.0000
vt 0.0406 0.0250 0.0000
vt 0.0975 0.0250 0.0000
vt 0.1117 0.0750 0.0000
vt 0.1117 0.0250 0.0000
vt 0.1695 0.0750 0.0000
vt 0.1459 0.0750 0.0000
vt 0.1459 0.0250 0.0000
vt 0.1695 0.0250 0.0000
vt 0.2305 0.0750 0.0000
vt 0.2305 0.0250 0.0000
vt 0.2541 0.0750 0.0000
vt 0.2541 0.0250 0.0000
vt 0.2883 0.0750 0.0000
vt 0.2883 0.0250 0.0000
vt 0.3025 0.0750 0.0000
vt 0.3025 0.0250 0.0000
vt 0.3594 0.0750 0.0000
vt 0.3594 0.0250 0.0000
vt 0.3862 0.0750 0.0000
vt 0.3862 0.0250 0.0000
vt 0.4151 0.0750 0.0000
vt 0.4151 0.0250 0.0000
vt 0.4735 0.0750 0.0000
vt 0.4235 0.0750 0.0000
vt 0.4235 0.0250 0.0000
vt 0.4735 0.0250 0.0000
vt 0.4975 0.0750 0.0000
vt 0.4975 0.0250 0.0000
vt 0.5224 0.0750 0.0000
vt 0.5224 0.0250 0.0000
vt 0.5763 0.0750 0.0000
vt 0.5306 0.0750 0.0000
vt 0.5306 0.0250 0.0000
vt 0.5763 0.0250 0.0000
vt 0.5958 0.0750 0.0000
vt 0.5958 0.0250 0.0000
vt 0.6188 0.0750 0.0000
vt 0.6188 0.0250 0.0000
vt 0.6298 0.0750 0.0000
vt 0.6298 0.0250 0.0000
vt 0.6737 0.0750 0.0000
vt 0.6737 0.0250 0.0000
vt 0.6888 0.0750 0.0000
vt 0.6888 0.0250 0.0000
vt 0.7112 0.0750 0.0000
vt 0.7112 0.0250 0.0000
vt 0.7263 0.0750 0.0000
vt 0.7263 0.0250 0.0000
vt 0.7702 0.0750 0.0000
vt 0.7702 0.0250 0.0000
vt 0.7812 0.0750 0.0000
vt 0.7812 0.0250 0.0000
vt 0.9765 0.0750 0.0000
vt 0.9765 0.0250 0.0000
vt 0.8411 0.2057 0.0000
vt 0.7855 0.1652 0.0000
vt 0.7621 0.2514 0.0000
vt 0.7379 0.2514 0.0000
vt 0.7145 0.1652 0.0000
vt 0.6589 0.2057 0.0000
vt 0.6686 0.3019 0.0000
vt 0.6501 0.3329 0.0000
vt 0.6044 0.2971 0.0000
vt 0.5748 0.3996 0.0000
vt 0.6132 0.4608 0.0000
vt 0.6090 0.5083 0.0000
vt 0.5625 0.5395 0.0000
vt 0.5728 0.6561 0.0000
vt 0.6218 0.6536 0.0000
vt 0.6339 0.6954 0.0000
vt 0.6083 0.7792 0.0000
vt 0.6536 0.8552 0.0000
vt 0.6904 0.7903 0.0000
vt 0.7131 0.8068 0.0000
vt 0.7204 0.9038 0.0000
vt 0.7796 0.9038 0.0000
vt 0.7869 0.8068 0.0000
vt 0.8096 0.7903 0.0000
vt 0.8464 0.8552 0.0000
vt 0.8917 0.7792 0.0000
vt 0.8661 0.6954 0.0000
vt 0.8782 0.6536 0.0000
vt 0.9272 0.6561 0.0000
vt 0.9375 0.5395 0.0000
vt 0.8910 0.5083 0.0000
vt 0.8868 0.4608 0.0000
vt 0.9252 0.3996 0.0000
vt 0.8956 0.2971 0.0000
vt 0.8499 0.3329 0.0000
vt 0.8314 0.3019 0.0000
# 146 texture coords

g Gear_COL
usemtl wire_087225087
f 34/1/1 35/2/2 36/3/3 
f 34/1/4 36/3/5 37/4/6 
f 38/5/7 8/6/8 39/7/9 
f 38/5/10 39/7/11 9/8/12 
f 38/5/13 9/8/14 40/9/15 
f 40/9/16 41/10/17 10/11/18 
f 40/9/19 10/11/20 42/12/21 
f 38/5/22 40/9/23 42/12/24 
f 38/5/25 42/12/26 11/13/27 
f 43/14/28 44/15/29 45/16/30 
f 11/13/31 43/14/32 45/16/33 
f 38/5/34 11/13/35 45/16/36 
f 37/4/37 38/5/38 45/16/39 
f 34/1/40 37/4/41 45/16/42 
f 46/17/43 47/18/44 23/19/45 
f 46/17/46 23/19/47 24/20/48 
f 45/16/49 46/17/50 24/20/51 
f 45/16/52 24/20/53 25/21/54 
f 25/21/55 26/22/56 1/23/57 
f 25/21/58 1/23/59 27/24/60 
f 45/16/61 25/21/62 27/24/63 
f 45/16/64 27/24/65 28/25/66 
f 2/26/67 29/27/68 30/28/69 
f 28/25/70 2/26/71 30/28/72 
f 45/16/73 28/25/74 30/28/75 
f 45/16/76 30/28/77 31/29/78 
f 3/30/79 32/31/80 4/32/81 
f 31/29/82 3/30/83 4/32/84 
f 45/16/85 31/29/86 4/32/87 
f 45/16/88 4/32/89 33/33/90 
f 33/33/91 5/34/92 6/35/93 
f 33/33/94 6/35/95 7/36/96 
f 45/16/97 33/33/98 7/36/99 
f 34/1/100 45/16/101 7/36/102 
f 64/111/103 15/112/104 63/113/105 
f 61/115/106 60/116/107 59/117/108 
f 62/114/109 61/115/110 59/117/111 
f 58/118/112 14/119/113 57/120/114 
f 58/118/115 57/120/116 56/121/117 
f 13/122/118 55/123/119 54/124/120 
f 13/122/121 54/124/122 53/125/123 
f 51/127/124 50/128/125 49/129/126 
f 52/126/127 51/127/128 49/129/129 
f 12/131/130 72/132/131 71/133/132 
f 48/130/133 12/131/134 71/133/135 
f 48/130/136 71/133/137 70/134/138 
f 49/129/139 48/130/140 70/134/141 
f 52/126/142 49/129/143 70/134/144 
f 53/125/145 52/126/146 70/134/147 
f 13/122/148 53/125/149 70/134/150 
f 56/121/151 13/122/152 70/134/153 
f 58/118/154 56/121/155 70/134/156 
f 59/117/157 58/118/158 70/134/159 
f 62/114/160 59/117/161 70/134/162 
f 63/113/163 62/114/164 70/134/165 
f 70/134/166 22/135/167 69/136/168 
f 70/134/169 69/136/170 21/137/171 
f 68/139/172 67/140/173 19/141/174 
f 20/138/175 68/139/176 19/141/177 
f 66/143/178 17/144/179 16/145/180 
f 18/142/181 66/143/182 16/145/183 
f 19/141/184 18/142/185 16/145/186 
f 20/138/187 19/141/188 16/145/189 
f 21/137/190 20/138/191 16/145/192 
f 70/134/193 21/137/194 16/145/195 
f 70/134/196 16/145/197 65/146/198 
f 63/113/199 70/134/200 65/146/201 
f 64/111/202 63/113/203 65/146/204 
f 16/39/205 17/40/206 8/37/207 
f 8/37/208 38/38/209 16/39/210 
f 17/40/211 66/42/212 39/41/213 
f 39/41/214 8/37/215 17/40/216 
f 66/42/217 18/44/218 9/43/219 
f 9/43/220 39/41/221 66/42/222 
f 18/44/223 19/46/224 40/45/225 
f 40/45/226 9/43/227 18/44/228 
f 19/46/229 67/48/230 41/47/231 
f 41/47/232 40/45/233 19/46/234 
f 67/48/235 68/110/236 10/109/237 
f 10/109/238 41/47/239 67/48/240 
f 68/50/241 20/52/242 42/51/243 
f 42/51/244 10/49/245 68/50/246 
f 20/52/247 21/54/248 11/53/249 
f 11/53/250 42/51/251 20/52/252 
f 69/57/253 22/58/254 44/55/255 
f 44/55/256 43/56/257 69/57/258 
f 22/58/259 70/60/260 45/59/261 
f 45/59/262 44/55/263 22/58/264 
f 21/54/265 69/57/266 43/56/267 
f 43/56/268 11/53/269 21/54/270 
f 71/63/271 72/64/272 47/61/273 
f 47/61/274 46/62/275 71/63/276 
f 72/64/277 12/66/278 23/65/279 
f 23/65/280 47/61/281 72/64/282 
f 12/66/283 48/68/284 24/67/285 
f 24/67/286 23/65/287 12/66/288 
f 70/60/289 71/63/290 46/62/291 
f 46/62/292 45/59/293 70/60/294 
f 48/68/295 49/70/296 25/69/297 
f 25/69/298 24/67/299 48/68/300 
f 49/70/301 50/72/302 26/71/303 
f 26/71/304 25/69/305 49/70/306 
f 50/72/307 51/74/308 1/73/309 
f 1/73/310 26/71/311 50/72/312 
f 51/74/313 52/76/314 27/75/315 
f 27/75/316 1/73/317 51/74/318 
f 52/76/319 53/78/320 28/77/321 
f 28/77/322 27/75/323 52/76/324 
f 54/81/325 55/82/326 29/79/327 
f 29/79/328 2/80/329 54/81/330 
f 55/82/331 13/84/332 30/83/333 
f 30/83/334 29/79/335 55/82/336 
f 53/78/337 54/81/338 2/80/339 
f 2/80/340 28/77/341 53/78/342 
f 13/84/343 56/86/344 31/85/345 
f 31/85/346 30/83/347 13/84/348 
f 57/89/349 14/90/350 32/87/351 
f 32/87/352 3/88/353 57/89/354 
f 14/90/355 58/92/356 4/91/357 
f 4/91/358 32/87/359 14/90/360 
f 56/86/361 57/89/362 3/88/363 
f 3/88/364 31/85/365 56/86/366 
f 58/92/367 59/94/368 33/93/369 
f 33/93/370 4/91/371 58/92/372 
f 59/94/373 60/96/374 5/95/375 
f 5/95/376 33/93/377 59/94/378 
f 60/96/379 61/98/380 6/97/381 
f 6/97/382 5/95/383 60/96/384 
f 61/98/385 62/100/386 7/99/387 
f 7/99/388 6/97/389 61/98/390 
f 62/100/391 63/102/392 34/101/393 
f 34/101/394 7/99/395 62/100/396 
f 63/102/397 15/104/398 35/103/399 
f 35/103/400 34/101/401 63/102/402 
f 15/104/403 64/106/404 36/105/405 
f 36/105/406 35/103/407 15/104/408 
f 64/106/409 65/108/410 37/107/411 
f 37/107/412 36/105/413 64/106/414 
f 65/108/415 16/39/416 38/38/417 
f 38/38/418 37/107/419 65/108/420 
# 140 faces

