# 3ds Max Wavefront OBJ Exporter v0.97b - (c)2007 guruware
# File Created: 11.03.2017 13:54:43

mtllib HexT_COL.mtl

#
# object HexT_COL
#

v  0.4921 0.0312 0.0000
v  0.2460 0.0312 -0.4262
v  -0.2460 0.0312 0.4262
v  0.4921 -0.0312 0.0000
v  -0.4921 -0.0312 0.0000
v  -0.2460 0.0312 -0.4262
v  -0.4921 0.0312 0.0000
v  0.2460 0.0312 0.4262
v  0.2460 -0.0312 -0.4262
v  -0.2460 -0.0312 -0.4262
v  -0.2460 -0.0312 0.4262
v  0.2460 -0.0312 0.4262
# 12 vertices

vn 0.0000 1.0000 -0.0000
vn 0.0000 1.0000 -0.0000
vn 0.0000 1.0000 -0.0000
vn 0.0000 1.0000 -0.0000
vn 0.0000 1.0000 -0.0000
vn 0.0000 1.0000 -0.0000
vn 0.0000 1.0000 -0.0000
vn 0.0000 1.0000 -0.0000
vn 0.0000 1.0000 -0.0000
vn 0.0000 1.0000 -0.0000
vn 0.0000 1.0000 -0.0000
vn 0.0000 1.0000 -0.0000
vn 0.0000 -1.0000 -0.0000
vn 0.0000 -1.0000 -0.0000
vn 0.0000 -1.0000 -0.0000
vn 0.0000 -1.0000 -0.0000
vn 0.0000 -1.0000 -0.0000
vn 0.0000 -1.0000 -0.0000
vn 0.0000 -1.0000 -0.0000
vn 0.0000 -1.0000 -0.0000
vn 0.0000 -1.0000 -0.0000
vn 0.0000 -1.0000 -0.0000
vn 0.0000 -1.0000 -0.0000
vn 0.0000 -1.0000 -0.0000
vn -0.8660 0.0000 0.5000
vn -0.8660 0.0000 0.5000
vn -0.8660 0.0000 0.5000
vn -0.8660 0.0000 0.5000
vn -0.8660 0.0000 0.5000
vn -0.8660 0.0000 0.5000
vn 0.0000 0.0000 1.0000
vn 0.0000 0.0000 1.0000
vn 0.0000 0.0000 1.0000
vn 0.0000 0.0000 1.0000
vn 0.0000 0.0000 1.0000
vn 0.0000 0.0000 1.0000
vn 0.8660 0.0000 0.5000
vn 0.8660 0.0000 0.5000
vn 0.8660 0.0000 0.5000
vn 0.8660 0.0000 0.5000
vn 0.8660 0.0000 0.5000
vn 0.8660 0.0000 0.5000
vn 0.8660 0.0000 -0.5000
vn 0.8660 0.0000 -0.5000
vn 0.8660 0.0000 -0.5000
vn 0.8660 0.0000 -0.5000
vn 0.8660 0.0000 -0.5000
vn 0.8660 0.0000 -0.5000
vn -0.0000 0.0000 -1.0000
vn -0.0000 0.0000 -1.0000
vn -0.0000 0.0000 -1.0000
vn -0.0000 0.0000 -1.0000
vn -0.0000 0.0000 -1.0000
vn -0.0000 0.0000 -1.0000
vn -0.8660 0.0000 -0.5000
vn -0.8660 0.0000 -0.5000
vn -0.8660 0.0000 -0.5000
vn -0.8660 0.0000 -0.5000
vn -0.8660 0.0000 -0.5000
vn -0.8660 0.0000 -0.5000
# 60 vertex normals

vt 0.3438 0.2087 0.0000
vt 0.4375 0.5335 0.0000
vt 0.3438 0.8583 0.0000
vt 0.1563 0.8583 0.0000
vt 0.0625 0.5335 0.0000
vt 0.1563 0.2087 0.0000
vt 0.6276 0.0750 0.0000
vt 0.4760 0.0750 0.0000
vt 0.4760 0.0250 0.0000
vt 0.6276 0.0250 0.0000
vt 0.7724 0.0750 0.0000
vt 0.7724 0.0250 0.0000
vt 0.9240 0.0750 0.0000
vt 0.9240 0.0250 0.0000
vt 0.1004 0.0750 0.0000
vt 0.1004 0.0250 0.0000
vt 0.2996 0.0750 0.0000
vt 0.2996 0.0250 0.0000
vt 1.1004 0.0750 0.0000
vt 1.1004 0.0250 0.0000
vt 0.8438 0.8583 0.0000
vt 0.9375 0.5335 0.0000
vt 0.8438 0.2087 0.0000
vt 0.6563 0.2087 0.0000
vt 0.5625 0.5335 0.0000
vt 0.6563 0.8583 0.0000
# 26 texture coords

g HexT_COL
usemtl wire_224086086
f 8/1/1 1/2/2 2/3/3 
f 8/1/4 2/3/5 6/4/6 
f 8/1/7 6/4/8 7/5/9 
f 8/1/10 7/5/11 3/6/12 
f 9/21/13 4/22/14 12/23/15 
f 12/23/16 11/24/17 5/25/18 
f 12/23/19 5/25/20 10/26/21 
f 9/21/22 12/23/23 10/26/24 
f 5/9/25 11/10/26 3/7/27 
f 3/7/28 7/8/29 5/9/30 
f 11/10/31 12/12/32 8/11/33 
f 8/11/34 3/7/35 11/10/36 
f 12/12/37 4/14/38 1/13/39 
f 1/13/40 8/11/41 12/12/42 
f 4/14/43 9/20/44 2/19/45 
f 2/19/46 1/13/47 4/14/48 
f 9/16/49 10/18/50 6/17/51 
f 6/17/52 2/15/53 9/16/54 
f 10/18/55 5/9/56 7/8/57 
f 7/8/58 6/17/59 10/18/60 
# 20 faces

