# 3ds Max Wavefront OBJ Exporter v0.97b - (c)2007 guruware
# File Created: 11.03.2017 13:54:46

mtllib TruncTri_COL.mtl

#
# object TruncTri_COL
#

v  -0.4921 0.0312 0.2062
v  -0.4246 0.0312 0.3231
v  0.0675 0.0312 -0.5292
v  -0.4921 -0.0312 0.2062
v  -0.4246 -0.0312 0.3231
v  0.4246 -0.0312 0.3231
v  0.4921 -0.0312 0.2062
v  -0.0675 0.0312 -0.5292
v  0.4246 0.0312 0.3231
v  0.4921 0.0312 0.2062
v  -0.0675 -0.0312 -0.5292
v  0.0675 -0.0312 -0.5292
# 12 vertices

vn 0.0000 1.0000 -0.0000
vn 0.0000 1.0000 -0.0000
vn 0.0000 1.0000 -0.0000
vn 0.0000 1.0000 -0.0000
vn 0.0000 1.0000 -0.0000
vn 0.0000 1.0000 -0.0000
vn 0.0000 1.0000 -0.0000
vn 0.0000 1.0000 -0.0000
vn 0.0000 1.0000 -0.0000
vn 0.0000 1.0000 -0.0000
vn 0.0000 1.0000 -0.0000
vn 0.0000 1.0000 -0.0000
vn 0.0000 -1.0000 -0.0000
vn 0.0000 -1.0000 -0.0000
vn 0.0000 -1.0000 -0.0000
vn 0.0000 -1.0000 -0.0000
vn 0.0000 -1.0000 -0.0000
vn 0.0000 -1.0000 -0.0000
vn 0.0000 -1.0000 -0.0000
vn 0.0000 -1.0000 -0.0000
vn 0.0000 -1.0000 -0.0000
vn 0.0000 -1.0000 -0.0000
vn 0.0000 -1.0000 -0.0000
vn 0.0000 -1.0000 -0.0000
vn 0.8660 0.0000 -0.5000
vn 0.8660 0.0000 -0.5000
vn 0.8660 0.0000 -0.5000
vn 0.8660 0.0000 -0.5000
vn 0.8660 0.0000 -0.5000
vn 0.8660 0.0000 -0.5000
vn -0.0000 0.0000 -1.0000
vn -0.0000 0.0000 -1.0000
vn -0.0000 0.0000 -1.0000
vn -0.0000 0.0000 -1.0000
vn -0.0000 0.0000 -1.0000
vn -0.0000 0.0000 -1.0000
vn -0.8660 0.0000 -0.5000
vn -0.8660 0.0000 -0.5000
vn -0.8660 0.0000 -0.5000
vn -0.8660 0.0000 -0.5000
vn -0.8660 0.0000 -0.5000
vn -0.8660 0.0000 -0.5000
vn -0.8660 0.0000 0.5000
vn -0.8660 0.0000 0.5000
vn -0.8660 0.0000 0.5000
vn -0.8660 0.0000 0.5000
vn -0.8660 0.0000 0.5000
vn -0.8660 0.0000 0.5000
vn 0.0000 0.0000 1.0000
vn 0.0000 0.0000 1.0000
vn 0.0000 0.0000 1.0000
vn 0.0000 0.0000 1.0000
vn 0.0000 0.0000 1.0000
vn 0.0000 0.0000 1.0000
vn 0.8660 0.0000 0.5000
vn 0.8660 0.0000 0.5000
vn 0.8660 0.0000 0.5000
vn 0.8660 0.0000 0.5000
vn 0.8660 0.0000 0.5000
vn 0.8660 0.0000 0.5000
# 60 vertex normals

vt 0.4375 0.3788 0.0000
vt 0.2768 0.9356 0.0000
vt 0.2232 0.9356 0.0000
vt 0.0625 0.3788 0.0000
vt 0.0893 0.2861 0.0000
vt 0.4107 0.2861 0.0000
vt 0.1748 0.0750 0.0000
vt 0.8672 0.0750 0.0000
vt 0.8672 0.0250 0.0000
vt 0.1748 0.0250 0.0000
vt 0.2252 0.0750 0.0000
vt 0.2252 0.0250 0.0000
vt 0.5328 0.0750 0.0000
vt 0.5328 0.0250 0.0000
vt 0.5713 0.0750 0.0000
vt 0.5713 0.0250 0.0000
vt 0.8287 0.0750 0.0000
vt 0.8287 0.0250 0.0000
vt 1.1748 0.0750 0.0000
vt 1.1748 0.0250 0.0000
vt 0.7232 0.9356 0.0000
vt 0.7768 0.9356 0.0000
vt 0.9375 0.3788 0.0000
vt 0.9107 0.2861 0.0000
vt 0.5893 0.2861 0.0000
vt 0.5625 0.3788 0.0000
# 26 texture coords

g TruncTri_COL
usemtl wire_224086086
f 10/1/1 3/2/2 8/3/3 
f 10/1/4 8/3/5 1/4/6 
f 10/1/7 1/4/8 2/5/9 
f 10/1/10 2/5/11 9/6/12 
f 11/21/13 12/22/14 7/23/15 
f 7/23/16 6/24/17 5/25/18 
f 7/23/19 5/25/20 4/26/21 
f 11/21/22 7/23/23 4/26/24 
f 7/9/25 12/20/26 3/19/27 
f 3/19/28 10/8/29 7/9/30 
f 12/10/31 11/12/32 8/11/33 
f 8/11/34 3/7/35 12/10/36 
f 11/12/37 4/14/38 1/13/39 
f 1/13/40 8/11/41 11/12/42 
f 4/14/43 5/16/44 2/15/45 
f 2/15/46 1/13/47 4/14/48 
f 5/16/49 6/18/50 9/17/51 
f 9/17/52 2/15/53 5/16/54 
f 6/18/55 7/9/56 10/8/57 
f 10/8/58 9/17/59 6/18/60 
# 20 faces

