# 3ds Max Wavefront OBJ Exporter v0.97b - (c)2007 guruware
# File Created: 21.03.2017 21:32:52

mtllib b4.mtl

#
# object d4
#

v  0.0000 0.3633 0.0597
v  0.4208 -0.3555 0.3027
v  -0.4208 -0.3555 0.3027
v  -0.0349 0.4141 0.0201
v  0.0000 0.4412 -0.0000
v  0.0349 0.4141 0.0201
v  -0.4782 -0.3609 0.2782
v  -0.4516 -0.4198 0.3018
v  0.4516 -0.4198 0.3018
v  0.4958 -0.4126 0.2881
v  0.4787 -0.3609 0.2782
v  -0.4953 -0.4126 0.2881
v  0.0517 0.3633 -0.0299
v  0.0517 -0.3555 -0.5157
v  0.4725 -0.3555 0.2131
v  0.4871 -0.4198 0.2402
v  0.0355 -0.4198 -0.5420
v  0.0000 -0.4126 -0.5751
v  0.0000 -0.3609 -0.5553
v  0.0000 0.4037 -0.0403
v  0.0349 0.4141 0.0201
v  0.0000 0.4412 -0.0000
v  0.4787 -0.3609 0.2782
v  0.4958 -0.4126 0.2881
v  -0.0517 0.3633 -0.0299
v  -0.4725 -0.3555 0.2131
v  -0.0517 -0.3555 -0.5157
v  -0.0355 -0.4198 -0.5420
v  -0.4871 -0.4198 0.2402
v  -0.4953 -0.4126 0.2881
v  -0.4782 -0.3609 0.2782
v  0.0000 -0.3609 -0.5553
v  0.0000 -0.4126 -0.5751
v  -0.0349 0.4141 0.0201
v  0.0000 0.4037 -0.0403
v  0.0000 0.4412 -0.0000
v  -0.4177 -0.4412 0.2412
v  0.4177 -0.4412 0.2412
v  0.0000 -0.4412 -0.4823
v  0.4516 -0.4198 0.3018
v  0.4871 -0.4198 0.2402
v  0.4958 -0.4126 0.2881
v  -0.4516 -0.4198 0.3018
v  -0.4871 -0.4198 0.2402
v  -0.4953 -0.4126 0.2881
v  0.0355 -0.4198 -0.5420
v  -0.0355 -0.4198 -0.5420
v  0.0000 -0.4126 -0.5751
# 48 vertices

vn -0.2010 0.2486 0.9475
vn 0.1905 0.2577 0.9473
vn 0.0031 0.4728 0.8811
vn 0.0031 0.4728 0.8811
vn -0.1178 0.5602 0.8200
vn -0.2010 0.2486 0.9475
vn -0.1178 0.5602 0.8200
vn 0.0031 0.4728 0.8811
vn 0.0000 0.6082 0.7938
vn 0.1182 0.5581 0.8213
vn 0.0000 0.6082 0.7938
vn 0.0031 0.4728 0.8811
vn -0.3608 0.3181 0.8767
vn -0.2010 0.2486 0.9475
vn -0.1178 0.5602 0.8200
vn -0.2010 0.2486 0.9475
vn -0.2066 0.1347 0.9691
vn 0.1905 0.2577 0.9473
vn -0.2010 0.2486 0.9475
vn -0.3608 0.3181 0.8767
vn -0.2066 0.1347 0.9691
vn 0.1738 0.0697 0.9823
vn 0.1905 0.2577 0.9473
vn -0.2066 0.1347 0.9691
vn 0.1738 0.0697 0.9823
vn 0.3331 0.2022 0.9209
vn 0.1905 0.2577 0.9473
vn 0.3886 0.3706 0.8436
vn 0.1905 0.2577 0.9473
vn 0.3331 0.2022 0.9209
vn 0.1182 0.5581 0.8213
vn 0.0031 0.4728 0.8811
vn 0.3886 0.3706 0.8436
vn 0.1905 0.2577 0.9473
vn 0.3886 0.3706 0.8436
vn 0.0031 0.4728 0.8811
vn -0.2493 0.2605 0.9327
vn -0.2066 0.1347 0.9691
vn -0.3608 0.3181 0.8767
vn 0.9236 0.2522 -0.2888
vn 0.7276 0.2561 -0.6364
vn 0.7341 0.4953 -0.4644
vn 0.9236 0.2522 -0.2888
vn 0.9485 0.1411 -0.2835
vn 0.7276 0.2561 -0.6364
vn 0.7646 0.0691 -0.6408
vn 0.7276 0.2561 -0.6364
vn 0.9485 0.1411 -0.2835
vn 0.7646 0.0691 -0.6408
vn 0.6330 0.2031 -0.7471
vn 0.7276 0.2561 -0.6364
vn 0.5406 0.3695 -0.7558
vn 0.7276 0.2561 -0.6364
vn 0.6330 0.2031 -0.7471
vn 0.7276 0.2561 -0.6364
vn 0.5406 0.3695 -0.7558
vn 0.7341 0.4953 -0.4644
vn 0.6003 0.5621 -0.5689
vn 0.7341 0.4953 -0.4644
vn 0.5406 0.3695 -0.7558
vn 0.7341 0.4953 -0.4644
vn 0.6003 0.5621 -0.5689
vn 0.7451 0.5554 -0.3693
vn 0.7341 0.4953 -0.4644
vn 0.7451 0.5554 -0.3693
vn 0.9236 0.2522 -0.2888
vn 0.6932 0.5276 -0.4910
vn 0.7451 0.5554 -0.3693
vn 0.6003 0.5621 -0.5689
vn 0.9236 0.2522 -0.2888
vn 0.9394 0.3285 -0.0984
vn 0.9485 0.1411 -0.2835
vn 0.9394 0.3285 -0.0984
vn 0.9236 0.2522 -0.2888
vn 0.7451 0.5554 -0.3693
vn 0.9395 0.2706 -0.2100
vn 0.9485 0.1411 -0.2835
vn 0.9394 0.3285 -0.0984
vn -0.7225 0.2490 -0.6450
vn -0.9193 0.2630 -0.2929
vn -0.7370 0.4947 -0.4605
vn -0.7225 0.2490 -0.6450
vn -0.7376 0.1325 -0.6621
vn -0.9193 0.2630 -0.2929
vn -0.9467 0.0843 -0.3109
vn -0.9193 0.2630 -0.2929
vn -0.7376 0.1325 -0.6621
vn -0.9467 0.0843 -0.3109
vn -0.9672 0.2195 -0.1276
vn -0.9193 0.2630 -0.2929
vn -0.9239 0.3789 -0.0530
vn -0.9193 0.2630 -0.2929
vn -0.9672 0.2195 -0.1276
vn -0.9193 0.2630 -0.2929
vn -0.9239 0.3789 -0.0530
vn -0.7370 0.4947 -0.4605
vn -0.7225 0.2490 -0.6450
vn -0.5866 0.3182 -0.7448
vn -0.7376 0.1325 -0.6621
vn -0.6857 0.2596 -0.6800
vn -0.7376 0.1325 -0.6621
vn -0.5866 0.3182 -0.7448
vn -0.7469 0.5527 -0.3697
vn -0.7370 0.4947 -0.4605
vn -0.9239 0.3789 -0.0530
vn -0.7370 0.4947 -0.4605
vn -0.7469 0.5527 -0.3697
vn -0.6001 0.5625 -0.5687
vn -0.7370 0.4947 -0.4605
vn -0.6001 0.5625 -0.5687
vn -0.7225 0.2490 -0.6450
vn -0.5866 0.3182 -0.7448
vn -0.7225 0.2490 -0.6450
vn -0.6001 0.5625 -0.5687
vn -0.6932 0.5276 -0.4910
vn -0.6001 0.5625 -0.5687
vn -0.7469 0.5527 -0.3697
vn 0.0000 -0.9850 -0.1725
vn 0.1494 -0.9850 0.0863
vn -0.1494 -0.9850 0.0863
vn 0.1494 -0.9850 0.0863
vn 0.1590 -0.9629 0.2180
vn -0.1494 -0.9850 0.0863
vn 0.1494 -0.9850 0.0863
vn 0.2695 -0.9626 0.0274
vn 0.1590 -0.9629 0.2180
vn 0.1919 -0.9751 0.1108
vn 0.1590 -0.9629 0.2180
vn 0.2695 -0.9626 0.0274
vn -0.1595 -0.9627 0.2184
vn -0.1494 -0.9850 0.0863
vn 0.1590 -0.9629 0.2180
vn -0.1494 -0.9850 0.0863
vn -0.1595 -0.9627 0.2184
vn -0.2702 -0.9624 0.0275
vn -0.1494 -0.9850 0.0863
vn -0.2702 -0.9624 0.0275
vn 0.0000 -0.9850 -0.1725
vn -0.1941 -0.9746 0.1120
vn -0.2702 -0.9624 0.0275
vn -0.1595 -0.9627 0.2184
vn 0.0000 -0.9850 -0.1725
vn 0.1092 -0.9636 -0.2438
vn 0.1494 -0.9850 0.0863
vn 0.2695 -0.9626 0.0274
vn 0.1494 -0.9850 0.0863
vn 0.1092 -0.9636 -0.2438
vn 0.0000 -0.9850 -0.1725
vn -0.1092 -0.9636 -0.2438
vn 0.1092 -0.9636 -0.2438
vn -0.1092 -0.9636 -0.2438
vn 0.0000 -0.9850 -0.1725
vn -0.2702 -0.9624 0.0275
vn 0.0000 -0.9775 -0.2108
vn 0.1092 -0.9636 -0.2438
vn -0.1092 -0.9636 -0.2438
# 156 vertex normals

vt 0.7542 0.4024 0.0000
vt 0.9594 0.0325 0.0000
vt 0.5491 0.0325 0.0000
vt 0.7367 0.4333 0.0000
vt 0.7542 0.4500 0.0000
vt 0.7718 0.4333 0.0000
vt 0.5189 0.0339 0.0000
vt 0.5332 0.0020 0.0000
vt 0.9753 0.0020 0.0000
vt 0.9980 0.0074 0.0000
vt 0.9898 0.0339 0.0000
vt 0.5107 0.0074 0.0000
vt 0.2434 0.8734 0.0000
vt 0.4521 0.5053 0.0000
vt 0.0417 0.5014 0.0000
vt 0.0260 0.4708 0.0000
vt 0.4683 0.4750 0.0000
vt 0.4921 0.4807 0.0000
vt 0.4836 0.5071 0.0000
vt 0.2612 0.9001 0.0000
vt 0.2257 0.9040 0.0000
vt 0.2431 0.9208 0.0000
vt 0.0101 0.5030 0.0000
vt 0.0020 0.4765 0.0000
vt 0.2511 0.4048 0.0000
vt 0.4525 0.0326 0.0000
vt 0.0420 0.0369 0.0000
vt 0.0258 0.0066 0.0000
vt 0.4681 0.0020 0.0000
vt 0.4920 0.0077 0.0000
vt 0.4840 0.0342 0.0000
vt 0.0106 0.0387 0.0000
vt 0.0020 0.0124 0.0000
vt 0.2689 0.4354 0.0000
vt 0.2333 0.4315 0.0000
vt 0.2514 0.4522 0.0000
vt 0.5505 0.8704 0.0000
vt 0.9575 0.8704 0.0000
vt 0.7540 0.5178 0.0000
vt 0.9747 0.9010 0.0000
vt 0.9926 0.8700 0.0000
vt 0.9970 0.8941 0.0000
vt 0.5329 0.9010 0.0000
vt 0.5154 0.8698 0.0000
vt 0.5107 0.8936 0.0000
vt 0.7719 0.4875 0.0000
vt 0.7361 0.4875 0.0000
vt 0.7540 0.4708 0.0000
# 48 texture coords

g d4
usemtl wire_177028149
f 3/3/1 2/2/2 1/1/3 
f 1/1/4 4/4/5 3/3/6 
f 4/4/7 1/1/8 5/5/9 
f 6/6/10 5/5/11 1/1/12 
f 7/7/13 3/3/14 4/4/15 
f 3/3/16 8/8/17 2/2/18 
f 3/3/19 7/7/20 8/8/21 
f 9/9/22 2/2/23 8/8/24 
f 9/9/25 10/10/26 2/2/27 
f 11/11/28 2/2/29 10/10/30 
f 6/6/31 1/1/32 11/11/33 
f 2/2/34 11/11/35 1/1/36 
f 12/12/37 8/8/38 7/7/39 
f 15/15/40 14/14/41 13/13/42 
f 15/15/43 16/16/44 14/14/45 
f 17/17/46 14/14/47 16/16/48 
f 17/17/49 18/18/50 14/14/51 
f 19/19/52 14/14/53 18/18/54 
f 14/14/55 19/19/56 13/13/57 
f 20/20/58 13/13/59 19/19/60 
f 13/13/61 20/20/62 21/21/63 
f 13/13/64 21/21/65 15/15/66 
f 22/22/67 21/21/68 20/20/69 
f 15/15/70 23/23/71 16/16/72 
f 23/23/73 15/15/74 21/21/75 
f 24/24/76 16/16/77 23/23/78 
f 27/27/79 26/26/80 25/25/81 
f 27/27/82 28/28/83 26/26/84 
f 29/29/85 26/26/86 28/28/87 
f 29/29/88 30/30/89 26/26/90 
f 31/31/91 26/26/92 30/30/93 
f 26/26/94 31/31/95 25/25/96 
f 27/27/97 32/32/98 28/28/99 
f 33/33/100 28/28/101 32/32/102 
f 34/34/103 25/25/104 31/31/105 
f 25/25/106 34/34/107 35/35/108 
f 25/25/109 35/35/110 27/27/111 
f 32/32/112 27/27/113 35/35/114 
f 36/36/115 35/35/116 34/34/117 
f 39/39/118 38/38/119 37/37/120 
f 38/38/121 40/40/122 37/37/123 
f 38/38/124 41/41/125 40/40/126 
f 42/42/127 40/40/128 41/41/129 
f 43/43/130 37/37/131 40/40/132 
f 37/37/133 43/43/134 44/44/135 
f 37/37/136 44/44/137 39/39/138 
f 45/45/139 44/44/140 43/43/141 
f 39/39/142 46/46/143 38/38/144 
f 41/41/145 38/38/146 46/46/147 
f 39/39/148 47/47/149 46/46/150 
f 47/47/151 39/39/152 44/44/153 
f 48/48/154 46/46/155 47/47/156 
# 52 faces

