# 3ds Max Wavefront OBJ Exporter v0.97b - (c)2007 guruware
# File Created: 08.03.2017 22:25:53

mtllib d10p_COL.mtl

#
# object d10p_COL
#

v  0.2237 0.0460 -0.3079
v  0.0000 -0.0460 -0.3806
v  -0.2237 0.0460 -0.3079
v  -0.3619 0.0460 0.1176
v  -0.3619 -0.0460 -0.1176
v  -0.2237 -0.0460 0.3079
v  -0.0000 0.0460 0.3806
v  0.2237 -0.0460 0.3079
v  0.3619 -0.0460 -0.1176
v  0.3619 0.0460 0.1176
v  0.0000 0.4357 -0.0000
v  0.0000 -0.4357 0.0000
# 12 vertices

vn -0.4612 -0.6200 -0.6348
vn -0.4612 -0.6200 -0.6348
vn -0.4612 -0.6200 -0.6348
vn -0.4612 -0.6200 -0.6348
vn -0.4612 -0.6200 -0.6348
vn -0.4612 -0.6200 -0.6348
vn -0.7462 -0.6200 0.2425
vn -0.7462 -0.6200 0.2425
vn -0.7462 -0.6200 0.2425
vn -0.7462 -0.6200 0.2425
vn -0.7462 -0.6200 0.2425
vn -0.7462 -0.6200 0.2425
vn -0.0000 -0.6200 0.7846
vn -0.0000 -0.6200 0.7846
vn -0.0000 -0.6200 0.7846
vn -0.0000 -0.6200 0.7846
vn -0.0000 -0.6200 0.7846
vn -0.0000 -0.6200 0.7846
vn 0.7462 -0.6200 0.2425
vn 0.7462 -0.6200 0.2425
vn 0.7462 -0.6200 0.2425
vn 0.7462 -0.6200 0.2425
vn 0.7462 -0.6200 0.2425
vn 0.7462 -0.6200 0.2425
vn 0.4612 -0.6200 -0.6348
vn 0.4612 -0.6200 -0.6348
vn 0.4612 -0.6200 -0.6348
vn 0.4612 -0.6200 -0.6348
vn 0.4612 -0.6200 -0.6348
vn 0.4612 -0.6200 -0.6348
vn -0.7462 0.6200 -0.2425
vn -0.7462 0.6200 -0.2425
vn -0.7462 0.6200 -0.2425
vn -0.7462 0.6200 -0.2425
vn -0.7462 0.6200 -0.2425
vn -0.7462 0.6200 -0.2425
vn -0.4612 0.6200 0.6348
vn -0.4612 0.6200 0.6348
vn -0.4612 0.6200 0.6348
vn -0.4612 0.6200 0.6348
vn -0.4612 0.6200 0.6348
vn -0.4612 0.6200 0.6348
vn 0.4612 0.6200 0.6348
vn 0.4612 0.6200 0.6348
vn 0.4612 0.6200 0.6348
vn 0.4612 0.6200 0.6348
vn 0.4612 0.6200 0.6348
vn 0.4612 0.6200 0.6348
vn 0.7462 0.6200 -0.2425
vn 0.7462 0.6200 -0.2425
vn 0.7462 0.6200 -0.2425
vn 0.7462 0.6200 -0.2425
vn 0.7462 0.6200 -0.2425
vn 0.7462 0.6200 -0.2425
vn 0.0000 0.6200 -0.7846
vn 0.0000 0.6200 -0.7846
vn 0.0000 0.6200 -0.7846
vn 0.0000 0.6200 -0.7846
vn 0.0000 0.6200 -0.7846
vn 0.0000 0.6200 -0.7846
# 60 vertex normals

vt 0.6539 0.4772 0.0000
vt 0.5427 0.4189 0.0000
vt 0.6539 0.1721 0.0000
vt 0.7651 0.4189 0.0000
vt 0.2000 0.5721 0.0000
vt 0.3112 0.8189 0.0000
vt 0.2000 0.8772 0.0000
vt 0.0888 0.8189 0.0000
vt 0.6112 0.8189 0.0000
vt 0.5000 0.8772 0.0000
vt 0.3888 0.8189 0.0000
vt 0.5000 0.5721 0.0000
vt 0.8000 0.5721 0.0000
vt 0.9112 0.8189 0.0000
vt 0.8000 0.8772 0.0000
vt 0.6888 0.8189 0.0000
vt 0.2427 0.4189 0.0000
vt 0.3539 0.1721 0.0000
vt 0.4651 0.4189 0.0000
vt 0.3539 0.4772 0.0000
vt 0.6888 0.1811 0.0000
vt 0.8000 0.1228 0.0000
vt 0.9112 0.1811 0.0000
vt 0.8000 0.4279 0.0000
vt 0.2349 0.5811 0.0000
vt 0.3461 0.5228 0.0000
vt 0.4573 0.5811 0.0000
vt 0.3461 0.8279 0.0000
vt 0.5349 0.5811 0.0000
vt 0.6461 0.5228 0.0000
vt 0.7573 0.5811 0.0000
vt 0.6461 0.8279 0.0000
vt 0.0888 0.1811 0.0000
vt 0.2000 0.1228 0.0000
vt 0.3112 0.1811 0.0000
vt 0.2000 0.4279 0.0000
vt 0.3888 0.1811 0.0000
vt 0.5000 0.1228 0.0000
vt 0.6112 0.1811 0.0000
vt 0.5000 0.4279 0.0000
# 40 texture coords

g d10p_COL
usemtl wire_255255255
f 3/1/1 2/2/2 12/3/3 
f 12/3/4 5/4/5 3/1/6 
f 12/5/7 6/6/8 4/7/9 
f 4/7/10 5/8/11 12/5/12 
f 7/10/13 6/11/14 12/12/15 
f 12/12/16 8/9/17 7/10/18 
f 12/13/19 9/14/20 10/15/21 
f 10/15/22 8/16/23 12/13/24 
f 9/17/25 12/18/26 2/19/27 
f 2/19/28 1/20/29 9/17/30 
f 3/21/31 5/22/32 4/23/33 
f 4/23/34 11/24/35 3/21/36 
f 6/26/37 7/27/38 11/28/39 
f 11/28/40 4/25/41 6/26/42 
f 7/29/43 8/30/44 10/31/45 
f 10/31/46 11/32/47 7/29/48 
f 10/33/49 9/34/50 1/35/51 
f 1/35/52 11/36/53 10/33/54 
f 2/38/55 3/39/56 11/40/57 
f 11/40/58 1/37/59 2/38/60 
# 20 faces

