# 3ds Max Wavefront OBJ Exporter v0.97b - (c)2007 guruware
# File Created: 08.03.2017 22:25:56

mtllib d20p_COL.mtl

#
# object d20p_COL
#

v  0.0000 0.3750 -0.0000
v  0.3354 0.1677 -0.0000
v  0.1036 0.1677 -0.3190
v  -0.2714 0.1677 -0.1971
v  -0.2714 0.1677 0.1971
v  0.1036 0.1677 0.3190
v  0.2714 -0.1677 -0.1971
v  -0.1036 -0.1677 -0.3190
v  -0.3354 -0.1677 0.0000
v  -0.1036 -0.1677 0.3190
v  0.2714 -0.1677 0.1971
v  0.0000 -0.3750 -0.0000
# 12 vertices

vn 0.4911 0.7947 -0.3568
vn 0.4911 0.7947 -0.3568
vn 0.4911 0.7947 -0.3568
vn -0.1876 0.7947 -0.5774
vn -0.1876 0.7947 -0.5774
vn -0.1876 0.7947 -0.5774
vn -0.6071 0.7947 0.0000
vn -0.6071 0.7947 0.0000
vn -0.6071 0.7947 0.0000
vn -0.1876 0.7947 0.5774
vn -0.1876 0.7947 0.5774
vn -0.1876 0.7947 0.5774
vn 0.4911 0.7947 0.3568
vn 0.4911 0.7947 0.3568
vn 0.4911 0.7947 0.3568
vn 0.9822 -0.1876 0.0000
vn 0.9822 -0.1876 0.0000
vn 0.9822 -0.1876 0.0000
vn 0.3035 -0.1876 -0.9342
vn 0.3035 -0.1876 -0.9342
vn 0.3035 -0.1876 -0.9342
vn -0.7947 -0.1876 -0.5774
vn -0.7947 -0.1876 -0.5774
vn -0.7947 -0.1876 -0.5774
vn -0.7947 -0.1876 0.5774
vn -0.7947 -0.1876 0.5774
vn -0.7947 -0.1876 0.5774
vn 0.3035 -0.1876 0.9342
vn 0.3035 -0.1876 0.9342
vn 0.3035 -0.1876 0.9342
vn 0.7947 0.1876 -0.5774
vn 0.7947 0.1876 -0.5774
vn 0.7947 0.1876 -0.5774
vn -0.3035 0.1876 -0.9342
vn -0.3035 0.1876 -0.9342
vn -0.3035 0.1876 -0.9342
vn -0.9822 0.1876 0.0000
vn -0.9822 0.1876 0.0000
vn -0.9822 0.1876 0.0000
vn -0.3035 0.1876 0.9342
vn -0.3035 0.1876 0.9342
vn -0.3035 0.1876 0.9342
vn 0.7947 0.1876 0.5774
vn 0.7947 0.1876 0.5774
vn 0.7947 0.1876 0.5774
vn 0.1876 -0.7947 -0.5774
vn 0.1876 -0.7947 -0.5774
vn 0.1876 -0.7947 -0.5774
vn -0.4911 -0.7947 -0.3568
vn -0.4911 -0.7947 -0.3568
vn -0.4911 -0.7947 -0.3568
vn -0.4911 -0.7947 0.3568
vn -0.4911 -0.7947 0.3568
vn -0.4911 -0.7947 0.3568
vn 0.1876 -0.7947 0.5774
vn 0.1876 -0.7947 0.5774
vn 0.1876 -0.7947 0.5774
vn 0.6071 -0.7947 0.0000
vn 0.6071 -0.7947 0.0000
vn 0.6071 -0.7947 0.0000
# 60 vertex normals

vt 0.8398 0.5848 0.0000
vt 0.7418 0.4152 0.0000
vt 0.9377 0.4152 0.0000
vt 0.3867 0.1843 0.0000
vt 0.2888 0.0146 0.0000
vt 0.4847 0.0146 0.0000
vt 0.1602 0.9854 0.0000
vt 0.0623 0.8157 0.0000
vt 0.2582 0.8157 0.0000
vt 0.3867 0.9854 0.0000
vt 0.2888 0.8157 0.0000
vt 0.4847 0.8157 0.0000
vt 0.6133 0.7851 0.0000
vt 0.5153 0.6154 0.0000
vt 0.7112 0.6154 0.0000
vt 0.6133 0.1843 0.0000
vt 0.5153 0.0146 0.0000
vt 0.7112 0.0146 0.0000
vt 0.6133 0.5848 0.0000
vt 0.5153 0.4152 0.0000
vt 0.7112 0.4152 0.0000
vt 0.8398 0.3846 0.0000
vt 0.7418 0.2149 0.0000
vt 0.9377 0.2149 0.0000
vt 0.8398 0.1843 0.0000
vt 0.7418 0.0146 0.0000
vt 0.9377 0.0146 0.0000
vt 0.6133 0.9854 0.0000
vt 0.5153 0.8157 0.0000
vt 0.7112 0.8157 0.0000
vt 0.3867 0.7851 0.0000
vt 0.2888 0.6154 0.0000
vt 0.4847 0.6154 0.0000
vt 0.1602 0.5848 0.0000
vt 0.0623 0.4152 0.0000
vt 0.2582 0.4152 0.0000
vt 0.1602 0.7851 0.0000
vt 0.0623 0.6154 0.0000
vt 0.2582 0.6154 0.0000
vt 0.6133 0.3846 0.0000
vt 0.5153 0.2149 0.0000
vt 0.7112 0.2149 0.0000
vt 0.3867 0.5848 0.0000
vt 0.2888 0.4152 0.0000
vt 0.4847 0.4152 0.0000
vt 0.3867 0.3846 0.0000
vt 0.2888 0.2149 0.0000
vt 0.4847 0.2149 0.0000
vt 0.1602 0.1843 0.0000
vt 0.0623 0.0146 0.0000
vt 0.2582 0.0146 0.0000
vt 0.1602 0.3846 0.0000
vt 0.0623 0.2149 0.0000
vt 0.2582 0.2149 0.0000
vt 0.8398 0.7851 0.0000
vt 0.7418 0.6154 0.0000
vt 0.9377 0.6154 0.0000
vt 0.8398 0.9854 0.0000
vt 0.7418 0.8157 0.0000
vt 0.9377 0.8157 0.0000
# 60 texture coords

g d20p_COL
usemtl wire_255255255
f 1/1/1 2/2/2 3/3/3 
f 1/4/4 3/5/5 4/6/6 
f 1/7/7 4/8/8 5/9/9 
f 1/10/10 5/11/11 6/12/12 
f 1/13/13 6/14/14 2/15/15 
f 2/16/16 11/17/17 7/18/18 
f 3/19/19 7/20/20 8/21/21 
f 4/22/22 8/23/23 9/24/24 
f 5/25/25 9/26/26 10/27/27 
f 6/28/28 10/29/29 11/30/30 
f 7/31/31 3/32/32 2/33/33 
f 8/34/34 4/35/35 3/36/36 
f 9/37/37 5/38/38 4/39/39 
f 10/40/40 6/41/41 5/42/42 
f 11/43/43 2/44/44 6/45/45 
f 12/46/46 8/47/47 7/48/48 
f 12/49/49 9/50/50 8/51/51 
f 12/52/52 10/53/53 9/54/54 
f 12/55/55 11/56/56 10/57/57 
f 12/58/58 7/59/59 11/60/60 
# 20 faces

