# 3ds Max Wavefront OBJ Exporter v0.97b - (c)2007 guruware
# File Created: 08.03.2017 23:16:52

mtllib d3b_COL.mtl

#
# object d3b_COL
#

v  0.1385 -0.2500 0.2399
v  -0.2770 0.2500 -0.0000
v  -0.2552 0.3278 -0.0000
v  -0.1958 0.3914 -0.0000
v  -0.1078 0.4343 -0.0000
v  0.1385 0.2500 0.2399
v  0.1276 0.3278 0.2211
v  0.0979 0.3914 0.1696
v  0.0539 0.4343 0.0933
v  0.1385 0.2500 -0.2399
v  0.1276 0.3278 -0.2211
v  0.0979 0.3914 -0.1696
v  0.0539 0.4343 -0.0933
v  0.0000 0.4500 -0.0000
v  -0.2770 -0.2500 -0.0000
v  -0.2552 -0.3278 -0.0000
v  -0.1958 -0.3914 -0.0000
v  -0.1078 -0.4343 -0.0000
v  0.1385 -0.2500 -0.2399
v  0.1276 -0.3278 -0.2211
v  0.0979 -0.3914 -0.1696
v  0.0539 -0.4343 -0.0933
v  0.1276 -0.3278 0.2211
v  0.0979 -0.3914 0.1696
v  0.0539 -0.4343 0.0933
v  -0.0000 -0.4500 0.0000
# 26 vertices

vn -0.4990 -0.0639 0.8643
vn -0.4990 -0.0639 0.8643
vn -0.4990 0.0639 0.8643
vn -0.4990 0.0639 0.8643
vn -0.4990 0.0639 0.8643
vn -0.4990 -0.0639 0.8643
vn 0.9980 -0.0639 0.0000
vn 0.9980 -0.0639 0.0000
vn 0.9980 0.0639 0.0000
vn 0.9980 0.0639 0.0000
vn 0.9980 0.0639 0.0000
vn 0.9980 -0.0639 0.0000
vn -0.4990 -0.0639 -0.8643
vn -0.4990 -0.0639 -0.8643
vn -0.4990 0.0639 -0.8643
vn -0.4990 0.0639 -0.8643
vn -0.4990 0.0639 -0.8643
vn -0.4990 -0.0639 -0.8643
vn -0.4990 0.0639 0.8643
vn -0.4990 0.0639 0.8643
vn -0.4856 0.2383 0.8411
vn -0.4856 0.2383 0.8411
vn -0.4856 0.2383 0.8411
vn -0.4990 0.0639 0.8643
vn -0.4856 0.2383 0.8411
vn -0.4856 0.2383 0.8411
vn -0.4336 0.4981 0.7509
vn -0.4336 0.4981 0.7509
vn -0.4336 0.4981 0.7509
vn -0.4856 0.2383 0.8411
vn -0.4336 0.4981 0.7509
vn -0.4336 0.4981 0.7509
vn -0.3167 0.7737 0.5486
vn -0.3167 0.7737 0.5486
vn -0.3167 0.7737 0.5486
vn -0.4336 0.4981 0.7509
vn -0.3167 0.7737 0.5486
vn -0.3167 0.7737 0.5486
vn -0.1401 0.9599 0.2427
vn 0.9980 0.0639 0.0000
vn 0.9980 0.0639 0.0000
vn 0.9712 0.2383 0.0000
vn 0.9712 0.2383 0.0000
vn 0.9712 0.2383 -0.0000
vn 0.9980 0.0639 0.0000
vn 0.9712 0.2383 -0.0000
vn 0.9712 0.2383 0.0000
vn 0.8671 0.4981 -0.0000
vn 0.8671 0.4981 -0.0000
vn 0.8671 0.4981 -0.0000
vn 0.9712 0.2383 -0.0000
vn 0.8671 0.4981 -0.0000
vn 0.8671 0.4981 -0.0000
vn 0.6335 0.7737 -0.0000
vn 0.6335 0.7737 -0.0000
vn 0.6335 0.7737 -0.0000
vn 0.8671 0.4981 -0.0000
vn 0.6335 0.7737 -0.0000
vn 0.6335 0.7737 -0.0000
vn 0.2802 0.9599 -0.0000
vn -0.4990 0.0639 -0.8643
vn -0.4990 0.0639 -0.8643
vn -0.4856 0.2383 -0.8411
vn -0.4856 0.2383 -0.8411
vn -0.4856 0.2383 -0.8411
vn -0.4990 0.0639 -0.8643
vn -0.4856 0.2383 -0.8411
vn -0.4856 0.2383 -0.8411
vn -0.4336 0.4981 -0.7509
vn -0.4336 0.4981 -0.7509
vn -0.4336 0.4981 -0.7509
vn -0.4856 0.2383 -0.8411
vn -0.4336 0.4981 -0.7509
vn -0.4336 0.4981 -0.7509
vn -0.3167 0.7737 -0.5486
vn -0.3167 0.7737 -0.5486
vn -0.3167 0.7737 -0.5486
vn -0.4336 0.4981 -0.7509
vn -0.3167 0.7737 -0.5486
vn -0.3167 0.7737 -0.5486
vn -0.1401 0.9599 -0.2427
vn -0.4990 -0.0639 -0.8643
vn -0.4990 -0.0639 -0.8643
vn -0.4856 -0.2383 -0.8411
vn -0.4856 -0.2383 -0.8411
vn -0.4856 -0.2383 -0.8411
vn -0.4990 -0.0639 -0.8643
vn -0.4856 -0.2383 -0.8411
vn -0.4856 -0.2383 -0.8411
vn -0.4336 -0.4981 -0.7509
vn -0.4336 -0.4981 -0.7509
vn -0.4336 -0.4981 -0.7509
vn -0.4856 -0.2383 -0.8411
vn -0.4336 -0.4981 -0.7509
vn -0.4336 -0.4981 -0.7509
vn -0.3167 -0.7737 -0.5486
vn -0.3167 -0.7737 -0.5486
vn -0.3167 -0.7737 -0.5486
vn -0.4336 -0.4981 -0.7509
vn -0.3167 -0.7737 -0.5486
vn -0.3167 -0.7737 -0.5486
vn -0.1401 -0.9599 -0.2427
vn 0.9980 -0.0639 0.0000
vn 0.9980 -0.0639 0.0000
vn 0.9712 -0.2383 0.0000
vn 0.9712 -0.2383 0.0000
vn 0.9712 -0.2383 0.0000
vn 0.9980 -0.0639 0.0000
vn 0.9712 -0.2383 0.0000
vn 0.9712 -0.2383 0.0000
vn 0.8671 -0.4981 0.0000
vn 0.8671 -0.4981 0.0000
vn 0.8671 -0.4981 0.0000
vn 0.9712 -0.2383 0.0000
vn 0.8671 -0.4981 0.0000
vn 0.8671 -0.4981 0.0000
vn 0.6335 -0.7737 0.0000
vn 0.6335 -0.7737 0.0000
vn 0.6335 -0.7737 0.0000
vn 0.8671 -0.4981 0.0000
vn 0.6335 -0.7737 0.0000
vn 0.6335 -0.7737 0.0000
vn 0.2802 -0.9599 0.0000
vn -0.4990 -0.0639 0.8643
vn -0.4990 -0.0639 0.8643
vn -0.4856 -0.2383 0.8411
vn -0.4856 -0.2383 0.8411
vn -0.4856 -0.2383 0.8411
vn -0.4990 -0.0639 0.8643
vn -0.4856 -0.2383 0.8411
vn -0.4856 -0.2383 0.8411
vn -0.4336 -0.4981 0.7509
vn -0.4336 -0.4981 0.7509
vn -0.4336 -0.4981 0.7509
vn -0.4856 -0.2383 0.8411
vn -0.4336 -0.4981 0.7509
vn -0.4336 -0.4981 0.7509
vn -0.3167 -0.7737 0.5486
vn -0.3167 -0.7737 0.5486
vn -0.3167 -0.7737 0.5486
vn -0.4336 -0.4981 0.7509
vn -0.3167 -0.7737 0.5486
vn -0.3167 -0.7737 0.5486
vn -0.1401 -0.9599 0.2427
# 144 vertex normals

vt 0.1120 0.3758 0.0000
vt 0.6495 0.3758 0.0000
vt 0.8880 0.3758 0.0000
vt 0.3505 0.3758 0.0000
vt 0.8880 0.6242 0.0000
vt 0.6495 0.6242 0.0000
vt 0.3505 0.6242 0.0000
vt 0.1120 0.6242 0.0000
vt 0.3411 0.6633 0.0000
vt 0.1214 0.6633 0.0000
vt 0.3155 0.6981 0.0000
vt 0.1470 0.6981 0.0000
vt 0.3808 0.3758 0.0000
vt 0.2776 0.7287 0.0000
vt 0.1849 0.7287 0.0000
vt 0.2313 0.7566 0.0000
vt 0.1214 0.3367 0.0000
vt 0.6192 0.3758 0.0000
vt 0.8786 0.6633 0.0000
vt 0.6589 0.6633 0.0000
vt 0.8530 0.6981 0.0000
vt 0.6845 0.6981 0.0000
vt 0.3411 0.3367 0.0000
vt 0.1470 0.3019 0.0000
vt 0.3155 0.3019 0.0000
vt 0.1849 0.2713 0.0000
vt 0.2776 0.2713 0.0000
vt 0.6192 0.6242 0.0000
vt 0.8151 0.7287 0.0000
vt 0.7224 0.7287 0.0000
vt 0.7687 0.7566 0.0000
vt 0.6589 0.3367 0.0000
vt 0.3808 0.6242 0.0000
vt 0.2313 0.2434 0.0000
vt 0.6098 0.6633 0.0000
vt 0.3902 0.6633 0.0000
vt 0.5843 0.6981 0.0000
vt 0.4157 0.6981 0.0000
vt 0.5464 0.7287 0.0000
vt 0.4536 0.7287 0.0000
vt 0.5000 0.7566 0.0000
vt 0.3902 0.3367 0.0000
vt 0.6098 0.3367 0.0000
vt 0.4157 0.3019 0.0000
vt 0.5843 0.3019 0.0000
vt 0.4536 0.2713 0.0000
vt 0.5464 0.2713 0.0000
vt 0.5000 0.2434 0.0000
vt 0.8786 0.3367 0.0000
vt 0.6845 0.3019 0.0000
vt 0.8530 0.3019 0.0000
vt 0.7224 0.2713 0.0000
vt 0.8151 0.2713 0.0000
vt 0.7687 0.2434 0.0000
# 54 texture coords

g d3b_COL
usemtl wire_255255255
f 15/1/1 1/4/2 6/7/3 
f 6/7/4 2/8/5 15/1/6 
f 1/2/7 19/3/8 10/5/9 
f 10/5/10 6/6/11 1/2/12 
f 19/13/13 15/18/14 2/28/15 
f 2/28/16 10/33/17 19/13/18 
f 2/8/19 6/7/20 7/9/21 
f 7/9/22 3/10/23 2/8/24 
f 3/10/25 7/9/26 8/11/27 
f 8/11/28 4/12/29 3/10/30 
f 4/12/31 8/11/32 9/14/33 
f 9/14/34 5/15/35 4/12/36 
f 5/15/37 9/14/38 14/16/39 
f 6/6/40 10/5/41 11/19/42 
f 11/19/43 7/20/44 6/6/45 
f 7/20/46 11/19/47 12/21/48 
f 12/21/49 8/22/50 7/20/51 
f 8/22/52 12/21/53 13/29/54 
f 13/29/55 9/30/56 8/22/57 
f 9/30/58 13/29/59 14/31/60 
f 10/33/61 2/28/62 3/35/63 
f 3/35/64 11/36/65 10/33/66 
f 11/36/67 3/35/68 4/37/69 
f 4/37/70 12/38/71 11/36/72 
f 12/38/73 4/37/74 5/39/75 
f 5/39/76 13/40/77 12/38/78 
f 13/40/79 5/39/80 14/41/81 
f 15/18/82 19/13/83 20/42/84 
f 20/42/85 16/43/86 15/18/87 
f 16/43/88 20/42/89 21/44/90 
f 21/44/91 17/45/92 16/43/93 
f 17/45/94 21/44/95 22/46/96 
f 22/46/97 18/47/98 17/45/99 
f 18/47/100 22/46/101 26/48/102 
f 19/3/103 1/2/104 23/32/105 
f 23/32/106 20/49/107 19/3/108 
f 20/49/109 23/32/110 24/50/111 
f 24/50/112 21/51/113 20/49/114 
f 21/51/115 24/50/116 25/52/117 
f 25/52/118 22/53/119 21/51/120 
f 22/53/121 25/52/122 26/54/123 
f 1/4/124 15/1/125 16/17/126 
f 16/17/127 23/23/128 1/4/129 
f 23/23/130 16/17/131 17/24/132 
f 17/24/133 24/25/134 23/23/135 
f 24/25/136 17/24/137 18/26/138 
f 18/26/139 25/27/140 24/25/141 
f 25/27/142 18/26/143 26/34/144 
# 48 faces

