# 3ds Max Wavefront OBJ Exporter v0.97b - (c)2007 guruware
# File Created: 08.03.2017 22:25:57

mtllib d4b_COL.mtl

#
# object d4b_COL
#

v  0.0000 -0.2500 -0.2770
v  -0.2770 -0.2500 0.0000
v  0.2770 0.2500 -0.0000
v  -0.2770 0.2500 0.0000
v  0.2552 0.3278 -0.0000
v  0.1958 0.3914 -0.0000
v  0.1078 0.4343 -0.0000
v  0.0000 0.2500 -0.2770
v  0.0000 0.3278 -0.2552
v  0.0000 0.3914 -0.1958
v  0.0000 0.4343 -0.1078
v  -0.2552 0.3278 0.0000
v  -0.1958 0.3914 0.0000
v  -0.1078 0.4343 0.0000
v  0.0000 0.2500 0.2770
v  0.0000 0.3278 0.2552
v  0.0000 0.3914 0.1958
v  0.0000 0.4343 0.1078
v  0.0000 0.4500 0.0000
v  0.2770 -0.2500 -0.0000
v  0.2552 -0.3278 -0.0000
v  0.1958 -0.3914 -0.0000
v  0.1078 -0.4343 -0.0000
v  0.0000 -0.2500 0.2770
v  0.0000 -0.3278 0.2552
v  0.0000 -0.3914 0.1958
v  0.0000 -0.4343 0.1078
v  0.0000 -0.4500 -0.0000
v  -0.2552 -0.3278 -0.0000
v  -0.1958 -0.3914 -0.0000
v  -0.1078 -0.4343 -0.0000
v  0.0000 -0.3278 -0.2552
v  0.0000 -0.3914 -0.1958
v  0.0000 -0.4343 -0.1078
# 34 vertices

vn 0.7042 -0.0912 -0.7042
vn 0.7042 -0.0912 -0.7042
vn 0.7042 0.0912 -0.7042
vn 0.7042 0.0912 -0.7042
vn 0.7042 0.0912 -0.7042
vn 0.7042 -0.0912 -0.7042
vn -0.7042 -0.0912 -0.7042
vn -0.7042 -0.0912 -0.7042
vn -0.7042 0.0912 -0.7042
vn -0.7042 0.0912 -0.7042
vn -0.7042 0.0912 -0.7042
vn -0.7042 -0.0912 -0.7042
vn -0.7042 -0.0912 0.7042
vn -0.7042 -0.0912 0.7042
vn -0.7042 0.0912 0.7042
vn -0.7042 0.0912 0.7042
vn -0.7042 0.0912 0.7042
vn -0.7042 -0.0912 0.7042
vn 0.7042 -0.0912 0.7042
vn 0.7042 -0.0912 0.7042
vn 0.7042 0.0912 0.7042
vn 0.7042 0.0912 0.7042
vn 0.7042 0.0912 0.7042
vn 0.7042 -0.0912 0.7042
vn 0.7042 0.0912 -0.7042
vn 0.7042 0.0912 -0.7042
vn 0.6663 0.3348 -0.6663
vn 0.6663 0.3348 -0.6663
vn 0.6663 0.3348 -0.6663
vn 0.7042 0.0912 -0.7042
vn 0.6663 0.3348 -0.6663
vn 0.6663 0.3348 -0.6663
vn 0.5419 0.6423 -0.5419
vn 0.5419 0.6423 -0.5419
vn 0.5419 0.6423 -0.5419
vn 0.6663 0.3348 -0.6663
vn 0.5419 0.6423 -0.5419
vn 0.5419 0.6423 -0.5419
vn 0.3390 0.8776 -0.3390
vn 0.3390 0.8776 -0.3390
vn 0.3390 0.8776 -0.3390
vn 0.5419 0.6423 -0.5419
vn 0.3390 0.8776 -0.3390
vn 0.3390 0.8776 -0.3390
vn 0.1429 0.9794 -0.1429
vn -0.7042 0.0912 -0.7042
vn -0.7042 0.0912 -0.7042
vn -0.6663 0.3348 -0.6663
vn -0.6663 0.3348 -0.6663
vn -0.6663 0.3348 -0.6663
vn -0.7042 0.0912 -0.7042
vn -0.6663 0.3348 -0.6663
vn -0.6663 0.3348 -0.6663
vn -0.5419 0.6423 -0.5419
vn -0.5419 0.6423 -0.5419
vn -0.5419 0.6423 -0.5419
vn -0.6663 0.3348 -0.6663
vn -0.5419 0.6423 -0.5419
vn -0.5419 0.6423 -0.5419
vn -0.3390 0.8776 -0.3390
vn -0.3390 0.8776 -0.3390
vn -0.3390 0.8776 -0.3390
vn -0.5419 0.6423 -0.5419
vn -0.3390 0.8776 -0.3390
vn -0.3390 0.8776 -0.3390
vn -0.1429 0.9794 -0.1429
vn -0.7042 0.0912 0.7042
vn -0.7042 0.0912 0.7042
vn -0.6663 0.3348 0.6663
vn -0.6663 0.3348 0.6663
vn -0.6663 0.3348 0.6663
vn -0.7042 0.0912 0.7042
vn -0.6663 0.3348 0.6663
vn -0.6663 0.3348 0.6663
vn -0.5419 0.6423 0.5419
vn -0.5419 0.6423 0.5419
vn -0.5419 0.6423 0.5419
vn -0.6663 0.3348 0.6663
vn -0.5419 0.6423 0.5419
vn -0.5419 0.6423 0.5419
vn -0.3390 0.8776 0.3390
vn -0.3390 0.8776 0.3390
vn -0.3390 0.8776 0.3390
vn -0.5419 0.6423 0.5419
vn -0.3390 0.8776 0.3390
vn -0.3390 0.8776 0.3390
vn -0.1429 0.9794 0.1429
vn 0.7042 0.0912 0.7042
vn 0.7042 0.0912 0.7042
vn 0.6663 0.3348 0.6663
vn 0.6663 0.3348 0.6663
vn 0.6663 0.3348 0.6663
vn 0.7042 0.0912 0.7042
vn 0.6663 0.3348 0.6663
vn 0.6663 0.3348 0.6663
vn 0.5419 0.6423 0.5419
vn 0.5419 0.6423 0.5419
vn 0.5419 0.6423 0.5419
vn 0.6663 0.3348 0.6663
vn 0.5419 0.6423 0.5419
vn 0.5419 0.6423 0.5419
vn 0.3390 0.8776 0.3390
vn 0.3390 0.8776 0.3390
vn 0.3390 0.8776 0.3390
vn 0.5419 0.6423 0.5419
vn 0.3390 0.8776 0.3390
vn 0.3390 0.8776 0.3390
vn 0.1429 0.9794 0.1429
vn 0.7042 -0.0912 0.7042
vn 0.7042 -0.0912 0.7042
vn 0.6663 -0.3348 0.6663
vn 0.6663 -0.3348 0.6663
vn 0.6663 -0.3348 0.6663
vn 0.7042 -0.0912 0.7042
vn 0.6663 -0.3348 0.6663
vn 0.6663 -0.3348 0.6663
vn 0.5419 -0.6423 0.5419
vn 0.5419 -0.6423 0.5419
vn 0.5419 -0.6423 0.5419
vn 0.6663 -0.3348 0.6663
vn 0.5419 -0.6423 0.5419
vn 0.5419 -0.6423 0.5419
vn 0.3390 -0.8776 0.3390
vn 0.3390 -0.8776 0.3390
vn 0.3390 -0.8776 0.3390
vn 0.5419 -0.6423 0.5419
vn 0.3390 -0.8776 0.3390
vn 0.3390 -0.8776 0.3390
vn 0.1429 -0.9794 0.1429
vn -0.7042 -0.0912 0.7042
vn -0.7042 -0.0912 0.7042
vn -0.6663 -0.3348 0.6663
vn -0.6663 -0.3348 0.6663
vn -0.6663 -0.3348 0.6663
vn -0.7042 -0.0912 0.7042
vn -0.6663 -0.3348 0.6663
vn -0.6663 -0.3348 0.6663
vn -0.5419 -0.6423 0.5419
vn -0.5419 -0.6423 0.5419
vn -0.5419 -0.6423 0.5419
vn -0.6663 -0.3348 0.6663
vn -0.5419 -0.6423 0.5419
vn -0.5419 -0.6423 0.5419
vn -0.3390 -0.8776 0.3390
vn -0.3390 -0.8776 0.3390
vn -0.3390 -0.8776 0.3390
vn -0.5419 -0.6423 0.5419
vn -0.3390 -0.8776 0.3390
vn -0.3390 -0.8776 0.3390
vn -0.1429 -0.9794 0.1429
vn -0.7042 -0.0912 -0.7042
vn -0.7042 -0.0912 -0.7042
vn -0.6663 -0.3348 -0.6663
vn -0.6663 -0.3348 -0.6663
vn -0.6663 -0.3348 -0.6663
vn -0.7042 -0.0912 -0.7042
vn -0.6663 -0.3348 -0.6663
vn -0.6663 -0.3348 -0.6663
vn -0.5419 -0.6423 -0.5419
vn -0.5419 -0.6423 -0.5419
vn -0.5419 -0.6423 -0.5419
vn -0.6663 -0.3348 -0.6663
vn -0.5419 -0.6423 -0.5419
vn -0.5419 -0.6423 -0.5419
vn -0.3390 -0.8776 -0.3390
vn -0.3390 -0.8776 -0.3390
vn -0.3390 -0.8776 -0.3390
vn -0.5419 -0.6423 -0.5419
vn -0.3390 -0.8776 -0.3390
vn -0.3390 -0.8776 -0.3390
vn -0.1429 -0.9794 -0.1429
vn 0.7042 -0.0912 -0.7042
vn 0.7042 -0.0912 -0.7042
vn 0.6663 -0.3348 -0.6663
vn 0.6663 -0.3348 -0.6663
vn 0.6663 -0.3348 -0.6663
vn 0.7042 -0.0912 -0.7042
vn 0.6663 -0.3348 -0.6663
vn 0.6663 -0.3348 -0.6663
vn 0.5419 -0.6423 -0.5419
vn 0.5419 -0.6423 -0.5419
vn 0.5419 -0.6423 -0.5419
vn 0.6663 -0.3348 -0.6663
vn 0.5419 -0.6423 -0.5419
vn 0.5419 -0.6423 -0.5419
vn 0.3390 -0.8776 -0.3390
vn 0.3390 -0.8776 -0.3390
vn 0.3390 -0.8776 -0.3390
vn 0.5419 -0.6423 -0.5419
vn 0.3390 -0.8776 -0.3390
vn 0.3390 -0.8776 -0.3390
vn 0.1429 -0.9794 -0.1429
# 192 vertex normals

vt 0.0613 0.3758 0.0000
vt 0.2889 0.3758 0.0000
vt 0.4836 0.3758 0.0000
vt 0.5164 0.3758 0.0000
vt 0.2560 0.3758 0.0000
vt 0.4836 0.6242 0.0000
vt 0.2889 0.6242 0.0000
vt 0.7111 0.3758 0.0000
vt 0.2560 0.6242 0.0000
vt 0.0613 0.6242 0.0000
vt 0.2483 0.6636 0.0000
vt 0.0690 0.6636 0.0000
vt 0.2275 0.7015 0.0000
vt 0.0898 0.7015 0.0000
vt 0.7440 0.3758 0.0000
vt 0.4759 0.6636 0.0000
vt 0.2965 0.6636 0.0000
vt 0.4550 0.7015 0.0000
vt 0.3174 0.7015 0.0000
vt 0.9387 0.3758 0.0000
vt 0.4241 0.7391 0.0000
vt 0.3483 0.7391 0.0000
vt 0.3862 0.7777 0.0000
vt 0.2965 0.3364 0.0000
vt 0.9387 0.6242 0.0000
vt 0.7111 0.6242 0.0000
vt 0.5164 0.6242 0.0000
vt 0.7035 0.6636 0.0000
vt 0.5241 0.6636 0.0000
vt 0.4759 0.3364 0.0000
vt 0.1965 0.7391 0.0000
vt 0.1208 0.7391 0.0000
vt 0.1586 0.7777 0.0000
vt 0.0690 0.3364 0.0000
vt 0.7440 0.6242 0.0000
vt 0.6826 0.7015 0.0000
vt 0.5450 0.7015 0.0000
vt 0.6517 0.7391 0.0000
vt 0.5759 0.7391 0.0000
vt 0.3174 0.2985 0.0000
vt 0.4550 0.2985 0.0000
vt 0.3483 0.2609 0.0000
vt 0.4241 0.2609 0.0000
vt 0.3862 0.2223 0.0000
vt 0.9310 0.6636 0.0000
vt 0.7517 0.6636 0.0000
vt 0.9102 0.7015 0.0000
vt 0.7725 0.7015 0.0000
vt 0.8792 0.7391 0.0000
vt 0.8035 0.7391 0.0000
vt 0.8414 0.7777 0.0000
vt 0.7517 0.3364 0.0000
vt 0.9310 0.3364 0.0000
vt 0.7725 0.2985 0.0000
vt 0.9102 0.2985 0.0000
vt 0.8035 0.2609 0.0000
vt 0.8792 0.2609 0.0000
vt 0.8414 0.2223 0.0000
vt 0.6138 0.7777 0.0000
vt 0.5241 0.3364 0.0000
vt 0.7035 0.3364 0.0000
vt 0.5450 0.2985 0.0000
vt 0.6826 0.2985 0.0000
vt 0.5759 0.2609 0.0000
vt 0.6517 0.2609 0.0000
vt 0.6138 0.2223 0.0000
vt 0.2483 0.3364 0.0000
vt 0.0898 0.2985 0.0000
vt 0.2275 0.2985 0.0000
vt 0.1208 0.2609 0.0000
vt 0.1965 0.2609 0.0000
vt 0.1586 0.2223 0.0000
# 72 texture coords

g d4b_COL
usemtl wire_255255255
f 20/1/1 1/5/2 8/9/3 
f 8/9/4 3/10/5 20/1/6 
f 1/2/7 2/3/8 4/6/9 
f 4/6/10 8/7/11 1/2/12 
f 2/4/13 24/8/14 15/26/15 
f 15/26/16 4/27/17 2/4/18 
f 24/15/19 20/20/20 3/25/21 
f 3/25/22 15/35/23 24/15/24 
f 3/10/25 8/9/26 9/11/27 
f 9/11/28 5/12/29 3/10/30 
f 5/12/31 9/11/32 10/13/33 
f 10/13/34 6/14/35 5/12/36 
f 6/14/37 10/13/38 11/31/39 
f 11/31/40 7/32/41 6/14/42 
f 7/32/43 11/31/44 19/33/45 
f 8/7/46 4/6/47 12/16/48 
f 12/16/49 9/17/50 8/7/51 
f 9/17/52 12/16/53 13/18/54 
f 13/18/55 10/19/56 9/17/57 
f 10/19/58 13/18/59 14/21/60 
f 14/21/61 11/22/62 10/19/63 
f 11/22/64 14/21/65 19/23/66 
f 4/27/67 15/26/68 16/28/69 
f 16/28/70 12/29/71 4/27/72 
f 12/29/73 16/28/74 17/36/75 
f 17/36/76 13/37/77 12/29/78 
f 13/37/79 17/36/80 18/38/81 
f 18/38/82 14/39/83 13/37/84 
f 14/39/85 18/38/86 19/59/87 
f 15/35/88 3/25/89 5/45/90 
f 5/45/91 16/46/92 15/35/93 
f 16/46/94 5/45/95 6/47/96 
f 6/47/97 17/48/98 16/46/99 
f 17/48/100 6/47/101 7/49/102 
f 7/49/103 18/50/104 17/48/105 
f 18/50/106 7/49/107 19/51/108 
f 20/20/109 24/15/110 25/52/111 
f 25/52/112 21/53/113 20/20/114 
f 21/53/115 25/52/116 26/54/117 
f 26/54/118 22/55/119 21/53/120 
f 22/55/121 26/54/122 27/56/123 
f 27/56/124 23/57/125 22/55/126 
f 23/57/127 27/56/128 28/58/129 
f 24/8/130 2/4/131 29/60/132 
f 29/60/133 25/61/134 24/8/135 
f 25/61/136 29/60/137 30/62/138 
f 30/62/139 26/63/140 25/61/141 
f 26/63/142 30/62/143 31/64/144 
f 31/64/145 27/65/146 26/63/147 
f 27/65/148 31/64/149 28/66/150 
f 2/3/151 1/2/152 32/24/153 
f 32/24/154 29/30/155 2/3/156 
f 29/30/157 32/24/158 33/40/159 
f 33/40/160 30/41/161 29/30/162 
f 30/41/163 33/40/164 34/42/165 
f 34/42/166 31/43/167 30/41/168 
f 31/43/169 34/42/170 28/44/171 
f 1/5/172 20/1/173 21/34/174 
f 21/34/175 32/67/176 1/5/177 
f 32/67/178 21/34/179 22/68/180 
f 22/68/181 33/69/182 32/67/183 
f 33/69/184 22/68/185 23/70/186 
f 23/70/187 34/71/188 33/69/189 
f 34/71/190 23/70/191 28/72/192 
# 64 faces

