# 3ds Max Wavefront OBJ Exporter v0.97b - (c)2007 guruware
# File Created: 08.03.2017 23:16:51

mtllib d4p_COL.mtl

#
# object d4p_COL
#

v  0.0000 -0.4500 -0.0000
v  -0.4243 0.1500 -0.0000
v  0.2121 0.1500 -0.3674
v  0.2121 0.1500 0.3674
# 4 vertices

vn -0.4714 -0.3333 -0.8165
vn -0.4714 -0.3333 -0.8165
vn -0.4714 -0.3333 -0.8165
vn 0.9428 -0.3333 -0.0000
vn 0.9428 -0.3333 -0.0000
vn 0.9428 -0.3333 -0.0000
vn -0.4714 -0.3333 0.8165
vn -0.4714 -0.3333 0.8165
vn -0.4714 -0.3333 0.8165
vn -0.0000 1.0000 -0.0000
vn -0.0000 1.0000 -0.0000
vn -0.0000 1.0000 -0.0000
# 12 vertex normals

vt 0.6996 0.8332 0.0000
vt 0.5170 0.5170 0.0000
vt 0.8821 0.5170 0.0000
vt 0.6996 0.4830 0.0000
vt 0.5170 0.1668 0.0000
vt 0.8821 0.1668 0.0000
vt 0.3004 0.4830 0.0000
vt 0.1179 0.1668 0.0000
vt 0.4830 0.1668 0.0000
vt 0.3004 0.8332 0.0000
vt 0.1179 0.5170 0.0000
vt 0.4830 0.5170 0.0000
# 12 texture coords

g d4p_COL
usemtl wire_255255255
f 1/1/1 2/2/2 3/3/3 
f 1/4/4 3/5/5 4/6/6 
f 1/7/7 4/8/8 2/9/9 
f 2/10/10 4/11/11 3/12/12 
# 4 faces

