# 3ds Max Wavefront OBJ Exporter v0.97b - (c)2007 guruware
# File Created: 08.03.2017 22:25:58

mtllib d5b_COL.mtl

#
# object d5b_COL
#

v  0.2241 -0.2500 0.1628
v  0.2241 -0.2500 -0.1628
v  -0.0856 0.2500 -0.2635
v  -0.2770 0.2500 -0.0000
v  -0.2552 0.3278 -0.0000
v  -0.1958 0.3914 -0.0000
v  -0.1078 0.4343 -0.0000
v  -0.0856 0.2500 0.2635
v  -0.0789 0.3278 0.2428
v  -0.0605 0.3914 0.1863
v  -0.0333 0.4343 0.1025
v  0.2241 0.2500 0.1628
v  0.2065 0.3278 0.1500
v  0.1584 0.3914 0.1151
v  0.0872 0.4343 0.0634
v  0.2241 0.2500 -0.1628
v  0.2065 0.3278 -0.1500
v  0.1584 0.3914 -0.1151
v  0.0872 0.4343 -0.0634
v  -0.0789 0.3278 -0.2428
v  -0.0605 0.3914 -0.1863
v  -0.0333 0.4343 -0.1025
v  0.0000 0.4500 -0.0000
v  -0.2770 -0.2500 -0.0000
v  -0.2552 -0.3278 -0.0000
v  -0.1958 -0.3914 -0.0000
v  -0.1078 -0.4343 -0.0000
v  -0.0856 -0.2500 -0.2635
v  -0.0789 -0.3278 -0.2428
v  -0.0605 -0.3914 -0.1863
v  -0.0333 -0.4343 -0.1025
v  0.2065 -0.3278 -0.1500
v  0.1584 -0.3914 -0.1151
v  0.0872 -0.4343 -0.0634
v  0.2065 -0.3278 0.1500
v  0.1584 -0.3914 0.1151
v  0.0872 -0.4343 0.0634
v  0.0000 -0.4500 0.0000
v  -0.0856 -0.2500 0.2635
v  -0.0789 -0.3278 0.2428
v  -0.0605 -0.3914 0.1863
v  -0.0333 -0.4343 0.1025
# 42 vertices

vn -0.8045 -0.1052 0.5845
vn -0.8045 -0.1052 0.5845
vn -0.8045 0.1052 0.5845
vn -0.8045 0.1052 0.5845
vn -0.8045 0.1052 0.5845
vn -0.8045 -0.1052 0.5845
vn 0.3073 -0.1052 0.9458
vn 0.3073 -0.1052 0.9458
vn 0.3073 0.1052 0.9458
vn 0.3073 0.1052 0.9458
vn 0.3073 0.1052 0.9458
vn 0.3073 -0.1052 0.9458
vn 0.9944 -0.1052 0.0000
vn 0.9944 -0.1052 0.0000
vn 0.9944 0.1052 -0.0000
vn 0.9944 0.1052 -0.0000
vn 0.9944 0.1052 -0.0000
vn 0.9944 -0.1052 0.0000
vn 0.3073 -0.1052 -0.9458
vn 0.3073 -0.1052 -0.9458
vn 0.3073 0.1052 -0.9458
vn 0.3073 0.1052 -0.9458
vn 0.3073 0.1052 -0.9458
vn 0.3073 -0.1052 -0.9458
vn -0.8045 -0.1052 -0.5845
vn -0.8045 -0.1052 -0.5845
vn -0.8045 0.1052 -0.5845
vn -0.8045 0.1052 -0.5845
vn -0.8045 0.1052 -0.5845
vn -0.8045 -0.1052 -0.5845
vn -0.8045 0.1052 0.5845
vn -0.8045 0.1052 0.5845
vn -0.7475 0.3824 0.5431
vn -0.7475 0.3824 0.5431
vn -0.7475 0.3824 0.5431
vn -0.8045 0.1052 0.5845
vn -0.7475 0.3824 0.5431
vn -0.7475 0.3824 0.5431
vn -0.5776 0.7002 0.4196
vn -0.5776 0.7002 0.4196
vn -0.5776 0.7002 0.4196
vn -0.7475 0.3824 0.5431
vn -0.5776 0.7002 0.4196
vn -0.5776 0.7002 0.4196
vn -0.3375 0.9088 0.2452
vn -0.3375 0.9088 0.2452
vn -0.3375 0.9088 0.2452
vn -0.5776 0.7002 0.4196
vn -0.3375 0.9088 0.2452
vn -0.3375 0.9088 0.2452
vn -0.1436 0.9841 0.1044
vn 0.3073 0.1052 0.9458
vn 0.3073 0.1052 0.9458
vn 0.2855 0.3824 0.8788
vn 0.2855 0.3824 0.8788
vn 0.2855 0.3824 0.8788
vn 0.3073 0.1052 0.9458
vn 0.2855 0.3824 0.8788
vn 0.2855 0.3824 0.8788
vn 0.2206 0.7002 0.6790
vn 0.2206 0.7002 0.6790
vn 0.2206 0.7002 0.6790
vn 0.2855 0.3824 0.8788
vn 0.2206 0.7002 0.6790
vn 0.2206 0.7002 0.6790
vn 0.1289 0.9088 0.3967
vn 0.1289 0.9088 0.3967
vn 0.1289 0.9088 0.3967
vn 0.2206 0.7002 0.6790
vn 0.1289 0.9088 0.3967
vn 0.1289 0.9088 0.3967
vn 0.0549 0.9841 0.1689
vn 0.9944 0.1052 -0.0000
vn 0.9944 0.1052 -0.0000
vn 0.9240 0.3824 -0.0000
vn 0.9240 0.3824 -0.0000
vn 0.9240 0.3824 -0.0000
vn 0.9944 0.1052 -0.0000
vn 0.9240 0.3824 -0.0000
vn 0.9240 0.3824 -0.0000
vn 0.7139 0.7002 -0.0000
vn 0.7139 0.7002 -0.0000
vn 0.7139 0.7002 -0.0000
vn 0.9240 0.3824 -0.0000
vn 0.7139 0.7002 -0.0000
vn 0.7139 0.7002 -0.0000
vn 0.4172 0.9088 -0.0000
vn 0.4172 0.9088 -0.0000
vn 0.4172 0.9088 -0.0000
vn 0.7139 0.7002 -0.0000
vn 0.4172 0.9088 -0.0000
vn 0.4172 0.9088 -0.0000
vn 0.1775 0.9841 -0.0000
vn 0.3073 0.1052 -0.9458
vn 0.3073 0.1052 -0.9458
vn 0.2855 0.3824 -0.8788
vn 0.2855 0.3824 -0.8788
vn 0.2855 0.3824 -0.8788
vn 0.3073 0.1052 -0.9458
vn 0.2855 0.3824 -0.8788
vn 0.2855 0.3824 -0.8788
vn 0.2206 0.7002 -0.6790
vn 0.2206 0.7002 -0.6790
vn 0.2206 0.7002 -0.6790
vn 0.2855 0.3824 -0.8788
vn 0.2206 0.7002 -0.6790
vn 0.2206 0.7002 -0.6790
vn 0.1289 0.9088 -0.3967
vn 0.1289 0.9088 -0.3967
vn 0.1289 0.9088 -0.3967
vn 0.2206 0.7002 -0.6790
vn 0.1289 0.9088 -0.3967
vn 0.1289 0.9088 -0.3967
vn 0.0549 0.9841 -0.1689
vn -0.8045 0.1052 -0.5845
vn -0.8045 0.1052 -0.5845
vn -0.7475 0.3824 -0.5431
vn -0.7475 0.3824 -0.5431
vn -0.7475 0.3824 -0.5431
vn -0.8045 0.1052 -0.5845
vn -0.7475 0.3824 -0.5431
vn -0.7475 0.3824 -0.5431
vn -0.5776 0.7002 -0.4196
vn -0.5776 0.7002 -0.4196
vn -0.5776 0.7002 -0.4196
vn -0.7475 0.3824 -0.5431
vn -0.5776 0.7002 -0.4196
vn -0.5776 0.7002 -0.4196
vn -0.3375 0.9088 -0.2452
vn -0.3375 0.9088 -0.2452
vn -0.3375 0.9088 -0.2452
vn -0.5776 0.7002 -0.4196
vn -0.3375 0.9088 -0.2452
vn -0.3375 0.9088 -0.2452
vn -0.1436 0.9841 -0.1044
vn -0.8045 -0.1052 -0.5845
vn -0.8045 -0.1052 -0.5845
vn -0.7475 -0.3824 -0.5431
vn -0.7475 -0.3824 -0.5431
vn -0.7475 -0.3824 -0.5431
vn -0.8045 -0.1052 -0.5845
vn -0.7475 -0.3824 -0.5431
vn -0.7475 -0.3824 -0.5431
vn -0.5776 -0.7002 -0.4196
vn -0.5776 -0.7002 -0.4196
vn -0.5776 -0.7002 -0.4196
vn -0.7475 -0.3824 -0.5431
vn -0.5776 -0.7002 -0.4196
vn -0.5776 -0.7002 -0.4196
vn -0.3375 -0.9088 -0.2452
vn -0.3375 -0.9088 -0.2452
vn -0.3375 -0.9088 -0.2452
vn -0.5776 -0.7002 -0.4196
vn -0.3375 -0.9088 -0.2452
vn -0.3375 -0.9088 -0.2452
vn -0.1436 -0.9841 -0.1044
vn 0.3073 -0.1052 -0.9458
vn 0.3073 -0.1052 -0.9458
vn 0.2855 -0.3824 -0.8788
vn 0.2855 -0.3824 -0.8788
vn 0.2855 -0.3824 -0.8788
vn 0.3073 -0.1052 -0.9458
vn 0.2855 -0.3824 -0.8788
vn 0.2855 -0.3824 -0.8788
vn 0.2206 -0.7002 -0.6790
vn 0.2206 -0.7002 -0.6790
vn 0.2206 -0.7002 -0.6790
vn 0.2855 -0.3824 -0.8788
vn 0.2206 -0.7002 -0.6790
vn 0.2206 -0.7002 -0.6790
vn 0.1289 -0.9088 -0.3967
vn 0.1289 -0.9088 -0.3967
vn 0.1289 -0.9088 -0.3967
vn 0.2206 -0.7002 -0.6790
vn 0.1289 -0.9088 -0.3967
vn 0.1289 -0.9088 -0.3967
vn 0.0549 -0.9841 -0.1689
vn 0.9944 -0.1052 0.0000
vn 0.9944 -0.1052 0.0000
vn 0.9240 -0.3824 0.0000
vn 0.9240 -0.3824 0.0000
vn 0.9240 -0.3824 0.0000
vn 0.9944 -0.1052 0.0000
vn 0.9240 -0.3824 0.0000
vn 0.9240 -0.3824 0.0000
vn 0.7139 -0.7002 0.0000
vn 0.7139 -0.7002 0.0000
vn 0.7139 -0.7002 0.0000
vn 0.9240 -0.3824 0.0000
vn 0.7139 -0.7002 0.0000
vn 0.7139 -0.7002 0.0000
vn 0.4172 -0.9088 0.0000
vn 0.4172 -0.9088 0.0000
vn 0.4172 -0.9088 0.0000
vn 0.7139 -0.7002 0.0000
vn 0.4172 -0.9088 0.0000
vn 0.4172 -0.9088 0.0000
vn 0.1775 -0.9841 0.0000
vn 0.3073 -0.1052 0.9458
vn 0.3073 -0.1052 0.9458
vn 0.2855 -0.3824 0.8788
vn 0.2855 -0.3824 0.8788
vn 0.2855 -0.3824 0.8788
vn 0.3073 -0.1052 0.9458
vn 0.2855 -0.3824 0.8788
vn 0.2855 -0.3824 0.8788
vn 0.2206 -0.7002 0.6790
vn 0.2206 -0.7002 0.6790
vn 0.2206 -0.7002 0.6790
vn 0.2855 -0.3824 0.8788
vn 0.2206 -0.7002 0.6790
vn 0.2206 -0.7002 0.6790
vn 0.1289 -0.9088 0.3967
vn 0.1289 -0.9088 0.3967
vn 0.1289 -0.9088 0.3967
vn 0.2206 -0.7002 0.6790
vn 0.1289 -0.9088 0.3967
vn 0.1289 -0.9088 0.3967
vn 0.0549 -0.9841 0.1689
vn -0.8045 -0.1052 0.5845
vn -0.8045 -0.1052 0.5845
vn -0.7475 -0.3824 0.5431
vn -0.7475 -0.3824 0.5431
vn -0.7475 -0.3824 0.5431
vn -0.8045 -0.1052 0.5845
vn -0.7475 -0.3824 0.5431
vn -0.7475 -0.3824 0.5431
vn -0.5776 -0.7002 0.4196
vn -0.5776 -0.7002 0.4196
vn -0.5776 -0.7002 0.4196
vn -0.7475 -0.3824 0.5431
vn -0.5776 -0.7002 0.4196
vn -0.5776 -0.7002 0.4196
vn -0.3375 -0.9088 0.2452
vn -0.3375 -0.9088 0.2452
vn -0.3375 -0.9088 0.2452
vn -0.5776 -0.7002 0.4196
vn -0.3375 -0.9088 0.2452
vn -0.3375 -0.9088 0.2452
vn -0.1436 -0.9841 0.1044
# 240 vertex normals

vt 0.6066 0.3758 0.0000
vt 0.4191 0.3758 0.0000
vt 0.2316 0.3758 0.0000
vt 0.0441 0.3758 0.0000
vt 0.2060 0.3758 0.0000
vt 0.7684 0.3758 0.0000
vt 0.5809 0.3758 0.0000
vt 0.3934 0.3758 0.0000
vt 0.2060 0.6242 0.0000
vt 0.0441 0.6242 0.0000
vt 0.7940 0.3758 0.0000
vt 0.9559 0.3758 0.0000
vt 0.7684 0.6242 0.0000
vt 0.6066 0.6242 0.0000
vt 0.7620 0.6639 0.0000
vt 0.6129 0.6639 0.0000
vt 0.3934 0.6242 0.0000
vt 0.5809 0.6242 0.0000
vt 0.4191 0.6242 0.0000
vt 0.5746 0.6639 0.0000
vt 0.4254 0.6639 0.0000
vt 0.2316 0.6242 0.0000
vt 0.9559 0.6242 0.0000
vt 0.7940 0.6242 0.0000
vt 0.9495 0.6639 0.0000
vt 0.8004 0.6639 0.0000
vt 0.3871 0.6639 0.0000
vt 0.1996 0.6639 0.0000
vt 0.0505 0.6639 0.0000
vt 0.1823 0.7035 0.0000
vt 0.0679 0.7035 0.0000
vt 0.2380 0.6639 0.0000
vt 0.1565 0.7448 0.0000
vt 0.0936 0.7448 0.0000
vt 0.1251 0.7888 0.0000
vt 0.0505 0.3361 0.0000
vt 0.1996 0.3361 0.0000
vt 0.7447 0.7035 0.0000
vt 0.6303 0.7035 0.0000
vt 0.7190 0.7448 0.0000
vt 0.6560 0.7448 0.0000
vt 0.3697 0.7035 0.0000
vt 0.0679 0.2965 0.0000
vt 0.1823 0.2965 0.0000
vt 0.0936 0.2552 0.0000
vt 0.1565 0.2552 0.0000
vt 0.2553 0.7035 0.0000
vt 0.1251 0.2112 0.0000
vt 0.3440 0.7448 0.0000
vt 0.9321 0.7035 0.0000
vt 0.8177 0.7035 0.0000
vt 0.9064 0.7448 0.0000
vt 0.8435 0.7448 0.0000
vt 0.5572 0.7035 0.0000
vt 0.4428 0.7035 0.0000
vt 0.5315 0.7448 0.0000
vt 0.4685 0.7448 0.0000
vt 0.2810 0.7448 0.0000
vt 0.3125 0.7888 0.0000
vt 0.2380 0.3361 0.0000
vt 0.3871 0.3361 0.0000
vt 0.2553 0.2965 0.0000
vt 0.3697 0.2965 0.0000
vt 0.2810 0.2552 0.0000
vt 0.3440 0.2552 0.0000
vt 0.3125 0.2112 0.0000
vt 0.8749 0.7888 0.0000
vt 0.8004 0.3361 0.0000
vt 0.9495 0.3361 0.0000
vt 0.8177 0.2965 0.0000
vt 0.9321 0.2965 0.0000
vt 0.8435 0.2552 0.0000
vt 0.9064 0.2552 0.0000
vt 0.8749 0.2112 0.0000
vt 0.5000 0.7888 0.0000
vt 0.4254 0.3361 0.0000
vt 0.5746 0.3361 0.0000
vt 0.4428 0.2965 0.0000
vt 0.5572 0.2965 0.0000
vt 0.4685 0.2552 0.0000
vt 0.5315 0.2552 0.0000
vt 0.5000 0.2112 0.0000
vt 0.6875 0.7888 0.0000
vt 0.6129 0.3361 0.0000
vt 0.7620 0.3361 0.0000
vt 0.6303 0.2965 0.0000
vt 0.7447 0.2965 0.0000
vt 0.6560 0.2552 0.0000
vt 0.7190 0.2552 0.0000
vt 0.6875 0.2112 0.0000
# 90 texture coords

g d5b_COL
usemtl wire_255255255
f 24/2/1 39/7/2 8/18/3 
f 8/18/4 4/19/5 24/2/6 
f 39/11/7 1/12/8 12/23/9 
f 12/23/10 8/24/11 39/11/12 
f 1/3/13 2/8/14 16/17/15 
f 16/17/16 12/22/17 1/3/18 
f 2/4/19 28/5/20 3/9/21 
f 3/9/22 16/10/23 2/4/24 
f 28/1/25 24/6/26 4/13/27 
f 4/13/28 3/14/29 28/1/30 
f 4/19/31 8/18/32 9/20/33 
f 9/20/34 5/21/35 4/19/36 
f 5/21/37 9/20/38 10/54/39 
f 10/54/40 6/55/41 5/21/42 
f 6/55/43 10/54/44 11/56/45 
f 11/56/46 7/57/47 6/55/48 
f 7/57/49 11/56/50 23/75/51 
f 8/24/52 12/23/53 13/25/54 
f 13/25/55 9/26/56 8/24/57 
f 9/26/58 13/25/59 14/50/60 
f 14/50/61 10/51/62 9/26/63 
f 10/51/64 14/50/65 15/52/66 
f 15/52/67 11/53/68 10/51/69 
f 11/53/70 15/52/71 23/67/72 
f 12/22/73 16/17/74 17/27/75 
f 17/27/76 13/32/77 12/22/78 
f 13/32/79 17/27/80 18/42/81 
f 18/42/82 14/47/83 13/32/84 
f 14/47/85 18/42/86 19/49/87 
f 19/49/88 15/58/89 14/47/90 
f 15/58/91 19/49/92 23/59/93 
f 16/10/94 3/9/95 20/28/96 
f 20/28/97 17/29/98 16/10/99 
f 17/29/100 20/28/101 21/30/102 
f 21/30/103 18/31/104 17/29/105 
f 18/31/106 21/30/107 22/33/108 
f 22/33/109 19/34/110 18/31/111 
f 19/34/112 22/33/113 23/35/114 
f 3/14/115 4/13/116 5/15/117 
f 5/15/118 20/16/119 3/14/120 
f 20/16/121 5/15/122 6/38/123 
f 6/38/124 21/39/125 20/16/126 
f 21/39/127 6/38/128 7/40/129 
f 7/40/130 22/41/131 21/39/132 
f 22/41/133 7/40/134 23/83/135 
f 24/6/136 28/1/137 29/84/138 
f 29/84/139 25/85/140 24/6/141 
f 25/85/142 29/84/143 30/86/144 
f 30/86/145 26/87/146 25/85/147 
f 26/87/148 30/86/149 31/88/150 
f 31/88/151 27/89/152 26/87/153 
f 27/89/154 31/88/155 38/90/156 
f 28/5/157 2/4/158 32/36/159 
f 32/36/160 29/37/161 28/5/162 
f 29/37/163 32/36/164 33/43/165 
f 33/43/166 30/44/167 29/37/168 
f 30/44/169 33/43/170 34/45/171 
f 34/45/172 31/46/173 30/44/174 
f 31/46/175 34/45/176 38/48/177 
f 2/8/178 1/3/179 35/60/180 
f 35/60/181 32/61/182 2/8/183 
f 32/61/184 35/60/185 36/62/186 
f 36/62/187 33/63/188 32/61/189 
f 33/63/190 36/62/191 37/64/192 
f 37/64/193 34/65/194 33/63/195 
f 34/65/196 37/64/197 38/66/198 
f 1/12/199 39/11/200 40/68/201 
f 40/68/202 35/69/203 1/12/204 
f 35/69/205 40/68/206 41/70/207 
f 41/70/208 36/71/209 35/69/210 
f 36/71/211 41/70/212 42/72/213 
f 42/72/214 37/73/215 36/71/216 
f 37/73/217 42/72/218 38/74/219 
f 39/7/220 24/2/221 25/76/222 
f 25/76/223 40/77/224 39/7/225 
f 40/77/226 25/76/227 26/78/228 
f 26/78/229 41/79/230 40/77/231 
f 41/79/232 26/78/233 27/80/234 
f 27/80/235 42/81/236 41/79/237 
f 42/81/238 27/80/239 38/82/240 
# 80 faces

