# 3ds Max Wavefront OBJ Exporter v0.97b - (c)2007 guruware
# File Created: 02.03.2017 22:24:54

mtllib base-COL.mtl

#
# object base
#

v  0.375000 -0.031250 -0.000000
v  0.367795 -0.031250 -0.073159
v  0.346455 -0.031250 -0.143506
v  0.311801 -0.031250 -0.208339
v  0.265165 -0.031250 -0.265165
v  0.208339 -0.031250 -0.311801
v  0.143506 -0.031250 -0.346455
v  0.073159 -0.031250 -0.367794
v  0.000000 -0.031250 -0.375000
v  -0.073159 -0.031250 -0.367794
v  -0.143506 -0.031250 -0.346455
v  -0.208339 -0.031250 -0.311801
v  -0.265165 -0.031250 -0.265165
v  -0.311801 -0.031250 -0.208339
v  -0.346455 -0.031250 -0.143506
v  -0.367794 -0.031250 -0.073159
v  -0.375000 -0.031250 0.000000
v  -0.367794 -0.031250 0.073159
v  -0.346455 -0.031250 0.143506
v  -0.311801 -0.031250 0.208339
v  -0.265165 -0.031250 0.265165
v  -0.208339 -0.031250 0.311801
v  -0.143506 -0.031250 0.346455
v  -0.073159 -0.031250 0.367795
v  0.000000 -0.031250 0.375000
v  0.073159 -0.031250 0.367794
v  0.143507 -0.031250 0.346455
v  0.208339 -0.031250 0.311801
v  0.265165 -0.031250 0.265165
v  0.311801 -0.031250 0.208338
v  0.346455 -0.031250 0.143506
v  0.367795 -0.031250 0.073158
v  0.375000 0.031250 -0.000000
v  0.367795 0.031250 -0.073159
v  0.346455 0.031250 -0.143506
v  0.311801 0.031250 -0.208339
v  0.265165 0.031250 -0.265165
v  0.208339 0.031250 -0.311801
v  0.143506 0.031250 -0.346455
v  0.073159 0.031250 -0.367794
v  0.000000 0.031250 -0.375000
v  -0.073159 0.031250 -0.367794
v  -0.143506 0.031250 -0.346455
v  -0.208339 0.031250 -0.311801
v  -0.265165 0.031250 -0.265165
v  -0.311801 0.031250 -0.208339
v  -0.346455 0.031250 -0.143506
v  -0.367794 0.031250 -0.073159
v  -0.375000 0.031250 0.000000
v  -0.367794 0.031250 0.073159
v  -0.346455 0.031250 0.143506
v  -0.311801 0.031250 0.208339
v  -0.265165 0.031250 0.265165
v  -0.208339 0.031250 0.311801
v  -0.143506 0.031250 0.346455
v  -0.073159 0.031250 0.367795
v  0.000000 0.031250 0.375000
v  0.073159 0.031250 0.367794
v  0.143507 0.031250 0.346455
v  0.208339 0.031250 0.311801
v  0.265165 0.031250 0.265165
v  0.311801 0.031250 0.208338
v  0.346455 0.031250 0.143506
v  0.367795 0.031250 0.073158
# 64 vertices

vn 0.000000 -1.000000 -0.000000
vn 0.000000 -1.000000 -0.000000
vn 0.000000 -1.000000 -0.000000
vn 0.000000 -1.000000 -0.000000
vn 0.000000 -1.000000 -0.000000
vn 0.000000 -1.000000 -0.000000
vn 0.000000 -1.000000 -0.000000
vn 0.000000 -1.000000 -0.000000
vn 0.000000 -1.000000 -0.000000
vn 0.000000 -1.000000 -0.000000
vn 0.000000 -1.000000 -0.000000
vn 0.000000 -1.000000 -0.000000
vn 0.000000 -1.000000 -0.000000
vn 0.000000 -1.000000 -0.000000
vn 0.000000 -1.000000 -0.000000
vn 0.000000 -1.000000 -0.000000
vn 0.000000 -1.000000 -0.000000
vn 0.000000 -1.000000 -0.000000
vn 0.000000 -1.000000 -0.000000
vn 0.000000 -1.000000 -0.000000
vn 0.000000 -1.000000 -0.000000
vn 0.000000 -1.000000 -0.000000
vn 0.000000 -1.000000 -0.000000
vn 0.000000 -1.000000 -0.000000
vn 0.000000 -1.000000 -0.000000
vn 0.000000 -1.000000 -0.000000
vn 0.000000 -1.000000 -0.000000
vn 0.000000 -1.000000 -0.000000
vn 0.000000 -1.000000 -0.000000
vn 0.000000 -1.000000 -0.000000
vn 0.000000 -1.000000 -0.000000
vn 0.000000 -1.000000 -0.000000
vn 0.000000 -1.000000 -0.000000
vn 0.000000 -1.000000 -0.000000
vn 0.000000 -1.000000 -0.000000
vn 0.000000 -1.000000 -0.000000
vn 0.000000 -1.000000 -0.000000
vn 0.000000 -1.000000 -0.000000
vn 0.000000 -1.000000 -0.000000
vn 0.000000 -1.000000 -0.000000
vn 0.000000 -1.000000 -0.000000
vn 0.000000 -1.000000 -0.000000
vn 0.000000 -1.000000 -0.000000
vn 0.000000 -1.000000 -0.000000
vn 0.000000 -1.000000 -0.000000
vn 0.000000 -1.000000 -0.000000
vn 0.000000 -1.000000 -0.000000
vn 0.000000 -1.000000 -0.000000
vn 0.000000 -1.000000 -0.000000
vn 0.000000 -1.000000 -0.000000
vn 0.000000 -1.000000 -0.000000
vn 0.000000 -1.000000 -0.000000
vn 0.000000 -1.000000 -0.000000
vn 0.000000 -1.000000 -0.000000
vn 0.000000 -1.000000 -0.000000
vn 0.000000 -1.000000 -0.000000
vn 0.000000 -1.000000 -0.000000
vn 0.000000 -1.000000 -0.000000
vn 0.000000 -1.000000 -0.000000
vn 0.000000 -1.000000 -0.000000
vn 0.000000 -1.000000 -0.000000
vn 0.000000 -1.000000 -0.000000
vn 0.000000 -1.000000 -0.000000
vn 0.000000 -1.000000 -0.000000
vn 0.000000 -1.000000 -0.000000
vn 0.000000 -1.000000 -0.000000
vn 0.000000 -1.000000 -0.000000
vn 0.000000 -1.000000 -0.000000
vn 0.000000 -1.000000 -0.000000
vn 0.000000 -1.000000 -0.000000
vn 0.000000 -1.000000 -0.000000
vn 0.000000 -1.000000 -0.000000
vn 0.000000 -1.000000 -0.000000
vn 0.000000 -1.000000 -0.000000
vn 0.000000 -1.000000 -0.000000
vn 0.000000 -1.000000 -0.000000
vn 0.000000 -1.000000 -0.000000
vn 0.000000 -1.000000 -0.000000
vn 0.000000 -1.000000 -0.000000
vn 0.000000 -1.000000 -0.000000
vn 0.000000 -1.000000 -0.000000
vn 0.000000 -1.000000 -0.000000
vn 0.000000 -1.000000 -0.000000
vn 0.000000 -1.000000 -0.000000
vn 0.000000 -1.000000 -0.000000
vn 0.000000 -1.000000 -0.000000
vn 0.000000 -1.000000 -0.000000
vn 0.000000 -1.000000 -0.000000
vn 0.000000 -1.000000 -0.000000
vn 0.000000 -1.000000 -0.000000
vn 1.000000 0.000000 -0.000000
vn 0.980785 0.000000 -0.195091
vn 0.980785 0.000000 -0.195090
vn 0.980785 0.000000 -0.195090
vn 1.000000 0.000000 -0.000000
vn 1.000000 0.000000 -0.000000
vn 0.980785 0.000000 -0.195091
vn 0.923880 0.000000 -0.382683
vn 0.923880 0.000000 -0.382683
vn 0.923880 0.000000 -0.382683
vn 0.980785 0.000000 -0.195090
vn 0.980785 0.000000 -0.195091
vn 0.923880 0.000000 -0.382683
vn 0.831470 0.000000 -0.555570
vn 0.831470 0.000000 -0.555570
vn 0.831470 0.000000 -0.555570
vn 0.923880 0.000000 -0.382683
vn 0.923880 0.000000 -0.382683
vn 0.831470 0.000000 -0.555570
vn 0.707107 0.000000 -0.707107
vn 0.707107 0.000000 -0.707107
vn 0.707107 0.000000 -0.707107
vn 0.831470 0.000000 -0.555570
vn 0.831470 0.000000 -0.555570
vn 0.707107 0.000000 -0.707107
vn 0.555570 0.000000 -0.831470
vn 0.555570 0.000000 -0.831470
vn 0.555570 0.000000 -0.831470
vn 0.707107 0.000000 -0.707107
vn 0.707107 0.000000 -0.707107
vn 0.555570 0.000000 -0.831470
vn 0.382683 0.000000 -0.923880
vn 0.382683 0.000000 -0.923880
vn 0.382683 0.000000 -0.923880
vn 0.555570 0.000000 -0.831470
vn 0.555570 0.000000 -0.831470
vn 0.382683 0.000000 -0.923880
vn 0.195091 0.000000 -0.980785
vn 0.195091 0.000000 -0.980785
vn 0.195091 0.000000 -0.980785
vn 0.382683 0.000000 -0.923880
vn 0.382683 0.000000 -0.923880
vn 0.195091 0.000000 -0.980785
vn 0.000000 0.000000 -1.000000
vn 0.000000 0.000000 -1.000000
vn 0.000000 0.000000 -1.000000
vn 0.195091 0.000000 -0.980785
vn 0.195091 0.000000 -0.980785
vn 0.000000 0.000000 -1.000000
vn -0.195090 0.000000 -0.980785
vn -0.195090 0.000000 -0.980785
vn -0.195090 0.000000 -0.980785
vn 0.000000 0.000000 -1.000000
vn 0.000000 0.000000 -1.000000
vn -0.195090 0.000000 -0.980785
vn -0.382683 0.000000 -0.923880
vn -0.382683 0.000000 -0.923880
vn -0.382683 0.000000 -0.923880
vn -0.195090 0.000000 -0.980785
vn -0.195090 0.000000 -0.980785
vn -0.382683 0.000000 -0.923880
vn -0.555570 0.000000 -0.831470
vn -0.555570 0.000000 -0.831470
vn -0.555570 0.000000 -0.831470
vn -0.382683 0.000000 -0.923880
vn -0.382683 0.000000 -0.923880
vn -0.555570 0.000000 -0.831470
vn -0.707107 0.000000 -0.707107
vn -0.707107 0.000000 -0.707107
vn -0.707107 0.000000 -0.707107
vn -0.555570 0.000000 -0.831470
vn -0.555570 0.000000 -0.831470
vn -0.707107 0.000000 -0.707107
vn -0.831470 0.000000 -0.555570
vn -0.831470 0.000000 -0.555570
vn -0.831470 0.000000 -0.555570
vn -0.707107 0.000000 -0.707107
vn -0.707107 0.000000 -0.707107
vn -0.831470 0.000000 -0.555570
vn -0.923880 0.000000 -0.382683
vn -0.923880 0.000000 -0.382683
vn -0.923880 0.000000 -0.382683
vn -0.831470 0.000000 -0.555570
vn -0.831470 0.000000 -0.555570
vn -0.923880 0.000000 -0.382683
vn -0.980785 0.000000 -0.195090
vn -0.980785 0.000000 -0.195090
vn -0.980785 0.000000 -0.195090
vn -0.923880 0.000000 -0.382683
vn -0.923880 0.000000 -0.382683
vn -0.980785 0.000000 -0.195090
vn -1.000000 0.000000 0.000000
vn -1.000000 0.000000 0.000000
vn -1.000000 0.000000 0.000000
vn -0.980785 0.000000 -0.195090
vn -0.980785 0.000000 -0.195090
vn -1.000000 0.000000 0.000000
vn -0.980785 0.000000 0.195091
vn -0.980785 0.000000 0.195091
vn -0.980785 0.000000 0.195091
vn -1.000000 0.000000 0.000000
vn -1.000000 0.000000 0.000000
vn -0.980785 0.000000 0.195091
vn -0.923879 0.000000 0.382684
vn -0.923879 0.000000 0.382684
vn -0.923879 0.000000 0.382684
vn -0.980785 0.000000 0.195091
vn -0.980785 0.000000 0.195091
vn -0.923879 0.000000 0.382684
vn -0.831469 0.000000 0.555571
vn -0.831469 0.000000 0.555571
vn -0.831469 0.000000 0.555571
vn -0.923879 0.000000 0.382684
vn -0.923879 0.000000 0.382684
vn -0.831469 0.000000 0.555571
vn -0.707106 0.000000 0.707107
vn -0.707106 0.000000 0.707107
vn -0.707106 0.000000 0.707107
vn -0.831469 0.000000 0.555571
vn -0.831469 0.000000 0.555571
vn -0.707106 0.000000 0.707107
vn -0.555570 0.000000 0.831470
vn -0.555570 0.000000 0.831470
vn -0.555570 0.000000 0.831470
vn -0.707106 0.000000 0.707107
vn -0.707106 0.000000 0.707107
vn -0.555570 0.000000 0.831470
vn -0.382683 0.000000 0.923880
vn -0.382683 0.000000 0.923880
vn -0.382683 0.000000 0.923880
vn -0.555570 0.000000 0.831470
vn -0.555570 0.000000 0.831470
vn -0.382683 0.000000 0.923880
vn -0.195089 0.000000 0.980785
vn -0.195089 0.000000 0.980785
vn -0.195089 0.000000 0.980785
vn -0.382683 0.000000 0.923880
vn -0.382683 0.000000 0.923880
vn -0.195089 0.000000 0.980785
vn 0.000001 0.000000 1.000000
vn 0.000001 0.000000 1.000000
vn 0.000001 0.000000 1.000000
vn -0.195089 0.000000 0.980785
vn -0.195089 0.000000 0.980785
vn 0.000001 0.000000 1.000000
vn 0.195091 0.000000 0.980785
vn 0.195091 0.000000 0.980785
vn 0.195091 0.000000 0.980785
vn 0.000001 0.000000 1.000000
vn 0.000001 0.000000 1.000000
vn 0.195091 0.000000 0.980785
vn 0.382684 0.000000 0.923879
vn 0.382685 0.000000 0.923879
vn 0.382685 0.000000 0.923879
vn 0.195091 0.000000 0.980785
vn 0.195091 0.000000 0.980785
vn 0.382684 0.000000 0.923879
vn 0.555571 0.000000 0.831469
vn 0.555571 0.000000 0.831469
vn 0.555571 0.000000 0.831469
vn 0.382685 0.000000 0.923879
vn 0.382684 0.000000 0.923879
vn 0.555571 0.000000 0.831469
vn 0.707108 0.000000 0.707106
vn 0.707108 0.000000 0.707106
vn 0.707108 0.000000 0.707106
vn 0.555571 0.000000 0.831469
vn 0.555571 0.000000 0.831469
vn 0.707108 0.000000 0.707106
vn 0.831470 0.000000 0.555569
vn 0.831470 0.000000 0.555569
vn 0.831470 0.000000 0.555569
vn 0.707108 0.000000 0.707106
vn 0.707108 0.000000 0.707106
vn 0.831470 0.000000 0.555569
vn 0.923880 0.000000 0.382682
vn 0.923880 0.000000 0.382682
vn 0.923880 0.000000 0.382682
vn 0.831470 0.000000 0.555569
vn 0.831470 0.000000 0.555569
vn 0.923880 0.000000 0.382682
vn 0.980785 0.000000 0.195089
vn 0.980785 0.000000 0.195089
vn 0.980785 0.000000 0.195089
vn 0.923880 0.000000 0.382682
vn 0.923880 0.000000 0.382682
vn 0.980785 0.000000 0.195089
vn 1.000000 0.000000 -0.000000
vn 1.000000 0.000000 -0.000000
vn 1.000000 0.000000 -0.000000
vn 0.980785 0.000000 0.195089
vn 0.980785 0.000000 0.195089
vn 0.000000 1.000000 -0.000000
vn 0.000000 1.000000 -0.000000
vn 0.000000 1.000000 -0.000000
vn 0.000000 1.000000 -0.000000
vn 0.000000 1.000000 -0.000000
vn 0.000000 1.000000 -0.000000
vn 0.000000 1.000000 -0.000000
vn 0.000000 1.000000 -0.000000
vn 0.000000 1.000000 -0.000000
vn 0.000000 1.000000 -0.000000
vn 0.000000 1.000000 -0.000000
vn 0.000000 1.000000 -0.000000
vn 0.000000 1.000000 -0.000000
vn 0.000000 1.000000 -0.000000
vn 0.000000 1.000000 -0.000000
vn 0.000000 1.000000 -0.000000
vn 0.000000 1.000000 -0.000000
vn 0.000000 1.000000 -0.000000
vn 0.000000 1.000000 -0.000000
vn 0.000000 1.000000 -0.000000
vn 0.000000 1.000000 -0.000000
vn 0.000000 1.000000 -0.000000
vn 0.000000 1.000000 -0.000000
vn 0.000000 1.000000 -0.000000
vn 0.000000 1.000000 -0.000000
vn 0.000000 1.000000 -0.000000
vn 0.000000 1.000000 -0.000000
vn 0.000000 1.000000 -0.000000
vn 0.000000 1.000000 -0.000000
vn 0.000000 1.000000 -0.000000
vn 0.000000 1.000000 -0.000000
vn 0.000000 1.000000 -0.000000
vn 0.000000 1.000000 -0.000000
vn 0.000000 1.000000 -0.000000
vn 0.000000 1.000000 -0.000000
vn 0.000000 1.000000 -0.000000
vn 0.000000 1.000000 -0.000000
vn 0.000000 1.000000 -0.000000
vn 0.000000 1.000000 -0.000000
vn 0.000000 1.000000 -0.000000
vn 0.000000 1.000000 -0.000000
vn 0.000000 1.000000 -0.000000
vn 0.000000 1.000000 -0.000000
vn 0.000000 1.000000 -0.000000
vn 0.000000 1.000000 -0.000000
vn 0.000000 1.000000 -0.000000
vn 0.000000 1.000000 -0.000000
vn 0.000000 1.000000 -0.000000
vn 0.000000 1.000000 -0.000000
vn 0.000000 1.000000 -0.000000
vn 0.000000 1.000000 -0.000000
vn 0.000000 1.000000 -0.000000
vn 0.000000 1.000000 -0.000000
vn 0.000000 1.000000 -0.000000
vn 0.000000 1.000000 -0.000000
vn 0.000000 1.000000 -0.000000
vn 0.000000 1.000000 -0.000000
vn 0.000000 1.000000 -0.000000
vn 0.000000 1.000000 -0.000000
vn 0.000000 1.000000 -0.000000
vn 0.000000 1.000000 -0.000000
vn 0.000000 1.000000 -0.000000
vn 0.000000 1.000000 -0.000000
vn 0.000000 1.000000 -0.000000
vn 0.000000 1.000000 -0.000000
vn 0.000000 1.000000 -0.000000
vn 0.000000 1.000000 -0.000000
vn 0.000000 1.000000 -0.000000
vn 0.000000 1.000000 -0.000000
vn 0.000000 1.000000 -0.000000
vn 0.000000 1.000000 -0.000000
vn 0.000000 1.000000 -0.000000
vn 0.000000 1.000000 -0.000000
vn 0.000000 1.000000 -0.000000
vn 0.000000 1.000000 -0.000000
vn 0.000000 1.000000 -0.000000
vn 0.000000 1.000000 -0.000000
vn 0.000000 1.000000 -0.000000
vn 0.000000 1.000000 -0.000000
vn 0.000000 1.000000 -0.000000
vn 0.000000 1.000000 -0.000000
vn 0.000000 1.000000 -0.000000
vn 0.000000 1.000000 -0.000000
vn 0.000000 1.000000 -0.000000
vn 0.000000 1.000000 -0.000000
vn 0.000000 1.000000 -0.000000
vn 0.000000 1.000000 -0.000000
vn 0.000000 1.000000 -0.000000
vn 0.000000 1.000000 -0.000000
vn 0.000000 1.000000 -0.000000
# 372 vertex normals

vt 0.946157 0.578036 0.000000
vt 0.950000 0.500000 0.000000
vt 0.934776 0.653073 0.000000
vt 0.916294 0.722228 0.000000
vt 0.891421 0.782843 0.000000
vt 0.861114 0.832588 0.000000
vt 0.826537 0.869552 0.000000
vt 0.789018 0.892314 0.000000
vt 0.750000 0.900000 0.000000
vt 0.710982 0.892314 0.000000
vt 0.673463 0.869552 0.000000
vt 0.638886 0.832588 0.000000
vt 0.608579 0.782843 0.000000
vt 0.583706 0.722228 0.000000
vt 0.565224 0.653073 0.000000
vt 0.553843 0.578036 0.000000
vt 0.550000 0.500000 0.000000
vt 0.553843 0.421964 0.000000
vt 0.565224 0.346926 0.000000
vt 0.583706 0.277772 0.000000
vt 0.608579 0.217157 0.000000
vt 0.638886 0.167412 0.000000
vt 0.673463 0.130448 0.000000
vt 0.710982 0.107686 0.000000
vt 0.750000 0.100000 0.000000
vt 0.789018 0.107686 0.000000
vt 0.826537 0.130448 0.000000
vt 0.861114 0.167412 0.000000
vt 0.891422 0.217158 0.000000
vt 0.916294 0.277772 0.000000
vt 0.934776 0.346927 0.000000
vt 0.946157 0.421964 0.000000
vt 0.946157 0.578036 0.000000
vt 0.950000 0.500000 0.000000
vt 0.934776 0.653073 0.000000
vt 0.916294 0.722228 0.000000
vt 0.891421 0.782843 0.000000
vt 0.861114 0.832588 0.000000
vt 0.826537 0.869552 0.000000
vt 0.789018 0.892314 0.000000
vt 0.750000 0.900000 0.000000
vt 0.710982 0.892314 0.000000
vt 0.673463 0.869552 0.000000
vt 0.638886 0.832588 0.000000
vt 0.608579 0.782843 0.000000
vt 0.583706 0.722228 0.000000
vt 0.565224 0.653073 0.000000
vt 0.553843 0.578036 0.000000
vt 0.550000 0.500000 0.000000
vt 0.553843 0.421964 0.000000
vt 0.565224 0.346926 0.000000
vt 0.583706 0.277772 0.000000
vt 0.608579 0.217157 0.000000
vt 0.638886 0.167412 0.000000
vt 0.673463 0.130448 0.000000
vt 0.710982 0.107686 0.000000
vt 0.750000 0.100000 0.000000
vt 0.789018 0.107686 0.000000
vt 0.826537 0.130448 0.000000
vt 0.861114 0.167412 0.000000
vt 0.891422 0.217158 0.000000
vt 0.916294 0.277772 0.000000
vt 0.934776 0.346927 0.000000
vt 0.946157 0.421964 0.000000
# 64 texture coords

g base
usemtl Material__25
s 1
f -34/-34/-372 -35/-35/-371 -36/-36/-370 
f -36/-36/-369 -37/-37/-368 -38/-38/-367 
f -38/-38/-366 -39/-39/-365 -40/-40/-364 
f -36/-36/-363 -38/-38/-362 -40/-40/-361 
f -40/-40/-360 -41/-41/-359 -42/-42/-358 
f -42/-42/-357 -43/-43/-356 -44/-44/-355 
f -40/-40/-354 -42/-42/-353 -44/-44/-352 
f -44/-44/-351 -45/-45/-350 -46/-46/-349 
f -46/-46/-348 -47/-47/-347 -48/-48/-346 
f -44/-44/-345 -46/-46/-344 -48/-48/-343 
f -40/-40/-342 -44/-44/-341 -48/-48/-340 
f -48/-48/-339 -49/-49/-338 -50/-50/-337 
f -50/-50/-336 -51/-51/-335 -52/-52/-334 
f -48/-48/-333 -50/-50/-332 -52/-52/-331 
f -52/-52/-330 -53/-53/-329 -54/-54/-328 
f -54/-54/-327 -55/-55/-326 -56/-56/-325 
f -52/-52/-324 -54/-54/-323 -56/-56/-322 
f -48/-48/-321 -52/-52/-320 -56/-56/-319 
f -56/-56/-318 -57/-57/-317 -58/-58/-316 
f -58/-58/-315 -59/-59/-314 -60/-60/-313 
f -56/-56/-312 -58/-58/-311 -60/-60/-310 
f -60/-60/-309 -61/-61/-308 -62/-62/-307 
f -62/-62/-306 -63/-64/-305 -64/-63/-304 
f -60/-60/-303 -62/-62/-302 -64/-63/-301 
f -56/-56/-300 -60/-60/-299 -64/-63/-298 
f -48/-48/-297 -56/-56/-296 -64/-63/-295 
f -40/-40/-294 -48/-48/-293 -64/-63/-292 
f -36/-36/-291 -40/-40/-290 -64/-63/-289 
f -34/-34/-288 -36/-36/-287 -64/-63/-286 
f -33/-33/-285 -34/-34/-284 -64/-63/-283 
s 8
f -64/-63/-282 -63/-64/-281 -31/-32/-280 
f -31/-32/-279 -32/-31/-278 -64/-63/-277 
f -63/-64/-276 -62/-62/-275 -30/-30/-274 
f -30/-30/-273 -31/-32/-272 -63/-64/-271 
f -62/-62/-270 -61/-61/-269 -29/-29/-268 
f -29/-29/-267 -30/-30/-266 -62/-62/-265 
f -61/-61/-264 -60/-60/-263 -28/-28/-262 
f -28/-28/-261 -29/-29/-260 -61/-61/-259 
f -60/-60/-258 -59/-59/-257 -27/-27/-256 
f -27/-27/-255 -28/-28/-254 -60/-60/-253 
f -59/-59/-252 -58/-58/-251 -26/-26/-250 
f -26/-26/-249 -27/-27/-248 -59/-59/-247 
f -58/-58/-246 -57/-57/-245 -25/-25/-244 
f -25/-25/-243 -26/-26/-242 -58/-58/-241 
f -57/-57/-240 -56/-56/-239 -24/-24/-238 
f -24/-24/-237 -25/-25/-236 -57/-57/-235 
f -56/-56/-234 -55/-55/-233 -23/-23/-232 
f -23/-23/-231 -24/-24/-230 -56/-56/-229 
f -55/-55/-228 -54/-54/-227 -22/-22/-226 
f -22/-22/-225 -23/-23/-224 -55/-55/-223 
f -54/-54/-222 -53/-53/-221 -21/-21/-220 
f -21/-21/-219 -22/-22/-218 -54/-54/-217 
f -53/-53/-216 -52/-52/-215 -20/-20/-214 
f -20/-20/-213 -21/-21/-212 -53/-53/-211 
f -52/-52/-210 -51/-51/-209 -19/-19/-208 
f -19/-19/-207 -20/-20/-206 -52/-52/-205 
f -51/-51/-204 -50/-50/-203 -18/-18/-202 
f -18/-18/-201 -19/-19/-200 -51/-51/-199 
f -50/-50/-198 -49/-49/-197 -17/-17/-196 
f -17/-17/-195 -18/-18/-194 -50/-50/-193 
f -49/-49/-192 -48/-48/-191 -16/-16/-190 
f -16/-16/-189 -17/-17/-188 -49/-49/-187 
f -48/-48/-186 -47/-47/-185 -15/-15/-184 
f -15/-15/-183 -16/-16/-182 -48/-48/-181 
f -47/-47/-180 -46/-46/-179 -14/-14/-178 
f -14/-14/-177 -15/-15/-176 -47/-47/-175 
f -46/-46/-174 -45/-45/-173 -13/-13/-172 
f -13/-13/-171 -14/-14/-170 -46/-46/-169 
f -45/-45/-168 -44/-44/-167 -12/-12/-166 
f -12/-12/-165 -13/-13/-164 -45/-45/-163 
f -44/-44/-162 -43/-43/-161 -11/-11/-160 
f -11/-11/-159 -12/-12/-158 -44/-44/-157 
f -43/-43/-156 -42/-42/-155 -10/-10/-154 
f -10/-10/-153 -11/-11/-152 -43/-43/-151 
f -42/-42/-150 -41/-41/-149 -9/-9/-148 
f -9/-9/-147 -10/-10/-146 -42/-42/-145 
f -41/-41/-144 -40/-40/-143 -8/-8/-142 
f -8/-8/-141 -9/-9/-140 -41/-41/-139 
f -40/-40/-138 -39/-39/-137 -7/-7/-136 
f -7/-7/-135 -8/-8/-134 -40/-40/-133 
f -39/-39/-132 -38/-38/-131 -6/-6/-130 
f -6/-6/-129 -7/-7/-128 -39/-39/-127 
f -38/-38/-126 -37/-37/-125 -5/-5/-124 
f -5/-5/-123 -6/-6/-122 -38/-38/-121 
f -37/-37/-120 -36/-36/-119 -4/-4/-118 
f -4/-4/-117 -5/-5/-116 -37/-37/-115 
f -36/-36/-114 -35/-35/-113 -3/-3/-112 
f -3/-3/-111 -4/-4/-110 -36/-36/-109 
f -35/-35/-108 -34/-34/-107 -2/-2/-106 
f -2/-2/-105 -3/-3/-104 -35/-35/-103 
f -34/-34/-102 -33/-33/-101 -1/-1/-100 
f -1/-1/-99 -2/-2/-98 -34/-34/-97 
f -33/-33/-96 -64/-63/-95 -32/-31/-94 
f -32/-31/-93 -1/-1/-92 -33/-33/-91 
s 1
f -32/-31/-90 -31/-32/-89 -30/-30/-88 
f -30/-30/-87 -29/-29/-86 -28/-28/-85 
f -28/-28/-84 -27/-27/-83 -26/-26/-82 
f -30/-30/-81 -28/-28/-80 -26/-26/-79 
f -26/-26/-78 -25/-25/-77 -24/-24/-76 
f -24/-24/-75 -23/-23/-74 -22/-22/-73 
f -26/-26/-72 -24/-24/-71 -22/-22/-70 
f -22/-22/-69 -21/-21/-68 -20/-20/-67 
f -20/-20/-66 -19/-19/-65 -18/-18/-64 
f -22/-22/-63 -20/-20/-62 -18/-18/-61 
f -26/-26/-60 -22/-22/-59 -18/-18/-58 
f -18/-18/-57 -17/-17/-56 -16/-16/-55 
f -16/-16/-54 -15/-15/-53 -14/-14/-52 
f -18/-18/-51 -16/-16/-50 -14/-14/-49 
f -14/-14/-48 -13/-13/-47 -12/-12/-46 
f -12/-12/-45 -11/-11/-44 -10/-10/-43 
f -14/-14/-42 -12/-12/-41 -10/-10/-40 
f -18/-18/-39 -14/-14/-38 -10/-10/-37 
f -10/-10/-36 -9/-9/-35 -8/-8/-34 
f -8/-8/-33 -7/-7/-32 -6/-6/-31 
f -10/-10/-30 -8/-8/-29 -6/-6/-28 
f -6/-6/-27 -5/-5/-26 -4/-4/-25 
f -4/-4/-24 -3/-3/-23 -2/-2/-22 
f -6/-6/-21 -4/-4/-20 -2/-2/-19 
f -10/-10/-18 -6/-6/-17 -2/-2/-16 
f -18/-18/-15 -10/-10/-14 -2/-2/-13 
f -26/-26/-12 -18/-18/-11 -2/-2/-10 
f -30/-30/-9 -26/-26/-8 -2/-2/-7 
f -32/-31/-6 -30/-30/-5 -2/-2/-4 
f -1/-1/-3 -32/-31/-2 -2/-2/-1 
# 124 faces

